<svg width="303" height="313" viewBox="0 0 303 313" fill="none" xmlns="http://www.w3.org/2000/svg">
<ellipse cx="151.045" cy="151.452" rx="134.667" ry="135.848" fill="#FDE54A"/>
<ellipse cx="134.667" cy="177.152" rx="134.667" ry="135.848" fill="#FB9F99"/>
<path d="M100.36 158C100.12 158 99.9278 157.928 99.7838 157.784C99.6398 157.616 99.5678 157.412 99.5678 157.172V136.868L93.5198 141.512C93.3518 141.656 93.1718 141.728 92.9798 141.728C92.7638 141.728 92.5598 141.608 92.3678 141.368L91.5038 140.252C91.3838 140.084 91.3238 139.916 91.3238 139.748C91.3238 139.484 91.4438 139.268 91.6838 139.1L99.4958 133.052C99.7598 132.884 100.072 132.8 100.432 132.8H102.124C102.364 132.8 102.556 132.884 102.7 133.052C102.868 133.196 102.952 133.388 102.952 133.628V157.172C102.952 157.412 102.868 157.616 102.7 157.784C102.556 157.928 102.364 158 102.124 158H100.36ZM117.093 158.36C113.997 158.36 111.729 157.46 110.289 155.66C108.873 153.836 108.117 151.46 108.021 148.532L107.985 145.436L108.021 142.232C108.093 139.328 108.849 136.976 110.289 135.176C111.753 133.352 114.021 132.44 117.093 132.44C120.189 132.44 122.457 133.352 123.897 135.176C125.361 136.976 126.129 139.328 126.201 142.232C126.225 142.904 126.237 143.972 126.237 145.436C126.237 146.852 126.225 147.884 126.201 148.532C126.105 151.46 125.337 153.836 123.897 155.66C122.481 157.46 120.213 158.36 117.093 158.36ZM117.093 155.372C118.941 155.372 120.333 154.76 121.269 153.536C122.205 152.312 122.697 150.584 122.745 148.352C122.769 147.656 122.781 146.66 122.781 145.364C122.781 144.044 122.769 143.06 122.745 142.412C122.697 140.204 122.193 138.488 121.233 137.264C120.297 136.016 118.917 135.392 117.093 135.392C115.269 135.392 113.889 136.016 112.953 137.264C112.017 138.488 111.525 140.204 111.477 142.412L111.441 145.364L111.477 148.352C111.525 150.584 112.017 152.312 112.953 153.536C113.889 154.76 115.269 155.372 117.093 155.372ZM139.874 158.36C136.778 158.36 134.51 157.46 133.07 155.66C131.654 153.836 130.898 151.46 130.802 148.532L130.766 145.436L130.802 142.232C130.874 139.328 131.63 136.976 133.07 135.176C134.534 133.352 136.802 132.44 139.874 132.44C142.97 132.44 145.238 133.352 146.678 135.176C148.142 136.976 148.91 139.328 148.982 142.232C149.006 142.904 149.018 143.972 149.018 145.436C149.018 146.852 149.006 147.884 148.982 148.532C148.886 151.46 148.118 153.836 146.678 155.66C145.262 157.46 142.994 158.36 139.874 158.36ZM139.874 155.372C141.722 155.372 143.114 154.76 144.05 153.536C144.986 152.312 145.478 150.584 145.526 148.352C145.55 147.656 145.562 146.66 145.562 145.364C145.562 144.044 145.55 143.06 145.526 142.412C145.478 140.204 144.974 138.488 144.014 137.264C143.078 136.016 141.698 135.392 139.874 135.392C138.05 135.392 136.67 136.016 135.734 137.264C134.798 138.488 134.306 140.204 134.258 142.412L134.222 145.364L134.258 148.352C134.306 150.584 134.798 152.312 135.734 153.536C136.67 154.76 138.05 155.372 139.874 155.372ZM158.227 145.436C156.667 145.436 155.431 145.028 154.519 144.212C153.631 143.372 153.151 142.22 153.079 140.756C153.055 140.348 153.043 139.82 153.043 139.172C153.043 138.476 153.055 137.912 153.079 137.48C153.151 135.992 153.619 134.816 154.483 133.952C155.347 133.064 156.595 132.62 158.227 132.62C159.859 132.62 161.107 133.064 161.971 133.952C162.859 134.816 163.339 135.992 163.411 137.48C163.459 138.344 163.483 138.908 163.483 139.172C163.483 139.412 163.459 139.94 163.411 140.756C163.339 142.22 162.847 143.372 161.935 144.212C161.023 145.028 159.787 145.436 158.227 145.436ZM155.203 158C154.987 158 154.807 157.94 154.663 157.82C154.519 157.676 154.447 157.496 154.447 157.28C154.447 157.136 154.495 157.004 154.591 156.884L172.375 133.484C172.567 133.22 172.735 133.04 172.879 132.944C173.047 132.848 173.275 132.8 173.563 132.8H174.715C174.931 132.8 175.099 132.872 175.219 133.016C175.363 133.136 175.435 133.304 175.435 133.52C175.435 133.664 175.387 133.796 175.291 133.916L157.543 157.316C157.351 157.556 157.171 157.736 157.003 157.856C156.859 157.952 156.643 158 156.355 158H155.203ZM158.227 143.24C159.091 143.24 159.727 142.988 160.135 142.484C160.543 141.98 160.783 141.356 160.855 140.612C160.903 139.748 160.927 139.244 160.927 139.1C160.927 138.884 160.903 138.392 160.855 137.624C160.807 136.88 160.567 136.256 160.135 135.752C159.727 135.224 159.091 134.96 158.227 134.96C157.363 134.96 156.727 135.224 156.319 135.752C155.911 136.256 155.683 136.88 155.635 137.624C155.611 138.008 155.599 138.5 155.599 139.1C155.599 139.676 155.611 140.18 155.635 140.612C155.707 141.332 155.935 141.956 156.319 142.484C156.727 142.988 157.363 143.24 158.227 143.24ZM171.619 158.216C170.059 158.216 168.823 157.772 167.911 156.884C167.023 155.996 166.543 154.82 166.471 153.356C166.423 152.636 166.399 152.156 166.399 151.916C166.399 151.676 166.423 151.076 166.471 150.116C166.543 148.628 167.011 147.452 167.875 146.588C168.739 145.7 169.987 145.256 171.619 145.256C173.251 145.256 174.499 145.7 175.363 146.588C176.251 147.452 176.731 148.628 176.803 150.116C176.851 150.98 176.875 151.532 176.875 151.772C176.875 152.012 176.851 152.54 176.803 153.356C176.731 154.82 176.239 155.996 175.327 156.884C174.415 157.772 173.179 158.216 171.619 158.216ZM171.619 155.876C172.483 155.876 173.119 155.624 173.527 155.12C173.935 154.616 174.175 153.992 174.247 153.248C174.295 152.384 174.319 151.868 174.319 151.7C174.319 151.508 174.295 151.028 174.247 150.26C174.199 149.516 173.959 148.892 173.527 148.388C173.119 147.86 172.483 147.596 171.619 147.596C170.755 147.596 170.119 147.86 169.711 148.388C169.303 148.892 169.075 149.516 169.027 150.26C169.003 150.644 168.991 151.124 168.991 151.7C168.991 152.3 169.003 152.816 169.027 153.248C169.075 153.968 169.303 154.592 169.711 155.12C170.119 155.624 170.755 155.876 171.619 155.876Z" fill="white"/>
<path d="M64.5219 174.964C65.1753 174.964 65.7886 175.071 66.3619 175.284C66.9353 175.484 67.4286 175.798 67.8419 176.224C68.7619 177.158 69.2219 178.451 69.2219 180.104C69.2219 181.731 68.7619 183.011 67.8419 183.944C67.0153 184.798 65.9086 185.224 64.5219 185.224C63.1353 185.224 62.0153 184.798 61.1619 183.944C60.2419 183.024 59.7819 181.744 59.7819 180.104C59.7819 178.438 60.2419 177.144 61.1619 176.224C62.0019 175.384 63.1219 174.964 64.5219 174.964ZM66.8619 180.084C66.8619 179.058 66.6619 178.291 66.2619 177.784C65.8619 177.264 65.3019 177.004 64.5819 177.004C63.8753 177.004 63.2953 177.264 62.8419 177.784C62.3886 178.291 62.1619 179.058 62.1619 180.084C62.1619 181.111 62.3619 181.884 62.7619 182.404C63.1753 182.911 63.7353 183.164 64.4419 183.164C65.1486 183.164 65.7286 182.911 66.1819 182.404C66.6353 181.884 66.8619 181.111 66.8619 180.084ZM70.9701 175.224H72.4101V174.084C72.4101 173.084 72.7034 172.318 73.2901 171.784C73.8234 171.304 74.5167 171.064 75.3701 171.064C75.9167 171.064 76.5901 171.144 77.3901 171.304L76.9301 173.124C76.5567 172.991 76.2167 172.924 75.9101 172.924C75.6167 172.924 75.3567 173.011 75.1301 173.184C74.9034 173.344 74.7901 173.651 74.7901 174.104V175.224H76.5701V176.804H74.7901V184.944H72.4101V176.804H70.9701V175.224ZM90.8729 183.184C90.2595 184.478 89.2729 185.124 87.9129 185.124C86.1929 185.124 85.0595 184.451 84.5129 183.104C84.3129 182.638 84.2129 182.071 84.2129 181.404V175.204H86.5729V181.164C86.5729 181.804 86.7262 182.284 87.0329 182.604C87.3395 182.911 87.7129 183.064 88.1529 183.064C88.6062 183.064 88.9862 183.004 89.2929 182.884C89.5995 182.751 89.8662 182.558 90.0929 182.304C90.5862 181.731 90.8462 180.964 90.8729 180.004V175.204H93.2329V184.944H90.8729V183.184ZM98.2719 181.984C98.2986 182.904 98.9719 183.364 100.292 183.364C100.799 183.364 101.212 183.258 101.532 183.044C101.865 182.818 102.032 182.558 102.032 182.264C102.032 181.971 101.932 181.744 101.732 181.584C101.532 181.424 101.219 181.278 100.792 181.144L98.6719 180.384C97.0986 179.838 96.3119 178.944 96.3119 177.704C96.3119 176.878 96.6786 176.218 97.4119 175.724C98.1586 175.218 99.1519 174.964 100.392 174.964C101.645 174.964 102.605 175.238 103.272 175.784C103.952 176.331 104.305 177.018 104.332 177.844H102.112C102.085 177.524 101.932 177.271 101.652 177.084C101.372 176.898 100.972 176.804 100.452 176.804C99.9319 176.804 99.5253 176.911 99.2319 177.124C98.9519 177.324 98.8119 177.558 98.8119 177.824C98.8119 178.291 99.2053 178.638 99.9919 178.864L102.292 179.724C103.052 179.978 103.632 180.304 104.032 180.704C104.445 181.091 104.652 181.598 104.652 182.224C104.652 183.024 104.272 183.718 103.512 184.304C102.725 184.918 101.685 185.224 100.392 185.224C99.0986 185.224 98.0586 184.944 97.2719 184.384C96.4853 183.811 96.0853 183.011 96.0719 181.984H98.2719ZM114.279 176.384C114.612 176.811 114.859 177.304 115.019 177.864C115.192 178.424 115.279 178.938 115.279 179.404C115.279 179.871 115.252 180.291 115.199 180.664H108.919C108.945 181.451 109.139 182.091 109.499 182.584C109.859 183.078 110.405 183.324 111.139 183.324C112.112 183.324 112.692 182.898 112.879 182.044H115.259C115.099 183.018 114.652 183.784 113.919 184.344C113.159 184.931 112.232 185.224 111.139 185.224C109.859 185.224 108.785 184.758 107.919 183.824C107.025 182.851 106.579 181.604 106.579 180.084C106.579 178.524 107.025 177.271 107.919 176.324C108.772 175.418 109.845 174.964 111.139 174.964C112.485 174.964 113.532 175.438 114.279 176.384ZM111.159 176.844C110.492 176.844 109.972 177.064 109.599 177.504C109.225 177.931 109.005 178.484 108.939 179.164H113.079C113.079 178.111 112.745 177.404 112.079 177.044C111.825 176.911 111.519 176.844 111.159 176.844ZM120.464 177.144C121.051 175.744 121.931 175.044 123.104 175.044C123.331 175.044 123.618 175.091 123.964 175.184L123.924 177.544C123.551 177.464 123.184 177.424 122.824 177.424C121.251 177.424 120.464 178.511 120.464 180.684V184.944H118.104V175.204H120.464V177.144ZM127.745 181.984C127.771 182.904 128.445 183.364 129.765 183.364C130.271 183.364 130.685 183.258 131.005 183.044C131.338 182.818 131.505 182.558 131.505 182.264C131.505 181.971 131.405 181.744 131.205 181.584C131.005 181.424 130.691 181.278 130.265 181.144L128.145 180.384C126.571 179.838 125.785 178.944 125.785 177.704C125.785 176.878 126.151 176.218 126.885 175.724C127.631 175.218 128.625 174.964 129.865 174.964C131.118 174.964 132.078 175.238 132.745 175.784C133.425 176.331 133.778 177.018 133.805 177.844H131.585C131.558 177.524 131.405 177.271 131.125 177.084C130.845 176.898 130.445 176.804 129.925 176.804C129.405 176.804 128.998 176.911 128.705 177.124C128.425 177.324 128.285 177.558 128.285 177.824C128.285 178.291 128.678 178.638 129.465 178.864L131.765 179.724C132.525 179.978 133.105 180.304 133.505 180.704C133.918 181.091 134.125 181.598 134.125 182.224C134.125 183.024 133.745 183.718 132.985 184.304C132.198 184.918 131.158 185.224 129.865 185.224C128.571 185.224 127.531 184.944 126.745 184.384C125.958 183.811 125.558 183.011 125.545 181.984H127.745ZM142.89 175.224L144.85 182.164L146.71 175.764H148.85L150.71 182.184L152.69 175.224H155.05L151.85 184.944H149.53L147.73 179.124L145.97 184.944H143.63L140.41 175.224H142.89ZM160.386 179.264C161.16 179.264 162.053 179.391 163.066 179.644V178.684C163.066 178.004 162.926 177.504 162.646 177.184C162.38 176.851 161.933 176.684 161.306 176.684C160.693 176.684 160.22 176.811 159.886 177.064C159.553 177.304 159.386 177.651 159.386 178.104H156.806C156.806 176.998 157.193 176.198 157.966 175.704C158.753 175.211 159.846 174.964 161.246 174.964C163.246 174.964 164.54 175.664 165.126 177.064C165.326 177.544 165.426 178.111 165.426 178.764V184.944H163.366L163.186 183.644C162.56 184.698 161.6 185.224 160.306 185.224C159.053 185.224 158.08 184.918 157.386 184.304C156.746 183.718 156.426 182.978 156.426 182.084C156.426 181.178 156.78 180.484 157.486 180.004C158.193 179.511 159.16 179.264 160.386 179.264ZM163.066 181.144C162.28 180.931 161.546 180.824 160.866 180.824C159.586 180.824 158.946 181.251 158.946 182.104C158.946 182.464 159.093 182.778 159.386 183.044C159.68 183.298 160.146 183.424 160.786 183.424C161.44 183.424 161.973 183.211 162.386 182.784C162.813 182.344 163.04 181.798 163.066 181.144ZM171.186 176.904C171.826 175.611 172.853 174.964 174.266 174.964C175.466 174.964 176.366 175.358 176.966 176.144C177.579 176.931 177.886 177.971 177.886 179.264V184.944H175.526V179.264C175.526 178.544 175.353 178.004 175.006 177.644C174.659 177.271 174.173 177.084 173.546 177.084C172.919 177.084 172.379 177.364 171.926 177.924C171.486 178.484 171.253 179.324 171.226 180.444V184.944H168.866V175.224H170.926L171.186 176.904ZM186.807 184.704C185.927 185.051 185.234 185.224 184.727 185.224C184.22 185.224 183.774 185.164 183.387 185.044C183.014 184.924 182.68 184.744 182.387 184.504C181.774 183.958 181.467 183.204 181.467 182.244V176.804H180.107V175.224H181.467V172.664H183.827V175.224H186.467V176.804H183.827V182.164C183.827 182.964 184.207 183.364 184.967 183.364C185.354 183.364 185.854 183.258 186.467 183.044L186.807 184.704ZM195.998 176.384C196.331 176.811 196.578 177.304 196.738 177.864C196.911 178.424 196.998 178.938 196.998 179.404C196.998 179.871 196.971 180.291 196.918 180.664H190.638C190.664 181.451 190.858 182.091 191.218 182.584C191.578 183.078 192.124 183.324 192.858 183.324C193.831 183.324 194.411 182.898 194.598 182.044H196.978C196.818 183.018 196.371 183.784 195.638 184.344C194.878 184.931 193.951 185.224 192.858 185.224C191.578 185.224 190.504 184.758 189.638 183.824C188.744 182.851 188.298 181.604 188.298 180.084C188.298 178.524 188.744 177.271 189.638 176.324C190.491 175.418 191.564 174.964 192.858 174.964C194.204 174.964 195.251 175.438 195.998 176.384ZM192.878 176.844C192.211 176.844 191.691 177.064 191.318 177.504C190.944 177.931 190.724 178.484 190.658 179.164H194.798C194.798 178.111 194.464 177.404 193.798 177.044C193.544 176.911 193.238 176.844 192.878 176.844ZM206.163 183.444C205.563 184.631 204.643 185.224 203.403 185.224C202.163 185.224 201.123 184.751 200.283 183.804C199.416 182.818 198.983 181.564 198.983 180.044C198.983 178.524 199.396 177.291 200.223 176.344C201.036 175.424 202.05 174.964 203.263 174.964C204.476 174.964 205.39 175.451 206.003 176.424V171.224H208.383V184.944H206.443L206.163 183.444ZM203.703 177.084C203.036 177.084 202.476 177.358 202.023 177.904C201.583 178.438 201.363 179.158 201.363 180.064C201.363 180.971 201.59 181.704 202.043 182.264C202.496 182.811 203.07 183.084 203.763 183.084C204.336 183.084 204.85 182.858 205.303 182.404C205.77 181.938 206.003 181.351 206.003 180.644V179.384C205.976 178.691 205.743 178.124 205.303 177.684C204.903 177.284 204.37 177.084 203.703 177.084ZM60.3863 202.264C61.1596 202.264 62.053 202.391 63.0663 202.644V201.684C63.0663 201.004 62.9263 200.504 62.6463 200.184C62.3796 199.851 61.933 199.684 61.3063 199.684C60.693 199.684 60.2196 199.811 59.8863 200.064C59.553 200.304 59.3863 200.651 59.3863 201.104H56.8063C56.8063 199.998 57.193 199.198 57.9663 198.704C58.753 198.211 59.8463 197.964 61.2463 197.964C63.2463 197.964 64.5396 198.664 65.1263 200.064C65.3263 200.544 65.4263 201.111 65.4263 201.764V207.944H63.3663L63.1863 206.644C62.5596 207.698 61.5996 208.224 60.3063 208.224C59.053 208.224 58.0796 207.918 57.3863 207.304C56.7463 206.718 56.4263 205.978 56.4263 205.084C56.4263 204.178 56.7796 203.484 57.4863 203.004C58.193 202.511 59.1596 202.264 60.3863 202.264ZM63.0663 204.144C62.2796 203.931 61.5463 203.824 60.8663 203.824C59.5863 203.824 58.9463 204.251 58.9463 205.104C58.9463 205.464 59.093 205.778 59.3863 206.044C59.6796 206.298 60.1463 206.424 60.7863 206.424C61.4396 206.424 61.973 206.211 62.3863 205.784C62.813 205.344 63.0396 204.798 63.0663 204.144ZM72.566 197.964C73.1793 197.964 73.726 198.071 74.206 198.284C74.6993 198.484 75.1127 198.751 75.446 199.084C76.1127 199.724 76.506 200.531 76.626 201.504L74.246 201.564C74.1393 201.138 73.9393 200.784 73.646 200.504C73.366 200.224 73.0393 200.084 72.666 200.084C72.2927 200.084 71.9727 200.144 71.706 200.264C71.4393 200.371 71.206 200.544 71.006 200.784C70.5527 201.344 70.326 202.118 70.326 203.104C70.326 204.091 70.5393 204.838 70.966 205.344C71.3927 205.838 71.906 206.084 72.506 206.084C73.1193 206.084 73.5593 205.944 73.826 205.664C74.106 205.371 74.246 204.978 74.246 204.484H76.626C76.626 205.551 76.2727 206.438 75.566 207.144C74.846 207.864 73.8393 208.224 72.546 208.224C71.266 208.224 70.1927 207.758 69.326 206.824C68.406 205.824 67.946 204.578 67.946 203.084C67.946 201.511 68.406 200.251 69.326 199.304C70.1927 198.411 71.2727 197.964 72.566 197.964ZM83.1715 197.964C83.7848 197.964 84.3315 198.071 84.8115 198.284C85.3048 198.484 85.7181 198.751 86.0515 199.084C86.7181 199.724 87.1115 200.531 87.2315 201.504L84.8515 201.564C84.7448 201.138 84.5448 200.784 84.2515 200.504C83.9715 200.224 83.6448 200.084 83.2715 200.084C82.8981 200.084 82.5781 200.144 82.3115 200.264C82.0448 200.371 81.8115 200.544 81.6115 200.784C81.1581 201.344 80.9315 202.118 80.9315 203.104C80.9315 204.091 81.1448 204.838 81.5715 205.344C81.9981 205.838 82.5115 206.084 83.1115 206.084C83.7248 206.084 84.1648 205.944 84.4315 205.664C84.7115 205.371 84.8515 204.978 84.8515 204.484H87.2315C87.2315 205.551 86.8781 206.438 86.1715 207.144C85.4515 207.864 84.4448 208.224 83.1515 208.224C81.8715 208.224 80.7981 207.758 79.9315 206.824C79.0115 205.824 78.5515 204.578 78.5515 203.084C78.5515 201.511 79.0115 200.251 79.9315 199.304C80.7981 198.411 81.8781 197.964 83.1715 197.964ZM96.8569 199.384C97.1903 199.811 97.4369 200.304 97.5969 200.864C97.7703 201.424 97.8569 201.938 97.8569 202.404C97.8569 202.871 97.8303 203.291 97.7769 203.664H91.4969C91.5236 204.451 91.7169 205.091 92.0769 205.584C92.4369 206.078 92.9836 206.324 93.7169 206.324C94.6903 206.324 95.2703 205.898 95.4569 205.044H97.8369C97.6769 206.018 97.2303 206.784 96.4969 207.344C95.7369 207.931 94.8103 208.224 93.7169 208.224C92.4369 208.224 91.3636 207.758 90.4969 206.824C89.6036 205.851 89.1569 204.604 89.1569 203.084C89.1569 201.524 89.6036 200.271 90.4969 199.324C91.3503 198.418 92.4236 197.964 93.7169 197.964C95.0636 197.964 96.1103 198.438 96.8569 199.384ZM93.7369 199.844C93.0703 199.844 92.5503 200.064 92.1769 200.504C91.8036 200.931 91.5836 201.484 91.5169 202.164H95.6569C95.6569 201.111 95.3236 200.404 94.6569 200.044C94.4036 199.911 94.0969 199.844 93.7369 199.844ZM102.002 204.984C102.029 205.904 102.702 206.364 104.022 206.364C104.529 206.364 104.942 206.258 105.262 206.044C105.596 205.818 105.762 205.558 105.762 205.264C105.762 204.971 105.662 204.744 105.462 204.584C105.262 204.424 104.949 204.278 104.522 204.144L102.402 203.384C100.829 202.838 100.042 201.944 100.042 200.704C100.042 199.878 100.409 199.218 101.142 198.724C101.889 198.218 102.882 197.964 104.122 197.964C105.376 197.964 106.336 198.238 107.002 198.784C107.682 199.331 108.036 200.018 108.062 200.844H105.842C105.816 200.524 105.662 200.271 105.382 200.084C105.102 199.898 104.702 199.804 104.182 199.804C103.662 199.804 103.256 199.911 102.962 200.124C102.682 200.324 102.542 200.558 102.542 200.824C102.542 201.291 102.936 201.638 103.722 201.864L106.022 202.724C106.782 202.978 107.362 203.304 107.762 203.704C108.176 204.091 108.382 204.598 108.382 205.224C108.382 206.024 108.002 206.718 107.242 207.304C106.456 207.918 105.416 208.224 104.122 208.224C102.829 208.224 101.789 207.944 101.002 207.384C100.216 206.811 99.8157 206.011 99.8024 204.984H102.002ZM112.549 204.984C112.576 205.904 113.249 206.364 114.569 206.364C115.076 206.364 115.489 206.258 115.809 206.044C116.143 205.818 116.309 205.558 116.309 205.264C116.309 204.971 116.209 204.744 116.009 204.584C115.809 204.424 115.496 204.278 115.069 204.144L112.949 203.384C111.376 202.838 110.589 201.944 110.589 200.704C110.589 199.878 110.956 199.218 111.689 198.724C112.436 198.218 113.429 197.964 114.669 197.964C115.923 197.964 116.883 198.238 117.549 198.784C118.229 199.331 118.583 200.018 118.609 200.844H116.389C116.363 200.524 116.209 200.271 115.929 200.084C115.649 199.898 115.249 199.804 114.729 199.804C114.209 199.804 113.803 199.911 113.509 200.124C113.229 200.324 113.089 200.558 113.089 200.824C113.089 201.291 113.483 201.638 114.269 201.864L116.569 202.724C117.329 202.978 117.909 203.304 118.309 203.704C118.723 204.091 118.929 204.598 118.929 205.224C118.929 206.024 118.549 206.718 117.789 207.304C117.003 207.918 115.963 208.224 114.669 208.224C113.376 208.224 112.336 207.944 111.549 207.384C110.763 206.811 110.363 206.011 110.349 204.984H112.549ZM132.315 207.704C131.435 208.051 130.741 208.224 130.235 208.224C129.728 208.224 129.281 208.164 128.895 208.044C128.521 207.924 128.188 207.744 127.895 207.504C127.281 206.958 126.975 206.204 126.975 205.244V199.804H125.615V198.224H126.975V195.664H129.335V198.224H131.975V199.804H129.335V205.164C129.335 205.964 129.715 206.364 130.475 206.364C130.861 206.364 131.361 206.258 131.975 206.044L132.315 207.704ZM138.545 197.964C139.199 197.964 139.812 198.071 140.385 198.284C140.959 198.484 141.452 198.798 141.865 199.224C142.785 200.158 143.245 201.451 143.245 203.104C143.245 204.731 142.785 206.011 141.865 206.944C141.039 207.798 139.932 208.224 138.545 208.224C137.159 208.224 136.039 207.798 135.185 206.944C134.265 206.024 133.805 204.744 133.805 203.104C133.805 201.438 134.265 200.144 135.185 199.224C136.025 198.384 137.145 197.964 138.545 197.964ZM140.885 203.084C140.885 202.058 140.685 201.291 140.285 200.784C139.885 200.264 139.325 200.004 138.605 200.004C137.899 200.004 137.319 200.264 136.865 200.784C136.412 201.291 136.185 202.058 136.185 203.084C136.185 204.111 136.385 204.884 136.785 205.404C137.199 205.911 137.759 206.164 138.465 206.164C139.172 206.164 139.752 205.911 140.205 205.404C140.659 204.884 140.885 204.111 140.885 203.084ZM159.072 205.884C158.512 207.444 157.439 208.224 155.852 208.224C154.225 208.224 152.885 207.611 151.832 206.384C150.739 205.118 150.192 203.498 150.192 201.524C150.192 199.444 150.779 197.778 151.952 196.524C153.085 195.311 154.545 194.704 156.332 194.704C157.545 194.704 158.559 194.971 159.372 195.504C160.199 196.024 160.845 196.851 161.312 197.984L158.892 198.544C158.185 197.411 157.292 196.844 156.212 196.844C155.225 196.844 154.405 197.264 153.752 198.104C153.072 198.958 152.732 200.098 152.732 201.524C152.732 202.871 153.039 203.964 153.652 204.804C154.252 205.631 155.052 206.044 156.052 206.044C156.905 206.044 157.605 205.771 158.152 205.224C158.712 204.664 158.992 203.898 158.992 202.924V202.844L156.072 202.784V201.264H161.252V207.944H159.332L159.072 205.884ZM168.467 197.964C169.121 197.964 169.734 198.071 170.307 198.284C170.881 198.484 171.374 198.798 171.787 199.224C172.707 200.158 173.167 201.451 173.167 203.104C173.167 204.731 172.707 206.011 171.787 206.944C170.961 207.798 169.854 208.224 168.467 208.224C167.081 208.224 165.961 207.798 165.107 206.944C164.187 206.024 163.727 204.744 163.727 203.104C163.727 201.438 164.187 200.144 165.107 199.224C165.947 198.384 167.067 197.964 168.467 197.964ZM170.807 203.084C170.807 202.058 170.607 201.291 170.207 200.784C169.807 200.264 169.247 200.004 168.527 200.004C167.821 200.004 167.241 200.264 166.787 200.784C166.334 201.291 166.107 202.058 166.107 203.084C166.107 204.111 166.307 204.884 166.707 205.404C167.121 205.911 167.681 206.164 168.387 206.164C169.094 206.164 169.674 205.911 170.127 205.404C170.581 204.884 170.807 204.111 170.807 203.084ZM179.795 197.964C180.449 197.964 181.062 198.071 181.635 198.284C182.209 198.484 182.702 198.798 183.115 199.224C184.035 200.158 184.495 201.451 184.495 203.104C184.495 204.731 184.035 206.011 183.115 206.944C182.289 207.798 181.182 208.224 179.795 208.224C178.409 208.224 177.289 207.798 176.435 206.944C175.515 206.024 175.055 204.744 175.055 203.104C175.055 201.438 175.515 200.144 176.435 199.224C177.275 198.384 178.395 197.964 179.795 197.964ZM182.135 203.084C182.135 202.058 181.935 201.291 181.535 200.784C181.135 200.264 180.575 200.004 179.855 200.004C179.149 200.004 178.569 200.264 178.115 200.784C177.662 201.291 177.435 202.058 177.435 203.084C177.435 204.111 177.635 204.884 178.035 205.404C178.449 205.911 179.009 206.164 179.715 206.164C180.422 206.164 181.002 205.911 181.455 205.404C181.909 204.884 182.135 204.111 182.135 203.084ZM188.143 203.964C187.357 203.298 186.963 202.464 186.963 201.464C186.963 200.411 187.377 199.558 188.203 198.904C189.003 198.278 189.917 197.964 190.943 197.964C191.983 197.964 192.85 198.158 193.543 198.544C193.623 197.784 193.95 197.171 194.523 196.704C195.083 196.238 195.743 196.004 196.503 196.004L196.383 198.264C195.237 198.264 194.643 198.644 194.603 199.404C195.097 200.018 195.343 200.644 195.343 201.284C195.343 201.924 195.23 202.464 195.003 202.904C194.777 203.331 194.47 203.691 194.083 203.984C193.283 204.624 192.31 204.944 191.163 204.944C190.51 204.944 189.917 204.844 189.383 204.644C188.85 204.804 188.583 205.124 188.583 205.604C188.583 206.204 189.09 206.504 190.103 206.504H193.363C195.577 206.504 196.683 207.278 196.683 208.824C196.683 209.344 196.55 209.851 196.283 210.344C196.03 210.851 195.657 211.298 195.163 211.684C194.07 212.538 192.697 212.964 191.043 212.964C189.443 212.964 188.143 212.638 187.143 211.984C186.21 211.358 185.743 210.591 185.743 209.684C185.743 209.084 185.923 208.604 186.283 208.244C186.657 207.898 187.143 207.678 187.743 207.584C186.957 207.104 186.563 206.511 186.563 205.804C186.563 205.338 186.71 204.951 187.003 204.644C187.297 204.324 187.677 204.098 188.143 203.964ZM189.943 208.164C188.69 208.218 188.063 208.691 188.063 209.584C188.063 210.038 188.323 210.398 188.843 210.664C189.377 210.944 190.003 211.084 190.723 211.084C191.443 211.084 192.003 211.024 192.403 210.904C192.817 210.784 193.163 210.624 193.443 210.424C194.043 210.024 194.343 209.544 194.343 208.984C194.343 208.744 194.257 208.544 194.083 208.384C193.923 208.238 193.683 208.164 193.363 208.164H189.943ZM193.003 201.444C193.003 200.898 192.85 200.458 192.543 200.124C192.25 199.778 191.797 199.604 191.183 199.604C190.57 199.604 190.103 199.778 189.783 200.124C189.463 200.458 189.303 200.898 189.303 201.444C189.303 201.978 189.463 202.418 189.783 202.764C190.103 203.111 190.57 203.284 191.183 203.284C191.797 203.284 192.25 203.111 192.543 202.764C192.85 202.418 193.003 201.978 193.003 201.444ZM198.944 194.224H201.304V207.944H198.944V194.224ZM211.798 199.384C212.132 199.811 212.378 200.304 212.538 200.864C212.712 201.424 212.798 201.938 212.798 202.404C212.798 202.871 212.772 203.291 212.718 203.664H206.438C206.465 204.451 206.658 205.091 207.018 205.584C207.378 206.078 207.925 206.324 208.658 206.324C209.632 206.324 210.212 205.898 210.398 205.044H212.778C212.618 206.018 212.172 206.784 211.438 207.344C210.678 207.931 209.752 208.224 208.658 208.224C207.378 208.224 206.305 207.758 205.438 206.824C204.545 205.851 204.098 204.604 204.098 203.084C204.098 201.524 204.545 200.271 205.438 199.324C206.292 198.418 207.365 197.964 208.658 197.964C210.005 197.964 211.052 198.438 211.798 199.384ZM208.678 199.844C208.012 199.844 207.492 200.064 207.118 200.504C206.745 200.931 206.525 201.484 206.458 202.164H210.598C210.598 201.111 210.265 200.404 209.598 200.044C209.345 199.911 209.038 199.844 208.678 199.844ZM115.82 217.964C117.793 217.964 119.387 218.551 120.6 219.724C121.827 220.898 122.44 222.478 122.44 224.464C122.44 226.438 121.827 228.011 120.6 229.184C119.387 230.358 117.793 230.944 115.82 230.944H111.6V217.964H115.82ZM113.98 228.804H115.82C117.047 228.804 118.04 228.391 118.8 227.564C119.52 226.764 119.88 225.731 119.88 224.464C119.88 223.171 119.52 222.124 118.8 221.324C118.053 220.511 117.06 220.104 115.82 220.104H113.98V228.804ZM127.691 223.144C128.277 221.744 129.157 221.044 130.331 221.044C130.557 221.044 130.844 221.091 131.191 221.184L131.151 223.544C130.777 223.464 130.411 223.424 130.051 223.424C128.477 223.424 127.691 224.511 127.691 226.684V230.944H125.331V221.204H127.691V223.144ZM133.851 221.204H136.211V230.944H133.851V221.204ZM133.571 218.084C133.571 217.658 133.698 217.324 133.951 217.084C134.204 216.831 134.564 216.704 135.031 216.704C135.484 216.704 135.838 216.831 136.091 217.084C136.358 217.324 136.491 217.658 136.491 218.084C136.491 218.511 136.358 218.851 136.091 219.104C135.838 219.344 135.484 219.464 135.031 219.464C134.564 219.464 134.204 219.344 133.951 219.104C133.698 218.851 133.571 218.511 133.571 218.084ZM141.314 221.224L143.534 228.604L145.774 221.224H148.494L144.874 230.944H142.214L138.594 221.224H141.314ZM157.365 222.384C157.698 222.811 157.945 223.304 158.105 223.864C158.278 224.424 158.365 224.938 158.365 225.404C158.365 225.871 158.338 226.291 158.285 226.664H152.005C152.031 227.451 152.225 228.091 152.585 228.584C152.945 229.078 153.491 229.324 154.225 229.324C155.198 229.324 155.778 228.898 155.965 228.044H158.345C158.185 229.018 157.738 229.784 157.005 230.344C156.245 230.931 155.318 231.224 154.225 231.224C152.945 231.224 151.871 230.758 151.005 229.824C150.111 228.851 149.665 227.604 149.665 226.084C149.665 224.524 150.111 223.271 151.005 222.324C151.858 221.418 152.931 220.964 154.225 220.964C155.571 220.964 156.618 221.438 157.365 222.384ZM154.245 222.844C153.578 222.844 153.058 223.064 152.685 223.504C152.311 223.931 152.091 224.484 152.025 225.164H156.165C156.165 224.111 155.831 223.404 155.165 223.044C154.911 222.911 154.605 222.844 154.245 222.844Z" fill="white"/>
</svg>
