<svg width="303" height="313" viewBox="0 0 303 313" fill="none" xmlns="http://www.w3.org/2000/svg">
<ellipse cx="151.045" cy="151.452" rx="134.667" ry="135.848" fill="#FDE54A"/>
<ellipse cx="134.667" cy="177.152" rx="134.667" ry="135.848" fill="#FB9F99"/>
<path d="M100.936 137C100.696 137 100.492 136.928 100.324 136.784C100.18 136.616 100.108 136.412 100.108 136.172V116.012L94.132 120.62C93.964 120.764 93.784 120.836 93.592 120.836C93.376 120.836 93.172 120.716 92.98 120.476L92.044 119.288C91.924 119.12 91.864 118.952 91.864 118.784C91.864 118.496 91.984 118.268 92.224 118.1L100.072 112.052C100.336 111.884 100.648 111.8 101.008 111.8H102.844C103.084 111.8 103.276 111.884 103.42 112.052C103.588 112.196 103.672 112.388 103.672 112.628V136.172C103.672 136.412 103.588 136.616 103.42 136.784C103.276 136.928 103.084 137 102.844 137H100.936ZM117.81 137.36C114.714 137.36 112.446 136.46 111.006 134.66C109.566 132.86 108.798 130.496 108.702 127.568C108.678 126.92 108.666 125.876 108.666 124.436C108.666 122.948 108.678 121.868 108.702 121.196C108.774 118.316 109.542 115.976 111.006 114.176C112.47 112.352 114.738 111.44 117.81 111.44C120.906 111.44 123.186 112.352 124.65 114.176C126.114 115.976 126.882 118.316 126.954 121.196C127.002 122.54 127.026 123.62 127.026 124.436C127.026 125.228 127.002 126.272 126.954 127.568C126.858 130.496 126.09 132.86 124.65 134.66C123.21 136.46 120.93 137.36 117.81 137.36ZM117.81 134.264C119.61 134.264 120.966 133.664 121.878 132.464C122.814 131.264 123.306 129.572 123.354 127.388C123.402 125.996 123.426 124.988 123.426 124.364C123.426 123.692 123.402 122.708 123.354 121.412C123.306 119.252 122.826 117.56 121.914 116.336C121.002 115.112 119.634 114.5 117.81 114.5C116.01 114.5 114.642 115.112 113.706 116.336C112.794 117.56 112.314 119.252 112.266 121.412L112.23 124.364L112.266 127.388C112.314 129.572 112.794 131.264 113.706 132.464C114.642 133.664 116.01 134.264 117.81 134.264ZM140.662 137.36C137.566 137.36 135.298 136.46 133.858 134.66C132.418 132.86 131.65 130.496 131.554 127.568C131.53 126.92 131.518 125.876 131.518 124.436C131.518 122.948 131.53 121.868 131.554 121.196C131.626 118.316 132.394 115.976 133.858 114.176C135.322 112.352 137.59 111.44 140.662 111.44C143.758 111.44 146.038 112.352 147.502 114.176C148.966 115.976 149.734 118.316 149.806 121.196C149.854 122.54 149.878 123.62 149.878 124.436C149.878 125.228 149.854 126.272 149.806 127.568C149.71 130.496 148.942 132.86 147.502 134.66C146.062 136.46 143.782 137.36 140.662 137.36ZM140.662 134.264C142.462 134.264 143.818 133.664 144.73 132.464C145.666 131.264 146.158 129.572 146.206 127.388C146.254 125.996 146.278 124.988 146.278 124.364C146.278 123.692 146.254 122.708 146.206 121.412C146.158 119.252 145.678 117.56 144.766 116.336C143.854 115.112 142.486 114.5 140.662 114.5C138.862 114.5 137.494 115.112 136.558 116.336C135.646 117.56 135.166 119.252 135.118 121.412L135.082 124.364L135.118 127.388C135.166 129.572 135.646 131.264 136.558 132.464C137.494 133.664 138.862 134.264 140.662 134.264ZM159.05 124.436C157.49 124.436 156.254 124.028 155.342 123.212C154.454 122.372 153.962 121.22 153.866 119.756C153.842 119.348 153.83 118.82 153.83 118.172C153.83 117.476 153.842 116.912 153.866 116.48C153.938 114.992 154.406 113.816 155.27 112.952C156.158 112.064 157.418 111.62 159.05 111.62C160.682 111.62 161.93 112.064 162.794 112.952C163.682 113.816 164.162 114.992 164.234 116.48C164.282 117.44 164.306 118.052 164.306 118.316C164.306 118.556 164.282 119.036 164.234 119.756C164.162 121.22 163.67 122.372 162.758 123.212C161.846 124.028 160.61 124.436 159.05 124.436ZM156.026 137C155.81 137 155.63 136.94 155.486 136.82C155.342 136.676 155.27 136.496 155.27 136.28C155.27 136.136 155.318 136.004 155.414 135.884L173.198 112.484C173.39 112.22 173.558 112.04 173.702 111.944C173.87 111.848 174.098 111.8 174.386 111.8H175.574C175.814 111.8 175.994 111.872 176.114 112.016C176.258 112.136 176.33 112.304 176.33 112.52C176.33 112.664 176.282 112.796 176.186 112.916L158.438 136.316C158.246 136.58 158.066 136.76 157.898 136.856C157.754 136.952 157.526 137 157.214 137H156.026ZM159.05 122.204C159.914 122.204 160.538 121.952 160.922 121.448C161.33 120.944 161.57 120.332 161.642 119.612C161.69 118.748 161.714 118.244 161.714 118.1C161.714 117.884 161.69 117.392 161.642 116.624C161.594 115.88 161.354 115.256 160.922 114.752C160.514 114.248 159.89 113.996 159.05 113.996C158.21 113.996 157.586 114.248 157.178 114.752C156.77 115.256 156.542 115.88 156.494 116.624C156.47 117.008 156.458 117.5 156.458 118.1C156.458 118.676 156.47 119.18 156.494 119.612C156.566 120.356 156.794 120.98 157.178 121.484C157.586 121.964 158.21 122.204 159.05 122.204ZM172.514 137.216C170.954 137.216 169.718 136.784 168.806 135.92C167.918 135.032 167.426 133.856 167.33 132.392C167.306 131.984 167.294 131.456 167.294 130.808C167.294 130.112 167.306 129.548 167.33 129.116C167.426 127.628 167.906 126.452 168.77 125.588C169.658 124.7 170.906 124.256 172.514 124.256C174.146 124.256 175.394 124.7 176.258 125.588C177.146 126.452 177.638 127.628 177.734 129.116C177.782 129.98 177.806 130.544 177.806 130.808C177.806 131.048 177.782 131.576 177.734 132.392C177.638 133.856 177.134 135.032 176.222 135.92C175.31 136.784 174.074 137.216 172.514 137.216ZM172.514 134.84C173.378 134.84 174.002 134.588 174.386 134.084C174.794 133.58 175.034 132.968 175.106 132.248C175.154 131.384 175.178 130.88 175.178 130.736C175.178 130.52 175.154 130.028 175.106 129.26C175.058 128.516 174.83 127.892 174.422 127.388C174.014 126.884 173.378 126.632 172.514 126.632C171.674 126.632 171.05 126.884 170.642 127.388C170.234 127.892 170.006 128.516 169.958 129.26C169.934 129.644 169.922 130.136 169.922 130.736C169.922 131.312 169.934 131.816 169.958 132.248C170.03 132.968 170.258 133.58 170.642 134.084C171.05 134.588 171.674 134.84 172.514 134.84Z" fill="white"/>
<path d="M65.0981 153.964C65.7514 153.964 66.3648 154.071 66.9381 154.284C67.5114 154.484 68.0048 154.798 68.4181 155.224C69.3381 156.158 69.7981 157.451 69.7981 159.104C69.7981 160.731 69.3381 162.011 68.4181 162.944C67.5914 163.798 66.4848 164.224 65.0981 164.224C63.7114 164.224 62.5914 163.798 61.7381 162.944C60.8181 162.024 60.3581 160.744 60.3581 159.104C60.3581 157.438 60.8181 156.144 61.7381 155.224C62.5781 154.384 63.6981 153.964 65.0981 153.964ZM67.4381 159.084C67.4381 158.058 67.2381 157.291 66.8381 156.784C66.4381 156.264 65.8781 156.004 65.1581 156.004C64.4514 156.004 63.8714 156.264 63.4181 156.784C62.9648 157.291 62.7381 158.058 62.7381 159.084C62.7381 160.111 62.9381 160.884 63.3381 161.404C63.7514 161.911 64.3114 162.164 65.0181 162.164C65.7248 162.164 66.3048 161.911 66.7581 161.404C67.2114 160.884 67.4381 160.111 67.4381 159.084ZM71.5462 154.224H72.9862V153.084C72.9862 152.084 73.2796 151.318 73.8662 150.784C74.3996 150.304 75.0929 150.064 75.9462 150.064C76.4929 150.064 77.1662 150.144 77.9662 150.304L77.5062 152.124C77.1329 151.991 76.7929 151.924 76.4862 151.924C76.1929 151.924 75.9329 152.011 75.7062 152.184C75.4796 152.344 75.3662 152.651 75.3662 153.104V154.224H77.1462V155.804H75.3662V163.944H72.9862V155.804H71.5462V154.224ZM91.449 162.184C90.8357 163.478 89.849 164.124 88.489 164.124C86.769 164.124 85.6357 163.451 85.089 162.104C84.889 161.638 84.789 161.071 84.789 160.404V154.204H87.149V160.164C87.149 160.804 87.3024 161.284 87.609 161.604C87.9157 161.911 88.289 162.064 88.729 162.064C89.1824 162.064 89.5624 162.004 89.869 161.884C90.1757 161.751 90.4424 161.558 90.669 161.304C91.1624 160.731 91.4224 159.964 91.449 159.004V154.204H93.809V163.944H91.449V162.184ZM98.8481 160.984C98.8748 161.904 99.5481 162.364 100.868 162.364C101.375 162.364 101.788 162.258 102.108 162.044C102.441 161.818 102.608 161.558 102.608 161.264C102.608 160.971 102.508 160.744 102.308 160.584C102.108 160.424 101.795 160.278 101.368 160.144L99.2481 159.384C97.6748 158.838 96.8881 157.944 96.8881 156.704C96.8881 155.878 97.2548 155.218 97.9881 154.724C98.7348 154.218 99.7281 153.964 100.968 153.964C102.221 153.964 103.181 154.238 103.848 154.784C104.528 155.331 104.881 156.018 104.908 156.844H102.688C102.661 156.524 102.508 156.271 102.228 156.084C101.948 155.898 101.548 155.804 101.028 155.804C100.508 155.804 100.101 155.911 99.8081 156.124C99.5281 156.324 99.3881 156.558 99.3881 156.824C99.3881 157.291 99.7814 157.638 100.568 157.864L102.868 158.724C103.628 158.978 104.208 159.304 104.608 159.704C105.021 160.091 105.228 160.598 105.228 161.224C105.228 162.024 104.848 162.718 104.088 163.304C103.301 163.918 102.261 164.224 100.968 164.224C99.6748 164.224 98.6348 163.944 97.8481 163.384C97.0614 162.811 96.6614 162.011 96.6481 160.984H98.8481ZM114.855 155.384C115.188 155.811 115.435 156.304 115.595 156.864C115.768 157.424 115.855 157.938 115.855 158.404C115.855 158.871 115.828 159.291 115.775 159.664H109.495C109.522 160.451 109.715 161.091 110.075 161.584C110.435 162.078 110.982 162.324 111.715 162.324C112.688 162.324 113.268 161.898 113.455 161.044H115.835C115.675 162.018 115.228 162.784 114.495 163.344C113.735 163.931 112.808 164.224 111.715 164.224C110.435 164.224 109.362 163.758 108.495 162.824C107.602 161.851 107.155 160.604 107.155 159.084C107.155 157.524 107.602 156.271 108.495 155.324C109.348 154.418 110.422 153.964 111.715 153.964C113.062 153.964 114.108 154.438 114.855 155.384ZM111.735 155.844C111.068 155.844 110.548 156.064 110.175 156.504C109.802 156.931 109.582 157.484 109.515 158.164H113.655C113.655 157.111 113.322 156.404 112.655 156.044C112.402 155.911 112.095 155.844 111.735 155.844ZM121.04 156.144C121.627 154.744 122.507 154.044 123.68 154.044C123.907 154.044 124.194 154.091 124.54 154.184L124.5 156.544C124.127 156.464 123.76 156.424 123.4 156.424C121.827 156.424 121.04 157.511 121.04 159.684V163.944H118.68V154.204H121.04V156.144ZM128.321 160.984C128.347 161.904 129.021 162.364 130.341 162.364C130.847 162.364 131.261 162.258 131.581 162.044C131.914 161.818 132.081 161.558 132.081 161.264C132.081 160.971 131.981 160.744 131.781 160.584C131.581 160.424 131.267 160.278 130.841 160.144L128.721 159.384C127.147 158.838 126.361 157.944 126.361 156.704C126.361 155.878 126.727 155.218 127.461 154.724C128.207 154.218 129.201 153.964 130.441 153.964C131.694 153.964 132.654 154.238 133.321 154.784C134.001 155.331 134.354 156.018 134.381 156.844H132.161C132.134 156.524 131.981 156.271 131.701 156.084C131.421 155.898 131.021 155.804 130.501 155.804C129.981 155.804 129.574 155.911 129.281 156.124C129.001 156.324 128.861 156.558 128.861 156.824C128.861 157.291 129.254 157.638 130.041 157.864L132.341 158.724C133.101 158.978 133.681 159.304 134.081 159.704C134.494 160.091 134.701 160.598 134.701 161.224C134.701 162.024 134.321 162.718 133.561 163.304C132.774 163.918 131.734 164.224 130.441 164.224C129.147 164.224 128.107 163.944 127.321 163.384C126.534 162.811 126.134 162.011 126.121 160.984H128.321ZM143.466 154.224L145.426 161.164L147.286 154.764H149.426L151.286 161.184L153.266 154.224H155.626L152.426 163.944H150.106L148.306 158.124L146.546 163.944H144.206L140.986 154.224H143.466ZM160.962 158.264C161.736 158.264 162.629 158.391 163.642 158.644V157.684C163.642 157.004 163.502 156.504 163.222 156.184C162.956 155.851 162.509 155.684 161.882 155.684C161.269 155.684 160.796 155.811 160.462 156.064C160.129 156.304 159.962 156.651 159.962 157.104H157.382C157.382 155.998 157.769 155.198 158.542 154.704C159.329 154.211 160.422 153.964 161.822 153.964C163.822 153.964 165.116 154.664 165.702 156.064C165.902 156.544 166.002 157.111 166.002 157.764V163.944H163.942L163.762 162.644C163.136 163.698 162.176 164.224 160.882 164.224C159.629 164.224 158.656 163.918 157.962 163.304C157.322 162.718 157.002 161.978 157.002 161.084C157.002 160.178 157.356 159.484 158.062 159.004C158.769 158.511 159.736 158.264 160.962 158.264ZM163.642 160.144C162.856 159.931 162.122 159.824 161.442 159.824C160.162 159.824 159.522 160.251 159.522 161.104C159.522 161.464 159.669 161.778 159.962 162.044C160.256 162.298 160.722 162.424 161.362 162.424C162.016 162.424 162.549 162.211 162.962 161.784C163.389 161.344 163.616 160.798 163.642 160.144ZM171.762 155.904C172.402 154.611 173.429 153.964 174.842 153.964C176.042 153.964 176.942 154.358 177.542 155.144C178.155 155.931 178.462 156.971 178.462 158.264V163.944H176.102V158.264C176.102 157.544 175.929 157.004 175.582 156.644C175.235 156.271 174.749 156.084 174.122 156.084C173.495 156.084 172.955 156.364 172.502 156.924C172.062 157.484 171.829 158.324 171.802 159.444V163.944H169.442V154.224H171.502L171.762 155.904ZM187.383 163.704C186.503 164.051 185.81 164.224 185.303 164.224C184.796 164.224 184.35 164.164 183.963 164.044C183.59 163.924 183.256 163.744 182.963 163.504C182.35 162.958 182.043 162.204 182.043 161.244V155.804H180.683V154.224H182.043V151.664H184.403V154.224H187.043V155.804H184.403V161.164C184.403 161.964 184.783 162.364 185.543 162.364C185.93 162.364 186.43 162.258 187.043 162.044L187.383 163.704ZM196.574 155.384C196.907 155.811 197.154 156.304 197.314 156.864C197.487 157.424 197.574 157.938 197.574 158.404C197.574 158.871 197.547 159.291 197.494 159.664H191.214C191.24 160.451 191.434 161.091 191.794 161.584C192.154 162.078 192.7 162.324 193.434 162.324C194.407 162.324 194.987 161.898 195.174 161.044H197.554C197.394 162.018 196.947 162.784 196.214 163.344C195.454 163.931 194.527 164.224 193.434 164.224C192.154 164.224 191.08 163.758 190.214 162.824C189.32 161.851 188.874 160.604 188.874 159.084C188.874 157.524 189.32 156.271 190.214 155.324C191.067 154.418 192.14 153.964 193.434 153.964C194.78 153.964 195.827 154.438 196.574 155.384ZM193.454 155.844C192.787 155.844 192.267 156.064 191.894 156.504C191.52 156.931 191.3 157.484 191.234 158.164H195.374C195.374 157.111 195.04 156.404 194.374 156.044C194.12 155.911 193.814 155.844 193.454 155.844ZM206.739 162.444C206.139 163.631 205.219 164.224 203.979 164.224C202.739 164.224 201.699 163.751 200.859 162.804C199.993 161.818 199.559 160.564 199.559 159.044C199.559 157.524 199.973 156.291 200.799 155.344C201.613 154.424 202.626 153.964 203.839 153.964C205.053 153.964 205.966 154.451 206.579 155.424V150.224H208.959V163.944H207.019L206.739 162.444ZM204.279 156.084C203.613 156.084 203.053 156.358 202.599 156.904C202.159 157.438 201.939 158.158 201.939 159.064C201.939 159.971 202.166 160.704 202.619 161.264C203.073 161.811 203.646 162.084 204.339 162.084C204.913 162.084 205.426 161.858 205.879 161.404C206.346 160.938 206.579 160.351 206.579 159.644V158.384C206.553 157.691 206.319 157.124 205.879 156.684C205.479 156.284 204.946 156.084 204.279 156.084ZM60.9625 181.264C61.7358 181.264 62.6291 181.391 63.6425 181.644V180.684C63.6425 180.004 63.5025 179.504 63.2225 179.184C62.9558 178.851 62.5091 178.684 61.8825 178.684C61.2691 178.684 60.7958 178.811 60.4625 179.064C60.1291 179.304 59.9625 179.651 59.9625 180.104H57.3825C57.3825 178.998 57.7691 178.198 58.5425 177.704C59.3291 177.211 60.4225 176.964 61.8225 176.964C63.8225 176.964 65.1158 177.664 65.7025 179.064C65.9025 179.544 66.0025 180.111 66.0025 180.764V186.944H63.9425L63.7625 185.644C63.1358 186.698 62.1758 187.224 60.8825 187.224C59.6291 187.224 58.6558 186.918 57.9625 186.304C57.3225 185.718 57.0025 184.978 57.0025 184.084C57.0025 183.178 57.3558 182.484 58.0625 182.004C58.7691 181.511 59.7358 181.264 60.9625 181.264ZM63.6425 183.144C62.8558 182.931 62.1225 182.824 61.4425 182.824C60.1625 182.824 59.5225 183.251 59.5225 184.104C59.5225 184.464 59.6691 184.778 59.9625 185.044C60.2558 185.298 60.7225 185.424 61.3625 185.424C62.0158 185.424 62.5491 185.211 62.9625 184.784C63.3891 184.344 63.6158 183.798 63.6425 183.144ZM73.1422 176.964C73.7555 176.964 74.3022 177.071 74.7822 177.284C75.2755 177.484 75.6888 177.751 76.0222 178.084C76.6888 178.724 77.0822 179.531 77.2022 180.504L74.8222 180.564C74.7155 180.138 74.5155 179.784 74.2222 179.504C73.9422 179.224 73.6155 179.084 73.2422 179.084C72.8688 179.084 72.5488 179.144 72.2822 179.264C72.0155 179.371 71.7822 179.544 71.5822 179.784C71.1288 180.344 70.9022 181.118 70.9022 182.104C70.9022 183.091 71.1155 183.838 71.5422 184.344C71.9688 184.838 72.4822 185.084 73.0822 185.084C73.6955 185.084 74.1355 184.944 74.4022 184.664C74.6822 184.371 74.8222 183.978 74.8222 183.484H77.2022C77.2022 184.551 76.8488 185.438 76.1422 186.144C75.4222 186.864 74.4155 187.224 73.1222 187.224C71.8422 187.224 70.7688 186.758 69.9022 185.824C68.9822 184.824 68.5222 183.578 68.5222 182.084C68.5222 180.511 68.9822 179.251 69.9022 178.304C70.7688 177.411 71.8488 176.964 73.1422 176.964ZM83.7476 176.964C84.361 176.964 84.9076 177.071 85.3876 177.284C85.881 177.484 86.2943 177.751 86.6276 178.084C87.2943 178.724 87.6876 179.531 87.8076 180.504L85.4276 180.564C85.321 180.138 85.121 179.784 84.8276 179.504C84.5476 179.224 84.221 179.084 83.8476 179.084C83.4743 179.084 83.1543 179.144 82.8876 179.264C82.621 179.371 82.3876 179.544 82.1876 179.784C81.7343 180.344 81.5076 181.118 81.5076 182.104C81.5076 183.091 81.721 183.838 82.1476 184.344C82.5743 184.838 83.0876 185.084 83.6876 185.084C84.301 185.084 84.741 184.944 85.0076 184.664C85.2876 184.371 85.4276 183.978 85.4276 183.484H87.8076C87.8076 184.551 87.4543 185.438 86.7476 186.144C86.0276 186.864 85.021 187.224 83.7276 187.224C82.4476 187.224 81.3743 186.758 80.5076 185.824C79.5876 184.824 79.1276 183.578 79.1276 182.084C79.1276 180.511 79.5876 179.251 80.5076 178.304C81.3743 177.411 82.4543 176.964 83.7476 176.964ZM97.4331 178.384C97.7664 178.811 98.0131 179.304 98.1731 179.864C98.3464 180.424 98.4331 180.938 98.4331 181.404C98.4331 181.871 98.4064 182.291 98.3531 182.664H92.0731C92.0998 183.451 92.2931 184.091 92.6531 184.584C93.0131 185.078 93.5598 185.324 94.2931 185.324C95.2664 185.324 95.8464 184.898 96.0331 184.044H98.4131C98.2531 185.018 97.8064 185.784 97.0731 186.344C96.3131 186.931 95.3864 187.224 94.2931 187.224C93.0131 187.224 91.9398 186.758 91.0731 185.824C90.1798 184.851 89.7331 183.604 89.7331 182.084C89.7331 180.524 90.1798 179.271 91.0731 178.324C91.9264 177.418 92.9998 176.964 94.2931 176.964C95.6398 176.964 96.6864 177.438 97.4331 178.384ZM94.3131 178.844C93.6464 178.844 93.1264 179.064 92.7531 179.504C92.3798 179.931 92.1598 180.484 92.0931 181.164H96.2331C96.2331 180.111 95.8998 179.404 95.2331 179.044C94.9798 178.911 94.6731 178.844 94.3131 178.844ZM102.579 183.984C102.605 184.904 103.279 185.364 104.599 185.364C105.105 185.364 105.519 185.258 105.839 185.044C106.172 184.818 106.339 184.558 106.339 184.264C106.339 183.971 106.239 183.744 106.039 183.584C105.839 183.424 105.525 183.278 105.099 183.144L102.979 182.384C101.405 181.838 100.619 180.944 100.619 179.704C100.619 178.878 100.985 178.218 101.719 177.724C102.465 177.218 103.459 176.964 104.699 176.964C105.952 176.964 106.912 177.238 107.579 177.784C108.259 178.331 108.612 179.018 108.639 179.844H106.419C106.392 179.524 106.239 179.271 105.959 179.084C105.679 178.898 105.279 178.804 104.759 178.804C104.239 178.804 103.832 178.911 103.539 179.124C103.259 179.324 103.119 179.558 103.119 179.824C103.119 180.291 103.512 180.638 104.299 180.864L106.599 181.724C107.359 181.978 107.939 182.304 108.339 182.704C108.752 183.091 108.959 183.598 108.959 184.224C108.959 185.024 108.579 185.718 107.819 186.304C107.032 186.918 105.992 187.224 104.699 187.224C103.405 187.224 102.365 186.944 101.579 186.384C100.792 185.811 100.392 185.011 100.379 183.984H102.579ZM113.125 183.984C113.152 184.904 113.825 185.364 115.145 185.364C115.652 185.364 116.065 185.258 116.385 185.044C116.719 184.818 116.885 184.558 116.885 184.264C116.885 183.971 116.785 183.744 116.585 183.584C116.385 183.424 116.072 183.278 115.645 183.144L113.525 182.384C111.952 181.838 111.165 180.944 111.165 179.704C111.165 178.878 111.532 178.218 112.265 177.724C113.012 177.218 114.005 176.964 115.245 176.964C116.499 176.964 117.459 177.238 118.125 177.784C118.805 178.331 119.159 179.018 119.185 179.844H116.965C116.939 179.524 116.785 179.271 116.505 179.084C116.225 178.898 115.825 178.804 115.305 178.804C114.785 178.804 114.379 178.911 114.085 179.124C113.805 179.324 113.665 179.558 113.665 179.824C113.665 180.291 114.059 180.638 114.845 180.864L117.145 181.724C117.905 181.978 118.485 182.304 118.885 182.704C119.299 183.091 119.505 183.598 119.505 184.224C119.505 185.024 119.125 185.718 118.365 186.304C117.579 186.918 116.539 187.224 115.245 187.224C113.952 187.224 112.912 186.944 112.125 186.384C111.339 185.811 110.939 185.011 110.925 183.984H113.125ZM132.891 186.704C132.011 187.051 131.318 187.224 130.811 187.224C130.304 187.224 129.858 187.164 129.471 187.044C129.098 186.924 128.764 186.744 128.471 186.504C127.858 185.958 127.551 185.204 127.551 184.244V178.804H126.191V177.224H127.551V174.664H129.911V177.224H132.551V178.804H129.911V184.164C129.911 184.964 130.291 185.364 131.051 185.364C131.438 185.364 131.938 185.258 132.551 185.044L132.891 186.704ZM139.122 176.964C139.775 176.964 140.388 177.071 140.962 177.284C141.535 177.484 142.028 177.798 142.442 178.224C143.362 179.158 143.822 180.451 143.822 182.104C143.822 183.731 143.362 185.011 142.442 185.944C141.615 186.798 140.508 187.224 139.122 187.224C137.735 187.224 136.615 186.798 135.762 185.944C134.842 185.024 134.382 183.744 134.382 182.104C134.382 180.438 134.842 179.144 135.762 178.224C136.602 177.384 137.722 176.964 139.122 176.964ZM141.462 182.084C141.462 181.058 141.262 180.291 140.862 179.784C140.462 179.264 139.902 179.004 139.182 179.004C138.475 179.004 137.895 179.264 137.442 179.784C136.988 180.291 136.762 181.058 136.762 182.084C136.762 183.111 136.962 183.884 137.362 184.404C137.775 184.911 138.335 185.164 139.042 185.164C139.748 185.164 140.328 184.911 140.782 184.404C141.235 183.884 141.462 183.111 141.462 182.084ZM159.648 184.884C159.088 186.444 158.015 187.224 156.428 187.224C154.802 187.224 153.462 186.611 152.408 185.384C151.315 184.118 150.768 182.498 150.768 180.524C150.768 178.444 151.355 176.778 152.528 175.524C153.662 174.311 155.122 173.704 156.908 173.704C158.122 173.704 159.135 173.971 159.948 174.504C160.775 175.024 161.422 175.851 161.888 176.984L159.468 177.544C158.762 176.411 157.868 175.844 156.788 175.844C155.802 175.844 154.982 176.264 154.328 177.104C153.648 177.958 153.308 179.098 153.308 180.524C153.308 181.871 153.615 182.964 154.228 183.804C154.828 184.631 155.628 185.044 156.628 185.044C157.482 185.044 158.182 184.771 158.728 184.224C159.288 183.664 159.568 182.898 159.568 181.924V181.844L156.648 181.784V180.264H161.828V186.944H159.908L159.648 184.884ZM169.043 176.964C169.697 176.964 170.31 177.071 170.883 177.284C171.457 177.484 171.95 177.798 172.363 178.224C173.283 179.158 173.743 180.451 173.743 182.104C173.743 183.731 173.283 185.011 172.363 185.944C171.537 186.798 170.43 187.224 169.043 187.224C167.657 187.224 166.537 186.798 165.683 185.944C164.763 185.024 164.303 183.744 164.303 182.104C164.303 180.438 164.763 179.144 165.683 178.224C166.523 177.384 167.643 176.964 169.043 176.964ZM171.383 182.084C171.383 181.058 171.183 180.291 170.783 179.784C170.383 179.264 169.823 179.004 169.103 179.004C168.397 179.004 167.817 179.264 167.363 179.784C166.91 180.291 166.683 181.058 166.683 182.084C166.683 183.111 166.883 183.884 167.283 184.404C167.697 184.911 168.257 185.164 168.963 185.164C169.67 185.164 170.25 184.911 170.703 184.404C171.157 183.884 171.383 183.111 171.383 182.084ZM180.372 176.964C181.025 176.964 181.638 177.071 182.212 177.284C182.785 177.484 183.278 177.798 183.692 178.224C184.612 179.158 185.072 180.451 185.072 182.104C185.072 183.731 184.612 185.011 183.692 185.944C182.865 186.798 181.758 187.224 180.372 187.224C178.985 187.224 177.865 186.798 177.012 185.944C176.092 185.024 175.632 183.744 175.632 182.104C175.632 180.438 176.092 179.144 177.012 178.224C177.852 177.384 178.972 176.964 180.372 176.964ZM182.712 182.084C182.712 181.058 182.512 180.291 182.112 179.784C181.712 179.264 181.152 179.004 180.432 179.004C179.725 179.004 179.145 179.264 178.692 179.784C178.238 180.291 178.012 181.058 178.012 182.084C178.012 183.111 178.212 183.884 178.612 184.404C179.025 184.911 179.585 185.164 180.292 185.164C180.998 185.164 181.578 184.911 182.032 184.404C182.485 183.884 182.712 183.111 182.712 182.084ZM188.72 182.964C187.933 182.298 187.54 181.464 187.54 180.464C187.54 179.411 187.953 178.558 188.78 177.904C189.58 177.278 190.493 176.964 191.52 176.964C192.56 176.964 193.426 177.158 194.12 177.544C194.2 176.784 194.526 176.171 195.1 175.704C195.66 175.238 196.32 175.004 197.08 175.004L196.96 177.264C195.813 177.264 195.22 177.644 195.18 178.404C195.673 179.018 195.92 179.644 195.92 180.284C195.92 180.924 195.806 181.464 195.58 181.904C195.353 182.331 195.046 182.691 194.66 182.984C193.86 183.624 192.886 183.944 191.74 183.944C191.086 183.944 190.493 183.844 189.96 183.644C189.426 183.804 189.16 184.124 189.16 184.604C189.16 185.204 189.666 185.504 190.68 185.504H193.94C196.153 185.504 197.26 186.278 197.26 187.824C197.26 188.344 197.126 188.851 196.86 189.344C196.606 189.851 196.233 190.298 195.74 190.684C194.646 191.538 193.273 191.964 191.62 191.964C190.02 191.964 188.72 191.638 187.72 190.984C186.786 190.358 186.32 189.591 186.32 188.684C186.32 188.084 186.5 187.604 186.86 187.244C187.233 186.898 187.72 186.678 188.32 186.584C187.533 186.104 187.14 185.511 187.14 184.804C187.14 184.338 187.286 183.951 187.58 183.644C187.873 183.324 188.253 183.098 188.72 182.964ZM190.52 187.164C189.266 187.218 188.64 187.691 188.64 188.584C188.64 189.038 188.9 189.398 189.42 189.664C189.953 189.944 190.58 190.084 191.3 190.084C192.02 190.084 192.58 190.024 192.98 189.904C193.393 189.784 193.74 189.624 194.02 189.424C194.62 189.024 194.92 188.544 194.92 187.984C194.92 187.744 194.833 187.544 194.66 187.384C194.5 187.238 194.26 187.164 193.94 187.164H190.52ZM193.58 180.444C193.58 179.898 193.426 179.458 193.12 179.124C192.826 178.778 192.373 178.604 191.76 178.604C191.146 178.604 190.68 178.778 190.36 179.124C190.04 179.458 189.88 179.898 189.88 180.444C189.88 180.978 190.04 181.418 190.36 181.764C190.68 182.111 191.146 182.284 191.76 182.284C192.373 182.284 192.826 182.111 193.12 181.764C193.426 181.418 193.58 180.978 193.58 180.444ZM199.52 173.224H201.88V186.944H199.52V173.224ZM212.374 178.384C212.708 178.811 212.954 179.304 213.114 179.864C213.288 180.424 213.374 180.938 213.374 181.404C213.374 181.871 213.348 182.291 213.294 182.664H207.014C207.041 183.451 207.234 184.091 207.594 184.584C207.954 185.078 208.501 185.324 209.234 185.324C210.208 185.324 210.788 184.898 210.974 184.044H213.354C213.194 185.018 212.748 185.784 212.014 186.344C211.254 186.931 210.328 187.224 209.234 187.224C207.954 187.224 206.881 186.758 206.014 185.824C205.121 184.851 204.674 183.604 204.674 182.084C204.674 180.524 205.121 179.271 206.014 178.324C206.868 177.418 207.941 176.964 209.234 176.964C210.581 176.964 211.628 177.438 212.374 178.384ZM209.254 178.844C208.588 178.844 208.068 179.064 207.694 179.504C207.321 179.931 207.101 180.484 207.034 181.164H211.174C211.174 180.111 210.841 179.404 210.174 179.044C209.921 178.911 209.614 178.844 209.254 178.844ZM116.396 196.964C118.369 196.964 119.963 197.551 121.176 198.724C122.403 199.898 123.016 201.478 123.016 203.464C123.016 205.438 122.403 207.011 121.176 208.184C119.963 209.358 118.369 209.944 116.396 209.944H112.176V196.964H116.396ZM114.556 207.804H116.396C117.623 207.804 118.616 207.391 119.376 206.564C120.096 205.764 120.456 204.731 120.456 203.464C120.456 202.171 120.096 201.124 119.376 200.324C118.629 199.511 117.636 199.104 116.396 199.104H114.556V207.804ZM128.267 202.144C128.854 200.744 129.734 200.044 130.907 200.044C131.134 200.044 131.42 200.091 131.767 200.184L131.727 202.544C131.354 202.464 130.987 202.424 130.627 202.424C129.054 202.424 128.267 203.511 128.267 205.684V209.944H125.907V200.204H128.267V202.144ZM134.427 200.204H136.787V209.944H134.427V200.204ZM134.147 197.084C134.147 196.658 134.274 196.324 134.527 196.084C134.781 195.831 135.141 195.704 135.607 195.704C136.061 195.704 136.414 195.831 136.667 196.084C136.934 196.324 137.067 196.658 137.067 197.084C137.067 197.511 136.934 197.851 136.667 198.104C136.414 198.344 136.061 198.464 135.607 198.464C135.141 198.464 134.781 198.344 134.527 198.104C134.274 197.851 134.147 197.511 134.147 197.084ZM141.89 200.224L144.11 207.604L146.35 200.224H149.07L145.45 209.944H142.79L139.17 200.224H141.89ZM157.941 201.384C158.274 201.811 158.521 202.304 158.681 202.864C158.854 203.424 158.941 203.938 158.941 204.404C158.941 204.871 158.914 205.291 158.861 205.664H152.581C152.608 206.451 152.801 207.091 153.161 207.584C153.521 208.078 154.068 208.324 154.801 208.324C155.774 208.324 156.354 207.898 156.541 207.044H158.921C158.761 208.018 158.314 208.784 157.581 209.344C156.821 209.931 155.894 210.224 154.801 210.224C153.521 210.224 152.448 209.758 151.581 208.824C150.688 207.851 150.241 206.604 150.241 205.084C150.241 203.524 150.688 202.271 151.581 201.324C152.434 200.418 153.508 199.964 154.801 199.964C156.148 199.964 157.194 200.438 157.941 201.384ZM154.821 201.844C154.154 201.844 153.634 202.064 153.261 202.504C152.888 202.931 152.668 203.484 152.601 204.164H156.741C156.741 203.111 156.408 202.404 155.741 202.044C155.488 201.911 155.181 201.844 154.821 201.844Z" fill="black"/>
</svg>
