<svg width="303" height="120" viewBox="0 0 303 120" fill="none" xmlns="http://www.w3.org/2000/svg">
<path d="M49.1901 16.4142C49.9712 15.6332 49.9712 14.3668 49.1901 13.5858L36.4622 0.857864C35.6812 0.0768158 34.4148 0.0768158 33.6338 0.857864C32.8528 1.63891 32.8528 2.90524 33.6338 3.68629L44.9475 15L33.6338 26.3137C32.8528 27.0948 32.8528 28.3611 33.6338 29.1421C34.4148 29.9232 35.6812 29.9232 36.4622 29.1421L49.1901 16.4142ZM0 17H47.7759V13H0V17Z" fill="#011149"/>
<path d="M71.8701 20.18C71.2941 20.18 70.7601 20.06 70.2681 19.82C69.7761 19.58 69.3801 19.256 69.0801 18.848C68.7921 18.44 68.6481 17.99 68.6481 17.498C68.6481 16.706 68.9661 16.058 69.6021 15.554C70.2501 15.05 71.1201 14.726 72.2121 14.582L75.0561 14.186V13.556C75.0561 12.896 74.8521 12.392 74.4441 12.044C74.0481 11.684 73.4361 11.504 72.6081 11.504C71.9961 11.504 71.4921 11.624 71.0961 11.864C70.7121 12.104 70.4661 12.392 70.3581 12.728C70.3101 12.872 70.2501 12.974 70.1781 13.034C70.1181 13.082 70.0341 13.106 69.9261 13.106H69.6741C69.5661 13.106 69.4701 13.07 69.3861 12.998C69.3141 12.914 69.2781 12.818 69.2781 12.71C69.2781 12.446 69.3981 12.14 69.6381 11.792C69.8781 11.432 70.2501 11.12 70.7541 10.856C71.2581 10.592 71.8761 10.46 72.6081 10.46C73.8921 10.46 74.8041 10.766 75.3441 11.378C75.8841 11.99 76.1541 12.734 76.1541 13.61V19.604C76.1541 19.724 76.1181 19.82 76.0461 19.892C75.9741 19.964 75.8781 20 75.7581 20H75.4521C75.3321 20 75.2361 19.964 75.1641 19.892C75.0921 19.82 75.0561 19.724 75.0561 19.604V18.758C74.7921 19.154 74.4021 19.49 73.8861 19.766C73.3821 20.042 72.7101 20.18 71.8701 20.18ZM72.0501 19.136C72.9261 19.136 73.6461 18.848 74.2101 18.272C74.7741 17.696 75.0561 16.868 75.0561 15.788V15.176L72.7341 15.5C71.7501 15.632 71.0061 15.86 70.5021 16.184C69.9981 16.508 69.7461 16.916 69.7461 17.408C69.7461 17.96 69.9741 18.386 70.4301 18.686C70.8981 18.986 71.4381 19.136 72.0501 19.136ZM87.1871 20.18C85.9391 20.18 84.9731 19.82 84.2891 19.1C83.6051 18.368 83.2451 17.348 83.2091 16.04L83.1911 15.32L83.2091 14.6C83.2451 13.292 83.6051 12.278 84.2891 11.558C84.9731 10.826 85.9391 10.46 87.1871 10.46C87.9791 10.46 88.6511 10.604 89.2031 10.892C89.7671 11.168 90.1871 11.528 90.4631 11.972C90.7391 12.404 90.8891 12.854 90.9131 13.322C90.9251 13.43 90.8891 13.526 90.8051 13.61C90.7211 13.682 90.6251 13.718 90.5171 13.718H90.2651C90.1451 13.718 90.0551 13.694 89.9951 13.646C89.9471 13.586 89.8931 13.484 89.8331 13.34C89.5931 12.68 89.2571 12.212 88.8251 11.936C88.3931 11.648 87.8471 11.504 87.1871 11.504C86.3231 11.504 85.6331 11.768 85.1171 12.296C84.6131 12.812 84.3431 13.61 84.3071 14.69L84.2891 15.32L84.3071 15.95C84.3431 17.03 84.6131 17.834 85.1171 18.362C85.6331 18.878 86.3231 19.136 87.1871 19.136C87.8471 19.136 88.3931 18.998 88.8251 18.722C89.2571 18.434 89.5931 17.96 89.8331 17.3C89.8931 17.156 89.9471 17.06 89.9951 17.012C90.0551 16.952 90.1451 16.922 90.2651 16.922H90.5171C90.6251 16.922 90.7211 16.964 90.8051 17.048C90.8891 17.12 90.9251 17.21 90.9131 17.318C90.8891 17.786 90.7391 18.242 90.4631 18.686C90.1871 19.118 89.7671 19.478 89.2031 19.766C88.6511 20.042 87.9791 20.18 87.1871 20.18ZM93.7055 20C93.5855 20 93.4895 19.964 93.4175 19.892C93.3455 19.82 93.3095 19.724 93.3095 19.604V7.616C93.3095 7.496 93.3455 7.4 93.4175 7.328C93.4895 7.256 93.5855 7.22 93.7055 7.22H94.0115C94.1315 7.22 94.2275 7.256 94.2995 7.328C94.3715 7.4 94.4075 7.496 94.4075 7.616V19.604C94.4075 19.724 94.3715 19.82 94.2995 19.892C94.2275 19.964 94.1315 20 94.0115 20H93.7055ZM100.808 20.18C99.6685 20.18 98.7505 19.808 98.0545 19.064C97.3585 18.308 96.9625 17.3 96.8665 16.04L96.8485 15.32L96.8665 14.6C96.9625 13.352 97.3525 12.35 98.0365 11.594C98.7325 10.838 99.6565 10.46 100.808 10.46C102.056 10.46 103.028 10.874 103.724 11.702C104.432 12.53 104.786 13.664 104.786 15.104V15.374C104.786 15.494 104.744 15.59 104.66 15.662C104.588 15.734 104.492 15.77 104.372 15.77H97.9645V15.95C97.9885 16.514 98.1145 17.042 98.3425 17.534C98.5825 18.014 98.9125 18.404 99.3325 18.704C99.7525 18.992 100.244 19.136 100.808 19.136C101.468 19.136 102.002 19.01 102.41 18.758C102.83 18.494 103.13 18.23 103.31 17.966C103.418 17.822 103.496 17.732 103.544 17.696C103.604 17.66 103.706 17.642 103.85 17.642H104.138C104.246 17.642 104.336 17.672 104.408 17.732C104.48 17.792 104.516 17.87 104.516 17.966C104.516 18.218 104.354 18.524 104.03 18.884C103.718 19.232 103.28 19.538 102.716 19.802C102.152 20.054 101.516 20.18 100.808 20.18ZM103.688 14.762V14.69C103.688 13.766 103.424 13.004 102.896 12.404C102.38 11.804 101.684 11.504 100.808 11.504C99.9325 11.504 99.2365 11.804 98.7205 12.404C98.2165 13.004 97.9645 13.766 97.9645 14.69V14.762H103.688ZM109.681 20.18C109.105 20.18 108.571 20.06 108.079 19.82C107.587 19.58 107.191 19.256 106.891 18.848C106.603 18.44 106.459 17.99 106.459 17.498C106.459 16.706 106.777 16.058 107.413 15.554C108.061 15.05 108.931 14.726 110.023 14.582L112.867 14.186V13.556C112.867 12.896 112.663 12.392 112.255 12.044C111.859 11.684 111.247 11.504 110.419 11.504C109.807 11.504 109.303 11.624 108.907 11.864C108.523 12.104 108.277 12.392 108.169 12.728C108.121 12.872 108.061 12.974 107.989 13.034C107.929 13.082 107.845 13.106 107.737 13.106H107.485C107.377 13.106 107.281 13.07 107.197 12.998C107.125 12.914 107.089 12.818 107.089 12.71C107.089 12.446 107.209 12.14 107.449 11.792C107.689 11.432 108.061 11.12 108.565 10.856C109.069 10.592 109.687 10.46 110.419 10.46C111.703 10.46 112.615 10.766 113.155 11.378C113.695 11.99 113.965 12.734 113.965 13.61V19.604C113.965 19.724 113.929 19.82 113.857 19.892C113.785 19.964 113.689 20 113.569 20H113.263C113.143 20 113.047 19.964 112.975 19.892C112.903 19.82 112.867 19.724 112.867 19.604V18.758C112.603 19.154 112.213 19.49 111.697 19.766C111.193 20.042 110.521 20.18 109.681 20.18ZM109.861 19.136C110.737 19.136 111.457 18.848 112.021 18.272C112.585 17.696 112.867 16.868 112.867 15.788V15.176L110.545 15.5C109.561 15.632 108.817 15.86 108.313 16.184C107.809 16.508 107.557 16.916 107.557 17.408C107.557 17.96 107.785 18.386 108.241 18.686C108.709 18.986 109.249 19.136 109.861 19.136ZM117.207 20C117.087 20 116.991 19.964 116.919 19.892C116.847 19.82 116.811 19.724 116.811 19.604V11.036C116.811 10.916 116.847 10.82 116.919 10.748C116.991 10.676 117.087 10.64 117.207 10.64H117.513C117.633 10.64 117.729 10.676 117.801 10.748C117.873 10.82 117.909 10.916 117.909 11.036V11.882C118.269 11.414 118.677 11.06 119.133 10.82C119.601 10.58 120.201 10.46 120.933 10.46C122.109 10.46 123.015 10.838 123.651 11.594C124.287 12.338 124.605 13.304 124.605 14.492V19.604C124.605 19.724 124.569 19.82 124.497 19.892C124.425 19.964 124.329 20 124.209 20H123.903C123.783 20 123.687 19.964 123.615 19.892C123.543 19.82 123.507 19.724 123.507 19.604V14.582C123.507 13.61 123.267 12.854 122.787 12.314C122.319 11.774 121.641 11.504 120.753 11.504C119.889 11.504 119.199 11.78 118.683 12.332C118.167 12.872 117.909 13.622 117.909 14.582V19.604C117.909 19.724 117.873 19.82 117.801 19.892C117.729 19.964 117.633 20 117.513 20H117.207ZM130.902 20.18C129.762 20.18 128.844 19.808 128.148 19.064C127.452 18.308 127.056 17.3 126.96 16.04L126.942 15.32L126.96 14.6C127.056 13.352 127.446 12.35 128.13 11.594C128.826 10.838 129.75 10.46 130.902 10.46C132.15 10.46 133.122 10.874 133.818 11.702C134.526 12.53 134.88 13.664 134.88 15.104V15.374C134.88 15.494 134.838 15.59 134.754 15.662C134.682 15.734 134.586 15.77 134.466 15.77H128.058V15.95C128.082 16.514 128.208 17.042 128.436 17.534C128.676 18.014 129.006 18.404 129.426 18.704C129.846 18.992 130.338 19.136 130.902 19.136C131.562 19.136 132.096 19.01 132.504 18.758C132.924 18.494 133.224 18.23 133.404 17.966C133.512 17.822 133.59 17.732 133.638 17.696C133.698 17.66 133.8 17.642 133.944 17.642H134.232C134.34 17.642 134.43 17.672 134.502 17.732C134.574 17.792 134.61 17.87 134.61 17.966C134.61 18.218 134.448 18.524 134.124 18.884C133.812 19.232 133.374 19.538 132.81 19.802C132.246 20.054 131.61 20.18 130.902 20.18ZM133.782 14.762V14.69C133.782 13.766 133.518 13.004 132.99 12.404C132.474 11.804 131.778 11.504 130.902 11.504C130.026 11.504 129.33 11.804 128.814 12.404C128.31 13.004 128.058 13.766 128.058 14.69V14.762H133.782ZM137.65 20C137.53 20 137.434 19.964 137.362 19.892C137.29 19.82 137.254 19.724 137.254 19.604V11.054C137.254 10.934 137.29 10.838 137.362 10.766C137.434 10.682 137.53 10.64 137.65 10.64H137.938C138.058 10.64 138.154 10.682 138.226 10.766C138.31 10.838 138.352 10.934 138.352 11.054V11.882C138.784 11.054 139.6 10.64 140.8 10.64H141.466C141.586 10.64 141.682 10.676 141.754 10.748C141.826 10.82 141.862 10.916 141.862 11.036V11.288C141.862 11.408 141.826 11.504 141.754 11.576C141.682 11.648 141.586 11.684 141.466 11.684H140.692C139.972 11.684 139.402 11.894 138.982 12.314C138.562 12.734 138.352 13.304 138.352 14.024V19.604C138.352 19.724 138.31 19.82 138.226 19.892C138.154 19.964 138.058 20 137.938 20H137.65ZM151.097 20.18C149.801 20.18 148.841 19.76 148.217 18.92C147.605 18.068 147.281 17.036 147.245 15.824L147.227 15.32L147.245 14.816C147.281 13.604 147.605 12.578 148.217 11.738C148.841 10.886 149.801 10.46 151.097 10.46C152.405 10.46 153.413 10.934 154.121 11.882V7.616C154.121 7.496 154.157 7.4 154.229 7.328C154.301 7.256 154.397 7.22 154.517 7.22H154.823C154.943 7.22 155.039 7.256 155.111 7.328C155.183 7.4 155.219 7.496 155.219 7.616V19.604C155.219 19.724 155.183 19.82 155.111 19.892C155.039 19.964 154.943 20 154.823 20H154.517C154.397 20 154.301 19.964 154.229 19.892C154.157 19.82 154.121 19.724 154.121 19.604V18.758C153.425 19.706 152.417 20.18 151.097 20.18ZM151.205 19.136C152.153 19.136 152.867 18.824 153.347 18.2C153.827 17.564 154.085 16.82 154.121 15.968C154.133 15.848 154.139 15.614 154.139 15.266C154.139 14.918 154.133 14.684 154.121 14.564C154.109 14.048 153.995 13.562 153.779 13.106C153.563 12.638 153.239 12.254 152.807 11.954C152.375 11.654 151.841 11.504 151.205 11.504C150.233 11.504 149.519 11.816 149.063 12.44C148.619 13.052 148.379 13.844 148.343 14.816L148.325 15.32C148.325 16.436 148.541 17.354 148.973 18.074C149.405 18.782 150.149 19.136 151.205 19.136ZM160.675 20.18C160.099 20.18 159.565 20.06 159.073 19.82C158.581 19.58 158.185 19.256 157.885 18.848C157.597 18.44 157.453 17.99 157.453 17.498C157.453 16.706 157.771 16.058 158.407 15.554C159.055 15.05 159.925 14.726 161.017 14.582L163.861 14.186V13.556C163.861 12.896 163.657 12.392 163.249 12.044C162.853 11.684 162.241 11.504 161.413 11.504C160.801 11.504 160.297 11.624 159.901 11.864C159.517 12.104 159.271 12.392 159.163 12.728C159.115 12.872 159.055 12.974 158.983 13.034C158.923 13.082 158.839 13.106 158.731 13.106H158.479C158.371 13.106 158.275 13.07 158.191 12.998C158.119 12.914 158.083 12.818 158.083 12.71C158.083 12.446 158.203 12.14 158.443 11.792C158.683 11.432 159.055 11.12 159.559 10.856C160.063 10.592 160.681 10.46 161.413 10.46C162.697 10.46 163.609 10.766 164.149 11.378C164.689 11.99 164.959 12.734 164.959 13.61V19.604C164.959 19.724 164.923 19.82 164.851 19.892C164.779 19.964 164.683 20 164.563 20H164.257C164.137 20 164.041 19.964 163.969 19.892C163.897 19.82 163.861 19.724 163.861 19.604V18.758C163.597 19.154 163.207 19.49 162.691 19.766C162.187 20.042 161.515 20.18 160.675 20.18ZM160.855 19.136C161.731 19.136 162.451 18.848 163.015 18.272C163.579 17.696 163.861 16.868 163.861 15.788V15.176L161.539 15.5C160.555 15.632 159.811 15.86 159.307 16.184C158.803 16.508 158.551 16.916 158.551 17.408C158.551 17.96 158.779 18.386 159.235 18.686C159.703 18.986 160.243 19.136 160.855 19.136ZM170.775 20.18C169.995 20.18 169.335 20.048 168.795 19.784C168.267 19.52 167.865 19.22 167.589 18.884C167.325 18.548 167.193 18.278 167.193 18.074C167.193 17.966 167.235 17.882 167.319 17.822C167.403 17.75 167.493 17.714 167.589 17.714H167.859C167.943 17.714 168.009 17.732 168.057 17.768C168.117 17.792 168.183 17.852 168.255 17.948C168.519 18.32 168.837 18.614 169.209 18.83C169.593 19.034 170.115 19.136 170.775 19.136C171.519 19.136 172.119 18.998 172.575 18.722C173.031 18.434 173.259 18.026 173.259 17.498C173.259 17.174 173.163 16.91 172.971 16.706C172.791 16.502 172.491 16.328 172.071 16.184C171.663 16.028 171.051 15.854 170.235 15.662C169.167 15.422 168.435 15.092 168.039 14.672C167.655 14.252 167.463 13.718 167.463 13.07C167.463 12.626 167.583 12.206 167.823 11.81C168.075 11.414 168.441 11.09 168.921 10.838C169.413 10.586 170.001 10.46 170.685 10.46C171.405 10.46 172.011 10.586 172.503 10.838C173.007 11.078 173.379 11.36 173.619 11.684C173.871 12.008 173.997 12.272 173.997 12.476C173.997 12.584 173.955 12.674 173.871 12.746C173.799 12.806 173.709 12.836 173.601 12.836H173.331C173.163 12.836 173.031 12.758 172.935 12.602C172.695 12.242 172.419 11.972 172.107 11.792C171.807 11.6 171.333 11.504 170.685 11.504C169.989 11.504 169.461 11.648 169.101 11.936C168.741 12.224 168.561 12.602 168.561 13.07C168.561 13.358 168.633 13.598 168.777 13.79C168.921 13.982 169.191 14.162 169.587 14.33C169.983 14.486 170.559 14.648 171.315 14.816C172.431 15.068 173.217 15.404 173.673 15.824C174.129 16.244 174.357 16.802 174.357 17.498C174.357 17.99 174.219 18.44 173.943 18.848C173.667 19.256 173.259 19.58 172.719 19.82C172.179 20.06 171.531 20.18 170.775 20.18ZM177.079 20C176.959 20 176.863 19.964 176.791 19.892C176.719 19.82 176.683 19.724 176.683 19.604V7.616C176.683 7.496 176.719 7.4 176.791 7.328C176.863 7.256 176.959 7.22 177.079 7.22H177.385C177.505 7.22 177.601 7.256 177.673 7.328C177.745 7.4 177.781 7.496 177.781 7.616V11.882C178.141 11.414 178.549 11.06 179.005 10.82C179.473 10.58 180.073 10.46 180.805 10.46C181.981 10.46 182.887 10.838 183.523 11.594C184.159 12.338 184.477 13.304 184.477 14.492V19.604C184.477 19.724 184.441 19.82 184.369 19.892C184.297 19.964 184.201 20 184.081 20H183.775C183.655 20 183.559 19.964 183.487 19.892C183.415 19.82 183.379 19.724 183.379 19.604V14.582C183.379 13.61 183.139 12.854 182.659 12.314C182.191 11.774 181.513 11.504 180.625 11.504C179.761 11.504 179.071 11.78 178.555 12.332C178.039 12.872 177.781 13.622 177.781 14.582V19.604C177.781 19.724 177.745 19.82 177.673 19.892C177.601 19.964 177.505 20 177.385 20H177.079ZM191.439 20.18C190.119 20.18 189.111 19.706 188.415 18.758V19.604C188.415 19.724 188.379 19.82 188.307 19.892C188.235 19.964 188.139 20 188.019 20H187.713C187.593 20 187.497 19.964 187.425 19.892C187.353 19.82 187.317 19.724 187.317 19.604V7.616C187.317 7.496 187.353 7.4 187.425 7.328C187.497 7.256 187.593 7.22 187.713 7.22H188.019C188.139 7.22 188.235 7.256 188.307 7.328C188.379 7.4 188.415 7.496 188.415 7.616V11.882C189.123 10.934 190.131 10.46 191.439 10.46C192.735 10.46 193.689 10.886 194.301 11.738C194.925 12.578 195.255 13.604 195.291 14.816C195.303 14.936 195.309 15.104 195.309 15.32C195.309 15.536 195.303 15.704 195.291 15.824C195.255 17.036 194.925 18.068 194.301 18.92C193.689 19.76 192.735 20.18 191.439 20.18ZM191.331 19.136C192.303 19.136 193.011 18.83 193.455 18.218C193.911 17.594 194.157 16.796 194.193 15.824C194.205 15.704 194.211 15.536 194.211 15.32C194.211 14.204 193.995 13.292 193.563 12.584C193.131 11.864 192.387 11.504 191.331 11.504C190.695 11.504 190.161 11.654 189.729 11.954C189.297 12.254 188.973 12.638 188.757 13.106C188.541 13.562 188.427 14.048 188.415 14.564L188.397 15.266L188.415 15.968C188.451 16.82 188.709 17.564 189.189 18.2C189.669 18.824 190.383 19.136 191.331 19.136ZM201.305 20.18C200.057 20.18 199.085 19.802 198.389 19.046C197.705 18.278 197.345 17.288 197.309 16.076L197.291 15.32L197.309 14.564C197.345 13.352 197.705 12.368 198.389 11.612C199.085 10.844 200.057 10.46 201.305 10.46C202.553 10.46 203.519 10.844 204.203 11.612C204.899 12.368 205.265 13.352 205.301 14.564C205.313 14.684 205.319 14.936 205.319 15.32C205.319 15.704 205.313 15.956 205.301 16.076C205.265 17.288 204.899 18.278 204.203 19.046C203.519 19.802 202.553 20.18 201.305 20.18ZM201.305 19.136C202.157 19.136 202.841 18.866 203.357 18.326C203.885 17.774 204.167 16.994 204.203 15.986C204.215 15.866 204.221 15.644 204.221 15.32C204.221 14.996 204.215 14.774 204.203 14.654C204.167 13.646 203.885 12.872 203.357 12.332C202.841 11.78 202.157 11.504 201.305 11.504C200.453 11.504 199.763 11.78 199.235 12.332C198.719 12.872 198.443 13.646 198.407 14.654L198.389 15.32L198.407 15.986C198.443 16.994 198.719 17.774 199.235 18.326C199.763 18.866 200.453 19.136 201.305 19.136ZM210.298 20.18C209.722 20.18 209.188 20.06 208.696 19.82C208.204 19.58 207.808 19.256 207.508 18.848C207.22 18.44 207.076 17.99 207.076 17.498C207.076 16.706 207.394 16.058 208.03 15.554C208.678 15.05 209.548 14.726 210.64 14.582L213.484 14.186V13.556C213.484 12.896 213.28 12.392 212.872 12.044C212.476 11.684 211.864 11.504 211.036 11.504C210.424 11.504 209.92 11.624 209.524 11.864C209.14 12.104 208.894 12.392 208.786 12.728C208.738 12.872 208.678 12.974 208.606 13.034C208.546 13.082 208.462 13.106 208.354 13.106H208.102C207.994 13.106 207.898 13.07 207.814 12.998C207.742 12.914 207.706 12.818 207.706 12.71C207.706 12.446 207.826 12.14 208.066 11.792C208.306 11.432 208.678 11.12 209.182 10.856C209.686 10.592 210.304 10.46 211.036 10.46C212.32 10.46 213.232 10.766 213.772 11.378C214.312 11.99 214.582 12.734 214.582 13.61V19.604C214.582 19.724 214.546 19.82 214.474 19.892C214.402 19.964 214.306 20 214.186 20H213.88C213.76 20 213.664 19.964 213.592 19.892C213.52 19.82 213.484 19.724 213.484 19.604V18.758C213.22 19.154 212.83 19.49 212.314 19.766C211.81 20.042 211.138 20.18 210.298 20.18ZM210.478 19.136C211.354 19.136 212.074 18.848 212.638 18.272C213.202 17.696 213.484 16.868 213.484 15.788V15.176L211.162 15.5C210.178 15.632 209.434 15.86 208.93 16.184C208.426 16.508 208.174 16.916 208.174 17.408C208.174 17.96 208.402 18.386 208.858 18.686C209.326 18.986 209.866 19.136 210.478 19.136ZM217.824 20C217.704 20 217.608 19.964 217.536 19.892C217.464 19.82 217.428 19.724 217.428 19.604V11.054C217.428 10.934 217.464 10.838 217.536 10.766C217.608 10.682 217.704 10.64 217.824 10.64H218.112C218.232 10.64 218.328 10.682 218.4 10.766C218.484 10.838 218.526 10.934 218.526 11.054V11.882C218.958 11.054 219.774 10.64 220.974 10.64H221.64C221.76 10.64 221.856 10.676 221.928 10.748C222 10.82 222.036 10.916 222.036 11.036V11.288C222.036 11.408 222 11.504 221.928 11.576C221.856 11.648 221.76 11.684 221.64 11.684H220.866C220.146 11.684 219.576 11.894 219.156 12.314C218.736 12.734 218.526 13.304 218.526 14.024V19.604C218.526 19.724 218.484 19.82 218.4 19.892C218.328 19.964 218.232 20 218.112 20H217.824ZM226.842 20.18C225.546 20.18 224.586 19.76 223.962 18.92C223.35 18.068 223.026 17.036 222.99 15.824L222.972 15.32L222.99 14.816C223.026 13.604 223.35 12.578 223.962 11.738C224.586 10.886 225.546 10.46 226.842 10.46C228.15 10.46 229.158 10.934 229.866 11.882V7.616C229.866 7.496 229.902 7.4 229.974 7.328C230.046 7.256 230.142 7.22 230.262 7.22H230.568C230.688 7.22 230.784 7.256 230.856 7.328C230.928 7.4 230.964 7.496 230.964 7.616V19.604C230.964 19.724 230.928 19.82 230.856 19.892C230.784 19.964 230.688 20 230.568 20H230.262C230.142 20 230.046 19.964 229.974 19.892C229.902 19.82 229.866 19.724 229.866 19.604V18.758C229.17 19.706 228.162 20.18 226.842 20.18ZM226.95 19.136C227.898 19.136 228.612 18.824 229.092 18.2C229.572 17.564 229.83 16.82 229.866 15.968C229.878 15.848 229.884 15.614 229.884 15.266C229.884 14.918 229.878 14.684 229.866 14.564C229.854 14.048 229.74 13.562 229.524 13.106C229.308 12.638 228.984 12.254 228.552 11.954C228.12 11.654 227.586 11.504 226.95 11.504C225.978 11.504 225.264 11.816 224.808 12.44C224.364 13.052 224.124 13.844 224.088 14.816L224.07 15.32C224.07 16.436 224.286 17.354 224.718 18.074C225.15 18.782 225.894 19.136 226.95 19.136ZM233.755 21.35C233.659 21.35 233.587 21.314 233.539 21.242C233.491 21.17 233.479 21.08 233.503 20.972L233.845 18.812C233.881 18.488 234.031 18.326 234.295 18.326H235.105C235.189 18.326 235.255 18.356 235.303 18.416C235.351 18.476 235.375 18.542 235.375 18.614C235.375 18.722 235.351 18.83 235.303 18.938L234.529 20.972C234.469 21.104 234.403 21.2 234.331 21.26C234.271 21.32 234.181 21.35 234.061 21.35H233.755Z" fill="black"/>
<path d="M49.1901 106.414C49.9712 105.633 49.9712 104.367 49.1901 103.586L36.4622 90.8579C35.6812 90.0768 34.4148 90.0768 33.6338 90.8579C32.8528 91.6389 32.8528 92.9052 33.6338 93.6863L44.9475 105L33.6338 116.314C32.8528 117.095 32.8528 118.361 33.6338 119.142C34.4148 119.923 35.6812 119.923 36.4622 119.142L49.1901 106.414ZM0 107H47.7759V103H0V107Z" fill="#FDE54A"/>
<path d="M71.8701 110.18C71.2941 110.18 70.7601 110.06 70.2681 109.82C69.7761 109.58 69.3801 109.256 69.0801 108.848C68.7921 108.44 68.6481 107.99 68.6481 107.498C68.6481 106.706 68.9661 106.058 69.6021 105.554C70.2501 105.05 71.1201 104.726 72.2121 104.582L75.0561 104.186V103.556C75.0561 102.896 74.8521 102.392 74.4441 102.044C74.0481 101.684 73.4361 101.504 72.6081 101.504C71.9961 101.504 71.4921 101.624 71.0961 101.864C70.7121 102.104 70.4661 102.392 70.3581 102.728C70.3101 102.872 70.2501 102.974 70.1781 103.034C70.1181 103.082 70.0341 103.106 69.9261 103.106H69.6741C69.5661 103.106 69.4701 103.07 69.3861 102.998C69.3141 102.914 69.2781 102.818 69.2781 102.71C69.2781 102.446 69.3981 102.14 69.6381 101.792C69.8781 101.432 70.2501 101.12 70.7541 100.856C71.2581 100.592 71.8761 100.46 72.6081 100.46C73.8921 100.46 74.8041 100.766 75.3441 101.378C75.8841 101.99 76.1541 102.734 76.1541 103.61V109.604C76.1541 109.724 76.1181 109.82 76.0461 109.892C75.9741 109.964 75.8781 110 75.7581 110H75.4521C75.3321 110 75.2361 109.964 75.1641 109.892C75.0921 109.82 75.0561 109.724 75.0561 109.604V108.758C74.7921 109.154 74.4021 109.49 73.8861 109.766C73.3821 110.042 72.7101 110.18 71.8701 110.18ZM72.0501 109.136C72.9261 109.136 73.6461 108.848 74.2101 108.272C74.7741 107.696 75.0561 106.868 75.0561 105.788V105.176L72.7341 105.5C71.7501 105.632 71.0061 105.86 70.5021 106.184C69.9981 106.508 69.7461 106.916 69.7461 107.408C69.7461 107.96 69.9741 108.386 70.4301 108.686C70.8981 108.986 71.4381 109.136 72.0501 109.136ZM79.3965 110C79.2765 110 79.1805 109.964 79.1085 109.892C79.0365 109.82 79.0005 109.724 79.0005 109.604V101.036C79.0005 100.916 79.0365 100.82 79.1085 100.748C79.1805 100.676 79.2765 100.64 79.3965 100.64H79.7025C79.8225 100.64 79.9185 100.676 79.9905 100.748C80.0625 100.82 80.0985 100.916 80.0985 101.036V101.882C80.4585 101.414 80.8665 101.06 81.3225 100.82C81.7905 100.58 82.3905 100.46 83.1225 100.46C84.2985 100.46 85.2045 100.838 85.8405 101.594C86.4765 102.338 86.7945 103.304 86.7945 104.492V109.604C86.7945 109.724 86.7585 109.82 86.6865 109.892C86.6145 109.964 86.5185 110 86.3985 110H86.0925C85.9725 110 85.8765 109.964 85.8045 109.892C85.7325 109.82 85.6965 109.724 85.6965 109.604V104.582C85.6965 103.61 85.4565 102.854 84.9765 102.314C84.5085 101.774 83.8305 101.504 82.9425 101.504C82.0785 101.504 81.3885 101.78 80.8725 102.332C80.3565 102.872 80.0985 103.622 80.0985 104.582V109.604C80.0985 109.724 80.0625 109.82 79.9905 109.892C79.9185 109.964 79.8225 110 79.7025 110H79.3965ZM93.0017 110.18C91.7057 110.18 90.7457 109.76 90.1217 108.92C89.5097 108.068 89.1857 107.036 89.1497 105.824L89.1317 105.32L89.1497 104.816C89.1857 103.604 89.5097 102.578 90.1217 101.738C90.7457 100.886 91.7057 100.46 93.0017 100.46C94.3097 100.46 95.3177 100.934 96.0257 101.882V97.616C96.0257 97.496 96.0617 97.4 96.1337 97.328C96.2057 97.256 96.3017 97.22 96.4217 97.22H96.7277C96.8477 97.22 96.9437 97.256 97.0157 97.328C97.0877 97.4 97.1237 97.496 97.1237 97.616V109.604C97.1237 109.724 97.0877 109.82 97.0157 109.892C96.9437 109.964 96.8477 110 96.7277 110H96.4217C96.3017 110 96.2057 109.964 96.1337 109.892C96.0617 109.82 96.0257 109.724 96.0257 109.604V108.758C95.3297 109.706 94.3217 110.18 93.0017 110.18ZM93.1097 109.136C94.0577 109.136 94.7717 108.824 95.2517 108.2C95.7317 107.564 95.9897 106.82 96.0257 105.968C96.0377 105.848 96.0437 105.614 96.0437 105.266C96.0437 104.918 96.0377 104.684 96.0257 104.564C96.0137 104.048 95.8997 103.562 95.6837 103.106C95.4677 102.638 95.1437 102.254 94.7117 101.954C94.2797 101.654 93.7457 101.504 93.1097 101.504C92.1377 101.504 91.4237 101.816 90.9677 102.44C90.5237 103.052 90.2837 103.844 90.2477 104.816L90.2297 105.32C90.2297 106.436 90.4457 107.354 90.8777 108.074C91.3097 108.782 92.0537 109.136 93.1097 109.136ZM108.21 110.18C107.034 110.18 106.14 109.808 105.528 109.064C104.916 108.32 104.61 107.348 104.61 106.148V101.036C104.61 100.916 104.646 100.82 104.718 100.748C104.79 100.676 104.886 100.64 105.006 100.64H105.312C105.432 100.64 105.528 100.676 105.6 100.748C105.672 100.82 105.708 100.916 105.708 101.036V106.058C105.708 108.11 106.602 109.136 108.39 109.136C109.254 109.136 109.938 108.866 110.442 108.326C110.958 107.774 111.216 107.018 111.216 106.058V101.036C111.216 100.916 111.252 100.82 111.324 100.748C111.396 100.676 111.492 100.64 111.612 100.64H111.918C112.038 100.64 112.134 100.676 112.206 100.748C112.278 100.82 112.314 100.916 112.314 101.036V109.604C112.314 109.724 112.278 109.82 112.206 109.892C112.134 109.964 112.038 110 111.918 110H111.612C111.492 110 111.396 109.964 111.324 109.892C111.252 109.82 111.216 109.724 111.216 109.604V108.758C110.856 109.226 110.442 109.58 109.974 109.82C109.518 110.06 108.93 110.18 108.21 110.18ZM118.199 110.18C117.419 110.18 116.759 110.048 116.219 109.784C115.691 109.52 115.289 109.22 115.013 108.884C114.749 108.548 114.617 108.278 114.617 108.074C114.617 107.966 114.659 107.882 114.743 107.822C114.827 107.75 114.917 107.714 115.013 107.714H115.283C115.367 107.714 115.433 107.732 115.481 107.768C115.541 107.792 115.607 107.852 115.679 107.948C115.943 108.32 116.261 108.614 116.633 108.83C117.017 109.034 117.539 109.136 118.199 109.136C118.943 109.136 119.543 108.998 119.999 108.722C120.455 108.434 120.683 108.026 120.683 107.498C120.683 107.174 120.587 106.91 120.395 106.706C120.215 106.502 119.915 106.328 119.495 106.184C119.087 106.028 118.475 105.854 117.659 105.662C116.591 105.422 115.859 105.092 115.463 104.672C115.079 104.252 114.887 103.718 114.887 103.07C114.887 102.626 115.007 102.206 115.247 101.81C115.499 101.414 115.865 101.09 116.345 100.838C116.837 100.586 117.425 100.46 118.109 100.46C118.829 100.46 119.435 100.586 119.927 100.838C120.431 101.078 120.803 101.36 121.043 101.684C121.295 102.008 121.421 102.272 121.421 102.476C121.421 102.584 121.379 102.674 121.295 102.746C121.223 102.806 121.133 102.836 121.025 102.836H120.755C120.587 102.836 120.455 102.758 120.359 102.602C120.119 102.242 119.843 101.972 119.531 101.792C119.231 101.6 118.757 101.504 118.109 101.504C117.413 101.504 116.885 101.648 116.525 101.936C116.165 102.224 115.985 102.602 115.985 103.07C115.985 103.358 116.057 103.598 116.201 103.79C116.345 103.982 116.615 104.162 117.011 104.33C117.407 104.486 117.983 104.648 118.739 104.816C119.855 105.068 120.641 105.404 121.097 105.824C121.553 106.244 121.781 106.802 121.781 107.498C121.781 107.99 121.643 108.44 121.367 108.848C121.091 109.256 120.683 109.58 120.143 109.82C119.603 110.06 118.955 110.18 118.199 110.18ZM124.286 98.714C124.166 98.714 124.07 98.678 123.998 98.606C123.926 98.534 123.89 98.438 123.89 98.318V97.634C123.89 97.514 123.926 97.418 123.998 97.346C124.07 97.262 124.166 97.22 124.286 97.22H124.97C125.09 97.22 125.186 97.262 125.258 97.346C125.342 97.418 125.384 97.514 125.384 97.634V98.318C125.384 98.438 125.342 98.534 125.258 98.606C125.186 98.678 125.09 98.714 124.97 98.714H124.286ZM124.484 110C124.364 110 124.268 109.964 124.196 109.892C124.124 109.82 124.088 109.724 124.088 109.604V101.036C124.088 100.916 124.124 100.82 124.196 100.748C124.268 100.676 124.364 100.64 124.484 100.64H124.79C124.91 100.64 125.006 100.676 125.078 100.748C125.15 100.82 125.186 100.916 125.186 101.036V109.604C125.186 109.724 125.15 109.82 125.078 109.892C125.006 109.964 124.91 110 124.79 110H124.484ZM128.492 110C128.372 110 128.276 109.964 128.204 109.892C128.132 109.82 128.096 109.724 128.096 109.604V101.036C128.096 100.916 128.132 100.82 128.204 100.748C128.276 100.676 128.372 100.64 128.492 100.64H128.798C128.918 100.64 129.014 100.676 129.086 100.748C129.158 100.82 129.194 100.916 129.194 101.036V101.882C129.554 101.414 129.962 101.06 130.418 100.82C130.886 100.58 131.486 100.46 132.218 100.46C133.394 100.46 134.3 100.838 134.936 101.594C135.572 102.338 135.89 103.304 135.89 104.492V109.604C135.89 109.724 135.854 109.82 135.782 109.892C135.71 109.964 135.614 110 135.494 110H135.188C135.068 110 134.972 109.964 134.9 109.892C134.828 109.82 134.792 109.724 134.792 109.604V104.582C134.792 103.61 134.552 102.854 134.072 102.314C133.604 101.774 132.926 101.504 132.038 101.504C131.174 101.504 130.484 101.78 129.968 102.332C129.452 102.872 129.194 103.622 129.194 104.582V109.604C129.194 109.724 129.158 109.82 129.086 109.892C129.014 109.964 128.918 110 128.798 110H128.492ZM142.205 113.96C141.269 113.96 140.519 113.798 139.955 113.474C139.391 113.15 138.995 112.778 138.767 112.358C138.551 111.95 138.443 111.59 138.443 111.278C138.443 111.17 138.479 111.08 138.551 111.008C138.635 110.936 138.731 110.9 138.839 110.9H139.091C139.199 110.9 139.283 110.924 139.343 110.972C139.415 111.032 139.475 111.134 139.523 111.278C139.895 112.37 140.759 112.916 142.115 112.916C143.147 112.916 143.909 112.7 144.401 112.268C144.893 111.848 145.139 111.092 145.139 110V108.758C144.443 109.706 143.435 110.18 142.115 110.18C140.819 110.18 139.859 109.76 139.235 108.92C138.623 108.068 138.299 107.036 138.263 105.824L138.245 105.32L138.263 104.816C138.299 103.604 138.623 102.578 139.235 101.738C139.859 100.886 140.819 100.46 142.115 100.46C143.423 100.46 144.431 100.934 145.139 101.882V101.054C145.139 100.934 145.175 100.838 145.247 100.766C145.319 100.682 145.415 100.64 145.535 100.64H145.823C145.943 100.64 146.039 100.682 146.111 100.766C146.195 100.838 146.237 100.934 146.237 101.054V109.82C146.237 111.104 145.937 112.112 145.337 112.844C144.737 113.588 143.693 113.96 142.205 113.96ZM142.223 109.136C143.171 109.136 143.885 108.824 144.365 108.2C144.845 107.564 145.103 106.82 145.139 105.968C145.151 105.848 145.157 105.632 145.157 105.32C145.157 105.008 145.151 104.792 145.139 104.672C145.103 103.82 144.845 103.082 144.365 102.458C143.885 101.822 143.171 101.504 142.223 101.504C141.251 101.504 140.537 101.816 140.081 102.44C139.637 103.052 139.397 103.844 139.361 104.816L139.343 105.32L139.361 105.824C139.397 106.796 139.637 107.594 140.081 108.218C140.537 108.83 141.251 109.136 142.223 109.136ZM157.953 110.18C156.633 110.18 155.625 109.706 154.929 108.758V109.604C154.929 109.724 154.893 109.82 154.821 109.892C154.749 109.964 154.653 110 154.533 110H154.227C154.107 110 154.011 109.964 153.939 109.892C153.867 109.82 153.831 109.724 153.831 109.604V97.616C153.831 97.496 153.867 97.4 153.939 97.328C154.011 97.256 154.107 97.22 154.227 97.22H154.533C154.653 97.22 154.749 97.256 154.821 97.328C154.893 97.4 154.929 97.496 154.929 97.616V101.882C155.637 100.934 156.645 100.46 157.953 100.46C159.249 100.46 160.203 100.886 160.815 101.738C161.439 102.578 161.769 103.604 161.805 104.816C161.817 104.936 161.823 105.104 161.823 105.32C161.823 105.536 161.817 105.704 161.805 105.824C161.769 107.036 161.439 108.068 160.815 108.92C160.203 109.76 159.249 110.18 157.953 110.18ZM157.845 109.136C158.817 109.136 159.525 108.83 159.969 108.218C160.425 107.594 160.671 106.796 160.707 105.824C160.719 105.704 160.725 105.536 160.725 105.32C160.725 104.204 160.509 103.292 160.077 102.584C159.645 101.864 158.901 101.504 157.845 101.504C157.209 101.504 156.675 101.654 156.243 101.954C155.811 102.254 155.487 102.638 155.271 103.106C155.055 103.562 154.941 104.048 154.929 104.564L154.911 105.266L154.929 105.968C154.965 106.82 155.223 107.564 155.703 108.2C156.183 108.824 156.897 109.136 157.845 109.136ZM167.728 110.18C166.588 110.18 165.67 109.808 164.974 109.064C164.278 108.308 163.882 107.3 163.786 106.04L163.768 105.32L163.786 104.6C163.882 103.352 164.272 102.35 164.956 101.594C165.652 100.838 166.576 100.46 167.728 100.46C168.976 100.46 169.948 100.874 170.644 101.702C171.352 102.53 171.706 103.664 171.706 105.104V105.374C171.706 105.494 171.664 105.59 171.58 105.662C171.508 105.734 171.412 105.77 171.292 105.77H164.884V105.95C164.908 106.514 165.034 107.042 165.262 107.534C165.502 108.014 165.832 108.404 166.252 108.704C166.672 108.992 167.164 109.136 167.728 109.136C168.388 109.136 168.922 109.01 169.33 108.758C169.75 108.494 170.05 108.23 170.23 107.966C170.338 107.822 170.416 107.732 170.464 107.696C170.524 107.66 170.626 107.642 170.77 107.642H171.058C171.166 107.642 171.256 107.672 171.328 107.732C171.4 107.792 171.436 107.87 171.436 107.966C171.436 108.218 171.274 108.524 170.95 108.884C170.638 109.232 170.2 109.538 169.636 109.802C169.072 110.054 168.436 110.18 167.728 110.18ZM170.608 104.762V104.69C170.608 103.766 170.344 103.004 169.816 102.404C169.3 101.804 168.604 101.504 167.728 101.504C166.852 101.504 166.156 101.804 165.64 102.404C165.136 103.004 164.884 103.766 164.884 104.69V104.762H170.608ZM177.16 110C176.272 110 175.642 109.736 175.27 109.208C174.898 108.668 174.712 107.93 174.712 106.994V101.684H173.308C173.188 101.684 173.092 101.648 173.02 101.576C172.948 101.504 172.912 101.408 172.912 101.288V101.036C172.912 100.916 172.948 100.82 173.02 100.748C173.092 100.676 173.188 100.64 173.308 100.64H174.712V97.616C174.712 97.496 174.748 97.4 174.82 97.328C174.892 97.256 174.988 97.22 175.108 97.22H175.414C175.534 97.22 175.63 97.256 175.702 97.328C175.774 97.4 175.81 97.496 175.81 97.616V100.64H178.042C178.162 100.64 178.258 100.676 178.33 100.748C178.402 100.82 178.438 100.916 178.438 101.036V101.288C178.438 101.408 178.402 101.504 178.33 101.576C178.258 101.648 178.162 101.684 178.042 101.684H175.81V106.922C175.81 107.594 175.918 108.104 176.134 108.452C176.362 108.788 176.734 108.956 177.25 108.956H178.222C178.342 108.956 178.438 108.992 178.51 109.064C178.582 109.136 178.618 109.232 178.618 109.352V109.604C178.618 109.724 178.582 109.82 178.51 109.892C178.438 109.964 178.342 110 178.222 110H177.16ZM183.629 110C182.741 110 182.111 109.736 181.739 109.208C181.367 108.668 181.181 107.93 181.181 106.994V101.684H179.777C179.657 101.684 179.561 101.648 179.489 101.576C179.417 101.504 179.381 101.408 179.381 101.288V101.036C179.381 100.916 179.417 100.82 179.489 100.748C179.561 100.676 179.657 100.64 179.777 100.64H181.181V97.616C181.181 97.496 181.217 97.4 181.289 97.328C181.361 97.256 181.457 97.22 181.577 97.22H181.883C182.003 97.22 182.099 97.256 182.171 97.328C182.243 97.4 182.279 97.496 182.279 97.616V100.64H184.511C184.631 100.64 184.727 100.676 184.799 100.748C184.871 100.82 184.907 100.916 184.907 101.036V101.288C184.907 101.408 184.871 101.504 184.799 101.576C184.727 101.648 184.631 101.684 184.511 101.684H182.279V106.922C182.279 107.594 182.387 108.104 182.603 108.452C182.831 108.788 183.203 108.956 183.719 108.956H184.691C184.811 108.956 184.907 108.992 184.979 109.064C185.051 109.136 185.087 109.232 185.087 109.352V109.604C185.087 109.724 185.051 109.82 184.979 109.892C184.907 109.964 184.811 110 184.691 110H183.629ZM190.422 110.18C189.282 110.18 188.364 109.808 187.668 109.064C186.972 108.308 186.576 107.3 186.48 106.04L186.462 105.32L186.48 104.6C186.576 103.352 186.966 102.35 187.65 101.594C188.346 100.838 189.27 100.46 190.422 100.46C191.67 100.46 192.642 100.874 193.338 101.702C194.046 102.53 194.4 103.664 194.4 105.104V105.374C194.4 105.494 194.358 105.59 194.274 105.662C194.202 105.734 194.106 105.77 193.986 105.77H187.578V105.95C187.602 106.514 187.728 107.042 187.956 107.534C188.196 108.014 188.526 108.404 188.946 108.704C189.366 108.992 189.858 109.136 190.422 109.136C191.082 109.136 191.616 109.01 192.024 108.758C192.444 108.494 192.744 108.23 192.924 107.966C193.032 107.822 193.11 107.732 193.158 107.696C193.218 107.66 193.32 107.642 193.464 107.642H193.752C193.86 107.642 193.95 107.672 194.022 107.732C194.094 107.792 194.13 107.87 194.13 107.966C194.13 108.218 193.968 108.524 193.644 108.884C193.332 109.232 192.894 109.538 192.33 109.802C191.766 110.054 191.13 110.18 190.422 110.18ZM193.302 104.762V104.69C193.302 103.766 193.038 103.004 192.51 102.404C191.994 101.804 191.298 101.504 190.422 101.504C189.546 101.504 188.85 101.804 188.334 102.404C187.83 103.004 187.578 103.766 187.578 104.69V104.762H193.302ZM197.17 110C197.05 110 196.954 109.964 196.882 109.892C196.81 109.82 196.774 109.724 196.774 109.604V101.054C196.774 100.934 196.81 100.838 196.882 100.766C196.954 100.682 197.05 100.64 197.17 100.64H197.458C197.578 100.64 197.674 100.682 197.746 100.766C197.83 100.838 197.872 100.934 197.872 101.054V101.882C198.304 101.054 199.12 100.64 200.32 100.64H200.986C201.106 100.64 201.202 100.676 201.274 100.748C201.346 100.82 201.382 100.916 201.382 101.036V101.288C201.382 101.408 201.346 101.504 201.274 101.576C201.202 101.648 201.106 101.684 200.986 101.684H200.212C199.492 101.684 198.922 101.894 198.502 102.314C198.082 102.734 197.872 103.304 197.872 104.024V109.604C197.872 109.724 197.83 109.82 197.746 109.892C197.674 109.964 197.578 110 197.458 110H197.17ZM208.159 110C208.039 110 207.943 109.964 207.871 109.892C207.799 109.82 207.763 109.724 207.763 109.604V101.684H206.161C206.041 101.684 205.945 101.648 205.873 101.576C205.801 101.504 205.765 101.408 205.765 101.288V101.036C205.765 100.916 205.801 100.82 205.873 100.748C205.945 100.676 206.041 100.64 206.161 100.64H207.763V99.614C207.763 98.702 207.961 97.988 208.357 97.472C208.753 96.944 209.461 96.68 210.481 96.68H211.417C211.537 96.68 211.633 96.716 211.705 96.788C211.777 96.86 211.813 96.956 211.813 97.076V97.328C211.813 97.448 211.777 97.544 211.705 97.616C211.633 97.688 211.537 97.724 211.417 97.724H210.481C209.869 97.724 209.443 97.886 209.203 98.21C208.975 98.522 208.861 99.02 208.861 99.704V100.64H211.237C211.357 100.64 211.453 100.676 211.525 100.748C211.597 100.82 211.633 100.916 211.633 101.036V101.288C211.633 101.408 211.597 101.504 211.525 101.576C211.453 101.648 211.357 101.684 211.237 101.684H208.861V109.604C208.861 109.724 208.825 109.82 208.753 109.892C208.681 109.964 208.585 110 208.465 110H208.159ZM216.738 110.18C215.49 110.18 214.518 109.802 213.822 109.046C213.138 108.278 212.778 107.288 212.742 106.076L212.724 105.32L212.742 104.564C212.778 103.352 213.138 102.368 213.822 101.612C214.518 100.844 215.49 100.46 216.738 100.46C217.986 100.46 218.952 100.844 219.636 101.612C220.332 102.368 220.698 103.352 220.734 104.564C220.746 104.684 220.752 104.936 220.752 105.32C220.752 105.704 220.746 105.956 220.734 106.076C220.698 107.288 220.332 108.278 219.636 109.046C218.952 109.802 217.986 110.18 216.738 110.18ZM216.738 109.136C217.59 109.136 218.274 108.866 218.79 108.326C219.318 107.774 219.6 106.994 219.636 105.986C219.648 105.866 219.654 105.644 219.654 105.32C219.654 104.996 219.648 104.774 219.636 104.654C219.6 103.646 219.318 102.872 218.79 102.332C218.274 101.78 217.59 101.504 216.738 101.504C215.886 101.504 215.196 101.78 214.668 102.332C214.152 102.872 213.876 103.646 213.84 104.654L213.822 105.32L213.84 105.986C213.876 106.994 214.152 107.774 214.668 108.326C215.196 108.866 215.886 109.136 216.738 109.136ZM223.625 110C223.505 110 223.409 109.964 223.337 109.892C223.265 109.82 223.229 109.724 223.229 109.604V97.616C223.229 97.496 223.265 97.4 223.337 97.328C223.409 97.256 223.505 97.22 223.625 97.22H223.931C224.051 97.22 224.147 97.256 224.219 97.328C224.291 97.4 224.327 97.496 224.327 97.616V109.604C224.327 109.724 224.291 109.82 224.219 109.892C224.147 109.964 224.051 110 223.931 110H223.625ZM230.638 110.18C229.342 110.18 228.382 109.76 227.758 108.92C227.146 108.068 226.822 107.036 226.786 105.824L226.768 105.32L226.786 104.816C226.822 103.604 227.146 102.578 227.758 101.738C228.382 100.886 229.342 100.46 230.638 100.46C231.946 100.46 232.954 100.934 233.662 101.882V97.616C233.662 97.496 233.698 97.4 233.77 97.328C233.842 97.256 233.938 97.22 234.058 97.22H234.364C234.484 97.22 234.58 97.256 234.652 97.328C234.724 97.4 234.76 97.496 234.76 97.616V109.604C234.76 109.724 234.724 109.82 234.652 109.892C234.58 109.964 234.484 110 234.364 110H234.058C233.938 110 233.842 109.964 233.77 109.892C233.698 109.82 233.662 109.724 233.662 109.604V108.758C232.966 109.706 231.958 110.18 230.638 110.18ZM230.746 109.136C231.694 109.136 232.408 108.824 232.888 108.2C233.368 107.564 233.626 106.82 233.662 105.968C233.674 105.848 233.68 105.614 233.68 105.266C233.68 104.918 233.674 104.684 233.662 104.564C233.65 104.048 233.536 103.562 233.32 103.106C233.104 102.638 232.78 102.254 232.348 101.954C231.916 101.654 231.382 101.504 230.746 101.504C229.774 101.504 229.06 101.816 228.604 102.44C228.16 103.052 227.92 103.844 227.884 104.816L227.866 105.32C227.866 106.436 228.082 107.354 228.514 108.074C228.946 108.782 229.69 109.136 230.746 109.136ZM241.17 110.18C240.03 110.18 239.112 109.808 238.416 109.064C237.72 108.308 237.324 107.3 237.228 106.04L237.21 105.32L237.228 104.6C237.324 103.352 237.714 102.35 238.398 101.594C239.094 100.838 240.018 100.46 241.17 100.46C242.418 100.46 243.39 100.874 244.086 101.702C244.794 102.53 245.148 103.664 245.148 105.104V105.374C245.148 105.494 245.106 105.59 245.022 105.662C244.95 105.734 244.854 105.77 244.734 105.77H238.326V105.95C238.35 106.514 238.476 107.042 238.704 107.534C238.944 108.014 239.274 108.404 239.694 108.704C240.114 108.992 240.606 109.136 241.17 109.136C241.83 109.136 242.364 109.01 242.772 108.758C243.192 108.494 243.492 108.23 243.672 107.966C243.78 107.822 243.858 107.732 243.906 107.696C243.966 107.66 244.068 107.642 244.212 107.642H244.5C244.608 107.642 244.698 107.672 244.77 107.732C244.842 107.792 244.878 107.87 244.878 107.966C244.878 108.218 244.716 108.524 244.392 108.884C244.08 109.232 243.642 109.538 243.078 109.802C242.514 110.054 241.878 110.18 241.17 110.18ZM244.05 104.762V104.69C244.05 103.766 243.786 103.004 243.258 102.404C242.742 101.804 242.046 101.504 241.17 101.504C240.294 101.504 239.598 101.804 239.082 102.404C238.578 103.004 238.326 103.766 238.326 104.69V104.762H244.05ZM247.918 110C247.798 110 247.702 109.964 247.63 109.892C247.558 109.82 247.522 109.724 247.522 109.604V101.054C247.522 100.934 247.558 100.838 247.63 100.766C247.702 100.682 247.798 100.64 247.918 100.64H248.206C248.326 100.64 248.422 100.682 248.494 100.766C248.578 100.838 248.62 100.934 248.62 101.054V101.882C249.052 101.054 249.868 100.64 251.068 100.64H251.734C251.854 100.64 251.95 100.676 252.022 100.748C252.094 100.82 252.13 100.916 252.13 101.036V101.288C252.13 101.408 252.094 101.504 252.022 101.576C251.95 101.648 251.854 101.684 251.734 101.684H250.96C250.24 101.684 249.67 101.894 249.25 102.314C248.83 102.734 248.62 103.304 248.62 104.024V109.604C248.62 109.724 248.578 109.82 248.494 109.892C248.422 109.964 248.326 110 248.206 110H247.918ZM258.179 98.714C258.059 98.714 257.963 98.678 257.891 98.606C257.819 98.534 257.783 98.438 257.783 98.318V97.634C257.783 97.514 257.819 97.418 257.891 97.346C257.963 97.262 258.059 97.22 258.179 97.22H258.863C258.983 97.22 259.079 97.262 259.151 97.346C259.235 97.418 259.277 97.514 259.277 97.634V98.318C259.277 98.438 259.235 98.534 259.151 98.606C259.079 98.678 258.983 98.714 258.863 98.714H258.179ZM258.377 110C258.257 110 258.161 109.964 258.089 109.892C258.017 109.82 257.981 109.724 257.981 109.604V101.036C257.981 100.916 258.017 100.82 258.089 100.748C258.161 100.676 258.257 100.64 258.377 100.64H258.683C258.803 100.64 258.899 100.676 258.971 100.748C259.043 100.82 259.079 100.916 259.079 101.036V109.604C259.079 109.724 259.043 109.82 258.971 109.892C258.899 109.964 258.803 110 258.683 110H258.377ZM265.535 110.18C264.287 110.18 263.321 109.82 262.637 109.1C261.953 108.368 261.593 107.348 261.557 106.04L261.539 105.32L261.557 104.6C261.593 103.292 261.953 102.278 262.637 101.558C263.321 100.826 264.287 100.46 265.535 100.46C266.327 100.46 266.999 100.604 267.551 100.892C268.115 101.168 268.535 101.528 268.811 101.972C269.087 102.404 269.237 102.854 269.261 103.322C269.273 103.43 269.237 103.526 269.153 103.61C269.069 103.682 268.973 103.718 268.865 103.718H268.613C268.493 103.718 268.403 103.694 268.343 103.646C268.295 103.586 268.241 103.484 268.181 103.34C267.941 102.68 267.605 102.212 267.173 101.936C266.741 101.648 266.195 101.504 265.535 101.504C264.671 101.504 263.981 101.768 263.465 102.296C262.961 102.812 262.691 103.61 262.655 104.69L262.637 105.32L262.655 105.95C262.691 107.03 262.961 107.834 263.465 108.362C263.981 108.878 264.671 109.136 265.535 109.136C266.195 109.136 266.741 108.998 267.173 108.722C267.605 108.434 267.941 107.96 268.181 107.3C268.241 107.156 268.295 107.06 268.343 107.012C268.403 106.952 268.493 106.922 268.613 106.922H268.865C268.973 106.922 269.069 106.964 269.153 107.048C269.237 107.12 269.273 107.21 269.261 107.318C269.237 107.786 269.087 108.242 268.811 108.686C268.535 109.118 268.115 109.478 267.551 109.766C266.999 110.042 266.327 110.18 265.535 110.18ZM275.203 110.18C273.955 110.18 272.983 109.802 272.287 109.046C271.603 108.278 271.243 107.288 271.207 106.076L271.189 105.32L271.207 104.564C271.243 103.352 271.603 102.368 272.287 101.612C272.983 100.844 273.955 100.46 275.203 100.46C276.451 100.46 277.417 100.844 278.101 101.612C278.797 102.368 279.163 103.352 279.199 104.564C279.211 104.684 279.217 104.936 279.217 105.32C279.217 105.704 279.211 105.956 279.199 106.076C279.163 107.288 278.797 108.278 278.101 109.046C277.417 109.802 276.451 110.18 275.203 110.18ZM275.203 109.136C276.055 109.136 276.739 108.866 277.255 108.326C277.783 107.774 278.065 106.994 278.101 105.986C278.113 105.866 278.119 105.644 278.119 105.32C278.119 104.996 278.113 104.774 278.101 104.654C278.065 103.646 277.783 102.872 277.255 102.332C276.739 101.78 276.055 101.504 275.203 101.504C274.351 101.504 273.661 101.78 273.133 102.332C272.617 102.872 272.341 103.646 272.305 104.654L272.287 105.32L272.305 105.986C272.341 106.994 272.617 107.774 273.133 108.326C273.661 108.866 274.351 109.136 275.203 109.136ZM282.072 110C281.952 110 281.856 109.964 281.784 109.892C281.712 109.82 281.676 109.724 281.676 109.604V101.036C281.676 100.916 281.712 100.82 281.784 100.748C281.856 100.676 281.952 100.64 282.072 100.64H282.378C282.498 100.64 282.594 100.676 282.666 100.748C282.738 100.82 282.774 100.916 282.774 101.036V101.882C283.134 101.414 283.542 101.06 283.998 100.82C284.466 100.58 285.066 100.46 285.798 100.46C286.974 100.46 287.88 100.838 288.516 101.594C289.152 102.338 289.47 103.304 289.47 104.492V109.604C289.47 109.724 289.434 109.82 289.362 109.892C289.29 109.964 289.194 110 289.074 110H288.768C288.648 110 288.552 109.964 288.48 109.892C288.408 109.82 288.372 109.724 288.372 109.604V104.582C288.372 103.61 288.132 102.854 287.652 102.314C287.184 101.774 286.506 101.504 285.618 101.504C284.754 101.504 284.064 101.78 283.548 102.332C283.032 102.872 282.774 103.622 282.774 104.582V109.604C282.774 109.724 282.738 109.82 282.666 109.892C282.594 109.964 282.498 110 282.378 110H282.072ZM295.263 110.18C294.483 110.18 293.823 110.048 293.283 109.784C292.755 109.52 292.353 109.22 292.077 108.884C291.813 108.548 291.681 108.278 291.681 108.074C291.681 107.966 291.723 107.882 291.807 107.822C291.891 107.75 291.981 107.714 292.077 107.714H292.347C292.431 107.714 292.497 107.732 292.545 107.768C292.605 107.792 292.671 107.852 292.743 107.948C293.007 108.32 293.325 108.614 293.697 108.83C294.081 109.034 294.603 109.136 295.263 109.136C296.007 109.136 296.607 108.998 297.063 108.722C297.519 108.434 297.747 108.026 297.747 107.498C297.747 107.174 297.651 106.91 297.459 106.706C297.279 106.502 296.979 106.328 296.559 106.184C296.151 106.028 295.539 105.854 294.723 105.662C293.655 105.422 292.923 105.092 292.527 104.672C292.143 104.252 291.951 103.718 291.951 103.07C291.951 102.626 292.071 102.206 292.311 101.81C292.563 101.414 292.929 101.09 293.409 100.838C293.901 100.586 294.489 100.46 295.173 100.46C295.893 100.46 296.499 100.586 296.991 100.838C297.495 101.078 297.867 101.36 298.107 101.684C298.359 102.008 298.485 102.272 298.485 102.476C298.485 102.584 298.443 102.674 298.359 102.746C298.287 102.806 298.197 102.836 298.089 102.836H297.819C297.651 102.836 297.519 102.758 297.423 102.602C297.183 102.242 296.907 101.972 296.595 101.792C296.295 101.6 295.821 101.504 295.173 101.504C294.477 101.504 293.949 101.648 293.589 101.936C293.229 102.224 293.049 102.602 293.049 103.07C293.049 103.358 293.121 103.598 293.265 103.79C293.409 103.982 293.679 104.162 294.075 104.33C294.471 104.486 295.047 104.648 295.803 104.816C296.919 105.068 297.705 105.404 298.161 105.824C298.617 106.244 298.845 106.802 298.845 107.498C298.845 107.99 298.707 108.44 298.431 108.848C298.155 109.256 297.747 109.58 297.207 109.82C296.667 110.06 296.019 110.18 295.263 110.18Z" fill="black"/>
<path d="M49.1901 61.4142C49.9712 60.6332 49.9712 59.3668 49.1901 58.5858L36.4622 45.8579C35.6812 45.0768 34.4148 45.0768 33.6338 45.8579C32.8528 46.6389 32.8528 47.9052 33.6338 48.6863L44.9475 60L33.6338 71.3137C32.8528 72.0948 32.8528 73.3611 33.6338 74.1421C34.4148 74.9232 35.6812 74.9232 36.4622 74.1421L49.1901 61.4142ZM0 62H47.7759V58H0V62Z" fill="#FB9F99"/>
<path d="M71.8701 65.18C71.2941 65.18 70.7601 65.06 70.2681 64.82C69.7761 64.58 69.3801 64.256 69.0801 63.848C68.7921 63.44 68.6481 62.99 68.6481 62.498C68.6481 61.706 68.9661 61.058 69.6021 60.554C70.2501 60.05 71.1201 59.726 72.2121 59.582L75.0561 59.186V58.556C75.0561 57.896 74.8521 57.392 74.4441 57.044C74.0481 56.684 73.4361 56.504 72.6081 56.504C71.9961 56.504 71.4921 56.624 71.0961 56.864C70.7121 57.104 70.4661 57.392 70.3581 57.728C70.3101 57.872 70.2501 57.974 70.1781 58.034C70.1181 58.082 70.0341 58.106 69.9261 58.106H69.6741C69.5661 58.106 69.4701 58.07 69.3861 57.998C69.3141 57.914 69.2781 57.818 69.2781 57.71C69.2781 57.446 69.3981 57.14 69.6381 56.792C69.8781 56.432 70.2501 56.12 70.7541 55.856C71.2581 55.592 71.8761 55.46 72.6081 55.46C73.8921 55.46 74.8041 55.766 75.3441 56.378C75.8841 56.99 76.1541 57.734 76.1541 58.61V64.604C76.1541 64.724 76.1181 64.82 76.0461 64.892C75.9741 64.964 75.8781 65 75.7581 65H75.4521C75.3321 65 75.2361 64.964 75.1641 64.892C75.0921 64.82 75.0561 64.724 75.0561 64.604V63.758C74.7921 64.154 74.4021 64.49 73.8861 64.766C73.3821 65.042 72.7101 65.18 71.8701 65.18ZM72.0501 64.136C72.9261 64.136 73.6461 63.848 74.2101 63.272C74.7741 62.696 75.0561 61.868 75.0561 60.788V60.176L72.7341 60.5C71.7501 60.632 71.0061 60.86 70.5021 61.184C69.9981 61.508 69.7461 61.916 69.7461 62.408C69.7461 62.96 69.9741 63.386 70.4301 63.686C70.8981 63.986 71.4381 64.136 72.0501 64.136ZM87.1871 65.18C85.9391 65.18 84.9731 64.82 84.2891 64.1C83.6051 63.368 83.2451 62.348 83.2091 61.04L83.1911 60.32L83.2091 59.6C83.2451 58.292 83.6051 57.278 84.2891 56.558C84.9731 55.826 85.9391 55.46 87.1871 55.46C87.9791 55.46 88.6511 55.604 89.2031 55.892C89.7671 56.168 90.1871 56.528 90.4631 56.972C90.7391 57.404 90.8891 57.854 90.9131 58.322C90.9251 58.43 90.8891 58.526 90.8051 58.61C90.7211 58.682 90.6251 58.718 90.5171 58.718H90.2651C90.1451 58.718 90.0551 58.694 89.9951 58.646C89.9471 58.586 89.8931 58.484 89.8331 58.34C89.5931 57.68 89.2571 57.212 88.8251 56.936C88.3931 56.648 87.8471 56.504 87.1871 56.504C86.3231 56.504 85.6331 56.768 85.1171 57.296C84.6131 57.812 84.3431 58.61 84.3071 59.69L84.2891 60.32L84.3071 60.95C84.3431 62.03 84.6131 62.834 85.1171 63.362C85.6331 63.878 86.3231 64.136 87.1871 64.136C87.8471 64.136 88.3931 63.998 88.8251 63.722C89.2571 63.434 89.5931 62.96 89.8331 62.3C89.8931 62.156 89.9471 62.06 89.9951 62.012C90.0551 61.952 90.1451 61.922 90.2651 61.922H90.5171C90.6251 61.922 90.7211 61.964 90.8051 62.048C90.8891 62.12 90.9251 62.21 90.9131 62.318C90.8891 62.786 90.7391 63.242 90.4631 63.686C90.1871 64.118 89.7671 64.478 89.2031 64.766C88.6511 65.042 87.9791 65.18 87.1871 65.18ZM93.7055 65C93.5855 65 93.4895 64.964 93.4175 64.892C93.3455 64.82 93.3095 64.724 93.3095 64.604V52.616C93.3095 52.496 93.3455 52.4 93.4175 52.328C93.4895 52.256 93.5855 52.22 93.7055 52.22H94.0115C94.1315 52.22 94.2275 52.256 94.2995 52.328C94.3715 52.4 94.4075 52.496 94.4075 52.616V64.604C94.4075 64.724 94.3715 64.82 94.2995 64.892C94.2275 64.964 94.1315 65 94.0115 65H93.7055ZM100.808 65.18C99.6685 65.18 98.7505 64.808 98.0545 64.064C97.3585 63.308 96.9625 62.3 96.8665 61.04L96.8485 60.32L96.8665 59.6C96.9625 58.352 97.3525 57.35 98.0365 56.594C98.7325 55.838 99.6565 55.46 100.808 55.46C102.056 55.46 103.028 55.874 103.724 56.702C104.432 57.53 104.786 58.664 104.786 60.104V60.374C104.786 60.494 104.744 60.59 104.66 60.662C104.588 60.734 104.492 60.77 104.372 60.77H97.9645V60.95C97.9885 61.514 98.1145 62.042 98.3425 62.534C98.5825 63.014 98.9125 63.404 99.3325 63.704C99.7525 63.992 100.244 64.136 100.808 64.136C101.468 64.136 102.002 64.01 102.41 63.758C102.83 63.494 103.13 63.23 103.31 62.966C103.418 62.822 103.496 62.732 103.544 62.696C103.604 62.66 103.706 62.642 103.85 62.642H104.138C104.246 62.642 104.336 62.672 104.408 62.732C104.48 62.792 104.516 62.87 104.516 62.966C104.516 63.218 104.354 63.524 104.03 63.884C103.718 64.232 103.28 64.538 102.716 64.802C102.152 65.054 101.516 65.18 100.808 65.18ZM103.688 59.762V59.69C103.688 58.766 103.424 58.004 102.896 57.404C102.38 56.804 101.684 56.504 100.808 56.504C99.9325 56.504 99.2365 56.804 98.7205 57.404C98.2165 58.004 97.9645 58.766 97.9645 59.69V59.762H103.688ZM109.681 65.18C109.105 65.18 108.571 65.06 108.079 64.82C107.587 64.58 107.191 64.256 106.891 63.848C106.603 63.44 106.459 62.99 106.459 62.498C106.459 61.706 106.777 61.058 107.413 60.554C108.061 60.05 108.931 59.726 110.023 59.582L112.867 59.186V58.556C112.867 57.896 112.663 57.392 112.255 57.044C111.859 56.684 111.247 56.504 110.419 56.504C109.807 56.504 109.303 56.624 108.907 56.864C108.523 57.104 108.277 57.392 108.169 57.728C108.121 57.872 108.061 57.974 107.989 58.034C107.929 58.082 107.845 58.106 107.737 58.106H107.485C107.377 58.106 107.281 58.07 107.197 57.998C107.125 57.914 107.089 57.818 107.089 57.71C107.089 57.446 107.209 57.14 107.449 56.792C107.689 56.432 108.061 56.12 108.565 55.856C109.069 55.592 109.687 55.46 110.419 55.46C111.703 55.46 112.615 55.766 113.155 56.378C113.695 56.99 113.965 57.734 113.965 58.61V64.604C113.965 64.724 113.929 64.82 113.857 64.892C113.785 64.964 113.689 65 113.569 65H113.263C113.143 65 113.047 64.964 112.975 64.892C112.903 64.82 112.867 64.724 112.867 64.604V63.758C112.603 64.154 112.213 64.49 111.697 64.766C111.193 65.042 110.521 65.18 109.681 65.18ZM109.861 64.136C110.737 64.136 111.457 63.848 112.021 63.272C112.585 62.696 112.867 61.868 112.867 60.788V60.176L110.545 60.5C109.561 60.632 108.817 60.86 108.313 61.184C107.809 61.508 107.557 61.916 107.557 62.408C107.557 62.96 107.785 63.386 108.241 63.686C108.709 63.986 109.249 64.136 109.861 64.136ZM117.207 65C117.087 65 116.991 64.964 116.919 64.892C116.847 64.82 116.811 64.724 116.811 64.604V56.036C116.811 55.916 116.847 55.82 116.919 55.748C116.991 55.676 117.087 55.64 117.207 55.64H117.513C117.633 55.64 117.729 55.676 117.801 55.748C117.873 55.82 117.909 55.916 117.909 56.036V56.882C118.269 56.414 118.677 56.06 119.133 55.82C119.601 55.58 120.201 55.46 120.933 55.46C122.109 55.46 123.015 55.838 123.651 56.594C124.287 57.338 124.605 58.304 124.605 59.492V64.604C124.605 64.724 124.569 64.82 124.497 64.892C124.425 64.964 124.329 65 124.209 65H123.903C123.783 65 123.687 64.964 123.615 64.892C123.543 64.82 123.507 64.724 123.507 64.604V59.582C123.507 58.61 123.267 57.854 122.787 57.314C122.319 56.774 121.641 56.504 120.753 56.504C119.889 56.504 119.199 56.78 118.683 57.332C118.167 57.872 117.909 58.622 117.909 59.582V64.604C117.909 64.724 117.873 64.82 117.801 64.892C117.729 64.964 117.633 65 117.513 65H117.207ZM130.902 65.18C129.762 65.18 128.844 64.808 128.148 64.064C127.452 63.308 127.056 62.3 126.96 61.04L126.942 60.32L126.96 59.6C127.056 58.352 127.446 57.35 128.13 56.594C128.826 55.838 129.75 55.46 130.902 55.46C132.15 55.46 133.122 55.874 133.818 56.702C134.526 57.53 134.88 58.664 134.88 60.104V60.374C134.88 60.494 134.838 60.59 134.754 60.662C134.682 60.734 134.586 60.77 134.466 60.77H128.058V60.95C128.082 61.514 128.208 62.042 128.436 62.534C128.676 63.014 129.006 63.404 129.426 63.704C129.846 63.992 130.338 64.136 130.902 64.136C131.562 64.136 132.096 64.01 132.504 63.758C132.924 63.494 133.224 63.23 133.404 62.966C133.512 62.822 133.59 62.732 133.638 62.696C133.698 62.66 133.8 62.642 133.944 62.642H134.232C134.34 62.642 134.43 62.672 134.502 62.732C134.574 62.792 134.61 62.87 134.61 62.966C134.61 63.218 134.448 63.524 134.124 63.884C133.812 64.232 133.374 64.538 132.81 64.802C132.246 65.054 131.61 65.18 130.902 65.18ZM133.782 59.762V59.69C133.782 58.766 133.518 58.004 132.99 57.404C132.474 56.804 131.778 56.504 130.902 56.504C130.026 56.504 129.33 56.804 128.814 57.404C128.31 58.004 128.058 58.766 128.058 59.69V59.762H133.782ZM137.65 65C137.53 65 137.434 64.964 137.362 64.892C137.29 64.82 137.254 64.724 137.254 64.604V56.054C137.254 55.934 137.29 55.838 137.362 55.766C137.434 55.682 137.53 55.64 137.65 55.64H137.938C138.058 55.64 138.154 55.682 138.226 55.766C138.31 55.838 138.352 55.934 138.352 56.054V56.882C138.784 56.054 139.6 55.64 140.8 55.64H141.466C141.586 55.64 141.682 55.676 141.754 55.748C141.826 55.82 141.862 55.916 141.862 56.036V56.288C141.862 56.408 141.826 56.504 141.754 56.576C141.682 56.648 141.586 56.684 141.466 56.684H140.692C139.972 56.684 139.402 56.894 138.982 57.314C138.562 57.734 138.352 58.304 138.352 59.024V64.604C138.352 64.724 138.31 64.82 138.226 64.892C138.154 64.964 138.058 65 137.938 65H137.65ZM148.127 65C148.007 65 147.911 64.964 147.839 64.892C147.767 64.82 147.731 64.724 147.731 64.604V52.616C147.731 52.496 147.767 52.4 147.839 52.328C147.911 52.256 148.007 52.22 148.127 52.22H148.433C148.553 52.22 148.649 52.256 148.721 52.328C148.793 52.4 148.829 52.496 148.829 52.616V56.882C149.189 56.414 149.597 56.06 150.053 55.82C150.521 55.58 151.121 55.46 151.853 55.46C153.029 55.46 153.935 55.838 154.571 56.594C155.207 57.338 155.525 58.304 155.525 59.492V64.604C155.525 64.724 155.489 64.82 155.417 64.892C155.345 64.964 155.249 65 155.129 65H154.823C154.703 65 154.607 64.964 154.535 64.892C154.463 64.82 154.427 64.724 154.427 64.604V59.582C154.427 58.61 154.187 57.854 153.707 57.314C153.239 56.774 152.561 56.504 151.673 56.504C150.809 56.504 150.119 56.78 149.603 57.332C149.087 57.872 148.829 58.622 148.829 59.582V64.604C148.829 64.724 148.793 64.82 148.721 64.892C148.649 64.964 148.553 65 148.433 65H148.127ZM161.912 65.18C160.664 65.18 159.692 64.802 158.996 64.046C158.312 63.278 157.952 62.288 157.916 61.076L157.898 60.32L157.916 59.564C157.952 58.352 158.312 57.368 158.996 56.612C159.692 55.844 160.664 55.46 161.912 55.46C163.16 55.46 164.126 55.844 164.81 56.612C165.506 57.368 165.872 58.352 165.908 59.564C165.92 59.684 165.926 59.936 165.926 60.32C165.926 60.704 165.92 60.956 165.908 61.076C165.872 62.288 165.506 63.278 164.81 64.046C164.126 64.802 163.16 65.18 161.912 65.18ZM161.912 64.136C162.764 64.136 163.448 63.866 163.964 63.326C164.492 62.774 164.774 61.994 164.81 60.986C164.822 60.866 164.828 60.644 164.828 60.32C164.828 59.996 164.822 59.774 164.81 59.654C164.774 58.646 164.492 57.872 163.964 57.332C163.448 56.78 162.764 56.504 161.912 56.504C161.06 56.504 160.37 56.78 159.842 57.332C159.326 57.872 159.05 58.646 159.014 59.654L158.996 60.32L159.014 60.986C159.05 61.994 159.326 62.774 159.842 63.326C160.37 63.866 161.06 64.136 161.912 64.136ZM168.781 65C168.661 65 168.565 64.964 168.493 64.892C168.421 64.82 168.385 64.724 168.385 64.604V56.036C168.385 55.916 168.421 55.82 168.493 55.748C168.565 55.676 168.661 55.64 168.781 55.64H169.087C169.207 55.64 169.303 55.676 169.375 55.748C169.447 55.82 169.483 55.916 169.483 56.036V56.666C169.795 56.27 170.155 55.97 170.563 55.766C170.983 55.562 171.481 55.46 172.057 55.46C173.401 55.46 174.361 56.024 174.937 57.152C175.225 56.636 175.633 56.228 176.161 55.928C176.701 55.616 177.313 55.46 177.997 55.46C178.993 55.46 179.803 55.802 180.427 56.486C181.051 57.158 181.363 58.118 181.363 59.366V64.604C181.363 64.724 181.327 64.82 181.255 64.892C181.183 64.964 181.087 65 180.967 65H180.661C180.541 65 180.445 64.964 180.373 64.892C180.301 64.82 180.265 64.724 180.265 64.604V59.546C180.265 58.454 180.037 57.674 179.581 57.206C179.137 56.738 178.549 56.504 177.817 56.504C177.169 56.504 176.605 56.744 176.125 57.224C175.657 57.692 175.423 58.466 175.423 59.546V64.604C175.423 64.724 175.387 64.82 175.315 64.892C175.243 64.964 175.147 65 175.027 65H174.721C174.601 65 174.505 64.964 174.433 64.892C174.361 64.82 174.325 64.724 174.325 64.604V59.546C174.325 58.466 174.091 57.692 173.623 57.224C173.155 56.744 172.573 56.504 171.877 56.504C171.229 56.504 170.665 56.744 170.185 57.224C169.717 57.692 169.483 58.46 169.483 59.528V64.604C169.483 64.724 169.447 64.82 169.375 64.892C169.303 64.964 169.207 65 169.087 65H168.781ZM187.662 65.18C186.522 65.18 185.604 64.808 184.908 64.064C184.212 63.308 183.816 62.3 183.72 61.04L183.702 60.32L183.72 59.6C183.816 58.352 184.206 57.35 184.89 56.594C185.586 55.838 186.51 55.46 187.662 55.46C188.91 55.46 189.882 55.874 190.578 56.702C191.286 57.53 191.64 58.664 191.64 60.104V60.374C191.64 60.494 191.598 60.59 191.514 60.662C191.442 60.734 191.346 60.77 191.226 60.77H184.818V60.95C184.842 61.514 184.968 62.042 185.196 62.534C185.436 63.014 185.766 63.404 186.186 63.704C186.606 63.992 187.098 64.136 187.662 64.136C188.322 64.136 188.856 64.01 189.264 63.758C189.684 63.494 189.984 63.23 190.164 62.966C190.272 62.822 190.35 62.732 190.398 62.696C190.458 62.66 190.56 62.642 190.704 62.642H190.992C191.1 62.642 191.19 62.672 191.262 62.732C191.334 62.792 191.37 62.87 191.37 62.966C191.37 63.218 191.208 63.524 190.884 63.884C190.572 64.232 190.134 64.538 189.57 64.802C189.006 65.054 188.37 65.18 187.662 65.18ZM190.542 59.762V59.69C190.542 58.766 190.278 58.004 189.75 57.404C189.234 56.804 188.538 56.504 187.662 56.504C186.786 56.504 186.09 56.804 185.574 57.404C185.07 58.004 184.818 58.766 184.818 59.69V59.762H190.542ZM194.428 68.42C194.308 68.42 194.212 68.384 194.14 68.312C194.068 68.24 194.032 68.144 194.032 68.024V56.036C194.032 55.916 194.068 55.82 194.14 55.748C194.212 55.676 194.308 55.64 194.428 55.64H194.734C194.854 55.64 194.95 55.676 195.022 55.748C195.094 55.82 195.13 55.916 195.13 56.036V56.882C195.826 55.934 196.834 55.46 198.154 55.46C199.45 55.46 200.404 55.874 201.016 56.702C201.64 57.518 201.97 58.526 202.006 59.726C202.018 59.846 202.024 60.044 202.024 60.32C202.024 60.596 202.018 60.794 202.006 60.914C201.97 62.114 201.64 63.128 201.016 63.956C200.404 64.772 199.45 65.18 198.154 65.18C196.846 65.18 195.838 64.706 195.13 63.758V68.024C195.13 68.144 195.094 68.24 195.022 68.312C194.95 68.384 194.854 68.42 194.734 68.42H194.428ZM198.046 64.136C199.018 64.136 199.726 63.83 200.17 63.218C200.626 62.594 200.872 61.796 200.908 60.824C200.92 60.704 200.926 60.536 200.926 60.32C200.926 59.204 200.71 58.292 200.278 57.584C199.846 56.864 199.102 56.504 198.046 56.504C197.098 56.504 196.384 56.822 195.904 57.458C195.424 58.082 195.166 58.82 195.13 59.672L195.112 60.374L195.13 61.076C195.142 61.592 195.256 62.084 195.472 62.552C195.688 63.008 196.012 63.386 196.444 63.686C196.876 63.986 197.41 64.136 198.046 64.136ZM206.993 65.18C206.417 65.18 205.883 65.06 205.391 64.82C204.899 64.58 204.503 64.256 204.203 63.848C203.915 63.44 203.771 62.99 203.771 62.498C203.771 61.706 204.089 61.058 204.725 60.554C205.373 60.05 206.243 59.726 207.335 59.582L210.179 59.186V58.556C210.179 57.896 209.975 57.392 209.567 57.044C209.171 56.684 208.559 56.504 207.731 56.504C207.119 56.504 206.615 56.624 206.219 56.864C205.835 57.104 205.589 57.392 205.481 57.728C205.433 57.872 205.373 57.974 205.301 58.034C205.241 58.082 205.157 58.106 205.049 58.106H204.797C204.689 58.106 204.593 58.07 204.509 57.998C204.437 57.914 204.401 57.818 204.401 57.71C204.401 57.446 204.521 57.14 204.761 56.792C205.001 56.432 205.373 56.12 205.877 55.856C206.381 55.592 206.999 55.46 207.731 55.46C209.015 55.46 209.927 55.766 210.467 56.378C211.007 56.99 211.277 57.734 211.277 58.61V64.604C211.277 64.724 211.241 64.82 211.169 64.892C211.097 64.964 211.001 65 210.881 65H210.575C210.455 65 210.359 64.964 210.287 64.892C210.215 64.82 210.179 64.724 210.179 64.604V63.758C209.915 64.154 209.525 64.49 209.009 64.766C208.505 65.042 207.833 65.18 206.993 65.18ZM207.173 64.136C208.049 64.136 208.769 63.848 209.333 63.272C209.897 62.696 210.179 61.868 210.179 60.788V60.176L207.857 60.5C206.873 60.632 206.129 60.86 205.625 61.184C205.121 61.508 204.869 61.916 204.869 62.408C204.869 62.96 205.097 63.386 205.553 63.686C206.021 63.986 206.561 64.136 207.173 64.136ZM217.616 68.96C216.68 68.96 215.93 68.798 215.366 68.474C214.802 68.15 214.406 67.778 214.178 67.358C213.962 66.95 213.854 66.59 213.854 66.278C213.854 66.17 213.89 66.08 213.962 66.008C214.046 65.936 214.142 65.9 214.25 65.9H214.502C214.61 65.9 214.694 65.924 214.754 65.972C214.826 66.032 214.886 66.134 214.934 66.278C215.306 67.37 216.17 67.916 217.526 67.916C218.558 67.916 219.32 67.7 219.812 67.268C220.304 66.848 220.55 66.092 220.55 65V63.758C219.854 64.706 218.846 65.18 217.526 65.18C216.23 65.18 215.27 64.76 214.646 63.92C214.034 63.068 213.71 62.036 213.674 60.824L213.656 60.32L213.674 59.816C213.71 58.604 214.034 57.578 214.646 56.738C215.27 55.886 216.23 55.46 217.526 55.46C218.834 55.46 219.842 55.934 220.55 56.882V56.054C220.55 55.934 220.586 55.838 220.658 55.766C220.73 55.682 220.826 55.64 220.946 55.64H221.234C221.354 55.64 221.45 55.682 221.522 55.766C221.606 55.838 221.648 55.934 221.648 56.054V64.82C221.648 66.104 221.348 67.112 220.748 67.844C220.148 68.588 219.104 68.96 217.616 68.96ZM217.634 64.136C218.582 64.136 219.296 63.824 219.776 63.2C220.256 62.564 220.514 61.82 220.55 60.968C220.562 60.848 220.568 60.632 220.568 60.32C220.568 60.008 220.562 59.792 220.55 59.672C220.514 58.82 220.256 58.082 219.776 57.458C219.296 56.822 218.582 56.504 217.634 56.504C216.662 56.504 215.948 56.816 215.492 57.44C215.048 58.052 214.808 58.844 214.772 59.816L214.754 60.32L214.772 60.824C214.808 61.796 215.048 62.594 215.492 63.218C215.948 63.83 216.662 64.136 217.634 64.136ZM228.057 65.18C226.917 65.18 225.999 64.808 225.303 64.064C224.607 63.308 224.211 62.3 224.115 61.04L224.097 60.32L224.115 59.6C224.211 58.352 224.601 57.35 225.285 56.594C225.981 55.838 226.905 55.46 228.057 55.46C229.305 55.46 230.277 55.874 230.973 56.702C231.681 57.53 232.035 58.664 232.035 60.104V60.374C232.035 60.494 231.993 60.59 231.909 60.662C231.837 60.734 231.741 60.77 231.621 60.77H225.213V60.95C225.237 61.514 225.363 62.042 225.591 62.534C225.831 63.014 226.161 63.404 226.581 63.704C227.001 63.992 227.493 64.136 228.057 64.136C228.717 64.136 229.251 64.01 229.659 63.758C230.079 63.494 230.379 63.23 230.559 62.966C230.667 62.822 230.745 62.732 230.793 62.696C230.853 62.66 230.955 62.642 231.099 62.642H231.387C231.495 62.642 231.585 62.672 231.657 62.732C231.729 62.792 231.765 62.87 231.765 62.966C231.765 63.218 231.603 63.524 231.279 63.884C230.967 64.232 230.529 64.538 229.965 64.802C229.401 65.054 228.765 65.18 228.057 65.18ZM230.937 59.762V59.69C230.937 58.766 230.673 58.004 230.145 57.404C229.629 56.804 228.933 56.504 228.057 56.504C227.181 56.504 226.485 56.804 225.969 57.404C225.465 58.004 225.213 58.766 225.213 59.69V59.762H230.937ZM234.265 66.35C234.169 66.35 234.097 66.314 234.049 66.242C234.001 66.17 233.989 66.08 234.013 65.972L234.355 63.812C234.391 63.488 234.541 63.326 234.805 63.326H235.615C235.699 63.326 235.765 63.356 235.813 63.416C235.861 63.476 235.885 63.542 235.885 63.614C235.885 63.722 235.861 63.83 235.813 63.938L235.039 65.972C234.979 66.104 234.913 66.2 234.841 66.26C234.781 66.32 234.691 66.35 234.571 66.35H234.265Z" fill="black"/>
</svg>
