<svg width="494" height="288" viewBox="0 0 494 288" fill="none" xmlns="http://www.w3.org/2000/svg">
<circle cx="144" cy="144" r="144" fill="#313131"/>
<path d="M318.808 216.224C316.941 216.224 315.327 215.823 313.964 215.02C312.601 214.199 311.547 213.032 310.8 211.52C310.072 209.989 309.708 208.188 309.708 206.116C309.708 204.063 310.072 202.28 310.8 200.768C311.547 199.237 312.601 198.071 313.964 197.268C315.327 196.447 316.941 196.036 318.808 196.036C320.059 196.036 321.235 196.241 322.336 196.652C323.456 197.044 324.427 197.613 325.248 198.36C325.547 198.64 325.696 198.967 325.696 199.34C325.696 199.601 325.621 199.835 325.472 200.04C325.323 200.227 325.145 200.32 324.94 200.32C324.716 200.32 324.445 200.217 324.128 200.012C323.176 199.265 322.308 198.743 321.524 198.444C320.759 198.145 319.872 197.996 318.864 197.996C316.699 197.996 315.028 198.705 313.852 200.124C312.695 201.524 312.116 203.521 312.116 206.116C312.116 208.729 312.695 210.745 313.852 212.164C315.028 213.564 316.699 214.264 318.864 214.264C319.853 214.264 320.74 214.115 321.524 213.816C322.308 213.517 323.176 212.995 324.128 212.248C324.445 212.043 324.716 211.94 324.94 211.94C325.145 211.94 325.323 212.033 325.472 212.22C325.621 212.407 325.696 212.64 325.696 212.92C325.696 213.293 325.547 213.62 325.248 213.9C324.427 214.647 323.456 215.225 322.336 215.636C321.235 216.028 320.059 216.224 318.808 216.224ZM346.913 196.12C347.268 196.12 347.539 196.232 347.725 196.456C347.931 196.661 348.033 196.941 348.033 197.296V215.02C348.033 215.356 347.94 215.627 347.753 215.832C347.567 216.037 347.305 216.14 346.969 216.14C346.633 216.14 346.381 216.037 346.213 215.832C346.045 215.627 345.961 215.356 345.961 215.02V200.712L339.885 212.36C339.624 212.901 339.241 213.172 338.737 213.172C338.252 213.172 337.869 212.901 337.589 212.36L331.485 200.852V215.02C331.485 215.356 331.392 215.627 331.205 215.832C331.037 216.037 330.785 216.14 330.449 216.14C330.113 216.14 329.852 216.037 329.665 215.832C329.479 215.627 329.385 215.356 329.385 215.02V197.296C329.385 196.941 329.488 196.661 329.693 196.456C329.899 196.232 330.179 196.12 330.533 196.12C331 196.12 331.373 196.391 331.653 196.932L338.765 210.568L345.793 196.932C345.943 196.633 346.101 196.428 346.269 196.316C346.456 196.185 346.671 196.12 346.913 196.12ZM365.276 196.568C365.5 196.288 365.771 196.148 366.088 196.148C366.35 196.148 366.583 196.251 366.788 196.456C366.994 196.661 367.096 196.913 367.096 197.212C367.096 197.492 367.012 197.725 366.844 197.912L360.04 206.508V214.964C360.04 215.337 359.928 215.627 359.704 215.832C359.499 216.037 359.228 216.14 358.892 216.14C358.556 216.14 358.276 216.037 358.052 215.832C357.847 215.627 357.744 215.337 357.744 214.964V206.48L350.94 197.912C350.754 197.707 350.66 197.473 350.66 197.212C350.66 196.913 350.763 196.661 350.968 196.456C351.192 196.251 351.444 196.148 351.724 196.148C352.042 196.148 352.312 196.288 352.536 196.568L358.92 204.716L365.276 196.568ZM383.941 214.264C384.202 214.507 384.333 214.777 384.333 215.076C384.333 215.337 384.221 215.58 383.997 215.804C383.791 216.009 383.549 216.112 383.269 216.112C383.026 216.112 382.774 216 382.513 215.776L372.041 206.62V214.964C372.041 215.319 371.938 215.608 371.733 215.832C371.527 216.037 371.247 216.14 370.893 216.14C370.538 216.14 370.258 216.037 370.053 215.832C369.847 215.608 369.745 215.319 369.745 214.964V197.296C369.745 196.941 369.847 196.661 370.053 196.456C370.258 196.232 370.538 196.12 370.893 196.12C371.247 196.12 371.527 196.232 371.733 196.456C371.938 196.661 372.041 196.941 372.041 197.296V205.332L382.037 196.456C382.242 196.251 382.485 196.148 382.765 196.148C383.045 196.148 383.287 196.26 383.493 196.484C383.698 196.689 383.801 196.923 383.801 197.184C383.801 197.464 383.679 197.725 383.437 197.968L374.393 205.92L383.941 214.264ZM388.111 205.22C387.663 205.22 387.289 205.08 386.991 204.8C386.692 204.501 386.543 204.119 386.543 203.652C386.543 203.185 386.692 202.812 386.991 202.532C387.289 202.233 387.663 202.084 388.111 202.084C388.54 202.084 388.895 202.233 389.175 202.532C389.473 202.812 389.623 203.185 389.623 203.652C389.623 204.119 389.473 204.501 389.175 204.8C388.895 205.08 388.54 205.22 388.111 205.22ZM388.111 216.14C387.663 216.14 387.289 216 386.991 215.72C386.692 215.421 386.543 215.039 386.543 214.572C386.543 214.105 386.692 213.723 386.991 213.424C387.289 213.125 387.663 212.976 388.111 212.976C388.54 212.976 388.895 213.125 389.175 213.424C389.473 213.723 389.623 214.105 389.623 214.572C389.623 215.039 389.473 215.421 389.175 215.72C388.895 216 388.54 216.14 388.111 216.14ZM313.852 258.592C311.873 254.803 310.884 250.817 310.884 246.636C310.884 242.455 311.873 238.469 313.852 234.68C314.095 234.251 314.421 234.036 314.832 234.036C315.056 234.036 315.243 234.111 315.392 234.26C315.56 234.409 315.644 234.596 315.644 234.82C315.644 234.951 315.616 235.091 315.56 235.24C313.992 238.936 313.208 242.735 313.208 246.636C313.208 250.537 313.992 254.336 315.56 258.032C315.616 258.2 315.644 258.34 315.644 258.452C315.644 258.695 315.56 258.881 315.392 259.012C315.243 259.161 315.056 259.236 314.832 259.236C314.421 259.236 314.095 259.021 313.852 258.592ZM325.205 254.224C322.946 254.224 321.229 253.365 320.053 251.648C318.877 249.931 318.289 247.429 318.289 244.144C318.289 240.84 318.877 238.329 320.053 236.612C321.229 234.895 322.946 234.036 325.205 234.036C327.463 234.036 329.181 234.895 330.357 236.612C331.533 238.311 332.121 240.812 332.121 244.116C332.121 247.42 331.533 249.931 330.357 251.648C329.181 253.365 327.463 254.224 325.205 254.224ZM325.205 252.292C326.773 252.292 327.93 251.629 328.677 250.304C329.423 248.979 329.797 246.916 329.797 244.116C329.797 241.297 329.423 239.235 328.677 237.928C327.949 236.621 326.791 235.968 325.205 235.968C323.637 235.968 322.479 236.631 321.733 237.956C320.986 239.263 320.613 241.316 320.613 244.116C320.613 246.916 320.986 248.979 321.733 250.304C322.479 251.629 323.637 252.292 325.205 252.292ZM336.758 250.976C337.224 250.976 337.598 251.163 337.878 251.536C338.176 251.891 338.326 252.432 338.326 253.16C338.326 254.635 337.85 255.876 336.898 256.884C336.711 257.089 336.496 257.192 336.254 257.192C336.067 257.192 335.899 257.117 335.75 256.968C335.6 256.837 335.526 256.679 335.526 256.492C335.526 256.287 335.6 256.109 335.75 255.96C336.235 255.456 336.543 254.831 336.674 254.084C336.263 254.047 335.918 253.897 335.638 253.636C335.376 253.356 335.246 253.001 335.246 252.572C335.246 252.105 335.386 251.723 335.666 251.424C335.964 251.125 336.328 250.976 336.758 250.976ZM355.611 254.224C353.352 254.224 351.635 253.365 350.459 251.648C349.283 249.931 348.695 247.429 348.695 244.144C348.695 240.84 349.283 238.329 350.459 236.612C351.635 234.895 353.352 234.036 355.611 234.036C357.87 234.036 359.587 234.895 360.763 236.612C361.939 238.311 362.527 240.812 362.527 244.116C362.527 247.42 361.939 249.931 360.763 251.648C359.587 253.365 357.87 254.224 355.611 254.224ZM355.611 252.292C357.179 252.292 358.336 251.629 359.083 250.304C359.83 248.979 360.203 246.916 360.203 244.116C360.203 241.297 359.83 239.235 359.083 237.928C358.355 236.621 357.198 235.968 355.611 235.968C354.043 235.968 352.886 236.631 352.139 237.956C351.392 239.263 351.019 241.316 351.019 244.116C351.019 246.916 351.392 248.979 352.139 250.304C352.886 251.629 354.043 252.292 355.611 252.292ZM367.164 250.976C367.631 250.976 368.004 251.163 368.284 251.536C368.583 251.891 368.732 252.432 368.732 253.16C368.732 254.635 368.256 255.876 367.304 256.884C367.117 257.089 366.903 257.192 366.66 257.192C366.473 257.192 366.305 257.117 366.156 256.968C366.007 256.837 365.932 256.679 365.932 256.492C365.932 256.287 366.007 256.109 366.156 255.96C366.641 255.456 366.949 254.831 367.08 254.084C366.669 254.047 366.324 253.897 366.044 253.636C365.783 253.356 365.652 253.001 365.652 252.572C365.652 252.105 365.792 251.723 366.072 251.424C366.371 251.125 366.735 250.976 367.164 250.976ZM386.017 254.224C383.759 254.224 382.041 253.365 380.865 251.648C379.689 249.931 379.101 247.429 379.101 244.144C379.101 240.84 379.689 238.329 380.865 236.612C382.041 234.895 383.759 234.036 386.017 234.036C388.276 234.036 389.993 234.895 391.169 236.612C392.345 238.311 392.933 240.812 392.933 244.116C392.933 247.42 392.345 249.931 391.169 251.648C389.993 253.365 388.276 254.224 386.017 254.224ZM386.017 252.292C387.585 252.292 388.743 251.629 389.489 250.304C390.236 248.979 390.609 246.916 390.609 244.116C390.609 241.297 390.236 239.235 389.489 237.928C388.761 236.621 387.604 235.968 386.017 235.968C384.449 235.968 383.292 236.631 382.545 237.956C381.799 239.263 381.425 241.316 381.425 244.116C381.425 246.916 381.799 248.979 382.545 250.304C383.292 251.629 384.449 252.292 386.017 252.292ZM397.57 250.976C398.037 250.976 398.41 251.163 398.69 251.536C398.989 251.891 399.138 252.432 399.138 253.16C399.138 254.635 398.662 255.876 397.71 256.884C397.524 257.089 397.309 257.192 397.066 257.192C396.88 257.192 396.712 257.117 396.562 256.968C396.413 256.837 396.338 256.679 396.338 256.492C396.338 256.287 396.413 256.109 396.562 255.96C397.048 255.456 397.356 254.831 397.486 254.084C397.076 254.047 396.73 253.897 396.45 253.636C396.189 253.356 396.058 253.001 396.058 252.572C396.058 252.105 396.198 251.723 396.478 251.424C396.777 251.125 397.141 250.976 397.57 250.976ZM416.423 254.224C414.165 254.224 412.447 253.365 411.271 251.648C410.095 249.931 409.507 247.429 409.507 244.144C409.507 240.84 410.095 238.329 411.271 236.612C412.447 234.895 414.165 234.036 416.423 234.036C418.682 234.036 420.399 234.895 421.575 236.612C422.751 238.311 423.339 240.812 423.339 244.116C423.339 247.42 422.751 249.931 421.575 251.648C420.399 253.365 418.682 254.224 416.423 254.224ZM416.423 252.292C417.991 252.292 419.149 251.629 419.895 250.304C420.642 248.979 421.015 246.916 421.015 244.116C421.015 241.297 420.642 239.235 419.895 237.928C419.167 236.621 418.01 235.968 416.423 235.968C414.855 235.968 413.698 236.631 412.951 237.956C412.205 239.263 411.831 241.316 411.831 244.116C411.831 246.916 412.205 248.979 412.951 250.304C413.698 251.629 414.855 252.292 416.423 252.292ZM428.033 254.14C427.585 254.14 427.211 254 426.913 253.72C426.614 253.421 426.465 253.039 426.465 252.572C426.465 252.105 426.614 251.723 426.913 251.424C427.211 251.125 427.585 250.976 428.033 250.976C428.462 250.976 428.817 251.125 429.097 251.424C429.395 251.723 429.545 252.105 429.545 252.572C429.545 253.039 429.395 253.421 429.097 253.72C428.817 254 428.462 254.14 428.033 254.14ZM443.027 243.864C444.184 244.219 445.08 244.825 445.715 245.684C446.368 246.543 446.695 247.569 446.695 248.764C446.695 250.463 446.079 251.797 444.847 252.768C443.615 253.72 441.87 254.196 439.611 254.196C437.352 254.196 435.607 253.72 434.375 252.768C433.143 251.797 432.527 250.463 432.527 248.764C432.527 247.551 432.854 246.515 433.507 245.656C434.16 244.797 435.066 244.2 436.223 243.864C435.234 243.491 434.45 242.903 433.871 242.1C433.292 241.297 433.003 240.355 433.003 239.272C433.003 237.667 433.582 236.397 434.739 235.464C435.915 234.512 437.539 234.036 439.611 234.036C441.683 234.036 443.298 234.512 444.455 235.464C445.631 236.397 446.219 237.667 446.219 239.272C446.219 240.355 445.93 241.307 445.351 242.128C444.772 242.931 443.998 243.509 443.027 243.864ZM435.271 239.44C435.271 240.597 435.635 241.484 436.363 242.1C437.11 242.716 438.192 243.024 439.611 243.024C441.03 243.024 442.103 242.716 442.831 242.1C443.578 241.484 443.951 240.597 443.951 239.44C443.951 238.339 443.578 237.48 442.831 236.864C442.103 236.248 441.03 235.94 439.611 235.94C438.192 235.94 437.11 236.248 436.363 236.864C435.635 237.48 435.271 238.339 435.271 239.44ZM439.611 252.292C442.822 252.292 444.427 251.069 444.427 248.624C444.427 246.179 442.822 244.956 439.611 244.956C436.4 244.956 434.795 246.179 434.795 248.624C434.795 251.069 436.4 252.292 439.611 252.292ZM461.776 252.068C462.112 252.068 462.373 252.152 462.56 252.32C462.747 252.488 462.84 252.721 462.84 253.02C462.84 253.337 462.747 253.58 462.56 253.748C462.392 253.916 462.131 254 461.776 254H452.508C452.153 254 451.883 253.916 451.696 253.748C451.528 253.58 451.444 253.337 451.444 253.02C451.444 252.721 451.537 252.488 451.724 252.32C451.911 252.152 452.172 252.068 452.508 252.068H455.98V237.06L452.928 239.048C452.779 239.141 452.629 239.188 452.48 239.188C452.219 239.188 451.985 239.067 451.78 238.824C451.593 238.581 451.5 238.32 451.5 238.04C451.5 237.648 451.649 237.368 451.948 237.2L456.204 234.428C456.521 234.223 456.848 234.12 457.184 234.12C457.501 234.12 457.763 234.223 457.968 234.428C458.173 234.633 458.276 234.923 458.276 235.296V252.068H461.776ZM467.757 258.592C467.514 259.021 467.178 259.236 466.749 259.236C466.525 259.236 466.329 259.161 466.161 259.012C466.012 258.881 465.937 258.704 465.937 258.48C465.937 258.405 465.974 258.256 466.049 258.032C467.598 254.317 468.373 250.519 468.373 246.636C468.373 242.753 467.598 238.955 466.049 235.24C465.974 235.016 465.937 234.867 465.937 234.792C465.937 234.568 466.012 234.391 466.161 234.26C466.329 234.111 466.525 234.036 466.749 234.036C467.178 234.036 467.514 234.251 467.757 234.68C469.717 238.488 470.697 242.473 470.697 246.636C470.697 250.799 469.717 254.784 467.757 258.592Z" fill="black"/>
<path d="M325.5 134.572C325.631 134.777 325.696 134.992 325.696 135.216C325.696 135.496 325.584 135.729 325.36 135.916C325.155 136.084 324.912 136.168 324.632 136.168C324.203 136.168 323.867 135.981 323.624 135.608L319.872 129.672C319.387 128.907 318.883 128.384 318.36 128.104C317.837 127.805 317.128 127.656 316.232 127.656H312.704V134.964C312.704 135.319 312.601 135.608 312.396 135.832C312.191 136.037 311.92 136.14 311.584 136.14C311.229 136.14 310.949 136.037 310.744 135.832C310.539 135.608 310.436 135.319 310.436 134.964V117.38C310.436 117.044 310.539 116.773 310.744 116.568C310.968 116.363 311.257 116.26 311.612 116.26H318.556C320.703 116.26 322.336 116.736 323.456 117.688C324.595 118.64 325.164 120.04 325.164 121.888C325.164 123.456 324.707 124.716 323.792 125.668C322.896 126.62 321.608 127.199 319.928 127.404C320.395 127.553 320.815 127.796 321.188 128.132C321.561 128.468 321.935 128.935 322.308 129.532L325.5 134.572ZM318.36 125.752C319.891 125.752 321.029 125.435 321.776 124.8C322.541 124.165 322.924 123.204 322.924 121.916C322.924 120.647 322.551 119.704 321.804 119.088C321.057 118.472 319.909 118.164 318.36 118.164H312.704V125.752H318.36ZM344.167 125.724C344.447 125.724 344.671 125.808 344.839 125.976C345.025 126.144 345.119 126.377 345.119 126.676V133.648C345.119 134.096 345.044 134.432 344.895 134.656C344.764 134.88 344.512 135.057 344.139 135.188C343.392 135.505 342.487 135.757 341.423 135.944C340.359 136.131 339.295 136.224 338.231 136.224C336.271 136.224 334.581 135.823 333.163 135.02C331.744 134.217 330.652 133.06 329.887 131.548C329.14 130.036 328.767 128.225 328.767 126.116C328.767 124.044 329.14 122.252 329.887 120.74C330.633 119.228 331.707 118.071 333.107 117.268C334.507 116.447 336.149 116.036 338.035 116.036C339.341 116.036 340.555 116.241 341.675 116.652C342.795 117.044 343.737 117.613 344.503 118.36C344.82 118.677 344.979 119.004 344.979 119.34C344.979 119.601 344.904 119.835 344.755 120.04C344.605 120.227 344.419 120.32 344.195 120.32C343.971 120.32 343.709 120.208 343.411 119.984C342.44 119.237 341.563 118.724 340.779 118.444C339.995 118.145 339.089 117.996 338.063 117.996C335.841 117.996 334.133 118.696 332.939 120.096C331.763 121.496 331.175 123.503 331.175 126.116C331.175 128.785 331.772 130.82 332.967 132.22C334.18 133.601 335.953 134.292 338.287 134.292C340.023 134.292 341.6 134.031 343.019 133.508V127.516H338.931C338.613 127.516 338.361 127.432 338.175 127.264C337.988 127.096 337.895 126.881 337.895 126.62C337.895 126.34 337.988 126.125 338.175 125.976C338.361 125.808 338.613 125.724 338.931 125.724H344.167ZM360.956 125.864C362.095 126.163 362.972 126.723 363.588 127.544C364.223 128.365 364.54 129.392 364.54 130.624C364.54 132.36 363.971 133.695 362.832 134.628C361.694 135.543 360.079 136 357.988 136H350.932C350.578 136 350.288 135.897 350.064 135.692C349.859 135.487 349.756 135.216 349.756 134.88V117.38C349.756 117.044 349.859 116.773 350.064 116.568C350.288 116.363 350.578 116.26 350.932 116.26H357.68C359.715 116.26 361.292 116.708 362.412 117.604C363.532 118.5 364.092 119.769 364.092 121.412C364.092 122.476 363.812 123.391 363.252 124.156C362.711 124.921 361.946 125.491 360.956 125.864ZM352.024 125.024H357.344C358.819 125.024 359.93 124.725 360.676 124.128C361.442 123.531 361.824 122.663 361.824 121.524C361.824 119.284 360.331 118.164 357.344 118.164H352.024V125.024ZM357.764 134.096C359.314 134.096 360.452 133.816 361.18 133.256C361.927 132.677 362.3 131.781 362.3 130.568C362.3 128.141 360.788 126.928 357.764 126.928H352.024V134.096H357.764ZM369.408 125.22C368.96 125.22 368.586 125.08 368.288 124.8C367.989 124.501 367.84 124.119 367.84 123.652C367.84 123.185 367.989 122.812 368.288 122.532C368.586 122.233 368.96 122.084 369.408 122.084C369.837 122.084 370.192 122.233 370.472 122.532C370.77 122.812 370.92 123.185 370.92 123.652C370.92 124.119 370.77 124.501 370.472 124.8C370.192 125.08 369.837 125.22 369.408 125.22ZM369.408 136.14C368.96 136.14 368.586 136 368.288 135.72C367.989 135.421 367.84 135.039 367.84 134.572C367.84 134.105 367.989 133.723 368.288 133.424C368.586 133.125 368.96 132.976 369.408 132.976C369.837 132.976 370.192 133.125 370.472 133.424C370.77 133.723 370.92 134.105 370.92 134.572C370.92 135.039 370.77 135.421 370.472 135.72C370.192 136 369.837 136.14 369.408 136.14ZM313.852 178.592C311.873 174.803 310.884 170.817 310.884 166.636C310.884 162.455 311.873 158.469 313.852 154.68C314.095 154.251 314.421 154.036 314.832 154.036C315.056 154.036 315.243 154.111 315.392 154.26C315.56 154.409 315.644 154.596 315.644 154.82C315.644 154.951 315.616 155.091 315.56 155.24C313.992 158.936 313.208 162.735 313.208 166.636C313.208 170.537 313.992 174.336 315.56 178.032C315.616 178.2 315.644 178.34 315.644 178.452C315.644 178.695 315.56 178.881 315.392 179.012C315.243 179.161 315.056 179.236 314.832 179.236C314.421 179.236 314.095 179.021 313.852 178.592ZM331.729 167.812C332.065 167.812 332.326 167.905 332.513 168.092C332.699 168.26 332.793 168.484 332.793 168.764C332.793 169.399 332.438 169.716 331.729 169.716H329.629V172.964C329.629 173.337 329.517 173.627 329.293 173.832C329.087 174.037 328.817 174.14 328.481 174.14C328.145 174.14 327.874 174.037 327.669 173.832C327.463 173.627 327.361 173.337 327.361 172.964V169.716H319.073C318.737 169.716 318.475 169.623 318.289 169.436C318.102 169.249 318.009 169.016 318.009 168.736C318.009 168.475 318.111 168.185 318.317 167.868L327.473 154.624C327.734 154.288 328.07 154.12 328.481 154.12C328.798 154.12 329.069 154.223 329.293 154.428C329.517 154.633 329.629 154.923 329.629 155.296V167.812H331.729ZM320.613 167.812H327.361V158.096L320.613 167.812ZM341.378 154.036C343.767 154.036 345.606 154.867 346.894 156.528C348.2 158.189 348.854 160.56 348.854 163.64C348.854 165.843 348.555 167.737 347.958 169.324C347.36 170.911 346.492 172.124 345.354 172.964C344.215 173.804 342.862 174.224 341.294 174.224C340.23 174.224 339.166 174.019 338.102 173.608C337.056 173.197 336.16 172.637 335.414 171.928C335.096 171.629 334.938 171.312 334.938 170.976C334.938 170.696 335.012 170.463 335.162 170.276C335.311 170.089 335.488 169.996 335.694 169.996C335.955 169.996 336.226 170.099 336.506 170.304C338.13 171.629 339.707 172.292 341.238 172.292C342.899 172.292 344.196 171.536 345.13 170.024C346.063 168.512 346.53 166.393 346.53 163.668V163.304C346.1 164.349 345.4 165.171 344.43 165.768C343.478 166.365 342.395 166.664 341.182 166.664C339.987 166.664 338.923 166.403 337.99 165.88C337.056 165.357 336.328 164.62 335.806 163.668C335.283 162.716 335.022 161.624 335.022 160.392C335.022 159.179 335.292 158.087 335.834 157.116C336.375 156.145 337.131 155.389 338.102 154.848C339.072 154.307 340.164 154.036 341.378 154.036ZM341.518 164.732C342.806 164.732 343.851 164.331 344.654 163.528C345.475 162.707 345.886 161.652 345.886 160.364C345.886 159.057 345.475 158.003 344.654 157.2C343.851 156.379 342.796 155.968 341.49 155.968C340.22 155.968 339.203 156.369 338.438 157.172C337.672 157.975 337.29 159.039 337.29 160.364C337.29 161.689 337.672 162.753 338.438 163.556C339.222 164.34 340.248 164.732 341.518 164.732ZM353.547 170.976C354.013 170.976 354.387 171.163 354.667 171.536C354.965 171.891 355.115 172.432 355.115 173.16C355.115 174.635 354.639 175.876 353.687 176.884C353.5 177.089 353.285 177.192 353.043 177.192C352.856 177.192 352.688 177.117 352.539 176.968C352.389 176.837 352.315 176.679 352.315 176.492C352.315 176.287 352.389 176.109 352.539 175.96C353.024 175.456 353.332 174.831 353.463 174.084C353.052 174.047 352.707 173.897 352.427 173.636C352.165 173.356 352.035 173.001 352.035 172.572C352.035 172.105 352.175 171.723 352.455 171.424C352.753 171.125 353.117 170.976 353.547 170.976ZM378.924 167.812C379.26 167.812 379.521 167.905 379.708 168.092C379.895 168.26 379.988 168.484 379.988 168.764C379.988 169.399 379.633 169.716 378.924 169.716H376.824V172.964C376.824 173.337 376.712 173.627 376.488 173.832C376.283 174.037 376.012 174.14 375.676 174.14C375.34 174.14 375.069 174.037 374.864 173.832C374.659 173.627 374.556 173.337 374.556 172.964V169.716H366.268C365.932 169.716 365.671 169.623 365.484 169.436C365.297 169.249 365.204 169.016 365.204 168.736C365.204 168.475 365.307 168.185 365.512 167.868L374.668 154.624C374.929 154.288 375.265 154.12 375.676 154.12C375.993 154.12 376.264 154.223 376.488 154.428C376.712 154.633 376.824 154.923 376.824 155.296V167.812H378.924ZM367.808 167.812H374.556V158.096L367.808 167.812ZM388.573 154.036C390.962 154.036 392.801 154.867 394.089 156.528C395.396 158.189 396.049 160.56 396.049 163.64C396.049 165.843 395.75 167.737 395.153 169.324C394.556 170.911 393.688 172.124 392.549 172.964C391.41 173.804 390.057 174.224 388.489 174.224C387.425 174.224 386.361 174.019 385.297 173.608C384.252 173.197 383.356 172.637 382.609 171.928C382.292 171.629 382.133 171.312 382.133 170.976C382.133 170.696 382.208 170.463 382.357 170.276C382.506 170.089 382.684 169.996 382.889 169.996C383.15 169.996 383.421 170.099 383.701 170.304C385.325 171.629 386.902 172.292 388.433 172.292C390.094 172.292 391.392 171.536 392.325 170.024C393.258 168.512 393.725 166.393 393.725 163.668V163.304C393.296 164.349 392.596 165.171 391.625 165.768C390.673 166.365 389.59 166.664 388.377 166.664C387.182 166.664 386.118 166.403 385.185 165.88C384.252 165.357 383.524 164.62 383.001 163.668C382.478 162.716 382.217 161.624 382.217 160.392C382.217 159.179 382.488 158.087 383.029 157.116C383.57 156.145 384.326 155.389 385.297 154.848C386.268 154.307 387.36 154.036 388.573 154.036ZM388.713 164.732C390.001 164.732 391.046 164.331 391.849 163.528C392.67 162.707 393.081 161.652 393.081 160.364C393.081 159.057 392.67 158.003 391.849 157.2C391.046 156.379 389.992 155.968 388.685 155.968C387.416 155.968 386.398 156.369 385.633 157.172C384.868 157.975 384.485 159.039 384.485 160.364C384.485 161.689 384.868 162.753 385.633 163.556C386.417 164.34 387.444 164.732 388.713 164.732ZM400.742 170.976C401.209 170.976 401.582 171.163 401.862 171.536C402.161 171.891 402.31 172.432 402.31 173.16C402.31 174.635 401.834 175.876 400.882 176.884C400.695 177.089 400.481 177.192 400.238 177.192C400.051 177.192 399.883 177.117 399.734 176.968C399.585 176.837 399.51 176.679 399.51 176.492C399.51 176.287 399.585 176.109 399.734 175.96C400.219 175.456 400.527 174.831 400.658 174.084C400.247 174.047 399.902 173.897 399.622 173.636C399.361 173.356 399.23 173.001 399.23 172.572C399.23 172.105 399.37 171.723 399.65 171.424C399.949 171.125 400.313 170.976 400.742 170.976ZM426.119 167.812C426.455 167.812 426.717 167.905 426.903 168.092C427.09 168.26 427.183 168.484 427.183 168.764C427.183 169.399 426.829 169.716 426.119 169.716H424.019V172.964C424.019 173.337 423.907 173.627 423.683 173.832C423.478 174.037 423.207 174.14 422.871 174.14C422.535 174.14 422.265 174.037 422.059 173.832C421.854 173.627 421.751 173.337 421.751 172.964V169.716H413.463C413.127 169.716 412.866 169.623 412.679 169.436C412.493 169.249 412.399 169.016 412.399 168.736C412.399 168.475 412.502 168.185 412.707 167.868L421.863 154.624C422.125 154.288 422.461 154.12 422.871 154.12C423.189 154.12 423.459 154.223 423.683 154.428C423.907 154.633 424.019 154.923 424.019 155.296V167.812H426.119ZM415.003 167.812H421.751V158.096L415.003 167.812ZM435.768 154.036C438.158 154.036 439.996 154.867 441.284 156.528C442.591 158.189 443.244 160.56 443.244 163.64C443.244 165.843 442.946 167.737 442.348 169.324C441.751 170.911 440.883 172.124 439.744 172.964C438.606 173.804 437.252 174.224 435.684 174.224C434.62 174.224 433.556 174.019 432.492 173.608C431.447 173.197 430.551 172.637 429.804 171.928C429.487 171.629 429.328 171.312 429.328 170.976C429.328 170.696 429.403 170.463 429.552 170.276C429.702 170.089 429.879 169.996 430.084 169.996C430.346 169.996 430.616 170.099 430.896 170.304C432.52 171.629 434.098 172.292 435.628 172.292C437.29 172.292 438.587 171.536 439.52 170.024C440.454 168.512 440.92 166.393 440.92 163.668V163.304C440.491 164.349 439.791 165.171 438.82 165.768C437.868 166.365 436.786 166.664 435.572 166.664C434.378 166.664 433.314 166.403 432.38 165.88C431.447 165.357 430.719 164.62 430.196 163.668C429.674 162.716 429.412 161.624 429.412 160.392C429.412 159.179 429.683 158.087 430.224 157.116C430.766 156.145 431.522 155.389 432.492 154.848C433.463 154.307 434.555 154.036 435.768 154.036ZM435.908 164.732C437.196 164.732 438.242 164.331 439.044 163.528C439.866 162.707 440.276 161.652 440.276 160.364C440.276 159.057 439.866 158.003 439.044 157.2C438.242 156.379 437.187 155.968 435.88 155.968C434.611 155.968 433.594 156.369 432.828 157.172C432.063 157.975 431.68 159.039 431.68 160.364C431.68 161.689 432.063 162.753 432.828 163.556C433.612 164.34 434.639 164.732 435.908 164.732ZM447.741 178.592C447.499 179.021 447.163 179.236 446.733 179.236C446.509 179.236 446.313 179.161 446.145 179.012C445.996 178.881 445.921 178.704 445.921 178.48C445.921 178.405 445.959 178.256 446.033 178.032C447.583 174.317 448.357 170.519 448.357 166.636C448.357 162.753 447.583 158.955 446.033 155.24C445.959 155.016 445.921 154.867 445.921 154.792C445.921 154.568 445.996 154.391 446.145 154.26C446.313 154.111 446.509 154.036 446.733 154.036C447.163 154.036 447.499 154.251 447.741 154.68C449.701 158.488 450.681 162.473 450.681 166.636C450.681 170.799 449.701 174.784 447.741 178.592Z" fill="black"/>
<path d="M325.668 74.12C326.023 74.12 326.293 74.232 326.48 74.456C326.685 74.6613 326.788 74.9413 326.788 75.296V92.964C326.788 93.3187 326.685 93.608 326.48 93.832C326.293 94.0373 326.023 94.14 325.668 94.14C325.313 94.14 325.033 94.0373 324.828 93.832C324.623 93.608 324.52 93.3187 324.52 92.964V84.956H312.704V92.964C312.704 93.3187 312.601 93.608 312.396 93.832C312.191 94.0373 311.911 94.14 311.556 94.14C311.201 94.14 310.921 94.0373 310.716 93.832C310.529 93.608 310.436 93.3187 310.436 92.964V75.296C310.436 74.9413 310.529 74.6613 310.716 74.456C310.921 74.232 311.201 74.12 311.556 74.12C311.911 74.12 312.191 74.232 312.396 74.456C312.601 74.6613 312.704 74.9413 312.704 75.296V82.996H324.52V75.296C324.52 74.9413 324.623 74.6613 324.828 74.456C325.033 74.232 325.313 74.12 325.668 74.12ZM341.875 90.836C342.08 90.836 342.257 90.92 342.407 91.088C342.556 91.256 342.631 91.4707 342.631 91.732C342.631 92.1987 342.304 92.628 341.651 93.02C340.979 93.412 340.269 93.7107 339.523 93.916C338.776 94.1027 338.048 94.196 337.339 94.196C335.229 94.196 333.559 93.5707 332.327 92.32C331.113 91.0693 330.507 89.3427 330.507 87.14C330.507 85.74 330.777 84.508 331.319 83.444C331.86 82.3613 332.616 81.5213 333.587 80.924C334.576 80.3267 335.696 80.028 336.947 80.028C338.72 80.028 340.129 80.6067 341.175 81.764C342.22 82.9213 342.743 84.4893 342.743 86.468C342.743 86.8413 342.668 87.112 342.519 87.28C342.369 87.448 342.127 87.532 341.791 87.532H332.775C332.943 90.7427 334.464 92.348 337.339 92.348C338.067 92.348 338.692 92.2547 339.215 92.068C339.737 91.8627 340.297 91.592 340.895 91.256C341.38 90.976 341.707 90.836 341.875 90.836ZM336.975 81.792C335.78 81.792 334.819 82.1653 334.091 82.912C333.381 83.6587 332.961 84.7133 332.831 86.076H340.755C340.717 84.6947 340.372 83.64 339.719 82.912C339.065 82.1653 338.151 81.792 336.975 81.792ZM357.093 92.264C357.317 92.488 357.429 92.7587 357.429 93.076C357.429 93.356 357.326 93.5987 357.121 93.804C356.916 94.0093 356.673 94.112 356.393 94.112C356.094 94.112 355.824 93.9813 355.581 93.72L351.045 88.54L346.537 93.72C346.294 93.9813 346.024 94.112 345.725 94.112C345.445 94.112 345.193 94.0093 344.969 93.804C344.764 93.5987 344.661 93.3467 344.661 93.048C344.661 92.768 344.773 92.5067 344.997 92.264L349.645 87.028L345.193 81.96C344.969 81.6987 344.857 81.4373 344.857 81.176C344.857 80.8773 344.96 80.6253 345.165 80.42C345.389 80.2147 345.632 80.112 345.893 80.112C346.192 80.112 346.462 80.2427 346.705 80.504L351.045 85.488L355.385 80.504C355.628 80.2427 355.898 80.112 356.197 80.112C356.477 80.112 356.72 80.2147 356.925 80.42C357.13 80.6253 357.233 80.868 357.233 81.148C357.233 81.4653 357.121 81.736 356.897 81.96L352.445 87.028L357.093 92.264ZM361.505 83.22C361.057 83.22 360.684 83.08 360.385 82.8C360.086 82.5013 359.937 82.1187 359.937 81.652C359.937 81.1853 360.086 80.812 360.385 80.532C360.684 80.2333 361.057 80.084 361.505 80.084C361.934 80.084 362.289 80.2333 362.569 80.532C362.868 80.812 363.017 81.1853 363.017 81.652C363.017 82.1187 362.868 82.5013 362.569 82.8C362.289 83.08 361.934 83.22 361.505 83.22ZM361.505 94.14C361.057 94.14 360.684 94 360.385 93.72C360.086 93.4213 359.937 93.0387 359.937 92.572C359.937 92.1053 360.086 91.7227 360.385 91.424C360.684 91.1253 361.057 90.976 361.505 90.976C361.934 90.976 362.289 91.1253 362.569 91.424C362.868 91.7227 363.017 92.1053 363.017 92.572C363.017 93.0387 362.868 93.4213 362.569 93.72C362.289 94 361.934 94.14 361.505 94.14ZM385.006 80.784L383.746 87.252H386.49C386.733 87.252 386.938 87.336 387.106 87.504C387.293 87.672 387.386 87.8773 387.386 88.12C387.386 88.344 387.302 88.5307 387.134 88.68C386.966 88.8293 386.752 88.904 386.49 88.904H383.438L382.542 93.468C382.505 93.6733 382.402 93.8413 382.234 93.972C382.085 94.084 381.908 94.14 381.702 94.14C381.441 94.14 381.226 94.056 381.058 93.888C380.89 93.72 380.806 93.5147 380.806 93.272C380.806 93.16 380.816 93.076 380.834 93.02L381.646 88.904H377.166L376.27 93.468C376.252 93.6547 376.158 93.8133 375.99 93.944C375.841 94.0747 375.664 94.14 375.458 94.14C375.216 94.14 375.01 94.056 374.842 93.888C374.674 93.72 374.59 93.5147 374.59 93.272C374.59 93.16 374.6 93.076 374.618 93.02L375.43 88.904H373.554C373.293 88.904 373.078 88.82 372.91 88.652C372.742 88.484 372.658 88.2787 372.658 88.036C372.658 87.812 372.742 87.6253 372.91 87.476C373.078 87.3267 373.293 87.252 373.554 87.252H375.738L376.998 80.784H374.114C373.872 80.784 373.657 80.7 373.47 80.532C373.302 80.364 373.218 80.1587 373.218 79.916C373.218 79.692 373.302 79.5053 373.47 79.356C373.638 79.2067 373.853 79.132 374.114 79.132H377.306L378.174 74.708C378.212 74.5027 378.305 74.344 378.454 74.232C378.622 74.1013 378.809 74.036 379.014 74.036C379.276 74.036 379.481 74.12 379.63 74.288C379.798 74.4373 379.882 74.6427 379.882 74.904C379.882 75.016 379.873 75.1 379.854 75.156L379.07 79.132H383.55L384.418 74.708C384.437 74.5213 384.53 74.3627 384.698 74.232C384.866 74.1013 385.053 74.036 385.258 74.036C385.52 74.036 385.725 74.12 385.874 74.288C386.042 74.4373 386.126 74.6427 386.126 74.904C386.126 75.016 386.117 75.1 386.098 75.156L385.314 79.132H387.05C387.312 79.132 387.526 79.216 387.694 79.384C387.862 79.552 387.946 79.7573 387.946 80C387.946 80.224 387.862 80.4107 387.694 80.56C387.526 80.7093 387.312 80.784 387.05 80.784H385.006ZM381.954 87.252L383.242 80.784H378.762L377.474 87.252H381.954ZM399.723 83.864C400.918 84.2 401.823 84.7787 402.439 85.6C403.074 86.4213 403.391 87.4387 403.391 88.652C403.391 90.3693 402.813 91.7227 401.655 92.712C400.498 93.7013 398.921 94.196 396.923 94.196C395.71 94.196 394.543 93.9907 393.423 93.58C392.322 93.1693 391.389 92.6093 390.623 91.9C390.325 91.62 390.175 91.3027 390.175 90.948C390.175 90.668 390.25 90.4347 390.399 90.248C390.549 90.0613 390.726 89.968 390.931 89.968C391.193 89.968 391.454 90.0707 391.715 90.276C392.574 90.9667 393.414 91.4707 394.235 91.788C395.057 92.1053 395.943 92.264 396.895 92.264C398.277 92.264 399.322 91.9467 400.031 91.312C400.759 90.6773 401.123 89.7627 401.123 88.568C401.123 86.16 399.611 84.956 396.587 84.956H395.103C394.805 84.956 394.562 84.8627 394.375 84.676C394.207 84.4707 394.123 84.2373 394.123 83.976C394.123 83.7147 394.207 83.4907 394.375 83.304C394.562 83.1173 394.805 83.024 395.103 83.024H396.139C397.595 83.024 398.715 82.7067 399.499 82.072C400.283 81.4187 400.675 80.4853 400.675 79.272C400.675 78.208 400.358 77.396 399.723 76.836C399.089 76.2573 398.193 75.968 397.035 75.968C396.158 75.968 395.309 76.136 394.487 76.472C393.666 76.7893 392.845 77.284 392.023 77.956C391.762 78.1613 391.501 78.264 391.239 78.264C391.034 78.264 390.857 78.1707 390.707 77.984C390.558 77.7973 390.483 77.564 390.483 77.284C390.483 76.9293 390.633 76.612 390.931 76.332C391.697 75.6227 392.621 75.0627 393.703 74.652C394.805 74.2413 395.934 74.036 397.091 74.036C398.883 74.036 400.302 74.4933 401.347 75.408C402.411 76.304 402.943 77.5173 402.943 79.048C402.943 80.1867 402.654 81.1853 402.075 82.044C401.515 82.884 400.731 83.4907 399.723 83.864ZM419.256 92.068C419.592 92.068 419.854 92.152 420.04 92.32C420.227 92.488 420.32 92.7213 420.32 93.02C420.32 93.3373 420.227 93.58 420.04 93.748C419.872 93.916 419.611 94 419.256 94H409.988C409.634 94 409.363 93.916 409.176 93.748C409.008 93.58 408.924 93.3373 408.924 93.02C408.924 92.7213 409.018 92.488 409.204 92.32C409.391 92.152 409.652 92.068 409.988 92.068H413.46V77.06L410.408 79.048C410.259 79.1413 410.11 79.188 409.96 79.188C409.699 79.188 409.466 79.0667 409.26 78.824C409.074 78.5813 408.98 78.32 408.98 78.04C408.98 77.648 409.13 77.368 409.428 77.2L413.684 74.428C414.002 74.2227 414.328 74.12 414.664 74.12C414.982 74.12 415.243 74.2227 415.448 74.428C415.654 74.6333 415.756 74.9227 415.756 75.296V92.068H419.256ZM433.302 83.864C434.496 84.2 435.402 84.7787 436.018 85.6C436.652 86.4213 436.97 87.4387 436.97 88.652C436.97 90.3693 436.391 91.7227 435.234 92.712C434.076 93.7013 432.499 94.196 430.502 94.196C429.288 94.196 428.122 93.9907 427.002 93.58C425.9 93.1693 424.967 92.6093 424.202 91.9C423.903 91.62 423.754 91.3027 423.754 90.948C423.754 90.668 423.828 90.4347 423.978 90.248C424.127 90.0613 424.304 89.968 424.51 89.968C424.771 89.968 425.032 90.0707 425.294 90.276C426.152 90.9667 426.992 91.4707 427.814 91.788C428.635 92.1053 429.522 92.264 430.474 92.264C431.855 92.264 432.9 91.9467 433.61 91.312C434.338 90.6773 434.702 89.7627 434.702 88.568C434.702 86.16 433.19 84.956 430.166 84.956H428.682C428.383 84.956 428.14 84.8627 427.954 84.676C427.786 84.4707 427.702 84.2373 427.702 83.976C427.702 83.7147 427.786 83.4907 427.954 83.304C428.14 83.1173 428.383 83.024 428.682 83.024H429.718C431.174 83.024 432.294 82.7067 433.078 82.072C433.862 81.4187 434.254 80.4853 434.254 79.272C434.254 78.208 433.936 77.396 433.302 76.836C432.667 76.2573 431.771 75.968 430.614 75.968C429.736 75.968 428.887 76.136 428.066 76.472C427.244 76.7893 426.423 77.284 425.602 77.956C425.34 78.1613 425.079 78.264 424.818 78.264C424.612 78.264 424.435 78.1707 424.286 77.984C424.136 77.7973 424.062 77.564 424.062 77.284C424.062 76.9293 424.211 76.612 424.51 76.332C425.275 75.6227 426.199 75.0627 427.282 74.652C428.383 74.2413 429.512 74.036 430.67 74.036C432.462 74.036 433.88 74.4933 434.926 75.408C435.99 76.304 436.522 77.5173 436.522 79.048C436.522 80.1867 436.232 81.1853 435.654 82.044C435.094 82.884 434.31 83.4907 433.302 83.864ZM452.835 92.068C453.171 92.068 453.432 92.152 453.619 92.32C453.805 92.488 453.899 92.7213 453.899 93.02C453.899 93.3373 453.805 93.58 453.619 93.748C453.451 93.916 453.189 94 452.835 94H443.567C443.212 94 442.941 93.916 442.755 93.748C442.587 93.58 442.503 93.3373 442.503 93.02C442.503 92.7213 442.596 92.488 442.783 92.32C442.969 92.152 443.231 92.068 443.567 92.068H447.039V77.06L443.987 79.048C443.837 79.1413 443.688 79.188 443.539 79.188C443.277 79.188 443.044 79.0667 442.839 78.824C442.652 78.5813 442.559 78.32 442.559 78.04C442.559 77.648 442.708 77.368 443.007 77.2L447.263 74.428C447.58 74.2227 447.907 74.12 448.243 74.12C448.56 74.12 448.821 74.2227 449.027 74.428C449.232 74.6333 449.335 74.9227 449.335 75.296V92.068H452.835ZM466.88 83.864C468.074 84.2 468.98 84.7787 469.596 85.6C470.23 86.4213 470.548 87.4387 470.548 88.652C470.548 90.3693 469.969 91.7227 468.812 92.712C467.654 93.7013 466.077 94.196 464.08 94.196C462.866 94.196 461.7 93.9907 460.58 93.58C459.478 93.1693 458.545 92.6093 457.78 91.9C457.481 91.62 457.332 91.3027 457.332 90.948C457.332 90.668 457.406 90.4347 457.556 90.248C457.705 90.0613 457.882 89.968 458.088 89.968C458.349 89.968 458.61 90.0707 458.872 90.276C459.73 90.9667 460.57 91.4707 461.392 91.788C462.213 92.1053 463.1 92.264 464.052 92.264C465.433 92.264 466.478 91.9467 467.188 91.312C467.916 90.6773 468.28 89.7627 468.28 88.568C468.28 86.16 466.768 84.956 463.744 84.956H462.26C461.961 84.956 461.718 84.8627 461.532 84.676C461.364 84.4707 461.28 84.2373 461.28 83.976C461.28 83.7147 461.364 83.4907 461.532 83.304C461.718 83.1173 461.961 83.024 462.26 83.024H463.296C464.752 83.024 465.872 82.7067 466.656 82.072C467.44 81.4187 467.832 80.4853 467.832 79.272C467.832 78.208 467.514 77.396 466.88 76.836C466.245 76.2573 465.349 75.968 464.192 75.968C463.314 75.968 462.465 76.136 461.644 76.472C460.822 76.7893 460.001 77.284 459.18 77.956C458.918 78.1613 458.657 78.264 458.396 78.264C458.19 78.264 458.013 78.1707 457.864 77.984C457.714 77.7973 457.64 77.564 457.64 77.284C457.64 76.9293 457.789 76.612 458.088 76.332C458.853 75.6227 459.777 75.0627 460.86 74.652C461.961 74.2413 463.09 74.036 464.248 74.036C466.04 74.036 467.458 74.4933 468.504 75.408C469.568 76.304 470.1 77.5173 470.1 79.048C470.1 80.1867 469.81 81.1853 469.232 82.044C468.672 82.884 467.888 83.4907 466.88 83.864ZM486.413 92.068C486.749 92.068 487.01 92.152 487.197 92.32C487.383 92.488 487.477 92.7213 487.477 93.02C487.477 93.3373 487.383 93.58 487.197 93.748C487.029 93.916 486.767 94 486.413 94H477.145C476.79 94 476.519 93.916 476.333 93.748C476.165 93.58 476.081 93.3373 476.081 93.02C476.081 92.7213 476.174 92.488 476.361 92.32C476.547 92.152 476.809 92.068 477.145 92.068H480.617V77.06L477.565 79.048C477.415 79.1413 477.266 79.188 477.117 79.188C476.855 79.188 476.622 79.0667 476.417 78.824C476.23 78.5813 476.137 78.32 476.137 78.04C476.137 77.648 476.286 77.368 476.585 77.2L480.841 74.428C481.158 74.2227 481.485 74.12 481.821 74.12C482.138 74.12 482.399 74.2227 482.605 74.428C482.81 74.6333 482.913 74.9227 482.913 75.296V92.068H486.413Z" fill="black"/>
<path d="M318.948 52.252C317.044 52.252 315.373 51.8413 313.936 51.02C312.517 50.1987 311.425 49.0227 310.66 47.492C309.895 45.9613 309.512 44.1693 309.512 42.116C309.512 40.0627 309.895 38.28 310.66 36.768C311.425 35.2373 312.517 34.0613 313.936 33.24C315.373 32.4187 317.044 32.008 318.948 32.008C320.18 32.008 321.337 32.1947 322.42 32.568C323.503 32.9227 324.464 33.4453 325.304 34.136C325.547 34.3227 325.715 34.5187 325.808 34.724C325.901 34.9293 325.948 35.1813 325.948 35.48C325.948 35.8907 325.836 36.236 325.612 36.516C325.388 36.796 325.117 36.936 324.8 36.936C324.427 36.936 324.044 36.8053 323.652 36.544C322.849 35.9467 322.103 35.536 321.412 35.312C320.721 35.0693 319.956 34.948 319.116 34.948C317.175 34.948 315.7 35.5547 314.692 36.768C313.703 37.9813 313.208 39.764 313.208 42.116C313.208 44.4867 313.703 46.2787 314.692 47.492C315.7 48.7053 317.175 49.312 319.116 49.312C319.919 49.312 320.656 49.1907 321.328 48.948C322.019 48.7053 322.793 48.2947 323.652 47.716C323.839 47.604 324.025 47.5107 324.212 47.436C324.399 47.3613 324.595 47.324 324.8 47.324C325.117 47.324 325.388 47.464 325.612 47.744C325.836 48.024 325.948 48.3693 325.948 48.78C325.948 49.06 325.901 49.312 325.808 49.536C325.715 49.7413 325.547 49.9373 325.304 50.124C324.464 50.8147 323.503 51.3467 322.42 51.72C321.337 52.0747 320.18 52.252 318.948 52.252ZM336.805 37.972C340.015 37.972 341.621 39.848 341.621 43.6V50.488C341.621 51.0107 341.462 51.4213 341.145 51.72C340.846 52.0187 340.426 52.168 339.885 52.168C339.343 52.168 338.914 52.0187 338.597 51.72C338.279 51.4213 338.121 51.0107 338.121 50.488V43.6C338.121 42.6107 337.915 41.892 337.505 41.444C337.113 40.9773 336.487 40.744 335.629 40.744C334.621 40.744 333.809 41.0613 333.193 41.696C332.595 42.3307 332.297 43.18 332.297 44.244V50.488C332.297 51.0107 332.138 51.4213 331.821 51.72C331.503 52.0187 331.074 52.168 330.533 52.168C329.991 52.168 329.562 52.0187 329.245 51.72C328.946 51.4213 328.797 51.0107 328.797 50.488V33.744C328.797 33.2587 328.955 32.8667 329.273 32.568C329.609 32.2693 330.038 32.12 330.561 32.12C331.083 32.12 331.503 32.26 331.821 32.54C332.138 32.82 332.297 33.2027 332.297 33.688V40.212C332.763 39.484 333.379 38.9333 334.145 38.56C334.929 38.168 335.815 37.972 336.805 37.972ZM346.911 52.168C346.407 52.168 345.987 52.028 345.651 51.748C345.334 51.4493 345.175 51.0293 345.175 50.488V39.68C345.175 39.1387 345.334 38.728 345.651 38.448C345.987 38.168 346.407 38.028 346.911 38.028C347.415 38.028 347.835 38.168 348.171 38.448C348.507 38.728 348.675 39.1387 348.675 39.68V50.488C348.675 51.0293 348.507 51.4493 348.171 51.748C347.835 52.028 347.415 52.168 346.911 52.168ZM346.911 35.536C346.277 35.536 345.773 35.368 345.399 35.032C345.026 34.6773 344.839 34.22 344.839 33.66C344.839 33.1 345.026 32.652 345.399 32.316C345.773 31.98 346.277 31.812 346.911 31.812C347.527 31.812 348.022 31.98 348.395 32.316C348.787 32.652 348.983 33.1 348.983 33.66C348.983 34.22 348.797 34.6773 348.423 35.032C348.05 35.368 347.546 35.536 346.911 35.536ZM358.221 37.972C360.125 37.972 361.534 38.448 362.449 39.4C363.382 40.3333 363.849 41.7613 363.849 43.684V50.516C363.849 51.02 363.7 51.4213 363.401 51.72C363.102 52 362.692 52.14 362.169 52.14C361.684 52.14 361.282 51.9907 360.965 51.692C360.666 51.3933 360.517 51.0013 360.517 50.516V49.9C360.2 50.628 359.696 51.1973 359.005 51.608C358.333 52.0187 357.549 52.224 356.653 52.224C355.738 52.224 354.908 52.0373 354.161 51.664C353.414 51.2907 352.826 50.7773 352.397 50.124C351.968 49.4707 351.753 48.7427 351.753 47.94C351.753 46.932 352.005 46.1387 352.509 45.56C353.032 44.9813 353.872 44.5613 355.029 44.3C356.186 44.0387 357.782 43.908 359.817 43.908H360.517V43.264C360.517 42.3493 360.321 41.6867 359.929 41.276C359.537 40.8467 358.902 40.632 358.025 40.632C357.484 40.632 356.933 40.716 356.373 40.884C355.813 41.0333 355.15 41.2573 354.385 41.556C353.9 41.7987 353.545 41.92 353.321 41.92C352.985 41.92 352.705 41.7987 352.481 41.556C352.276 41.3133 352.173 40.996 352.173 40.604C352.173 40.2867 352.248 40.016 352.397 39.792C352.565 39.5493 352.836 39.3253 353.209 39.12C353.862 38.7653 354.637 38.4853 355.533 38.28C356.448 38.0747 357.344 37.972 358.221 37.972ZM357.353 49.704C358.286 49.704 359.042 49.396 359.621 48.78C360.218 48.1453 360.517 47.3333 360.517 46.344V45.756H360.013C358.762 45.756 357.792 45.812 357.101 45.924C356.41 46.036 355.916 46.232 355.617 46.512C355.318 46.792 355.169 47.1747 355.169 47.66C355.169 48.2573 355.374 48.752 355.785 49.144C356.214 49.5173 356.737 49.704 357.353 49.704ZM375.05 38.028C375.535 37.9907 375.918 38.0933 376.198 38.336C376.478 38.5787 376.618 38.9427 376.618 39.428C376.618 39.932 376.497 40.3053 376.254 40.548C376.011 40.7907 375.573 40.9493 374.938 41.024L374.098 41.108C372.997 41.22 372.185 41.5933 371.662 42.228C371.158 42.8627 370.906 43.656 370.906 44.608V50.488C370.906 51.0293 370.738 51.4493 370.402 51.748C370.066 52.028 369.646 52.168 369.142 52.168C368.638 52.168 368.218 52.028 367.882 51.748C367.565 51.4493 367.406 51.0293 367.406 50.488V39.652C367.406 39.1293 367.565 38.728 367.882 38.448C368.218 38.168 368.629 38.028 369.114 38.028C369.599 38.028 369.991 38.168 370.29 38.448C370.589 38.7093 370.738 39.092 370.738 39.596V40.716C371.093 39.8947 371.615 39.26 372.306 38.812C373.015 38.364 373.799 38.112 374.658 38.056L375.05 38.028ZM384.095 52.224C382.695 52.224 381.463 51.9347 380.399 51.356C379.354 50.7773 378.542 49.9467 377.963 48.864C377.385 47.7813 377.095 46.5213 377.095 45.084C377.095 43.6467 377.385 42.396 377.963 41.332C378.542 40.2493 379.354 39.4187 380.399 38.84C381.463 38.2613 382.695 37.972 384.095 37.972C385.495 37.972 386.718 38.2613 387.763 38.84C388.827 39.4187 389.639 40.2493 390.199 41.332C390.778 42.396 391.067 43.6467 391.067 45.084C391.067 46.5213 390.778 47.7813 390.199 48.864C389.639 49.9467 388.827 50.7773 387.763 51.356C386.718 51.9347 385.495 52.224 384.095 52.224ZM384.067 49.508C385.206 49.508 386.074 49.1347 386.671 48.388C387.269 47.6413 387.567 46.54 387.567 45.084C387.567 43.6467 387.269 42.5547 386.671 41.808C386.074 41.0427 385.215 40.66 384.095 40.66C382.975 40.66 382.107 41.0427 381.491 41.808C380.894 42.5547 380.595 43.6467 380.595 45.084C380.595 46.54 380.894 47.6413 381.491 48.388C382.089 49.1347 382.947 49.508 384.067 49.508ZM398.913 52.224C396.878 52.224 395.235 51.8227 393.985 51.02C393.387 50.6653 393.089 50.1613 393.089 49.508C393.089 49.1347 393.191 48.836 393.397 48.612C393.602 48.3693 393.854 48.248 394.153 48.248C394.47 48.248 394.909 48.3973 395.469 48.696C396.066 48.976 396.607 49.1907 397.093 49.34C397.597 49.4893 398.231 49.564 398.997 49.564C399.781 49.564 400.387 49.4333 400.817 49.172C401.265 48.9107 401.489 48.5467 401.489 48.08C401.489 47.7627 401.395 47.5107 401.209 47.324C401.041 47.1373 400.723 46.9693 400.257 46.82C399.809 46.652 399.118 46.4653 398.185 46.26C396.523 45.924 395.329 45.448 394.601 44.832C393.891 44.216 393.537 43.3667 393.537 42.284C393.537 41.4627 393.779 40.7253 394.265 40.072C394.75 39.4 395.413 38.8867 396.253 38.532C397.111 38.1587 398.082 37.972 399.165 37.972C399.949 37.972 400.705 38.0747 401.433 38.28C402.161 38.4667 402.814 38.7467 403.393 39.12C403.99 39.4933 404.289 39.988 404.289 40.604C404.289 40.9773 404.186 41.2947 403.981 41.556C403.775 41.7987 403.523 41.92 403.225 41.92C403.019 41.92 402.814 41.8827 402.609 41.808C402.422 41.7147 402.179 41.584 401.881 41.416C401.339 41.136 400.873 40.9307 400.481 40.8C400.089 40.6507 399.603 40.576 399.025 40.576C398.334 40.576 397.783 40.716 397.373 40.996C396.981 41.276 396.785 41.6587 396.785 42.144C396.785 42.6107 396.99 42.9653 397.401 43.208C397.811 43.4507 398.605 43.6933 399.781 43.936C401.031 44.1973 402.011 44.496 402.721 44.832C403.43 45.168 403.934 45.588 404.233 46.092C404.55 46.596 404.709 47.24 404.709 48.024C404.709 49.2933 404.177 50.3107 403.113 51.076C402.067 51.8413 400.667 52.224 398.913 52.224ZM413.623 52.224C412.26 52.224 411.056 51.9347 410.011 51.356C408.984 50.7773 408.191 49.956 407.631 48.892C407.071 47.828 406.791 46.5867 406.791 45.168C406.791 43.7493 407.08 42.4987 407.659 41.416C408.256 40.3147 409.087 39.4653 410.151 38.868C411.215 38.2707 412.437 37.972 413.819 37.972C414.547 37.972 415.275 38.0747 416.003 38.28C416.749 38.4853 417.403 38.7653 417.963 39.12C418.56 39.512 418.859 40.0067 418.859 40.604C418.859 41.0147 418.756 41.3507 418.551 41.612C418.364 41.8547 418.112 41.976 417.795 41.976C417.589 41.976 417.375 41.9293 417.151 41.836C416.927 41.7427 416.703 41.6307 416.479 41.5C416.068 41.2573 415.676 41.0707 415.303 40.94C414.929 40.7907 414.5 40.716 414.015 40.716C412.857 40.716 411.961 41.0987 411.327 41.864C410.711 42.6107 410.403 43.6933 410.403 45.112C410.403 46.512 410.711 47.5947 411.327 48.36C411.961 49.1067 412.857 49.48 414.015 49.48C414.481 49.48 414.892 49.4147 415.247 49.284C415.62 49.1347 416.031 48.9387 416.479 48.696C416.759 48.528 417.001 48.4067 417.207 48.332C417.412 48.2387 417.617 48.192 417.823 48.192C418.121 48.192 418.373 48.3227 418.579 48.584C418.784 48.8453 418.887 49.172 418.887 49.564C418.887 49.8813 418.812 50.1613 418.663 50.404C418.532 50.628 418.308 50.8333 417.991 51.02C417.412 51.3933 416.74 51.692 415.975 51.916C415.209 52.1213 414.425 52.224 413.623 52.224ZM432.026 38.028C432.568 38.028 432.997 38.1773 433.314 38.476C433.632 38.7747 433.79 39.176 433.79 39.68V50.544C433.79 51.0293 433.622 51.4213 433.286 51.72C432.969 52.0187 432.549 52.168 432.026 52.168C431.522 52.168 431.121 52.028 430.822 51.748C430.524 51.468 430.374 51.0853 430.374 50.6V49.9C429.945 50.6467 429.366 51.2253 428.638 51.636C427.91 52.028 427.089 52.224 426.174 52.224C422.814 52.224 421.134 50.3387 421.134 46.568V39.68C421.134 39.176 421.293 38.7747 421.61 38.476C421.928 38.1773 422.348 38.028 422.87 38.028C423.412 38.028 423.841 38.1773 424.158 38.476C424.476 38.7747 424.634 39.176 424.634 39.68V46.596C424.634 47.5667 424.83 48.2853 425.222 48.752C425.614 49.2187 426.23 49.452 427.07 49.452C428.041 49.452 428.816 49.1347 429.394 48.5C429.992 47.8467 430.29 46.988 430.29 45.924V39.68C430.29 39.176 430.449 38.7747 430.766 38.476C431.084 38.1773 431.504 38.028 432.026 38.028ZM445.077 38.028C445.563 37.9907 445.945 38.0933 446.225 38.336C446.505 38.5787 446.645 38.9427 446.645 39.428C446.645 39.932 446.524 40.3053 446.281 40.548C446.039 40.7907 445.6 40.9493 444.965 41.024L444.125 41.108C443.024 41.22 442.212 41.5933 441.689 42.228C441.185 42.8627 440.933 43.656 440.933 44.608V50.488C440.933 51.0293 440.765 51.4493 440.429 51.748C440.093 52.028 439.673 52.168 439.169 52.168C438.665 52.168 438.245 52.028 437.909 51.748C437.592 51.4493 437.433 51.0293 437.433 50.488V39.652C437.433 39.1293 437.592 38.728 437.909 38.448C438.245 38.168 438.656 38.028 439.141 38.028C439.627 38.028 440.019 38.168 440.317 38.448C440.616 38.7093 440.765 39.092 440.765 39.596V40.716C441.12 39.8947 441.643 39.26 442.333 38.812C443.043 38.364 443.827 38.112 444.685 38.056L445.077 38.028ZM454.123 52.224C452.723 52.224 451.491 51.9347 450.427 51.356C449.381 50.7773 448.569 49.9467 447.991 48.864C447.412 47.7813 447.123 46.5213 447.123 45.084C447.123 43.6467 447.412 42.396 447.991 41.332C448.569 40.2493 449.381 39.4187 450.427 38.84C451.491 38.2613 452.723 37.972 454.123 37.972C455.523 37.972 456.745 38.2613 457.791 38.84C458.855 39.4187 459.667 40.2493 460.227 41.332C460.805 42.396 461.095 43.6467 461.095 45.084C461.095 46.5213 460.805 47.7813 460.227 48.864C459.667 49.9467 458.855 50.7773 457.791 51.356C456.745 51.9347 455.523 52.224 454.123 52.224ZM454.095 49.508C455.233 49.508 456.101 49.1347 456.699 48.388C457.296 47.6413 457.595 46.54 457.595 45.084C457.595 43.6467 457.296 42.5547 456.699 41.808C456.101 41.0427 455.243 40.66 454.123 40.66C453.003 40.66 452.135 41.0427 451.519 41.808C450.921 42.5547 450.623 43.6467 450.623 45.084C450.623 46.54 450.921 47.6413 451.519 48.388C452.116 49.1347 452.975 49.508 454.095 49.508Z" fill="black"/>
</svg>
