<svg width="238" height="392" viewBox="0 0 238 392" fill="none" xmlns="http://www.w3.org/2000/svg">
<ellipse cx="32.5" cy="196" rx="31.5" ry="32" fill="#D7AD96"/>
<circle cx="32" cy="32" r="32" fill="#93B0D8"/>
<ellipse cx="32.5" cy="114" rx="32.5" ry="32" fill="#A8B6BF"/>
<circle cx="32" cy="360" r="31.5" fill="#FFFDF9" stroke="black"/>
<ellipse cx="32.5" cy="278" rx="32.5" ry="32" fill="#EDD9C0"/>
<path d="M104.88 22.224C105.616 22.384 106.181 22.704 106.576 23.184C106.981 23.6533 107.184 24.2613 107.184 25.008C107.184 25.968 106.827 26.7093 106.112 27.232C105.408 27.744 104.363 28 102.976 28H97.824V16.8H102.656C103.904 16.8 104.869 17.0507 105.552 17.552C106.245 18.0533 106.592 18.7627 106.592 19.68C106.592 20.2987 106.437 20.8267 106.128 21.264C105.829 21.6907 105.413 22.0107 104.88 22.224ZM99.008 17.776V21.84H102.576C103.483 21.84 104.181 21.6693 104.672 21.328C105.163 20.976 105.408 20.4693 105.408 19.808C105.408 19.1467 105.163 18.6453 104.672 18.304C104.181 17.952 103.483 17.776 102.576 17.776H99.008ZM102.96 27.024C103.963 27.024 104.72 26.8533 105.232 26.512C105.744 26.1707 106 25.6373 106 24.912C106 23.5147 104.987 22.816 102.96 22.816H99.008V27.024H102.96ZM112.591 19.52C113.689 19.52 114.532 19.7973 115.119 20.352C115.705 20.896 115.999 21.7067 115.999 22.784V28H114.911V26.688C114.655 27.1253 114.276 27.4667 113.775 27.712C113.284 27.9573 112.697 28.08 112.015 28.08C111.076 28.08 110.329 27.856 109.775 27.408C109.22 26.96 108.943 26.368 108.943 25.632C108.943 24.9173 109.199 24.3413 109.711 23.904C110.233 23.4667 111.06 23.248 112.191 23.248H114.863V22.736C114.863 22.0107 114.66 21.4613 114.255 21.088C113.849 20.704 113.257 20.512 112.479 20.512C111.945 20.512 111.433 20.6027 110.943 20.784C110.452 20.9547 110.031 21.1947 109.679 21.504L109.167 20.656C109.593 20.2933 110.105 20.016 110.703 19.824C111.3 19.6213 111.929 19.52 112.591 19.52ZM112.191 27.184C112.831 27.184 113.38 27.04 113.839 26.752C114.297 26.4533 114.639 26.0267 114.863 25.472V24.096H112.223C110.783 24.096 110.062 24.5973 110.062 25.6C110.062 26.0907 110.249 26.48 110.623 26.768C110.996 27.0453 111.519 27.184 112.191 27.184ZM123.372 19.52C124.428 19.52 125.265 19.8293 125.884 20.448C126.513 21.056 126.828 21.9467 126.828 23.12V28H125.692V23.232C125.692 22.3573 125.473 21.6907 125.036 21.232C124.599 20.7733 123.975 20.544 123.164 20.544C122.257 20.544 121.537 20.816 121.004 21.36C120.481 21.8933 120.22 22.6347 120.22 23.584V28H119.084V19.584H120.172V21.136C120.481 20.624 120.908 20.2293 121.452 19.952C122.007 19.664 122.647 19.52 123.372 19.52ZM137.623 16.128V28H136.535V26.336C136.194 26.9013 135.741 27.3333 135.175 27.632C134.621 27.9307 133.991 28.08 133.287 28.08C132.498 28.08 131.783 27.8987 131.143 27.536C130.503 27.1733 130.002 26.6667 129.639 26.016C129.277 25.3653 129.095 24.624 129.095 23.792C129.095 22.96 129.277 22.2187 129.639 21.568C130.002 20.9173 130.503 20.416 131.143 20.064C131.783 19.7013 132.498 19.52 133.287 19.52C133.97 19.52 134.583 19.664 135.127 19.952C135.682 20.2293 136.135 20.64 136.487 21.184V16.128H137.623ZM133.383 27.072C133.97 27.072 134.498 26.9387 134.967 26.672C135.447 26.3947 135.821 26.0053 136.087 25.504C136.365 25.0027 136.503 24.432 136.503 23.792C136.503 23.152 136.365 22.5813 136.087 22.08C135.821 21.5787 135.447 21.1947 134.967 20.928C134.498 20.6507 133.97 20.512 133.383 20.512C132.786 20.512 132.247 20.6507 131.767 20.928C131.298 21.1947 130.925 21.5787 130.647 22.08C130.381 22.5813 130.247 23.152 130.247 23.792C130.247 24.432 130.381 25.0027 130.647 25.504C130.925 26.0053 131.298 26.3947 131.767 26.672C132.247 26.9387 132.786 27.072 133.383 27.072ZM143.731 19.52C144.83 19.52 145.672 19.7973 146.259 20.352C146.846 20.896 147.139 21.7067 147.139 22.784V28H146.051V26.688C145.795 27.1253 145.416 27.4667 144.915 27.712C144.424 27.9573 143.838 28.08 143.155 28.08C142.216 28.08 141.47 27.856 140.915 27.408C140.36 26.96 140.083 26.368 140.083 25.632C140.083 24.9173 140.339 24.3413 140.851 23.904C141.374 23.4667 142.2 23.248 143.331 23.248H146.003V22.736C146.003 22.0107 145.8 21.4613 145.395 21.088C144.99 20.704 144.398 20.512 143.619 20.512C143.086 20.512 142.574 20.6027 142.083 20.784C141.592 20.9547 141.171 21.1947 140.819 21.504L140.307 20.656C140.734 20.2933 141.246 20.016 141.843 19.824C142.44 19.6213 143.07 19.52 143.731 19.52ZM143.331 27.184C143.971 27.184 144.52 27.04 144.979 26.752C145.438 26.4533 145.779 26.0267 146.003 25.472V24.096H143.363C141.923 24.096 141.203 24.5973 141.203 25.6C141.203 26.0907 141.39 26.48 141.763 26.768C142.136 27.0453 142.659 27.184 143.331 27.184ZM154.513 19.52C155.569 19.52 156.406 19.8293 157.025 20.448C157.654 21.056 157.969 21.9467 157.969 23.12V28H156.833V23.232C156.833 22.3573 156.614 21.6907 156.177 21.232C155.739 20.7733 155.115 20.544 154.305 20.544C153.398 20.544 152.678 20.816 152.145 21.36C151.622 21.8933 151.361 22.6347 151.361 23.584V28H150.225V19.584H151.313V21.136C151.622 20.624 152.049 20.2293 152.593 19.952C153.147 19.664 153.787 19.52 154.513 19.52ZM163.997 19.52C165.095 19.52 165.938 19.7973 166.525 20.352C167.111 20.896 167.405 21.7067 167.405 22.784V28H166.317V26.688C166.061 27.1253 165.682 27.4667 165.181 27.712C164.69 27.9573 164.103 28.08 163.421 28.08C162.482 28.08 161.735 27.856 161.181 27.408C160.626 26.96 160.349 26.368 160.349 25.632C160.349 24.9173 160.605 24.3413 161.117 23.904C161.639 23.4667 162.466 23.248 163.597 23.248H166.269V22.736C166.269 22.0107 166.066 21.4613 165.661 21.088C165.255 20.704 164.663 20.512 163.885 20.512C163.351 20.512 162.839 20.6027 162.349 20.784C161.858 20.9547 161.437 21.1947 161.085 21.504L160.573 20.656C160.999 20.2933 161.511 20.016 162.109 19.824C162.706 19.6213 163.335 19.52 163.997 19.52ZM163.597 27.184C164.237 27.184 164.786 27.04 165.245 26.752C165.703 26.4533 166.045 26.0267 166.269 25.472V24.096H163.629C162.189 24.096 161.469 24.5973 161.469 25.6C161.469 26.0907 161.655 26.48 162.029 26.768C162.402 27.0453 162.925 27.184 163.597 27.184ZM181.974 22.224C182.71 22.384 183.275 22.704 183.67 23.184C184.075 23.6533 184.278 24.2613 184.278 25.008C184.278 25.968 183.92 26.7093 183.206 27.232C182.502 27.744 181.456 28 180.07 28H174.918V16.8H179.75C180.998 16.8 181.963 17.0507 182.646 17.552C183.339 18.0533 183.686 18.7627 183.686 19.68C183.686 20.2987 183.531 20.8267 183.222 21.264C182.923 21.6907 182.507 22.0107 181.974 22.224ZM176.102 17.776V21.84H179.67C180.576 21.84 181.275 21.6693 181.766 21.328C182.256 20.976 182.502 20.4693 182.502 19.808C182.502 19.1467 182.256 18.6453 181.766 18.304C181.275 17.952 180.576 17.776 179.67 17.776H176.102ZM180.054 27.024C181.056 27.024 181.814 26.8533 182.326 26.512C182.838 26.1707 183.094 25.6373 183.094 24.912C183.094 23.5147 182.08 22.816 180.054 22.816H176.102V27.024H180.054ZM186.74 16.128H187.876V28H186.74V16.128ZM198.621 19.584V28H197.533V26.464C197.234 26.976 196.824 27.376 196.301 27.664C195.778 27.9413 195.181 28.08 194.509 28.08C193.41 28.08 192.541 27.776 191.901 27.168C191.272 26.5493 190.957 25.648 190.957 24.464V19.584H192.093V24.352C192.093 25.2373 192.312 25.9093 192.749 26.368C193.186 26.8267 193.81 27.056 194.621 27.056C195.506 27.056 196.205 26.7893 196.717 26.256C197.229 25.712 197.485 24.96 197.485 24V19.584H198.621ZM209.131 24.144H202.091C202.155 25.0187 202.491 25.728 203.099 26.272C203.707 26.8053 204.475 27.072 205.403 27.072C205.925 27.072 206.405 26.9813 206.843 26.8C207.28 26.608 207.659 26.3307 207.979 25.968L208.619 26.704C208.245 27.152 207.776 27.4933 207.211 27.728C206.656 27.9627 206.043 28.08 205.371 28.08C204.507 28.08 203.739 27.8987 203.067 27.536C202.405 27.1627 201.888 26.6507 201.515 26C201.141 25.3493 200.955 24.6133 200.955 23.792C200.955 22.9707 201.131 22.2347 201.483 21.584C201.845 20.9333 202.336 20.4267 202.955 20.064C203.584 19.7013 204.288 19.52 205.067 19.52C205.845 19.52 206.544 19.7013 207.163 20.064C207.781 20.4267 208.267 20.9333 208.619 21.584C208.971 22.224 209.147 22.96 209.147 23.792L209.131 24.144ZM205.067 20.496C204.256 20.496 203.573 20.7573 203.019 21.28C202.475 21.792 202.165 22.464 202.091 23.296H208.059C207.984 22.464 207.669 21.792 207.115 21.28C206.571 20.7573 205.888 20.496 205.067 20.496ZM107.184 36.8V48H106.016V42.832H99.008V48H97.824V36.8H99.008V41.792H106.016V36.8H107.184ZM117.928 44.144H110.888C110.952 45.0187 111.288 45.728 111.896 46.272C112.504 46.8053 113.272 47.072 114.2 47.072C114.722 47.072 115.202 46.9813 115.64 46.8C116.077 46.608 116.456 46.3307 116.776 45.968L117.416 46.704C117.042 47.152 116.573 47.4933 116.008 47.728C115.453 47.9627 114.84 48.08 114.168 48.08C113.304 48.08 112.536 47.8987 111.864 47.536C111.202 47.1627 110.685 46.6507 110.312 46C109.938 45.3493 109.752 44.6133 109.752 43.792C109.752 42.9707 109.928 42.2347 110.28 41.584C110.642 40.9333 111.133 40.4267 111.752 40.064C112.381 39.7013 113.085 39.52 113.864 39.52C114.642 39.52 115.341 39.7013 115.96 40.064C116.578 40.4267 117.064 40.9333 117.416 41.584C117.768 42.224 117.944 42.96 117.944 43.792L117.928 44.144ZM113.864 40.496C113.053 40.496 112.37 40.7573 111.816 41.28C111.272 41.792 110.962 42.464 110.888 43.296H116.856C116.781 42.464 116.466 41.792 115.912 41.28C115.368 40.7573 114.685 40.496 113.864 40.496ZM125.382 48L122.71 44.48L120.022 48H118.742L122.07 43.68L118.902 39.584H120.182L122.71 42.88L125.238 39.584H126.486L123.318 43.68L126.678 48H125.382ZM139.46 40.72L139.044 44.08H141.316V44.96H138.932L138.564 48H137.7L138.068 44.96H134.788L134.404 48H133.54L133.908 44.96H131.636V44.08H134.02L134.436 40.72H132.148V39.84H134.548L134.916 36.8H135.796L135.412 39.84H138.708L139.076 36.8H139.94L139.572 39.84H141.828V40.72H139.46ZM138.596 40.72H135.316L134.884 44.08H138.18L138.596 40.72ZM146.633 36.704C148.115 36.704 149.251 37.1947 150.041 38.176C150.83 39.1467 151.225 40.5227 151.225 42.304C151.225 43.552 151.011 44.608 150.585 45.472C150.158 46.336 149.561 46.992 148.793 47.44C148.025 47.8773 147.129 48.096 146.105 48.096C144.995 48.096 144.11 47.8933 143.449 47.488L143.913 46.56C144.446 46.912 145.171 47.088 146.089 47.088C147.326 47.088 148.297 46.6987 149.001 45.92C149.705 45.1307 150.057 43.9893 150.057 42.496C150.057 42.2187 150.041 41.9147 150.009 41.584C149.731 42.192 149.289 42.6667 148.681 43.008C148.073 43.3387 147.374 43.504 146.585 43.504C145.849 43.504 145.193 43.3653 144.617 43.088C144.051 42.8107 143.609 42.4213 143.289 41.92C142.969 41.408 142.809 40.816 142.809 40.144C142.809 39.4613 142.974 38.8587 143.305 38.336C143.635 37.8133 144.089 37.4133 144.664 37.136C145.251 36.848 145.907 36.704 146.633 36.704ZM146.761 42.528C147.326 42.528 147.822 42.4213 148.249 42.208C148.686 41.9947 149.027 41.7013 149.273 41.328C149.518 40.9547 149.641 40.5387 149.641 40.08C149.641 39.6533 149.523 39.2587 149.289 38.896C149.065 38.5333 148.729 38.24 148.281 38.016C147.833 37.792 147.299 37.68 146.681 37.68C145.87 37.68 145.209 37.904 144.697 38.352C144.195 38.7893 143.945 39.376 143.945 40.112C143.945 40.848 144.195 41.4347 144.697 41.872C145.209 42.3093 145.897 42.528 146.761 42.528ZM156.546 41.6C157.72 41.664 158.61 41.984 159.218 42.56C159.837 43.1253 160.146 43.8667 160.146 44.784C160.146 45.424 159.992 45.9947 159.682 46.496C159.373 46.9867 158.914 47.376 158.306 47.664C157.698 47.952 156.957 48.096 156.082 48.096C155.272 48.096 154.504 47.968 153.778 47.712C153.064 47.4453 152.488 47.0933 152.05 46.656L152.61 45.744C152.984 46.128 153.48 46.4427 154.098 46.688C154.717 46.9227 155.378 47.04 156.082 47.04C157 47.04 157.709 46.8427 158.21 46.448C158.712 46.0427 158.962 45.488 158.962 44.784C158.962 44.0907 158.712 43.5467 158.21 43.152C157.709 42.7573 156.952 42.56 155.938 42.56H155.138V41.712L158.242 37.824H152.514V36.8H159.714V37.616L156.546 41.6ZM169.818 42.224C170.554 42.384 171.119 42.704 171.514 43.184C171.919 43.6533 172.122 44.2613 172.122 45.008C172.122 45.968 171.764 46.7093 171.05 47.232C170.346 47.744 169.3 48 167.914 48H162.762V36.8H167.594C168.842 36.8 169.807 37.0507 170.49 37.552C171.183 38.0533 171.53 38.7627 171.53 39.68C171.53 40.2987 171.375 40.8267 171.066 41.264C170.767 41.6907 170.351 42.0107 169.818 42.224ZM163.946 37.776V41.84H167.514C168.42 41.84 169.119 41.6693 169.61 41.328C170.1 40.976 170.345 40.4693 170.345 39.808C170.345 39.1467 170.1 38.6453 169.61 38.304C169.119 37.952 168.42 37.776 167.514 37.776H163.946ZM167.898 47.024C168.9 47.024 169.658 46.8533 170.17 46.512C170.682 46.1707 170.938 45.6373 170.938 44.912C170.938 43.5147 169.924 42.816 167.898 42.816H163.946V47.024H167.898ZM178.296 48.096C177.432 48.096 176.659 47.8667 175.976 47.408C175.304 46.9493 174.776 46.2933 174.392 45.44C174.019 44.576 173.832 43.5627 173.832 42.4C173.832 41.2373 174.019 40.2293 174.392 39.376C174.776 38.512 175.304 37.8507 175.976 37.392C176.659 36.9333 177.432 36.704 178.296 36.704C179.16 36.704 179.928 36.9333 180.6 37.392C181.283 37.8507 181.816 38.512 182.2 39.376C182.584 40.2293 182.776 41.2373 182.776 42.4C182.776 43.5627 182.584 44.576 182.2 45.44C181.816 46.2933 181.283 46.9493 180.6 47.408C179.928 47.8667 179.16 48.096 178.296 48.096ZM178.296 47.04C178.947 47.04 179.517 46.8587 180.008 46.496C180.509 46.1333 180.899 45.6053 181.176 44.912C181.453 44.2187 181.592 43.3813 181.592 42.4C181.592 41.4187 181.453 40.5813 181.176 39.888C180.899 39.1947 180.509 38.6667 180.008 38.304C179.517 37.9413 178.947 37.76 178.296 37.76C177.645 37.76 177.069 37.9413 176.568 38.304C176.077 38.6667 175.693 39.1947 175.416 39.888C175.139 40.5813 175 41.4187 175 42.4C175 43.3813 175.139 44.2187 175.416 44.912C175.693 45.6053 176.077 46.1333 176.568 46.496C177.069 46.8587 177.645 47.04 178.296 47.04ZM185.418 36.8H189.978C191.162 36.8 192.207 37.04 193.114 37.52C194.02 37.9893 194.724 38.6507 195.226 39.504C195.727 40.3467 195.978 41.312 195.978 42.4C195.978 43.488 195.727 44.4587 195.226 45.312C194.724 46.1547 194.02 46.816 193.114 47.296C192.207 47.7653 191.162 48 189.978 48H185.418V36.8ZM189.914 46.976C190.895 46.976 191.754 46.784 192.49 46.4C193.226 46.0053 193.796 45.4667 194.202 44.784C194.607 44.0907 194.81 43.296 194.81 42.4C194.81 41.504 194.607 40.7147 194.202 40.032C193.796 39.3387 193.226 38.8 192.49 38.416C191.754 38.0213 190.895 37.824 189.914 37.824H186.602V46.976H189.914ZM204.061 42.128C204.765 42.3627 205.303 42.7147 205.677 43.184C206.061 43.6533 206.253 44.2187 206.253 44.88C206.253 45.5307 206.077 46.1013 205.725 46.592C205.373 47.072 204.866 47.4453 204.205 47.712C203.554 47.968 202.786 48.096 201.901 48.096C200.557 48.096 199.501 47.808 198.733 47.232C197.965 46.656 197.581 45.872 197.581 44.88C197.581 44.208 197.762 43.6427 198.125 43.184C198.498 42.7147 199.037 42.3627 199.741 42.128C199.165 41.904 198.727 41.584 198.429 41.168C198.13 40.7413 197.981 40.24 197.981 39.664C197.981 38.7573 198.333 38.0373 199.037 37.504C199.751 36.9707 200.706 36.704 201.901 36.704C202.69 36.704 203.378 36.8267 203.965 37.072C204.562 37.3067 205.026 37.648 205.357 38.096C205.687 38.544 205.852 39.0667 205.852 39.664C205.852 40.24 205.698 40.7413 205.389 41.168C205.079 41.584 204.637 41.904 204.061 42.128ZM199.133 39.696C199.133 40.3147 199.378 40.8053 199.869 41.168C200.359 41.5307 201.037 41.712 201.901 41.712C202.765 41.712 203.442 41.5307 203.933 41.168C204.434 40.8053 204.685 40.32 204.685 39.712C204.685 39.0827 204.429 38.5867 203.917 38.224C203.415 37.8613 202.743 37.68 201.901 37.68C201.047 37.68 200.37 37.8613 199.869 38.224C199.378 38.5867 199.133 39.0773 199.133 39.696ZM201.901 47.12C202.893 47.12 203.666 46.9173 204.221 46.512C204.786 46.1067 205.069 45.5573 205.069 44.864C205.069 44.1707 204.786 43.6267 204.221 43.232C203.666 42.8267 202.893 42.624 201.901 42.624C200.919 42.624 200.146 42.8267 199.581 43.232C199.026 43.6267 198.749 44.1707 198.749 44.864C198.749 45.568 199.026 46.1227 199.581 46.528C200.135 46.9227 200.909 47.12 201.901 47.12Z" fill="black"/>
<path d="M100.912 110.096C100.08 110.096 99.28 109.963 98.512 109.696C97.7547 109.429 97.168 109.077 96.752 108.64L97.216 107.728C97.6213 108.133 98.16 108.464 98.832 108.72C99.504 108.965 100.197 109.088 100.912 109.088C101.915 109.088 102.667 108.907 103.168 108.544C103.669 108.171 103.92 107.691 103.92 107.104C103.92 106.656 103.781 106.299 103.504 106.032C103.237 105.765 102.907 105.563 102.512 105.424C102.117 105.275 101.568 105.115 100.864 104.944C100.021 104.731 99.3493 104.528 98.848 104.336C98.3467 104.133 97.9147 103.829 97.552 103.424C97.2 103.019 97.024 102.469 97.024 101.776C97.024 101.211 97.1733 100.699 97.472 100.24C97.7707 99.7707 98.2293 99.3973 98.848 99.12C99.4667 98.8427 100.235 98.704 101.152 98.704C101.792 98.704 102.416 98.7947 103.024 98.976C103.643 99.1467 104.176 99.3867 104.624 99.696L104.224 100.64C103.755 100.331 103.253 100.101 102.72 99.952C102.187 99.792 101.664 99.712 101.152 99.712C100.171 99.712 99.4293 99.904 98.928 100.288C98.4373 100.661 98.192 101.147 98.192 101.744C98.192 102.192 98.3253 102.555 98.592 102.832C98.8693 103.099 99.2107 103.307 99.616 103.456C100.032 103.595 100.587 103.749 101.28 103.92C102.101 104.123 102.763 104.325 103.264 104.528C103.776 104.72 104.208 105.019 104.56 105.424C104.912 105.819 105.088 106.357 105.088 107.04C105.088 107.605 104.933 108.123 104.624 108.592C104.325 109.051 103.861 109.419 103.232 109.696C102.603 109.963 101.829 110.096 100.912 110.096ZM110.868 110.08C110.057 110.08 109.326 109.899 108.676 109.536C108.025 109.163 107.513 108.651 107.14 108C106.766 107.349 106.58 106.613 106.58 105.792C106.58 104.971 106.766 104.235 107.14 103.584C107.513 102.933 108.025 102.427 108.676 102.064C109.326 101.701 110.057 101.52 110.868 101.52C111.678 101.52 112.409 101.701 113.06 102.064C113.71 102.427 114.217 102.933 114.58 103.584C114.953 104.235 115.14 104.971 115.14 105.792C115.14 106.613 114.953 107.349 114.58 108C114.217 108.651 113.71 109.163 113.06 109.536C112.409 109.899 111.678 110.08 110.868 110.08ZM110.868 109.072C111.465 109.072 111.998 108.939 112.468 108.672C112.948 108.395 113.321 108.005 113.588 107.504C113.854 107.003 113.988 106.432 113.988 105.792C113.988 105.152 113.854 104.581 113.588 104.08C113.321 103.579 112.948 103.195 112.468 102.928C111.998 102.651 111.465 102.512 110.868 102.512C110.27 102.512 109.732 102.651 109.252 102.928C108.782 103.195 108.409 103.579 108.132 104.08C107.865 104.581 107.732 105.152 107.732 105.792C107.732 106.432 107.865 107.003 108.132 107.504C108.409 108.005 108.782 108.395 109.252 108.672C109.732 108.939 110.27 109.072 110.868 109.072ZM120.243 99.008C119.752 99.008 119.379 99.1413 119.123 99.408C118.878 99.6747 118.755 100.069 118.755 100.592V101.584H121.347V102.544H118.787V110H117.651V102.544H116.147V101.584H117.651V100.544C117.651 99.776 117.87 99.168 118.307 98.72C118.755 98.272 119.384 98.048 120.195 98.048C120.515 98.048 120.824 98.096 121.123 98.192C121.422 98.2773 121.672 98.4053 121.875 98.576L121.491 99.424C121.16 99.1467 120.744 99.008 120.243 99.008ZM127.313 109.488C127.1 109.68 126.833 109.829 126.513 109.936C126.204 110.032 125.878 110.08 125.537 110.08C124.748 110.08 124.14 109.867 123.713 109.44C123.286 109.013 123.073 108.411 123.073 107.632V102.544H121.569V101.584H123.073V99.744H124.209V101.584H126.769V102.544H124.209V107.568C124.209 108.069 124.332 108.453 124.577 108.72C124.833 108.976 125.196 109.104 125.665 109.104C125.9 109.104 126.124 109.067 126.337 108.992C126.561 108.917 126.753 108.811 126.913 108.672L127.313 109.488ZM141.696 104.4H142.832V108.672C142.31 109.131 141.691 109.483 140.976 109.728C140.262 109.973 139.51 110.096 138.72 110.096C137.6 110.096 136.592 109.851 135.696 109.36C134.8 108.869 134.096 108.192 133.584 107.328C133.072 106.453 132.816 105.477 132.816 104.4C132.816 103.323 133.072 102.352 133.584 101.488C134.096 100.613 134.8 99.9307 135.696 99.44C136.592 98.9493 137.606 98.704 138.736 98.704C139.59 98.704 140.374 98.8427 141.088 99.12C141.803 99.3867 142.406 99.7867 142.896 100.32L142.16 101.072C141.275 100.197 140.15 99.76 138.784 99.76C137.878 99.76 137.056 99.9627 136.32 100.368C135.595 100.763 135.024 101.317 134.608 102.032C134.192 102.736 133.984 103.525 133.984 104.4C133.984 105.275 134.192 106.064 134.608 106.768C135.024 107.472 135.595 108.027 136.32 108.432C137.046 108.837 137.862 109.04 138.768 109.04C139.92 109.04 140.896 108.752 141.696 108.176V104.4ZM147.031 103.232C147.298 102.667 147.693 102.24 148.215 101.952C148.749 101.664 149.405 101.52 150.183 101.52V102.624L149.911 102.608C149.026 102.608 148.333 102.88 147.831 103.424C147.33 103.968 147.079 104.731 147.079 105.712V110H145.943V101.584H147.031V103.232ZM155.169 101.52C156.267 101.52 157.11 101.797 157.697 102.352C158.283 102.896 158.577 103.707 158.577 104.784V110H157.489V108.688C157.233 109.125 156.854 109.467 156.353 109.712C155.862 109.957 155.275 110.08 154.593 110.08C153.654 110.08 152.907 109.856 152.353 109.408C151.798 108.96 151.521 108.368 151.521 107.632C151.521 106.917 151.777 106.341 152.289 105.904C152.811 105.467 153.638 105.248 154.769 105.248H157.441V104.736C157.441 104.011 157.238 103.461 156.833 103.088C156.427 102.704 155.835 102.512 155.057 102.512C154.523 102.512 154.011 102.603 153.521 102.784C153.03 102.955 152.609 103.195 152.257 103.504L151.745 102.656C152.171 102.293 152.683 102.016 153.281 101.824C153.878 101.621 154.507 101.52 155.169 101.52ZM154.769 109.184C155.409 109.184 155.958 109.04 156.417 108.752C156.875 108.453 157.217 108.027 157.441 107.472V106.096H154.801C153.361 106.096 152.641 106.597 152.641 107.6C152.641 108.091 152.827 108.48 153.201 108.768C153.574 109.045 154.097 109.184 154.769 109.184ZM168.578 101.584L164.37 111.008C164.029 111.797 163.634 112.357 163.186 112.688C162.738 113.019 162.199 113.184 161.57 113.184C161.165 113.184 160.786 113.12 160.434 112.992C160.082 112.864 159.778 112.672 159.522 112.416L160.05 111.568C160.477 111.995 160.989 112.208 161.586 112.208C161.97 112.208 162.295 112.101 162.562 111.888C162.839 111.675 163.095 111.312 163.33 110.8L163.698 109.984L159.938 101.584H161.122L164.29 108.736L167.458 101.584H168.578ZM107.184 118.8V130H106.016V124.832H99.008V130H97.824V118.8H99.008V123.792H106.016V118.8H107.184ZM117.928 126.144H110.888C110.952 127.019 111.288 127.728 111.896 128.272C112.504 128.805 113.272 129.072 114.2 129.072C114.722 129.072 115.202 128.981 115.64 128.8C116.077 128.608 116.456 128.331 116.776 127.968L117.416 128.704C117.042 129.152 116.573 129.493 116.008 129.728C115.453 129.963 114.84 130.08 114.168 130.08C113.304 130.08 112.536 129.899 111.864 129.536C111.202 129.163 110.685 128.651 110.312 128C109.938 127.349 109.752 126.613 109.752 125.792C109.752 124.971 109.928 124.235 110.28 123.584C110.642 122.933 111.133 122.427 111.752 122.064C112.381 121.701 113.085 121.52 113.864 121.52C114.642 121.52 115.341 121.701 115.96 122.064C116.578 122.427 117.064 122.933 117.416 123.584C117.768 124.224 117.944 124.96 117.944 125.792L117.928 126.144ZM113.864 122.496C113.053 122.496 112.37 122.757 111.816 123.28C111.272 123.792 110.962 124.464 110.888 125.296H116.856C116.781 124.464 116.466 123.792 115.912 123.28C115.368 122.757 114.685 122.496 113.864 122.496ZM125.382 130L122.71 126.48L120.022 130H118.742L122.07 125.68L118.902 121.584H120.182L122.71 124.88L125.238 121.584H126.486L123.318 125.68L126.678 130H125.382ZM139.46 122.72L139.044 126.08H141.316V126.96H138.932L138.564 130H137.7L138.068 126.96H134.788L134.404 130H133.54L133.908 126.96H131.636V126.08H134.02L134.436 122.72H132.148V121.84H134.548L134.916 118.8H135.796L135.412 121.84H138.708L139.076 118.8H139.94L139.572 121.84H141.828V122.72H139.46ZM138.596 122.72H135.316L134.884 126.08H138.18L138.596 122.72ZM151.161 127.008H144.921L143.577 130H142.345L147.465 118.8H148.633L153.753 130H152.505L151.161 127.008ZM150.729 126.048L148.041 120.032L145.353 126.048H150.729ZM160.951 124.128C161.655 124.363 162.194 124.715 162.567 125.184C162.951 125.653 163.143 126.219 163.143 126.88C163.143 127.531 162.967 128.101 162.615 128.592C162.263 129.072 161.756 129.445 161.095 129.712C160.444 129.968 159.676 130.096 158.791 130.096C157.447 130.096 156.391 129.808 155.623 129.232C154.855 128.656 154.471 127.872 154.471 126.88C154.471 126.208 154.652 125.643 155.015 125.184C155.388 124.715 155.927 124.363 156.631 124.128C156.055 123.904 155.618 123.584 155.319 123.168C155.02 122.741 154.871 122.24 154.871 121.664C154.871 120.757 155.223 120.037 155.927 119.504C156.642 118.971 157.596 118.704 158.791 118.704C159.58 118.704 160.268 118.827 160.855 119.072C161.452 119.307 161.916 119.648 162.247 120.096C162.578 120.544 162.743 121.067 162.743 121.664C162.743 122.24 162.588 122.741 162.279 123.168C161.97 123.584 161.527 123.904 160.951 124.128ZM156.023 121.696C156.023 122.315 156.268 122.805 156.759 123.168C157.25 123.531 157.927 123.712 158.791 123.712C159.655 123.712 160.332 123.531 160.823 123.168C161.324 122.805 161.575 122.32 161.575 121.712C161.575 121.083 161.319 120.587 160.807 120.224C160.306 119.861 159.634 119.68 158.791 119.68C157.938 119.68 157.26 119.861 156.759 120.224C156.268 120.587 156.023 121.077 156.023 121.696ZM158.791 129.12C159.783 129.12 160.556 128.917 161.111 128.512C161.676 128.107 161.959 127.557 161.959 126.864C161.959 126.171 161.676 125.627 161.111 125.232C160.556 124.827 159.783 124.624 158.791 124.624C157.81 124.624 157.036 124.827 156.471 125.232C155.916 125.627 155.639 126.171 155.639 126.864C155.639 127.568 155.916 128.123 156.471 128.528C157.026 128.923 157.799 129.12 158.791 129.12ZM172.786 124.224C173.522 124.384 174.088 124.704 174.482 125.184C174.888 125.653 175.09 126.261 175.09 127.008C175.09 127.968 174.733 128.709 174.018 129.232C173.314 129.744 172.269 130 170.882 130H165.73V118.8H170.562C171.81 118.8 172.776 119.051 173.458 119.552C174.152 120.053 174.498 120.763 174.498 121.68C174.498 122.299 174.344 122.827 174.034 123.264C173.736 123.691 173.32 124.011 172.786 124.224ZM166.914 119.776V123.84H170.482C171.389 123.84 172.088 123.669 172.578 123.328C173.069 122.976 173.314 122.469 173.314 121.808C173.314 121.147 173.069 120.645 172.578 120.304C172.088 119.952 171.389 119.776 170.482 119.776H166.914ZM170.866 129.024C171.869 129.024 172.626 128.853 173.138 128.512C173.65 128.171 173.906 127.637 173.906 126.912C173.906 125.515 172.893 124.816 170.866 124.816H166.914V129.024H170.866ZM181.441 123.296C182.177 123.296 182.827 123.435 183.393 123.712C183.969 123.989 184.417 124.384 184.737 124.896C185.057 125.397 185.217 125.984 185.217 126.656C185.217 127.339 185.051 127.941 184.721 128.464C184.39 128.987 183.931 129.392 183.345 129.68C182.769 129.957 182.118 130.096 181.393 130.096C179.91 130.096 178.774 129.611 177.985 128.64C177.195 127.659 176.801 126.277 176.801 124.496C176.801 123.248 177.014 122.192 177.441 121.328C177.867 120.464 178.465 119.813 179.233 119.376C180.001 118.928 180.897 118.704 181.921 118.704C183.03 118.704 183.915 118.907 184.577 119.312L184.113 120.24C183.579 119.888 182.854 119.712 181.937 119.712C180.699 119.712 179.729 120.107 179.025 120.896C178.321 121.675 177.969 122.811 177.969 124.304C177.969 124.571 177.985 124.875 178.017 125.216C178.294 124.608 178.737 124.139 179.345 123.808C179.953 123.467 180.651 123.296 181.441 123.296ZM181.345 129.12C182.155 129.12 182.811 128.901 183.313 128.464C183.825 128.016 184.081 127.424 184.081 126.688C184.081 125.952 183.825 125.365 183.313 124.928C182.811 124.491 182.129 124.272 181.265 124.272C180.699 124.272 180.198 124.379 179.761 124.592C179.334 124.805 178.998 125.099 178.753 125.472C178.507 125.845 178.385 126.261 178.385 126.72C178.385 127.147 178.497 127.541 178.721 127.904C178.955 128.267 179.297 128.56 179.745 128.784C180.193 129.008 180.726 129.12 181.345 129.12ZM194.599 124.224C195.335 124.384 195.9 124.704 196.295 125.184C196.7 125.653 196.903 126.261 196.903 127.008C196.903 127.968 196.545 128.709 195.831 129.232C195.127 129.744 194.081 130 192.695 130H187.543V118.8H192.375C193.623 118.8 194.588 119.051 195.271 119.552C195.964 120.053 196.311 120.763 196.311 121.68C196.311 122.299 196.156 122.827 195.847 123.264C195.548 123.691 195.132 124.011 194.599 124.224ZM188.727 119.776V123.84H192.295C193.201 123.84 193.9 123.669 194.391 123.328C194.881 122.976 195.127 122.469 195.127 121.808C195.127 121.147 194.881 120.645 194.391 120.304C193.9 119.952 193.201 119.776 192.295 119.776H188.727ZM192.679 129.024C193.681 129.024 194.439 128.853 194.951 128.512C195.463 128.171 195.719 127.637 195.719 126.912C195.719 125.515 194.705 124.816 192.679 124.816H188.727V129.024H192.679ZM200.789 119.824V124.224H206.581V125.248H200.789V130H199.605V118.8H207.285V119.824H200.789Z" fill="black"/>
<path d="M102.016 180.8C103.445 180.8 104.565 181.141 105.376 181.824C106.187 182.507 106.592 183.445 106.592 184.64C106.592 185.835 106.187 186.773 105.376 187.456C104.565 188.128 103.445 188.464 102.016 188.464H99.008V192H97.824V180.8H102.016ZM101.984 187.424C103.093 187.424 103.941 187.184 104.528 186.704C105.115 186.213 105.408 185.525 105.408 184.64C105.408 183.733 105.115 183.04 104.528 182.56C103.941 182.069 103.093 181.824 101.984 181.824H99.008V187.424H101.984ZM116.193 188.144H109.153C109.217 189.019 109.553 189.728 110.161 190.272C110.769 190.805 111.537 191.072 112.465 191.072C112.988 191.072 113.468 190.981 113.905 190.8C114.343 190.608 114.721 190.331 115.041 189.968L115.681 190.704C115.308 191.152 114.839 191.493 114.273 191.728C113.719 191.963 113.105 192.08 112.433 192.08C111.569 192.08 110.801 191.899 110.129 191.536C109.468 191.163 108.951 190.651 108.577 190C108.204 189.349 108.017 188.613 108.017 187.792C108.017 186.971 108.193 186.235 108.545 185.584C108.908 184.933 109.399 184.427 110.017 184.064C110.647 183.701 111.351 183.52 112.129 183.52C112.908 183.52 113.607 183.701 114.225 184.064C114.844 184.427 115.329 184.933 115.681 185.584C116.033 186.224 116.209 186.96 116.209 187.792L116.193 188.144ZM112.129 184.496C111.319 184.496 110.636 184.757 110.081 185.28C109.537 185.792 109.228 186.464 109.153 187.296H115.121C115.047 186.464 114.732 185.792 114.177 185.28C113.633 184.757 112.951 184.496 112.129 184.496ZM121.231 183.52C122.33 183.52 123.172 183.797 123.759 184.352C124.346 184.896 124.639 185.707 124.639 186.784V192H123.551V190.688C123.295 191.125 122.916 191.467 122.415 191.712C121.924 191.957 121.338 192.08 120.655 192.08C119.716 192.08 118.97 191.856 118.415 191.408C117.86 190.96 117.583 190.368 117.583 189.632C117.583 188.917 117.839 188.341 118.351 187.904C118.874 187.467 119.7 187.248 120.831 187.248H123.503V186.736C123.503 186.011 123.3 185.461 122.895 185.088C122.49 184.704 121.898 184.512 121.119 184.512C120.586 184.512 120.074 184.603 119.583 184.784C119.092 184.955 118.671 185.195 118.319 185.504L117.807 184.656C118.234 184.293 118.746 184.016 119.343 183.824C119.94 183.621 120.57 183.52 121.231 183.52ZM120.831 191.184C121.471 191.184 122.02 191.04 122.479 190.752C122.938 190.453 123.279 190.027 123.503 189.472V188.096H120.863C119.423 188.096 118.703 188.597 118.703 189.6C118.703 190.091 118.89 190.48 119.263 190.768C119.636 191.045 120.159 191.184 120.831 191.184ZM131.244 192.08C130.412 192.08 129.665 191.899 129.004 191.536C128.353 191.173 127.841 190.667 127.468 190.016C127.095 189.355 126.908 188.613 126.908 187.792C126.908 186.971 127.095 186.235 127.468 185.584C127.841 184.933 128.353 184.427 129.004 184.064C129.665 183.701 130.412 183.52 131.244 183.52C131.969 183.52 132.615 183.664 133.18 183.952C133.756 184.229 134.209 184.64 134.54 185.184L133.692 185.76C133.415 185.344 133.063 185.035 132.636 184.832C132.209 184.619 131.745 184.512 131.244 184.512C130.636 184.512 130.087 184.651 129.596 184.928C129.116 185.195 128.737 185.579 128.46 186.08C128.193 186.581 128.06 187.152 128.06 187.792C128.06 188.443 128.193 189.019 128.46 189.52C128.737 190.011 129.116 190.395 129.596 190.672C130.087 190.939 130.636 191.072 131.244 191.072C131.745 191.072 132.209 190.971 132.636 190.768C133.063 190.565 133.415 190.256 133.692 189.84L134.54 190.416C134.209 190.96 133.756 191.376 133.18 191.664C132.604 191.941 131.959 192.08 131.244 192.08ZM140.935 183.52C141.991 183.52 142.828 183.829 143.447 184.448C144.076 185.056 144.391 185.947 144.391 187.12V192H143.255V187.232C143.255 186.357 143.036 185.691 142.599 185.232C142.161 184.773 141.537 184.544 140.727 184.544C139.82 184.544 139.1 184.816 138.567 185.36C138.044 185.893 137.783 186.635 137.783 187.584V192H136.647V180.128H137.783V185.056C138.092 184.565 138.519 184.187 139.062 183.92C139.607 183.653 140.231 183.52 140.935 183.52ZM154.834 188.144H147.794C147.858 189.019 148.194 189.728 148.802 190.272C149.41 190.805 150.178 191.072 151.106 191.072C151.629 191.072 152.109 190.981 152.546 190.8C152.983 190.608 153.362 190.331 153.682 189.968L154.322 190.704C153.949 191.152 153.479 191.493 152.914 191.728C152.359 191.963 151.746 192.08 151.074 192.08C150.21 192.08 149.442 191.899 148.77 191.536C148.109 191.163 147.591 190.651 147.218 190C146.845 189.349 146.658 188.613 146.658 187.792C146.658 186.971 146.834 186.235 147.186 185.584C147.549 184.933 148.039 184.427 148.658 184.064C149.287 183.701 149.991 183.52 150.77 183.52C151.549 183.52 152.247 183.701 152.866 184.064C153.485 184.427 153.97 184.933 154.322 185.584C154.674 186.224 154.85 186.96 154.85 187.792L154.834 188.144ZM150.77 184.496C149.959 184.496 149.277 184.757 148.722 185.28C148.178 185.792 147.869 186.464 147.794 187.296H153.762C153.687 186.464 153.373 185.792 152.818 185.28C152.274 184.757 151.591 184.496 150.77 184.496ZM159.418 192.08C158.735 192.08 158.079 191.984 157.45 191.792C156.831 191.589 156.346 191.339 155.994 191.04L156.506 190.144C156.858 190.421 157.301 190.651 157.834 190.832C158.367 191.003 158.922 191.088 159.498 191.088C160.266 191.088 160.831 190.971 161.194 190.736C161.567 190.491 161.754 190.149 161.754 189.712C161.754 189.403 161.653 189.163 161.45 188.992C161.247 188.811 160.991 188.677 160.682 188.592C160.373 188.496 159.962 188.405 159.45 188.32C158.767 188.192 158.218 188.064 157.802 187.936C157.386 187.797 157.029 187.568 156.73 187.248C156.442 186.928 156.298 186.485 156.298 185.92C156.298 185.216 156.591 184.64 157.178 184.192C157.765 183.744 158.581 183.52 159.626 183.52C160.17 183.52 160.714 183.595 161.258 183.744C161.802 183.883 162.25 184.069 162.602 184.304L162.106 185.216C161.413 184.736 160.586 184.496 159.626 184.496C158.901 184.496 158.351 184.624 157.978 184.88C157.615 185.136 157.434 185.472 157.434 185.888C157.434 186.208 157.535 186.464 157.738 186.656C157.951 186.848 158.213 186.992 158.522 187.088C158.831 187.173 159.258 187.264 159.802 187.36C160.474 187.488 161.013 187.616 161.418 187.744C161.823 187.872 162.17 188.091 162.458 188.4C162.746 188.709 162.89 189.136 162.89 189.68C162.89 190.416 162.581 191.003 161.962 191.44C161.354 191.867 160.506 192.08 159.418 192.08ZM107.184 200.8V212H106.016V206.832H99.008V212H97.824V200.8H99.008V205.792H106.016V200.8H107.184ZM117.928 208.144H110.888C110.952 209.019 111.288 209.728 111.896 210.272C112.504 210.805 113.272 211.072 114.2 211.072C114.722 211.072 115.202 210.981 115.64 210.8C116.077 210.608 116.456 210.331 116.776 209.968L117.416 210.704C117.042 211.152 116.573 211.493 116.008 211.728C115.453 211.963 114.84 212.08 114.168 212.08C113.304 212.08 112.536 211.899 111.864 211.536C111.202 211.163 110.685 210.651 110.312 210C109.938 209.349 109.752 208.613 109.752 207.792C109.752 206.971 109.928 206.235 110.28 205.584C110.642 204.933 111.133 204.427 111.752 204.064C112.381 203.701 113.085 203.52 113.864 203.52C114.642 203.52 115.341 203.701 115.96 204.064C116.578 204.427 117.064 204.933 117.416 205.584C117.768 206.224 117.944 206.96 117.944 207.792L117.928 208.144ZM113.864 204.496C113.053 204.496 112.37 204.757 111.816 205.28C111.272 205.792 110.962 206.464 110.888 207.296H116.856C116.781 206.464 116.466 205.792 115.912 205.28C115.368 204.757 114.685 204.496 113.864 204.496ZM125.382 212L122.71 208.48L120.022 212H118.742L122.07 207.68L118.902 203.584H120.182L122.71 206.88L125.238 203.584H126.486L123.318 207.68L126.678 212H125.382ZM139.46 204.72L139.044 208.08H141.316V208.96H138.932L138.564 212H137.7L138.068 208.96H134.788L134.404 212H133.54L133.908 208.96H131.636V208.08H134.02L134.436 204.72H132.148V203.84H134.548L134.916 200.8H135.796L135.412 203.84H138.708L139.076 200.8H139.94L139.572 203.84H141.828V204.72H139.46ZM138.596 204.72H135.316L134.884 208.08H138.18L138.596 204.72ZM144.137 200.8H148.697C149.881 200.8 150.926 201.04 151.833 201.52C152.739 201.989 153.443 202.651 153.945 203.504C154.446 204.347 154.697 205.312 154.697 206.4C154.697 207.488 154.446 208.459 153.945 209.312C153.443 210.155 152.739 210.816 151.833 211.296C150.926 211.765 149.881 212 148.697 212H144.137V200.8ZM148.633 210.976C149.614 210.976 150.473 210.784 151.209 210.4C151.945 210.005 152.515 209.467 152.921 208.784C153.326 208.091 153.529 207.296 153.529 206.4C153.529 205.504 153.326 204.715 152.921 204.032C152.515 203.339 151.945 202.8 151.209 202.416C150.473 202.021 149.614 201.824 148.633 201.824H145.321V210.976H148.633ZM164.267 200.8V201.616L159.579 212H158.331L162.939 201.824H157.179V203.92H156.043V200.8H164.267ZM172.739 209.008H166.499L165.155 212H163.923L169.043 200.8H170.211L175.331 212H174.083L172.739 209.008ZM172.307 208.048L169.619 202.032L166.931 208.048H172.307ZM177.183 200.8H181.743C182.927 200.8 183.973 201.04 184.879 201.52C185.786 201.989 186.49 202.651 186.991 203.504C187.493 204.347 187.743 205.312 187.743 206.4C187.743 207.488 187.493 208.459 186.991 209.312C186.49 210.155 185.786 210.816 184.879 211.296C183.973 211.765 182.927 212 181.743 212H177.183V200.8ZM181.679 210.976C182.661 210.976 183.519 210.784 184.255 210.4C184.991 210.005 185.562 209.467 185.967 208.784C186.373 208.091 186.575 207.296 186.575 206.4C186.575 205.504 186.373 204.715 185.967 204.032C185.562 203.339 184.991 202.8 184.255 202.416C183.519 202.021 182.661 201.824 181.679 201.824H178.367V210.976H181.679ZM192.898 200.704C194.381 200.704 195.517 201.195 196.306 202.176C197.095 203.147 197.49 204.523 197.49 206.304C197.49 207.552 197.277 208.608 196.85 209.472C196.423 210.336 195.826 210.992 195.058 211.44C194.29 211.877 193.394 212.096 192.37 212.096C191.261 212.096 190.375 211.893 189.714 211.488L190.178 210.56C190.711 210.912 191.437 211.088 192.354 211.088C193.591 211.088 194.562 210.699 195.266 209.92C195.97 209.131 196.322 207.989 196.322 206.496C196.322 206.219 196.306 205.915 196.274 205.584C195.997 206.192 195.554 206.667 194.946 207.008C194.338 207.339 193.639 207.504 192.85 207.504C192.114 207.504 191.458 207.365 190.882 207.088C190.317 206.811 189.874 206.421 189.554 205.92C189.234 205.408 189.074 204.816 189.074 204.144C189.074 203.461 189.239 202.859 189.57 202.336C189.901 201.813 190.354 201.413 190.93 201.136C191.517 200.848 192.173 200.704 192.898 200.704ZM193.026 206.528C193.591 206.528 194.087 206.421 194.514 206.208C194.951 205.995 195.293 205.701 195.538 205.328C195.783 204.955 195.906 204.539 195.906 204.08C195.906 203.653 195.789 203.259 195.554 202.896C195.33 202.533 194.994 202.24 194.546 202.016C194.098 201.792 193.565 201.68 192.946 201.68C192.135 201.68 191.474 201.904 190.962 202.352C190.461 202.789 190.21 203.376 190.21 204.112C190.21 204.848 190.461 205.435 190.962 205.872C191.474 206.309 192.162 206.528 193.026 206.528ZM203.8 205.296C204.536 205.296 205.187 205.435 205.752 205.712C206.328 205.989 206.776 206.384 207.096 206.896C207.416 207.397 207.576 207.984 207.576 208.656C207.576 209.339 207.411 209.941 207.08 210.464C206.749 210.987 206.291 211.392 205.704 211.68C205.128 211.957 204.477 212.096 203.752 212.096C202.269 212.096 201.133 211.611 200.344 210.64C199.555 209.659 199.16 208.277 199.16 206.496C199.16 205.248 199.373 204.192 199.8 203.328C200.227 202.464 200.824 201.813 201.592 201.376C202.36 200.928 203.256 200.704 204.28 200.704C205.389 200.704 206.275 200.907 206.936 201.312L206.472 202.24C205.939 201.888 205.213 201.712 204.296 201.712C203.059 201.712 202.088 202.107 201.384 202.896C200.68 203.675 200.328 204.811 200.328 206.304C200.328 206.571 200.344 206.875 200.376 207.216C200.653 206.608 201.096 206.139 201.704 205.808C202.312 205.467 203.011 205.296 203.8 205.296ZM203.704 211.12C204.515 211.12 205.171 210.901 205.672 210.464C206.184 210.016 206.44 209.424 206.44 208.688C206.44 207.952 206.184 207.365 205.672 206.928C205.171 206.491 204.488 206.272 203.624 206.272C203.059 206.272 202.557 206.379 202.12 206.592C201.693 206.805 201.357 207.099 201.112 207.472C200.867 207.845 200.744 208.261 200.744 208.72C200.744 209.147 200.856 209.541 201.08 209.904C201.315 210.267 201.656 210.56 202.104 210.784C202.552 211.008 203.085 211.12 203.704 211.12Z" fill="black"/>
<path d="M104.88 268.224C105.616 268.384 106.181 268.704 106.576 269.184C106.981 269.653 107.184 270.261 107.184 271.008C107.184 271.968 106.827 272.709 106.112 273.232C105.408 273.744 104.363 274 102.976 274H97.824V262.8H102.656C103.904 262.8 104.869 263.051 105.552 263.552C106.245 264.053 106.592 264.763 106.592 265.68C106.592 266.299 106.437 266.827 106.128 267.264C105.829 267.691 105.413 268.011 104.88 268.224ZM99.008 263.776V267.84H102.576C103.483 267.84 104.181 267.669 104.672 267.328C105.163 266.976 105.408 266.469 105.408 265.808C105.408 265.147 105.163 264.645 104.672 264.304C104.181 263.952 103.483 263.776 102.576 263.776H99.008ZM102.96 273.024C103.963 273.024 104.72 272.853 105.232 272.512C105.744 272.171 106 271.637 106 270.912C106 269.515 104.987 268.816 102.96 268.816H99.008V273.024H102.96ZM116.975 270.144H109.935C109.999 271.019 110.335 271.728 110.943 272.272C111.551 272.805 112.319 273.072 113.247 273.072C113.769 273.072 114.249 272.981 114.687 272.8C115.124 272.608 115.503 272.331 115.823 271.968L116.463 272.704C116.089 273.152 115.62 273.493 115.055 273.728C114.5 273.963 113.887 274.08 113.215 274.08C112.351 274.08 111.583 273.899 110.911 273.536C110.249 273.163 109.732 272.651 109.359 272C108.985 271.349 108.799 270.613 108.799 269.792C108.799 268.971 108.975 268.235 109.327 267.584C109.689 266.933 110.18 266.427 110.799 266.064C111.428 265.701 112.132 265.52 112.911 265.52C113.689 265.52 114.388 265.701 115.007 266.064C115.625 266.427 116.111 266.933 116.463 267.584C116.815 268.224 116.991 268.96 116.991 269.792L116.975 270.144ZM112.911 266.496C112.1 266.496 111.417 266.757 110.863 267.28C110.319 267.792 110.009 268.464 109.935 269.296H115.903C115.828 268.464 115.513 267.792 114.959 267.28C114.415 266.757 113.732 266.496 112.911 266.496ZM123.735 273.488C123.521 273.68 123.255 273.829 122.935 273.936C122.625 274.032 122.3 274.08 121.959 274.08C121.169 274.08 120.561 273.867 120.135 273.44C119.708 273.013 119.495 272.411 119.495 271.632V266.544H117.991V265.584H119.495V263.744H120.631V265.584H123.191V266.544H120.631V271.568C120.631 272.069 120.753 272.453 120.999 272.72C121.255 272.976 121.617 273.104 122.087 273.104C122.321 273.104 122.545 273.067 122.759 272.992C122.983 272.917 123.175 272.811 123.335 272.672L123.735 273.488ZM130.016 273.488C129.803 273.68 129.536 273.829 129.216 273.936C128.907 274.032 128.581 274.08 128.24 274.08C127.451 274.08 126.843 273.867 126.416 273.44C125.989 273.013 125.776 272.411 125.776 271.632V266.544H124.272V265.584H125.776V263.744H126.912V265.584H129.472V266.544H126.912V271.568C126.912 272.069 127.035 272.453 127.28 272.72C127.536 272.976 127.899 273.104 128.368 273.104C128.603 273.104 128.827 273.067 129.04 272.992C129.264 272.917 129.456 272.811 129.616 272.672L130.016 273.488ZM139.115 270.144H132.075C132.139 271.019 132.475 271.728 133.083 272.272C133.691 272.805 134.459 273.072 135.387 273.072C135.91 273.072 136.39 272.981 136.827 272.8C137.264 272.608 137.643 272.331 137.963 271.968L138.603 272.704C138.23 273.152 137.76 273.493 137.195 273.728C136.64 273.963 136.027 274.08 135.355 274.08C134.491 274.08 133.723 273.899 133.051 273.536C132.39 273.163 131.872 272.651 131.499 272C131.126 271.349 130.939 270.613 130.939 269.792C130.939 268.971 131.115 268.235 131.467 267.584C131.83 266.933 132.32 266.427 132.939 266.064C133.568 265.701 134.272 265.52 135.051 265.52C135.83 265.52 136.528 265.701 137.147 266.064C137.766 266.427 138.251 266.933 138.603 267.584C138.955 268.224 139.131 268.96 139.131 269.792L139.115 270.144ZM135.051 266.496C134.24 266.496 133.558 266.757 133.003 267.28C132.459 267.792 132.15 268.464 132.075 269.296H138.043C137.968 268.464 137.654 267.792 137.099 267.28C136.555 266.757 135.872 266.496 135.051 266.496ZM142.531 267.232C142.798 266.667 143.193 266.24 143.715 265.952C144.249 265.664 144.905 265.52 145.683 265.52V266.624L145.411 266.608C144.526 266.608 143.833 266.88 143.331 267.424C142.83 267.968 142.579 268.731 142.579 269.712V274H141.443V265.584H142.531V267.232ZM156.485 273.488C156.271 273.68 156.005 273.829 155.685 273.936C155.375 274.032 155.05 274.08 154.709 274.08C153.919 274.08 153.311 273.867 152.885 273.44C152.458 273.013 152.245 272.411 152.245 271.632V266.544H150.741V265.584H152.245V263.744H153.381V265.584H155.941V266.544H153.381V271.568C153.381 272.069 153.503 272.453 153.749 272.72C154.005 272.976 154.367 273.104 154.837 273.104C155.071 273.104 155.295 273.067 155.509 272.992C155.733 272.917 155.925 272.811 156.085 272.672L156.485 273.488ZM162.841 265.52C163.897 265.52 164.734 265.829 165.353 266.448C165.982 267.056 166.297 267.947 166.297 269.12V274H165.161V269.232C165.161 268.357 164.942 267.691 164.505 267.232C164.067 266.773 163.443 266.544 162.633 266.544C161.726 266.544 161.006 266.816 160.473 267.36C159.95 267.893 159.689 268.635 159.689 269.584V274H158.553V262.128H159.689V267.056C159.998 266.565 160.425 266.187 160.969 265.92C161.513 265.653 162.137 265.52 162.841 265.52ZM172.325 265.52C173.424 265.52 174.266 265.797 174.853 266.352C175.44 266.896 175.733 267.707 175.733 268.784V274H174.645V272.688C174.389 273.125 174.01 273.467 173.509 273.712C173.018 273.957 172.432 274.08 171.749 274.08C170.81 274.08 170.064 273.856 169.509 273.408C168.954 272.96 168.677 272.368 168.677 271.632C168.677 270.917 168.933 270.341 169.445 269.904C169.968 269.467 170.794 269.248 171.925 269.248H174.597V268.736C174.597 268.011 174.394 267.461 173.989 267.088C173.584 266.704 172.992 266.512 172.213 266.512C171.68 266.512 171.168 266.603 170.677 266.784C170.186 266.955 169.765 267.195 169.413 267.504L168.901 266.656C169.328 266.293 169.84 266.016 170.437 265.824C171.034 265.621 171.664 265.52 172.325 265.52ZM171.925 273.184C172.565 273.184 173.114 273.04 173.573 272.752C174.032 272.453 174.373 272.027 174.597 271.472V270.096H171.957C170.517 270.096 169.797 270.597 169.797 271.6C169.797 272.091 169.984 272.48 170.357 272.768C170.73 273.045 171.253 273.184 171.925 273.184ZM183.106 265.52C184.162 265.52 185 265.829 185.618 266.448C186.248 267.056 186.562 267.947 186.562 269.12V274H185.426V269.232C185.426 268.357 185.208 267.691 184.77 267.232C184.333 266.773 183.709 266.544 182.898 266.544C181.992 266.544 181.272 266.816 180.738 267.36C180.216 267.893 179.954 268.635 179.954 269.584V274H178.818V265.584H179.906V267.136C180.216 266.624 180.642 266.229 181.186 265.952C181.741 265.664 182.381 265.52 183.106 265.52ZM198.17 265.52C198.959 265.52 199.674 265.701 200.314 266.064C200.954 266.416 201.455 266.917 201.818 267.568C202.181 268.219 202.362 268.96 202.362 269.792C202.362 270.624 202.181 271.365 201.818 272.016C201.455 272.667 200.954 273.173 200.314 273.536C199.674 273.899 198.959 274.08 198.17 274.08C197.466 274.08 196.831 273.931 196.266 273.632C195.711 273.333 195.263 272.901 194.922 272.336V274H193.834V262.128H194.97V267.184C195.322 266.64 195.77 266.229 196.314 265.952C196.869 265.664 197.487 265.52 198.17 265.52ZM198.09 273.072C198.677 273.072 199.21 272.939 199.69 272.672C200.17 272.395 200.543 272.005 200.81 271.504C201.087 271.003 201.226 270.432 201.226 269.792C201.226 269.152 201.087 268.581 200.81 268.08C200.543 267.579 200.17 267.195 199.69 266.928C199.21 266.651 198.677 266.512 198.09 266.512C197.493 266.512 196.954 266.651 196.474 266.928C196.005 267.195 195.631 267.579 195.354 268.08C195.087 268.581 194.954 269.152 194.954 269.792C194.954 270.432 195.087 271.003 195.354 271.504C195.631 272.005 196.005 272.395 196.474 272.672C196.954 272.939 197.493 273.072 198.09 273.072ZM212.006 270.144H204.966C205.03 271.019 205.366 271.728 205.974 272.272C206.582 272.805 207.35 273.072 208.278 273.072C208.8 273.072 209.28 272.981 209.718 272.8C210.155 272.608 210.534 272.331 210.854 271.968L211.494 272.704C211.12 273.152 210.651 273.493 210.086 273.728C209.531 273.963 208.918 274.08 208.246 274.08C207.382 274.08 206.614 273.899 205.942 273.536C205.28 273.163 204.763 272.651 204.39 272C204.016 271.349 203.83 270.613 203.83 269.792C203.83 268.971 204.006 268.235 204.358 267.584C204.72 266.933 205.211 266.427 205.83 266.064C206.459 265.701 207.163 265.52 207.942 265.52C208.72 265.52 209.419 265.701 210.038 266.064C210.656 266.427 211.142 266.933 211.494 267.584C211.846 268.224 212.022 268.96 212.022 269.792L212.006 270.144ZM207.942 266.496C207.131 266.496 206.448 266.757 205.894 267.28C205.35 267.792 205.04 268.464 204.966 269.296H210.934C210.859 268.464 210.544 267.792 209.99 267.28C209.446 266.757 208.763 266.496 207.942 266.496ZM214.334 265.584H215.47V274H214.334V265.584ZM214.91 263.744C214.675 263.744 214.478 263.664 214.318 263.504C214.158 263.344 214.078 263.152 214.078 262.928C214.078 262.715 214.158 262.528 214.318 262.368C214.478 262.208 214.675 262.128 214.91 262.128C215.145 262.128 215.342 262.208 215.502 262.368C215.662 262.517 215.742 262.699 215.742 262.912C215.742 263.147 215.662 263.344 215.502 263.504C215.342 263.664 215.145 263.744 214.91 263.744ZM226.423 265.584V272.976C226.423 274.405 226.071 275.461 225.367 276.144C224.674 276.837 223.623 277.184 222.215 277.184C221.436 277.184 220.695 277.067 219.991 276.832C219.298 276.608 218.732 276.293 218.295 275.888L218.871 275.024C219.276 275.387 219.767 275.669 220.343 275.872C220.93 276.075 221.543 276.176 222.183 276.176C223.25 276.176 224.034 275.925 224.535 275.424C225.036 274.933 225.287 274.165 225.287 273.12V272.048C224.935 272.581 224.471 272.987 223.895 273.264C223.33 273.541 222.7 273.68 222.007 273.68C221.218 273.68 220.498 273.509 219.847 273.168C219.207 272.816 218.7 272.331 218.327 271.712C217.964 271.083 217.783 270.373 217.783 269.584C217.783 268.795 217.964 268.091 218.327 267.472C218.7 266.853 219.207 266.373 219.847 266.032C220.487 265.691 221.207 265.52 222.007 265.52C222.722 265.52 223.367 265.664 223.943 265.952C224.519 266.24 224.983 266.656 225.335 267.2V265.584H226.423ZM222.119 272.672C222.727 272.672 223.276 272.544 223.767 272.288C224.258 272.021 224.636 271.653 224.903 271.184C225.18 270.715 225.319 270.181 225.319 269.584C225.319 268.987 225.18 268.459 224.903 268C224.636 267.531 224.258 267.168 223.767 266.912C223.287 266.645 222.738 266.512 222.119 266.512C221.511 266.512 220.962 266.64 220.471 266.896C219.991 267.152 219.612 267.515 219.335 267.984C219.068 268.453 218.935 268.987 218.935 269.584C218.935 270.181 219.068 270.715 219.335 271.184C219.612 271.653 219.991 272.021 220.471 272.288C220.962 272.544 221.511 272.672 222.119 272.672ZM236.928 270.144H229.888C229.952 271.019 230.288 271.728 230.896 272.272C231.504 272.805 232.272 273.072 233.2 273.072C233.722 273.072 234.202 272.981 234.64 272.8C235.077 272.608 235.456 272.331 235.776 271.968L236.416 272.704C236.042 273.152 235.573 273.493 235.008 273.728C234.453 273.963 233.84 274.08 233.168 274.08C232.304 274.08 231.536 273.899 230.864 273.536C230.202 273.163 229.685 272.651 229.312 272C228.938 271.349 228.752 270.613 228.752 269.792C228.752 268.971 228.928 268.235 229.28 267.584C229.642 266.933 230.133 266.427 230.752 266.064C231.381 265.701 232.085 265.52 232.864 265.52C233.642 265.52 234.341 265.701 234.96 266.064C235.578 266.427 236.064 266.933 236.416 267.584C236.768 268.224 236.944 268.96 236.944 269.792L236.928 270.144ZM232.864 266.496C232.053 266.496 231.37 266.757 230.816 267.28C230.272 267.792 229.962 268.464 229.888 269.296H235.856C235.781 268.464 235.466 267.792 234.912 267.28C234.368 266.757 233.685 266.496 232.864 266.496ZM107.184 282.8V294H106.016V288.832H99.008V294H97.824V282.8H99.008V287.792H106.016V282.8H107.184ZM117.928 290.144H110.888C110.952 291.019 111.288 291.728 111.896 292.272C112.504 292.805 113.272 293.072 114.2 293.072C114.722 293.072 115.202 292.981 115.64 292.8C116.077 292.608 116.456 292.331 116.776 291.968L117.416 292.704C117.042 293.152 116.573 293.493 116.008 293.728C115.453 293.963 114.84 294.08 114.168 294.08C113.304 294.08 112.536 293.899 111.864 293.536C111.202 293.163 110.685 292.651 110.312 292C109.938 291.349 109.752 290.613 109.752 289.792C109.752 288.971 109.928 288.235 110.28 287.584C110.642 286.933 111.133 286.427 111.752 286.064C112.381 285.701 113.085 285.52 113.864 285.52C114.642 285.52 115.341 285.701 115.96 286.064C116.578 286.427 117.064 286.933 117.416 287.584C117.768 288.224 117.944 288.96 117.944 289.792L117.928 290.144ZM113.864 286.496C113.053 286.496 112.37 286.757 111.816 287.28C111.272 287.792 110.962 288.464 110.888 289.296H116.856C116.781 288.464 116.466 287.792 115.912 287.28C115.368 286.757 114.685 286.496 113.864 286.496ZM125.382 294L122.71 290.48L120.022 294H118.742L122.07 289.68L118.902 285.584H120.182L122.71 288.88L125.238 285.584H126.486L123.318 289.68L126.678 294H125.382ZM139.46 286.72L139.044 290.08H141.316V290.96H138.932L138.564 294H137.7L138.068 290.96H134.788L134.404 294H133.54L133.908 290.96H131.636V290.08H134.02L134.436 286.72H132.148V285.84H134.548L134.916 282.8H135.796L135.412 285.84H138.708L139.076 282.8H139.94L139.572 285.84H141.828V286.72H139.46ZM138.596 286.72H135.316L134.884 290.08H138.18L138.596 286.72ZM152.057 292.976V294H144.137V282.8H151.817V283.824H145.321V287.808H151.113V288.816H145.321V292.976H152.057ZM154.84 282.8H159.4C160.584 282.8 161.629 283.04 162.536 283.52C163.442 283.989 164.146 284.651 164.648 285.504C165.149 286.347 165.4 287.312 165.4 288.4C165.4 289.488 165.149 290.459 164.648 291.312C164.146 292.155 163.442 292.816 162.536 293.296C161.629 293.765 160.584 294 159.4 294H154.84V282.8ZM159.336 292.976C160.317 292.976 161.176 292.784 161.912 292.4C162.648 292.005 163.218 291.467 163.624 290.784C164.029 290.091 164.232 289.296 164.232 288.4C164.232 287.504 164.029 286.715 163.624 286.032C163.218 285.339 162.648 284.8 161.912 284.416C161.176 284.021 160.317 283.824 159.336 283.824H156.024V292.976H159.336ZM168.058 282.8H172.618C173.802 282.8 174.848 283.04 175.754 283.52C176.661 283.989 177.365 284.651 177.866 285.504C178.368 286.347 178.618 287.312 178.618 288.4C178.618 289.488 178.368 290.459 177.866 291.312C177.365 292.155 176.661 292.816 175.754 293.296C174.848 293.765 173.802 294 172.618 294H168.058V282.8ZM172.554 292.976C173.536 292.976 174.394 292.784 175.13 292.4C175.866 292.005 176.437 291.467 176.842 290.784C177.248 290.091 177.45 289.296 177.45 288.4C177.45 287.504 177.248 286.715 176.842 286.032C176.437 285.339 175.866 284.8 175.13 284.416C174.394 284.021 173.536 283.824 172.554 283.824H169.242V292.976H172.554ZM183.773 282.704C185.256 282.704 186.392 283.195 187.181 284.176C187.97 285.147 188.365 286.523 188.365 288.304C188.365 289.552 188.152 290.608 187.725 291.472C187.298 292.336 186.701 292.992 185.933 293.44C185.165 293.877 184.269 294.096 183.245 294.096C182.136 294.096 181.25 293.893 180.589 293.488L181.053 292.56C181.586 292.912 182.312 293.088 183.229 293.088C184.466 293.088 185.437 292.699 186.141 291.92C186.845 291.131 187.197 289.989 187.197 288.496C187.197 288.219 187.181 287.915 187.149 287.584C186.872 288.192 186.429 288.667 185.821 289.008C185.213 289.339 184.514 289.504 183.725 289.504C182.989 289.504 182.333 289.365 181.757 289.088C181.192 288.811 180.749 288.421 180.429 287.92C180.109 287.408 179.949 286.816 179.949 286.144C179.949 285.461 180.114 284.859 180.445 284.336C180.776 283.813 181.229 283.413 181.805 283.136C182.392 282.848 183.048 282.704 183.773 282.704ZM183.901 288.528C184.466 288.528 184.962 288.421 185.389 288.208C185.826 287.995 186.168 287.701 186.413 287.328C186.658 286.955 186.781 286.539 186.781 286.08C186.781 285.653 186.664 285.259 186.429 284.896C186.205 284.533 185.869 284.24 185.421 284.016C184.973 283.792 184.44 283.68 183.821 283.68C183.01 283.68 182.349 283.904 181.837 284.352C181.336 284.789 181.085 285.376 181.085 286.112C181.085 286.848 181.336 287.435 181.837 287.872C182.349 288.309 183.037 288.528 183.901 288.528ZM195.891 294.096C194.782 294.096 193.779 293.851 192.883 293.36C191.998 292.869 191.299 292.192 190.787 291.328C190.286 290.453 190.035 289.477 190.035 288.4C190.035 287.323 190.286 286.352 190.787 285.488C191.299 284.613 192.003 283.931 192.899 283.44C193.795 282.949 194.798 282.704 195.907 282.704C196.739 282.704 197.507 282.843 198.211 283.12C198.915 283.397 199.512 283.803 200.003 284.336L199.251 285.088C198.376 284.203 197.272 283.76 195.939 283.76C195.054 283.76 194.248 283.963 193.523 284.368C192.798 284.773 192.227 285.328 191.811 286.032C191.406 286.736 191.203 287.525 191.203 288.4C191.203 289.275 191.406 290.064 191.811 290.768C192.227 291.472 192.798 292.027 193.523 292.432C194.248 292.837 195.054 293.04 195.939 293.04C197.283 293.04 198.387 292.592 199.251 291.696L200.003 292.448C199.512 292.981 198.91 293.392 198.195 293.68C197.491 293.957 196.723 294.096 195.891 294.096ZM205.624 294.096C204.76 294.096 203.987 293.867 203.304 293.408C202.632 292.949 202.104 292.293 201.72 291.44C201.347 290.576 201.16 289.563 201.16 288.4C201.16 287.237 201.347 286.229 201.72 285.376C202.104 284.512 202.632 283.851 203.304 283.392C203.987 282.933 204.76 282.704 205.624 282.704C206.488 282.704 207.256 282.933 207.928 283.392C208.611 283.851 209.144 284.512 209.528 285.376C209.912 286.229 210.104 287.237 210.104 288.4C210.104 289.563 209.912 290.576 209.528 291.44C209.144 292.293 208.611 292.949 207.928 293.408C207.256 293.867 206.488 294.096 205.624 294.096ZM205.624 293.04C206.275 293.04 206.845 292.859 207.336 292.496C207.837 292.133 208.227 291.605 208.504 290.912C208.781 290.219 208.92 289.381 208.92 288.4C208.92 287.419 208.781 286.581 208.504 285.888C208.227 285.195 207.837 284.667 207.336 284.304C206.845 283.941 206.275 283.76 205.624 283.76C204.973 283.76 204.397 283.941 203.896 284.304C203.405 284.667 203.021 285.195 202.744 285.888C202.467 286.581 202.328 287.419 202.328 288.4C202.328 289.381 202.467 290.219 202.744 290.912C203.021 291.605 203.405 292.133 203.896 292.496C204.397 292.859 204.973 293.04 205.624 293.04Z" fill="black"/>
<path d="M102.72 362.096C101.611 362.096 100.603 361.851 99.696 361.36C98.8 360.859 98.096 360.176 97.584 359.312C97.0827 358.448 96.832 357.477 96.832 356.4C96.832 355.323 97.0827 354.352 97.584 353.488C98.096 352.624 98.8 351.947 99.696 351.456C100.603 350.955 101.611 350.704 102.72 350.704C103.829 350.704 104.827 350.949 105.712 351.44C106.608 351.931 107.312 352.613 107.824 353.488C108.336 354.352 108.592 355.323 108.592 356.4C108.592 357.477 108.336 358.453 107.824 359.328C107.312 360.192 106.608 360.869 105.712 361.36C104.827 361.851 103.829 362.096 102.72 362.096ZM102.72 361.04C103.605 361.04 104.405 360.843 105.12 360.448C105.835 360.043 106.395 359.488 106.8 358.784C107.205 358.069 107.408 357.275 107.408 356.4C107.408 355.525 107.205 354.736 106.8 354.032C106.395 353.317 105.835 352.763 105.12 352.368C104.405 351.963 103.605 351.76 102.72 351.76C101.835 351.76 101.029 351.963 100.304 352.368C99.5893 352.763 99.024 353.317 98.608 354.032C98.2027 354.736 98 355.525 98 356.4C98 357.275 98.2027 358.069 98.608 358.784C99.024 359.488 99.5893 360.043 100.304 360.448C101.029 360.843 101.835 361.04 102.72 361.04ZM113.79 351.008C113.299 351.008 112.926 351.141 112.67 351.408C112.425 351.675 112.302 352.069 112.302 352.592V353.584H114.894V354.544H112.334V362H111.198V354.544H109.694V353.584H111.198V352.544C111.198 351.776 111.417 351.168 111.854 350.72C112.302 350.272 112.931 350.048 113.742 350.048C114.062 350.048 114.371 350.096 114.67 350.192C114.969 350.277 115.219 350.405 115.422 350.576L115.038 351.424C114.707 351.147 114.291 351.008 113.79 351.008ZM119.212 351.008C118.721 351.008 118.348 351.141 118.092 351.408C117.846 351.675 117.724 352.069 117.724 352.592V353.584H120.316V354.544H117.756V362H116.62V354.544H115.116V353.584H116.62V352.544C116.62 351.776 116.838 351.168 117.276 350.72C117.724 350.272 118.353 350.048 119.164 350.048C119.484 350.048 119.793 350.096 120.092 350.192C120.39 350.277 120.641 350.405 120.844 350.576L120.46 351.424C120.129 351.147 119.713 351.008 119.212 351.008ZM141.653 350.8L137.877 362H136.629L133.349 352.448L130.053 362H128.821L125.045 350.8H126.261L129.493 360.432L132.837 350.8H133.941L137.237 360.48L140.517 350.8H141.653ZM148.106 353.52C149.162 353.52 150 353.829 150.618 354.448C151.248 355.056 151.562 355.947 151.562 357.12V362H150.426V357.232C150.426 356.357 150.208 355.691 149.77 355.232C149.333 354.773 148.709 354.544 147.898 354.544C146.992 354.544 146.272 354.816 145.738 355.36C145.216 355.893 144.954 356.635 144.954 357.584V362H143.818V350.128H144.954V355.056C145.264 354.565 145.69 354.187 146.234 353.92C146.778 353.653 147.402 353.52 148.106 353.52ZM154.647 353.584H155.783V362H154.647V353.584ZM155.223 351.744C154.988 351.744 154.791 351.664 154.631 351.504C154.471 351.344 154.391 351.152 154.391 350.928C154.391 350.715 154.471 350.528 154.631 350.368C154.791 350.208 154.988 350.128 155.223 350.128C155.457 350.128 155.655 350.208 155.815 350.368C155.975 350.517 156.055 350.699 156.055 350.912C156.055 351.147 155.975 351.344 155.815 351.504C155.655 351.664 155.457 351.744 155.223 351.744ZM163.375 361.488C163.162 361.68 162.895 361.829 162.575 361.936C162.266 362.032 161.941 362.08 161.599 362.08C160.81 362.08 160.202 361.867 159.775 361.44C159.349 361.013 159.135 360.411 159.135 359.632V354.544H157.631V353.584H159.135V351.744H160.271V353.584H162.831V354.544H160.271V359.568C160.271 360.069 160.394 360.453 160.639 360.72C160.895 360.976 161.258 361.104 161.727 361.104C161.962 361.104 162.186 361.067 162.399 360.992C162.623 360.917 162.815 360.811 162.975 360.672L163.375 361.488ZM172.475 358.144H165.435C165.499 359.019 165.835 359.728 166.443 360.272C167.051 360.805 167.819 361.072 168.747 361.072C169.269 361.072 169.749 360.981 170.187 360.8C170.624 360.608 171.003 360.331 171.323 359.968L171.963 360.704C171.589 361.152 171.12 361.493 170.555 361.728C170 361.963 169.387 362.08 168.715 362.08C167.851 362.08 167.083 361.899 166.411 361.536C165.749 361.163 165.232 360.651 164.859 360C164.485 359.349 164.299 358.613 164.299 357.792C164.299 356.971 164.475 356.235 164.827 355.584C165.189 354.933 165.68 354.427 166.299 354.064C166.928 353.701 167.632 353.52 168.411 353.52C169.189 353.52 169.888 353.701 170.507 354.064C171.125 354.427 171.611 354.933 171.963 355.584C172.315 356.224 172.491 356.96 172.491 357.792L172.475 358.144ZM168.411 354.496C167.6 354.496 166.917 354.757 166.363 355.28C165.819 355.792 165.509 356.464 165.435 357.296H171.403C171.328 356.464 171.013 355.792 170.459 355.28C169.915 354.757 169.232 354.496 168.411 354.496ZM107.184 370.8V382H106.016V376.832H99.008V382H97.824V370.8H99.008V375.792H106.016V370.8H107.184ZM117.928 378.144H110.888C110.952 379.019 111.288 379.728 111.896 380.272C112.504 380.805 113.272 381.072 114.2 381.072C114.722 381.072 115.202 380.981 115.64 380.8C116.077 380.608 116.456 380.331 116.776 379.968L117.416 380.704C117.042 381.152 116.573 381.493 116.008 381.728C115.453 381.963 114.84 382.08 114.168 382.08C113.304 382.08 112.536 381.899 111.864 381.536C111.202 381.163 110.685 380.651 110.312 380C109.938 379.349 109.752 378.613 109.752 377.792C109.752 376.971 109.928 376.235 110.28 375.584C110.642 374.933 111.133 374.427 111.752 374.064C112.381 373.701 113.085 373.52 113.864 373.52C114.642 373.52 115.341 373.701 115.96 374.064C116.578 374.427 117.064 374.933 117.416 375.584C117.768 376.224 117.944 376.96 117.944 377.792L117.928 378.144ZM113.864 374.496C113.053 374.496 112.37 374.757 111.816 375.28C111.272 375.792 110.962 376.464 110.888 377.296H116.856C116.781 376.464 116.466 375.792 115.912 375.28C115.368 374.757 114.685 374.496 113.864 374.496ZM125.382 382L122.71 378.48L120.022 382H118.742L122.07 377.68L118.902 373.584H120.182L122.71 376.88L125.238 373.584H126.486L123.318 377.68L126.678 382H125.382ZM139.46 374.72L139.044 378.08H141.316V378.96H138.932L138.564 382H137.7L138.068 378.96H134.788L134.404 382H133.54L133.908 378.96H131.636V378.08H134.02L134.436 374.72H132.148V373.84H134.548L134.916 370.8H135.796L135.412 373.84H138.708L139.076 370.8H139.94L139.572 373.84H141.828V374.72H139.46ZM138.596 374.72H135.316L134.884 378.08H138.18L138.596 374.72ZM145.321 371.824V376.224H151.113V377.248H145.321V382H144.137V370.8H151.817V371.824H145.321ZM155.446 371.824V376.224H161.238V377.248H155.446V382H154.262V370.8H161.942V371.824H155.446ZM165.571 371.824V376.224H171.363V377.248H165.571V382H164.387V370.8H172.067V371.824H165.571ZM174.512 370.8H179.072C180.256 370.8 181.301 371.04 182.208 371.52C183.114 371.989 183.818 372.651 184.32 373.504C184.821 374.347 185.072 375.312 185.072 376.4C185.072 377.488 184.821 378.459 184.32 379.312C183.818 380.155 183.114 380.816 182.208 381.296C181.301 381.765 180.256 382 179.072 382H174.512V370.8ZM179.008 380.976C179.989 380.976 180.848 380.784 181.584 380.4C182.32 380.005 182.89 379.467 183.296 378.784C183.701 378.091 183.904 377.296 183.904 376.4C183.904 375.504 183.701 374.715 183.296 374.032C182.89 373.339 182.32 372.8 181.584 372.416C180.848 372.021 179.989 371.824 179.008 371.824H175.696V380.976H179.008ZM188.914 371.824V376.224H194.706V377.248H188.914V382H187.73V370.8H195.41V371.824H188.914ZM200.445 370.704C201.928 370.704 203.064 371.195 203.853 372.176C204.642 373.147 205.037 374.523 205.037 376.304C205.037 377.552 204.824 378.608 204.397 379.472C203.97 380.336 203.373 380.992 202.605 381.44C201.837 381.877 200.941 382.096 199.917 382.096C198.808 382.096 197.922 381.893 197.261 381.488L197.725 380.56C198.258 380.912 198.984 381.088 199.901 381.088C201.138 381.088 202.109 380.699 202.813 379.92C203.517 379.131 203.869 377.989 203.869 376.496C203.869 376.219 203.853 375.915 203.821 375.584C203.544 376.192 203.101 376.667 202.493 377.008C201.885 377.339 201.186 377.504 200.397 377.504C199.661 377.504 199.005 377.365 198.429 377.088C197.864 376.811 197.421 376.421 197.101 375.92C196.781 375.408 196.621 374.816 196.621 374.144C196.621 373.461 196.786 372.859 197.117 372.336C197.448 371.813 197.901 371.413 198.477 371.136C199.064 370.848 199.72 370.704 200.445 370.704ZM200.573 376.528C201.138 376.528 201.634 376.421 202.061 376.208C202.498 375.995 202.84 375.701 203.085 375.328C203.33 374.955 203.453 374.539 203.453 374.08C203.453 373.653 203.336 373.259 203.101 372.896C202.877 372.533 202.541 372.24 202.093 372.016C201.645 371.792 201.112 371.68 200.493 371.68C199.682 371.68 199.021 371.904 198.509 372.352C198.008 372.789 197.757 373.376 197.757 374.112C197.757 374.848 198.008 375.435 198.509 375.872C199.021 376.309 199.709 376.528 200.573 376.528Z" fill="black"/>
</svg>
