<svg width="303" height="313" viewBox="0 0 303 313" fill="none" xmlns="http://www.w3.org/2000/svg">
<ellipse cx="151.045" cy="151.452" rx="134.667" ry="135.848" fill="#FDE54A"/>
<ellipse cx="134.667" cy="177.152" rx="134.667" ry="135.848" fill="#FB9F99"/>
<path d="M100.936 137C100.696 137 100.492 136.928 100.324 136.784C100.18 136.616 100.108 136.412 100.108 136.172V116.012L94.132 120.62C93.964 120.764 93.784 120.836 93.592 120.836C93.376 120.836 93.172 120.716 92.98 120.476L92.044 119.288C91.924 119.12 91.864 118.952 91.864 118.784C91.864 118.496 91.984 118.268 92.224 118.1L100.072 112.052C100.336 111.884 100.648 111.8 101.008 111.8H102.844C103.084 111.8 103.276 111.884 103.42 112.052C103.588 112.196 103.672 112.388 103.672 112.628V136.172C103.672 136.412 103.588 136.616 103.42 136.784C103.276 136.928 103.084 137 102.844 137H100.936ZM117.81 137.36C114.714 137.36 112.446 136.46 111.006 134.66C109.566 132.86 108.798 130.496 108.702 127.568C108.678 126.92 108.666 125.876 108.666 124.436C108.666 122.948 108.678 121.868 108.702 121.196C108.774 118.316 109.542 115.976 111.006 114.176C112.47 112.352 114.738 111.44 117.81 111.44C120.906 111.44 123.186 112.352 124.65 114.176C126.114 115.976 126.882 118.316 126.954 121.196C127.002 122.54 127.026 123.62 127.026 124.436C127.026 125.228 127.002 126.272 126.954 127.568C126.858 130.496 126.09 132.86 124.65 134.66C123.21 136.46 120.93 137.36 117.81 137.36ZM117.81 134.264C119.61 134.264 120.966 133.664 121.878 132.464C122.814 131.264 123.306 129.572 123.354 127.388C123.402 125.996 123.426 124.988 123.426 124.364C123.426 123.692 123.402 122.708 123.354 121.412C123.306 119.252 122.826 117.56 121.914 116.336C121.002 115.112 119.634 114.5 117.81 114.5C116.01 114.5 114.642 115.112 113.706 116.336C112.794 117.56 112.314 119.252 112.266 121.412L112.23 124.364L112.266 127.388C112.314 129.572 112.794 131.264 113.706 132.464C114.642 133.664 116.01 134.264 117.81 134.264ZM140.662 137.36C137.566 137.36 135.298 136.46 133.858 134.66C132.418 132.86 131.65 130.496 131.554 127.568C131.53 126.92 131.518 125.876 131.518 124.436C131.518 122.948 131.53 121.868 131.554 121.196C131.626 118.316 132.394 115.976 133.858 114.176C135.322 112.352 137.59 111.44 140.662 111.44C143.758 111.44 146.038 112.352 147.502 114.176C148.966 115.976 149.734 118.316 149.806 121.196C149.854 122.54 149.878 123.62 149.878 124.436C149.878 125.228 149.854 126.272 149.806 127.568C149.71 130.496 148.942 132.86 147.502 134.66C146.062 136.46 143.782 137.36 140.662 137.36ZM140.662 134.264C142.462 134.264 143.818 133.664 144.73 132.464C145.666 131.264 146.158 129.572 146.206 127.388C146.254 125.996 146.278 124.988 146.278 124.364C146.278 123.692 146.254 122.708 146.206 121.412C146.158 119.252 145.678 117.56 144.766 116.336C143.854 115.112 142.486 114.5 140.662 114.5C138.862 114.5 137.494 115.112 136.558 116.336C135.646 117.56 135.166 119.252 135.118 121.412L135.082 124.364L135.118 127.388C135.166 129.572 135.646 131.264 136.558 132.464C137.494 133.664 138.862 134.264 140.662 134.264ZM159.05 124.436C157.49 124.436 156.254 124.028 155.342 123.212C154.454 122.372 153.962 121.22 153.866 119.756C153.842 119.348 153.83 118.82 153.83 118.172C153.83 117.476 153.842 116.912 153.866 116.48C153.938 114.992 154.406 113.816 155.27 112.952C156.158 112.064 157.418 111.62 159.05 111.62C160.682 111.62 161.93 112.064 162.794 112.952C163.682 113.816 164.162 114.992 164.234 116.48C164.282 117.44 164.306 118.052 164.306 118.316C164.306 118.556 164.282 119.036 164.234 119.756C164.162 121.22 163.67 122.372 162.758 123.212C161.846 124.028 160.61 124.436 159.05 124.436ZM156.026 137C155.81 137 155.63 136.94 155.486 136.82C155.342 136.676 155.27 136.496 155.27 136.28C155.27 136.136 155.318 136.004 155.414 135.884L173.198 112.484C173.39 112.22 173.558 112.04 173.702 111.944C173.87 111.848 174.098 111.8 174.386 111.8H175.574C175.814 111.8 175.994 111.872 176.114 112.016C176.258 112.136 176.33 112.304 176.33 112.52C176.33 112.664 176.282 112.796 176.186 112.916L158.438 136.316C158.246 136.58 158.066 136.76 157.898 136.856C157.754 136.952 157.526 137 157.214 137H156.026ZM159.05 122.204C159.914 122.204 160.538 121.952 160.922 121.448C161.33 120.944 161.57 120.332 161.642 119.612C161.69 118.748 161.714 118.244 161.714 118.1C161.714 117.884 161.69 117.392 161.642 116.624C161.594 115.88 161.354 115.256 160.922 114.752C160.514 114.248 159.89 113.996 159.05 113.996C158.21 113.996 157.586 114.248 157.178 114.752C156.77 115.256 156.542 115.88 156.494 116.624C156.47 117.008 156.458 117.5 156.458 118.1C156.458 118.676 156.47 119.18 156.494 119.612C156.566 120.356 156.794 120.98 157.178 121.484C157.586 121.964 158.21 122.204 159.05 122.204ZM172.514 137.216C170.954 137.216 169.718 136.784 168.806 135.92C167.918 135.032 167.426 133.856 167.33 132.392C167.306 131.984 167.294 131.456 167.294 130.808C167.294 130.112 167.306 129.548 167.33 129.116C167.426 127.628 167.906 126.452 168.77 125.588C169.658 124.7 170.906 124.256 172.514 124.256C174.146 124.256 175.394 124.7 176.258 125.588C177.146 126.452 177.638 127.628 177.734 129.116C177.782 129.98 177.806 130.544 177.806 130.808C177.806 131.048 177.782 131.576 177.734 132.392C177.638 133.856 177.134 135.032 176.222 135.92C175.31 136.784 174.074 137.216 172.514 137.216ZM172.514 134.84C173.378 134.84 174.002 134.588 174.386 134.084C174.794 133.58 175.034 132.968 175.106 132.248C175.154 131.384 175.178 130.88 175.178 130.736C175.178 130.52 175.154 130.028 175.106 129.26C175.058 128.516 174.83 127.892 174.422 127.388C174.014 126.884 173.378 126.632 172.514 126.632C171.674 126.632 171.05 126.884 170.642 127.388C170.234 127.892 170.006 128.516 169.958 129.26C169.934 129.644 169.922 130.136 169.922 130.736C169.922 131.312 169.934 131.816 169.958 132.248C170.03 132.968 170.258 133.58 170.642 134.084C171.05 134.588 171.674 134.84 172.514 134.84Z" fill="white"/>
<path d="M64.4047 153.964C65.0581 153.964 65.6714 154.071 66.2447 154.284C66.8181 154.484 67.3114 154.798 67.7247 155.224C68.6447 156.158 69.1047 157.451 69.1047 159.104C69.1047 160.731 68.6447 162.011 67.7247 162.944C66.8981 163.798 65.7914 164.224 64.4047 164.224C63.0181 164.224 61.8981 163.798 61.0447 162.944C60.1247 162.024 59.6647 160.744 59.6647 159.104C59.6647 157.438 60.1247 156.144 61.0447 155.224C61.8847 154.384 63.0047 153.964 64.4047 153.964ZM66.7447 159.084C66.7447 158.058 66.5447 157.291 66.1447 156.784C65.7447 156.264 65.1847 156.004 64.4647 156.004C63.7581 156.004 63.1781 156.264 62.7247 156.784C62.2714 157.291 62.0447 158.058 62.0447 159.084C62.0447 160.111 62.2447 160.884 62.6447 161.404C63.0581 161.911 63.6181 162.164 64.3247 162.164C65.0314 162.164 65.6114 161.911 66.0647 161.404C66.5181 160.884 66.7447 160.111 66.7447 159.084ZM70.8529 154.224H72.2929V153.084C72.2929 152.084 72.5862 151.318 73.1729 150.784C73.7062 150.304 74.3995 150.064 75.2529 150.064C75.7995 150.064 76.4729 150.144 77.2729 150.304L76.8129 152.124C76.4395 151.991 76.0995 151.924 75.7929 151.924C75.4995 151.924 75.2395 152.011 75.0129 152.184C74.7862 152.344 74.6729 152.651 74.6729 153.104V154.224H76.4529V155.804H74.6729V163.944H72.2929V155.804H70.8529V154.224ZM90.7557 162.184C90.1423 163.478 89.1557 164.124 87.7957 164.124C86.0757 164.124 84.9423 163.451 84.3957 162.104C84.1957 161.638 84.0957 161.071 84.0957 160.404V154.204H86.4557V160.164C86.4557 160.804 86.609 161.284 86.9157 161.604C87.2223 161.911 87.5957 162.064 88.0357 162.064C88.489 162.064 88.869 162.004 89.1757 161.884C89.4823 161.751 89.749 161.558 89.9757 161.304C90.469 160.731 90.729 159.964 90.7557 159.004V154.204H93.1157V163.944H90.7557V162.184ZM98.1547 160.984C98.1814 161.904 98.8547 162.364 100.175 162.364C100.681 162.364 101.095 162.258 101.415 162.044C101.748 161.818 101.915 161.558 101.915 161.264C101.915 160.971 101.815 160.744 101.615 160.584C101.415 160.424 101.101 160.278 100.675 160.144L98.5547 159.384C96.9814 158.838 96.1947 157.944 96.1947 156.704C96.1947 155.878 96.5614 155.218 97.2947 154.724C98.0414 154.218 99.0347 153.964 100.275 153.964C101.528 153.964 102.488 154.238 103.155 154.784C103.835 155.331 104.188 156.018 104.215 156.844H101.995C101.968 156.524 101.815 156.271 101.535 156.084C101.255 155.898 100.855 155.804 100.335 155.804C99.8147 155.804 99.4081 155.911 99.1147 156.124C98.8347 156.324 98.6947 156.558 98.6947 156.824C98.6947 157.291 99.0881 157.638 99.8747 157.864L102.175 158.724C102.935 158.978 103.515 159.304 103.915 159.704C104.328 160.091 104.535 160.598 104.535 161.224C104.535 162.024 104.155 162.718 103.395 163.304C102.608 163.918 101.568 164.224 100.275 164.224C98.9814 164.224 97.9414 163.944 97.1547 163.384C96.3681 162.811 95.9681 162.011 95.9547 160.984H98.1547ZM114.162 155.384C114.495 155.811 114.742 156.304 114.902 156.864C115.075 157.424 115.162 157.938 115.162 158.404C115.162 158.871 115.135 159.291 115.082 159.664H108.802C108.828 160.451 109.022 161.091 109.382 161.584C109.742 162.078 110.288 162.324 111.022 162.324C111.995 162.324 112.575 161.898 112.762 161.044H115.142C114.982 162.018 114.535 162.784 113.802 163.344C113.042 163.931 112.115 164.224 111.022 164.224C109.742 164.224 108.668 163.758 107.802 162.824C106.908 161.851 106.462 160.604 106.462 159.084C106.462 157.524 106.908 156.271 107.802 155.324C108.655 154.418 109.728 153.964 111.022 153.964C112.368 153.964 113.415 154.438 114.162 155.384ZM111.042 155.844C110.375 155.844 109.855 156.064 109.482 156.504C109.108 156.931 108.888 157.484 108.822 158.164H112.962C112.962 157.111 112.628 156.404 111.962 156.044C111.708 155.911 111.402 155.844 111.042 155.844ZM120.347 156.144C120.934 154.744 121.814 154.044 122.987 154.044C123.214 154.044 123.5 154.091 123.847 154.184L123.807 156.544C123.434 156.464 123.067 156.424 122.707 156.424C121.134 156.424 120.347 157.511 120.347 159.684V163.944H117.987V154.204H120.347V156.144ZM127.627 160.984C127.654 161.904 128.327 162.364 129.647 162.364C130.154 162.364 130.567 162.258 130.887 162.044C131.221 161.818 131.387 161.558 131.387 161.264C131.387 160.971 131.287 160.744 131.087 160.584C130.887 160.424 130.574 160.278 130.147 160.144L128.027 159.384C126.454 158.838 125.667 157.944 125.667 156.704C125.667 155.878 126.034 155.218 126.767 154.724C127.514 154.218 128.507 153.964 129.747 153.964C131.001 153.964 131.961 154.238 132.627 154.784C133.307 155.331 133.661 156.018 133.687 156.844H131.467C131.441 156.524 131.287 156.271 131.007 156.084C130.727 155.898 130.327 155.804 129.807 155.804C129.287 155.804 128.881 155.911 128.587 156.124C128.307 156.324 128.167 156.558 128.167 156.824C128.167 157.291 128.561 157.638 129.347 157.864L131.647 158.724C132.407 158.978 132.987 159.304 133.387 159.704C133.801 160.091 134.007 160.598 134.007 161.224C134.007 162.024 133.627 162.718 132.867 163.304C132.081 163.918 131.041 164.224 129.747 164.224C128.454 164.224 127.414 163.944 126.627 163.384C125.841 162.811 125.441 162.011 125.427 160.984H127.627ZM142.773 154.224L144.733 161.164L146.593 154.764H148.733L150.593 161.184L152.573 154.224H154.933L151.733 163.944H149.413L147.613 158.124L145.853 163.944H143.513L140.293 154.224H142.773ZM160.269 158.264C161.042 158.264 161.936 158.391 162.949 158.644V157.684C162.949 157.004 162.809 156.504 162.529 156.184C162.262 155.851 161.816 155.684 161.189 155.684C160.576 155.684 160.102 155.811 159.769 156.064C159.436 156.304 159.269 156.651 159.269 157.104H156.689C156.689 155.998 157.076 155.198 157.849 154.704C158.636 154.211 159.729 153.964 161.129 153.964C163.129 153.964 164.422 154.664 165.009 156.064C165.209 156.544 165.309 157.111 165.309 157.764V163.944H163.249L163.069 162.644C162.442 163.698 161.482 164.224 160.189 164.224C158.936 164.224 157.962 163.918 157.269 163.304C156.629 162.718 156.309 161.978 156.309 161.084C156.309 160.178 156.662 159.484 157.369 159.004C158.076 158.511 159.042 158.264 160.269 158.264ZM162.949 160.144C162.162 159.931 161.429 159.824 160.749 159.824C159.469 159.824 158.829 160.251 158.829 161.104C158.829 161.464 158.976 161.778 159.269 162.044C159.562 162.298 160.029 162.424 160.669 162.424C161.322 162.424 161.856 162.211 162.269 161.784C162.696 161.344 162.922 160.798 162.949 160.144ZM171.069 155.904C171.709 154.611 172.735 153.964 174.149 153.964C175.349 153.964 176.249 154.358 176.849 155.144C177.462 155.931 177.769 156.971 177.769 158.264V163.944H175.409V158.264C175.409 157.544 175.235 157.004 174.889 156.644C174.542 156.271 174.055 156.084 173.429 156.084C172.802 156.084 172.262 156.364 171.809 156.924C171.369 157.484 171.135 158.324 171.109 159.444V163.944H168.749V154.224H170.809L171.069 155.904ZM186.69 163.704C185.81 164.051 185.116 164.224 184.61 164.224C184.103 164.224 183.656 164.164 183.27 164.044C182.896 163.924 182.563 163.744 182.27 163.504C181.656 162.958 181.35 162.204 181.35 161.244V155.804H179.99V154.224H181.35V151.664H183.71V154.224H186.35V155.804H183.71V161.164C183.71 161.964 184.09 162.364 184.85 162.364C185.236 162.364 185.736 162.258 186.35 162.044L186.69 163.704ZM199.639 163.704C198.759 164.051 198.066 164.224 197.559 164.224C197.052 164.224 196.606 164.164 196.219 164.044C195.846 163.924 195.512 163.744 195.219 163.504C194.606 162.958 194.299 162.204 194.299 161.244V155.804H192.939V154.224H194.299V151.664H196.659V154.224H199.299V155.804H196.659V161.164C196.659 161.964 197.039 162.364 197.799 162.364C198.186 162.364 198.686 162.258 199.299 162.044L199.639 163.704ZM205.87 153.964C206.523 153.964 207.136 154.071 207.71 154.284C208.283 154.484 208.776 154.798 209.19 155.224C210.11 156.158 210.57 157.451 210.57 159.104C210.57 160.731 210.11 162.011 209.19 162.944C208.363 163.798 207.256 164.224 205.87 164.224C204.483 164.224 203.363 163.798 202.51 162.944C201.59 162.024 201.13 160.744 201.13 159.104C201.13 157.438 201.59 156.144 202.51 155.224C203.35 154.384 204.47 153.964 205.87 153.964ZM208.21 159.084C208.21 158.058 208.01 157.291 207.61 156.784C207.21 156.264 206.65 156.004 205.93 156.004C205.223 156.004 204.643 156.264 204.19 156.784C203.736 157.291 203.51 158.058 203.51 159.084C203.51 160.111 203.71 160.884 204.11 161.404C204.523 161.911 205.083 162.164 205.79 162.164C206.496 162.164 207.076 161.911 207.53 161.404C207.983 160.884 208.21 160.111 208.21 159.084ZM48.7983 177.224L50.7583 184.164L52.6183 177.764H54.7583L56.6183 184.184L58.5983 177.224H60.9583L57.7583 186.944H55.4383L53.6383 181.124L51.8783 186.944H49.5383L46.3183 177.224H48.7983ZM66.9145 176.964C67.5678 176.964 68.1812 177.071 68.7545 177.284C69.3278 177.484 69.8212 177.798 70.2345 178.224C71.1545 179.158 71.6145 180.451 71.6145 182.104C71.6145 183.731 71.1545 185.011 70.2345 185.944C69.4078 186.798 68.3012 187.224 66.9145 187.224C65.5278 187.224 64.4078 186.798 63.5545 185.944C62.6345 185.024 62.1745 183.744 62.1745 182.104C62.1745 180.438 62.6345 179.144 63.5545 178.224C64.3945 177.384 65.5145 176.964 66.9145 176.964ZM69.2545 182.084C69.2545 181.058 69.0545 180.291 68.6545 179.784C68.2545 179.264 67.6945 179.004 66.9745 179.004C66.2678 179.004 65.6878 179.264 65.2345 179.784C64.7812 180.291 64.5545 181.058 64.5545 182.084C64.5545 183.111 64.7545 183.884 65.1545 184.404C65.5678 184.911 66.1278 185.164 66.8345 185.164C67.5412 185.164 68.1212 184.911 68.5745 184.404C69.0278 183.884 69.2545 183.111 69.2545 182.084ZM76.7826 179.144C77.3693 177.744 78.2493 177.044 79.4226 177.044C79.6493 177.044 79.936 177.091 80.2826 177.184L80.2426 179.544C79.8693 179.464 79.5026 179.424 79.1426 179.424C77.5693 179.424 76.7826 180.511 76.7826 182.684V186.944H74.4226V177.204H76.7826V179.144ZM86.1829 182.204L85.1029 183.104V186.944H82.7429V173.224H85.1029V180.644L88.9429 177.224H92.1429L87.8429 180.824L92.3829 186.944H89.5029L86.1829 182.204ZM103.125 176.964C103.779 176.964 104.392 177.071 104.965 177.284C105.539 177.484 106.032 177.798 106.445 178.224C107.365 179.158 107.825 180.451 107.825 182.104C107.825 183.731 107.365 185.011 106.445 185.944C105.619 186.798 104.512 187.224 103.125 187.224C101.739 187.224 100.619 186.798 99.7654 185.944C98.8454 185.024 98.3854 183.744 98.3854 182.104C98.3854 180.438 98.8454 179.144 99.7654 178.224C100.605 177.384 101.725 176.964 103.125 176.964ZM105.465 182.084C105.465 181.058 105.265 180.291 104.865 179.784C104.465 179.264 103.905 179.004 103.185 179.004C102.479 179.004 101.899 179.264 101.445 179.784C100.992 180.291 100.765 181.058 100.765 182.084C100.765 183.111 100.965 183.884 101.365 184.404C101.779 184.911 102.339 185.164 103.045 185.164C103.752 185.164 104.332 184.911 104.785 184.404C105.239 183.884 105.465 183.111 105.465 182.084ZM112.954 178.904C113.594 177.611 114.62 176.964 116.034 176.964C117.234 176.964 118.134 177.358 118.734 178.144C119.347 178.931 119.654 179.971 119.654 181.264V186.944H117.294V181.264C117.294 180.544 117.12 180.004 116.774 179.644C116.427 179.271 115.94 179.084 115.314 179.084C114.687 179.084 114.147 179.364 113.694 179.924C113.254 180.484 113.02 181.324 112.994 182.444V186.944H110.634V177.224H112.694L112.954 178.904ZM131.853 176.964C132.466 176.964 133.013 177.071 133.493 177.284C133.986 177.484 134.4 177.751 134.733 178.084C135.4 178.724 135.793 179.531 135.913 180.504L133.533 180.564C133.426 180.138 133.226 179.784 132.933 179.504C132.653 179.224 132.326 179.084 131.953 179.084C131.58 179.084 131.26 179.144 130.993 179.264C130.726 179.371 130.493 179.544 130.293 179.784C129.84 180.344 129.613 181.118 129.613 182.104C129.613 183.091 129.826 183.838 130.253 184.344C130.68 184.838 131.193 185.084 131.793 185.084C132.406 185.084 132.846 184.944 133.113 184.664C133.393 184.371 133.533 183.978 133.533 183.484H135.913C135.913 184.551 135.56 185.438 134.853 186.144C134.133 186.864 133.126 187.224 131.833 187.224C130.553 187.224 129.48 186.758 128.613 185.824C127.693 184.824 127.233 183.578 127.233 182.084C127.233 180.511 127.693 179.251 128.613 178.304C129.48 177.411 130.56 176.964 131.853 176.964ZM142.579 176.964C143.232 176.964 143.845 177.071 144.419 177.284C144.992 177.484 145.485 177.798 145.899 178.224C146.819 179.158 147.279 180.451 147.279 182.104C147.279 183.731 146.819 185.011 145.899 185.944C145.072 186.798 143.965 187.224 142.579 187.224C141.192 187.224 140.072 186.798 139.219 185.944C138.299 185.024 137.839 183.744 137.839 182.104C137.839 180.438 138.299 179.144 139.219 178.224C140.059 177.384 141.179 176.964 142.579 176.964ZM144.919 182.084C144.919 181.058 144.719 180.291 144.319 179.784C143.919 179.264 143.359 179.004 142.639 179.004C141.932 179.004 141.352 179.264 140.899 179.784C140.445 180.291 140.219 181.058 140.219 182.084C140.219 183.111 140.419 183.884 140.819 184.404C141.232 184.911 141.792 185.164 142.499 185.164C143.205 185.164 143.785 184.911 144.239 184.404C144.692 183.884 144.919 183.111 144.919 182.084ZM152.407 178.904C153.047 177.611 154.073 176.964 155.487 176.964C156.687 176.964 157.587 177.358 158.187 178.144C158.8 178.931 159.107 179.971 159.107 181.264V186.944H156.747V181.264C156.747 180.544 156.573 180.004 156.227 179.644C155.88 179.271 155.393 179.084 154.767 179.084C154.14 179.084 153.6 179.364 153.147 179.924C152.707 180.484 152.473 181.324 152.447 182.444V186.944H150.087V177.224H152.147L152.407 178.904ZM168.028 186.704C167.148 187.051 166.454 187.224 165.948 187.224C165.441 187.224 164.994 187.164 164.608 187.044C164.234 186.924 163.901 186.744 163.608 186.504C162.994 185.958 162.688 185.204 162.688 184.244V178.804H161.328V177.224H162.688V174.664H165.048V177.224H167.688V178.804H165.048V184.164C165.048 184.964 165.428 185.364 166.188 185.364C166.574 185.364 167.074 185.258 167.688 185.044L168.028 186.704ZM177.218 178.384C177.552 178.811 177.798 179.304 177.958 179.864C178.132 180.424 178.218 180.938 178.218 181.404C178.218 181.871 178.192 182.291 178.138 182.664H171.858C171.885 183.451 172.078 184.091 172.438 184.584C172.798 185.078 173.345 185.324 174.078 185.324C175.052 185.324 175.632 184.898 175.818 184.044H178.198C178.038 185.018 177.592 185.784 176.858 186.344C176.098 186.931 175.172 187.224 174.078 187.224C172.798 187.224 171.725 186.758 170.858 185.824C169.965 184.851 169.518 183.604 169.518 182.084C169.518 180.524 169.965 179.271 170.858 178.324C171.712 177.418 172.785 176.964 174.078 176.964C175.425 176.964 176.472 177.438 177.218 178.384ZM174.098 178.844C173.432 178.844 172.912 179.064 172.538 179.504C172.165 179.931 171.945 180.484 171.878 181.164H176.018C176.018 180.111 175.685 179.404 175.018 179.044C174.765 178.911 174.458 178.844 174.098 178.844ZM183.364 178.904C184.004 177.611 185.03 176.964 186.444 176.964C187.644 176.964 188.544 177.358 189.144 178.144C189.757 178.931 190.064 179.971 190.064 181.264V186.944H187.704V181.264C187.704 180.544 187.53 180.004 187.184 179.644C186.837 179.271 186.35 179.084 185.724 179.084C185.097 179.084 184.557 179.364 184.104 179.924C183.664 180.484 183.43 181.324 183.404 182.444V186.944H181.044V177.224H183.104L183.364 178.904ZM198.985 186.704C198.105 187.051 197.411 187.224 196.905 187.224C196.398 187.224 195.951 187.164 195.565 187.044C195.191 186.924 194.858 186.744 194.565 186.504C193.951 185.958 193.645 185.204 193.645 184.244V178.804H192.285V177.224H193.645V174.664H196.005V177.224H198.645V178.804H196.005V184.164C196.005 184.964 196.385 185.364 197.145 185.364C197.531 185.364 198.031 185.258 198.645 185.044L198.985 186.704ZM209.654 181.264C210.427 181.264 211.321 181.391 212.334 181.644V180.684C212.334 180.004 212.194 179.504 211.914 179.184C211.647 178.851 211.201 178.684 210.574 178.684C209.961 178.684 209.487 178.811 209.154 179.064C208.821 179.304 208.654 179.651 208.654 180.104H206.074C206.074 178.998 206.461 178.198 207.234 177.704C208.021 177.211 209.114 176.964 210.514 176.964C212.514 176.964 213.807 177.664 214.394 179.064C214.594 179.544 214.694 180.111 214.694 180.764V186.944H212.634L212.454 185.644C211.827 186.698 210.867 187.224 209.574 187.224C208.321 187.224 207.347 186.918 206.654 186.304C206.014 185.718 205.694 184.978 205.694 184.084C205.694 183.178 206.047 182.484 206.754 182.004C207.461 181.511 208.427 181.264 209.654 181.264ZM212.334 183.144C211.547 182.931 210.814 182.824 210.134 182.824C208.854 182.824 208.214 183.251 208.214 184.104C208.214 184.464 208.361 184.778 208.654 185.044C208.947 185.298 209.414 185.424 210.054 185.424C210.707 185.424 211.241 185.211 211.654 184.784C212.081 184.344 212.307 183.798 212.334 183.144ZM223.614 186.704C222.734 187.051 222.04 187.224 221.534 187.224C221.027 187.224 220.58 187.164 220.194 187.044C219.82 186.924 219.487 186.744 219.194 186.504C218.58 185.958 218.274 185.204 218.274 184.244V178.804H216.914V177.224H218.274V174.664H220.634V177.224H223.274V178.804H220.634V184.164C220.634 184.964 221.014 185.364 221.774 185.364C222.16 185.364 222.66 185.258 223.274 185.044L223.614 186.704ZM73.9944 209.704C73.1144 210.051 72.4211 210.224 71.9144 210.224C71.4078 210.224 70.9611 210.164 70.5744 210.044C70.2011 209.924 69.8678 209.744 69.5744 209.504C68.9611 208.958 68.6544 208.204 68.6544 207.244V201.804H67.2944V200.224H68.6544V197.664H71.0144V200.224H73.6544V201.804H71.0144V207.164C71.0144 207.964 71.3944 208.364 72.1544 208.364C72.5411 208.364 73.0411 208.258 73.6544 208.044L73.9944 209.704ZM78.7651 201.804C79.4317 200.578 80.4051 199.964 81.6851 199.964C82.9651 199.964 83.9051 200.358 84.5051 201.144C85.1184 201.931 85.4251 202.971 85.4251 204.264V209.944H83.0651V204.264C83.0651 203.544 82.8917 203.004 82.5451 202.644C82.1984 202.271 81.7117 202.084 81.0851 202.084C80.4584 202.084 79.9184 202.364 79.4651 202.924C79.0251 203.484 78.7917 204.324 78.7651 205.444V209.944H76.4051V196.224H78.7651V201.804ZM95.646 201.384C95.9793 201.811 96.226 202.304 96.386 202.864C96.5593 203.424 96.646 203.938 96.646 204.404C96.646 204.871 96.6193 205.291 96.566 205.664H90.286C90.3127 206.451 90.506 207.091 90.866 207.584C91.226 208.078 91.7727 208.324 92.506 208.324C93.4793 208.324 94.0593 207.898 94.246 207.044H96.626C96.466 208.018 96.0193 208.784 95.286 209.344C94.526 209.931 93.5993 210.224 92.506 210.224C91.226 210.224 90.1527 209.758 89.286 208.824C88.3927 207.851 87.946 206.604 87.946 205.084C87.946 203.524 88.3927 202.271 89.286 201.324C90.1393 200.418 91.2127 199.964 92.506 199.964C93.8527 199.964 94.8993 200.438 95.646 201.384ZM92.526 201.844C91.8593 201.844 91.3393 202.064 90.966 202.504C90.5927 202.931 90.3727 203.484 90.306 204.164H94.446C94.446 203.111 94.1127 202.404 93.446 202.044C93.1927 201.911 92.886 201.844 92.526 201.844ZM105.85 206.984C105.877 207.904 106.55 208.364 107.87 208.364C108.377 208.364 108.79 208.258 109.11 208.044C109.443 207.818 109.61 207.558 109.61 207.264C109.61 206.971 109.51 206.744 109.31 206.584C109.11 206.424 108.797 206.278 108.37 206.144L106.25 205.384C104.677 204.838 103.89 203.944 103.89 202.704C103.89 201.878 104.257 201.218 104.99 200.724C105.737 200.218 106.73 199.964 107.97 199.964C109.223 199.964 110.183 200.238 110.85 200.784C111.53 201.331 111.883 202.018 111.91 202.844H109.69C109.663 202.524 109.51 202.271 109.23 202.084C108.95 201.898 108.55 201.804 108.03 201.804C107.51 201.804 107.103 201.911 106.81 202.124C106.53 202.324 106.39 202.558 106.39 202.824C106.39 203.291 106.783 203.638 107.57 203.864L109.87 204.724C110.63 204.978 111.21 205.304 111.61 205.704C112.023 206.091 112.23 206.598 112.23 207.224C112.23 208.024 111.85 208.718 111.09 209.304C110.303 209.918 109.263 210.224 107.97 210.224C106.677 210.224 105.637 209.944 104.85 209.384C104.063 208.811 103.663 208.011 103.65 206.984H105.85ZM118.277 204.264C119.05 204.264 119.944 204.391 120.957 204.644V203.684C120.957 203.004 120.817 202.504 120.537 202.184C120.27 201.851 119.824 201.684 119.197 201.684C118.584 201.684 118.11 201.811 117.777 202.064C117.444 202.304 117.277 202.651 117.277 203.104H114.697C114.697 201.998 115.084 201.198 115.857 200.704C116.644 200.211 117.737 199.964 119.137 199.964C121.137 199.964 122.43 200.664 123.017 202.064C123.217 202.544 123.317 203.111 123.317 203.764V209.944H121.257L121.077 208.644C120.45 209.698 119.49 210.224 118.197 210.224C116.944 210.224 115.97 209.918 115.277 209.304C114.637 208.718 114.317 207.978 114.317 207.084C114.317 206.178 114.67 205.484 115.377 205.004C116.084 204.511 117.05 204.264 118.277 204.264ZM120.957 206.144C120.17 205.931 119.437 205.824 118.757 205.824C117.477 205.824 116.837 206.251 116.837 207.104C116.837 207.464 116.984 207.778 117.277 208.044C117.57 208.298 118.037 208.424 118.677 208.424C119.33 208.424 119.864 208.211 120.277 207.784C120.704 207.344 120.93 206.798 120.957 206.144ZM135.397 202.064C136.023 200.664 137.123 199.964 138.697 199.964C139.857 199.964 140.757 200.358 141.397 201.144C142.01 201.891 142.317 202.931 142.317 204.264V209.944H139.937V204.264C139.937 203.544 139.763 203.004 139.417 202.644C139.07 202.271 138.583 202.084 137.957 202.084C137.33 202.084 136.817 202.358 136.417 202.904C136.017 203.451 135.803 204.278 135.777 205.384V209.944H133.417V204.264C133.417 203.544 133.243 203.004 132.897 202.644C132.55 202.271 132.063 202.084 131.437 202.084C130.81 202.084 130.27 202.364 129.817 202.924C129.377 203.484 129.143 204.324 129.117 205.444V209.944H126.757V200.224H128.817L129.077 201.904C129.717 200.611 130.743 199.964 132.157 199.964C132.97 199.964 133.643 200.151 134.177 200.524C134.723 200.898 135.13 201.411 135.397 202.064ZM152.521 201.384C152.854 201.811 153.101 202.304 153.261 202.864C153.434 203.424 153.521 203.938 153.521 204.404C153.521 204.871 153.494 205.291 153.441 205.664H147.161C147.188 206.451 147.381 207.091 147.741 207.584C148.101 208.078 148.648 208.324 149.381 208.324C150.354 208.324 150.934 207.898 151.121 207.044H153.501C153.341 208.018 152.894 208.784 152.161 209.344C151.401 209.931 150.474 210.224 149.381 210.224C148.101 210.224 147.028 209.758 146.161 208.824C145.268 207.851 144.821 206.604 144.821 205.084C144.821 203.524 145.268 202.271 146.161 201.324C147.014 200.418 148.088 199.964 149.381 199.964C150.728 199.964 151.774 200.438 152.521 201.384ZM149.401 201.844C148.734 201.844 148.214 202.064 147.841 202.504C147.468 202.931 147.248 203.484 147.181 204.164H151.321C151.321 203.111 150.988 202.404 150.321 202.044C150.068 201.911 149.761 201.844 149.401 201.844ZM166.885 209.704C166.005 210.051 165.312 210.224 164.805 210.224C164.298 210.224 163.852 210.164 163.465 210.044C163.092 209.924 162.758 209.744 162.465 209.504C161.852 208.958 161.545 208.204 161.545 207.244V201.804H160.185V200.224H161.545V197.664H163.905V200.224H166.545V201.804H163.905V207.164C163.905 207.964 164.285 208.364 165.045 208.364C165.432 208.364 165.932 208.258 166.545 208.044L166.885 209.704ZM169.496 200.204H171.856V209.944H169.496V200.204ZM169.216 197.084C169.216 196.658 169.342 196.324 169.596 196.084C169.849 195.831 170.209 195.704 170.676 195.704C171.129 195.704 171.482 195.831 171.736 196.084C172.002 196.324 172.136 196.658 172.136 197.084C172.136 197.511 172.002 197.851 171.736 198.104C171.482 198.344 171.129 198.464 170.676 198.464C170.209 198.464 169.849 198.344 169.596 198.104C169.342 197.851 169.216 197.511 169.216 197.084ZM184.498 202.064C185.125 200.664 186.225 199.964 187.798 199.964C188.958 199.964 189.858 200.358 190.498 201.144C191.112 201.891 191.418 202.931 191.418 204.264V209.944H189.038V204.264C189.038 203.544 188.865 203.004 188.518 202.644C188.172 202.271 187.685 202.084 187.058 202.084C186.432 202.084 185.918 202.358 185.518 202.904C185.118 203.451 184.905 204.278 184.878 205.384V209.944H182.518V204.264C182.518 203.544 182.345 203.004 181.998 202.644C181.652 202.271 181.165 202.084 180.538 202.084C179.912 202.084 179.372 202.364 178.918 202.924C178.478 203.484 178.245 204.324 178.218 205.444V209.944H175.858V200.224H177.918L178.178 201.904C178.818 200.611 179.845 199.964 181.258 199.964C182.072 199.964 182.745 200.151 183.278 200.524C183.825 200.898 184.232 201.411 184.498 202.064ZM201.623 201.384C201.956 201.811 202.203 202.304 202.363 202.864C202.536 203.424 202.623 203.938 202.623 204.404C202.623 204.871 202.596 205.291 202.543 205.664H196.263C196.289 206.451 196.483 207.091 196.843 207.584C197.203 208.078 197.749 208.324 198.483 208.324C199.456 208.324 200.036 207.898 200.223 207.044H202.603C202.443 208.018 201.996 208.784 201.263 209.344C200.503 209.931 199.576 210.224 198.483 210.224C197.203 210.224 196.129 209.758 195.263 208.824C194.369 207.851 193.923 206.604 193.923 205.084C193.923 203.524 194.369 202.271 195.263 201.324C196.116 200.418 197.189 199.964 198.483 199.964C199.829 199.964 200.876 200.438 201.623 201.384ZM198.503 201.844C197.836 201.844 197.316 202.064 196.943 202.504C196.569 202.931 196.349 203.484 196.283 204.164H200.423C200.423 203.111 200.089 202.404 199.423 202.044C199.169 201.911 198.863 201.844 198.503 201.844Z" fill="black"/>
</svg>
