<svg width="303" height="313" viewBox="0 0 303 313" fill="none" xmlns="http://www.w3.org/2000/svg">
<ellipse cx="151.045" cy="151.452" rx="134.667" ry="135.848" fill="#FDE54A"/>
<ellipse cx="134.667" cy="177.152" rx="134.667" ry="135.848" fill="#FB9F99"/>
<path d="M100.36 132C100.12 132 99.9278 131.928 99.7838 131.784C99.6398 131.616 99.5678 131.412 99.5678 131.172V110.868L93.5198 115.512C93.3518 115.656 93.1718 115.728 92.9798 115.728C92.7638 115.728 92.5598 115.608 92.3678 115.368L91.5038 114.252C91.3838 114.084 91.3238 113.916 91.3238 113.748C91.3238 113.484 91.4438 113.268 91.6838 113.1L99.4958 107.052C99.7598 106.884 100.072 106.8 100.432 106.8H102.124C102.364 106.8 102.556 106.884 102.7 107.052C102.868 107.196 102.952 107.388 102.952 107.628V131.172C102.952 131.412 102.868 131.616 102.7 131.784C102.556 131.928 102.364 132 102.124 132H100.36ZM117.093 132.36C113.997 132.36 111.729 131.46 110.289 129.66C108.873 127.836 108.117 125.46 108.021 122.532L107.985 119.436L108.021 116.232C108.093 113.328 108.849 110.976 110.289 109.176C111.753 107.352 114.021 106.44 117.093 106.44C120.189 106.44 122.457 107.352 123.897 109.176C125.361 110.976 126.129 113.328 126.201 116.232C126.225 116.904 126.237 117.972 126.237 119.436C126.237 120.852 126.225 121.884 126.201 122.532C126.105 125.46 125.337 127.836 123.897 129.66C122.481 131.46 120.213 132.36 117.093 132.36ZM117.093 129.372C118.941 129.372 120.333 128.76 121.269 127.536C122.205 126.312 122.697 124.584 122.745 122.352C122.769 121.656 122.781 120.66 122.781 119.364C122.781 118.044 122.769 117.06 122.745 116.412C122.697 114.204 122.193 112.488 121.233 111.264C120.297 110.016 118.917 109.392 117.093 109.392C115.269 109.392 113.889 110.016 112.953 111.264C112.017 112.488 111.525 114.204 111.477 116.412L111.441 119.364L111.477 122.352C111.525 124.584 112.017 126.312 112.953 127.536C113.889 128.76 115.269 129.372 117.093 129.372ZM139.874 132.36C136.778 132.36 134.51 131.46 133.07 129.66C131.654 127.836 130.898 125.46 130.802 122.532L130.766 119.436L130.802 116.232C130.874 113.328 131.63 110.976 133.07 109.176C134.534 107.352 136.802 106.44 139.874 106.44C142.97 106.44 145.238 107.352 146.678 109.176C148.142 110.976 148.91 113.328 148.982 116.232C149.006 116.904 149.018 117.972 149.018 119.436C149.018 120.852 149.006 121.884 148.982 122.532C148.886 125.46 148.118 127.836 146.678 129.66C145.262 131.46 142.994 132.36 139.874 132.36ZM139.874 129.372C141.722 129.372 143.114 128.76 144.05 127.536C144.986 126.312 145.478 124.584 145.526 122.352C145.55 121.656 145.562 120.66 145.562 119.364C145.562 118.044 145.55 117.06 145.526 116.412C145.478 114.204 144.974 112.488 144.014 111.264C143.078 110.016 141.698 109.392 139.874 109.392C138.05 109.392 136.67 110.016 135.734 111.264C134.798 112.488 134.306 114.204 134.258 116.412L134.222 119.364L134.258 122.352C134.306 124.584 134.798 126.312 135.734 127.536C136.67 128.76 138.05 129.372 139.874 129.372ZM158.227 119.436C156.667 119.436 155.431 119.028 154.519 118.212C153.631 117.372 153.151 116.22 153.079 114.756C153.055 114.348 153.043 113.82 153.043 113.172C153.043 112.476 153.055 111.912 153.079 111.48C153.151 109.992 153.619 108.816 154.483 107.952C155.347 107.064 156.595 106.62 158.227 106.62C159.859 106.62 161.107 107.064 161.971 107.952C162.859 108.816 163.339 109.992 163.411 111.48C163.459 112.344 163.483 112.908 163.483 113.172C163.483 113.412 163.459 113.94 163.411 114.756C163.339 116.22 162.847 117.372 161.935 118.212C161.023 119.028 159.787 119.436 158.227 119.436ZM155.203 132C154.987 132 154.807 131.94 154.663 131.82C154.519 131.676 154.447 131.496 154.447 131.28C154.447 131.136 154.495 131.004 154.591 130.884L172.375 107.484C172.567 107.22 172.735 107.04 172.879 106.944C173.047 106.848 173.275 106.8 173.563 106.8H174.715C174.931 106.8 175.099 106.872 175.219 107.016C175.363 107.136 175.435 107.304 175.435 107.52C175.435 107.664 175.387 107.796 175.291 107.916L157.543 131.316C157.351 131.556 157.171 131.736 157.003 131.856C156.859 131.952 156.643 132 156.355 132H155.203ZM158.227 117.24C159.091 117.24 159.727 116.988 160.135 116.484C160.543 115.98 160.783 115.356 160.855 114.612C160.903 113.748 160.927 113.244 160.927 113.1C160.927 112.884 160.903 112.392 160.855 111.624C160.807 110.88 160.567 110.256 160.135 109.752C159.727 109.224 159.091 108.96 158.227 108.96C157.363 108.96 156.727 109.224 156.319 109.752C155.911 110.256 155.683 110.88 155.635 111.624C155.611 112.008 155.599 112.5 155.599 113.1C155.599 113.676 155.611 114.18 155.635 114.612C155.707 115.332 155.935 115.956 156.319 116.484C156.727 116.988 157.363 117.24 158.227 117.24ZM171.619 132.216C170.059 132.216 168.823 131.772 167.911 130.884C167.023 129.996 166.543 128.82 166.471 127.356C166.423 126.636 166.399 126.156 166.399 125.916C166.399 125.676 166.423 125.076 166.471 124.116C166.543 122.628 167.011 121.452 167.875 120.588C168.739 119.7 169.987 119.256 171.619 119.256C173.251 119.256 174.499 119.7 175.363 120.588C176.251 121.452 176.731 122.628 176.803 124.116C176.851 124.98 176.875 125.532 176.875 125.772C176.875 126.012 176.851 126.54 176.803 127.356C176.731 128.82 176.239 129.996 175.327 130.884C174.415 131.772 173.179 132.216 171.619 132.216ZM171.619 129.876C172.483 129.876 173.119 129.624 173.527 129.12C173.935 128.616 174.175 127.992 174.247 127.248C174.295 126.384 174.319 125.868 174.319 125.7C174.319 125.508 174.295 125.028 174.247 124.26C174.199 123.516 173.959 122.892 173.527 122.388C173.119 121.86 172.483 121.596 171.619 121.596C170.755 121.596 170.119 121.86 169.711 122.388C169.303 122.892 169.075 123.516 169.027 124.26C169.003 124.644 168.991 125.124 168.991 125.7C168.991 126.3 169.003 126.816 169.027 127.248C169.075 127.968 169.303 128.592 169.711 129.12C170.119 129.624 170.755 129.876 171.619 129.876Z" fill="white"/>
<path d="M63.8286 148.964C64.4819 148.964 65.0952 149.071 65.6686 149.284C66.2419 149.484 66.7352 149.798 67.1486 150.224C68.0686 151.158 68.5286 152.451 68.5286 154.104C68.5286 155.731 68.0686 157.011 67.1486 157.944C66.3219 158.798 65.2152 159.224 63.8286 159.224C62.4419 159.224 61.3219 158.798 60.4686 157.944C59.5486 157.024 59.0886 155.744 59.0886 154.104C59.0886 152.438 59.5486 151.144 60.4686 150.224C61.3086 149.384 62.4286 148.964 63.8286 148.964ZM66.1686 154.084C66.1686 153.058 65.9686 152.291 65.5686 151.784C65.1686 151.264 64.6086 151.004 63.8886 151.004C63.1819 151.004 62.6019 151.264 62.1486 151.784C61.6952 152.291 61.4686 153.058 61.4686 154.084C61.4686 155.111 61.6686 155.884 62.0686 156.404C62.4819 156.911 63.0419 157.164 63.7486 157.164C64.4552 157.164 65.0352 156.911 65.4886 156.404C65.9419 155.884 66.1686 155.111 66.1686 154.084ZM70.2767 149.224H71.7167V148.084C71.7167 147.084 72.01 146.318 72.5967 145.784C73.13 145.304 73.8234 145.064 74.6767 145.064C75.2234 145.064 75.8967 145.144 76.6967 145.304L76.2367 147.124C75.8634 146.991 75.5234 146.924 75.2167 146.924C74.9234 146.924 74.6634 147.011 74.4367 147.184C74.21 147.344 74.0967 147.651 74.0967 148.104V149.224H75.8767V150.804H74.0967V158.944H71.7167V150.804H70.2767V149.224ZM90.1795 157.184C89.5662 158.478 88.5795 159.124 87.2195 159.124C85.4995 159.124 84.3662 158.451 83.8195 157.104C83.6195 156.638 83.5195 156.071 83.5195 155.404V149.204H85.8795V155.164C85.8795 155.804 86.0328 156.284 86.3395 156.604C86.6462 156.911 87.0195 157.064 87.4595 157.064C87.9128 157.064 88.2928 157.004 88.5995 156.884C88.9062 156.751 89.1728 156.558 89.3995 156.304C89.8928 155.731 90.1528 154.964 90.1795 154.004V149.204H92.5395V158.944H90.1795V157.184ZM97.5786 155.984C97.6052 156.904 98.2786 157.364 99.5986 157.364C100.105 157.364 100.519 157.258 100.839 157.044C101.172 156.818 101.339 156.558 101.339 156.264C101.339 155.971 101.239 155.744 101.039 155.584C100.839 155.424 100.525 155.278 100.099 155.144L97.9786 154.384C96.4052 153.838 95.6186 152.944 95.6186 151.704C95.6186 150.878 95.9852 150.218 96.7186 149.724C97.4652 149.218 98.4586 148.964 99.6986 148.964C100.952 148.964 101.912 149.238 102.579 149.784C103.259 150.331 103.612 151.018 103.639 151.844H101.419C101.392 151.524 101.239 151.271 100.959 151.084C100.679 150.898 100.279 150.804 99.7586 150.804C99.2386 150.804 98.8319 150.911 98.5386 151.124C98.2586 151.324 98.1186 151.558 98.1186 151.824C98.1186 152.291 98.5119 152.638 99.2986 152.864L101.599 153.724C102.359 153.978 102.939 154.304 103.339 154.704C103.752 155.091 103.959 155.598 103.959 156.224C103.959 157.024 103.579 157.718 102.819 158.304C102.032 158.918 100.992 159.224 99.6986 159.224C98.4052 159.224 97.3652 158.944 96.5786 158.384C95.7919 157.811 95.3919 157.011 95.3786 155.984H97.5786ZM113.585 150.384C113.919 150.811 114.165 151.304 114.325 151.864C114.499 152.424 114.585 152.938 114.585 153.404C114.585 153.871 114.559 154.291 114.505 154.664H108.225C108.252 155.451 108.445 156.091 108.805 156.584C109.165 157.078 109.712 157.324 110.445 157.324C111.419 157.324 111.999 156.898 112.185 156.044H114.565C114.405 157.018 113.959 157.784 113.225 158.344C112.465 158.931 111.539 159.224 110.445 159.224C109.165 159.224 108.092 158.758 107.225 157.824C106.332 156.851 105.885 155.604 105.885 154.084C105.885 152.524 106.332 151.271 107.225 150.324C108.079 149.418 109.152 148.964 110.445 148.964C111.792 148.964 112.839 149.438 113.585 150.384ZM110.465 150.844C109.799 150.844 109.279 151.064 108.905 151.504C108.532 151.931 108.312 152.484 108.245 153.164H112.385C112.385 152.111 112.052 151.404 111.385 151.044C111.132 150.911 110.825 150.844 110.465 150.844ZM119.771 151.144C120.358 149.744 121.238 149.044 122.411 149.044C122.638 149.044 122.924 149.091 123.271 149.184L123.231 151.544C122.858 151.464 122.491 151.424 122.131 151.424C120.558 151.424 119.771 152.511 119.771 154.684V158.944H117.411V149.204H119.771V151.144ZM127.051 155.984C127.078 156.904 127.751 157.364 129.071 157.364C129.578 157.364 129.991 157.258 130.311 157.044C130.645 156.818 130.811 156.558 130.811 156.264C130.811 155.971 130.711 155.744 130.511 155.584C130.311 155.424 129.998 155.278 129.571 155.144L127.451 154.384C125.878 153.838 125.091 152.944 125.091 151.704C125.091 150.878 125.458 150.218 126.191 149.724C126.938 149.218 127.931 148.964 129.171 148.964C130.425 148.964 131.385 149.238 132.051 149.784C132.731 150.331 133.085 151.018 133.111 151.844H130.891C130.865 151.524 130.711 151.271 130.431 151.084C130.151 150.898 129.751 150.804 129.231 150.804C128.711 150.804 128.305 150.911 128.011 151.124C127.731 151.324 127.591 151.558 127.591 151.824C127.591 152.291 127.985 152.638 128.771 152.864L131.071 153.724C131.831 153.978 132.411 154.304 132.811 154.704C133.225 155.091 133.431 155.598 133.431 156.224C133.431 157.024 133.051 157.718 132.291 158.304C131.505 158.918 130.465 159.224 129.171 159.224C127.878 159.224 126.838 158.944 126.051 158.384C125.265 157.811 124.865 157.011 124.851 155.984H127.051ZM142.197 149.224L144.157 156.164L146.017 149.764H148.157L150.017 156.184L151.997 149.224H154.357L151.157 158.944H148.837L147.037 153.124L145.277 158.944H142.937L139.717 149.224H142.197ZM159.693 153.264C160.466 153.264 161.36 153.391 162.373 153.644V152.684C162.373 152.004 162.233 151.504 161.953 151.184C161.686 150.851 161.24 150.684 160.613 150.684C160 150.684 159.526 150.811 159.193 151.064C158.86 151.304 158.693 151.651 158.693 152.104H156.113C156.113 150.998 156.5 150.198 157.273 149.704C158.06 149.211 159.153 148.964 160.553 148.964C162.553 148.964 163.846 149.664 164.433 151.064C164.633 151.544 164.733 152.111 164.733 152.764V158.944H162.673L162.493 157.644C161.866 158.698 160.906 159.224 159.613 159.224C158.36 159.224 157.386 158.918 156.693 158.304C156.053 157.718 155.733 156.978 155.733 156.084C155.733 155.178 156.086 154.484 156.793 154.004C157.5 153.511 158.466 153.264 159.693 153.264ZM162.373 155.144C161.586 154.931 160.853 154.824 160.173 154.824C158.893 154.824 158.253 155.251 158.253 156.104C158.253 156.464 158.4 156.778 158.693 157.044C158.986 157.298 159.453 157.424 160.093 157.424C160.746 157.424 161.28 157.211 161.693 156.784C162.12 156.344 162.346 155.798 162.373 155.144ZM170.493 150.904C171.133 149.611 172.159 148.964 173.573 148.964C174.773 148.964 175.673 149.358 176.273 150.144C176.886 150.931 177.193 151.971 177.193 153.264V158.944H174.833V153.264C174.833 152.544 174.659 152.004 174.313 151.644C173.966 151.271 173.479 151.084 172.853 151.084C172.226 151.084 171.686 151.364 171.233 151.924C170.793 152.484 170.559 153.324 170.533 154.444V158.944H168.173V149.224H170.233L170.493 150.904ZM186.114 158.704C185.234 159.051 184.54 159.224 184.034 159.224C183.527 159.224 183.08 159.164 182.694 159.044C182.32 158.924 181.987 158.744 181.694 158.504C181.08 157.958 180.774 157.204 180.774 156.244V150.804H179.414V149.224H180.774V146.664H183.134V149.224H185.774V150.804H183.134V156.164C183.134 156.964 183.514 157.364 184.274 157.364C184.66 157.364 185.16 157.258 185.774 157.044L186.114 158.704ZM199.063 158.704C198.183 159.051 197.489 159.224 196.983 159.224C196.476 159.224 196.029 159.164 195.643 159.044C195.269 158.924 194.936 158.744 194.643 158.504C194.029 157.958 193.723 157.204 193.723 156.244V150.804H192.363V149.224H193.723V146.664H196.083V149.224H198.723V150.804H196.083V156.164C196.083 156.964 196.463 157.364 197.223 157.364C197.609 157.364 198.109 157.258 198.723 157.044L199.063 158.704ZM205.293 148.964C205.947 148.964 206.56 149.071 207.133 149.284C207.707 149.484 208.2 149.798 208.613 150.224C209.533 151.158 209.993 152.451 209.993 154.104C209.993 155.731 209.533 157.011 208.613 157.944C207.787 158.798 206.68 159.224 205.293 159.224C203.907 159.224 202.787 158.798 201.933 157.944C201.013 157.024 200.553 155.744 200.553 154.104C200.553 152.438 201.013 151.144 201.933 150.224C202.773 149.384 203.893 148.964 205.293 148.964ZM207.633 154.084C207.633 153.058 207.433 152.291 207.033 151.784C206.633 151.264 206.073 151.004 205.353 151.004C204.647 151.004 204.067 151.264 203.613 151.784C203.16 152.291 202.933 153.058 202.933 154.084C202.933 155.111 203.133 155.884 203.533 156.404C203.947 156.911 204.507 157.164 205.213 157.164C205.92 157.164 206.5 156.911 206.953 156.404C207.407 155.884 207.633 155.111 207.633 154.084ZM48.2221 172.224L50.1821 179.164L52.0421 172.764H54.1821L56.0421 179.184L58.0221 172.224H60.3821L57.1821 181.944H54.8621L53.0621 176.124L51.3021 181.944H48.9621L45.7421 172.224H48.2221ZM66.3383 171.964C66.9917 171.964 67.605 172.071 68.1783 172.284C68.7517 172.484 69.245 172.798 69.6583 173.224C70.5783 174.158 71.0383 175.451 71.0383 177.104C71.0383 178.731 70.5783 180.011 69.6583 180.944C68.8317 181.798 67.725 182.224 66.3383 182.224C64.9517 182.224 63.8317 181.798 62.9783 180.944C62.0583 180.024 61.5983 178.744 61.5983 177.104C61.5983 175.438 62.0583 174.144 62.9783 173.224C63.8183 172.384 64.9383 171.964 66.3383 171.964ZM68.6783 177.084C68.6783 176.058 68.4783 175.291 68.0783 174.784C67.6783 174.264 67.1183 174.004 66.3983 174.004C65.6917 174.004 65.1117 174.264 64.6583 174.784C64.205 175.291 63.9783 176.058 63.9783 177.084C63.9783 178.111 64.1783 178.884 64.5783 179.404C64.9917 179.911 65.5517 180.164 66.2583 180.164C66.965 180.164 67.545 179.911 67.9983 179.404C68.4517 178.884 68.6783 178.111 68.6783 177.084ZM76.2065 174.144C76.7931 172.744 77.6731 172.044 78.8465 172.044C79.0731 172.044 79.3598 172.091 79.7065 172.184L79.6665 174.544C79.2931 174.464 78.9265 174.424 78.5665 174.424C76.9931 174.424 76.2065 175.511 76.2065 177.684V181.944H73.8465V172.204H76.2065V174.144ZM85.6068 177.204L84.5268 178.104V181.944H82.1668V168.224H84.5268V175.644L88.3668 172.224H91.5668L87.2668 175.824L91.8068 181.944H88.9268L85.6068 177.204ZM102.549 171.964C103.203 171.964 103.816 172.071 104.389 172.284C104.963 172.484 105.456 172.798 105.869 173.224C106.789 174.158 107.249 175.451 107.249 177.104C107.249 178.731 106.789 180.011 105.869 180.944C105.043 181.798 103.936 182.224 102.549 182.224C101.163 182.224 100.043 181.798 99.1893 180.944C98.2693 180.024 97.8093 178.744 97.8093 177.104C97.8093 175.438 98.2693 174.144 99.1893 173.224C100.029 172.384 101.149 171.964 102.549 171.964ZM104.889 177.084C104.889 176.058 104.689 175.291 104.289 174.784C103.889 174.264 103.329 174.004 102.609 174.004C101.903 174.004 101.323 174.264 100.869 174.784C100.416 175.291 100.189 176.058 100.189 177.084C100.189 178.111 100.389 178.884 100.789 179.404C101.203 179.911 101.763 180.164 102.469 180.164C103.176 180.164 103.756 179.911 104.209 179.404C104.663 178.884 104.889 178.111 104.889 177.084ZM112.377 173.904C113.017 172.611 114.044 171.964 115.457 171.964C116.657 171.964 117.557 172.358 118.157 173.144C118.771 173.931 119.077 174.971 119.077 176.264V181.944H116.717V176.264C116.717 175.544 116.544 175.004 116.197 174.644C115.851 174.271 115.364 174.084 114.737 174.084C114.111 174.084 113.571 174.364 113.117 174.924C112.677 175.484 112.444 176.324 112.417 177.444V181.944H110.057V172.224H112.117L112.377 173.904ZM131.277 171.964C131.89 171.964 132.437 172.071 132.917 172.284C133.41 172.484 133.824 172.751 134.157 173.084C134.824 173.724 135.217 174.531 135.337 175.504L132.957 175.564C132.85 175.138 132.65 174.784 132.357 174.504C132.077 174.224 131.75 174.084 131.377 174.084C131.004 174.084 130.684 174.144 130.417 174.264C130.15 174.371 129.917 174.544 129.717 174.784C129.264 175.344 129.037 176.118 129.037 177.104C129.037 178.091 129.25 178.838 129.677 179.344C130.104 179.838 130.617 180.084 131.217 180.084C131.83 180.084 132.27 179.944 132.537 179.664C132.817 179.371 132.957 178.978 132.957 178.484H135.337C135.337 179.551 134.984 180.438 134.277 181.144C133.557 181.864 132.55 182.224 131.257 182.224C129.977 182.224 128.904 181.758 128.037 180.824C127.117 179.824 126.657 178.578 126.657 177.084C126.657 175.511 127.117 174.251 128.037 173.304C128.904 172.411 129.984 171.964 131.277 171.964ZM142.002 171.964C142.656 171.964 143.269 172.071 143.842 172.284C144.416 172.484 144.909 172.798 145.322 173.224C146.242 174.158 146.702 175.451 146.702 177.104C146.702 178.731 146.242 180.011 145.322 180.944C144.496 181.798 143.389 182.224 142.002 182.224C140.616 182.224 139.496 181.798 138.642 180.944C137.722 180.024 137.262 178.744 137.262 177.104C137.262 175.438 137.722 174.144 138.642 173.224C139.482 172.384 140.602 171.964 142.002 171.964ZM144.342 177.084C144.342 176.058 144.142 175.291 143.742 174.784C143.342 174.264 142.782 174.004 142.062 174.004C141.356 174.004 140.776 174.264 140.322 174.784C139.869 175.291 139.642 176.058 139.642 177.084C139.642 178.111 139.842 178.884 140.242 179.404C140.656 179.911 141.216 180.164 141.922 180.164C142.629 180.164 143.209 179.911 143.662 179.404C144.116 178.884 144.342 178.111 144.342 177.084ZM151.831 173.904C152.471 172.611 153.497 171.964 154.911 171.964C156.111 171.964 157.011 172.358 157.611 173.144C158.224 173.931 158.531 174.971 158.531 176.264V181.944H156.171V176.264C156.171 175.544 155.997 175.004 155.651 174.644C155.304 174.271 154.817 174.084 154.191 174.084C153.564 174.084 153.024 174.364 152.571 174.924C152.131 175.484 151.897 176.324 151.871 177.444V181.944H149.511V172.224H151.571L151.831 173.904ZM167.451 181.704C166.571 182.051 165.878 182.224 165.371 182.224C164.865 182.224 164.418 182.164 164.031 182.044C163.658 181.924 163.325 181.744 163.031 181.504C162.418 180.958 162.111 180.204 162.111 179.244V173.804H160.751V172.224H162.111V169.664H164.471V172.224H167.111V173.804H164.471V179.164C164.471 179.964 164.851 180.364 165.611 180.364C165.998 180.364 166.498 180.258 167.111 180.044L167.451 181.704ZM176.642 173.384C176.975 173.811 177.222 174.304 177.382 174.864C177.555 175.424 177.642 175.938 177.642 176.404C177.642 176.871 177.615 177.291 177.562 177.664H171.282C171.309 178.451 171.502 179.091 171.862 179.584C172.222 180.078 172.769 180.324 173.502 180.324C174.475 180.324 175.055 179.898 175.242 179.044H177.622C177.462 180.018 177.015 180.784 176.282 181.344C175.522 181.931 174.595 182.224 173.502 182.224C172.222 182.224 171.149 181.758 170.282 180.824C169.389 179.851 168.942 178.604 168.942 177.084C168.942 175.524 169.389 174.271 170.282 173.324C171.135 172.418 172.209 171.964 173.502 171.964C174.849 171.964 175.895 172.438 176.642 173.384ZM173.522 173.844C172.855 173.844 172.335 174.064 171.962 174.504C171.589 174.931 171.369 175.484 171.302 176.164H175.442C175.442 175.111 175.109 174.404 174.442 174.044C174.189 173.911 173.882 173.844 173.522 173.844ZM182.788 173.904C183.428 172.611 184.454 171.964 185.868 171.964C187.068 171.964 187.968 172.358 188.568 173.144C189.181 173.931 189.488 174.971 189.488 176.264V181.944H187.128V176.264C187.128 175.544 186.954 175.004 186.608 174.644C186.261 174.271 185.774 174.084 185.148 174.084C184.521 174.084 183.981 174.364 183.528 174.924C183.088 175.484 182.854 176.324 182.828 177.444V181.944H180.468V172.224H182.528L182.788 173.904ZM198.408 181.704C197.528 182.051 196.835 182.224 196.328 182.224C195.822 182.224 195.375 182.164 194.988 182.044C194.615 181.924 194.282 181.744 193.988 181.504C193.375 180.958 193.068 180.204 193.068 179.244V173.804H191.708V172.224H193.068V169.664H195.428V172.224H198.068V173.804H195.428V179.164C195.428 179.964 195.808 180.364 196.568 180.364C196.955 180.364 197.455 180.258 198.068 180.044L198.408 181.704ZM209.078 176.264C209.851 176.264 210.744 176.391 211.758 176.644V175.684C211.758 175.004 211.618 174.504 211.338 174.184C211.071 173.851 210.624 173.684 209.998 173.684C209.384 173.684 208.911 173.811 208.578 174.064C208.244 174.304 208.078 174.651 208.078 175.104H205.498C205.498 173.998 205.884 173.198 206.658 172.704C207.444 172.211 208.538 171.964 209.938 171.964C211.938 171.964 213.231 172.664 213.818 174.064C214.018 174.544 214.118 175.111 214.118 175.764V181.944H212.058L211.878 180.644C211.251 181.698 210.291 182.224 208.998 182.224C207.744 182.224 206.771 181.918 206.078 181.304C205.438 180.718 205.118 179.978 205.118 179.084C205.118 178.178 205.471 177.484 206.178 177.004C206.884 176.511 207.851 176.264 209.078 176.264ZM211.758 178.144C210.971 177.931 210.238 177.824 209.558 177.824C208.278 177.824 207.638 178.251 207.638 179.104C207.638 179.464 207.784 179.778 208.078 180.044C208.371 180.298 208.838 180.424 209.478 180.424C210.131 180.424 210.664 180.211 211.078 179.784C211.504 179.344 211.731 178.798 211.758 178.144ZM223.037 181.704C222.157 182.051 221.464 182.224 220.957 182.224C220.451 182.224 220.004 182.164 219.617 182.044C219.244 181.924 218.911 181.744 218.617 181.504C218.004 180.958 217.697 180.204 217.697 179.244V173.804H216.337V172.224H217.697V169.664H220.057V172.224H222.697V173.804H220.057V179.164C220.057 179.964 220.437 180.364 221.197 180.364C221.584 180.364 222.084 180.258 222.697 180.044L223.037 181.704ZM73.4183 204.704C72.5383 205.051 71.8449 205.224 71.3383 205.224C70.8316 205.224 70.3849 205.164 69.9983 205.044C69.6249 204.924 69.2916 204.744 68.9983 204.504C68.3849 203.958 68.0783 203.204 68.0783 202.244V196.804H66.7183V195.224H68.0783V192.664H70.4383V195.224H73.0783V196.804H70.4383V202.164C70.4383 202.964 70.8183 203.364 71.5783 203.364C71.9649 203.364 72.4649 203.258 73.0783 203.044L73.4183 204.704ZM78.1889 196.804C78.8555 195.578 79.8289 194.964 81.1089 194.964C82.3889 194.964 83.3289 195.358 83.9289 196.144C84.5422 196.931 84.8489 197.971 84.8489 199.264V204.944H82.4889V199.264C82.4889 198.544 82.3155 198.004 81.9689 197.644C81.6222 197.271 81.1355 197.084 80.5089 197.084C79.8822 197.084 79.3422 197.364 78.8889 197.924C78.4489 198.484 78.2155 199.324 78.1889 200.444V204.944H75.8289V191.224H78.1889V196.804ZM95.0698 196.384C95.4032 196.811 95.6498 197.304 95.8098 197.864C95.9832 198.424 96.0698 198.938 96.0698 199.404C96.0698 199.871 96.0432 200.291 95.9898 200.664H89.7098C89.7365 201.451 89.9298 202.091 90.2898 202.584C90.6498 203.078 91.1965 203.324 91.9298 203.324C92.9032 203.324 93.4832 202.898 93.6698 202.044H96.0498C95.8898 203.018 95.4432 203.784 94.7098 204.344C93.9498 204.931 93.0232 205.224 91.9298 205.224C90.6498 205.224 89.5765 204.758 88.7098 203.824C87.8165 202.851 87.3698 201.604 87.3698 200.084C87.3698 198.524 87.8165 197.271 88.7098 196.324C89.5632 195.418 90.6365 194.964 91.9298 194.964C93.2765 194.964 94.3232 195.438 95.0698 196.384ZM91.9498 196.844C91.2832 196.844 90.7632 197.064 90.3898 197.504C90.0165 197.931 89.7965 198.484 89.7298 199.164H93.8698C93.8698 198.111 93.5365 197.404 92.8698 197.044C92.6165 196.911 92.3098 196.844 91.9498 196.844ZM105.274 201.984C105.301 202.904 105.974 203.364 107.294 203.364C107.801 203.364 108.214 203.258 108.534 203.044C108.867 202.818 109.034 202.558 109.034 202.264C109.034 201.971 108.934 201.744 108.734 201.584C108.534 201.424 108.221 201.278 107.794 201.144L105.674 200.384C104.101 199.838 103.314 198.944 103.314 197.704C103.314 196.878 103.681 196.218 104.414 195.724C105.161 195.218 106.154 194.964 107.394 194.964C108.647 194.964 109.607 195.238 110.274 195.784C110.954 196.331 111.307 197.018 111.334 197.844H109.114C109.087 197.524 108.934 197.271 108.654 197.084C108.374 196.898 107.974 196.804 107.454 196.804C106.934 196.804 106.527 196.911 106.234 197.124C105.954 197.324 105.814 197.558 105.814 197.824C105.814 198.291 106.207 198.638 106.994 198.864L109.294 199.724C110.054 199.978 110.634 200.304 111.034 200.704C111.447 201.091 111.654 201.598 111.654 202.224C111.654 203.024 111.274 203.718 110.514 204.304C109.727 204.918 108.687 205.224 107.394 205.224C106.101 205.224 105.061 204.944 104.274 204.384C103.487 203.811 103.087 203.011 103.074 201.984H105.274ZM117.701 199.264C118.474 199.264 119.367 199.391 120.381 199.644V198.684C120.381 198.004 120.241 197.504 119.961 197.184C119.694 196.851 119.247 196.684 118.621 196.684C118.007 196.684 117.534 196.811 117.201 197.064C116.867 197.304 116.701 197.651 116.701 198.104H114.121C114.121 196.998 114.507 196.198 115.281 195.704C116.067 195.211 117.161 194.964 118.561 194.964C120.561 194.964 121.854 195.664 122.441 197.064C122.641 197.544 122.741 198.111 122.741 198.764V204.944H120.681L120.501 203.644C119.874 204.698 118.914 205.224 117.621 205.224C116.367 205.224 115.394 204.918 114.701 204.304C114.061 203.718 113.741 202.978 113.741 202.084C113.741 201.178 114.094 200.484 114.801 200.004C115.507 199.511 116.474 199.264 117.701 199.264ZM120.381 201.144C119.594 200.931 118.861 200.824 118.181 200.824C116.901 200.824 116.261 201.251 116.261 202.104C116.261 202.464 116.407 202.778 116.701 203.044C116.994 203.298 117.461 203.424 118.101 203.424C118.754 203.424 119.287 203.211 119.701 202.784C120.127 202.344 120.354 201.798 120.381 201.144ZM134.82 197.064C135.447 195.664 136.547 194.964 138.12 194.964C139.28 194.964 140.18 195.358 140.82 196.144C141.434 196.891 141.74 197.931 141.74 199.264V204.944H139.36V199.264C139.36 198.544 139.187 198.004 138.84 197.644C138.494 197.271 138.007 197.084 137.38 197.084C136.754 197.084 136.24 197.358 135.84 197.904C135.44 198.451 135.227 199.278 135.2 200.384V204.944H132.84V199.264C132.84 198.544 132.667 198.004 132.32 197.644C131.974 197.271 131.487 197.084 130.86 197.084C130.234 197.084 129.694 197.364 129.24 197.924C128.8 198.484 128.567 199.324 128.54 200.444V204.944H126.18V195.224H128.24L128.5 196.904C129.14 195.611 130.167 194.964 131.58 194.964C132.394 194.964 133.067 195.151 133.6 195.524C134.147 195.898 134.554 196.411 134.82 197.064ZM151.945 196.384C152.278 196.811 152.525 197.304 152.685 197.864C152.858 198.424 152.945 198.938 152.945 199.404C152.945 199.871 152.918 200.291 152.865 200.664H146.585C146.611 201.451 146.805 202.091 147.165 202.584C147.525 203.078 148.071 203.324 148.805 203.324C149.778 203.324 150.358 202.898 150.545 202.044H152.925C152.765 203.018 152.318 203.784 151.585 204.344C150.825 204.931 149.898 205.224 148.805 205.224C147.525 205.224 146.451 204.758 145.585 203.824C144.691 202.851 144.245 201.604 144.245 200.084C144.245 198.524 144.691 197.271 145.585 196.324C146.438 195.418 147.511 194.964 148.805 194.964C150.151 194.964 151.198 195.438 151.945 196.384ZM148.825 196.844C148.158 196.844 147.638 197.064 147.265 197.504C146.891 197.931 146.671 198.484 146.605 199.164H150.745C150.745 198.111 150.411 197.404 149.745 197.044C149.491 196.911 149.185 196.844 148.825 196.844ZM166.309 204.704C165.429 205.051 164.736 205.224 164.229 205.224C163.722 205.224 163.276 205.164 162.889 205.044C162.516 204.924 162.182 204.744 161.889 204.504C161.276 203.958 160.969 203.204 160.969 202.244V196.804H159.609V195.224H160.969V192.664H163.329V195.224H165.969V196.804H163.329V202.164C163.329 202.964 163.709 203.364 164.469 203.364C164.856 203.364 165.356 203.258 165.969 203.044L166.309 204.704ZM168.919 195.204H171.279V204.944H168.919V195.204ZM168.639 192.084C168.639 191.658 168.766 191.324 169.019 191.084C169.273 190.831 169.633 190.704 170.099 190.704C170.553 190.704 170.906 190.831 171.159 191.084C171.426 191.324 171.559 191.658 171.559 192.084C171.559 192.511 171.426 192.851 171.159 193.104C170.906 193.344 170.553 193.464 170.099 193.464C169.633 193.464 169.273 193.344 169.019 193.104C168.766 192.851 168.639 192.511 168.639 192.084ZM183.922 197.064C184.549 195.664 185.649 194.964 187.222 194.964C188.382 194.964 189.282 195.358 189.922 196.144C190.535 196.891 190.842 197.931 190.842 199.264V204.944H188.462V199.264C188.462 198.544 188.289 198.004 187.942 197.644C187.595 197.271 187.109 197.084 186.482 197.084C185.855 197.084 185.342 197.358 184.942 197.904C184.542 198.451 184.329 199.278 184.302 200.384V204.944H181.942V199.264C181.942 198.544 181.769 198.004 181.422 197.644C181.075 197.271 180.589 197.084 179.962 197.084C179.335 197.084 178.795 197.364 178.342 197.924C177.902 198.484 177.669 199.324 177.642 200.444V204.944H175.282V195.224H177.342L177.602 196.904C178.242 195.611 179.269 194.964 180.682 194.964C181.495 194.964 182.169 195.151 182.702 195.524C183.249 195.898 183.655 196.411 183.922 197.064ZM201.046 196.384C201.38 196.811 201.626 197.304 201.786 197.864C201.96 198.424 202.046 198.938 202.046 199.404C202.046 199.871 202.02 200.291 201.966 200.664H195.686C195.713 201.451 195.906 202.091 196.266 202.584C196.626 203.078 197.173 203.324 197.906 203.324C198.88 203.324 199.46 202.898 199.646 202.044H202.026C201.866 203.018 201.42 203.784 200.686 204.344C199.926 204.931 199 205.224 197.906 205.224C196.626 205.224 195.553 204.758 194.686 203.824C193.793 202.851 193.346 201.604 193.346 200.084C193.346 198.524 193.793 197.271 194.686 196.324C195.54 195.418 196.613 194.964 197.906 194.964C199.253 194.964 200.3 195.438 201.046 196.384ZM197.926 196.844C197.26 196.844 196.74 197.064 196.366 197.504C195.993 197.931 195.773 198.484 195.706 199.164H199.846C199.846 198.111 199.513 197.404 198.846 197.044C198.593 196.911 198.286 196.844 197.926 196.844Z" fill="white"/>
</svg>
