<svg width="303" height="313" viewBox="0 0 303 313" fill="none" xmlns="http://www.w3.org/2000/svg">
<ellipse cx="151.045" cy="151.452" rx="134.667" ry="135.848" fill="#FDE54A"/>
<ellipse cx="134.667" cy="177.152" rx="134.667" ry="135.848" fill="#FB9F99"/>
<path d="M102.412 137.36C100.588 137.36 98.956 137.06 97.516 136.46C96.1 135.836 94.996 134.948 94.204 133.796C93.412 132.644 93.016 131.3 93.016 129.764C93.016 128.348 93.364 127.112 94.06 126.056C94.78 124.976 95.74 124.148 96.94 123.572C95.98 123.02 95.236 122.3 94.708 121.412C94.18 120.5 93.916 119.432 93.916 118.208C93.916 116.12 94.696 114.476 96.256 113.276C97.816 112.052 99.868 111.44 102.412 111.44C104.956 111.44 106.996 112.04 108.532 113.24C110.092 114.44 110.872 116.096 110.872 118.208C110.872 119.408 110.608 120.464 110.08 121.376C109.552 122.264 108.82 122.996 107.884 123.572C109.084 124.148 110.032 124.976 110.728 126.056C111.448 127.112 111.808 128.36 111.808 129.8C111.808 131.336 111.412 132.68 110.62 133.832C109.828 134.96 108.712 135.836 107.272 136.46C105.856 137.06 104.236 137.36 102.412 137.36ZM102.412 122.312C103.876 122.264 105.112 121.88 106.12 121.16C107.128 120.44 107.632 119.48 107.632 118.28C107.632 117.056 107.128 116.084 106.12 115.364C105.136 114.62 103.9 114.248 102.412 114.248C100.9 114.248 99.652 114.62 98.668 115.364C97.684 116.084 97.192 117.056 97.192 118.28C97.192 119.504 97.684 120.488 98.668 121.232C99.652 121.952 100.9 122.312 102.412 122.312ZM102.412 134.552C104.116 134.552 105.532 134.12 106.66 133.256C107.812 132.392 108.388 131.24 108.388 129.8C108.388 128.36 107.812 127.208 106.66 126.344C105.532 125.48 104.116 125.048 102.412 125.048C100.684 125.048 99.244 125.48 98.092 126.344C96.964 127.208 96.4 128.36 96.4 129.8C96.4 131.24 96.964 132.392 98.092 133.256C99.244 134.12 100.684 134.552 102.412 134.552ZM124.472 137.36C122.6 137.36 120.98 137.06 119.612 136.46C118.244 135.836 117.2 135.032 116.48 134.048C115.784 133.064 115.412 132.044 115.364 130.988C115.364 130.772 115.436 130.604 115.58 130.484C115.724 130.34 115.904 130.268 116.12 130.268H117.74C118.004 130.268 118.22 130.328 118.388 130.448C118.556 130.544 118.688 130.748 118.784 131.06C119.096 132.284 119.768 133.148 120.8 133.652C121.856 134.156 123.092 134.408 124.508 134.408C126.236 134.408 127.604 134 128.612 133.184C129.644 132.344 130.16 131.156 130.16 129.62C130.16 126.692 128.372 125.228 124.796 125.228H121.412C121.172 125.228 120.968 125.156 120.8 125.012C120.656 124.844 120.584 124.64 120.584 124.4V123.464C120.584 123.104 120.716 122.792 120.98 122.528L128 114.752H117.344C117.104 114.752 116.9 114.68 116.732 114.536C116.588 114.392 116.516 114.2 116.516 113.96V112.664C116.516 112.4 116.588 112.196 116.732 112.052C116.9 111.884 117.104 111.8 117.344 111.8H131.6C131.864 111.8 132.068 111.884 132.212 112.052C132.38 112.196 132.464 112.4 132.464 112.664V113.852C132.464 114.116 132.344 114.392 132.104 114.68L125.084 122.564H125.66C128.108 122.636 130.04 123.272 131.456 124.472C132.896 125.672 133.616 127.424 133.616 129.728C133.616 131.312 133.22 132.68 132.428 133.832C131.66 134.96 130.58 135.836 129.188 136.46C127.796 137.06 126.224 137.36 124.472 137.36ZM142.28 124.436C140.72 124.436 139.484 124.028 138.572 123.212C137.684 122.372 137.204 121.22 137.132 119.756C137.108 119.348 137.096 118.82 137.096 118.172C137.096 117.476 137.108 116.912 137.132 116.48C137.204 114.992 137.672 113.816 138.536 112.952C139.4 112.064 140.648 111.62 142.28 111.62C143.912 111.62 145.16 112.064 146.024 112.952C146.912 113.816 147.392 114.992 147.464 116.48C147.512 117.344 147.536 117.908 147.536 118.172C147.536 118.412 147.512 118.94 147.464 119.756C147.392 121.22 146.9 122.372 145.988 123.212C145.076 124.028 143.84 124.436 142.28 124.436ZM139.256 137C139.04 137 138.86 136.94 138.716 136.82C138.572 136.676 138.5 136.496 138.5 136.28C138.5 136.136 138.548 136.004 138.644 135.884L156.428 112.484C156.62 112.22 156.788 112.04 156.932 111.944C157.1 111.848 157.328 111.8 157.616 111.8H158.768C158.984 111.8 159.152 111.872 159.272 112.016C159.416 112.136 159.488 112.304 159.488 112.52C159.488 112.664 159.44 112.796 159.344 112.916L141.596 136.316C141.404 136.556 141.224 136.736 141.056 136.856C140.912 136.952 140.696 137 140.408 137H139.256ZM142.28 122.24C143.144 122.24 143.78 121.988 144.188 121.484C144.596 120.98 144.836 120.356 144.908 119.612C144.956 118.748 144.98 118.244 144.98 118.1C144.98 117.884 144.956 117.392 144.908 116.624C144.86 115.88 144.62 115.256 144.188 114.752C143.78 114.224 143.144 113.96 142.28 113.96C141.416 113.96 140.78 114.224 140.372 114.752C139.964 115.256 139.736 115.88 139.688 116.624C139.664 117.008 139.652 117.5 139.652 118.1C139.652 118.676 139.664 119.18 139.688 119.612C139.76 120.332 139.988 120.956 140.372 121.484C140.78 121.988 141.416 122.24 142.28 122.24ZM155.672 137.216C154.112 137.216 152.876 136.772 151.964 135.884C151.076 134.996 150.596 133.82 150.524 132.356C150.476 131.636 150.452 131.156 150.452 130.916C150.452 130.676 150.476 130.076 150.524 129.116C150.596 127.628 151.064 126.452 151.928 125.588C152.792 124.7 154.04 124.256 155.672 124.256C157.304 124.256 158.552 124.7 159.416 125.588C160.304 126.452 160.784 127.628 160.856 129.116C160.904 129.98 160.928 130.532 160.928 130.772C160.928 131.012 160.904 131.54 160.856 132.356C160.784 133.82 160.292 134.996 159.38 135.884C158.468 136.772 157.232 137.216 155.672 137.216ZM155.672 134.876C156.536 134.876 157.172 134.624 157.58 134.12C157.988 133.616 158.228 132.992 158.3 132.248C158.348 131.384 158.372 130.868 158.372 130.7C158.372 130.508 158.348 130.028 158.3 129.26C158.252 128.516 158.012 127.892 157.58 127.388C157.172 126.86 156.536 126.596 155.672 126.596C154.808 126.596 154.172 126.86 153.764 127.388C153.356 127.892 153.128 128.516 153.08 129.26C153.056 129.644 153.044 130.124 153.044 130.7C153.044 131.3 153.056 131.816 153.08 132.248C153.128 132.968 153.356 133.592 153.764 134.12C154.172 134.624 154.808 134.876 155.672 134.876Z" fill="white"/>
<path d="M68.1743 153.964C68.8276 153.964 69.4409 154.071 70.0143 154.284C70.5876 154.484 71.0809 154.798 71.4943 155.224C72.4143 156.158 72.8743 157.451 72.8743 159.104C72.8743 160.731 72.4143 162.011 71.4943 162.944C70.6676 163.798 69.5609 164.224 68.1743 164.224C66.7876 164.224 65.6676 163.798 64.8143 162.944C63.8943 162.024 63.4343 160.744 63.4343 159.104C63.4343 157.438 63.8943 156.144 64.8143 155.224C65.6543 154.384 66.7743 153.964 68.1743 153.964ZM70.5143 159.084C70.5143 158.058 70.3143 157.291 69.9143 156.784C69.5143 156.264 68.9543 156.004 68.2343 156.004C67.5276 156.004 66.9476 156.264 66.4943 156.784C66.0409 157.291 65.8143 158.058 65.8143 159.084C65.8143 160.111 66.0143 160.884 66.4143 161.404C66.8276 161.911 67.3876 162.164 68.0943 162.164C68.8009 162.164 69.3809 161.911 69.8343 161.404C70.2876 160.884 70.5143 160.111 70.5143 159.084ZM74.6224 154.224H76.0624V153.084C76.0624 152.084 76.3557 151.318 76.9424 150.784C77.4757 150.304 78.1691 150.064 79.0224 150.064C79.5691 150.064 80.2424 150.144 81.0424 150.304L80.5824 152.124C80.2091 151.991 79.8691 151.924 79.5624 151.924C79.2691 151.924 79.0091 152.011 78.7824 152.184C78.5557 152.344 78.4424 152.651 78.4424 153.104V154.224H80.2224V155.804H78.4424V163.944H76.0624V155.804H74.6224V154.224ZM94.5252 162.184C93.9119 163.478 92.9252 164.124 91.5652 164.124C89.8452 164.124 88.7119 163.451 88.1652 162.104C87.9652 161.638 87.8652 161.071 87.8652 160.404V154.204H90.2252V160.164C90.2252 160.804 90.3785 161.284 90.6852 161.604C90.9919 161.911 91.3652 162.064 91.8052 162.064C92.2585 162.064 92.6385 162.004 92.9452 161.884C93.2519 161.751 93.5185 161.558 93.7452 161.304C94.2385 160.731 94.4985 159.964 94.5252 159.004V154.204H96.8852V163.944H94.5252V162.184ZM101.924 160.984C101.951 161.904 102.624 162.364 103.944 162.364C104.451 162.364 104.864 162.258 105.184 162.044C105.518 161.818 105.684 161.558 105.684 161.264C105.684 160.971 105.584 160.744 105.384 160.584C105.184 160.424 104.871 160.278 104.444 160.144L102.324 159.384C100.751 158.838 99.9643 157.944 99.9643 156.704C99.9643 155.878 100.331 155.218 101.064 154.724C101.811 154.218 102.804 153.964 104.044 153.964C105.298 153.964 106.258 154.238 106.924 154.784C107.604 155.331 107.958 156.018 107.984 156.844H105.764C105.738 156.524 105.584 156.271 105.304 156.084C105.024 155.898 104.624 155.804 104.104 155.804C103.584 155.804 103.178 155.911 102.884 156.124C102.604 156.324 102.464 156.558 102.464 156.824C102.464 157.291 102.858 157.638 103.644 157.864L105.944 158.724C106.704 158.978 107.284 159.304 107.684 159.704C108.098 160.091 108.304 160.598 108.304 161.224C108.304 162.024 107.924 162.718 107.164 163.304C106.378 163.918 105.338 164.224 104.044 164.224C102.751 164.224 101.711 163.944 100.924 163.384C100.138 162.811 99.7376 162.011 99.7243 160.984H101.924ZM117.931 155.384C118.264 155.811 118.511 156.304 118.671 156.864C118.844 157.424 118.931 157.938 118.931 158.404C118.931 158.871 118.904 159.291 118.851 159.664H112.571C112.598 160.451 112.791 161.091 113.151 161.584C113.511 162.078 114.058 162.324 114.791 162.324C115.764 162.324 116.344 161.898 116.531 161.044H118.911C118.751 162.018 118.304 162.784 117.571 163.344C116.811 163.931 115.884 164.224 114.791 164.224C113.511 164.224 112.438 163.758 111.571 162.824C110.678 161.851 110.231 160.604 110.231 159.084C110.231 157.524 110.678 156.271 111.571 155.324C112.424 154.418 113.498 153.964 114.791 153.964C116.138 153.964 117.184 154.438 117.931 155.384ZM114.811 155.844C114.144 155.844 113.624 156.064 113.251 156.504C112.878 156.931 112.658 157.484 112.591 158.164H116.731C116.731 157.111 116.398 156.404 115.731 156.044C115.478 155.911 115.171 155.844 114.811 155.844ZM124.117 156.144C124.703 154.744 125.583 154.044 126.757 154.044C126.983 154.044 127.27 154.091 127.617 154.184L127.577 156.544C127.203 156.464 126.837 156.424 126.477 156.424C124.903 156.424 124.117 157.511 124.117 159.684V163.944H121.757V154.204H124.117V156.144ZM131.397 160.984C131.424 161.904 132.097 162.364 133.417 162.364C133.924 162.364 134.337 162.258 134.657 162.044C134.99 161.818 135.157 161.558 135.157 161.264C135.157 160.971 135.057 160.744 134.857 160.584C134.657 160.424 134.344 160.278 133.917 160.144L131.797 159.384C130.224 158.838 129.437 157.944 129.437 156.704C129.437 155.878 129.804 155.218 130.537 154.724C131.284 154.218 132.277 153.964 133.517 153.964C134.77 153.964 135.73 154.238 136.397 154.784C137.077 155.331 137.43 156.018 137.457 156.844H135.237C135.21 156.524 135.057 156.271 134.777 156.084C134.497 155.898 134.097 155.804 133.577 155.804C133.057 155.804 132.65 155.911 132.357 156.124C132.077 156.324 131.937 156.558 131.937 156.824C131.937 157.291 132.33 157.638 133.117 157.864L135.417 158.724C136.177 158.978 136.757 159.304 137.157 159.704C137.57 160.091 137.777 160.598 137.777 161.224C137.777 162.024 137.397 162.718 136.637 163.304C135.85 163.918 134.81 164.224 133.517 164.224C132.224 164.224 131.184 163.944 130.397 163.384C129.61 162.811 129.21 162.011 129.197 160.984H131.397ZM146.542 154.224L148.502 161.164L150.362 154.764H152.502L154.362 161.184L156.342 154.224H158.702L155.502 163.944H153.182L151.382 158.124L149.622 163.944H147.282L144.062 154.224H146.542ZM164.039 158.264C164.812 158.264 165.705 158.391 166.719 158.644V157.684C166.719 157.004 166.579 156.504 166.299 156.184C166.032 155.851 165.585 155.684 164.959 155.684C164.345 155.684 163.872 155.811 163.539 156.064C163.205 156.304 163.039 156.651 163.039 157.104H160.459C160.459 155.998 160.845 155.198 161.619 154.704C162.405 154.211 163.499 153.964 164.899 153.964C166.899 153.964 168.192 154.664 168.779 156.064C168.979 156.544 169.079 157.111 169.079 157.764V163.944H167.019L166.839 162.644C166.212 163.698 165.252 164.224 163.959 164.224C162.705 164.224 161.732 163.918 161.039 163.304C160.399 162.718 160.079 161.978 160.079 161.084C160.079 160.178 160.432 159.484 161.139 159.004C161.845 158.511 162.812 158.264 164.039 158.264ZM166.719 160.144C165.932 159.931 165.199 159.824 164.519 159.824C163.239 159.824 162.599 160.251 162.599 161.104C162.599 161.464 162.745 161.778 163.039 162.044C163.332 162.298 163.799 162.424 164.439 162.424C165.092 162.424 165.625 162.211 166.039 161.784C166.465 161.344 166.692 160.798 166.719 160.144ZM174.838 155.904C175.478 154.611 176.505 153.964 177.918 153.964C179.118 153.964 180.018 154.358 180.618 155.144C181.232 155.931 181.538 156.971 181.538 158.264V163.944H179.178V158.264C179.178 157.544 179.005 157.004 178.658 156.644C178.312 156.271 177.825 156.084 177.198 156.084C176.572 156.084 176.032 156.364 175.578 156.924C175.138 157.484 174.905 158.324 174.878 159.444V163.944H172.518V154.224H174.578L174.838 155.904ZM190.459 163.704C189.579 164.051 188.886 164.224 188.379 164.224C187.873 164.224 187.426 164.164 187.039 164.044C186.666 163.924 186.333 163.744 186.039 163.504C185.426 162.958 185.119 162.204 185.119 161.244V155.804H183.759V154.224H185.119V151.664H187.479V154.224H190.119V155.804H187.479V161.164C187.479 161.964 187.859 162.364 188.619 162.364C189.006 162.364 189.506 162.258 190.119 162.044L190.459 163.704ZM201.128 158.264C201.902 158.264 202.795 158.391 203.808 158.644V157.684C203.808 157.004 203.668 156.504 203.388 156.184C203.122 155.851 202.675 155.684 202.048 155.684C201.435 155.684 200.962 155.811 200.628 156.064C200.295 156.304 200.128 156.651 200.128 157.104H197.548C197.548 155.998 197.935 155.198 198.708 154.704C199.495 154.211 200.588 153.964 201.988 153.964C203.988 153.964 205.282 154.664 205.868 156.064C206.068 156.544 206.168 157.111 206.168 157.764V163.944H204.108L203.928 162.644C203.302 163.698 202.342 164.224 201.048 164.224C199.795 164.224 198.822 163.918 198.128 163.304C197.488 162.718 197.168 161.978 197.168 161.084C197.168 160.178 197.522 159.484 198.228 159.004C198.935 158.511 199.902 158.264 201.128 158.264ZM203.808 160.144C203.022 159.931 202.288 159.824 201.608 159.824C200.328 159.824 199.688 160.251 199.688 161.104C199.688 161.464 199.835 161.778 200.128 162.044C200.422 162.298 200.888 162.424 201.528 162.424C202.182 162.424 202.715 162.211 203.128 161.784C203.555 161.344 203.782 160.798 203.808 160.144ZM57.4349 177.224H58.8749V176.084C58.8749 175.084 59.1682 174.318 59.7549 173.784C60.2882 173.304 60.9816 173.064 61.8349 173.064C62.3816 173.064 63.0549 173.144 63.8549 173.304L63.3949 175.124C63.0216 174.991 62.6816 174.924 62.3749 174.924C62.0816 174.924 61.8216 175.011 61.5949 175.184C61.3682 175.344 61.2549 175.651 61.2549 176.104V177.224H63.0349V178.804H61.2549V186.944H58.8749V178.804H57.4349V177.224ZM72.5991 178.384C72.9324 178.811 73.1791 179.304 73.3391 179.864C73.5124 180.424 73.5991 180.938 73.5991 181.404C73.5991 181.871 73.5724 182.291 73.5191 182.664H67.2391C67.2658 183.451 67.4591 184.091 67.8191 184.584C68.1791 185.078 68.7258 185.324 69.4591 185.324C70.4324 185.324 71.0124 184.898 71.1991 184.044H73.5791C73.4191 185.018 72.9724 185.784 72.2391 186.344C71.4791 186.931 70.5524 187.224 69.4591 187.224C68.1791 187.224 67.1058 186.758 66.2391 185.824C65.3458 184.851 64.8991 183.604 64.8991 182.084C64.8991 180.524 65.3458 179.271 66.2391 178.324C67.0924 177.418 68.1658 176.964 69.4591 176.964C70.8058 176.964 71.8524 177.438 72.5991 178.384ZM69.4791 178.844C68.8124 178.844 68.2924 179.064 67.9191 179.504C67.5458 179.931 67.3258 180.484 67.2591 181.164H71.3991C71.3991 180.111 71.0658 179.404 70.3991 179.044C70.1458 178.911 69.8391 178.844 69.4791 178.844ZM79.6246 181.264C80.3979 181.264 81.2912 181.391 82.3046 181.644V180.684C82.3046 180.004 82.1646 179.504 81.8846 179.184C81.6179 178.851 81.1712 178.684 80.5446 178.684C79.9312 178.684 79.4579 178.811 79.1246 179.064C78.7912 179.304 78.6246 179.651 78.6246 180.104H76.0446C76.0446 178.998 76.4312 178.198 77.2046 177.704C77.9912 177.211 79.0846 176.964 80.4846 176.964C82.4846 176.964 83.7779 177.664 84.3646 179.064C84.5646 179.544 84.6646 180.111 84.6646 180.764V186.944H82.6046L82.4246 185.644C81.7979 186.698 80.8379 187.224 79.5446 187.224C78.2912 187.224 77.3179 186.918 76.6246 186.304C75.9846 185.718 75.6646 184.978 75.6646 184.084C75.6646 183.178 76.0179 182.484 76.7246 182.004C77.4312 181.511 78.3979 181.264 79.6246 181.264ZM82.3046 183.144C81.5179 182.931 80.7846 182.824 80.1046 182.824C78.8246 182.824 78.1846 183.251 78.1846 184.104C78.1846 184.464 78.3312 184.778 78.6246 185.044C78.9179 185.298 79.3846 185.424 80.0246 185.424C80.6779 185.424 81.2112 185.211 81.6246 184.784C82.0512 184.344 82.2779 183.798 82.3046 183.144ZM93.5843 186.704C92.7043 187.051 92.0109 187.224 91.5043 187.224C90.9976 187.224 90.5509 187.164 90.1643 187.044C89.7909 186.924 89.4576 186.744 89.1643 186.504C88.5509 185.958 88.2443 185.204 88.2443 184.244V178.804H86.8843V177.224H88.2443V174.664H90.6043V177.224H93.2443V178.804H90.6043V184.164C90.6043 184.964 90.9843 185.364 91.7443 185.364C92.1309 185.364 92.6309 185.258 93.2443 185.044L93.5843 186.704ZM102.455 185.184C101.842 186.478 100.855 187.124 99.4949 187.124C97.7749 187.124 96.6416 186.451 96.0949 185.104C95.8949 184.638 95.7949 184.071 95.7949 183.404V177.204H98.1549V183.164C98.1549 183.804 98.3082 184.284 98.6149 184.604C98.9216 184.911 99.2949 185.064 99.7349 185.064C100.188 185.064 100.568 185.004 100.875 184.884C101.182 184.751 101.448 184.558 101.675 184.304C102.168 183.731 102.428 182.964 102.455 182.004V177.204H104.815V186.944H102.455V185.184ZM110.894 179.144C111.481 177.744 112.361 177.044 113.534 177.044C113.761 177.044 114.047 177.091 114.394 177.184L114.354 179.544C113.981 179.464 113.614 179.424 113.254 179.424C111.681 179.424 110.894 180.511 110.894 182.684V186.944H108.534V177.204H110.894V179.144ZM123.634 178.384C123.968 178.811 124.214 179.304 124.374 179.864C124.548 180.424 124.634 180.938 124.634 181.404C124.634 181.871 124.608 182.291 124.554 182.664H118.274C118.301 183.451 118.494 184.091 118.854 184.584C119.214 185.078 119.761 185.324 120.494 185.324C121.468 185.324 122.048 184.898 122.234 184.044H124.614C124.454 185.018 124.008 185.784 123.274 186.344C122.514 186.931 121.588 187.224 120.494 187.224C119.214 187.224 118.141 186.758 117.274 185.824C116.381 184.851 115.934 183.604 115.934 182.084C115.934 180.524 116.381 179.271 117.274 178.324C118.128 177.418 119.201 176.964 120.494 176.964C121.841 176.964 122.888 177.438 123.634 178.384ZM120.514 178.844C119.848 178.844 119.328 179.064 118.954 179.504C118.581 179.931 118.361 180.484 118.294 181.164H122.434C122.434 180.111 122.101 179.404 121.434 179.044C121.181 178.911 120.874 178.844 120.514 178.844ZM137.998 186.704C137.118 187.051 136.425 187.224 135.918 187.224C135.412 187.224 134.965 187.164 134.578 187.044C134.205 186.924 133.872 186.744 133.578 186.504C132.965 185.958 132.658 185.204 132.658 184.244V178.804H131.298V177.224H132.658V174.664H135.018V177.224H137.658V178.804H135.018V184.164C135.018 184.964 135.398 185.364 136.158 185.364C136.545 185.364 137.045 185.258 137.658 185.044L137.998 186.704ZM144.229 176.964C144.882 176.964 145.496 177.071 146.069 177.284C146.642 177.484 147.136 177.798 147.549 178.224C148.469 179.158 148.929 180.451 148.929 182.104C148.929 183.731 148.469 185.011 147.549 185.944C146.722 186.798 145.616 187.224 144.229 187.224C142.842 187.224 141.722 186.798 140.869 185.944C139.949 185.024 139.489 183.744 139.489 182.104C139.489 180.438 139.949 179.144 140.869 178.224C141.709 177.384 142.829 176.964 144.229 176.964ZM146.569 182.084C146.569 181.058 146.369 180.291 145.969 179.784C145.569 179.264 145.009 179.004 144.289 179.004C143.582 179.004 143.002 179.264 142.549 179.784C142.096 180.291 141.869 181.058 141.869 182.084C141.869 183.111 142.069 183.884 142.469 184.404C142.882 184.911 143.442 185.164 144.149 185.164C144.856 185.164 145.436 184.911 145.889 184.404C146.342 183.884 146.569 183.111 146.569 182.084ZM163.136 185.444C162.536 186.631 161.616 187.224 160.376 187.224C159.136 187.224 158.096 186.751 157.256 185.804C156.389 184.818 155.956 183.564 155.956 182.044C155.956 180.524 156.369 179.291 157.196 178.344C158.009 177.424 159.022 176.964 160.236 176.964C161.449 176.964 162.362 177.451 162.976 178.424V173.224H165.356V186.944H163.416L163.136 185.444ZM160.676 179.084C160.009 179.084 159.449 179.358 158.996 179.904C158.556 180.438 158.336 181.158 158.336 182.064C158.336 182.971 158.562 183.704 159.016 184.264C159.469 184.811 160.042 185.084 160.736 185.084C161.309 185.084 161.822 184.858 162.276 184.404C162.742 183.938 162.976 183.351 162.976 182.644V181.384C162.949 180.691 162.716 180.124 162.276 179.684C161.876 179.284 161.342 179.084 160.676 179.084ZM169.281 177.204H171.641V186.944H169.281V177.204ZM169.001 174.084C169.001 173.658 169.127 173.324 169.381 173.084C169.634 172.831 169.994 172.704 170.461 172.704C170.914 172.704 171.267 172.831 171.521 173.084C171.787 173.324 171.921 173.658 171.921 174.084C171.921 174.511 171.787 174.851 171.521 175.104C171.267 175.344 170.914 175.464 170.461 175.464C169.994 175.464 169.634 175.344 169.381 175.104C169.127 174.851 169.001 174.511 169.001 174.084ZM176.743 177.224L178.963 184.604L181.203 177.224H183.923L180.303 186.944H177.643L174.023 177.224H176.743ZM186.214 177.204H188.574V186.944H186.214V177.204ZM185.934 174.084C185.934 173.658 186.061 173.324 186.314 173.084C186.568 172.831 186.928 172.704 187.394 172.704C187.848 172.704 188.201 172.831 188.454 173.084C188.721 173.324 188.854 173.658 188.854 174.084C188.854 174.511 188.721 174.851 188.454 175.104C188.201 175.344 187.848 175.464 187.394 175.464C186.928 175.464 186.568 175.344 186.314 175.104C186.061 174.851 185.934 174.511 185.934 174.084ZM198.917 185.444C198.317 186.631 197.397 187.224 196.157 187.224C194.917 187.224 193.877 186.751 193.037 185.804C192.17 184.818 191.737 183.564 191.737 182.044C191.737 180.524 192.15 179.291 192.977 178.344C193.79 177.424 194.804 176.964 196.017 176.964C197.23 176.964 198.144 177.451 198.757 178.424V173.224H201.137V186.944H199.197L198.917 185.444ZM196.457 179.084C195.79 179.084 195.23 179.358 194.777 179.904C194.337 180.438 194.117 181.158 194.117 182.064C194.117 182.971 194.344 183.704 194.797 184.264C195.25 184.811 195.824 185.084 196.517 185.084C197.09 185.084 197.604 184.858 198.057 184.404C198.524 183.938 198.757 183.351 198.757 182.644V181.384C198.73 180.691 198.497 180.124 198.057 179.684C197.657 179.284 197.124 179.084 196.457 179.084ZM211.642 178.384C211.975 178.811 212.222 179.304 212.382 179.864C212.555 180.424 212.642 180.938 212.642 181.404C212.642 181.871 212.615 182.291 212.562 182.664H206.282C206.309 183.451 206.502 184.091 206.862 184.584C207.222 185.078 207.769 185.324 208.502 185.324C209.475 185.324 210.055 184.898 210.242 184.044H212.622C212.462 185.018 212.015 185.784 211.282 186.344C210.522 186.931 209.595 187.224 208.502 187.224C207.222 187.224 206.149 186.758 205.282 185.824C204.389 184.851 203.942 183.604 203.942 182.084C203.942 180.524 204.389 179.271 205.282 178.324C206.135 177.418 207.209 176.964 208.502 176.964C209.849 176.964 210.895 177.438 211.642 178.384ZM208.522 178.844C207.855 178.844 207.335 179.064 206.962 179.504C206.589 179.931 206.369 180.484 206.302 181.164H210.442C210.442 180.111 210.109 179.404 209.442 179.044C209.189 178.911 208.882 178.844 208.522 178.844ZM43.7796 209.704C42.8996 210.051 42.2062 210.224 41.6996 210.224C41.1929 210.224 40.7462 210.164 40.3596 210.044C39.9862 209.924 39.6529 209.744 39.3596 209.504C38.7462 208.958 38.4396 208.204 38.4396 207.244V201.804H37.0796V200.224H38.4396V197.664H40.7996V200.224H43.4396V201.804H40.7996V207.164C40.7996 207.964 41.1796 208.364 41.9396 208.364C42.3262 208.364 42.8262 208.258 43.4396 208.044L43.7796 209.704ZM49.3902 204.264C50.1635 204.264 51.0569 204.391 52.0702 204.644V203.684C52.0702 203.004 51.9302 202.504 51.6502 202.184C51.3835 201.851 50.9369 201.684 50.3102 201.684C49.6969 201.684 49.2235 201.811 48.8902 202.064C48.5569 202.304 48.3902 202.651 48.3902 203.104H45.8102C45.8102 201.998 46.1969 201.198 46.9702 200.704C47.7569 200.211 48.8502 199.964 50.2502 199.964C52.2502 199.964 53.5435 200.664 54.1302 202.064C54.3302 202.544 54.4302 203.111 54.4302 203.764V209.944H52.3702L52.1902 208.644C51.5635 209.698 50.6035 210.224 49.3102 210.224C48.0569 210.224 47.0835 209.918 46.3902 209.304C45.7502 208.718 45.4302 207.978 45.4302 207.084C45.4302 206.178 45.7835 205.484 46.4902 205.004C47.1969 204.511 48.1635 204.264 49.3902 204.264ZM52.0702 206.144C51.2835 205.931 50.5502 205.824 49.8702 205.824C48.5902 205.824 47.9502 206.251 47.9502 207.104C47.9502 207.464 48.0969 207.778 48.3902 208.044C48.6835 208.298 49.1502 208.424 49.7902 208.424C50.4435 208.424 50.9769 208.211 51.3902 207.784C51.8169 207.344 52.0435 206.798 52.0702 206.144ZM59.1899 206.984C59.2166 207.904 59.8899 208.364 61.2099 208.364C61.7166 208.364 62.1299 208.258 62.4499 208.044C62.7832 207.818 62.9499 207.558 62.9499 207.264C62.9499 206.971 62.8499 206.744 62.6499 206.584C62.4499 206.424 62.1366 206.278 61.7099 206.144L59.5899 205.384C58.0166 204.838 57.2299 203.944 57.2299 202.704C57.2299 201.878 57.5966 201.218 58.3299 200.724C59.0766 200.218 60.0699 199.964 61.3099 199.964C62.5632 199.964 63.5232 200.238 64.1899 200.784C64.8699 201.331 65.2232 202.018 65.2499 202.844H63.0299C63.0032 202.524 62.8499 202.271 62.5699 202.084C62.2899 201.898 61.8899 201.804 61.3699 201.804C60.8499 201.804 60.4432 201.911 60.1499 202.124C59.8699 202.324 59.7299 202.558 59.7299 202.824C59.7299 203.291 60.1232 203.638 60.9099 203.864L63.2099 204.724C63.9699 204.978 64.5499 205.304 64.9499 205.704C65.3632 206.091 65.5699 206.598 65.5699 207.224C65.5699 208.024 65.1899 208.718 64.4299 209.304C63.6432 209.918 62.6032 210.224 61.3099 210.224C60.0166 210.224 58.9766 209.944 58.1899 209.384C57.4032 208.811 57.0032 208.011 56.9899 206.984H59.1899ZM71.8568 205.204L70.7768 206.104V209.944H68.4168V196.224H70.7768V203.644L74.6168 200.224H77.8168L73.5168 203.824L78.0568 209.944H75.1768L71.8568 205.204ZM81.2407 206.984C81.2673 207.904 81.9407 208.364 83.2607 208.364C83.7673 208.364 84.1807 208.258 84.5007 208.044C84.834 207.818 85.0007 207.558 85.0007 207.264C85.0007 206.971 84.9007 206.744 84.7007 206.584C84.5007 206.424 84.1873 206.278 83.7607 206.144L81.6407 205.384C80.0673 204.838 79.2807 203.944 79.2807 202.704C79.2807 201.878 79.6473 201.218 80.3807 200.724C81.1273 200.218 82.1207 199.964 83.3607 199.964C84.614 199.964 85.574 200.238 86.2407 200.784C86.9207 201.331 87.274 202.018 87.3007 202.844H85.0807C85.054 202.524 84.9007 202.271 84.6207 202.084C84.3407 201.898 83.9407 201.804 83.4207 201.804C82.9007 201.804 82.494 201.911 82.2007 202.124C81.9207 202.324 81.7807 202.558 81.7807 202.824C81.7807 203.291 82.174 203.638 82.9607 203.864L85.2607 204.724C86.0207 204.978 86.6007 205.304 87.0007 205.704C87.414 206.091 87.6207 206.598 87.6207 207.224C87.6207 208.024 87.2407 208.718 86.4807 209.304C85.694 209.918 84.654 210.224 83.3607 210.224C82.0673 210.224 81.0273 209.944 80.2407 209.384C79.454 208.811 79.054 208.011 79.0407 206.984H81.2407ZM95.7261 200.204H98.0861V209.944H95.7261V200.204ZM95.4461 197.084C95.4461 196.658 95.5728 196.324 95.8261 196.084C96.0795 195.831 96.4395 195.704 96.9061 195.704C97.3595 195.704 97.7128 195.831 97.9661 196.084C98.2328 196.324 98.3661 196.658 98.3661 197.084C98.3661 197.511 98.2328 197.851 97.9661 198.104C97.7128 198.344 97.3595 198.464 96.9061 198.464C96.4395 198.464 96.0795 198.344 95.8261 198.104C95.5728 197.851 95.4461 197.511 95.4461 197.084ZM104.409 201.904C105.049 200.611 106.075 199.964 107.489 199.964C108.689 199.964 109.589 200.358 110.189 201.144C110.802 201.931 111.109 202.971 111.109 204.264V209.944H108.749V204.264C108.749 203.544 108.575 203.004 108.229 202.644C107.882 202.271 107.395 202.084 106.769 202.084C106.142 202.084 105.602 202.364 105.149 202.924C104.709 203.484 104.475 204.324 104.449 205.444V209.944H102.089V200.224H104.149L104.409 201.904ZM125.088 209.704C124.208 210.051 123.515 210.224 123.008 210.224C122.502 210.224 122.055 210.164 121.668 210.044C121.295 209.924 120.962 209.744 120.668 209.504C120.055 208.958 119.748 208.204 119.748 207.244V201.804H118.388V200.224H119.748V197.664H122.108V200.224H124.748V201.804H122.108V207.164C122.108 207.964 122.488 208.364 123.248 208.364C123.635 208.364 124.135 208.258 124.748 208.044L125.088 209.704ZM129.859 201.804C130.525 200.578 131.499 199.964 132.779 199.964C134.059 199.964 134.999 200.358 135.599 201.144C136.212 201.931 136.519 202.971 136.519 204.264V209.944H134.159V204.264C134.159 203.544 133.985 203.004 133.639 202.644C133.292 202.271 132.805 202.084 132.179 202.084C131.552 202.084 131.012 202.364 130.559 202.924C130.119 203.484 129.885 204.324 129.859 205.444V209.944H127.499V196.224H129.859V201.804ZM146.74 201.384C147.073 201.811 147.32 202.304 147.48 202.864C147.653 203.424 147.74 203.938 147.74 204.404C147.74 204.871 147.713 205.291 147.66 205.664H141.38C141.406 206.451 141.6 207.091 141.96 207.584C142.32 208.078 142.866 208.324 143.6 208.324C144.573 208.324 145.153 207.898 145.34 207.044H147.72C147.56 208.018 147.113 208.784 146.38 209.344C145.62 209.931 144.693 210.224 143.6 210.224C142.32 210.224 141.246 209.758 140.38 208.824C139.486 207.851 139.04 206.604 139.04 205.084C139.04 203.524 139.486 202.271 140.38 201.324C141.233 200.418 142.306 199.964 143.6 199.964C144.946 199.964 145.993 200.438 146.74 201.384ZM143.62 201.844C142.953 201.844 142.433 202.064 142.06 202.504C141.686 202.931 141.466 203.484 141.4 204.164H145.54C145.54 203.111 145.206 202.404 144.54 202.044C144.286 201.911 143.98 201.844 143.62 201.844ZM164.264 202.064C164.89 200.664 165.99 199.964 167.564 199.964C168.724 199.964 169.624 200.358 170.264 201.144C170.877 201.891 171.184 202.931 171.184 204.264V209.944H168.804V204.264C168.804 203.544 168.63 203.004 168.284 202.644C167.937 202.271 167.45 202.084 166.824 202.084C166.197 202.084 165.684 202.358 165.284 202.904C164.884 203.451 164.67 204.278 164.644 205.384V209.944H162.284V204.264C162.284 203.544 162.11 203.004 161.764 202.644C161.417 202.271 160.93 202.084 160.304 202.084C159.677 202.084 159.137 202.364 158.684 202.924C158.244 203.484 158.01 204.324 157.984 205.444V209.944H155.624V200.224H157.684L157.944 201.904C158.584 200.611 159.61 199.964 161.024 199.964C161.837 199.964 162.51 200.151 163.044 200.524C163.59 200.898 163.997 201.411 164.264 202.064ZM177.808 204.264C178.582 204.264 179.475 204.391 180.488 204.644V203.684C180.488 203.004 180.348 202.504 180.068 202.184C179.802 201.851 179.355 201.684 178.728 201.684C178.115 201.684 177.642 201.811 177.308 202.064C176.975 202.304 176.808 202.651 176.808 203.104H174.228C174.228 201.998 174.615 201.198 175.388 200.704C176.175 200.211 177.268 199.964 178.668 199.964C180.668 199.964 181.962 200.664 182.548 202.064C182.748 202.544 182.848 203.111 182.848 203.764V209.944H180.788L180.608 208.644C179.982 209.698 179.022 210.224 177.728 210.224C176.475 210.224 175.502 209.918 174.808 209.304C174.168 208.718 173.848 207.978 173.848 207.084C173.848 206.178 174.202 205.484 174.908 205.004C175.615 204.511 176.582 204.264 177.808 204.264ZM180.488 206.144C179.702 205.931 178.968 205.824 178.288 205.824C177.008 205.824 176.368 206.251 176.368 207.104C176.368 207.464 176.515 207.778 176.808 208.044C177.102 208.298 177.568 208.424 178.208 208.424C178.862 208.424 179.395 208.211 179.808 207.784C180.235 207.344 180.462 206.798 180.488 206.144ZM188.648 202.144C189.235 200.744 190.115 200.044 191.288 200.044C191.515 200.044 191.801 200.091 192.148 200.184L192.108 202.544C191.735 202.464 191.368 202.424 191.008 202.424C189.435 202.424 188.648 203.511 188.648 205.684V209.944H186.288V200.204H188.648V202.144ZM195.292 205.964C194.505 205.298 194.112 204.464 194.112 203.464C194.112 202.411 194.525 201.558 195.352 200.904C196.152 200.278 197.065 199.964 198.092 199.964C199.132 199.964 199.999 200.158 200.692 200.544C200.772 199.784 201.099 199.171 201.672 198.704C202.232 198.238 202.892 198.004 203.652 198.004L203.532 200.264C202.385 200.264 201.792 200.644 201.752 201.404C202.245 202.018 202.492 202.644 202.492 203.284C202.492 203.924 202.379 204.464 202.152 204.904C201.925 205.331 201.619 205.691 201.232 205.984C200.432 206.624 199.459 206.944 198.312 206.944C197.659 206.944 197.065 206.844 196.532 206.644C195.999 206.804 195.732 207.124 195.732 207.604C195.732 208.204 196.239 208.504 197.252 208.504H200.512C202.725 208.504 203.832 209.278 203.832 210.824C203.832 211.344 203.699 211.851 203.432 212.344C203.179 212.851 202.805 213.298 202.312 213.684C201.219 214.538 199.845 214.964 198.192 214.964C196.592 214.964 195.292 214.638 194.292 213.984C193.359 213.358 192.892 212.591 192.892 211.684C192.892 211.084 193.072 210.604 193.432 210.244C193.805 209.898 194.292 209.678 194.892 209.584C194.105 209.104 193.712 208.511 193.712 207.804C193.712 207.338 193.859 206.951 194.152 206.644C194.445 206.324 194.825 206.098 195.292 205.964ZM197.092 210.164C195.839 210.218 195.212 210.691 195.212 211.584C195.212 212.038 195.472 212.398 195.992 212.664C196.525 212.944 197.152 213.084 197.872 213.084C198.592 213.084 199.152 213.024 199.552 212.904C199.965 212.784 200.312 212.624 200.592 212.424C201.192 212.024 201.492 211.544 201.492 210.984C201.492 210.744 201.405 210.544 201.232 210.384C201.072 210.238 200.832 210.164 200.512 210.164H197.092ZM200.152 203.444C200.152 202.898 199.999 202.458 199.692 202.124C199.399 201.778 198.945 201.604 198.332 201.604C197.719 201.604 197.252 201.778 196.932 202.124C196.612 202.458 196.452 202.898 196.452 203.444C196.452 203.978 196.612 204.418 196.932 204.764C197.252 205.111 197.719 205.284 198.332 205.284C198.945 205.284 199.399 205.111 199.692 204.764C199.999 204.418 200.152 203.978 200.152 203.444ZM206.293 200.204H208.653V209.944H206.293V200.204ZM206.013 197.084C206.013 196.658 206.139 196.324 206.393 196.084C206.646 195.831 207.006 195.704 207.473 195.704C207.926 195.704 208.279 195.831 208.533 196.084C208.799 196.324 208.933 196.658 208.933 197.084C208.933 197.511 208.799 197.851 208.533 198.104C208.279 198.344 207.926 198.464 207.473 198.464C207.006 198.464 206.646 198.344 206.393 198.104C206.139 197.851 206.013 197.511 206.013 197.084ZM214.975 201.904C215.615 200.611 216.642 199.964 218.055 199.964C219.255 199.964 220.155 200.358 220.755 201.144C221.368 201.931 221.675 202.971 221.675 204.264V209.944H219.315V204.264C219.315 203.544 219.142 203.004 218.795 202.644C218.448 202.271 217.962 202.084 217.335 202.084C216.708 202.084 216.168 202.364 215.715 202.924C215.275 203.484 215.042 204.324 215.015 205.444V209.944H212.655V200.224H214.715L214.975 201.904ZM226.436 206.984C226.463 207.904 227.136 208.364 228.456 208.364C228.963 208.364 229.376 208.258 229.696 208.044C230.029 207.818 230.196 207.558 230.196 207.264C230.196 206.971 230.096 206.744 229.896 206.584C229.696 206.424 229.383 206.278 228.956 206.144L226.836 205.384C225.263 204.838 224.476 203.944 224.476 202.704C224.476 201.878 224.843 201.218 225.576 200.724C226.323 200.218 227.316 199.964 228.556 199.964C229.809 199.964 230.769 200.238 231.436 200.784C232.116 201.331 232.469 202.018 232.496 202.844H230.276C230.249 202.524 230.096 202.271 229.816 202.084C229.536 201.898 229.136 201.804 228.616 201.804C228.096 201.804 227.689 201.911 227.396 202.124C227.116 202.324 226.976 202.558 226.976 202.824C226.976 203.291 227.369 203.638 228.156 203.864L230.456 204.724C231.216 204.978 231.796 205.304 232.196 205.704C232.609 206.091 232.816 206.598 232.816 207.224C232.816 208.024 232.436 208.718 231.676 209.304C230.889 209.918 229.849 210.224 228.556 210.224C227.263 210.224 226.223 209.944 225.436 209.384C224.649 208.811 224.249 208.011 224.236 206.984H226.436ZM97.9156 227.264C98.6889 227.264 99.5823 227.391 100.596 227.644V226.684C100.596 226.004 100.456 225.504 100.176 225.184C99.9089 224.851 99.4623 224.684 98.8356 224.684C98.2223 224.684 97.7489 224.811 97.4156 225.064C97.0823 225.304 96.9156 225.651 96.9156 226.104H94.3356C94.3356 224.998 94.7223 224.198 95.4956 223.704C96.2823 223.211 97.3756 222.964 98.7756 222.964C100.776 222.964 102.069 223.664 102.656 225.064C102.856 225.544 102.956 226.111 102.956 226.764V232.944H100.896L100.716 231.644C100.089 232.698 99.1289 233.224 97.8356 233.224C96.5823 233.224 95.6089 232.918 94.9156 232.304C94.2756 231.718 93.9556 230.978 93.9556 230.084C93.9556 229.178 94.3089 228.484 95.0156 228.004C95.7223 227.511 96.6889 227.264 97.9156 227.264ZM100.596 229.144C99.8089 228.931 99.0756 228.824 98.3956 228.824C97.1156 228.824 96.4756 229.251 96.4756 230.104C96.4756 230.464 96.6223 230.778 96.9156 231.044C97.2089 231.298 97.6756 231.424 98.3156 231.424C98.9689 231.424 99.5023 231.211 99.9156 230.784C100.342 230.344 100.569 229.798 100.596 229.144ZM115.035 225.064C115.662 223.664 116.762 222.964 118.335 222.964C119.495 222.964 120.395 223.358 121.035 224.144C121.649 224.891 121.955 225.931 121.955 227.264V232.944H119.575V227.264C119.575 226.544 119.402 226.004 119.055 225.644C118.709 225.271 118.222 225.084 117.595 225.084C116.969 225.084 116.455 225.358 116.055 225.904C115.655 226.451 115.442 227.278 115.415 228.384V232.944H113.055V227.264C113.055 226.544 112.882 226.004 112.535 225.644C112.189 225.271 111.702 225.084 111.075 225.084C110.449 225.084 109.909 225.364 109.455 225.924C109.015 226.484 108.782 227.324 108.755 228.444V232.944H106.395V223.224H108.455L108.715 224.904C109.355 223.611 110.382 222.964 111.795 222.964C112.609 222.964 113.282 223.151 113.815 223.524C114.362 223.898 114.769 224.411 115.035 225.064ZM129.2 222.964C129.853 222.964 130.466 223.071 131.04 223.284C131.613 223.484 132.106 223.798 132.52 224.224C133.44 225.158 133.9 226.451 133.9 228.104C133.9 229.731 133.44 231.011 132.52 231.944C131.693 232.798 130.586 233.224 129.2 233.224C127.813 233.224 126.693 232.798 125.84 231.944C124.92 231.024 124.46 229.744 124.46 228.104C124.46 226.438 124.92 225.144 125.84 224.224C126.68 223.384 127.8 222.964 129.2 222.964ZM131.54 228.084C131.54 227.058 131.34 226.291 130.94 225.784C130.54 225.264 129.98 225.004 129.26 225.004C128.553 225.004 127.973 225.264 127.52 225.784C127.066 226.291 126.84 227.058 126.84 228.084C126.84 229.111 127.04 229.884 127.44 230.404C127.853 230.911 128.413 231.164 129.12 231.164C129.826 231.164 130.406 230.911 130.86 230.404C131.313 229.884 131.54 229.111 131.54 228.084ZM139.028 224.904C139.668 223.611 140.694 222.964 142.108 222.964C143.308 222.964 144.208 223.358 144.808 224.144C145.421 224.931 145.728 225.971 145.728 227.264V232.944H143.368V227.264C143.368 226.544 143.194 226.004 142.848 225.644C142.501 225.271 142.014 225.084 141.388 225.084C140.761 225.084 140.221 225.364 139.768 225.924C139.328 226.484 139.094 227.324 139.068 228.444V232.944H136.708V223.224H138.768L139.028 224.904ZM150.009 228.964C149.222 228.298 148.829 227.464 148.829 226.464C148.829 225.411 149.242 224.558 150.069 223.904C150.869 223.278 151.782 222.964 152.809 222.964C153.849 222.964 154.715 223.158 155.409 223.544C155.489 222.784 155.815 222.171 156.389 221.704C156.949 221.238 157.609 221.004 158.369 221.004L158.249 223.264C157.102 223.264 156.509 223.644 156.469 224.404C156.962 225.018 157.209 225.644 157.209 226.284C157.209 226.924 157.095 227.464 156.869 227.904C156.642 228.331 156.335 228.691 155.949 228.984C155.149 229.624 154.175 229.944 153.029 229.944C152.375 229.944 151.782 229.844 151.249 229.644C150.715 229.804 150.449 230.124 150.449 230.604C150.449 231.204 150.955 231.504 151.969 231.504H155.229C157.442 231.504 158.549 232.278 158.549 233.824C158.549 234.344 158.415 234.851 158.149 235.344C157.895 235.851 157.522 236.298 157.029 236.684C155.935 237.538 154.562 237.964 152.909 237.964C151.309 237.964 150.009 237.638 149.009 236.984C148.075 236.358 147.609 235.591 147.609 234.684C147.609 234.084 147.789 233.604 148.149 233.244C148.522 232.898 149.009 232.678 149.609 232.584C148.822 232.104 148.429 231.511 148.429 230.804C148.429 230.338 148.575 229.951 148.869 229.644C149.162 229.324 149.542 229.098 150.009 228.964ZM151.809 233.164C150.555 233.218 149.929 233.691 149.929 234.584C149.929 235.038 150.189 235.398 150.709 235.664C151.242 235.944 151.869 236.084 152.589 236.084C153.309 236.084 153.869 236.024 154.269 235.904C154.682 235.784 155.029 235.624 155.309 235.424C155.909 235.024 156.209 234.544 156.209 233.984C156.209 233.744 156.122 233.544 155.949 233.384C155.789 233.238 155.549 233.164 155.229 233.164H151.809ZM154.869 226.444C154.869 225.898 154.715 225.458 154.409 225.124C154.115 224.778 153.662 224.604 153.049 224.604C152.435 224.604 151.969 224.778 151.649 225.124C151.329 225.458 151.169 225.898 151.169 226.444C151.169 226.978 151.329 227.418 151.649 227.764C151.969 228.111 152.435 228.284 153.049 228.284C153.662 228.284 154.115 228.111 154.409 227.764C154.715 227.418 154.869 226.978 154.869 226.444ZM162.129 229.984C162.156 230.904 162.829 231.364 164.149 231.364C164.656 231.364 165.069 231.258 165.389 231.044C165.723 230.818 165.889 230.558 165.889 230.264C165.889 229.971 165.789 229.744 165.589 229.584C165.389 229.424 165.076 229.278 164.649 229.144L162.529 228.384C160.956 227.838 160.169 226.944 160.169 225.704C160.169 224.878 160.536 224.218 161.269 223.724C162.016 223.218 163.009 222.964 164.249 222.964C165.503 222.964 166.463 223.238 167.129 223.784C167.809 224.331 168.163 225.018 168.189 225.844H165.969C165.943 225.524 165.789 225.271 165.509 225.084C165.229 224.898 164.829 224.804 164.309 224.804C163.789 224.804 163.383 224.911 163.089 225.124C162.809 225.324 162.669 225.558 162.669 225.824C162.669 226.291 163.063 226.638 163.849 226.864L166.149 227.724C166.909 227.978 167.489 228.304 167.889 228.704C168.303 229.091 168.509 229.598 168.509 230.224C168.509 231.024 168.129 231.718 167.369 232.304C166.583 232.918 165.543 233.224 164.249 233.224C162.956 233.224 161.916 232.944 161.129 232.384C160.343 231.811 159.943 231.011 159.929 229.984H162.129ZM176.836 232.704C175.956 233.051 175.263 233.224 174.756 233.224C174.25 233.224 173.803 233.164 173.416 233.044C173.043 232.924 172.71 232.744 172.416 232.504C171.803 231.958 171.496 231.204 171.496 230.244V224.804H170.136V223.224H171.496V220.664H173.856V223.224H176.496V224.804H173.856V230.164C173.856 230.964 174.236 231.364 174.996 231.364C175.383 231.364 175.883 231.258 176.496 231.044L176.836 232.704ZM76.9508 245.964C77.5641 245.964 78.1108 246.071 78.5908 246.284C79.0841 246.484 79.4974 246.751 79.8308 247.084C80.4974 247.724 80.8908 248.531 81.0108 249.504L78.6308 249.564C78.5241 249.138 78.3241 248.784 78.0308 248.504C77.7508 248.224 77.4241 248.084 77.0508 248.084C76.6774 248.084 76.3574 248.144 76.0908 248.264C75.8241 248.371 75.5908 248.544 75.3908 248.784C74.9374 249.344 74.7108 250.118 74.7108 251.104C74.7108 252.091 74.9241 252.838 75.3508 253.344C75.7774 253.838 76.2908 254.084 76.8908 254.084C77.5041 254.084 77.9441 253.944 78.2108 253.664C78.4908 253.371 78.6308 252.978 78.6308 252.484H81.0108C81.0108 253.551 80.6574 254.438 79.9508 255.144C79.2308 255.864 78.2241 256.224 76.9308 256.224C75.6508 256.224 74.5774 255.758 73.7108 254.824C72.7908 253.824 72.3308 252.578 72.3308 251.084C72.3308 249.511 72.7908 248.251 73.7108 247.304C74.5774 246.411 75.6574 245.964 76.9508 245.964ZM87.6762 245.964C88.3296 245.964 88.9429 246.071 89.5162 246.284C90.0896 246.484 90.5829 246.798 90.9962 247.224C91.9162 248.158 92.3762 249.451 92.3762 251.104C92.3762 252.731 91.9162 254.011 90.9962 254.944C90.1696 255.798 89.0629 256.224 87.6762 256.224C86.2896 256.224 85.1696 255.798 84.3162 254.944C83.3962 254.024 82.9362 252.744 82.9362 251.104C82.9362 249.438 83.3962 248.144 84.3162 247.224C85.1562 246.384 86.2762 245.964 87.6762 245.964ZM90.0162 251.084C90.0162 250.058 89.8162 249.291 89.4162 248.784C89.0162 248.264 88.4562 248.004 87.7362 248.004C87.0296 248.004 86.4496 248.264 85.9962 248.784C85.5429 249.291 85.3162 250.058 85.3162 251.084C85.3162 252.111 85.5162 252.884 85.9162 253.404C86.3296 253.911 86.8896 254.164 87.5962 254.164C88.3029 254.164 88.8829 253.911 89.3362 253.404C89.7896 252.884 90.0162 252.111 90.0162 251.084ZM95.1843 242.224H97.5443V255.944H95.1843V242.224ZM101.259 242.224H103.619V255.944H101.259V242.224ZM110.533 250.264C111.306 250.264 112.199 250.391 113.213 250.644V249.684C113.213 249.004 113.073 248.504 112.793 248.184C112.526 247.851 112.079 247.684 111.453 247.684C110.839 247.684 110.366 247.811 110.033 248.064C109.699 248.304 109.533 248.651 109.533 249.104H106.953C106.953 247.998 107.339 247.198 108.113 246.704C108.899 246.211 109.993 245.964 111.393 245.964C113.393 245.964 114.686 246.664 115.273 248.064C115.473 248.544 115.573 249.111 115.573 249.764V255.944H113.513L113.333 254.644C112.706 255.698 111.746 256.224 110.453 256.224C109.199 256.224 108.226 255.918 107.533 255.304C106.893 254.718 106.573 253.978 106.573 253.084C106.573 252.178 106.926 251.484 107.633 251.004C108.339 250.511 109.306 250.264 110.533 250.264ZM113.213 252.144C112.426 251.931 111.693 251.824 111.013 251.824C109.733 251.824 109.093 252.251 109.093 253.104C109.093 253.464 109.239 253.778 109.533 254.044C109.826 254.298 110.293 254.424 110.933 254.424C111.586 254.424 112.119 254.211 112.533 253.784C112.959 253.344 113.186 252.798 113.213 252.144ZM127.172 247.364C127.999 248.298 128.412 249.524 128.412 251.044C128.412 252.564 127.979 253.818 127.112 254.804C126.272 255.751 125.226 256.224 123.972 256.224C123.372 256.224 122.819 256.064 122.312 255.744C121.819 255.424 121.426 254.931 121.132 254.264L120.552 255.944H119.012V242.224H121.372V247.444C121.986 246.458 122.899 245.964 124.112 245.964C125.339 245.964 126.359 246.431 127.172 247.364ZM121.372 250.484V251.764C121.399 252.444 121.646 253.004 122.112 253.444C122.552 253.871 123.086 254.084 123.712 254.084C124.352 254.084 124.899 253.811 125.352 253.264C125.806 252.704 126.032 251.971 126.032 251.064C126.032 250.158 125.806 249.438 125.352 248.904C124.912 248.358 124.359 248.084 123.692 248.084C123.026 248.084 122.472 248.304 122.032 248.744C121.592 249.184 121.372 249.764 121.372 250.484ZM135.118 245.964C135.771 245.964 136.384 246.071 136.958 246.284C137.531 246.484 138.024 246.798 138.438 247.224C139.358 248.158 139.818 249.451 139.818 251.104C139.818 252.731 139.358 254.011 138.438 254.944C137.611 255.798 136.504 256.224 135.118 256.224C133.731 256.224 132.611 255.798 131.758 254.944C130.838 254.024 130.378 252.744 130.378 251.104C130.378 249.438 130.838 248.144 131.758 247.224C132.598 246.384 133.718 245.964 135.118 245.964ZM137.458 251.084C137.458 250.058 137.258 249.291 136.858 248.784C136.458 248.264 135.898 248.004 135.178 248.004C134.471 248.004 133.891 248.264 133.438 248.784C132.984 249.291 132.758 250.058 132.758 251.084C132.758 252.111 132.958 252.884 133.358 253.404C133.771 253.911 134.331 254.164 135.038 254.164C135.744 254.164 136.324 253.911 136.778 253.404C137.231 252.884 137.458 252.111 137.458 251.084ZM144.986 248.144C145.572 246.744 146.452 246.044 147.626 246.044C147.852 246.044 148.139 246.091 148.486 246.184L148.446 248.544C148.072 248.464 147.706 248.424 147.346 248.424C145.772 248.424 144.986 249.511 144.986 251.684V255.944H142.626V246.204H144.986V248.144ZM154.146 250.264C154.919 250.264 155.813 250.391 156.826 250.644V249.684C156.826 249.004 156.686 248.504 156.406 248.184C156.139 247.851 155.693 247.684 155.066 247.684C154.453 247.684 153.979 247.811 153.646 248.064C153.313 248.304 153.146 248.651 153.146 249.104H150.566C150.566 247.998 150.953 247.198 151.726 246.704C152.513 246.211 153.606 245.964 155.006 245.964C157.006 245.964 158.299 246.664 158.886 248.064C159.086 248.544 159.186 249.111 159.186 249.764V255.944H157.126L156.946 254.644C156.319 255.698 155.359 256.224 154.066 256.224C152.813 256.224 151.839 255.918 151.146 255.304C150.506 254.718 150.186 253.978 150.186 253.084C150.186 252.178 150.539 251.484 151.246 251.004C151.953 250.511 152.919 250.264 154.146 250.264ZM156.826 252.144C156.039 251.931 155.306 251.824 154.626 251.824C153.346 251.824 152.706 252.251 152.706 253.104C152.706 253.464 152.853 253.778 153.146 254.044C153.439 254.298 153.906 254.424 154.546 254.424C155.199 254.424 155.733 254.211 156.146 253.784C156.573 253.344 156.799 252.798 156.826 252.144ZM168.106 255.704C167.226 256.051 166.532 256.224 166.026 256.224C165.519 256.224 165.072 256.164 164.686 256.044C164.312 255.924 163.979 255.744 163.686 255.504C163.072 254.958 162.766 254.204 162.766 253.244V247.804H161.406V246.224H162.766V243.664H165.126V246.224H167.766V247.804H165.126V253.164C165.126 253.964 165.506 254.364 166.266 254.364C166.652 254.364 167.152 254.258 167.766 254.044L168.106 255.704ZM174.336 245.964C174.99 245.964 175.603 246.071 176.176 246.284C176.75 246.484 177.243 246.798 177.656 247.224C178.576 248.158 179.036 249.451 179.036 251.104C179.036 252.731 178.576 254.011 177.656 254.944C176.83 255.798 175.723 256.224 174.336 256.224C172.95 256.224 171.83 255.798 170.976 254.944C170.056 254.024 169.596 252.744 169.596 251.104C169.596 249.438 170.056 248.144 170.976 247.224C171.816 246.384 172.936 245.964 174.336 245.964ZM176.676 251.084C176.676 250.058 176.476 249.291 176.076 248.784C175.676 248.264 175.116 248.004 174.396 248.004C173.69 248.004 173.11 248.264 172.656 248.784C172.203 249.291 171.976 250.058 171.976 251.084C171.976 252.111 172.176 252.884 172.576 253.404C172.99 253.911 173.55 254.164 174.256 254.164C174.963 254.164 175.543 253.911 175.996 253.404C176.45 252.884 176.676 252.111 176.676 251.084ZM184.204 248.144C184.791 246.744 185.671 246.044 186.844 246.044C187.071 246.044 187.358 246.091 187.704 246.184L187.664 248.544C187.291 248.464 186.924 248.424 186.564 248.424C184.991 248.424 184.204 249.511 184.204 251.684V255.944H181.844V246.204H184.204V248.144ZM191.485 252.984C191.511 253.904 192.185 254.364 193.505 254.364C194.011 254.364 194.425 254.258 194.745 254.044C195.078 253.818 195.245 253.558 195.245 253.264C195.245 252.971 195.145 252.744 194.945 252.584C194.745 252.424 194.431 252.278 194.005 252.144L191.885 251.384C190.311 250.838 189.525 249.944 189.525 248.704C189.525 247.878 189.891 247.218 190.625 246.724C191.371 246.218 192.365 245.964 193.605 245.964C194.858 245.964 195.818 246.238 196.485 246.784C197.165 247.331 197.518 248.018 197.545 248.844H195.325C195.298 248.524 195.145 248.271 194.865 248.084C194.585 247.898 194.185 247.804 193.665 247.804C193.145 247.804 192.738 247.911 192.445 248.124C192.165 248.324 192.025 248.558 192.025 248.824C192.025 249.291 192.418 249.638 193.205 249.864L195.505 250.724C196.265 250.978 196.845 251.304 197.245 251.704C197.658 252.091 197.865 252.598 197.865 253.224C197.865 254.024 197.485 254.718 196.725 255.304C195.938 255.918 194.898 256.224 193.605 256.224C192.311 256.224 191.271 255.944 190.485 255.384C189.698 254.811 189.298 254.011 189.285 252.984H191.485Z" fill="white"/>
</svg>
