<svg width="303" height="313" viewBox="0 0 303 313" fill="none" xmlns="http://www.w3.org/2000/svg">
<ellipse cx="151.045" cy="151.452" rx="134.667" ry="135.848" fill="#FDE54A"/>
<ellipse cx="134.667" cy="177.152" rx="134.667" ry="135.848" fill="#011149"/>
<path d="M102.448 137.36C100.576 137.36 98.932 137.06 97.516 136.46C96.1 135.836 94.996 134.948 94.204 133.796C93.412 132.644 93.016 131.3 93.016 129.764C93.016 128.348 93.364 127.112 94.06 126.056C94.756 124.976 95.704 124.148 96.904 123.572C95.944 123.02 95.2 122.3 94.672 121.412C94.168 120.5 93.916 119.444 93.916 118.244C93.916 116.132 94.684 114.476 96.22 113.276C97.78 112.052 99.856 111.44 102.448 111.44C105.016 111.44 107.068 112.052 108.604 113.276C110.164 114.476 110.944 116.12 110.944 118.208C110.944 119.408 110.68 120.464 110.152 121.376C109.648 122.264 108.928 122.996 107.992 123.572C109.192 124.148 110.14 124.976 110.836 126.056C111.532 127.112 111.88 128.348 111.88 129.764C111.88 131.3 111.484 132.644 110.692 133.796C109.9 134.948 108.784 135.836 107.344 136.46C105.928 137.06 104.296 137.36 102.448 137.36ZM102.448 122.276C103.888 122.252 105.1 121.88 106.084 121.16C107.068 120.44 107.56 119.492 107.56 118.316C107.56 117.116 107.068 116.156 106.084 115.436C105.124 114.692 103.912 114.32 102.448 114.32C100.96 114.32 99.724 114.68 98.74 115.4C97.78 116.12 97.3 117.092 97.3 118.316C97.3 119.516 97.78 120.476 98.74 121.196C99.724 121.916 100.96 122.276 102.448 122.276ZM102.448 134.48C104.128 134.48 105.532 134.048 106.66 133.184C107.788 132.32 108.352 131.18 108.352 129.764C108.352 128.348 107.788 127.22 106.66 126.38C105.532 125.54 104.128 125.12 102.448 125.12C100.744 125.12 99.328 125.54 98.2 126.38C97.072 127.22 96.508 128.348 96.508 129.764C96.508 131.18 97.072 132.32 98.2 133.184C99.328 134.048 100.744 134.48 102.448 134.48ZM124.615 137.36C122.719 137.36 121.075 137.06 119.683 136.46C118.315 135.836 117.271 135.032 116.551 134.048C115.855 133.064 115.483 132.032 115.435 130.952C115.435 130.736 115.507 130.568 115.651 130.448C115.795 130.304 115.975 130.232 116.191 130.232H117.955C118.459 130.232 118.795 130.496 118.963 131.024C119.275 132.224 119.947 133.076 120.979 133.58C122.011 134.06 123.223 134.3 124.615 134.3C126.319 134.3 127.675 133.904 128.683 133.112C129.691 132.296 130.195 131.132 130.195 129.62C130.195 126.716 128.431 125.264 124.903 125.264H121.483C121.243 125.264 121.039 125.192 120.871 125.048C120.727 124.88 120.655 124.676 120.655 124.436V123.464C120.655 123.128 120.787 122.804 121.051 122.492L128.035 114.86H117.415C117.175 114.86 116.971 114.788 116.803 114.644C116.659 114.476 116.587 114.272 116.587 114.032V112.664C116.587 112.424 116.659 112.22 116.803 112.052C116.971 111.884 117.175 111.8 117.415 111.8H131.779C132.043 111.8 132.247 111.884 132.391 112.052C132.559 112.196 132.643 112.4 132.643 112.664V113.96C132.643 114.248 132.511 114.524 132.247 114.788L125.299 122.528L125.875 122.564C128.323 122.636 130.255 123.272 131.671 124.472C133.087 125.672 133.795 127.424 133.795 129.728C133.795 131.288 133.399 132.644 132.607 133.796C131.815 134.948 130.723 135.836 129.331 136.46C127.939 137.06 126.367 137.36 124.615 137.36ZM142.456 124.436C140.896 124.436 139.66 124.028 138.748 123.212C137.86 122.372 137.368 121.22 137.272 119.756C137.248 119.348 137.236 118.82 137.236 118.172C137.236 117.476 137.248 116.912 137.272 116.48C137.344 114.992 137.812 113.816 138.676 112.952C139.564 112.064 140.824 111.62 142.456 111.62C144.088 111.62 145.336 112.064 146.2 112.952C147.088 113.816 147.568 114.992 147.64 116.48C147.688 117.44 147.712 118.052 147.712 118.316C147.712 118.556 147.688 119.036 147.64 119.756C147.568 121.22 147.076 122.372 146.164 123.212C145.252 124.028 144.016 124.436 142.456 124.436ZM139.432 137C139.216 137 139.036 136.94 138.892 136.82C138.748 136.676 138.676 136.496 138.676 136.28C138.676 136.136 138.724 136.004 138.82 135.884L156.604 112.484C156.796 112.22 156.964 112.04 157.108 111.944C157.276 111.848 157.504 111.8 157.792 111.8H158.98C159.22 111.8 159.4 111.872 159.52 112.016C159.664 112.136 159.736 112.304 159.736 112.52C159.736 112.664 159.688 112.796 159.592 112.916L141.844 136.316C141.652 136.58 141.472 136.76 141.304 136.856C141.16 136.952 140.932 137 140.62 137H139.432ZM142.456 122.204C143.32 122.204 143.944 121.952 144.328 121.448C144.736 120.944 144.976 120.332 145.048 119.612C145.096 118.748 145.12 118.244 145.12 118.1C145.12 117.884 145.096 117.392 145.048 116.624C145 115.88 144.76 115.256 144.328 114.752C143.92 114.248 143.296 113.996 142.456 113.996C141.616 113.996 140.992 114.248 140.584 114.752C140.176 115.256 139.948 115.88 139.9 116.624C139.876 117.008 139.864 117.5 139.864 118.1C139.864 118.676 139.876 119.18 139.9 119.612C139.972 120.356 140.2 120.98 140.584 121.484C140.992 121.964 141.616 122.204 142.456 122.204ZM155.92 137.216C154.36 137.216 153.124 136.784 152.212 135.92C151.324 135.032 150.832 133.856 150.736 132.392C150.712 131.984 150.7 131.456 150.7 130.808C150.7 130.112 150.712 129.548 150.736 129.116C150.832 127.628 151.312 126.452 152.176 125.588C153.064 124.7 154.312 124.256 155.92 124.256C157.552 124.256 158.8 124.7 159.664 125.588C160.552 126.452 161.044 127.628 161.14 129.116C161.188 129.98 161.212 130.544 161.212 130.808C161.212 131.048 161.188 131.576 161.14 132.392C161.044 133.856 160.54 135.032 159.628 135.92C158.716 136.784 157.48 137.216 155.92 137.216ZM155.92 134.84C156.784 134.84 157.408 134.588 157.792 134.084C158.2 133.58 158.44 132.968 158.512 132.248C158.56 131.384 158.584 130.88 158.584 130.736C158.584 130.52 158.56 130.028 158.512 129.26C158.464 128.516 158.236 127.892 157.828 127.388C157.42 126.884 156.784 126.632 155.92 126.632C155.08 126.632 154.456 126.884 154.048 127.388C153.64 127.892 153.412 128.516 153.364 129.26C153.34 129.644 153.328 130.136 153.328 130.736C153.328 131.312 153.34 131.816 153.364 132.248C153.436 132.968 153.664 133.58 154.048 134.084C154.456 134.588 155.08 134.84 155.92 134.84Z" fill="white"/>
<path d="M76.5434 153.964C77.1967 153.964 77.8101 154.071 78.3834 154.284C78.9567 154.484 79.4501 154.798 79.8634 155.224C80.7834 156.158 81.2434 157.451 81.2434 159.104C81.2434 160.731 80.7834 162.011 79.8634 162.944C79.0367 163.798 77.9301 164.224 76.5434 164.224C75.1567 164.224 74.0367 163.798 73.1834 162.944C72.2634 162.024 71.8034 160.744 71.8034 159.104C71.8034 157.438 72.2634 156.144 73.1834 155.224C74.0234 154.384 75.1434 153.964 76.5434 153.964ZM78.8834 159.084C78.8834 158.058 78.6834 157.291 78.2834 156.784C77.8834 156.264 77.3234 156.004 76.6034 156.004C75.8967 156.004 75.3167 156.264 74.8634 156.784C74.4101 157.291 74.1834 158.058 74.1834 159.084C74.1834 160.111 74.3834 160.884 74.7834 161.404C75.1967 161.911 75.7567 162.164 76.4634 162.164C77.1701 162.164 77.7501 161.911 78.2034 161.404C78.6567 160.884 78.8834 160.111 78.8834 159.084ZM82.9915 154.224H84.4315V153.084C84.4315 152.084 84.7249 151.318 85.3115 150.784C85.8449 150.304 86.5382 150.064 87.3915 150.064C87.9382 150.064 88.6115 150.144 89.4115 150.304L88.9515 152.124C88.5782 151.991 88.2382 151.924 87.9315 151.924C87.6382 151.924 87.3782 152.011 87.1515 152.184C86.9249 152.344 86.8115 152.651 86.8115 153.104V154.224H88.5915V155.804H86.8115V163.944H84.4315V155.804H82.9915V154.224ZM102.894 162.184C102.281 163.478 101.294 164.124 99.9343 164.124C98.2143 164.124 97.081 163.451 96.5343 162.104C96.3343 161.638 96.2343 161.071 96.2343 160.404V154.204H98.5943V160.164C98.5943 160.804 98.7477 161.284 99.0543 161.604C99.361 161.911 99.7343 162.064 100.174 162.064C100.628 162.064 101.008 162.004 101.314 161.884C101.621 161.751 101.888 161.558 102.114 161.304C102.608 160.731 102.868 159.964 102.894 159.004V154.204H105.254V163.944H102.894V162.184ZM110.293 160.984C110.32 161.904 110.993 162.364 112.313 162.364C112.82 162.364 113.233 162.258 113.553 162.044C113.887 161.818 114.053 161.558 114.053 161.264C114.053 160.971 113.953 160.744 113.753 160.584C113.553 160.424 113.24 160.278 112.813 160.144L110.693 159.384C109.12 158.838 108.333 157.944 108.333 156.704C108.333 155.878 108.7 155.218 109.433 154.724C110.18 154.218 111.173 153.964 112.413 153.964C113.667 153.964 114.627 154.238 115.293 154.784C115.973 155.331 116.327 156.018 116.353 156.844H114.133C114.107 156.524 113.953 156.271 113.673 156.084C113.393 155.898 112.993 155.804 112.473 155.804C111.953 155.804 111.547 155.911 111.253 156.124C110.973 156.324 110.833 156.558 110.833 156.824C110.833 157.291 111.227 157.638 112.013 157.864L114.313 158.724C115.073 158.978 115.653 159.304 116.053 159.704C116.467 160.091 116.673 160.598 116.673 161.224C116.673 162.024 116.293 162.718 115.533 163.304C114.747 163.918 113.707 164.224 112.413 164.224C111.12 164.224 110.08 163.944 109.293 163.384C108.507 162.811 108.107 162.011 108.093 160.984H110.293ZM126.3 155.384C126.634 155.811 126.88 156.304 127.04 156.864C127.214 157.424 127.3 157.938 127.3 158.404C127.3 158.871 127.274 159.291 127.22 159.664H120.94C120.967 160.451 121.16 161.091 121.52 161.584C121.88 162.078 122.427 162.324 123.16 162.324C124.134 162.324 124.714 161.898 124.9 161.044H127.28C127.12 162.018 126.674 162.784 125.94 163.344C125.18 163.931 124.254 164.224 123.16 164.224C121.88 164.224 120.807 163.758 119.94 162.824C119.047 161.851 118.6 160.604 118.6 159.084C118.6 157.524 119.047 156.271 119.94 155.324C120.794 154.418 121.867 153.964 123.16 153.964C124.507 153.964 125.554 154.438 126.3 155.384ZM123.18 155.844C122.514 155.844 121.994 156.064 121.62 156.504C121.247 156.931 121.027 157.484 120.96 158.164H125.1C125.1 157.111 124.767 156.404 124.1 156.044C123.847 155.911 123.54 155.844 123.18 155.844ZM132.486 156.144C133.072 154.744 133.952 154.044 135.126 154.044C135.352 154.044 135.639 154.091 135.986 154.184L135.946 156.544C135.572 156.464 135.206 156.424 134.846 156.424C133.272 156.424 132.486 157.511 132.486 159.684V163.944H130.126V154.204H132.486V156.144ZM139.766 160.984C139.793 161.904 140.466 162.364 141.786 162.364C142.293 162.364 142.706 162.258 143.026 162.044C143.359 161.818 143.526 161.558 143.526 161.264C143.526 160.971 143.426 160.744 143.226 160.584C143.026 160.424 142.713 160.278 142.286 160.144L140.166 159.384C138.593 158.838 137.806 157.944 137.806 156.704C137.806 155.878 138.173 155.218 138.906 154.724C139.653 154.218 140.646 153.964 141.886 153.964C143.139 153.964 144.099 154.238 144.766 154.784C145.446 155.331 145.799 156.018 145.826 156.844H143.606C143.579 156.524 143.426 156.271 143.146 156.084C142.866 155.898 142.466 155.804 141.946 155.804C141.426 155.804 141.019 155.911 140.726 156.124C140.446 156.324 140.306 156.558 140.306 156.824C140.306 157.291 140.699 157.638 141.486 157.864L143.786 158.724C144.546 158.978 145.126 159.304 145.526 159.704C145.939 160.091 146.146 160.598 146.146 161.224C146.146 162.024 145.766 162.718 145.006 163.304C144.219 163.918 143.179 164.224 141.886 164.224C140.593 164.224 139.553 163.944 138.766 163.384C137.979 162.811 137.579 162.011 137.566 160.984H139.766ZM154.912 154.224L156.872 161.164L158.732 154.764H160.872L162.732 161.184L164.712 154.224H167.072L163.872 163.944H161.552L159.752 158.124L157.992 163.944H155.652L152.432 154.224H154.912ZM172.408 158.264C173.181 158.264 174.074 158.391 175.088 158.644V157.684C175.088 157.004 174.948 156.504 174.668 156.184C174.401 155.851 173.954 155.684 173.328 155.684C172.714 155.684 172.241 155.811 171.908 156.064C171.574 156.304 171.408 156.651 171.408 157.104H168.828C168.828 155.998 169.214 155.198 169.988 154.704C170.774 154.211 171.868 153.964 173.268 153.964C175.268 153.964 176.561 154.664 177.148 156.064C177.348 156.544 177.448 157.111 177.448 157.764V163.944H175.388L175.208 162.644C174.581 163.698 173.621 164.224 172.328 164.224C171.074 164.224 170.101 163.918 169.408 163.304C168.768 162.718 168.448 161.978 168.448 161.084C168.448 160.178 168.801 159.484 169.508 159.004C170.214 158.511 171.181 158.264 172.408 158.264ZM175.088 160.144C174.301 159.931 173.568 159.824 172.888 159.824C171.608 159.824 170.968 160.251 170.968 161.104C170.968 161.464 171.114 161.778 171.408 162.044C171.701 162.298 172.168 162.424 172.808 162.424C173.461 162.424 173.994 162.211 174.408 161.784C174.834 161.344 175.061 160.798 175.088 160.144ZM183.207 155.904C183.847 154.611 184.874 153.964 186.287 153.964C187.487 153.964 188.387 154.358 188.987 155.144C189.601 155.931 189.907 156.971 189.907 158.264V163.944H187.547V158.264C187.547 157.544 187.374 157.004 187.027 156.644C186.681 156.271 186.194 156.084 185.567 156.084C184.941 156.084 184.401 156.364 183.947 156.924C183.507 157.484 183.274 158.324 183.247 159.444V163.944H180.887V154.224H182.947L183.207 155.904ZM198.828 163.704C197.948 164.051 197.255 164.224 196.748 164.224C196.242 164.224 195.795 164.164 195.408 164.044C195.035 163.924 194.702 163.744 194.408 163.504C193.795 162.958 193.488 162.204 193.488 161.244V155.804H192.128V154.224H193.488V151.664H195.848V154.224H198.488V155.804H195.848V161.164C195.848 161.964 196.228 162.364 196.988 162.364C197.375 162.364 197.875 162.258 198.488 162.044L198.828 163.704ZM89.0151 178.384C89.3485 178.811 89.5951 179.304 89.7551 179.864C89.9285 180.424 90.0151 180.938 90.0151 181.404C90.0151 181.871 89.9885 182.291 89.9351 182.664H83.6551C83.6818 183.451 83.8751 184.091 84.2351 184.584C84.5951 185.078 85.1418 185.324 85.8751 185.324C86.8485 185.324 87.4285 184.898 87.6151 184.044H89.9951C89.8351 185.018 89.3885 185.784 88.6551 186.344C87.8951 186.931 86.9685 187.224 85.8751 187.224C84.5951 187.224 83.5218 186.758 82.6551 185.824C81.7618 184.851 81.3151 183.604 81.3151 182.084C81.3151 180.524 81.7618 179.271 82.6551 178.324C83.5085 177.418 84.5818 176.964 85.8751 176.964C87.2218 176.964 88.2685 177.438 89.0151 178.384ZM85.8951 178.844C85.2285 178.844 84.7085 179.064 84.3351 179.504C83.9618 179.931 83.7418 180.484 83.6751 181.164H87.8151C87.8151 180.111 87.4818 179.404 86.8151 179.044C86.5618 178.911 86.2551 178.844 85.8951 178.844ZM99.1806 185.444C98.5806 186.631 97.6606 187.224 96.4206 187.224C95.1806 187.224 94.1406 186.751 93.3006 185.804C92.4339 184.818 92.0006 183.564 92.0006 182.044C92.0006 180.524 92.4139 179.291 93.2406 178.344C94.0539 177.424 95.0673 176.964 96.2806 176.964C97.4939 176.964 98.4073 177.451 99.0206 178.424V173.224H101.401V186.944H99.4606L99.1806 185.444ZM96.7206 179.084C96.0539 179.084 95.4939 179.358 95.0406 179.904C94.6006 180.438 94.3806 181.158 94.3806 182.064C94.3806 182.971 94.6073 183.704 95.0606 184.264C95.5139 184.811 96.0873 185.084 96.7806 185.084C97.3539 185.084 97.8673 184.858 98.3206 184.404C98.7873 183.938 99.0206 183.351 99.0206 182.644V181.384C98.9939 180.691 98.7606 180.124 98.3206 179.684C97.9206 179.284 97.3873 179.084 96.7206 179.084ZM105.326 177.204H107.686V186.944H105.326V177.204ZM105.046 174.084C105.046 173.658 105.172 173.324 105.426 173.084C105.679 172.831 106.039 172.704 106.506 172.704C106.959 172.704 107.312 172.831 107.566 173.084C107.832 173.324 107.966 173.658 107.966 174.084C107.966 174.511 107.832 174.851 107.566 175.104C107.312 175.344 106.959 175.464 106.506 175.464C106.039 175.464 105.679 175.344 105.426 175.104C105.172 174.851 105.046 174.511 105.046 174.084ZM117.168 186.704C116.288 187.051 115.595 187.224 115.088 187.224C114.582 187.224 114.135 187.164 113.748 187.044C113.375 186.924 113.042 186.744 112.748 186.504C112.135 185.958 111.828 185.204 111.828 184.244V178.804H110.468V177.224H111.828V174.664H114.188V177.224H116.828V178.804H114.188V184.164C114.188 184.964 114.568 185.364 115.328 185.364C115.715 185.364 116.215 185.258 116.828 185.044L117.168 186.704ZM119.779 177.204H122.139V186.944H119.779V177.204ZM119.499 174.084C119.499 173.658 119.626 173.324 119.879 173.084C120.132 172.831 120.492 172.704 120.959 172.704C121.412 172.704 121.766 172.831 122.019 173.084C122.286 173.324 122.419 173.658 122.419 174.084C122.419 174.511 122.286 174.851 122.019 175.104C121.766 175.344 121.412 175.464 120.959 175.464C120.492 175.464 120.132 175.344 119.879 175.104C119.626 174.851 119.499 174.511 119.499 174.084ZM128.461 178.904C129.101 177.611 130.128 176.964 131.541 176.964C132.741 176.964 133.641 177.358 134.241 178.144C134.855 178.931 135.161 179.971 135.161 181.264V186.944H132.801V181.264C132.801 180.544 132.628 180.004 132.281 179.644C131.935 179.271 131.448 179.084 130.821 179.084C130.195 179.084 129.655 179.364 129.201 179.924C128.761 180.484 128.528 181.324 128.501 182.444V186.944H126.141V177.224H128.201L128.461 178.904ZM139.442 182.964C138.656 182.298 138.262 181.464 138.262 180.464C138.262 179.411 138.676 178.558 139.502 177.904C140.302 177.278 141.216 176.964 142.242 176.964C143.282 176.964 144.149 177.158 144.842 177.544C144.922 176.784 145.249 176.171 145.822 175.704C146.382 175.238 147.042 175.004 147.802 175.004L147.682 177.264C146.536 177.264 145.942 177.644 145.902 178.404C146.396 179.018 146.642 179.644 146.642 180.284C146.642 180.924 146.529 181.464 146.302 181.904C146.076 182.331 145.769 182.691 145.382 182.984C144.582 183.624 143.609 183.944 142.462 183.944C141.809 183.944 141.216 183.844 140.682 183.644C140.149 183.804 139.882 184.124 139.882 184.604C139.882 185.204 140.389 185.504 141.402 185.504H144.662C146.876 185.504 147.982 186.278 147.982 187.824C147.982 188.344 147.849 188.851 147.582 189.344C147.329 189.851 146.956 190.298 146.462 190.684C145.369 191.538 143.996 191.964 142.342 191.964C140.742 191.964 139.442 191.638 138.442 190.984C137.509 190.358 137.042 189.591 137.042 188.684C137.042 188.084 137.222 187.604 137.582 187.244C137.956 186.898 138.442 186.678 139.042 186.584C138.256 186.104 137.862 185.511 137.862 184.804C137.862 184.338 138.009 183.951 138.302 183.644C138.596 183.324 138.976 183.098 139.442 182.964ZM141.242 187.164C139.989 187.218 139.362 187.691 139.362 188.584C139.362 189.038 139.622 189.398 140.142 189.664C140.676 189.944 141.302 190.084 142.022 190.084C142.742 190.084 143.302 190.024 143.702 189.904C144.116 189.784 144.462 189.624 144.742 189.424C145.342 189.024 145.642 188.544 145.642 187.984C145.642 187.744 145.556 187.544 145.382 187.384C145.222 187.238 144.982 187.164 144.662 187.164H141.242ZM144.302 180.444C144.302 179.898 144.149 179.458 143.842 179.124C143.549 178.778 143.096 178.604 142.482 178.604C141.869 178.604 141.402 178.778 141.082 179.124C140.762 179.458 140.602 179.898 140.602 180.444C140.602 180.978 140.762 181.418 141.082 181.764C141.402 182.111 141.869 182.284 142.482 182.284C143.096 182.284 143.549 182.111 143.842 181.764C144.149 181.418 144.302 180.978 144.302 180.444ZM158.502 181.264C159.275 181.264 160.168 181.391 161.182 181.644V180.684C161.182 180.004 161.042 179.504 160.762 179.184C160.495 178.851 160.048 178.684 159.422 178.684C158.808 178.684 158.335 178.811 158.002 179.064C157.668 179.304 157.502 179.651 157.502 180.104H154.922C154.922 178.998 155.308 178.198 156.082 177.704C156.868 177.211 157.962 176.964 159.362 176.964C161.362 176.964 162.655 177.664 163.242 179.064C163.442 179.544 163.542 180.111 163.542 180.764V186.944H161.482L161.302 185.644C160.675 186.698 159.715 187.224 158.422 187.224C157.168 187.224 156.195 186.918 155.502 186.304C154.862 185.718 154.542 184.978 154.542 184.084C154.542 183.178 154.895 182.484 155.602 182.004C156.308 181.511 157.275 181.264 158.502 181.264ZM161.182 183.144C160.395 182.931 159.662 182.824 158.982 182.824C157.702 182.824 157.062 183.251 157.062 184.104C157.062 184.464 157.208 184.778 157.502 185.044C157.795 185.298 158.262 185.424 158.902 185.424C159.555 185.424 160.088 185.211 160.502 184.784C160.928 184.344 161.155 183.798 161.182 183.144ZM169.301 178.904C169.941 177.611 170.968 176.964 172.381 176.964C173.581 176.964 174.481 177.358 175.081 178.144C175.695 178.931 176.001 179.971 176.001 181.264V186.944H173.641V181.264C173.641 180.544 173.468 180.004 173.121 179.644C172.775 179.271 172.288 179.084 171.661 179.084C171.035 179.084 170.495 179.364 170.041 179.924C169.601 180.484 169.368 181.324 169.341 182.444V186.944H166.981V177.224H169.041L169.301 178.904ZM185.782 185.444C185.182 186.631 184.262 187.224 183.022 187.224C181.782 187.224 180.742 186.751 179.902 185.804C179.035 184.818 178.602 183.564 178.602 182.044C178.602 180.524 179.015 179.291 179.842 178.344C180.655 177.424 181.669 176.964 182.882 176.964C184.095 176.964 185.009 177.451 185.622 178.424V173.224H188.002V186.944H186.062L185.782 185.444ZM183.322 179.084C182.655 179.084 182.095 179.358 181.642 179.904C181.202 180.438 180.982 181.158 180.982 182.064C180.982 182.971 181.209 183.704 181.662 184.264C182.115 184.811 182.689 185.084 183.382 185.084C183.955 185.084 184.469 184.858 184.922 184.404C185.389 183.938 185.622 183.351 185.622 182.644V181.384C185.595 180.691 185.362 180.124 184.922 179.684C184.522 179.284 183.989 179.084 183.322 179.084ZM42.979 206.984C43.0056 207.904 43.679 208.364 44.999 208.364C45.5056 208.364 45.919 208.258 46.239 208.044C46.5723 207.818 46.739 207.558 46.739 207.264C46.739 206.971 46.639 206.744 46.439 206.584C46.239 206.424 45.9256 206.278 45.499 206.144L43.379 205.384C41.8056 204.838 41.019 203.944 41.019 202.704C41.019 201.878 41.3856 201.218 42.119 200.724C42.8656 200.218 43.859 199.964 45.099 199.964C46.3523 199.964 47.3123 200.238 47.979 200.784C48.659 201.331 49.0123 202.018 49.039 202.844H46.819C46.7923 202.524 46.639 202.271 46.359 202.084C46.079 201.898 45.679 201.804 45.159 201.804C44.639 201.804 44.2323 201.911 43.939 202.124C43.659 202.324 43.519 202.558 43.519 202.824C43.519 203.291 43.9123 203.638 44.699 203.864L46.999 204.724C47.759 204.978 48.339 205.304 48.739 205.704C49.1523 206.091 49.359 206.598 49.359 207.224C49.359 208.024 48.979 208.718 48.219 209.304C47.4323 209.918 46.3923 210.224 45.099 210.224C43.8056 210.224 42.7656 209.944 41.979 209.384C41.1923 208.811 40.7923 208.011 40.779 206.984H42.979ZM58.6658 208.184C58.0525 209.478 57.0658 210.124 55.7058 210.124C53.9858 210.124 52.8525 209.451 52.3058 208.104C52.1058 207.638 52.0058 207.071 52.0058 206.404V200.204H54.3658V206.164C54.3658 206.804 54.5192 207.284 54.8258 207.604C55.1325 207.911 55.5058 208.064 55.9458 208.064C56.3992 208.064 56.7792 208.004 57.0858 207.884C57.3925 207.751 57.6592 207.558 57.8858 207.304C58.3792 206.731 58.6392 205.964 58.6658 205.004V200.204H61.0258V209.944H58.6658V208.184ZM65.5849 205.964C64.7982 205.298 64.4049 204.464 64.4049 203.464C64.4049 202.411 64.8182 201.558 65.6449 200.904C66.4449 200.278 67.3582 199.964 68.3849 199.964C69.4249 199.964 70.2916 200.158 70.9849 200.544C71.0649 199.784 71.3916 199.171 71.9649 198.704C72.5249 198.238 73.1849 198.004 73.9449 198.004L73.8249 200.264C72.6782 200.264 72.0849 200.644 72.0449 201.404C72.5382 202.018 72.7849 202.644 72.7849 203.284C72.7849 203.924 72.6716 204.464 72.4449 204.904C72.2182 205.331 71.9116 205.691 71.5249 205.984C70.7249 206.624 69.7516 206.944 68.6049 206.944C67.9516 206.944 67.3582 206.844 66.8249 206.644C66.2916 206.804 66.0249 207.124 66.0249 207.604C66.0249 208.204 66.5316 208.504 67.5449 208.504H70.8049C73.0182 208.504 74.1249 209.278 74.1249 210.824C74.1249 211.344 73.9916 211.851 73.7249 212.344C73.4716 212.851 73.0982 213.298 72.6049 213.684C71.5116 214.538 70.1382 214.964 68.4849 214.964C66.8849 214.964 65.5849 214.638 64.5849 213.984C63.6516 213.358 63.1849 212.591 63.1849 211.684C63.1849 211.084 63.3649 210.604 63.7249 210.244C64.0982 209.898 64.5849 209.678 65.1849 209.584C64.3982 209.104 64.0049 208.511 64.0049 207.804C64.0049 207.338 64.1516 206.951 64.4449 206.644C64.7382 206.324 65.1182 206.098 65.5849 205.964ZM67.3849 210.164C66.1316 210.218 65.5049 210.691 65.5049 211.584C65.5049 212.038 65.7649 212.398 66.2849 212.664C66.8182 212.944 67.4449 213.084 68.1649 213.084C68.8849 213.084 69.4449 213.024 69.8449 212.904C70.2582 212.784 70.6049 212.624 70.8849 212.424C71.4849 212.024 71.7849 211.544 71.7849 210.984C71.7849 210.744 71.6982 210.544 71.5249 210.384C71.3649 210.238 71.1249 210.164 70.8049 210.164H67.3849ZM70.4449 203.444C70.4449 202.898 70.2916 202.458 69.9849 202.124C69.6916 201.778 69.2382 201.604 68.6249 201.604C68.0116 201.604 67.5449 201.778 67.2249 202.124C66.9049 202.458 66.7449 202.898 66.7449 203.444C66.7449 203.978 66.9049 204.418 67.2249 204.764C67.5449 205.111 68.0116 205.284 68.6249 205.284C69.2382 205.284 69.6916 205.111 69.9849 204.764C70.2916 204.418 70.4449 203.978 70.4449 203.444ZM77.2255 205.964C76.4389 205.298 76.0455 204.464 76.0455 203.464C76.0455 202.411 76.4589 201.558 77.2855 200.904C78.0855 200.278 78.9989 199.964 80.0255 199.964C81.0655 199.964 81.9322 200.158 82.6255 200.544C82.7055 199.784 83.0322 199.171 83.6055 198.704C84.1655 198.238 84.8255 198.004 85.5855 198.004L85.4655 200.264C84.3189 200.264 83.7255 200.644 83.6855 201.404C84.1789 202.018 84.4255 202.644 84.4255 203.284C84.4255 203.924 84.3122 204.464 84.0855 204.904C83.8589 205.331 83.5522 205.691 83.1655 205.984C82.3655 206.624 81.3922 206.944 80.2455 206.944C79.5922 206.944 78.9989 206.844 78.4655 206.644C77.9322 206.804 77.6655 207.124 77.6655 207.604C77.6655 208.204 78.1722 208.504 79.1855 208.504H82.4455C84.6589 208.504 85.7655 209.278 85.7655 210.824C85.7655 211.344 85.6322 211.851 85.3655 212.344C85.1122 212.851 84.7389 213.298 84.2455 213.684C83.1522 214.538 81.7789 214.964 80.1255 214.964C78.5255 214.964 77.2255 214.638 76.2255 213.984C75.2922 213.358 74.8255 212.591 74.8255 211.684C74.8255 211.084 75.0055 210.604 75.3655 210.244C75.7389 209.898 76.2255 209.678 76.8255 209.584C76.0389 209.104 75.6455 208.511 75.6455 207.804C75.6455 207.338 75.7922 206.951 76.0855 206.644C76.3789 206.324 76.7589 206.098 77.2255 205.964ZM79.0255 210.164C77.7722 210.218 77.1455 210.691 77.1455 211.584C77.1455 212.038 77.4055 212.398 77.9255 212.664C78.4589 212.944 79.0855 213.084 79.8055 213.084C80.5255 213.084 81.0855 213.024 81.4855 212.904C81.8989 212.784 82.2455 212.624 82.5255 212.424C83.1255 212.024 83.4255 211.544 83.4255 210.984C83.4255 210.744 83.3389 210.544 83.1655 210.384C83.0055 210.238 82.7655 210.164 82.4455 210.164H79.0255ZM82.0855 203.444C82.0855 202.898 81.9322 202.458 81.6255 202.124C81.3322 201.778 80.8789 201.604 80.2655 201.604C79.6522 201.604 79.1855 201.778 78.8655 202.124C78.5455 202.458 78.3855 202.898 78.3855 203.444C78.3855 203.978 78.5455 204.418 78.8655 204.764C79.1855 205.111 79.6522 205.284 80.2655 205.284C80.8789 205.284 81.3322 205.111 81.6255 204.764C81.9322 204.418 82.0855 203.978 82.0855 203.444ZM94.8061 201.384C95.1395 201.811 95.3861 202.304 95.5461 202.864C95.7195 203.424 95.8061 203.938 95.8061 204.404C95.8061 204.871 95.7795 205.291 95.7261 205.664H89.4461C89.4728 206.451 89.6661 207.091 90.0261 207.584C90.3861 208.078 90.9328 208.324 91.6661 208.324C92.6395 208.324 93.2195 207.898 93.4061 207.044H95.7861C95.6261 208.018 95.1795 208.784 94.4461 209.344C93.6861 209.931 92.7595 210.224 91.6661 210.224C90.3861 210.224 89.3128 209.758 88.4461 208.824C87.5528 207.851 87.1061 206.604 87.1061 205.084C87.1061 203.524 87.5528 202.271 88.4461 201.324C89.2995 200.418 90.3728 199.964 91.6661 199.964C93.0128 199.964 94.0595 200.438 94.8061 201.384ZM91.6861 201.844C91.0195 201.844 90.4995 202.064 90.1261 202.504C89.7528 202.931 89.5328 203.484 89.4661 204.164H93.6061C93.6061 203.111 93.2728 202.404 92.6061 202.044C92.3528 201.911 92.0461 201.844 91.6861 201.844ZM99.9516 206.984C99.9783 207.904 100.652 208.364 101.972 208.364C102.478 208.364 102.892 208.258 103.212 208.044C103.545 207.818 103.712 207.558 103.712 207.264C103.712 206.971 103.612 206.744 103.412 206.584C103.212 206.424 102.898 206.278 102.472 206.144L100.352 205.384C98.7783 204.838 97.9916 203.944 97.9916 202.704C97.9916 201.878 98.3583 201.218 99.0916 200.724C99.8383 200.218 100.832 199.964 102.072 199.964C103.325 199.964 104.285 200.238 104.952 200.784C105.632 201.331 105.985 202.018 106.012 202.844H103.792C103.765 202.524 103.612 202.271 103.332 202.084C103.052 201.898 102.652 201.804 102.132 201.804C101.612 201.804 101.205 201.911 100.912 202.124C100.632 202.324 100.492 202.558 100.492 202.824C100.492 203.291 100.885 203.638 101.672 203.864L103.972 204.724C104.732 204.978 105.312 205.304 105.712 205.704C106.125 206.091 106.332 206.598 106.332 207.224C106.332 208.024 105.952 208.718 105.192 209.304C104.405 209.918 103.365 210.224 102.072 210.224C100.778 210.224 99.7383 209.944 98.9516 209.384C98.1649 208.811 97.7649 208.011 97.7516 206.984H99.9516ZM114.658 209.704C113.778 210.051 113.085 210.224 112.578 210.224C112.072 210.224 111.625 210.164 111.238 210.044C110.865 209.924 110.532 209.744 110.238 209.504C109.625 208.958 109.318 208.204 109.318 207.244V201.804H107.958V200.224H109.318V197.664H111.678V200.224H114.318V201.804H111.678V207.164C111.678 207.964 112.058 208.364 112.818 208.364C113.205 208.364 113.705 208.258 114.318 208.044L114.658 209.704ZM117.269 200.204H119.629V209.944H117.269V200.204ZM116.989 197.084C116.989 196.658 117.116 196.324 117.369 196.084C117.622 195.831 117.982 195.704 118.449 195.704C118.902 195.704 119.256 195.831 119.509 196.084C119.776 196.324 119.909 196.658 119.909 197.084C119.909 197.511 119.776 197.851 119.509 198.104C119.256 198.344 118.902 198.464 118.449 198.464C117.982 198.464 117.622 198.344 117.369 198.104C117.116 197.851 116.989 197.511 116.989 197.084ZM125.952 201.904C126.592 200.611 127.618 199.964 129.032 199.964C130.232 199.964 131.132 200.358 131.732 201.144C132.345 201.931 132.652 202.971 132.652 204.264V209.944H130.292V204.264C130.292 203.544 130.118 203.004 129.772 202.644C129.425 202.271 128.938 202.084 128.312 202.084C127.685 202.084 127.145 202.364 126.692 202.924C126.252 203.484 126.018 204.324 125.992 205.444V209.944H123.632V200.224H125.692L125.952 201.904ZM136.933 205.964C136.146 205.298 135.753 204.464 135.753 203.464C135.753 202.411 136.166 201.558 136.993 200.904C137.793 200.278 138.706 199.964 139.733 199.964C140.773 199.964 141.639 200.158 142.333 200.544C142.413 199.784 142.739 199.171 143.313 198.704C143.873 198.238 144.533 198.004 145.293 198.004L145.173 200.264C144.026 200.264 143.433 200.644 143.393 201.404C143.886 202.018 144.133 202.644 144.133 203.284C144.133 203.924 144.019 204.464 143.793 204.904C143.566 205.331 143.259 205.691 142.873 205.984C142.073 206.624 141.099 206.944 139.953 206.944C139.299 206.944 138.706 206.844 138.173 206.644C137.639 206.804 137.373 207.124 137.373 207.604C137.373 208.204 137.879 208.504 138.893 208.504H142.153C144.366 208.504 145.473 209.278 145.473 210.824C145.473 211.344 145.339 211.851 145.073 212.344C144.819 212.851 144.446 213.298 143.953 213.684C142.859 214.538 141.486 214.964 139.833 214.964C138.233 214.964 136.933 214.638 135.933 213.984C134.999 213.358 134.533 212.591 134.533 211.684C134.533 211.084 134.713 210.604 135.073 210.244C135.446 209.898 135.933 209.678 136.533 209.584C135.746 209.104 135.353 208.511 135.353 207.804C135.353 207.338 135.499 206.951 135.793 206.644C136.086 206.324 136.466 206.098 136.933 205.964ZM138.733 210.164C137.479 210.218 136.853 210.691 136.853 211.584C136.853 212.038 137.113 212.398 137.633 212.664C138.166 212.944 138.793 213.084 139.513 213.084C140.233 213.084 140.793 213.024 141.193 212.904C141.606 212.784 141.953 212.624 142.233 212.424C142.833 212.024 143.133 211.544 143.133 210.984C143.133 210.744 143.046 210.544 142.873 210.384C142.713 210.238 142.473 210.164 142.153 210.164H138.733ZM141.793 203.444C141.793 202.898 141.639 202.458 141.333 202.124C141.039 201.778 140.586 201.604 139.973 201.604C139.359 201.604 138.893 201.778 138.573 202.124C138.253 202.458 138.093 202.898 138.093 203.444C138.093 203.978 138.253 204.418 138.573 204.764C138.893 205.111 139.359 205.284 139.973 205.284C140.586 205.284 141.039 205.111 141.333 204.764C141.639 204.418 141.793 203.978 141.793 203.444ZM151.732 200.224H153.172V199.084C153.172 198.084 153.465 197.318 154.052 196.784C154.585 196.304 155.278 196.064 156.132 196.064C156.678 196.064 157.352 196.144 158.152 196.304L157.692 198.124C157.318 197.991 156.978 197.924 156.672 197.924C156.378 197.924 156.118 198.011 155.892 198.184C155.665 198.344 155.552 198.651 155.552 199.104V200.224H157.332V201.804H155.552V209.944H153.172V201.804H151.732V200.224ZM166.896 201.384C167.229 201.811 167.476 202.304 167.636 202.864C167.809 203.424 167.896 203.938 167.896 204.404C167.896 204.871 167.869 205.291 167.816 205.664H161.536C161.563 206.451 161.756 207.091 162.116 207.584C162.476 208.078 163.023 208.324 163.756 208.324C164.729 208.324 165.309 207.898 165.496 207.044H167.876C167.716 208.018 167.269 208.784 166.536 209.344C165.776 209.931 164.849 210.224 163.756 210.224C162.476 210.224 161.403 209.758 160.536 208.824C159.643 207.851 159.196 206.604 159.196 205.084C159.196 203.524 159.643 202.271 160.536 201.324C161.389 200.418 162.463 199.964 163.756 199.964C165.103 199.964 166.149 200.438 166.896 201.384ZM163.776 201.844C163.109 201.844 162.589 202.064 162.216 202.504C161.843 202.931 161.623 203.484 161.556 204.164H165.696C165.696 203.111 165.363 202.404 164.696 202.044C164.443 201.911 164.136 201.844 163.776 201.844ZM173.921 204.264C174.695 204.264 175.588 204.391 176.601 204.644V203.684C176.601 203.004 176.461 202.504 176.181 202.184C175.915 201.851 175.468 201.684 174.841 201.684C174.228 201.684 173.755 201.811 173.421 202.064C173.088 202.304 172.921 202.651 172.921 203.104H170.341C170.341 201.998 170.728 201.198 171.501 200.704C172.288 200.211 173.381 199.964 174.781 199.964C176.781 199.964 178.075 200.664 178.661 202.064C178.861 202.544 178.961 203.111 178.961 203.764V209.944H176.901L176.721 208.644C176.095 209.698 175.135 210.224 173.841 210.224C172.588 210.224 171.615 209.918 170.921 209.304C170.281 208.718 169.961 207.978 169.961 207.084C169.961 206.178 170.315 205.484 171.021 205.004C171.728 204.511 172.695 204.264 173.921 204.264ZM176.601 206.144C175.815 205.931 175.081 205.824 174.401 205.824C173.121 205.824 172.481 206.251 172.481 207.104C172.481 207.464 172.628 207.778 172.921 208.044C173.215 208.298 173.681 208.424 174.321 208.424C174.975 208.424 175.508 208.211 175.921 207.784C176.348 207.344 176.575 206.798 176.601 206.144ZM187.881 209.704C187.001 210.051 186.308 210.224 185.801 210.224C185.294 210.224 184.848 210.164 184.461 210.044C184.088 209.924 183.754 209.744 183.461 209.504C182.848 208.958 182.541 208.204 182.541 207.244V201.804H181.181V200.224H182.541V197.664H184.901V200.224H187.541V201.804H184.901V207.164C184.901 207.964 185.281 208.364 186.041 208.364C186.428 208.364 186.928 208.258 187.541 208.044L187.881 209.704ZM196.752 208.184C196.138 209.478 195.152 210.124 193.792 210.124C192.072 210.124 190.938 209.451 190.392 208.104C190.192 207.638 190.092 207.071 190.092 206.404V200.204H192.452V206.164C192.452 206.804 192.605 207.284 192.912 207.604C193.218 207.911 193.592 208.064 194.032 208.064C194.485 208.064 194.865 208.004 195.172 207.884C195.478 207.751 195.745 207.558 195.972 207.304C196.465 206.731 196.725 205.964 196.752 205.004V200.204H199.112V209.944H196.752V208.184ZM205.191 202.144C205.777 200.744 206.657 200.044 207.831 200.044C208.057 200.044 208.344 200.091 208.691 200.184L208.651 202.544C208.277 202.464 207.911 202.424 207.551 202.424C205.977 202.424 205.191 203.511 205.191 205.684V209.944H202.831V200.204H205.191V202.144ZM217.931 201.384C218.264 201.811 218.511 202.304 218.671 202.864C218.844 203.424 218.931 203.938 218.931 204.404C218.931 204.871 218.904 205.291 218.851 205.664H212.571C212.598 206.451 212.791 207.091 213.151 207.584C213.511 208.078 214.058 208.324 214.791 208.324C215.764 208.324 216.344 207.898 216.531 207.044H218.911C218.751 208.018 218.304 208.784 217.571 209.344C216.811 209.931 215.884 210.224 214.791 210.224C213.511 210.224 212.438 209.758 211.571 208.824C210.678 207.851 210.231 206.604 210.231 205.084C210.231 203.524 210.678 202.271 211.571 201.324C212.424 200.418 213.498 199.964 214.791 199.964C216.138 199.964 217.184 200.438 217.931 201.384ZM214.811 201.844C214.144 201.844 213.624 202.064 213.251 202.504C212.878 202.931 212.658 203.484 212.591 204.164H216.731C216.731 203.111 216.398 202.404 215.731 202.044C215.478 201.911 215.171 201.844 214.811 201.844ZM223.077 206.984C223.103 207.904 223.777 208.364 225.097 208.364C225.603 208.364 226.017 208.258 226.337 208.044C226.67 207.818 226.837 207.558 226.837 207.264C226.837 206.971 226.737 206.744 226.537 206.584C226.337 206.424 226.023 206.278 225.597 206.144L223.477 205.384C221.903 204.838 221.117 203.944 221.117 202.704C221.117 201.878 221.483 201.218 222.217 200.724C222.963 200.218 223.957 199.964 225.197 199.964C226.45 199.964 227.41 200.238 228.077 200.784C228.757 201.331 229.11 202.018 229.137 202.844H226.917C226.89 202.524 226.737 202.271 226.457 202.084C226.177 201.898 225.777 201.804 225.257 201.804C224.737 201.804 224.33 201.911 224.037 202.124C223.757 202.324 223.617 202.558 223.617 202.824C223.617 203.291 224.01 203.638 224.797 203.864L227.097 204.724C227.857 204.978 228.437 205.304 228.837 205.704C229.25 206.091 229.457 206.598 229.457 207.224C229.457 208.024 229.077 208.718 228.317 209.304C227.53 209.918 226.49 210.224 225.197 210.224C223.903 210.224 222.863 209.944 222.077 209.384C221.29 208.811 220.89 208.011 220.877 206.984H223.077Z" fill="white"/>
</svg>
