<svg width="502" height="288" viewBox="0 0 502 288" fill="none" xmlns="http://www.w3.org/2000/svg">
<circle cx="144" cy="144" r="143.5" fill="#F5F5F5" stroke="black"/>
<path d="M318.808 216.224C316.941 216.224 315.327 215.823 313.964 215.02C312.601 214.199 311.547 213.032 310.8 211.52C310.072 209.989 309.708 208.188 309.708 206.116C309.708 204.063 310.072 202.28 310.8 200.768C311.547 199.237 312.601 198.071 313.964 197.268C315.327 196.447 316.941 196.036 318.808 196.036C320.059 196.036 321.235 196.241 322.336 196.652C323.456 197.044 324.427 197.613 325.248 198.36C325.547 198.64 325.696 198.967 325.696 199.34C325.696 199.601 325.621 199.835 325.472 200.04C325.323 200.227 325.145 200.32 324.94 200.32C324.716 200.32 324.445 200.217 324.128 200.012C323.176 199.265 322.308 198.743 321.524 198.444C320.759 198.145 319.872 197.996 318.864 197.996C316.699 197.996 315.028 198.705 313.852 200.124C312.695 201.524 312.116 203.521 312.116 206.116C312.116 208.729 312.695 210.745 313.852 212.164C315.028 213.564 316.699 214.264 318.864 214.264C319.853 214.264 320.74 214.115 321.524 213.816C322.308 213.517 323.176 212.995 324.128 212.248C324.445 212.043 324.716 211.94 324.94 211.94C325.145 211.94 325.323 212.033 325.472 212.22C325.621 212.407 325.696 212.64 325.696 212.92C325.696 213.293 325.547 213.62 325.248 213.9C324.427 214.647 323.456 215.225 322.336 215.636C321.235 216.028 320.059 216.224 318.808 216.224ZM346.913 196.12C347.268 196.12 347.539 196.232 347.725 196.456C347.931 196.661 348.033 196.941 348.033 197.296V215.02C348.033 215.356 347.94 215.627 347.753 215.832C347.567 216.037 347.305 216.14 346.969 216.14C346.633 216.14 346.381 216.037 346.213 215.832C346.045 215.627 345.961 215.356 345.961 215.02V200.712L339.885 212.36C339.624 212.901 339.241 213.172 338.737 213.172C338.252 213.172 337.869 212.901 337.589 212.36L331.485 200.852V215.02C331.485 215.356 331.392 215.627 331.205 215.832C331.037 216.037 330.785 216.14 330.449 216.14C330.113 216.14 329.852 216.037 329.665 215.832C329.479 215.627 329.385 215.356 329.385 215.02V197.296C329.385 196.941 329.488 196.661 329.693 196.456C329.899 196.232 330.179 196.12 330.533 196.12C331 196.12 331.373 196.391 331.653 196.932L338.765 210.568L345.793 196.932C345.943 196.633 346.101 196.428 346.269 196.316C346.456 196.185 346.671 196.12 346.913 196.12ZM365.276 196.568C365.5 196.288 365.771 196.148 366.088 196.148C366.35 196.148 366.583 196.251 366.788 196.456C366.994 196.661 367.096 196.913 367.096 197.212C367.096 197.492 367.012 197.725 366.844 197.912L360.04 206.508V214.964C360.04 215.337 359.928 215.627 359.704 215.832C359.499 216.037 359.228 216.14 358.892 216.14C358.556 216.14 358.276 216.037 358.052 215.832C357.847 215.627 357.744 215.337 357.744 214.964V206.48L350.94 197.912C350.754 197.707 350.66 197.473 350.66 197.212C350.66 196.913 350.763 196.661 350.968 196.456C351.192 196.251 351.444 196.148 351.724 196.148C352.042 196.148 352.312 196.288 352.536 196.568L358.92 204.716L365.276 196.568ZM383.941 214.264C384.202 214.507 384.333 214.777 384.333 215.076C384.333 215.337 384.221 215.58 383.997 215.804C383.791 216.009 383.549 216.112 383.269 216.112C383.026 216.112 382.774 216 382.513 215.776L372.041 206.62V214.964C372.041 215.319 371.938 215.608 371.733 215.832C371.527 216.037 371.247 216.14 370.893 216.14C370.538 216.14 370.258 216.037 370.053 215.832C369.847 215.608 369.745 215.319 369.745 214.964V197.296C369.745 196.941 369.847 196.661 370.053 196.456C370.258 196.232 370.538 196.12 370.893 196.12C371.247 196.12 371.527 196.232 371.733 196.456C371.938 196.661 372.041 196.941 372.041 197.296V205.332L382.037 196.456C382.242 196.251 382.485 196.148 382.765 196.148C383.045 196.148 383.287 196.26 383.493 196.484C383.698 196.689 383.801 196.923 383.801 197.184C383.801 197.464 383.679 197.725 383.437 197.968L374.393 205.92L383.941 214.264ZM388.111 205.22C387.663 205.22 387.289 205.08 386.991 204.8C386.692 204.501 386.543 204.119 386.543 203.652C386.543 203.185 386.692 202.812 386.991 202.532C387.289 202.233 387.663 202.084 388.111 202.084C388.54 202.084 388.895 202.233 389.175 202.532C389.473 202.812 389.623 203.185 389.623 203.652C389.623 204.119 389.473 204.501 389.175 204.8C388.895 205.08 388.54 205.22 388.111 205.22ZM388.111 216.14C387.663 216.14 387.289 216 386.991 215.72C386.692 215.421 386.543 215.039 386.543 214.572C386.543 214.105 386.692 213.723 386.991 213.424C387.289 213.125 387.663 212.976 388.111 212.976C388.54 212.976 388.895 213.125 389.175 213.424C389.473 213.723 389.623 214.105 389.623 214.572C389.623 215.039 389.473 215.421 389.175 215.72C388.895 216 388.54 216.14 388.111 216.14ZM313.852 258.592C311.873 254.803 310.884 250.817 310.884 246.636C310.884 242.455 311.873 238.469 313.852 234.68C314.095 234.251 314.421 234.036 314.832 234.036C315.056 234.036 315.243 234.111 315.392 234.26C315.56 234.409 315.644 234.596 315.644 234.82C315.644 234.951 315.616 235.091 315.56 235.24C313.992 238.936 313.208 242.735 313.208 246.636C313.208 250.537 313.992 254.336 315.56 258.032C315.616 258.2 315.644 258.34 315.644 258.452C315.644 258.695 315.56 258.881 315.392 259.012C315.243 259.161 315.056 259.236 314.832 259.236C314.421 259.236 314.095 259.021 313.852 258.592ZM325.205 254.224C322.946 254.224 321.229 253.365 320.053 251.648C318.877 249.931 318.289 247.429 318.289 244.144C318.289 240.84 318.877 238.329 320.053 236.612C321.229 234.895 322.946 234.036 325.205 234.036C327.463 234.036 329.181 234.895 330.357 236.612C331.533 238.311 332.121 240.812 332.121 244.116C332.121 247.42 331.533 249.931 330.357 251.648C329.181 253.365 327.463 254.224 325.205 254.224ZM325.205 252.292C326.773 252.292 327.93 251.629 328.677 250.304C329.423 248.979 329.797 246.916 329.797 244.116C329.797 241.297 329.423 239.235 328.677 237.928C327.949 236.621 326.791 235.968 325.205 235.968C323.637 235.968 322.479 236.631 321.733 237.956C320.986 239.263 320.613 241.316 320.613 244.116C320.613 246.916 320.986 248.979 321.733 250.304C322.479 251.629 323.637 252.292 325.205 252.292ZM336.758 250.976C337.224 250.976 337.598 251.163 337.878 251.536C338.176 251.891 338.326 252.432 338.326 253.16C338.326 254.635 337.85 255.876 336.898 256.884C336.711 257.089 336.496 257.192 336.254 257.192C336.067 257.192 335.899 257.117 335.75 256.968C335.6 256.837 335.526 256.679 335.526 256.492C335.526 256.287 335.6 256.109 335.75 255.96C336.235 255.456 336.543 254.831 336.674 254.084C336.263 254.047 335.918 253.897 335.638 253.636C335.376 253.356 335.246 253.001 335.246 252.572C335.246 252.105 335.386 251.723 335.666 251.424C335.964 251.125 336.328 250.976 336.758 250.976ZM355.611 254.224C353.352 254.224 351.635 253.365 350.459 251.648C349.283 249.931 348.695 247.429 348.695 244.144C348.695 240.84 349.283 238.329 350.459 236.612C351.635 234.895 353.352 234.036 355.611 234.036C357.87 234.036 359.587 234.895 360.763 236.612C361.939 238.311 362.527 240.812 362.527 244.116C362.527 247.42 361.939 249.931 360.763 251.648C359.587 253.365 357.87 254.224 355.611 254.224ZM355.611 252.292C357.179 252.292 358.336 251.629 359.083 250.304C359.83 248.979 360.203 246.916 360.203 244.116C360.203 241.297 359.83 239.235 359.083 237.928C358.355 236.621 357.198 235.968 355.611 235.968C354.043 235.968 352.886 236.631 352.139 237.956C351.392 239.263 351.019 241.316 351.019 244.116C351.019 246.916 351.392 248.979 352.139 250.304C352.886 251.629 354.043 252.292 355.611 252.292ZM367.164 250.976C367.631 250.976 368.004 251.163 368.284 251.536C368.583 251.891 368.732 252.432 368.732 253.16C368.732 254.635 368.256 255.876 367.304 256.884C367.117 257.089 366.903 257.192 366.66 257.192C366.473 257.192 366.305 257.117 366.156 256.968C366.007 256.837 365.932 256.679 365.932 256.492C365.932 256.287 366.007 256.109 366.156 255.96C366.641 255.456 366.949 254.831 367.08 254.084C366.669 254.047 366.324 253.897 366.044 253.636C365.783 253.356 365.652 253.001 365.652 252.572C365.652 252.105 365.792 251.723 366.072 251.424C366.371 251.125 366.735 250.976 367.164 250.976ZM386.017 254.224C383.759 254.224 382.041 253.365 380.865 251.648C379.689 249.931 379.101 247.429 379.101 244.144C379.101 240.84 379.689 238.329 380.865 236.612C382.041 234.895 383.759 234.036 386.017 234.036C388.276 234.036 389.993 234.895 391.169 236.612C392.345 238.311 392.933 240.812 392.933 244.116C392.933 247.42 392.345 249.931 391.169 251.648C389.993 253.365 388.276 254.224 386.017 254.224ZM386.017 252.292C387.585 252.292 388.743 251.629 389.489 250.304C390.236 248.979 390.609 246.916 390.609 244.116C390.609 241.297 390.236 239.235 389.489 237.928C388.761 236.621 387.604 235.968 386.017 235.968C384.449 235.968 383.292 236.631 382.545 237.956C381.799 239.263 381.425 241.316 381.425 244.116C381.425 246.916 381.799 248.979 382.545 250.304C383.292 251.629 384.449 252.292 386.017 252.292ZM397.57 250.976C398.037 250.976 398.41 251.163 398.69 251.536C398.989 251.891 399.138 252.432 399.138 253.16C399.138 254.635 398.662 255.876 397.71 256.884C397.524 257.089 397.309 257.192 397.066 257.192C396.88 257.192 396.712 257.117 396.562 256.968C396.413 256.837 396.338 256.679 396.338 256.492C396.338 256.287 396.413 256.109 396.562 255.96C397.048 255.456 397.356 254.831 397.486 254.084C397.076 254.047 396.73 253.897 396.45 253.636C396.189 253.356 396.058 253.001 396.058 252.572C396.058 252.105 396.198 251.723 396.478 251.424C396.777 251.125 397.141 250.976 397.57 250.976ZM416.423 254.224C414.165 254.224 412.447 253.365 411.271 251.648C410.095 249.931 409.507 247.429 409.507 244.144C409.507 240.84 410.095 238.329 411.271 236.612C412.447 234.895 414.165 234.036 416.423 234.036C418.682 234.036 420.399 234.895 421.575 236.612C422.751 238.311 423.339 240.812 423.339 244.116C423.339 247.42 422.751 249.931 421.575 251.648C420.399 253.365 418.682 254.224 416.423 254.224ZM416.423 252.292C417.991 252.292 419.149 251.629 419.895 250.304C420.642 248.979 421.015 246.916 421.015 244.116C421.015 241.297 420.642 239.235 419.895 237.928C419.167 236.621 418.01 235.968 416.423 235.968C414.855 235.968 413.698 236.631 412.951 237.956C412.205 239.263 411.831 241.316 411.831 244.116C411.831 246.916 412.205 248.979 412.951 250.304C413.698 251.629 414.855 252.292 416.423 252.292ZM428.033 254.14C427.585 254.14 427.211 254 426.913 253.72C426.614 253.421 426.465 253.039 426.465 252.572C426.465 252.105 426.614 251.723 426.913 251.424C427.211 251.125 427.585 250.976 428.033 250.976C428.462 250.976 428.817 251.125 429.097 251.424C429.395 251.723 429.545 252.105 429.545 252.572C429.545 253.039 429.395 253.421 429.097 253.72C428.817 254 428.462 254.14 428.033 254.14ZM439.611 254.224C437.352 254.224 435.635 253.365 434.459 251.648C433.283 249.931 432.695 247.429 432.695 244.144C432.695 240.84 433.283 238.329 434.459 236.612C435.635 234.895 437.352 234.036 439.611 234.036C441.87 234.036 443.587 234.895 444.763 236.612C445.939 238.311 446.527 240.812 446.527 244.116C446.527 247.42 445.939 249.931 444.763 251.648C443.587 253.365 441.87 254.224 439.611 254.224ZM439.611 252.292C441.179 252.292 442.336 251.629 443.083 250.304C443.83 248.979 444.203 246.916 444.203 244.116C444.203 241.297 443.83 239.235 443.083 237.928C442.355 236.621 441.198 235.968 439.611 235.968C438.043 235.968 436.886 236.631 436.139 237.956C435.392 239.263 435.019 241.316 435.019 244.116C435.019 246.916 435.392 248.979 436.139 250.304C436.886 251.629 438.043 252.292 439.611 252.292ZM462.924 247.812C463.26 247.812 463.521 247.905 463.708 248.092C463.895 248.26 463.988 248.484 463.988 248.764C463.988 249.399 463.633 249.716 462.924 249.716H460.824V252.964C460.824 253.337 460.712 253.627 460.488 253.832C460.283 254.037 460.012 254.14 459.676 254.14C459.34 254.14 459.069 254.037 458.864 253.832C458.659 253.627 458.556 253.337 458.556 252.964V249.716H450.268C449.932 249.716 449.671 249.623 449.484 249.436C449.297 249.249 449.204 249.016 449.204 248.736C449.204 248.475 449.307 248.185 449.512 247.868L458.668 234.624C458.929 234.288 459.265 234.12 459.676 234.12C459.993 234.12 460.264 234.223 460.488 234.428C460.712 234.633 460.824 234.923 460.824 235.296V247.812H462.924ZM451.808 247.812H458.556V238.096L451.808 247.812ZM467.757 258.592C467.514 259.021 467.178 259.236 466.749 259.236C466.525 259.236 466.329 259.161 466.161 259.012C466.012 258.881 465.937 258.704 465.937 258.48C465.937 258.405 465.974 258.256 466.049 258.032C467.598 254.317 468.373 250.519 468.373 246.636C468.373 242.753 467.598 238.955 466.049 235.24C465.974 235.016 465.937 234.867 465.937 234.792C465.937 234.568 466.012 234.391 466.161 234.26C466.329 234.111 466.525 234.036 466.749 234.036C467.178 234.036 467.514 234.251 467.757 234.68C469.717 238.488 470.697 242.473 470.697 246.636C470.697 250.799 469.717 254.784 467.757 258.592Z" fill="black"/>
<path d="M325.5 134.572C325.631 134.777 325.696 134.992 325.696 135.216C325.696 135.496 325.584 135.729 325.36 135.916C325.155 136.084 324.912 136.168 324.632 136.168C324.203 136.168 323.867 135.981 323.624 135.608L319.872 129.672C319.387 128.907 318.883 128.384 318.36 128.104C317.837 127.805 317.128 127.656 316.232 127.656H312.704V134.964C312.704 135.319 312.601 135.608 312.396 135.832C312.191 136.037 311.92 136.14 311.584 136.14C311.229 136.14 310.949 136.037 310.744 135.832C310.539 135.608 310.436 135.319 310.436 134.964V117.38C310.436 117.044 310.539 116.773 310.744 116.568C310.968 116.363 311.257 116.26 311.612 116.26H318.556C320.703 116.26 322.336 116.736 323.456 117.688C324.595 118.64 325.164 120.04 325.164 121.888C325.164 123.456 324.707 124.716 323.792 125.668C322.896 126.62 321.608 127.199 319.928 127.404C320.395 127.553 320.815 127.796 321.188 128.132C321.561 128.468 321.935 128.935 322.308 129.532L325.5 134.572ZM318.36 125.752C319.891 125.752 321.029 125.435 321.776 124.8C322.541 124.165 322.924 123.204 322.924 121.916C322.924 120.647 322.551 119.704 321.804 119.088C321.057 118.472 319.909 118.164 318.36 118.164H312.704V125.752H318.36ZM344.167 125.724C344.447 125.724 344.671 125.808 344.839 125.976C345.025 126.144 345.119 126.377 345.119 126.676V133.648C345.119 134.096 345.044 134.432 344.895 134.656C344.764 134.88 344.512 135.057 344.139 135.188C343.392 135.505 342.487 135.757 341.423 135.944C340.359 136.131 339.295 136.224 338.231 136.224C336.271 136.224 334.581 135.823 333.163 135.02C331.744 134.217 330.652 133.06 329.887 131.548C329.14 130.036 328.767 128.225 328.767 126.116C328.767 124.044 329.14 122.252 329.887 120.74C330.633 119.228 331.707 118.071 333.107 117.268C334.507 116.447 336.149 116.036 338.035 116.036C339.341 116.036 340.555 116.241 341.675 116.652C342.795 117.044 343.737 117.613 344.503 118.36C344.82 118.677 344.979 119.004 344.979 119.34C344.979 119.601 344.904 119.835 344.755 120.04C344.605 120.227 344.419 120.32 344.195 120.32C343.971 120.32 343.709 120.208 343.411 119.984C342.44 119.237 341.563 118.724 340.779 118.444C339.995 118.145 339.089 117.996 338.063 117.996C335.841 117.996 334.133 118.696 332.939 120.096C331.763 121.496 331.175 123.503 331.175 126.116C331.175 128.785 331.772 130.82 332.967 132.22C334.18 133.601 335.953 134.292 338.287 134.292C340.023 134.292 341.6 134.031 343.019 133.508V127.516H338.931C338.613 127.516 338.361 127.432 338.175 127.264C337.988 127.096 337.895 126.881 337.895 126.62C337.895 126.34 337.988 126.125 338.175 125.976C338.361 125.808 338.613 125.724 338.931 125.724H344.167ZM360.956 125.864C362.095 126.163 362.972 126.723 363.588 127.544C364.223 128.365 364.54 129.392 364.54 130.624C364.54 132.36 363.971 133.695 362.832 134.628C361.694 135.543 360.079 136 357.988 136H350.932C350.578 136 350.288 135.897 350.064 135.692C349.859 135.487 349.756 135.216 349.756 134.88V117.38C349.756 117.044 349.859 116.773 350.064 116.568C350.288 116.363 350.578 116.26 350.932 116.26H357.68C359.715 116.26 361.292 116.708 362.412 117.604C363.532 118.5 364.092 119.769 364.092 121.412C364.092 122.476 363.812 123.391 363.252 124.156C362.711 124.921 361.946 125.491 360.956 125.864ZM352.024 125.024H357.344C358.819 125.024 359.93 124.725 360.676 124.128C361.442 123.531 361.824 122.663 361.824 121.524C361.824 119.284 360.331 118.164 357.344 118.164H352.024V125.024ZM357.764 134.096C359.314 134.096 360.452 133.816 361.18 133.256C361.927 132.677 362.3 131.781 362.3 130.568C362.3 128.141 360.788 126.928 357.764 126.928H352.024V134.096H357.764ZM369.408 125.22C368.96 125.22 368.586 125.08 368.288 124.8C367.989 124.501 367.84 124.119 367.84 123.652C367.84 123.185 367.989 122.812 368.288 122.532C368.586 122.233 368.96 122.084 369.408 122.084C369.837 122.084 370.192 122.233 370.472 122.532C370.77 122.812 370.92 123.185 370.92 123.652C370.92 124.119 370.77 124.501 370.472 124.8C370.192 125.08 369.837 125.22 369.408 125.22ZM369.408 136.14C368.96 136.14 368.586 136 368.288 135.72C367.989 135.421 367.84 135.039 367.84 134.572C367.84 134.105 367.989 133.723 368.288 133.424C368.586 133.125 368.96 132.976 369.408 132.976C369.837 132.976 370.192 133.125 370.472 133.424C370.77 133.723 370.92 134.105 370.92 134.572C370.92 135.039 370.77 135.421 370.472 135.72C370.192 136 369.837 136.14 369.408 136.14ZM313.852 178.592C311.873 174.803 310.884 170.817 310.884 166.636C310.884 162.455 311.873 158.469 313.852 154.68C314.095 154.251 314.421 154.036 314.832 154.036C315.056 154.036 315.243 154.111 315.392 154.26C315.56 154.409 315.644 154.596 315.644 154.82C315.644 154.951 315.616 155.091 315.56 155.24C313.992 158.936 313.208 162.735 313.208 166.636C313.208 170.537 313.992 174.336 315.56 178.032C315.616 178.2 315.644 178.34 315.644 178.452C315.644 178.695 315.56 178.881 315.392 179.012C315.243 179.161 315.056 179.236 314.832 179.236C314.421 179.236 314.095 179.021 313.852 178.592ZM331.029 172.068C331.365 172.068 331.626 172.152 331.813 172.32C331.999 172.488 332.093 172.721 332.093 173.02C332.093 173.673 331.738 174 331.029 174H320.053C319.735 174 319.474 173.907 319.269 173.72C319.063 173.515 318.961 173.272 318.961 172.992C318.961 172.637 319.091 172.329 319.353 172.068L326.101 164.648C327.034 163.603 327.706 162.669 328.117 161.848C328.546 161.008 328.761 160.168 328.761 159.328C328.761 158.245 328.443 157.415 327.809 156.836C327.193 156.257 326.315 155.968 325.177 155.968C324.281 155.968 323.422 156.136 322.601 156.472C321.779 156.789 320.958 157.284 320.137 157.956C319.857 158.18 319.595 158.292 319.353 158.292C319.147 158.292 318.97 158.199 318.821 158.012C318.671 157.807 318.597 157.564 318.597 157.284C318.597 156.892 318.746 156.575 319.045 156.332C319.81 155.623 320.743 155.063 321.845 154.652C322.946 154.241 324.075 154.036 325.233 154.036C327.006 154.036 328.415 154.503 329.461 155.436C330.525 156.369 331.057 157.629 331.057 159.216C331.057 160.355 330.795 161.447 330.273 162.492C329.769 163.537 328.929 164.704 327.753 165.992L322.153 172.068H331.029ZM348.518 167.812C348.854 167.812 349.115 167.905 349.302 168.092C349.488 168.26 349.582 168.484 349.582 168.764C349.582 169.399 349.227 169.716 348.518 169.716H346.418V172.964C346.418 173.337 346.306 173.627 346.082 173.832C345.876 174.037 345.606 174.14 345.27 174.14C344.934 174.14 344.663 174.037 344.458 173.832C344.252 173.627 344.15 173.337 344.15 172.964V169.716H335.862C335.526 169.716 335.264 169.623 335.078 169.436C334.891 169.249 334.798 169.016 334.798 168.736C334.798 168.475 334.9 168.185 335.106 167.868L344.262 154.624C344.523 154.288 344.859 154.12 345.27 154.12C345.587 154.12 345.858 154.223 346.082 154.428C346.306 154.633 346.418 154.923 346.418 155.296V167.812H348.518ZM337.402 167.812H344.15V158.096L337.402 167.812ZM359.539 161.624C360.789 161.624 361.881 161.885 362.815 162.408C363.767 162.931 364.495 163.668 364.999 164.62C365.521 165.553 365.783 166.636 365.783 167.868C365.783 169.1 365.503 170.201 364.943 171.172C364.383 172.124 363.599 172.871 362.591 173.412C361.601 173.935 360.453 174.196 359.147 174.196C357.989 174.196 356.86 173.991 355.759 173.58C354.657 173.169 353.724 172.609 352.959 171.9C352.66 171.62 352.511 171.303 352.511 170.948C352.511 170.668 352.585 170.435 352.735 170.248C352.884 170.061 353.061 169.968 353.267 169.968C353.528 169.968 353.789 170.071 354.051 170.276C354.872 170.948 355.693 171.452 356.515 171.788C357.336 172.105 358.195 172.264 359.091 172.264C360.472 172.264 361.555 171.872 362.339 171.088C363.123 170.304 363.515 169.24 363.515 167.896C363.515 166.589 363.123 165.535 362.339 164.732C361.555 163.929 360.5 163.528 359.175 163.528C357.476 163.528 356.095 164.181 355.031 165.488C354.769 165.768 354.452 165.908 354.079 165.908C353.817 165.908 353.593 165.833 353.407 165.684C353.239 165.516 353.155 165.292 353.155 165.012V155.352C353.155 155.035 353.248 154.773 353.435 154.568C353.64 154.363 353.92 154.26 354.275 154.26H364.131C364.467 154.26 364.728 154.344 364.915 154.512C365.12 154.68 365.223 154.913 365.223 155.212C365.223 155.511 365.12 155.744 364.915 155.912C364.728 156.08 364.467 156.164 364.131 156.164H355.423V163.192C355.945 162.688 356.552 162.305 357.243 162.044C357.952 161.764 358.717 161.624 359.539 161.624ZM370.336 170.976C370.803 170.976 371.176 171.163 371.456 171.536C371.755 171.891 371.904 172.432 371.904 173.16C371.904 174.635 371.428 175.876 370.476 176.884C370.289 177.089 370.075 177.192 369.832 177.192C369.645 177.192 369.477 177.117 369.328 176.968C369.179 176.837 369.104 176.679 369.104 176.492C369.104 176.287 369.179 176.109 369.328 175.96C369.813 175.456 370.121 174.831 370.252 174.084C369.841 174.047 369.496 173.897 369.216 173.636C368.955 173.356 368.824 173.001 368.824 172.572C368.824 172.105 368.964 171.723 369.244 171.424C369.543 171.125 369.907 170.976 370.336 170.976ZM395.013 172.068C395.349 172.068 395.61 172.152 395.797 172.32C395.984 172.488 396.077 172.721 396.077 173.02C396.077 173.673 395.722 174 395.013 174H384.037C383.72 174 383.458 173.907 383.253 173.72C383.048 173.515 382.945 173.272 382.945 172.992C382.945 172.637 383.076 172.329 383.337 172.068L390.085 164.648C391.018 163.603 391.69 162.669 392.101 161.848C392.53 161.008 392.745 160.168 392.745 159.328C392.745 158.245 392.428 157.415 391.793 156.836C391.177 156.257 390.3 155.968 389.161 155.968C388.265 155.968 387.406 156.136 386.585 156.472C385.764 156.789 384.942 157.284 384.121 157.956C383.841 158.18 383.58 158.292 383.337 158.292C383.132 158.292 382.954 158.199 382.805 158.012C382.656 157.807 382.581 157.564 382.581 157.284C382.581 156.892 382.73 156.575 383.029 156.332C383.794 155.623 384.728 155.063 385.829 154.652C386.93 154.241 388.06 154.036 389.217 154.036C390.99 154.036 392.4 154.503 393.445 155.436C394.509 156.369 395.041 157.629 395.041 159.216C395.041 160.355 394.78 161.447 394.257 162.492C393.753 163.537 392.913 164.704 391.737 165.992L386.137 172.068H395.013ZM412.502 167.812C412.838 167.812 413.099 167.905 413.286 168.092C413.473 168.26 413.566 168.484 413.566 168.764C413.566 169.399 413.211 169.716 412.502 169.716H410.402V172.964C410.402 173.337 410.29 173.627 410.066 173.832C409.861 174.037 409.59 174.14 409.254 174.14C408.918 174.14 408.647 174.037 408.442 173.832C408.237 173.627 408.134 173.337 408.134 172.964V169.716H399.846C399.51 169.716 399.249 169.623 399.062 169.436C398.875 169.249 398.782 169.016 398.782 168.736C398.782 168.475 398.885 168.185 399.09 167.868L408.246 154.624C408.507 154.288 408.843 154.12 409.254 154.12C409.571 154.12 409.842 154.223 410.066 154.428C410.29 154.633 410.402 154.923 410.402 155.296V167.812H412.502ZM401.386 167.812H408.134V158.096L401.386 167.812ZM423.523 161.624C424.774 161.624 425.866 161.885 426.799 162.408C427.751 162.931 428.479 163.668 428.983 164.62C429.506 165.553 429.767 166.636 429.767 167.868C429.767 169.1 429.487 170.201 428.927 171.172C428.367 172.124 427.583 172.871 426.575 173.412C425.586 173.935 424.438 174.196 423.131 174.196C421.974 174.196 420.845 173.991 419.743 173.58C418.642 173.169 417.709 172.609 416.943 171.9C416.645 171.62 416.495 171.303 416.495 170.948C416.495 170.668 416.57 170.435 416.719 170.248C416.869 170.061 417.046 169.968 417.251 169.968C417.513 169.968 417.774 170.071 418.035 170.276C418.857 170.948 419.678 171.452 420.499 171.788C421.321 172.105 422.179 172.264 423.075 172.264C424.457 172.264 425.539 171.872 426.323 171.088C427.107 170.304 427.499 169.24 427.499 167.896C427.499 166.589 427.107 165.535 426.323 164.732C425.539 163.929 424.485 163.528 423.159 163.528C421.461 163.528 420.079 164.181 419.015 165.488C418.754 165.768 418.437 165.908 418.063 165.908C417.802 165.908 417.578 165.833 417.391 165.684C417.223 165.516 417.139 165.292 417.139 165.012V155.352C417.139 155.035 417.233 154.773 417.419 154.568C417.625 154.363 417.905 154.26 418.259 154.26H428.115C428.451 154.26 428.713 154.344 428.899 154.512C429.105 154.68 429.207 154.913 429.207 155.212C429.207 155.511 429.105 155.744 428.899 155.912C428.713 156.08 428.451 156.164 428.115 156.164H419.407V163.192C419.93 162.688 420.537 162.305 421.227 162.044C421.937 161.764 422.702 161.624 423.523 161.624ZM434.32 170.976C434.787 170.976 435.16 171.163 435.44 171.536C435.739 171.891 435.888 172.432 435.888 173.16C435.888 174.635 435.412 175.876 434.46 176.884C434.274 177.089 434.059 177.192 433.816 177.192C433.63 177.192 433.462 177.117 433.312 176.968C433.163 176.837 433.088 176.679 433.088 176.492C433.088 176.287 433.163 176.109 433.312 175.96C433.798 175.456 434.106 174.831 434.236 174.084C433.826 174.047 433.48 173.897 433.2 173.636C432.939 173.356 432.808 173.001 432.808 172.572C432.808 172.105 432.948 171.723 433.228 171.424C433.527 171.125 433.891 170.976 434.32 170.976ZM458.997 172.068C459.333 172.068 459.595 172.152 459.781 172.32C459.968 172.488 460.061 172.721 460.061 173.02C460.061 173.673 459.707 174 458.997 174H448.021C447.704 174 447.443 173.907 447.237 173.72C447.032 173.515 446.929 173.272 446.929 172.992C446.929 172.637 447.06 172.329 447.321 172.068L454.069 164.648C455.003 163.603 455.675 162.669 456.085 161.848C456.515 161.008 456.729 160.168 456.729 159.328C456.729 158.245 456.412 157.415 455.777 156.836C455.161 156.257 454.284 155.968 453.145 155.968C452.249 155.968 451.391 156.136 450.569 156.472C449.748 156.789 448.927 157.284 448.105 157.956C447.825 158.18 447.564 158.292 447.321 158.292C447.116 158.292 446.939 158.199 446.789 158.012C446.64 157.807 446.565 157.564 446.565 157.284C446.565 156.892 446.715 156.575 447.013 156.332C447.779 155.623 448.712 155.063 449.813 154.652C450.915 154.241 452.044 154.036 453.201 154.036C454.975 154.036 456.384 154.503 457.429 155.436C458.493 156.369 459.025 157.629 459.025 159.216C459.025 160.355 458.764 161.447 458.241 162.492C457.737 163.537 456.897 164.704 455.721 165.992L450.121 172.068H458.997ZM476.487 167.812C476.823 167.812 477.084 167.905 477.271 168.092C477.457 168.26 477.551 168.484 477.551 168.764C477.551 169.399 477.196 169.716 476.487 169.716H474.387V172.964C474.387 173.337 474.275 173.627 474.051 173.832C473.845 174.037 473.575 174.14 473.239 174.14C472.903 174.14 472.632 174.037 472.427 173.832C472.221 173.627 472.119 173.337 472.119 172.964V169.716H463.831C463.495 169.716 463.233 169.623 463.047 169.436C462.86 169.249 462.767 169.016 462.767 168.736C462.767 168.475 462.869 168.185 463.075 167.868L472.231 154.624C472.492 154.288 472.828 154.12 473.239 154.12C473.556 154.12 473.827 154.223 474.051 154.428C474.275 154.633 474.387 154.923 474.387 155.296V167.812H476.487ZM465.371 167.812H472.119V158.096L465.371 167.812ZM487.508 161.624C488.758 161.624 489.85 161.885 490.784 162.408C491.736 162.931 492.464 163.668 492.968 164.62C493.49 165.553 493.752 166.636 493.752 167.868C493.752 169.1 493.472 170.201 492.912 171.172C492.352 172.124 491.568 172.871 490.56 173.412C489.57 173.935 488.422 174.196 487.116 174.196C485.958 174.196 484.829 173.991 483.728 173.58C482.626 173.169 481.693 172.609 480.928 171.9C480.629 171.62 480.48 171.303 480.48 170.948C480.48 170.668 480.554 170.435 480.704 170.248C480.853 170.061 481.03 169.968 481.236 169.968C481.497 169.968 481.758 170.071 482.02 170.276C482.841 170.948 483.662 171.452 484.484 171.788C485.305 172.105 486.164 172.264 487.06 172.264C488.441 172.264 489.524 171.872 490.308 171.088C491.092 170.304 491.484 169.24 491.484 167.896C491.484 166.589 491.092 165.535 490.308 164.732C489.524 163.929 488.469 163.528 487.144 163.528C485.445 163.528 484.064 164.181 483 165.488C482.738 165.768 482.421 165.908 482.048 165.908C481.786 165.908 481.562 165.833 481.376 165.684C481.208 165.516 481.124 165.292 481.124 165.012V155.352C481.124 155.035 481.217 154.773 481.404 154.568C481.609 154.363 481.889 154.26 482.244 154.26H492.1C492.436 154.26 492.697 154.344 492.884 154.512C493.089 154.68 493.192 154.913 493.192 155.212C493.192 155.511 493.089 155.744 492.884 155.912C492.697 156.08 492.436 156.164 492.1 156.164H483.392V163.192C483.914 162.688 484.521 162.305 485.212 162.044C485.921 161.764 486.686 161.624 487.508 161.624ZM498.109 178.592C497.866 179.021 497.53 179.236 497.101 179.236C496.877 179.236 496.681 179.161 496.513 179.012C496.363 178.881 496.289 178.704 496.289 178.48C496.289 178.405 496.326 178.256 496.401 178.032C497.95 174.317 498.725 170.519 498.725 166.636C498.725 162.753 497.95 158.955 496.401 155.24C496.326 155.016 496.289 154.867 496.289 154.792C496.289 154.568 496.363 154.391 496.513 154.26C496.681 154.111 496.877 154.036 497.101 154.036C497.53 154.036 497.866 154.251 498.109 154.68C500.069 158.488 501.049 162.473 501.049 166.636C501.049 170.799 500.069 174.784 498.109 178.592Z" fill="black"/>
<path d="M325.668 74.12C326.023 74.12 326.293 74.232 326.48 74.456C326.685 74.6613 326.788 74.9413 326.788 75.296V92.964C326.788 93.3187 326.685 93.608 326.48 93.832C326.293 94.0373 326.023 94.14 325.668 94.14C325.313 94.14 325.033 94.0373 324.828 93.832C324.623 93.608 324.52 93.3187 324.52 92.964V84.956H312.704V92.964C312.704 93.3187 312.601 93.608 312.396 93.832C312.191 94.0373 311.911 94.14 311.556 94.14C311.201 94.14 310.921 94.0373 310.716 93.832C310.529 93.608 310.436 93.3187 310.436 92.964V75.296C310.436 74.9413 310.529 74.6613 310.716 74.456C310.921 74.232 311.201 74.12 311.556 74.12C311.911 74.12 312.191 74.232 312.396 74.456C312.601 74.6613 312.704 74.9413 312.704 75.296V82.996H324.52V75.296C324.52 74.9413 324.623 74.6613 324.828 74.456C325.033 74.232 325.313 74.12 325.668 74.12ZM341.875 90.836C342.08 90.836 342.257 90.92 342.407 91.088C342.556 91.256 342.631 91.4707 342.631 91.732C342.631 92.1987 342.304 92.628 341.651 93.02C340.979 93.412 340.269 93.7107 339.523 93.916C338.776 94.1027 338.048 94.196 337.339 94.196C335.229 94.196 333.559 93.5707 332.327 92.32C331.113 91.0693 330.507 89.3427 330.507 87.14C330.507 85.74 330.777 84.508 331.319 83.444C331.86 82.3613 332.616 81.5213 333.587 80.924C334.576 80.3267 335.696 80.028 336.947 80.028C338.72 80.028 340.129 80.6067 341.175 81.764C342.22 82.9213 342.743 84.4893 342.743 86.468C342.743 86.8413 342.668 87.112 342.519 87.28C342.369 87.448 342.127 87.532 341.791 87.532H332.775C332.943 90.7427 334.464 92.348 337.339 92.348C338.067 92.348 338.692 92.2547 339.215 92.068C339.737 91.8627 340.297 91.592 340.895 91.256C341.38 90.976 341.707 90.836 341.875 90.836ZM336.975 81.792C335.78 81.792 334.819 82.1653 334.091 82.912C333.381 83.6587 332.961 84.7133 332.831 86.076H340.755C340.717 84.6947 340.372 83.64 339.719 82.912C339.065 82.1653 338.151 81.792 336.975 81.792ZM357.093 92.264C357.317 92.488 357.429 92.7587 357.429 93.076C357.429 93.356 357.326 93.5987 357.121 93.804C356.916 94.0093 356.673 94.112 356.393 94.112C356.094 94.112 355.824 93.9813 355.581 93.72L351.045 88.54L346.537 93.72C346.294 93.9813 346.024 94.112 345.725 94.112C345.445 94.112 345.193 94.0093 344.969 93.804C344.764 93.5987 344.661 93.3467 344.661 93.048C344.661 92.768 344.773 92.5067 344.997 92.264L349.645 87.028L345.193 81.96C344.969 81.6987 344.857 81.4373 344.857 81.176C344.857 80.8773 344.96 80.6253 345.165 80.42C345.389 80.2147 345.632 80.112 345.893 80.112C346.192 80.112 346.462 80.2427 346.705 80.504L351.045 85.488L355.385 80.504C355.628 80.2427 355.898 80.112 356.197 80.112C356.477 80.112 356.72 80.2147 356.925 80.42C357.13 80.6253 357.233 80.868 357.233 81.148C357.233 81.4653 357.121 81.736 356.897 81.96L352.445 87.028L357.093 92.264ZM361.505 83.22C361.057 83.22 360.684 83.08 360.385 82.8C360.086 82.5013 359.937 82.1187 359.937 81.652C359.937 81.1853 360.086 80.812 360.385 80.532C360.684 80.2333 361.057 80.084 361.505 80.084C361.934 80.084 362.289 80.2333 362.569 80.532C362.868 80.812 363.017 81.1853 363.017 81.652C363.017 82.1187 362.868 82.5013 362.569 82.8C362.289 83.08 361.934 83.22 361.505 83.22ZM361.505 94.14C361.057 94.14 360.684 94 360.385 93.72C360.086 93.4213 359.937 93.0387 359.937 92.572C359.937 92.1053 360.086 91.7227 360.385 91.424C360.684 91.1253 361.057 90.976 361.505 90.976C361.934 90.976 362.289 91.1253 362.569 91.424C362.868 91.7227 363.017 92.1053 363.017 92.572C363.017 93.0387 362.868 93.4213 362.569 93.72C362.289 94 361.934 94.14 361.505 94.14ZM385.006 80.784L383.746 87.252H386.49C386.733 87.252 386.938 87.336 387.106 87.504C387.293 87.672 387.386 87.8773 387.386 88.12C387.386 88.344 387.302 88.5307 387.134 88.68C386.966 88.8293 386.752 88.904 386.49 88.904H383.438L382.542 93.468C382.505 93.6733 382.402 93.8413 382.234 93.972C382.085 94.084 381.908 94.14 381.702 94.14C381.441 94.14 381.226 94.056 381.058 93.888C380.89 93.72 380.806 93.5147 380.806 93.272C380.806 93.16 380.816 93.076 380.834 93.02L381.646 88.904H377.166L376.27 93.468C376.252 93.6547 376.158 93.8133 375.99 93.944C375.841 94.0747 375.664 94.14 375.458 94.14C375.216 94.14 375.01 94.056 374.842 93.888C374.674 93.72 374.59 93.5147 374.59 93.272C374.59 93.16 374.6 93.076 374.618 93.02L375.43 88.904H373.554C373.293 88.904 373.078 88.82 372.91 88.652C372.742 88.484 372.658 88.2787 372.658 88.036C372.658 87.812 372.742 87.6253 372.91 87.476C373.078 87.3267 373.293 87.252 373.554 87.252H375.738L376.998 80.784H374.114C373.872 80.784 373.657 80.7 373.47 80.532C373.302 80.364 373.218 80.1587 373.218 79.916C373.218 79.692 373.302 79.5053 373.47 79.356C373.638 79.2067 373.853 79.132 374.114 79.132H377.306L378.174 74.708C378.212 74.5027 378.305 74.344 378.454 74.232C378.622 74.1013 378.809 74.036 379.014 74.036C379.276 74.036 379.481 74.12 379.63 74.288C379.798 74.4373 379.882 74.6427 379.882 74.904C379.882 75.016 379.873 75.1 379.854 75.156L379.07 79.132H383.55L384.418 74.708C384.437 74.5213 384.53 74.3627 384.698 74.232C384.866 74.1013 385.053 74.036 385.258 74.036C385.52 74.036 385.725 74.12 385.874 74.288C386.042 74.4373 386.126 74.6427 386.126 74.904C386.126 75.016 386.117 75.1 386.098 75.156L385.314 79.132H387.05C387.312 79.132 387.526 79.216 387.694 79.384C387.862 79.552 387.946 79.7573 387.946 80C387.946 80.224 387.862 80.4107 387.694 80.56C387.526 80.7093 387.312 80.784 387.05 80.784H385.006ZM381.954 87.252L383.242 80.784H378.762L377.474 87.252H381.954ZM392.275 94.14C391.921 94.14 391.641 94.0373 391.435 93.832C391.23 93.608 391.127 93.3187 391.127 92.964V75.38C391.127 75.044 391.23 74.7733 391.435 74.568C391.659 74.3627 391.949 74.26 392.303 74.26H402.495C402.831 74.26 403.093 74.344 403.279 74.512C403.466 74.68 403.559 74.9227 403.559 75.24C403.559 75.5387 403.466 75.772 403.279 75.94C403.093 76.108 402.831 76.192 402.495 76.192H393.395V82.996H401.935C402.271 82.996 402.533 83.08 402.719 83.248C402.906 83.416 402.999 83.6587 402.999 83.976C402.999 84.2747 402.906 84.508 402.719 84.676C402.533 84.844 402.271 84.928 401.935 84.928H393.395V92.964C393.395 93.3187 393.293 93.608 393.087 93.832C392.901 94.0373 392.63 94.14 392.275 94.14ZM413.433 81.624C414.684 81.624 415.776 81.8853 416.709 82.408C417.661 82.9307 418.389 83.668 418.893 84.62C419.416 85.5533 419.677 86.636 419.677 87.868C419.677 89.1 419.397 90.2013 418.837 91.172C418.277 92.124 417.493 92.8707 416.485 93.412C415.496 93.9347 414.348 94.196 413.041 94.196C411.884 94.196 410.755 93.9907 409.653 93.58C408.552 93.1693 407.619 92.6093 406.853 91.9C406.555 91.62 406.405 91.3027 406.405 90.948C406.405 90.668 406.48 90.4347 406.629 90.248C406.779 90.0613 406.956 89.968 407.161 89.968C407.423 89.968 407.684 90.0707 407.945 90.276C408.767 90.948 409.588 91.452 410.409 91.788C411.231 92.1053 412.089 92.264 412.985 92.264C414.367 92.264 415.449 91.872 416.233 91.088C417.017 90.304 417.409 89.24 417.409 87.896C417.409 86.5893 417.017 85.5347 416.233 84.732C415.449 83.9293 414.395 83.528 413.069 83.528C411.371 83.528 409.989 84.1813 408.925 85.488C408.664 85.768 408.347 85.908 407.973 85.908C407.712 85.908 407.488 85.8333 407.301 85.684C407.133 85.516 407.049 85.292 407.049 85.012V75.352C407.049 75.0347 407.143 74.7733 407.329 74.568C407.535 74.3627 407.815 74.26 408.169 74.26H418.025C418.361 74.26 418.623 74.344 418.809 74.512C419.015 74.68 419.117 74.9133 419.117 75.212C419.117 75.5107 419.015 75.744 418.809 75.912C418.623 76.08 418.361 76.164 418.025 76.164H409.317V83.192C409.84 82.688 410.447 82.3053 411.137 82.044C411.847 81.764 412.612 81.624 413.433 81.624ZM424.65 94.14C424.296 94.14 424.016 94.0373 423.81 93.832C423.605 93.608 423.502 93.3187 423.502 92.964V75.38C423.502 75.044 423.605 74.7733 423.81 74.568C424.034 74.3627 424.324 74.26 424.678 74.26H434.87C435.206 74.26 435.468 74.344 435.654 74.512C435.841 74.68 435.934 74.9227 435.934 75.24C435.934 75.5387 435.841 75.772 435.654 75.94C435.468 76.108 435.206 76.192 434.87 76.192H425.77V82.996H434.31C434.646 82.996 434.908 83.08 435.094 83.248C435.281 83.416 435.374 83.6587 435.374 83.976C435.374 84.2747 435.281 84.508 435.094 84.676C434.908 84.844 434.646 84.928 434.31 84.928H425.77V92.964C425.77 93.3187 425.668 93.608 425.462 93.832C425.276 94.0373 425.005 94.14 424.65 94.14ZM445.808 81.624C447.059 81.624 448.151 81.8853 449.084 82.408C450.036 82.9307 450.764 83.668 451.268 84.62C451.791 85.5533 452.052 86.636 452.052 87.868C452.052 89.1 451.772 90.2013 451.212 91.172C450.652 92.124 449.868 92.8707 448.86 93.412C447.871 93.9347 446.723 94.196 445.416 94.196C444.259 94.196 443.13 93.9907 442.028 93.58C440.927 93.1693 439.994 92.6093 439.228 91.9C438.93 91.62 438.78 91.3027 438.78 90.948C438.78 90.668 438.855 90.4347 439.004 90.248C439.154 90.0613 439.331 89.968 439.536 89.968C439.798 89.968 440.059 90.0707 440.32 90.276C441.142 90.948 441.963 91.452 442.784 91.788C443.606 92.1053 444.464 92.264 445.36 92.264C446.742 92.264 447.824 91.872 448.608 91.088C449.392 90.304 449.784 89.24 449.784 87.896C449.784 86.5893 449.392 85.5347 448.608 84.732C447.824 83.9293 446.77 83.528 445.444 83.528C443.746 83.528 442.364 84.1813 441.3 85.488C441.039 85.768 440.722 85.908 440.348 85.908C440.087 85.908 439.863 85.8333 439.676 85.684C439.508 85.516 439.424 85.292 439.424 85.012V75.352C439.424 75.0347 439.518 74.7733 439.704 74.568C439.91 74.3627 440.19 74.26 440.544 74.26H450.4C450.736 74.26 450.998 74.344 451.184 74.512C451.39 74.68 451.492 74.9133 451.492 75.212C451.492 75.5107 451.39 75.744 451.184 75.912C450.998 76.08 450.736 76.164 450.4 76.164H441.692V83.192C442.215 82.688 442.822 82.3053 443.512 82.044C444.222 81.764 444.987 81.624 445.808 81.624ZM457.025 94.14C456.671 94.14 456.391 94.0373 456.185 93.832C455.98 93.608 455.877 93.3187 455.877 92.964V75.38C455.877 75.044 455.98 74.7733 456.185 74.568C456.409 74.3627 456.699 74.26 457.053 74.26H467.245C467.581 74.26 467.843 74.344 468.029 74.512C468.216 74.68 468.309 74.9227 468.309 75.24C468.309 75.5387 468.216 75.772 468.029 75.94C467.843 76.108 467.581 76.192 467.245 76.192H458.145V82.996H466.685C467.021 82.996 467.283 83.08 467.469 83.248C467.656 83.416 467.749 83.6587 467.749 83.976C467.749 84.2747 467.656 84.508 467.469 84.676C467.283 84.844 467.021 84.928 466.685 84.928H458.145V92.964C458.145 93.3187 458.043 93.608 457.837 93.832C457.651 94.0373 457.38 94.14 457.025 94.14ZM478.183 81.624C479.434 81.624 480.526 81.8853 481.459 82.408C482.411 82.9307 483.139 83.668 483.643 84.62C484.166 85.5533 484.427 86.636 484.427 87.868C484.427 89.1 484.147 90.2013 483.587 91.172C483.027 92.124 482.243 92.8707 481.235 93.412C480.246 93.9347 479.098 94.196 477.791 94.196C476.634 94.196 475.505 93.9907 474.403 93.58C473.302 93.1693 472.369 92.6093 471.603 91.9C471.305 91.62 471.155 91.3027 471.155 90.948C471.155 90.668 471.23 90.4347 471.379 90.248C471.529 90.0613 471.706 89.968 471.911 89.968C472.173 89.968 472.434 90.0707 472.695 90.276C473.517 90.948 474.338 91.452 475.159 91.788C475.981 92.1053 476.839 92.264 477.735 92.264C479.117 92.264 480.199 91.872 480.983 91.088C481.767 90.304 482.159 89.24 482.159 87.896C482.159 86.5893 481.767 85.5347 480.983 84.732C480.199 83.9293 479.145 83.528 477.819 83.528C476.121 83.528 474.739 84.1813 473.675 85.488C473.414 85.768 473.097 85.908 472.723 85.908C472.462 85.908 472.238 85.8333 472.051 85.684C471.883 85.516 471.799 85.292 471.799 85.012V75.352C471.799 75.0347 471.893 74.7733 472.079 74.568C472.285 74.3627 472.565 74.26 472.919 74.26H482.775C483.111 74.26 483.373 74.344 483.559 74.512C483.765 74.68 483.867 74.9133 483.867 75.212C483.867 75.5107 483.765 75.744 483.559 75.912C483.373 76.08 483.111 76.164 482.775 76.164H474.067V83.192C474.59 82.688 475.197 82.3053 475.887 82.044C476.597 81.764 477.362 81.624 478.183 81.624Z" fill="black"/>
<path d="M311.864 52C311.323 52 310.893 51.8507 310.576 51.552C310.277 51.2533 310.128 50.8333 310.128 50.292V33.968C310.128 33.4267 310.277 33.0067 310.576 32.708C310.893 32.4093 311.323 32.26 311.864 32.26H321.972C322.513 32.26 322.933 32.3813 323.232 32.624C323.531 32.8667 323.68 33.212 323.68 33.66C323.68 34.1267 323.531 34.4907 323.232 34.752C322.933 34.9947 322.513 35.116 321.972 35.116H313.656V40.548H321.412C321.953 40.548 322.373 40.6693 322.672 40.912C322.971 41.1547 323.12 41.5093 323.12 41.976C323.12 42.424 322.971 42.7693 322.672 43.012C322.373 43.2547 321.953 43.376 321.412 43.376H313.656V49.144H321.972C322.513 49.144 322.933 49.2747 323.232 49.536C323.531 49.7787 323.68 50.1333 323.68 50.6C323.68 51.048 323.531 51.3933 323.232 51.636C322.933 51.8787 322.513 52 321.972 52H311.864ZM333.42 49.564C334.354 49.62 334.82 50.04 334.82 50.824C334.82 51.272 334.634 51.6173 334.26 51.86C333.906 52.084 333.392 52.1773 332.72 52.14L331.964 52.084C328.828 51.86 327.26 50.18 327.26 47.044V40.94H325.86C325.356 40.94 324.964 40.828 324.684 40.604C324.423 40.38 324.292 40.0533 324.292 39.624C324.292 39.1947 324.423 38.868 324.684 38.644C324.964 38.42 325.356 38.308 325.86 38.308H327.26V35.732C327.26 35.228 327.419 34.8267 327.736 34.528C328.054 34.2293 328.483 34.08 329.024 34.08C329.547 34.08 329.967 34.2293 330.284 34.528C330.602 34.8267 330.76 35.228 330.76 35.732V38.308H333.14C333.644 38.308 334.027 38.42 334.288 38.644C334.568 38.868 334.708 39.1947 334.708 39.624C334.708 40.0533 334.568 40.38 334.288 40.604C334.027 40.828 333.644 40.94 333.14 40.94H330.76V47.296C330.76 48.6773 331.395 49.4147 332.664 49.508L333.42 49.564ZM342.72 52.224C341.358 52.224 340.154 51.9347 339.108 51.356C338.082 50.7773 337.288 49.956 336.728 48.892C336.168 47.828 335.888 46.5867 335.888 45.168C335.888 43.7493 336.178 42.4987 336.756 41.416C337.354 40.3147 338.184 39.4653 339.248 38.868C340.312 38.2707 341.535 37.972 342.916 37.972C343.644 37.972 344.372 38.0747 345.1 38.28C345.847 38.4853 346.5 38.7653 347.06 39.12C347.658 39.512 347.956 40.0067 347.956 40.604C347.956 41.0147 347.854 41.3507 347.648 41.612C347.462 41.8547 347.21 41.976 346.892 41.976C346.687 41.976 346.472 41.9293 346.248 41.836C346.024 41.7427 345.8 41.6307 345.576 41.5C345.166 41.2573 344.774 41.0707 344.4 40.94C344.027 40.7907 343.598 40.716 343.112 40.716C341.955 40.716 341.059 41.0987 340.424 41.864C339.808 42.6107 339.5 43.6933 339.5 45.112C339.5 46.512 339.808 47.5947 340.424 48.36C341.059 49.1067 341.955 49.48 343.112 49.48C343.579 49.48 343.99 49.4147 344.344 49.284C344.718 49.1347 345.128 48.9387 345.576 48.696C345.856 48.528 346.099 48.4067 346.304 48.332C346.51 48.2387 346.715 48.192 346.92 48.192C347.219 48.192 347.471 48.3227 347.676 48.584C347.882 48.8453 347.984 49.172 347.984 49.564C347.984 49.8813 347.91 50.1613 347.76 50.404C347.63 50.628 347.406 50.8333 347.088 51.02C346.51 51.3933 345.838 51.692 345.072 51.916C344.307 52.1213 343.523 52.224 342.72 52.224ZM358.324 37.972C361.535 37.972 363.14 39.848 363.14 43.6V50.488C363.14 51.0107 362.981 51.4213 362.664 51.72C362.365 52.0187 361.945 52.168 361.404 52.168C360.863 52.168 360.433 52.0187 360.116 51.72C359.799 51.4213 359.64 51.0107 359.64 50.488V43.6C359.64 42.6107 359.435 41.892 359.024 41.444C358.632 40.9773 358.007 40.744 357.148 40.744C356.14 40.744 355.328 41.0613 354.712 41.696C354.115 42.3307 353.816 43.18 353.816 44.244V50.488C353.816 51.0107 353.657 51.4213 353.34 51.72C353.023 52.0187 352.593 52.168 352.052 52.168C351.511 52.168 351.081 52.0187 350.764 51.72C350.465 51.4213 350.316 51.0107 350.316 50.488V33.744C350.316 33.2587 350.475 32.8667 350.792 32.568C351.128 32.2693 351.557 32.12 352.08 32.12C352.603 32.12 353.023 32.26 353.34 32.54C353.657 32.82 353.816 33.2027 353.816 33.688V40.212C354.283 39.484 354.899 38.9333 355.664 38.56C356.448 38.168 357.335 37.972 358.324 37.972ZM368.431 52.168C367.927 52.168 367.507 52.028 367.171 51.748C366.854 51.4493 366.695 51.0293 366.695 50.488V39.68C366.695 39.1387 366.854 38.728 367.171 38.448C367.507 38.168 367.927 38.028 368.431 38.028C368.935 38.028 369.355 38.168 369.691 38.448C370.027 38.728 370.195 39.1387 370.195 39.68V50.488C370.195 51.0293 370.027 51.4493 369.691 51.748C369.355 52.028 368.935 52.168 368.431 52.168ZM368.431 35.536C367.796 35.536 367.292 35.368 366.919 35.032C366.546 34.6773 366.359 34.22 366.359 33.66C366.359 33.1 366.546 32.652 366.919 32.316C367.292 31.98 367.796 31.812 368.431 31.812C369.047 31.812 369.542 31.98 369.915 32.316C370.307 32.652 370.503 33.1 370.503 33.66C370.503 34.22 370.316 34.6773 369.943 35.032C369.57 35.368 369.066 35.536 368.431 35.536ZM381.756 37.972C383.399 37.972 384.622 38.4387 385.424 39.372C386.227 40.3053 386.628 41.7147 386.628 43.6V50.488C386.628 51.0107 386.47 51.4213 386.152 51.72C385.854 52.0187 385.434 52.168 384.892 52.168C384.351 52.168 383.922 52.0187 383.604 51.72C383.287 51.4213 383.128 51.0107 383.128 50.488V43.796C383.128 42.732 382.923 41.9573 382.512 41.472C382.12 40.9867 381.495 40.744 380.636 40.744C379.628 40.744 378.816 41.0613 378.2 41.696C377.603 42.3307 377.304 43.18 377.304 44.244V50.488C377.304 51.0107 377.146 51.4213 376.828 51.72C376.511 52.0187 376.082 52.168 375.54 52.168C374.999 52.168 374.57 52.0187 374.252 51.72C373.954 51.4213 373.804 51.0107 373.804 50.488V39.652C373.804 39.1667 373.963 38.7747 374.28 38.476C374.598 38.1773 375.027 38.028 375.568 38.028C376.054 38.028 376.446 38.1773 376.744 38.476C377.062 38.756 377.22 39.1293 377.22 39.596V40.352C377.687 39.5867 378.312 38.9987 379.096 38.588C379.88 38.1773 380.767 37.972 381.756 37.972ZM401.775 38.028C402.298 38.028 402.718 38.1773 403.035 38.476C403.353 38.7747 403.511 39.176 403.511 39.68V50.74C403.511 52.8867 402.914 54.5107 401.719 55.612C400.525 56.7133 398.761 57.264 396.427 57.264C394.393 57.264 392.694 56.8813 391.331 56.116C390.641 55.7053 390.295 55.2107 390.295 54.632C390.295 54.2213 390.389 53.8947 390.575 53.652C390.781 53.4093 391.042 53.288 391.359 53.288C391.527 53.288 391.733 53.3253 391.975 53.4C392.218 53.4933 392.47 53.596 392.731 53.708C393.403 53.988 394.001 54.2027 394.523 54.352C395.065 54.5013 395.681 54.576 396.371 54.576C398.817 54.576 400.039 53.3813 400.039 50.992V49.2C399.629 49.9653 399.031 50.5627 398.247 50.992C397.463 51.4027 396.567 51.608 395.559 51.608C394.365 51.608 393.301 51.328 392.367 50.768C391.453 50.1893 390.734 49.3867 390.211 48.36C389.689 47.3333 389.427 46.148 389.427 44.804C389.427 43.46 389.679 42.2747 390.183 41.248C390.706 40.2027 391.434 39.4 392.367 38.84C393.301 38.2613 394.365 37.972 395.559 37.972C396.567 37.972 397.463 38.1867 398.247 38.616C399.031 39.0267 399.629 39.6147 400.039 40.38V39.652C400.039 39.1667 400.198 38.7747 400.515 38.476C400.833 38.1773 401.253 38.028 401.775 38.028ZM396.483 48.892C397.603 48.892 398.471 48.528 399.087 47.8C399.722 47.072 400.039 46.0733 400.039 44.804C400.039 43.516 399.722 42.508 399.087 41.78C398.471 41.052 397.603 40.688 396.483 40.688C395.382 40.688 394.514 41.052 393.879 41.78C393.245 42.508 392.927 43.516 392.927 44.804C392.927 46.0733 393.245 47.072 393.879 47.8C394.514 48.528 395.382 48.892 396.483 48.892Z" fill="black"/>
</svg>
