<svg width="80" height="80" viewBox="0 0 80 80" fill="none" xmlns="http://www.w3.org/2000/svg">
<circle cx="40" cy="40" r="40" fill="white"/>
<path fill-rule="evenodd" clip-rule="evenodd" d="M18 60.7225C21.9074 55.4122 24.3222 48.0929 24.3222 40.0112C24.3222 31.9314 21.9086 24.6137 18.0027 19.3036H28.9546V60.7225H18Z" fill="black"/>
<path fill-rule="evenodd" clip-rule="evenodd" d="M50.3806 60.7225C54.5258 55.4122 57.0876 48.0929 57.0876 40.0113C57.0876 31.9315 54.527 24.6137 50.3833 19.3036H62.0021V60.7225H50.3806Z" fill="black"/>
<path fill-rule="evenodd" clip-rule="evenodd" d="M47.0488 33.6107C48.5127 35.7703 50.5301 37.1049 52.7576 37.1049C54.9852 37.1049 57.0027 35.7702 58.4666 33.6104L58.4666 39.665L47.0488 39.665L47.0488 33.6107Z" fill="black"/>
<path fill-rule="evenodd" clip-rule="evenodd" d="M59.2913 42.8906C57.5128 41.0769 55.0617 39.9561 52.3554 39.9561C49.6491 39.9561 47.1981 41.0769 45.4197 42.8905L45.4197 37.8057L59.2913 37.8057L59.2913 42.8906Z" fill="black"/>
<path fill-rule="evenodd" clip-rule="evenodd" d="M29.1107 47.2329C30.3347 47.4351 31.6038 47.5414 32.9048 47.5414C42.989 47.5414 51.1638 41.1522 51.1638 33.2707C51.1638 25.3892 42.989 19 32.9048 19C31.4237 19 29.9837 19.1378 28.6048 19.398C37.8774 20.7717 44.8323 26.4988 44.8323 33.3553C44.8323 40.0865 38.1292 45.7292 29.1107 47.2329Z" fill="#FB9F99"/>
</svg>
