<svg width="277" height="255" viewBox="0 0 277 255" fill="none" xmlns="http://www.w3.org/2000/svg">
<path fill-rule="evenodd" clip-rule="evenodd" d="M54.9268 91.8837C54.9268 94.5123 53.7925 97.0332 51.7735 98.8919L27.9268 120.845C23.7223 124.715 23.7223 130.99 27.9268 134.861L51.7734 156.814C53.7925 158.672 54.9268 161.193 54.9268 163.822V194.964C54.9268 200.437 59.7469 204.875 65.6929 204.875H99.5214C102.377 204.875 105.115 205.919 107.134 207.778L131.128 229.866C135.333 233.736 142.149 233.736 146.354 229.866L170.348 207.778C172.367 205.919 175.105 204.875 177.961 204.875H211.642C217.588 204.875 222.408 200.437 222.408 194.964V163.958C222.408 161.329 223.542 158.808 225.561 156.949L249.555 134.861C253.76 130.99 253.76 124.715 249.555 120.845L225.561 98.7561C223.542 96.8975 222.408 94.3765 222.408 91.748V60.6062C222.408 55.1325 217.588 50.6951 211.642 50.6951H177.813C174.958 50.6951 172.22 49.6509 170.201 47.7923L146.354 25.8395C142.149 21.969 135.333 21.969 131.128 25.8395L107.282 47.7923C105.263 49.6509 102.524 50.6951 99.6689 50.6951H65.6929C59.7469 50.6951 54.9268 55.1324 54.9268 60.6062V91.8837Z" fill="#011149"/>
<path fill-rule="evenodd" clip-rule="evenodd" d="M83.8379 73.6525L43.3583 87.5851L58.493 124.85L40.5334 161.129L79.9422 177.662L95.1414 215.085L135.793 201.093L175.084 217.577L192.989 181.407L233.641 167.415L218.442 129.992L236.402 93.7126L196.993 77.1793L181.858 39.9148L141.379 53.8475L101.852 37.2645L83.8379 73.6525ZM83.8379 73.6525L58.493 124.85L79.9422 177.662L135.793 201.093L192.989 181.407L218.442 129.992L196.993 77.1793L141.379 53.8475L83.8379 73.6525Z" fill="#011149"/>
<path fill-rule="evenodd" clip-rule="evenodd" d="M70.6011 97.0941C70.6011 99.7227 69.4668 102.244 67.4478 104.102L49.4473 120.673C45.2428 124.544 45.2428 130.819 49.4473 134.69L67.4478 151.26C69.4668 153.119 70.6011 155.64 70.6011 158.269V183.709C70.6011 189.183 75.4213 193.62 81.3672 193.62H109.003C111.858 193.62 114.597 194.665 116.616 196.523L131.084 209.842C135.288 213.713 142.105 213.713 146.31 209.842L160.778 196.523C162.797 194.665 165.535 193.62 168.391 193.62H196.819C202.765 193.62 207.585 189.183 207.585 183.709V157.539C207.585 154.91 208.719 152.389 210.738 150.531L227.946 134.69C232.151 130.819 232.151 124.544 227.946 120.673L210.738 104.832C208.719 102.973 207.585 100.452 207.585 97.8238V77.4271C207.585 71.9534 202.765 67.5161 196.819 67.5161H174.663C171.807 67.5161 169.069 66.4719 167.05 64.6132L146.31 45.5202C142.105 41.6497 135.288 41.6497 131.084 45.5203L110.344 64.6132C108.325 66.4719 105.586 67.5161 102.731 67.5161H81.3672C75.4213 67.5161 70.6011 71.9534 70.6011 77.4271V97.0941Z" fill="#FDE54A"/>
<path d="M149.648 127.852C149.648 133.326 144.828 137.763 138.882 137.763C132.936 137.763 128.116 133.326 128.116 127.852C128.116 122.379 132.936 117.941 138.882 117.941C144.828 117.941 149.648 122.379 149.648 127.852Z" fill="white"/>
<path d="M144.266 127.852C144.266 130.589 141.856 132.808 138.883 132.808C135.91 132.808 133.5 130.589 133.5 127.852C133.5 125.116 135.91 122.897 138.883 122.897C141.856 122.897 144.266 125.116 144.266 127.852Z" fill="#011149"/>
<path fill-rule="evenodd" clip-rule="evenodd" d="M133.567 115.915C136.382 118.336 140.735 118.336 143.55 115.915C148.891 111.321 152.23 104.779 152.23 97.5186C152.23 90.2585 148.891 83.7163 143.55 79.1222C140.735 76.7007 136.382 76.7007 133.567 79.1222C128.225 83.7163 124.887 90.2585 124.887 97.5186C124.887 104.779 128.225 111.321 133.567 115.915Z" fill="#FB9F99"/>
<path fill-rule="evenodd" clip-rule="evenodd" d="M191.588 132.149C194.219 129.558 194.219 125.55 191.588 122.958C186.598 118.042 179.491 114.968 171.605 114.968C163.718 114.968 156.612 118.042 151.621 122.958C148.991 125.55 148.991 129.558 151.621 132.149C156.612 137.066 163.718 140.14 171.605 140.14C179.491 140.14 186.598 137.066 191.588 132.149Z" fill="#FB9F99"/>
<path fill-rule="evenodd" clip-rule="evenodd" d="M125.915 132.149C128.546 129.558 128.546 125.55 125.915 122.958C120.925 118.042 113.818 114.968 105.932 114.968C98.0455 114.968 90.9388 118.042 85.9484 122.958C83.318 125.55 83.318 129.558 85.9484 132.149C90.9388 137.066 98.0455 140.14 105.932 140.14C113.818 140.14 120.925 137.066 125.915 132.149Z" fill="#FB9F99"/>
<path fill-rule="evenodd" clip-rule="evenodd" d="M133.567 176.372C136.382 178.794 140.735 178.794 143.55 176.372C148.891 171.778 152.23 165.236 152.23 157.976C152.23 150.716 148.891 144.174 143.55 139.58C140.735 137.158 136.382 137.158 133.567 139.58C128.225 144.174 124.887 150.716 124.887 157.976C124.887 165.236 128.225 171.778 133.567 176.372Z" fill="#FB9F99"/>
<path d="M119.827 99.6331C121.039 98.5925 123.021 99.1501 123.394 100.637L126.959 114.854C127.332 116.341 125.817 117.642 124.232 117.196L109.074 112.93C107.489 112.484 107.023 110.625 108.235 109.584L119.827 99.6331Z" fill="#011149"/>
<path d="M168.926 142.888C170.515 143.322 170.999 145.176 169.797 146.227L158.299 156.271C157.097 157.321 155.11 156.779 154.723 155.296L151.023 141.107C150.636 139.624 152.139 138.311 153.728 138.744L168.926 142.888Z" fill="#011149"/>
<path d="M169.104 110.424C170.255 111.521 169.684 113.355 168.076 113.724L152.696 117.254C151.088 117.623 149.648 116.251 150.105 114.784L154.474 100.758C154.931 99.2913 156.942 98.8298 158.093 99.9275L169.104 110.424Z" fill="#011149"/>
<path d="M122.78 155.789C122.407 157.275 120.425 157.833 119.213 156.792L107.621 146.841C106.409 145.8 106.875 143.942 108.46 143.496L123.618 139.23C125.203 138.783 126.718 140.084 126.345 141.571L122.78 155.789Z" fill="#011149"/>
</svg>
