<svg width="44" height="44" viewBox="0 0 44 44" fill="none" xmlns="http://www.w3.org/2000/svg">
<path fill-rule="evenodd" clip-rule="evenodd" d="M0 43.9999C3.90672 38.3996 6.32099 30.6812 6.32099 22.159C6.32099 13.6369 3.90685 5.91876 0.00033121 0.318481H10.9524V43.9999H0Z" fill="black"/>
<path fill-rule="evenodd" clip-rule="evenodd" d="M32.3809 43.9999C36.5253 38.3996 39.0865 30.6813 39.0865 22.1591C39.0865 13.637 36.5254 5.91877 32.3811 0.318481H43.9999V43.9999H32.3809Z" fill="black"/>
<path fill-rule="evenodd" clip-rule="evenodd" d="M29.0481 15.4086C30.512 17.6863 32.5294 19.0938 34.7569 19.0938C36.9845 19.0938 39.002 17.6862 40.4658 15.4084L40.4658 21.7937L29.0481 21.7937L29.0481 15.4086Z" fill="black"/>
<path fill-rule="evenodd" clip-rule="evenodd" d="M41.2906 25.1956C39.5121 23.2828 37.0611 22.1007 34.3548 22.1007C31.6484 22.1007 29.1974 23.2828 27.4189 25.1955L27.4189 19.8329L41.2906 19.8329L41.2906 25.1956Z" fill="black"/>
<path fill-rule="evenodd" clip-rule="evenodd" d="M11.105 29.7746C12.3299 29.9881 13.6001 30.1005 14.9021 30.1005C24.9863 30.1005 33.1611 23.3623 33.1611 15.0502C33.1611 6.73822 24.9863 0 14.9021 0C13.4221 0 11.9832 0.145139 10.6053 0.41909C19.8764 1.86863 26.8298 7.90807 26.8298 15.1383C26.8298 22.2381 20.1251 28.1896 11.105 29.7746Z" fill="#FB9F99"/>
</svg>
