<svg width="303" height="313" viewBox="0 0 303 313" fill="none" xmlns="http://www.w3.org/2000/svg">
<ellipse cx="151.045" cy="151.452" rx="134.667" ry="135.848" fill="#FDE54A"/>
<ellipse cx="134.667" cy="177.152" rx="134.667" ry="135.848" fill="#011149"/>
<path d="M101.476 158.36C99.5558 158.36 97.8878 157.976 96.4718 157.208C95.0798 156.416 94.0118 155.36 93.2678 154.04C92.5478 152.72 92.1878 151.28 92.1878 149.72C92.1878 147.656 93.0158 145.448 94.6718 143.096L101.548 133.52C101.572 133.496 101.632 133.412 101.728 133.268C101.848 133.124 101.992 133.016 102.16 132.944C102.328 132.848 102.52 132.8 102.736 132.8H104.5C104.716 132.8 104.884 132.884 105.004 133.052C105.148 133.196 105.22 133.376 105.22 133.592C105.22 133.712 105.16 133.868 105.04 134.06L99.7838 141.404C100.408 141.26 101.104 141.188 101.872 141.188C103.624 141.188 105.16 141.584 106.48 142.376C107.824 143.144 108.856 144.176 109.576 145.472C110.32 146.744 110.692 148.148 110.692 149.684C110.692 151.22 110.32 152.66 109.576 154.004C108.856 155.324 107.8 156.38 106.408 157.172C105.016 157.964 103.372 158.36 101.476 158.36ZM101.44 155.372C102.496 155.372 103.468 155.156 104.356 154.724C105.244 154.292 105.952 153.656 106.48 152.816C107.008 151.952 107.272 150.92 107.272 149.72C107.272 148.544 106.996 147.536 106.444 146.696C105.916 145.832 105.208 145.184 104.32 144.752C103.432 144.296 102.472 144.068 101.44 144.068C100.408 144.068 99.4478 144.296 98.5598 144.752C97.6718 145.184 96.9638 145.832 96.4358 146.696C95.9078 147.536 95.6438 148.544 95.6438 149.72C95.6438 150.92 95.9078 151.952 96.4358 152.816C96.9638 153.656 97.6718 154.292 98.5598 154.724C99.4478 155.156 100.408 155.372 101.44 155.372ZM118.994 158C118.778 158 118.598 157.928 118.454 157.784C118.334 157.616 118.274 157.424 118.274 157.208C118.274 157.04 118.322 156.884 118.418 156.74L123.962 149.036C123.386 149.18 122.714 149.252 121.946 149.252C120.218 149.228 118.706 148.832 117.41 148.064C116.114 147.272 115.118 146.252 114.422 145.004C113.75 143.732 113.414 142.376 113.414 140.936C113.414 139.496 113.75 138.128 114.422 136.832C115.118 135.536 116.138 134.48 117.482 133.664C118.85 132.848 120.494 132.44 122.414 132.44C124.334 132.44 125.978 132.836 127.346 133.628C128.714 134.42 129.746 135.464 130.442 136.76C131.138 138.032 131.486 139.4 131.486 140.864C131.486 142.184 131.246 143.348 130.766 144.356C130.31 145.364 129.698 146.408 128.93 147.488L121.946 157.28C121.778 157.496 121.61 157.676 121.442 157.82C121.298 157.94 121.082 158 120.794 158H118.994ZM122.414 146.408C123.446 146.408 124.394 146.18 125.258 145.724C126.122 145.268 126.806 144.632 127.31 143.816C127.814 142.976 128.066 142.016 128.066 140.936C128.066 139.832 127.814 138.86 127.31 138.02C126.806 137.18 126.122 136.532 125.258 136.076C124.394 135.62 123.446 135.392 122.414 135.392C121.406 135.392 120.47 135.62 119.606 136.076C118.766 136.532 118.094 137.18 117.59 138.02C117.086 138.86 116.834 139.832 116.834 140.936C116.834 142.016 117.086 142.976 117.59 143.816C118.094 144.632 118.766 145.268 119.606 145.724C120.446 146.18 121.382 146.408 122.414 146.408ZM140.227 145.436C138.667 145.436 137.431 145.028 136.519 144.212C135.631 143.372 135.151 142.22 135.079 140.756C135.055 140.348 135.043 139.82 135.043 139.172C135.043 138.476 135.055 137.912 135.079 137.48C135.151 135.992 135.619 134.816 136.483 133.952C137.347 133.064 138.595 132.62 140.227 132.62C141.859 132.62 143.107 133.064 143.971 133.952C144.859 134.816 145.339 135.992 145.411 137.48C145.459 138.344 145.483 138.908 145.483 139.172C145.483 139.412 145.459 139.94 145.411 140.756C145.339 142.22 144.847 143.372 143.935 144.212C143.023 145.028 141.787 145.436 140.227 145.436ZM137.203 158C136.987 158 136.807 157.94 136.663 157.82C136.519 157.676 136.447 157.496 136.447 157.28C136.447 157.136 136.495 157.004 136.591 156.884L154.375 133.484C154.567 133.22 154.735 133.04 154.879 132.944C155.047 132.848 155.275 132.8 155.563 132.8H156.715C156.931 132.8 157.099 132.872 157.219 133.016C157.363 133.136 157.435 133.304 157.435 133.52C157.435 133.664 157.387 133.796 157.291 133.916L139.543 157.316C139.351 157.556 139.171 157.736 139.003 157.856C138.859 157.952 138.643 158 138.355 158H137.203ZM140.227 143.24C141.091 143.24 141.727 142.988 142.135 142.484C142.543 141.98 142.783 141.356 142.855 140.612C142.903 139.748 142.927 139.244 142.927 139.1C142.927 138.884 142.903 138.392 142.855 137.624C142.807 136.88 142.567 136.256 142.135 135.752C141.727 135.224 141.091 134.96 140.227 134.96C139.363 134.96 138.727 135.224 138.319 135.752C137.911 136.256 137.683 136.88 137.635 137.624C137.611 138.008 137.599 138.5 137.599 139.1C137.599 139.676 137.611 140.18 137.635 140.612C137.707 141.332 137.935 141.956 138.319 142.484C138.727 142.988 139.363 143.24 140.227 143.24ZM153.619 158.216C152.059 158.216 150.823 157.772 149.911 156.884C149.023 155.996 148.543 154.82 148.471 153.356C148.423 152.636 148.399 152.156 148.399 151.916C148.399 151.676 148.423 151.076 148.471 150.116C148.543 148.628 149.011 147.452 149.875 146.588C150.739 145.7 151.987 145.256 153.619 145.256C155.251 145.256 156.499 145.7 157.363 146.588C158.251 147.452 158.731 148.628 158.803 150.116C158.851 150.98 158.875 151.532 158.875 151.772C158.875 152.012 158.851 152.54 158.803 153.356C158.731 154.82 158.239 155.996 157.327 156.884C156.415 157.772 155.179 158.216 153.619 158.216ZM153.619 155.876C154.483 155.876 155.119 155.624 155.527 155.12C155.935 154.616 156.175 153.992 156.247 153.248C156.295 152.384 156.319 151.868 156.319 151.7C156.319 151.508 156.295 151.028 156.247 150.26C156.199 149.516 155.959 148.892 155.527 148.388C155.119 147.86 154.483 147.596 153.619 147.596C152.755 147.596 152.119 147.86 151.711 148.388C151.303 148.892 151.075 149.516 151.027 150.26C151.003 150.644 150.991 151.124 150.991 151.7C150.991 152.3 151.003 152.816 151.027 153.248C151.075 153.968 151.303 154.592 151.711 155.12C152.119 155.624 152.755 155.876 153.619 155.876Z" fill="white"/>
<path d="M75.9672 174.964C76.6206 174.964 77.2339 175.071 77.8072 175.284C78.3806 175.484 78.8739 175.798 79.2872 176.224C80.2072 177.158 80.6672 178.451 80.6672 180.104C80.6672 181.731 80.2072 183.011 79.2872 183.944C78.4606 184.798 77.3539 185.224 75.9672 185.224C74.5806 185.224 73.4606 184.798 72.6072 183.944C71.6872 183.024 71.2272 181.744 71.2272 180.104C71.2272 178.438 71.6872 177.144 72.6072 176.224C73.4472 175.384 74.5672 174.964 75.9672 174.964ZM78.3072 180.084C78.3072 179.058 78.1072 178.291 77.7072 177.784C77.3072 177.264 76.7472 177.004 76.0272 177.004C75.3206 177.004 74.7406 177.264 74.2872 177.784C73.8339 178.291 73.6072 179.058 73.6072 180.084C73.6072 181.111 73.8072 181.884 74.2072 182.404C74.6206 182.911 75.1806 183.164 75.8872 183.164C76.5939 183.164 77.1739 182.911 77.6272 182.404C78.0806 181.884 78.3072 181.111 78.3072 180.084ZM82.4154 175.224H83.8554V174.084C83.8554 173.084 84.1487 172.318 84.7354 171.784C85.2687 171.304 85.962 171.064 86.8154 171.064C87.362 171.064 88.0354 171.144 88.8354 171.304L88.3754 173.124C88.002 172.991 87.662 172.924 87.3554 172.924C87.062 172.924 86.802 173.011 86.5754 173.184C86.3487 173.344 86.2354 173.651 86.2354 174.104V175.224H88.0154V176.804H86.2354V184.944H83.8554V176.804H82.4154V175.224ZM102.318 183.184C101.705 184.478 100.718 185.124 99.3582 185.124C97.6382 185.124 96.5048 184.451 95.9582 183.104C95.7582 182.638 95.6582 182.071 95.6582 181.404V175.204H98.0182V181.164C98.0182 181.804 98.1715 182.284 98.4782 182.604C98.7848 182.911 99.1582 183.064 99.5982 183.064C100.052 183.064 100.432 183.004 100.738 182.884C101.045 182.751 101.312 182.558 101.538 182.304C102.032 181.731 102.292 180.964 102.318 180.004V175.204H104.678V184.944H102.318V183.184ZM109.717 181.984C109.744 182.904 110.417 183.364 111.737 183.364C112.244 183.364 112.657 183.258 112.977 183.044C113.311 182.818 113.477 182.558 113.477 182.264C113.477 181.971 113.377 181.744 113.177 181.584C112.977 181.424 112.664 181.278 112.237 181.144L110.117 180.384C108.544 179.838 107.757 178.944 107.757 177.704C107.757 176.878 108.124 176.218 108.857 175.724C109.604 175.218 110.597 174.964 111.837 174.964C113.091 174.964 114.051 175.238 114.717 175.784C115.397 176.331 115.751 177.018 115.777 177.844H113.557C113.531 177.524 113.377 177.271 113.097 177.084C112.817 176.898 112.417 176.804 111.897 176.804C111.377 176.804 110.971 176.911 110.677 177.124C110.397 177.324 110.257 177.558 110.257 177.824C110.257 178.291 110.651 178.638 111.437 178.864L113.737 179.724C114.497 179.978 115.077 180.304 115.477 180.704C115.891 181.091 116.097 181.598 116.097 182.224C116.097 183.024 115.717 183.718 114.957 184.304C114.171 184.918 113.131 185.224 111.837 185.224C110.544 185.224 109.504 184.944 108.717 184.384C107.931 183.811 107.531 183.011 107.517 181.984H109.717ZM125.724 176.384C126.057 176.811 126.304 177.304 126.464 177.864C126.637 178.424 126.724 178.938 126.724 179.404C126.724 179.871 126.697 180.291 126.644 180.664H120.364C120.391 181.451 120.584 182.091 120.944 182.584C121.304 183.078 121.851 183.324 122.584 183.324C123.557 183.324 124.137 182.898 124.324 182.044H126.704C126.544 183.018 126.097 183.784 125.364 184.344C124.604 184.931 123.677 185.224 122.584 185.224C121.304 185.224 120.231 184.758 119.364 183.824C118.471 182.851 118.024 181.604 118.024 180.084C118.024 178.524 118.471 177.271 119.364 176.324C120.217 175.418 121.291 174.964 122.584 174.964C123.931 174.964 124.977 175.438 125.724 176.384ZM122.604 176.844C121.937 176.844 121.417 177.064 121.044 177.504C120.671 177.931 120.451 178.484 120.384 179.164H124.524C124.524 178.111 124.191 177.404 123.524 177.044C123.271 176.911 122.964 176.844 122.604 176.844ZM131.91 177.144C132.496 175.744 133.376 175.044 134.55 175.044C134.776 175.044 135.063 175.091 135.41 175.184L135.37 177.544C134.996 177.464 134.63 177.424 134.27 177.424C132.696 177.424 131.91 178.511 131.91 180.684V184.944H129.55V175.204H131.91V177.144ZM139.19 181.984C139.217 182.904 139.89 183.364 141.21 183.364C141.717 183.364 142.13 183.258 142.45 183.044C142.783 182.818 142.95 182.558 142.95 182.264C142.95 181.971 142.85 181.744 142.65 181.584C142.45 181.424 142.137 181.278 141.71 181.144L139.59 180.384C138.017 179.838 137.23 178.944 137.23 177.704C137.23 176.878 137.597 176.218 138.33 175.724C139.077 175.218 140.07 174.964 141.31 174.964C142.563 174.964 143.523 175.238 144.19 175.784C144.87 176.331 145.223 177.018 145.25 177.844H143.03C143.003 177.524 142.85 177.271 142.57 177.084C142.29 176.898 141.89 176.804 141.37 176.804C140.85 176.804 140.443 176.911 140.15 177.124C139.87 177.324 139.73 177.558 139.73 177.824C139.73 178.291 140.123 178.638 140.91 178.864L143.21 179.724C143.97 179.978 144.55 180.304 144.95 180.704C145.363 181.091 145.57 181.598 145.57 182.224C145.57 183.024 145.19 183.718 144.43 184.304C143.643 184.918 142.603 185.224 141.31 185.224C140.017 185.224 138.977 184.944 138.19 184.384C137.403 183.811 137.003 183.011 136.99 181.984H139.19ZM154.335 175.224L156.295 182.164L158.155 175.764H160.295L162.155 182.184L164.135 175.224H166.495L163.295 184.944H160.975L159.175 179.124L157.415 184.944H155.075L151.855 175.224H154.335ZM171.832 179.264C172.605 179.264 173.498 179.391 174.512 179.644V178.684C174.512 178.004 174.372 177.504 174.092 177.184C173.825 176.851 173.378 176.684 172.752 176.684C172.138 176.684 171.665 176.811 171.332 177.064C170.998 177.304 170.832 177.651 170.832 178.104H168.252C168.252 176.998 168.638 176.198 169.412 175.704C170.198 175.211 171.292 174.964 172.692 174.964C174.692 174.964 175.985 175.664 176.572 177.064C176.772 177.544 176.872 178.111 176.872 178.764V184.944H174.812L174.632 183.644C174.005 184.698 173.045 185.224 171.752 185.224C170.498 185.224 169.525 184.918 168.832 184.304C168.192 183.718 167.872 182.978 167.872 182.084C167.872 181.178 168.225 180.484 168.932 180.004C169.638 179.511 170.605 179.264 171.832 179.264ZM174.512 181.144C173.725 180.931 172.992 180.824 172.312 180.824C171.032 180.824 170.392 181.251 170.392 182.104C170.392 182.464 170.538 182.778 170.832 183.044C171.125 183.298 171.592 183.424 172.232 183.424C172.885 183.424 173.418 183.211 173.832 182.784C174.258 182.344 174.485 181.798 174.512 181.144ZM182.631 176.904C183.271 175.611 184.298 174.964 185.711 174.964C186.911 174.964 187.811 175.358 188.411 176.144C189.025 176.931 189.331 177.971 189.331 179.264V184.944H186.971V179.264C186.971 178.544 186.798 178.004 186.451 177.644C186.105 177.271 185.618 177.084 184.991 177.084C184.365 177.084 183.825 177.364 183.371 177.924C182.931 178.484 182.698 179.324 182.671 180.444V184.944H180.311V175.224H182.371L182.631 176.904ZM198.252 184.704C197.372 185.051 196.679 185.224 196.172 185.224C195.666 185.224 195.219 185.164 194.832 185.044C194.459 184.924 194.126 184.744 193.832 184.504C193.219 183.958 192.912 183.204 192.912 182.244V176.804H191.552V175.224H192.912V172.664H195.272V175.224H197.912V176.804H195.272V182.164C195.272 182.964 195.652 183.364 196.412 183.364C196.799 183.364 197.299 183.258 197.912 183.044L198.252 184.704ZM52.2758 197.964C52.9292 197.964 53.5425 198.071 54.1158 198.284C54.6892 198.484 55.1825 198.798 55.5958 199.224C56.5158 200.158 56.9758 201.451 56.9758 203.104C56.9758 204.731 56.5158 206.011 55.5958 206.944C54.7692 207.798 53.6625 208.224 52.2758 208.224C50.8892 208.224 49.7692 207.798 48.9158 206.944C47.9958 206.024 47.5358 204.744 47.5358 203.104C47.5358 201.438 47.9958 200.144 48.9158 199.224C49.7558 198.384 50.8758 197.964 52.2758 197.964ZM54.6158 203.084C54.6158 202.058 54.4158 201.291 54.0158 200.784C53.6158 200.264 53.0558 200.004 52.3358 200.004C51.6292 200.004 51.0492 200.264 50.5958 200.784C50.1425 201.291 49.9158 202.058 49.9158 203.084C49.9158 204.111 50.1158 204.884 50.5158 205.404C50.9292 205.911 51.4892 206.164 52.1958 206.164C52.9025 206.164 53.4825 205.911 53.9358 205.404C54.3892 204.884 54.6158 204.111 54.6158 203.084ZM61.944 199.544C62.5573 198.491 63.4906 197.964 64.744 197.964C65.944 197.964 66.9706 198.418 67.824 199.324C68.7306 200.284 69.184 201.538 69.184 203.084C69.184 204.644 68.724 205.904 67.804 206.864C66.9506 207.771 65.9306 208.224 64.744 208.224C63.5573 208.224 62.6906 207.871 62.144 207.164V212.684H59.784V198.224H61.724L61.944 199.544ZM64.324 206.084C64.604 206.084 64.8906 206.024 65.184 205.904C65.4906 205.784 65.764 205.598 66.004 205.344C66.5373 204.784 66.804 204.038 66.804 203.104C66.804 202.158 66.5706 201.418 66.104 200.884C65.6506 200.351 65.0906 200.084 64.424 200.084C63.7706 200.084 63.2306 200.278 62.804 200.664C62.3906 201.038 62.1706 201.578 62.144 202.284V204.024C62.144 204.651 62.364 205.158 62.804 205.544C63.2173 205.904 63.724 206.084 64.324 206.084ZM77.471 207.704C76.591 208.051 75.8977 208.224 75.391 208.224C74.8843 208.224 74.4377 208.164 74.051 208.044C73.6777 207.924 73.3443 207.744 73.051 207.504C72.4377 206.958 72.131 206.204 72.131 205.244V199.804H70.771V198.224H72.131V195.664H74.491V198.224H77.131V199.804H74.491V205.164C74.491 205.964 74.871 206.364 75.631 206.364C76.0177 206.364 76.5177 206.258 77.131 206.044L77.471 207.704ZM80.0816 198.204H82.4416V207.944H80.0816V198.204ZM79.8016 195.084C79.8016 194.658 79.9283 194.324 80.1816 194.084C80.4349 193.831 80.7949 193.704 81.2616 193.704C81.7149 193.704 82.0683 193.831 82.3216 194.084C82.5883 194.324 82.7216 194.658 82.7216 195.084C82.7216 195.511 82.5883 195.851 82.3216 196.104C82.0683 196.344 81.7149 196.464 81.2616 196.464C80.7949 196.464 80.4349 196.344 80.1816 196.104C79.9283 195.851 79.8016 195.511 79.8016 195.084ZM90.2641 197.964C90.9174 197.964 91.5308 198.071 92.1041 198.284C92.6774 198.484 93.1708 198.798 93.5841 199.224C94.5041 200.158 94.9641 201.451 94.9641 203.104C94.9641 204.731 94.5041 206.011 93.5841 206.944C92.7574 207.798 91.6508 208.224 90.2641 208.224C88.8774 208.224 87.7574 207.798 86.9041 206.944C85.9841 206.024 85.5241 204.744 85.5241 203.104C85.5241 201.438 85.9841 200.144 86.9041 199.224C87.7441 198.384 88.8641 197.964 90.2641 197.964ZM92.6041 203.084C92.6041 202.058 92.4041 201.291 92.0041 200.784C91.6041 200.264 91.0441 200.004 90.3241 200.004C89.6174 200.004 89.0374 200.264 88.5841 200.784C88.1308 201.291 87.9041 202.058 87.9041 203.084C87.9041 204.111 88.1041 204.884 88.5041 205.404C88.9174 205.911 89.4774 206.164 90.1841 206.164C90.8908 206.164 91.4708 205.911 91.9241 205.404C92.3774 204.884 92.6041 204.111 92.6041 203.084ZM100.092 199.904C100.732 198.611 101.759 197.964 103.172 197.964C104.372 197.964 105.272 198.358 105.872 199.144C106.486 199.931 106.792 200.971 106.792 202.264V207.944H104.432V202.264C104.432 201.544 104.259 201.004 103.912 200.644C103.566 200.271 103.079 200.084 102.452 200.084C101.826 200.084 101.286 200.364 100.832 200.924C100.392 201.484 100.159 202.324 100.132 203.444V207.944H97.7722V198.224H99.8322L100.092 199.904ZM111.553 204.984C111.58 205.904 112.253 206.364 113.573 206.364C114.08 206.364 114.493 206.258 114.813 206.044C115.147 205.818 115.313 205.558 115.313 205.264C115.313 204.971 115.213 204.744 115.013 204.584C114.813 204.424 114.5 204.278 114.073 204.144L111.953 203.384C110.38 202.838 109.593 201.944 109.593 200.704C109.593 199.878 109.96 199.218 110.693 198.724C111.44 198.218 112.433 197.964 113.673 197.964C114.927 197.964 115.887 198.238 116.553 198.784C117.233 199.331 117.587 200.018 117.613 200.844H115.393C115.367 200.524 115.213 200.271 114.933 200.084C114.653 199.898 114.253 199.804 113.733 199.804C113.213 199.804 112.807 199.911 112.513 200.124C112.233 200.324 112.093 200.558 112.093 200.824C112.093 201.291 112.487 201.638 113.273 201.864L115.573 202.724C116.333 202.978 116.913 203.304 117.313 203.704C117.727 204.091 117.933 204.598 117.933 205.224C117.933 206.024 117.553 206.718 116.793 207.304C116.007 207.918 114.967 208.224 113.673 208.224C112.38 208.224 111.34 207.944 110.553 207.384C109.767 206.811 109.367 206.011 109.353 204.984H111.553ZM124.779 198.224H126.219V197.084C126.219 196.084 126.512 195.318 127.099 194.784C127.632 194.304 128.325 194.064 129.179 194.064C129.725 194.064 130.399 194.144 131.199 194.304L130.739 196.124C130.365 195.991 130.025 195.924 129.719 195.924C129.425 195.924 129.165 196.011 128.939 196.184C128.712 196.344 128.599 196.651 128.599 197.104V198.224H130.379V199.804H128.599V207.944H126.219V199.804H124.779V198.224ZM136.983 197.964C137.636 197.964 138.25 198.071 138.823 198.284C139.396 198.484 139.89 198.798 140.303 199.224C141.223 200.158 141.683 201.451 141.683 203.104C141.683 204.731 141.223 206.011 140.303 206.944C139.476 207.798 138.37 208.224 136.983 208.224C135.596 208.224 134.476 207.798 133.623 206.944C132.703 206.024 132.243 204.744 132.243 203.104C132.243 201.438 132.703 200.144 133.623 199.224C134.463 198.384 135.583 197.964 136.983 197.964ZM139.323 203.084C139.323 202.058 139.123 201.291 138.723 200.784C138.323 200.264 137.763 200.004 137.043 200.004C136.336 200.004 135.756 200.264 135.303 200.784C134.85 201.291 134.623 202.058 134.623 203.084C134.623 204.111 134.823 204.884 135.223 205.404C135.636 205.911 136.196 206.164 136.903 206.164C137.61 206.164 138.19 205.911 138.643 205.404C139.096 204.884 139.323 204.111 139.323 203.084ZM146.851 200.144C147.438 198.744 148.318 198.044 149.491 198.044C149.718 198.044 150.004 198.091 150.351 198.184L150.311 200.544C149.938 200.464 149.571 200.424 149.211 200.424C147.638 200.424 146.851 201.511 146.851 203.684V207.944H144.491V198.204H146.851V200.144ZM156.81 198.224H158.25V197.084C158.25 196.084 158.543 195.318 159.13 194.784C159.663 194.304 160.357 194.064 161.21 194.064C161.757 194.064 162.43 194.144 163.23 194.304L162.77 196.124C162.397 195.991 162.057 195.924 161.75 195.924C161.457 195.924 161.197 196.011 160.97 196.184C160.743 196.344 160.63 196.651 160.63 197.104V198.224H162.41V199.804H160.63V207.944H158.25V199.804H156.81V198.224ZM169.014 197.964C169.667 197.964 170.281 198.071 170.854 198.284C171.427 198.484 171.921 198.798 172.334 199.224C173.254 200.158 173.714 201.451 173.714 203.104C173.714 204.731 173.254 206.011 172.334 206.944C171.507 207.798 170.401 208.224 169.014 208.224C167.627 208.224 166.507 207.798 165.654 206.944C164.734 206.024 164.274 204.744 164.274 203.104C164.274 201.438 164.734 200.144 165.654 199.224C166.494 198.384 167.614 197.964 169.014 197.964ZM171.354 203.084C171.354 202.058 171.154 201.291 170.754 200.784C170.354 200.264 169.794 200.004 169.074 200.004C168.367 200.004 167.787 200.264 167.334 200.784C166.881 201.291 166.654 202.058 166.654 203.084C166.654 204.111 166.854 204.884 167.254 205.404C167.667 205.911 168.227 206.164 168.934 206.164C169.641 206.164 170.221 205.911 170.674 205.404C171.127 204.884 171.354 204.111 171.354 203.084ZM176.522 194.224H178.882V207.944H176.522V194.224ZM188.936 206.444C188.336 207.631 187.416 208.224 186.176 208.224C184.936 208.224 183.896 207.751 183.056 206.804C182.19 205.818 181.756 204.564 181.756 203.044C181.756 201.524 182.17 200.291 182.996 199.344C183.81 198.424 184.823 197.964 186.036 197.964C187.25 197.964 188.163 198.451 188.776 199.424V194.224H191.156V207.944H189.216L188.936 206.444ZM186.476 200.084C185.81 200.084 185.25 200.358 184.796 200.904C184.356 201.438 184.136 202.158 184.136 203.064C184.136 203.971 184.363 204.704 184.816 205.264C185.27 205.811 185.843 206.084 186.536 206.084C187.11 206.084 187.623 205.858 188.076 205.404C188.543 204.938 188.776 204.351 188.776 203.644V202.384C188.75 201.691 188.516 201.124 188.076 200.684C187.676 200.284 187.143 200.084 186.476 200.084ZM201.662 199.384C201.995 199.811 202.242 200.304 202.402 200.864C202.575 201.424 202.662 201.938 202.662 202.404C202.662 202.871 202.635 203.291 202.582 203.664H196.302C196.328 204.451 196.522 205.091 196.882 205.584C197.242 206.078 197.788 206.324 198.522 206.324C199.495 206.324 200.075 205.898 200.262 205.044H202.642C202.482 206.018 202.035 206.784 201.302 207.344C200.542 207.931 199.615 208.224 198.522 208.224C197.242 208.224 196.168 207.758 195.302 206.824C194.408 205.851 193.962 204.604 193.962 203.084C193.962 201.524 194.408 200.271 195.302 199.324C196.155 198.418 197.228 197.964 198.522 197.964C199.868 197.964 200.915 198.438 201.662 199.384ZM198.542 199.844C197.875 199.844 197.355 200.064 196.982 200.504C196.608 200.931 196.388 201.484 196.322 202.164H200.462C200.462 201.111 200.128 200.404 199.462 200.044C199.208 199.911 198.902 199.844 198.542 199.844ZM207.847 200.144C208.434 198.744 209.314 198.044 210.487 198.044C210.714 198.044 211 198.091 211.347 198.184L211.307 200.544C210.934 200.464 210.567 200.424 210.207 200.424C208.634 200.424 207.847 201.511 207.847 203.684V207.944H205.487V198.204H207.847V200.144ZM215.127 204.984C215.154 205.904 215.827 206.364 217.147 206.364C217.654 206.364 218.067 206.258 218.387 206.044C218.721 205.818 218.887 205.558 218.887 205.264C218.887 204.971 218.787 204.744 218.587 204.584C218.387 204.424 218.074 204.278 217.647 204.144L215.527 203.384C213.954 202.838 213.167 201.944 213.167 200.704C213.167 199.878 213.534 199.218 214.267 198.724C215.014 198.218 216.007 197.964 217.247 197.964C218.501 197.964 219.461 198.238 220.127 198.784C220.807 199.331 221.161 200.018 221.187 200.844H218.967C218.941 200.524 218.787 200.271 218.507 200.084C218.227 199.898 217.827 199.804 217.307 199.804C216.787 199.804 216.381 199.911 216.087 200.124C215.807 200.324 215.667 200.558 215.667 200.824C215.667 201.291 216.061 201.638 216.847 201.864L219.147 202.724C219.907 202.978 220.487 203.304 220.887 203.704C221.301 204.091 221.507 204.598 221.507 205.224C221.507 206.024 221.127 206.718 220.367 207.304C219.581 207.918 218.541 208.224 217.247 208.224C215.954 208.224 214.914 207.944 214.127 207.384C213.341 206.811 212.941 206.011 212.927 204.984H215.127Z" fill="white"/>
</svg>
