<svg width="303" height="313" viewBox="0 0 303 313" fill="none" xmlns="http://www.w3.org/2000/svg">
<ellipse cx="151.045" cy="151.452" rx="134.667" ry="135.848" fill="#FDE54A"/>
<ellipse cx="134.667" cy="177.152" rx="134.667" ry="135.848" fill="#011149"/>
<path d="M102.088 137.36C100.168 137.36 98.5 136.976 97.084 136.208C95.668 135.416 94.588 134.36 93.844 133.04C93.1 131.72 92.728 130.28 92.728 128.72C92.728 127.448 92.98 126.248 93.484 125.12C94.012 123.968 94.6 122.948 95.248 122.06L102.088 112.52C102.112 112.496 102.184 112.412 102.304 112.268C102.4 112.124 102.532 112.016 102.7 111.944C102.868 111.848 103.06 111.8 103.276 111.8H105.184C105.4 111.8 105.568 111.884 105.688 112.052C105.832 112.196 105.904 112.376 105.904 112.592C105.904 112.76 105.856 112.916 105.76 113.06L100.504 120.404C101.032 120.236 101.716 120.152 102.556 120.152C104.284 120.176 105.808 120.572 107.128 121.34C108.472 122.108 109.504 123.14 110.224 124.436C110.968 125.732 111.34 127.148 111.34 128.684C111.34 130.22 110.968 131.66 110.224 133.004C109.504 134.324 108.436 135.38 107.02 136.172C105.628 136.964 103.984 137.36 102.088 137.36ZM102.052 134.3C103.084 134.3 104.032 134.084 104.896 133.652C105.784 133.22 106.48 132.584 106.984 131.744C107.512 130.88 107.776 129.86 107.776 128.684C107.776 127.532 107.512 126.536 106.984 125.696C106.48 124.856 105.784 124.22 104.896 123.788C104.032 123.356 103.084 123.14 102.052 123.14C101.044 123.14 100.096 123.356 99.208 123.788C98.344 124.22 97.648 124.856 97.12 125.696C96.592 126.536 96.328 127.532 96.328 128.684C96.328 129.86 96.592 130.88 97.12 131.744C97.648 132.584 98.344 133.22 99.208 133.652C100.072 134.084 101.02 134.3 102.052 134.3ZM119.639 137C119.423 137 119.243 136.928 119.099 136.784C118.979 136.616 118.919 136.424 118.919 136.208C118.919 136.04 118.967 135.884 119.063 135.74L124.571 128.072C123.995 128.216 123.347 128.288 122.627 128.288C120.923 128.264 119.411 127.868 118.091 127.1C116.795 126.332 115.799 125.312 115.103 124.04C114.407 122.768 114.059 121.412 114.059 119.972C114.059 118.532 114.395 117.164 115.067 115.868C115.763 114.548 116.795 113.48 118.163 112.664C119.531 111.848 121.187 111.44 123.131 111.44C125.075 111.44 126.731 111.836 128.099 112.628C129.491 113.42 130.535 114.464 131.231 115.76C131.927 117.056 132.275 118.436 132.275 119.9C132.275 121.196 132.047 122.348 131.591 123.356C131.135 124.34 130.499 125.42 129.683 126.596L122.735 136.28C122.567 136.496 122.399 136.676 122.231 136.82C122.087 136.94 121.871 137 121.583 137H119.639ZM123.131 125.372C124.139 125.372 125.063 125.156 125.903 124.724C126.767 124.268 127.451 123.632 127.955 122.816C128.459 121.976 128.711 121.016 128.711 119.936C128.711 118.856 128.459 117.908 127.955 117.092C127.451 116.252 126.767 115.616 125.903 115.184C125.063 114.728 124.139 114.5 123.131 114.5C122.123 114.5 121.199 114.728 120.359 115.184C119.519 115.616 118.847 116.252 118.343 117.092C117.863 117.908 117.623 118.856 117.623 119.936C117.623 121.016 117.863 121.976 118.343 122.816C118.847 123.632 119.519 124.268 120.359 124.724C121.199 125.156 122.123 125.372 123.131 125.372ZM140.979 124.436C139.419 124.436 138.183 124.028 137.271 123.212C136.383 122.372 135.891 121.22 135.795 119.756C135.771 119.348 135.759 118.82 135.759 118.172C135.759 117.476 135.771 116.912 135.795 116.48C135.867 114.992 136.335 113.816 137.199 112.952C138.087 112.064 139.347 111.62 140.979 111.62C142.611 111.62 143.859 112.064 144.723 112.952C145.611 113.816 146.091 114.992 146.163 116.48C146.211 117.44 146.235 118.052 146.235 118.316C146.235 118.556 146.211 119.036 146.163 119.756C146.091 121.22 145.599 122.372 144.687 123.212C143.775 124.028 142.539 124.436 140.979 124.436ZM137.955 137C137.739 137 137.559 136.94 137.415 136.82C137.271 136.676 137.199 136.496 137.199 136.28C137.199 136.136 137.247 136.004 137.343 135.884L155.127 112.484C155.319 112.22 155.487 112.04 155.631 111.944C155.799 111.848 156.027 111.8 156.315 111.8H157.503C157.743 111.8 157.923 111.872 158.043 112.016C158.187 112.136 158.259 112.304 158.259 112.52C158.259 112.664 158.211 112.796 158.115 112.916L140.367 136.316C140.175 136.58 139.995 136.76 139.827 136.856C139.683 136.952 139.455 137 139.143 137H137.955ZM140.979 122.204C141.843 122.204 142.467 121.952 142.851 121.448C143.259 120.944 143.499 120.332 143.571 119.612C143.619 118.748 143.643 118.244 143.643 118.1C143.643 117.884 143.619 117.392 143.571 116.624C143.523 115.88 143.283 115.256 142.851 114.752C142.443 114.248 141.819 113.996 140.979 113.996C140.139 113.996 139.515 114.248 139.107 114.752C138.699 115.256 138.471 115.88 138.423 116.624C138.399 117.008 138.387 117.5 138.387 118.1C138.387 118.676 138.399 119.18 138.423 119.612C138.495 120.356 138.723 120.98 139.107 121.484C139.515 121.964 140.139 122.204 140.979 122.204ZM154.443 137.216C152.883 137.216 151.647 136.784 150.735 135.92C149.847 135.032 149.355 133.856 149.259 132.392C149.235 131.984 149.223 131.456 149.223 130.808C149.223 130.112 149.235 129.548 149.259 129.116C149.355 127.628 149.835 126.452 150.699 125.588C151.587 124.7 152.835 124.256 154.443 124.256C156.075 124.256 157.323 124.7 158.187 125.588C159.075 126.452 159.567 127.628 159.663 129.116C159.711 129.98 159.735 130.544 159.735 130.808C159.735 131.048 159.711 131.576 159.663 132.392C159.567 133.856 159.063 135.032 158.151 135.92C157.239 136.784 156.003 137.216 154.443 137.216ZM154.443 134.84C155.307 134.84 155.931 134.588 156.315 134.084C156.723 133.58 156.963 132.968 157.035 132.248C157.083 131.384 157.107 130.88 157.107 130.736C157.107 130.52 157.083 130.028 157.035 129.26C156.987 128.516 156.759 127.892 156.351 127.388C155.943 126.884 155.307 126.632 154.443 126.632C153.603 126.632 152.979 126.884 152.571 127.388C152.163 127.892 151.935 128.516 151.887 129.26C151.863 129.644 151.851 130.136 151.851 130.736C151.851 131.312 151.863 131.816 151.887 132.248C151.959 132.968 152.187 133.58 152.571 134.084C152.979 134.588 153.603 134.84 154.443 134.84Z" fill="white"/>
<path d="M76.5434 153.964C77.1967 153.964 77.8101 154.071 78.3834 154.284C78.9567 154.484 79.4501 154.798 79.8634 155.224C80.7834 156.158 81.2434 157.451 81.2434 159.104C81.2434 160.731 80.7834 162.011 79.8634 162.944C79.0367 163.798 77.9301 164.224 76.5434 164.224C75.1567 164.224 74.0367 163.798 73.1834 162.944C72.2634 162.024 71.8034 160.744 71.8034 159.104C71.8034 157.438 72.2634 156.144 73.1834 155.224C74.0234 154.384 75.1434 153.964 76.5434 153.964ZM78.8834 159.084C78.8834 158.058 78.6834 157.291 78.2834 156.784C77.8834 156.264 77.3234 156.004 76.6034 156.004C75.8967 156.004 75.3167 156.264 74.8634 156.784C74.4101 157.291 74.1834 158.058 74.1834 159.084C74.1834 160.111 74.3834 160.884 74.7834 161.404C75.1967 161.911 75.7567 162.164 76.4634 162.164C77.1701 162.164 77.7501 161.911 78.2034 161.404C78.6567 160.884 78.8834 160.111 78.8834 159.084ZM82.9915 154.224H84.4315V153.084C84.4315 152.084 84.7249 151.318 85.3115 150.784C85.8449 150.304 86.5382 150.064 87.3915 150.064C87.9382 150.064 88.6115 150.144 89.4115 150.304L88.9515 152.124C88.5782 151.991 88.2382 151.924 87.9315 151.924C87.6382 151.924 87.3782 152.011 87.1515 152.184C86.9249 152.344 86.8115 152.651 86.8115 153.104V154.224H88.5915V155.804H86.8115V163.944H84.4315V155.804H82.9915V154.224ZM102.894 162.184C102.281 163.478 101.294 164.124 99.9343 164.124C98.2143 164.124 97.081 163.451 96.5343 162.104C96.3343 161.638 96.2343 161.071 96.2343 160.404V154.204H98.5943V160.164C98.5943 160.804 98.7477 161.284 99.0543 161.604C99.361 161.911 99.7343 162.064 100.174 162.064C100.628 162.064 101.008 162.004 101.314 161.884C101.621 161.751 101.888 161.558 102.114 161.304C102.608 160.731 102.868 159.964 102.894 159.004V154.204H105.254V163.944H102.894V162.184ZM110.293 160.984C110.32 161.904 110.993 162.364 112.313 162.364C112.82 162.364 113.233 162.258 113.553 162.044C113.887 161.818 114.053 161.558 114.053 161.264C114.053 160.971 113.953 160.744 113.753 160.584C113.553 160.424 113.24 160.278 112.813 160.144L110.693 159.384C109.12 158.838 108.333 157.944 108.333 156.704C108.333 155.878 108.7 155.218 109.433 154.724C110.18 154.218 111.173 153.964 112.413 153.964C113.667 153.964 114.627 154.238 115.293 154.784C115.973 155.331 116.327 156.018 116.353 156.844H114.133C114.107 156.524 113.953 156.271 113.673 156.084C113.393 155.898 112.993 155.804 112.473 155.804C111.953 155.804 111.547 155.911 111.253 156.124C110.973 156.324 110.833 156.558 110.833 156.824C110.833 157.291 111.227 157.638 112.013 157.864L114.313 158.724C115.073 158.978 115.653 159.304 116.053 159.704C116.467 160.091 116.673 160.598 116.673 161.224C116.673 162.024 116.293 162.718 115.533 163.304C114.747 163.918 113.707 164.224 112.413 164.224C111.12 164.224 110.08 163.944 109.293 163.384C108.507 162.811 108.107 162.011 108.093 160.984H110.293ZM126.3 155.384C126.634 155.811 126.88 156.304 127.04 156.864C127.214 157.424 127.3 157.938 127.3 158.404C127.3 158.871 127.274 159.291 127.22 159.664H120.94C120.967 160.451 121.16 161.091 121.52 161.584C121.88 162.078 122.427 162.324 123.16 162.324C124.134 162.324 124.714 161.898 124.9 161.044H127.28C127.12 162.018 126.674 162.784 125.94 163.344C125.18 163.931 124.254 164.224 123.16 164.224C121.88 164.224 120.807 163.758 119.94 162.824C119.047 161.851 118.6 160.604 118.6 159.084C118.6 157.524 119.047 156.271 119.94 155.324C120.794 154.418 121.867 153.964 123.16 153.964C124.507 153.964 125.554 154.438 126.3 155.384ZM123.18 155.844C122.514 155.844 121.994 156.064 121.62 156.504C121.247 156.931 121.027 157.484 120.96 158.164H125.1C125.1 157.111 124.767 156.404 124.1 156.044C123.847 155.911 123.54 155.844 123.18 155.844ZM132.486 156.144C133.072 154.744 133.952 154.044 135.126 154.044C135.352 154.044 135.639 154.091 135.986 154.184L135.946 156.544C135.572 156.464 135.206 156.424 134.846 156.424C133.272 156.424 132.486 157.511 132.486 159.684V163.944H130.126V154.204H132.486V156.144ZM139.766 160.984C139.793 161.904 140.466 162.364 141.786 162.364C142.293 162.364 142.706 162.258 143.026 162.044C143.359 161.818 143.526 161.558 143.526 161.264C143.526 160.971 143.426 160.744 143.226 160.584C143.026 160.424 142.713 160.278 142.286 160.144L140.166 159.384C138.593 158.838 137.806 157.944 137.806 156.704C137.806 155.878 138.173 155.218 138.906 154.724C139.653 154.218 140.646 153.964 141.886 153.964C143.139 153.964 144.099 154.238 144.766 154.784C145.446 155.331 145.799 156.018 145.826 156.844H143.606C143.579 156.524 143.426 156.271 143.146 156.084C142.866 155.898 142.466 155.804 141.946 155.804C141.426 155.804 141.019 155.911 140.726 156.124C140.446 156.324 140.306 156.558 140.306 156.824C140.306 157.291 140.699 157.638 141.486 157.864L143.786 158.724C144.546 158.978 145.126 159.304 145.526 159.704C145.939 160.091 146.146 160.598 146.146 161.224C146.146 162.024 145.766 162.718 145.006 163.304C144.219 163.918 143.179 164.224 141.886 164.224C140.593 164.224 139.553 163.944 138.766 163.384C137.979 162.811 137.579 162.011 137.566 160.984H139.766ZM154.912 154.224L156.872 161.164L158.732 154.764H160.872L162.732 161.184L164.712 154.224H167.072L163.872 163.944H161.552L159.752 158.124L157.992 163.944H155.652L152.432 154.224H154.912ZM172.408 158.264C173.181 158.264 174.074 158.391 175.088 158.644V157.684C175.088 157.004 174.948 156.504 174.668 156.184C174.401 155.851 173.954 155.684 173.328 155.684C172.714 155.684 172.241 155.811 171.908 156.064C171.574 156.304 171.408 156.651 171.408 157.104H168.828C168.828 155.998 169.214 155.198 169.988 154.704C170.774 154.211 171.868 153.964 173.268 153.964C175.268 153.964 176.561 154.664 177.148 156.064C177.348 156.544 177.448 157.111 177.448 157.764V163.944H175.388L175.208 162.644C174.581 163.698 173.621 164.224 172.328 164.224C171.074 164.224 170.101 163.918 169.408 163.304C168.768 162.718 168.448 161.978 168.448 161.084C168.448 160.178 168.801 159.484 169.508 159.004C170.214 158.511 171.181 158.264 172.408 158.264ZM175.088 160.144C174.301 159.931 173.568 159.824 172.888 159.824C171.608 159.824 170.968 160.251 170.968 161.104C170.968 161.464 171.114 161.778 171.408 162.044C171.701 162.298 172.168 162.424 172.808 162.424C173.461 162.424 173.994 162.211 174.408 161.784C174.834 161.344 175.061 160.798 175.088 160.144ZM183.207 155.904C183.847 154.611 184.874 153.964 186.287 153.964C187.487 153.964 188.387 154.358 188.987 155.144C189.601 155.931 189.907 156.971 189.907 158.264V163.944H187.547V158.264C187.547 157.544 187.374 157.004 187.027 156.644C186.681 156.271 186.194 156.084 185.567 156.084C184.941 156.084 184.401 156.364 183.947 156.924C183.507 157.484 183.274 158.324 183.247 159.444V163.944H180.887V154.224H182.947L183.207 155.904ZM198.828 163.704C197.948 164.051 197.255 164.224 196.748 164.224C196.242 164.224 195.795 164.164 195.408 164.044C195.035 163.924 194.702 163.744 194.408 163.504C193.795 162.958 193.488 162.204 193.488 161.244V155.804H192.128V154.224H193.488V151.664H195.848V154.224H198.488V155.804H195.848V161.164C195.848 161.964 196.228 162.364 196.988 162.364C197.375 162.364 197.875 162.258 198.488 162.044L198.828 163.704ZM52.852 176.964C53.5053 176.964 54.1187 177.071 54.692 177.284C55.2653 177.484 55.7587 177.798 56.172 178.224C57.092 179.158 57.552 180.451 57.552 182.104C57.552 183.731 57.092 185.011 56.172 185.944C55.3453 186.798 54.2387 187.224 52.852 187.224C51.4653 187.224 50.3453 186.798 49.492 185.944C48.572 185.024 48.112 183.744 48.112 182.104C48.112 180.438 48.572 179.144 49.492 178.224C50.332 177.384 51.452 176.964 52.852 176.964ZM55.192 182.084C55.192 181.058 54.992 180.291 54.592 179.784C54.192 179.264 53.632 179.004 52.912 179.004C52.2053 179.004 51.6253 179.264 51.172 179.784C50.7187 180.291 50.492 181.058 50.492 182.084C50.492 183.111 50.692 183.884 51.092 184.404C51.5053 184.911 52.0653 185.164 52.772 185.164C53.4787 185.164 54.0587 184.911 54.512 184.404C54.9653 183.884 55.192 183.111 55.192 182.084ZM62.5201 178.544C63.1335 177.491 64.0668 176.964 65.3201 176.964C66.5201 176.964 67.5468 177.418 68.4001 178.324C69.3068 179.284 69.7601 180.538 69.7601 182.084C69.7601 183.644 69.3001 184.904 68.3801 185.864C67.5268 186.771 66.5068 187.224 65.3201 187.224C64.1335 187.224 63.2668 186.871 62.7201 186.164V191.684H60.3601V177.224H62.3001L62.5201 178.544ZM64.9001 185.084C65.1801 185.084 65.4668 185.024 65.7601 184.904C66.0668 184.784 66.3401 184.598 66.5801 184.344C67.1135 183.784 67.3801 183.038 67.3801 182.104C67.3801 181.158 67.1468 180.418 66.6801 179.884C66.2268 179.351 65.6668 179.084 65.0001 179.084C64.3468 179.084 63.8068 179.278 63.3801 179.664C62.9668 180.038 62.7468 180.578 62.7201 181.284V183.024C62.7201 183.651 62.9401 184.158 63.3801 184.544C63.7935 184.904 64.3001 185.084 64.9001 185.084ZM78.0472 186.704C77.1672 187.051 76.4738 187.224 75.9672 187.224C75.4605 187.224 75.0138 187.164 74.6272 187.044C74.2538 186.924 73.9205 186.744 73.6272 186.504C73.0138 185.958 72.7072 185.204 72.7072 184.244V178.804H71.3472V177.224H72.7072V174.664H75.0672V177.224H77.7072V178.804H75.0672V184.164C75.0672 184.964 75.4472 185.364 76.2072 185.364C76.5938 185.364 77.0938 185.258 77.7072 185.044L78.0472 186.704ZM80.6578 177.204H83.0178V186.944H80.6578V177.204ZM80.3778 174.084C80.3778 173.658 80.5045 173.324 80.7578 173.084C81.0111 172.831 81.3711 172.704 81.8378 172.704C82.2911 172.704 82.6445 172.831 82.8978 173.084C83.1645 173.324 83.2978 173.658 83.2978 174.084C83.2978 174.511 83.1645 174.851 82.8978 175.104C82.6445 175.344 82.2911 175.464 81.8378 175.464C81.3711 175.464 81.0111 175.344 80.7578 175.104C80.5045 174.851 80.3778 174.511 80.3778 174.084ZM90.8403 176.964C91.4936 176.964 92.107 177.071 92.6803 177.284C93.2536 177.484 93.747 177.798 94.1603 178.224C95.0803 179.158 95.5403 180.451 95.5403 182.104C95.5403 183.731 95.0803 185.011 94.1603 185.944C93.3336 186.798 92.227 187.224 90.8403 187.224C89.4536 187.224 88.3336 186.798 87.4803 185.944C86.5603 185.024 86.1003 183.744 86.1003 182.104C86.1003 180.438 86.5603 179.144 87.4803 178.224C88.3203 177.384 89.4403 176.964 90.8403 176.964ZM93.1803 182.084C93.1803 181.058 92.9803 180.291 92.5803 179.784C92.1803 179.264 91.6203 179.004 90.9003 179.004C90.1936 179.004 89.6136 179.264 89.1603 179.784C88.707 180.291 88.4803 181.058 88.4803 182.084C88.4803 183.111 88.6803 183.884 89.0803 184.404C89.4936 184.911 90.0536 185.164 90.7603 185.164C91.467 185.164 92.047 184.911 92.5003 184.404C92.9536 183.884 93.1803 183.111 93.1803 182.084ZM100.668 178.904C101.308 177.611 102.335 176.964 103.748 176.964C104.948 176.964 105.848 177.358 106.448 178.144C107.062 178.931 107.368 179.971 107.368 181.264V186.944H105.008V181.264C105.008 180.544 104.835 180.004 104.488 179.644C104.142 179.271 103.655 179.084 103.028 179.084C102.402 179.084 101.862 179.364 101.408 179.924C100.968 180.484 100.735 181.324 100.708 182.444V186.944H98.3484V177.224H100.408L100.668 178.904ZM112.129 183.984C112.156 184.904 112.829 185.364 114.149 185.364C114.656 185.364 115.069 185.258 115.389 185.044C115.723 184.818 115.889 184.558 115.889 184.264C115.889 183.971 115.789 183.744 115.589 183.584C115.389 183.424 115.076 183.278 114.649 183.144L112.529 182.384C110.956 181.838 110.169 180.944 110.169 179.704C110.169 178.878 110.536 178.218 111.269 177.724C112.016 177.218 113.009 176.964 114.249 176.964C115.503 176.964 116.463 177.238 117.129 177.784C117.809 178.331 118.163 179.018 118.189 179.844H115.969C115.943 179.524 115.789 179.271 115.509 179.084C115.229 178.898 114.829 178.804 114.309 178.804C113.789 178.804 113.383 178.911 113.089 179.124C112.809 179.324 112.669 179.558 112.669 179.824C112.669 180.291 113.063 180.638 113.849 180.864L116.149 181.724C116.909 181.978 117.489 182.304 117.889 182.704C118.303 183.091 118.509 183.598 118.509 184.224C118.509 185.024 118.129 185.718 117.369 186.304C116.583 186.918 115.543 187.224 114.249 187.224C112.956 187.224 111.916 186.944 111.129 186.384C110.343 185.811 109.943 185.011 109.929 183.984H112.129ZM125.355 177.224H126.795V176.084C126.795 175.084 127.088 174.318 127.675 173.784C128.208 173.304 128.901 173.064 129.755 173.064C130.301 173.064 130.975 173.144 131.775 173.304L131.315 175.124C130.941 174.991 130.601 174.924 130.295 174.924C130.001 174.924 129.741 175.011 129.515 175.184C129.288 175.344 129.175 175.651 129.175 176.104V177.224H130.955V178.804H129.175V186.944H126.795V178.804H125.355V177.224ZM137.559 176.964C138.212 176.964 138.826 177.071 139.399 177.284C139.972 177.484 140.466 177.798 140.879 178.224C141.799 179.158 142.259 180.451 142.259 182.104C142.259 183.731 141.799 185.011 140.879 185.944C140.052 186.798 138.946 187.224 137.559 187.224C136.172 187.224 135.052 186.798 134.199 185.944C133.279 185.024 132.819 183.744 132.819 182.104C132.819 180.438 133.279 179.144 134.199 178.224C135.039 177.384 136.159 176.964 137.559 176.964ZM139.899 182.084C139.899 181.058 139.699 180.291 139.299 179.784C138.899 179.264 138.339 179.004 137.619 179.004C136.912 179.004 136.332 179.264 135.879 179.784C135.426 180.291 135.199 181.058 135.199 182.084C135.199 183.111 135.399 183.884 135.799 184.404C136.212 184.911 136.772 185.164 137.479 185.164C138.186 185.164 138.766 184.911 139.219 184.404C139.672 183.884 139.899 183.111 139.899 182.084ZM147.427 179.144C148.014 177.744 148.894 177.044 150.067 177.044C150.294 177.044 150.58 177.091 150.927 177.184L150.887 179.544C150.514 179.464 150.147 179.424 149.787 179.424C148.214 179.424 147.427 180.511 147.427 182.684V186.944H145.067V177.204H147.427V179.144ZM157.386 177.224H158.826V176.084C158.826 175.084 159.119 174.318 159.706 173.784C160.239 173.304 160.933 173.064 161.786 173.064C162.333 173.064 163.006 173.144 163.806 173.304L163.346 175.124C162.973 174.991 162.633 174.924 162.326 174.924C162.033 174.924 161.773 175.011 161.546 175.184C161.319 175.344 161.206 175.651 161.206 176.104V177.224H162.986V178.804H161.206V186.944H158.826V178.804H157.386V177.224ZM169.59 176.964C170.244 176.964 170.857 177.071 171.43 177.284C172.004 177.484 172.497 177.798 172.91 178.224C173.83 179.158 174.29 180.451 174.29 182.104C174.29 183.731 173.83 185.011 172.91 185.944C172.084 186.798 170.977 187.224 169.59 187.224C168.204 187.224 167.084 186.798 166.23 185.944C165.31 185.024 164.85 183.744 164.85 182.104C164.85 180.438 165.31 179.144 166.23 178.224C167.07 177.384 168.19 176.964 169.59 176.964ZM171.93 182.084C171.93 181.058 171.73 180.291 171.33 179.784C170.93 179.264 170.37 179.004 169.65 179.004C168.944 179.004 168.364 179.264 167.91 179.784C167.457 180.291 167.23 181.058 167.23 182.084C167.23 183.111 167.43 183.884 167.83 184.404C168.244 184.911 168.804 185.164 169.51 185.164C170.217 185.164 170.797 184.911 171.25 184.404C171.704 183.884 171.93 183.111 171.93 182.084ZM177.098 173.224H179.458V186.944H177.098V173.224ZM189.513 185.444C188.913 186.631 187.993 187.224 186.753 187.224C185.513 187.224 184.473 186.751 183.633 185.804C182.766 184.818 182.333 183.564 182.333 182.044C182.333 180.524 182.746 179.291 183.573 178.344C184.386 177.424 185.399 176.964 186.613 176.964C187.826 176.964 188.739 177.451 189.353 178.424V173.224H191.733V186.944H189.793L189.513 185.444ZM187.053 179.084C186.386 179.084 185.826 179.358 185.373 179.904C184.933 180.438 184.713 181.158 184.713 182.064C184.713 182.971 184.939 183.704 185.393 184.264C185.846 184.811 186.419 185.084 187.113 185.084C187.686 185.084 188.199 184.858 188.653 184.404C189.119 183.938 189.353 183.351 189.353 182.644V181.384C189.326 180.691 189.093 180.124 188.653 179.684C188.253 179.284 187.719 179.084 187.053 179.084ZM202.238 178.384C202.571 178.811 202.818 179.304 202.978 179.864C203.151 180.424 203.238 180.938 203.238 181.404C203.238 181.871 203.211 182.291 203.158 182.664H196.878C196.904 183.451 197.098 184.091 197.458 184.584C197.818 185.078 198.364 185.324 199.098 185.324C200.071 185.324 200.651 184.898 200.838 184.044H203.218C203.058 185.018 202.611 185.784 201.878 186.344C201.118 186.931 200.191 187.224 199.098 187.224C197.818 187.224 196.744 186.758 195.878 185.824C194.984 184.851 194.538 183.604 194.538 182.084C194.538 180.524 194.984 179.271 195.878 178.324C196.731 177.418 197.804 176.964 199.098 176.964C200.444 176.964 201.491 177.438 202.238 178.384ZM199.118 178.844C198.451 178.844 197.931 179.064 197.558 179.504C197.184 179.931 196.964 180.484 196.898 181.164H201.038C201.038 180.111 200.704 179.404 200.038 179.044C199.784 178.911 199.478 178.844 199.118 178.844ZM208.423 179.144C209.01 177.744 209.89 177.044 211.063 177.044C211.29 177.044 211.577 177.091 211.923 177.184L211.883 179.544C211.51 179.464 211.143 179.424 210.783 179.424C209.21 179.424 208.423 180.511 208.423 182.684V186.944H206.063V177.204H208.423V179.144ZM215.704 183.984C215.73 184.904 216.404 185.364 217.724 185.364C218.23 185.364 218.644 185.258 218.964 185.044C219.297 184.818 219.464 184.558 219.464 184.264C219.464 183.971 219.364 183.744 219.164 183.584C218.964 183.424 218.65 183.278 218.224 183.144L216.104 182.384C214.53 181.838 213.744 180.944 213.744 179.704C213.744 178.878 214.11 178.218 214.844 177.724C215.59 177.218 216.584 176.964 217.824 176.964C219.077 176.964 220.037 177.238 220.704 177.784C221.384 178.331 221.737 179.018 221.764 179.844H219.544C219.517 179.524 219.364 179.271 219.084 179.084C218.804 178.898 218.404 178.804 217.884 178.804C217.364 178.804 216.957 178.911 216.664 179.124C216.384 179.324 216.244 179.558 216.244 179.824C216.244 180.291 216.637 180.638 217.424 180.864L219.724 181.724C220.484 181.978 221.064 182.304 221.464 182.704C221.877 183.091 222.084 183.598 222.084 184.224C222.084 185.024 221.704 185.718 220.944 186.304C220.157 186.918 219.117 187.224 217.824 187.224C216.53 187.224 215.49 186.944 214.704 186.384C213.917 185.811 213.517 185.011 213.504 183.984H215.704Z" fill="white"/>
</svg>
