<svg width="369" height="340" viewBox="0 0 369 340" fill="none" xmlns="http://www.w3.org/2000/svg">
<path d="M110.393 139.745C111.879 140.153 112.331 141.899 111.207 142.887L100.457 152.34C99.3326 153.329 97.4751 152.819 97.1133 151.423L93.6536 138.069C93.2918 136.672 94.697 135.437 96.183 135.845L110.393 139.745Z" fill="#FB9F99"/>
<g opacity="0.71">
<path fill-rule="evenodd" clip-rule="evenodd" d="M27.5624 152.482C27.5624 153.812 26.9932 155.087 25.98 156.028L14.0136 167.133C11.9038 169.091 11.9038 172.266 14.0136 174.224L25.98 185.329C26.9932 186.27 27.5624 187.545 27.5624 188.875V204.629C27.5624 207.398 29.9811 209.642 32.9649 209.642H49.9402C51.373 209.642 52.7472 210.171 53.7603 211.111L65.8007 222.285C67.9105 224.243 71.3312 224.243 73.441 222.285L85.4813 211.111C86.4945 210.171 87.8686 209.642 89.3015 209.642H106.203C109.187 209.642 111.605 207.398 111.605 204.629V188.943C111.605 187.613 112.175 186.338 113.188 185.398L125.228 174.224C127.338 172.266 127.338 169.091 125.228 167.133L113.188 155.959C112.175 155.019 111.605 153.743 111.605 152.414V136.66C111.605 133.891 109.187 131.646 106.203 131.646H89.2275C87.7947 131.646 86.4205 131.118 85.4074 130.177L73.441 119.072C71.3312 117.114 67.9105 117.114 65.8007 119.072L53.8343 130.177C52.8211 131.118 51.447 131.646 50.0142 131.646H32.9649C29.9811 131.646 27.5624 133.891 27.5624 136.66V152.482Z" fill="#011149"/>
<path fill-rule="evenodd" clip-rule="evenodd" d="M42.0704 143.259L21.7575 150.308L29.3522 169.159L20.3399 187.512L40.1155 195.876L47.7425 214.808L68.1419 207.729L87.858 216.068L96.8432 197.771L117.243 190.692L109.616 171.76L118.628 153.408L98.8522 145.044L91.2575 126.192L70.9447 133.24L51.1097 124.851L42.0704 143.259ZM42.0704 143.259L29.3522 169.159L40.1155 195.876L68.1419 207.729L96.8432 197.771L109.616 171.76L98.8522 145.044L70.9447 133.24L42.0704 143.259Z" fill="#011149"/>
<path fill-rule="evenodd" clip-rule="evenodd" d="M35.4282 155.118C35.4282 156.448 34.859 157.723 33.8458 158.664L24.8131 167.046C22.7033 169.004 22.7033 172.179 24.8131 174.137L33.8458 182.52C34.859 183.46 35.4282 184.736 35.4282 186.065V198.935C35.4282 201.704 37.8469 203.949 40.8307 203.949H54.6984C56.1313 203.949 57.5054 204.477 58.5186 205.418L65.7788 212.156C67.8886 214.114 71.3093 214.114 73.4191 212.156L80.6793 205.418C81.6924 204.477 83.0666 203.949 84.4994 203.949H98.7649C101.749 203.949 104.167 201.704 104.167 198.935V185.696C104.167 184.366 104.737 183.091 105.75 182.151L114.385 174.137C116.495 172.179 116.495 169.004 114.385 167.046L105.75 159.033C104.737 158.092 104.167 156.817 104.167 155.487V145.169C104.167 142.4 101.749 140.155 98.7649 140.155H87.6467C86.2139 140.155 84.8398 139.627 83.8266 138.687L73.4191 129.028C71.3093 127.07 67.8886 127.07 65.7788 129.028L55.3712 138.687C54.3581 139.627 52.9839 140.155 51.5511 140.155H40.8307C37.8469 140.155 35.4282 142.4 35.4282 145.169V155.118Z" fill="#FDE54A"/>
<path d="M75.0946 170.678C75.0946 173.447 72.6758 175.692 69.6921 175.692C66.7084 175.692 64.2896 173.447 64.2896 170.678C64.2896 167.909 66.7084 165.664 69.6921 165.664C72.6758 165.664 75.0946 167.909 75.0946 170.678Z" fill="white"/>
<path d="M72.3933 170.678C72.3933 172.063 71.184 173.185 69.6921 173.185C68.2002 173.185 66.9908 172.063 66.9908 170.678C66.9908 169.294 68.2002 168.171 69.6921 168.171C71.184 168.171 72.3933 169.294 72.3933 170.678Z" fill="#011149"/>
<path fill-rule="evenodd" clip-rule="evenodd" d="M67.0244 164.639C68.4371 165.864 70.6217 165.864 72.0343 164.639C74.7145 162.315 76.3899 159.006 76.3899 155.333C76.3899 151.66 74.7145 148.351 72.0343 146.027C70.6217 144.802 68.4371 144.802 67.0244 146.027C64.3442 148.351 62.6688 151.66 62.6688 155.333C62.6688 159.006 64.3442 162.315 67.0244 164.639Z" fill="#FB9F99"/>
<path fill-rule="evenodd" clip-rule="evenodd" d="M96.1402 172.852C97.4601 171.541 97.4601 169.514 96.1402 168.203C93.636 165.715 90.0698 164.16 86.1124 164.16C82.1549 164.16 78.5888 165.715 76.0846 168.203C74.7646 169.514 74.7646 171.541 76.0846 172.852C78.5888 175.339 82.1549 176.894 86.1124 176.894C90.0698 176.894 93.636 175.339 96.1402 172.852Z" fill="#FB9F99"/>
<path fill-rule="evenodd" clip-rule="evenodd" d="M63.185 172.852C64.5049 171.541 64.5049 169.514 63.185 168.203C60.6808 165.715 57.1146 164.16 53.1572 164.16C49.1997 164.16 45.6336 165.715 43.1294 168.203C41.8094 169.514 41.8094 171.541 43.1294 172.852C45.6336 175.339 49.1997 176.894 53.1572 176.894C57.1146 176.894 60.6808 175.339 63.185 172.852Z" fill="#FB9F99"/>
<path fill-rule="evenodd" clip-rule="evenodd" d="M67.0244 195.224C68.4371 196.449 70.6217 196.449 72.0343 195.224C74.7145 192.9 76.3899 189.59 76.3899 185.917C76.3899 182.244 74.7145 178.935 72.0343 176.611C70.6217 175.386 68.4371 175.386 67.0244 176.611C64.3442 178.935 62.6688 182.244 62.6688 185.917C62.6688 189.59 64.3442 192.9 67.0244 195.224Z" fill="#FB9F99"/>
<path d="M60.1301 156.403C60.7384 155.876 61.7327 156.158 61.9198 156.91L63.709 164.103C63.8961 164.855 63.1357 165.513 62.3403 165.287L54.7341 163.129C53.9387 162.903 53.7048 161.963 54.3131 161.437L60.1301 156.403Z" fill="#011149"/>
<path d="M84.7682 178.285C85.5657 178.504 85.8084 179.442 85.2051 179.973L79.4356 185.055C78.8322 185.586 77.8354 185.312 77.6412 184.561L75.7844 177.384C75.5902 176.633 76.3444 175.969 77.1419 176.188L84.7682 178.285Z" fill="#011149"/>
<path d="M84.8572 161.861C85.435 162.417 85.1484 163.344 84.3414 163.531L76.6238 165.317C75.8168 165.503 75.0945 164.809 75.3238 164.067L77.5162 156.972C77.7454 156.23 78.7543 155.996 79.3321 156.552L84.8572 161.861Z" fill="#011149"/>
<path d="M61.6112 184.811C61.4241 185.563 60.4299 185.845 59.8215 185.318L54.0045 180.284C53.3962 179.758 53.6301 178.818 54.4255 178.592L62.0317 176.434C62.8272 176.208 63.5876 176.866 63.4004 177.618L61.6112 184.811Z" fill="#011149"/>
</g>
<g opacity="0.71">
<path fill-rule="evenodd" clip-rule="evenodd" d="M27.5624 46.4823C27.5624 47.8121 26.9932 49.0874 25.98 50.0276L14.0136 61.1331C11.9038 63.0912 11.9038 66.2657 14.0136 68.2238L25.98 79.3292C26.9932 80.2695 27.5624 81.5448 27.5624 82.8746V98.6287C27.5624 101.398 29.9811 103.642 32.9649 103.642H49.9402C51.373 103.642 52.7472 104.171 53.7603 105.111L65.8007 116.285C67.9105 118.243 71.3312 118.243 73.441 116.285L85.4813 105.111C86.4945 104.171 87.8686 103.642 89.3015 103.642H106.203C109.187 103.642 111.605 101.398 111.605 98.6287V82.9432C111.605 81.6135 112.175 80.3382 113.188 79.3979L125.228 68.2238C127.338 66.2657 127.338 63.0912 125.228 61.1331L113.188 49.959C112.175 49.0187 111.605 47.7434 111.605 46.4137V30.6596C111.605 27.8905 109.187 25.6458 106.203 25.6458H89.2275C87.7947 25.6458 86.4205 25.1175 85.4074 24.1773L73.441 13.0718C71.3312 11.1137 67.9105 11.1137 65.8007 13.0718L53.8343 24.1773C52.8211 25.1175 51.447 25.6458 50.0142 25.6458H32.9649C29.9811 25.6458 27.5624 27.8905 27.5624 30.6596V46.4823Z" fill="#011149"/>
<path fill-rule="evenodd" clip-rule="evenodd" d="M42.0704 37.2595L21.7575 44.3078L29.3522 63.1593L20.3399 81.5121L40.1155 89.876L47.7425 108.808L68.1419 101.729L87.858 110.068L96.8432 91.7705L117.243 84.6922L109.616 65.7605L118.628 47.4076L98.8522 39.0437L91.2575 20.1922L70.9447 27.2405L51.1097 18.8515L42.0704 37.2595ZM42.0704 37.2595L29.3522 63.1593L40.1155 89.876L68.1419 101.729L96.8432 91.7705L109.616 65.7605L98.8522 39.0437L70.9447 27.2405L42.0704 37.2595Z" fill="#011149"/>
<path fill-rule="evenodd" clip-rule="evenodd" d="M35.4282 49.1182C35.4282 50.448 34.859 51.7233 33.8458 52.6635L24.8131 61.0464C22.7033 63.0045 22.7033 66.179 24.8131 68.1371L33.8458 76.52C34.859 77.4602 35.4282 78.7355 35.4282 80.0653V92.9354C35.4282 95.7044 37.8469 97.9492 40.8307 97.9492H54.6984C56.1313 97.9492 57.5054 98.4774 58.5186 99.4177L65.7788 106.156C67.8886 108.114 71.3093 108.114 73.4191 106.156L80.6793 99.4177C81.6924 98.4774 83.0666 97.9492 84.4994 97.9492H98.7649C101.749 97.9492 104.167 95.7044 104.167 92.9354V79.6961C104.167 78.3664 104.737 77.0911 105.75 76.1508L114.385 68.1371C116.495 66.179 116.495 63.0045 114.385 61.0465L105.75 53.0327C104.737 52.0924 104.167 50.8171 104.167 49.4874V39.169C104.167 36.4 101.749 34.1552 98.7649 34.1552H87.6467C86.2139 34.1552 84.8398 33.627 83.8266 32.6867L73.4191 23.0279C71.3093 21.0699 67.8886 21.0699 65.7788 23.0279L55.3712 32.6867C54.3581 33.627 52.9839 34.1552 51.5511 34.1552H40.8307C37.8469 34.1552 35.4282 36.4 35.4282 39.169V49.1182Z" fill="#FDE54A"/>
<path d="M75.0946 64.6782C75.0946 67.4473 72.6758 69.6921 69.6921 69.6921C66.7084 69.6921 64.2896 67.4473 64.2896 64.6782C64.2896 61.9092 66.7084 59.6644 69.6921 59.6644C72.6758 59.6644 75.0946 61.9092 75.0946 64.6782Z" fill="white"/>
<path d="M72.3933 64.6783C72.3933 66.0628 71.184 67.1852 69.6921 67.1852C68.2002 67.1852 66.9908 66.0628 66.9908 64.6783C66.9908 63.2938 68.2002 62.1714 69.6921 62.1714C71.184 62.1714 72.3933 63.2938 72.3933 64.6783Z" fill="#011149"/>
<path fill-rule="evenodd" clip-rule="evenodd" d="M67.0244 58.6393C68.4371 59.8643 70.6217 59.8643 72.0343 58.6393C74.7145 56.3152 76.3899 53.0057 76.3899 49.3329C76.3899 45.6602 74.7145 42.3506 72.0343 40.0265C70.6217 38.8015 68.4371 38.8015 67.0244 40.0265C64.3442 42.3506 62.6688 45.6602 62.6688 49.3329C62.6688 53.0057 64.3442 56.3152 67.0244 58.6393Z" fill="#FB9F99"/>
<path fill-rule="evenodd" clip-rule="evenodd" d="M96.1402 66.852C97.4601 65.541 97.4601 63.5136 96.1402 62.2025C93.636 59.7151 90.0698 58.1603 86.1124 58.1603C82.1549 58.1603 78.5888 59.7151 76.0846 62.2025C74.7646 63.5136 74.7646 65.541 76.0846 66.852C78.5888 69.3394 82.1549 70.8943 86.1124 70.8943C90.0698 70.8943 93.636 69.3394 96.1402 66.852Z" fill="#FB9F99"/>
<path fill-rule="evenodd" clip-rule="evenodd" d="M63.185 66.852C64.5049 65.541 64.5049 63.5136 63.185 62.2025C60.6808 59.7151 57.1146 58.1603 53.1572 58.1603C49.1997 58.1603 45.6336 59.7151 43.1294 62.2025C41.8094 63.5136 41.8094 65.541 43.1294 66.852C45.6336 69.3394 49.1997 70.8943 53.1572 70.8943C57.1146 70.8943 60.6808 69.3394 63.185 66.852Z" fill="#FB9F99"/>
<path fill-rule="evenodd" clip-rule="evenodd" d="M67.0244 89.2236C68.4371 90.4486 70.6217 90.4486 72.0343 89.2236C74.7145 86.8995 76.3899 83.59 76.3899 79.9172C76.3899 76.2445 74.7145 72.9349 72.0343 70.6108C70.6217 69.3858 68.4371 69.3858 67.0244 70.6108C64.3442 72.9349 62.6688 76.2445 62.6688 79.9172C62.6688 83.59 64.3442 86.8995 67.0244 89.2236Z" fill="#FB9F99"/>
<path d="M60.1301 50.4026C60.7384 49.8762 61.7327 50.1583 61.9198 50.9104L63.709 58.1028C63.8961 58.855 63.1357 59.513 62.3403 59.2873L54.7341 57.1292C53.9387 56.9035 53.7048 55.9633 54.3131 55.4368L60.1301 50.4026Z" fill="#011149"/>
<path d="M84.7682 72.2846C85.5657 72.5038 85.8084 73.4421 85.2051 73.9735L79.4356 79.0546C78.8322 79.5859 77.8354 79.3119 77.6412 78.5613L75.7844 71.3837C75.5902 70.6331 76.3444 69.9689 77.1419 70.1881L84.7682 72.2846Z" fill="#011149"/>
<path d="M84.8572 55.8614C85.435 56.4167 85.1484 57.3442 84.3414 57.531L76.6238 59.3167C75.8168 59.5035 75.0945 58.8094 75.3238 58.0673L77.5162 50.9717C77.7454 50.2297 78.7543 49.9963 79.3321 50.5515L84.8572 55.8614Z" fill="#011149"/>
<path d="M61.6112 78.8106C61.4241 79.5628 60.4299 79.8449 59.8215 79.3184L54.0045 74.2842C53.3962 73.7578 53.6301 72.8176 54.4255 72.5919L62.0317 70.4338C62.8272 70.2081 63.5876 70.8661 63.4004 71.6183L61.6112 78.8106Z" fill="#011149"/>
</g>
<g opacity="0.71">
<path fill-rule="evenodd" clip-rule="evenodd" d="M27.5624 258.122C27.5624 259.441 26.9932 260.707 25.98 261.64L14.0136 272.659C11.9038 274.602 11.9038 277.752 14.0136 279.695L25.98 290.714C26.9932 291.647 27.5624 292.913 27.5624 294.232V309.864C27.5624 312.612 29.9811 314.839 32.9649 314.839H49.9402C51.373 314.839 52.7472 315.363 53.7603 316.296L65.8007 327.384C67.9105 329.327 71.3312 329.327 73.441 327.384L85.4813 316.296C86.4945 315.363 87.8686 314.839 89.3015 314.839H106.203C109.187 314.839 111.605 312.612 111.605 309.864V294.3C111.605 292.981 112.175 291.715 113.188 290.782L125.228 279.695C127.338 277.752 127.338 274.602 125.228 272.659L113.188 261.572C112.175 260.639 111.605 259.373 111.605 258.054V242.422C111.605 239.674 109.187 237.447 106.203 237.447H89.2275C87.7947 237.447 86.4205 236.923 85.4074 235.99L73.441 224.97C71.3312 223.028 67.9105 223.028 65.8007 224.97L53.8343 235.99C52.8211 236.923 51.447 237.447 50.0142 237.447H32.9649C29.9811 237.447 27.5624 239.674 27.5624 242.422V258.122Z" fill="#011149"/>
<path fill-rule="evenodd" clip-rule="evenodd" d="M42.0704 248.971L21.7575 255.964L29.3522 274.67L20.3399 292.88L40.1155 301.179L47.7425 319.964L68.1419 312.941L87.858 321.215L96.8432 303.059L117.243 296.036L109.616 277.251L118.628 259.04L98.8522 250.741L91.2575 232.036L70.9447 239.029L51.1097 230.705L42.0704 248.971ZM42.0704 248.971L29.3522 274.67L40.1155 301.179L68.1419 312.941L96.8432 303.059L109.616 277.251L98.8522 250.741L70.9447 239.029L42.0704 248.971Z" fill="#011149"/>
<path fill-rule="evenodd" clip-rule="evenodd" d="M35.4282 260.737C35.4282 262.057 34.859 263.322 33.8458 264.255L24.8131 272.573C22.7033 274.516 22.7033 277.666 24.8131 279.609L33.8458 287.927C34.859 288.86 35.4282 290.125 35.4282 291.445V304.215C35.4282 306.963 37.8469 309.19 40.8307 309.19H54.6984C56.1313 309.19 57.5054 309.714 58.5186 310.647L65.7788 317.333C67.8886 319.276 71.3093 319.276 73.4191 317.333L80.6793 310.647C81.6924 309.714 83.0666 309.19 84.4994 309.19H98.7649C101.749 309.19 104.167 306.963 104.167 304.215V291.078C104.167 289.759 104.737 288.493 105.75 287.561L114.385 279.609C116.495 277.666 116.495 274.516 114.385 272.573L105.75 264.622C104.737 263.689 104.167 262.423 104.167 261.104V250.865C104.167 248.118 101.749 245.89 98.7649 245.89H87.6467C86.2139 245.89 84.8398 245.366 83.8266 244.433L73.4191 234.849C71.3093 232.907 67.8886 232.907 65.7788 234.849L55.3712 244.433C54.3581 245.366 52.9839 245.89 51.5511 245.89H40.8307C37.8469 245.89 35.4282 248.118 35.4282 250.865V260.737Z" fill="#FDE54A"/>
<path d="M75.0946 276.177C75.0946 278.924 72.6758 281.152 69.6921 281.152C66.7084 281.152 64.2896 278.924 64.2896 276.177C64.2896 273.429 66.7084 271.202 69.6921 271.202C72.6758 271.202 75.0946 273.429 75.0946 276.177Z" fill="white"/>
<path d="M72.3933 276.177C72.3933 277.551 71.184 278.664 69.6921 278.664C68.2002 278.664 66.9908 277.551 66.9908 276.177C66.9908 274.803 68.2002 273.689 69.6921 273.689C71.184 273.689 72.3933 274.803 72.3933 276.177Z" fill="#011149"/>
<path fill-rule="evenodd" clip-rule="evenodd" d="M67.0244 270.185C68.4371 271.4 70.6217 271.4 72.0343 270.185C74.7145 267.879 76.3899 264.595 76.3899 260.95C76.3899 257.306 74.7145 254.022 72.0343 251.716C70.6217 250.501 68.4371 250.501 67.0244 251.716C64.3442 254.022 62.6688 257.306 62.6688 260.95C62.6688 264.595 64.3442 267.879 67.0244 270.185Z" fill="#FB9F99"/>
<path fill-rule="evenodd" clip-rule="evenodd" d="M96.1402 278.334C97.4601 277.033 97.4601 275.021 96.1402 273.72C93.636 271.252 90.0698 269.709 86.1124 269.709C82.1549 269.709 78.5888 271.252 76.0846 273.72C74.7646 275.021 74.7646 277.033 76.0846 278.334C78.5888 280.802 82.1549 282.345 86.1124 282.345C90.0698 282.345 93.636 280.802 96.1402 278.334Z" fill="#FB9F99"/>
<path fill-rule="evenodd" clip-rule="evenodd" d="M63.185 278.334C64.5049 277.033 64.5049 275.021 63.185 273.72C60.6808 271.252 57.1146 269.709 53.1572 269.709C49.1997 269.709 45.6336 271.252 43.1294 273.72C41.8094 275.021 41.8094 277.033 43.1294 278.334C45.6336 280.802 49.1997 282.345 53.1572 282.345C57.1146 282.345 60.6808 280.802 63.185 278.334Z" fill="#FB9F99"/>
<path fill-rule="evenodd" clip-rule="evenodd" d="M67.0244 300.532C68.4371 301.747 70.6217 301.747 72.0343 300.532C74.7145 298.226 76.3899 294.942 76.3899 291.298C76.3899 287.653 74.7145 284.369 72.0343 282.063C70.6217 280.848 68.4371 280.848 67.0244 282.063C64.3442 284.369 62.6688 287.653 62.6688 291.298C62.6688 294.942 64.3442 298.226 67.0244 300.532Z" fill="#FB9F99"/>
<path d="M60.1301 262.012C60.7384 261.49 61.7327 261.769 61.9198 262.516L63.709 269.652C63.8961 270.399 63.1357 271.052 62.3403 270.828L54.7341 268.686C53.9387 268.462 53.7048 267.529 54.3131 267.007L60.1301 262.012Z" fill="#011149"/>
<path d="M84.7682 283.724C85.5657 283.942 85.8084 284.873 85.2051 285.4L79.4356 290.442C78.8322 290.969 77.8354 290.697 77.6412 289.952L75.7844 282.83C75.5902 282.086 76.3444 281.426 77.1419 281.644L84.7682 283.724Z" fill="#011149"/>
<path d="M84.8572 267.428C85.435 267.979 85.1484 268.9 84.3414 269.085L76.6238 270.857C75.8168 271.042 75.0945 270.353 75.3238 269.617L77.5162 262.577C77.7454 261.84 78.7543 261.609 79.3321 262.16L84.8572 267.428Z" fill="#011149"/>
<path d="M61.6112 290.2C61.4241 290.946 60.4299 291.226 59.8215 290.704L54.0045 285.708C53.3962 285.186 53.6301 284.253 54.4255 284.029L62.0317 281.888C62.8272 281.664 63.5876 282.317 63.4004 283.063L61.6112 290.2Z" fill="#011149"/>
</g>
<g opacity="0.71">
<path fill-rule="evenodd" clip-rule="evenodd" d="M141.562 152.482C141.562 153.812 140.993 155.087 139.98 156.028L128.014 167.133C125.904 169.091 125.904 172.266 128.014 174.224L139.98 185.329C140.993 186.27 141.562 187.545 141.562 188.875V204.629C141.562 207.398 143.981 209.642 146.965 209.642H163.94C165.373 209.642 166.747 210.171 167.76 211.111L179.801 222.285C181.911 224.243 185.331 224.243 187.441 222.285L199.481 211.111C200.495 210.171 201.869 209.642 203.301 209.642H220.203C223.187 209.642 225.605 207.398 225.605 204.629V188.943C225.605 187.613 226.175 186.338 227.188 185.398L239.228 174.224C241.338 172.266 241.338 169.091 239.228 167.133L227.188 155.959C226.175 155.019 225.605 153.743 225.605 152.414V136.66C225.605 133.891 223.187 131.646 220.203 131.646H203.227C201.795 131.646 200.421 131.118 199.407 130.177L187.441 119.072C185.331 117.114 181.911 117.114 179.801 119.072L167.834 130.177C166.821 131.118 165.447 131.646 164.014 131.646H146.965C143.981 131.646 141.562 133.891 141.562 136.66V152.482Z" fill="#011149"/>
<path fill-rule="evenodd" clip-rule="evenodd" d="M156.07 143.259L135.758 150.308L143.352 169.159L134.34 187.512L154.115 195.876L161.743 214.808L182.142 207.729L201.858 216.068L210.843 197.771L231.243 190.692L223.616 171.76L232.628 153.408L212.852 145.044L205.258 126.192L184.945 133.24L165.11 124.851L156.07 143.259ZM156.07 143.259L143.352 169.159L154.115 195.876L182.142 207.729L210.843 197.771L223.616 171.76L212.852 145.044L184.945 133.24L156.07 143.259Z" fill="#011149"/>
<path fill-rule="evenodd" clip-rule="evenodd" d="M149.428 155.118C149.428 156.448 148.859 157.723 147.846 158.664L138.813 167.046C136.703 169.004 136.703 172.179 138.813 174.137L147.846 182.52C148.859 183.46 149.428 184.736 149.428 186.065V198.935C149.428 201.704 151.847 203.949 154.831 203.949H168.698C170.131 203.949 171.505 204.477 172.519 205.418L179.779 212.156C181.889 214.114 185.309 214.114 187.419 212.156L194.679 205.418C195.692 204.477 197.067 203.949 198.499 203.949H212.765C215.749 203.949 218.167 201.704 218.167 198.935V185.696C218.167 184.366 218.737 183.091 219.75 182.151L228.385 174.137C230.495 172.179 230.495 169.004 228.385 167.046L219.75 159.033C218.737 158.092 218.167 156.817 218.167 155.487V145.169C218.167 142.4 215.749 140.155 212.765 140.155H201.647C200.214 140.155 198.84 139.627 197.827 138.687L187.419 129.028C185.309 127.07 181.889 127.07 179.779 129.028L169.371 138.687C168.358 139.627 166.984 140.155 165.551 140.155H154.831C151.847 140.155 149.428 142.4 149.428 145.169V155.118Z" fill="#FDE54A"/>
<path d="M189.095 170.678C189.095 173.447 186.676 175.692 183.692 175.692C180.708 175.692 178.29 173.447 178.29 170.678C178.29 167.909 180.708 165.664 183.692 165.664C186.676 165.664 189.095 167.909 189.095 170.678Z" fill="white"/>
<path d="M186.393 170.678C186.393 172.063 185.184 173.185 183.692 173.185C182.2 173.185 180.991 172.063 180.991 170.678C180.991 169.294 182.2 168.171 183.692 168.171C185.184 168.171 186.393 169.294 186.393 170.678Z" fill="#011149"/>
<path fill-rule="evenodd" clip-rule="evenodd" d="M181.024 164.639C182.437 165.864 184.622 165.864 186.034 164.639C188.715 162.315 190.39 159.006 190.39 155.333C190.39 151.66 188.715 148.351 186.034 146.027C184.622 144.802 182.437 144.802 181.024 146.027C178.344 148.351 176.669 151.66 176.669 155.333C176.669 159.006 178.344 162.315 181.024 164.639Z" fill="#FB9F99"/>
<path fill-rule="evenodd" clip-rule="evenodd" d="M210.14 172.852C211.46 171.541 211.46 169.514 210.14 168.203C207.636 165.715 204.07 164.16 200.112 164.16C196.155 164.16 192.589 165.715 190.085 168.203C188.765 169.514 188.765 171.541 190.085 172.852C192.589 175.339 196.155 176.894 200.112 176.894C204.07 176.894 207.636 175.339 210.14 172.852Z" fill="#FB9F99"/>
<path fill-rule="evenodd" clip-rule="evenodd" d="M177.185 172.852C178.505 171.541 178.505 169.514 177.185 168.203C174.681 165.715 171.115 164.16 167.157 164.16C163.2 164.16 159.634 165.715 157.129 168.203C155.809 169.514 155.809 171.541 157.129 172.852C159.634 175.339 163.2 176.894 167.157 176.894C171.115 176.894 174.681 175.339 177.185 172.852Z" fill="#FB9F99"/>
<path fill-rule="evenodd" clip-rule="evenodd" d="M181.024 195.224C182.437 196.449 184.622 196.449 186.034 195.224C188.715 192.9 190.39 189.59 190.39 185.917C190.39 182.244 188.715 178.935 186.034 176.611C184.622 175.386 182.437 175.386 181.024 176.611C178.344 178.935 176.669 182.244 176.669 185.917C176.669 189.59 178.344 192.9 181.024 195.224Z" fill="#FB9F99"/>
<path d="M174.13 156.403C174.738 155.876 175.733 156.158 175.92 156.91L177.709 164.103C177.896 164.855 177.136 165.513 176.34 165.287L168.734 163.129C167.939 162.903 167.705 161.963 168.313 161.437L174.13 156.403Z" fill="#011149"/>
<path d="M198.768 178.285C199.566 178.504 199.808 179.442 199.205 179.973L193.436 185.055C192.832 185.586 191.835 185.312 191.641 184.561L189.784 177.384C189.59 176.633 190.344 175.969 191.142 176.188L198.768 178.285Z" fill="#011149"/>
<path d="M198.857 161.861C199.435 162.417 199.148 163.344 198.341 163.531L190.624 165.317C189.817 165.503 189.095 164.809 189.324 164.067L191.516 156.972C191.745 156.23 192.754 155.996 193.332 156.552L198.857 161.861Z" fill="#011149"/>
<path d="M175.611 184.811C175.424 185.563 174.43 185.845 173.822 185.318L168.005 180.284C167.396 179.758 167.63 178.818 168.426 178.592L176.032 176.434C176.827 176.208 177.588 176.866 177.4 177.618L175.611 184.811Z" fill="#011149"/>
</g>
<g opacity="0.71">
<path fill-rule="evenodd" clip-rule="evenodd" d="M255.562 152.482C255.562 153.812 254.993 155.087 253.98 156.028L242.014 167.133C239.904 169.091 239.904 172.266 242.014 174.224L253.98 185.329C254.993 186.27 255.562 187.545 255.562 188.875V204.629C255.562 207.398 257.981 209.642 260.965 209.642H277.94C279.373 209.642 280.747 210.171 281.76 211.111L293.801 222.285C295.911 224.243 299.331 224.243 301.441 222.285L313.481 211.111C314.495 210.171 315.869 209.642 317.301 209.642H334.203C337.187 209.642 339.605 207.398 339.605 204.629V188.943C339.605 187.613 340.175 186.338 341.188 185.398L353.228 174.224C355.338 172.266 355.338 169.091 353.228 167.133L341.188 155.959C340.175 155.019 339.605 153.743 339.605 152.414V136.66C339.605 133.891 337.187 131.646 334.203 131.646H317.227C315.795 131.646 314.421 131.118 313.407 130.177L301.441 119.072C299.331 117.114 295.911 117.114 293.801 119.072L281.834 130.177C280.821 131.118 279.447 131.646 278.014 131.646H260.965C257.981 131.646 255.562 133.891 255.562 136.66V152.482Z" fill="#011149"/>
<path fill-rule="evenodd" clip-rule="evenodd" d="M270.07 143.259L249.758 150.308L257.352 169.159L248.34 187.512L268.115 195.876L275.743 214.808L296.142 207.729L315.858 216.068L324.843 197.771L345.243 190.692L337.616 171.76L346.628 153.408L326.852 145.044L319.258 126.192L298.945 133.24L279.11 124.851L270.07 143.259ZM270.07 143.259L257.352 169.159L268.115 195.876L296.142 207.729L324.843 197.771L337.616 171.76L326.852 145.044L298.945 133.24L270.07 143.259Z" fill="#011149"/>
<path fill-rule="evenodd" clip-rule="evenodd" d="M263.428 155.118C263.428 156.448 262.859 157.723 261.846 158.664L252.813 167.046C250.703 169.004 250.703 172.179 252.813 174.137L261.846 182.52C262.859 183.46 263.428 184.736 263.428 186.065V198.935C263.428 201.704 265.847 203.949 268.831 203.949H282.698C284.131 203.949 285.505 204.477 286.519 205.418L293.779 212.156C295.889 214.114 299.309 214.114 301.419 212.156L308.679 205.418C309.692 204.477 311.067 203.949 312.499 203.949H326.765C329.749 203.949 332.167 201.704 332.167 198.935V185.696C332.167 184.366 332.737 183.091 333.75 182.151L342.385 174.137C344.495 172.179 344.495 169.004 342.385 167.046L333.75 159.033C332.737 158.092 332.167 156.817 332.167 155.487V145.169C332.167 142.4 329.749 140.155 326.765 140.155H315.647C314.214 140.155 312.84 139.627 311.827 138.687L301.419 129.028C299.309 127.07 295.889 127.07 293.779 129.028L283.371 138.687C282.358 139.627 280.984 140.155 279.551 140.155H268.831C265.847 140.155 263.428 142.4 263.428 145.169V155.118Z" fill="#FDE54A"/>
<path d="M303.095 170.678C303.095 173.447 300.676 175.692 297.692 175.692C294.708 175.692 292.29 173.447 292.29 170.678C292.29 167.909 294.708 165.664 297.692 165.664C300.676 165.664 303.095 167.909 303.095 170.678Z" fill="white"/>
<path d="M300.393 170.678C300.393 172.063 299.184 173.185 297.692 173.185C296.2 173.185 294.991 172.063 294.991 170.678C294.991 169.294 296.2 168.171 297.692 168.171C299.184 168.171 300.393 169.294 300.393 170.678Z" fill="#011149"/>
<path fill-rule="evenodd" clip-rule="evenodd" d="M295.024 164.639C296.437 165.864 298.622 165.864 300.034 164.639C302.715 162.315 304.39 159.006 304.39 155.333C304.39 151.66 302.715 148.351 300.034 146.027C298.622 144.802 296.437 144.802 295.024 146.027C292.344 148.351 290.669 151.66 290.669 155.333C290.669 159.006 292.344 162.315 295.024 164.639Z" fill="#FB9F99"/>
<path fill-rule="evenodd" clip-rule="evenodd" d="M324.14 172.852C325.46 171.541 325.46 169.514 324.14 168.203C321.636 165.715 318.07 164.16 314.112 164.16C310.155 164.16 306.589 165.715 304.085 168.203C302.765 169.514 302.765 171.541 304.085 172.852C306.589 175.339 310.155 176.894 314.112 176.894C318.07 176.894 321.636 175.339 324.14 172.852Z" fill="#FB9F99"/>
<path fill-rule="evenodd" clip-rule="evenodd" d="M291.185 172.852C292.505 171.541 292.505 169.514 291.185 168.203C288.681 165.715 285.115 164.16 281.157 164.16C277.2 164.16 273.634 165.715 271.129 168.203C269.809 169.514 269.809 171.541 271.129 172.852C273.634 175.339 277.2 176.894 281.157 176.894C285.115 176.894 288.681 175.339 291.185 172.852Z" fill="#FB9F99"/>
<path fill-rule="evenodd" clip-rule="evenodd" d="M295.024 195.224C296.437 196.449 298.622 196.449 300.034 195.224C302.715 192.9 304.39 189.59 304.39 185.917C304.39 182.244 302.715 178.935 300.034 176.611C298.622 175.386 296.437 175.386 295.024 176.611C292.344 178.935 290.669 182.244 290.669 185.917C290.669 189.59 292.344 192.9 295.024 195.224Z" fill="#FB9F99"/>
<path d="M288.13 156.403C288.738 155.876 289.733 156.158 289.92 156.91L291.709 164.103C291.896 164.855 291.136 165.513 290.34 165.287L282.734 163.129C281.939 162.903 281.705 161.963 282.313 161.437L288.13 156.403Z" fill="#011149"/>
<path d="M312.768 178.285C313.566 178.504 313.808 179.442 313.205 179.973L307.436 185.055C306.832 185.586 305.835 185.312 305.641 184.561L303.784 177.384C303.59 176.633 304.344 175.969 305.142 176.188L312.768 178.285Z" fill="#011149"/>
<path d="M312.857 161.861C313.435 162.417 313.148 163.344 312.341 163.531L304.624 165.317C303.817 165.503 303.095 164.809 303.324 164.067L305.516 156.972C305.745 156.23 306.754 155.996 307.332 156.552L312.857 161.861Z" fill="#011149"/>
<path d="M289.611 184.811C289.424 185.563 288.43 185.845 287.822 185.318L282.005 180.284C281.396 179.758 281.63 178.818 282.426 178.592L290.032 176.434C290.827 176.208 291.588 176.866 291.4 177.618L289.611 184.811Z" fill="#011149"/>
</g>
<g opacity="0.71">
<path fill-rule="evenodd" clip-rule="evenodd" d="M141.562 46.4823C141.562 47.8121 140.993 49.0874 139.98 50.0276L128.014 61.1331C125.904 63.0912 125.904 66.2657 128.014 68.2238L139.98 79.3292C140.993 80.2695 141.562 81.5448 141.562 82.8746V98.6287C141.562 101.398 143.981 103.642 146.965 103.642H163.94C165.373 103.642 166.747 104.171 167.76 105.111L179.801 116.285C181.911 118.243 185.331 118.243 187.441 116.285L199.481 105.111C200.495 104.171 201.869 103.642 203.301 103.642H220.203C223.187 103.642 225.605 101.398 225.605 98.6287V82.9432C225.605 81.6135 226.175 80.3382 227.188 79.3979L239.228 68.2238C241.338 66.2657 241.338 63.0912 239.228 61.1331L227.188 49.959C226.175 49.0187 225.605 47.7434 225.605 46.4137V30.6596C225.605 27.8905 223.187 25.6458 220.203 25.6458H203.227C201.795 25.6458 200.421 25.1175 199.407 24.1773L187.441 13.0718C185.331 11.1137 181.911 11.1137 179.801 13.0718L167.834 24.1773C166.821 25.1175 165.447 25.6458 164.014 25.6458H146.965C143.981 25.6458 141.562 27.8905 141.562 30.6596V46.4823Z" fill="#011149"/>
<path fill-rule="evenodd" clip-rule="evenodd" d="M156.07 37.2595L135.758 44.3078L143.352 63.1593L134.34 81.5121L154.115 89.876L161.743 108.808L182.142 101.729L201.858 110.068L210.843 91.7705L231.243 84.6922L223.616 65.7605L232.628 47.4076L212.852 39.0437L205.258 20.1922L184.945 27.2405L165.11 18.8515L156.07 37.2595ZM156.07 37.2595L143.352 63.1593L154.115 89.876L182.142 101.729L210.843 91.7705L223.616 65.7605L212.852 39.0437L184.945 27.2405L156.07 37.2595Z" fill="#011149"/>
<path fill-rule="evenodd" clip-rule="evenodd" d="M149.428 49.1182C149.428 50.448 148.859 51.7233 147.846 52.6635L138.813 61.0464C136.703 63.0045 136.703 66.179 138.813 68.1371L147.846 76.52C148.859 77.4602 149.428 78.7355 149.428 80.0653V92.9354C149.428 95.7044 151.847 97.9492 154.831 97.9492H168.698C170.131 97.9492 171.505 98.4774 172.519 99.4177L179.779 106.156C181.889 108.114 185.309 108.114 187.419 106.156L194.679 99.4177C195.692 98.4774 197.067 97.9492 198.499 97.9492H212.765C215.749 97.9492 218.167 95.7044 218.167 92.9354V79.6961C218.167 78.3664 218.737 77.0911 219.75 76.1508L228.385 68.1371C230.495 66.179 230.495 63.0045 228.385 61.0465L219.75 53.0327C218.737 52.0924 218.167 50.8171 218.167 49.4874V39.169C218.167 36.4 215.749 34.1552 212.765 34.1552H201.647C200.214 34.1552 198.84 33.627 197.827 32.6867L187.419 23.0279C185.309 21.0699 181.889 21.0699 179.779 23.0279L169.371 32.6867C168.358 33.627 166.984 34.1552 165.551 34.1552H154.831C151.847 34.1552 149.428 36.4 149.428 39.169V49.1182Z" fill="#FDE54A"/>
<path d="M189.095 64.6782C189.095 67.4473 186.676 69.6921 183.692 69.6921C180.708 69.6921 178.29 67.4473 178.29 64.6782C178.29 61.9092 180.708 59.6644 183.692 59.6644C186.676 59.6644 189.095 61.9092 189.095 64.6782Z" fill="white"/>
<path d="M186.393 64.6783C186.393 66.0628 185.184 67.1852 183.692 67.1852C182.2 67.1852 180.991 66.0628 180.991 64.6783C180.991 63.2938 182.2 62.1714 183.692 62.1714C185.184 62.1714 186.393 63.2938 186.393 64.6783Z" fill="#011149"/>
<path fill-rule="evenodd" clip-rule="evenodd" d="M181.024 58.6393C182.437 59.8643 184.622 59.8643 186.034 58.6393C188.715 56.3152 190.39 53.0057 190.39 49.3329C190.39 45.6602 188.715 42.3506 186.034 40.0265C184.622 38.8015 182.437 38.8015 181.024 40.0265C178.344 42.3506 176.669 45.6602 176.669 49.3329C176.669 53.0057 178.344 56.3152 181.024 58.6393Z" fill="#FB9F99"/>
<path fill-rule="evenodd" clip-rule="evenodd" d="M210.14 66.852C211.46 65.541 211.46 63.5136 210.14 62.2025C207.636 59.7151 204.07 58.1603 200.112 58.1603C196.155 58.1603 192.589 59.7151 190.085 62.2025C188.765 63.5136 188.765 65.541 190.085 66.852C192.589 69.3394 196.155 70.8943 200.112 70.8943C204.07 70.8943 207.636 69.3394 210.14 66.852Z" fill="#FB9F99"/>
<path fill-rule="evenodd" clip-rule="evenodd" d="M177.185 66.852C178.505 65.541 178.505 63.5136 177.185 62.2025C174.681 59.7151 171.115 58.1603 167.157 58.1603C163.2 58.1603 159.634 59.7151 157.129 62.2025C155.809 63.5136 155.809 65.541 157.129 66.852C159.634 69.3394 163.2 70.8943 167.157 70.8943C171.115 70.8943 174.681 69.3394 177.185 66.852Z" fill="#FB9F99"/>
<path fill-rule="evenodd" clip-rule="evenodd" d="M181.024 89.2236C182.437 90.4486 184.622 90.4486 186.034 89.2236C188.715 86.8995 190.39 83.59 190.39 79.9172C190.39 76.2445 188.715 72.9349 186.034 70.6108C184.622 69.3858 182.437 69.3858 181.024 70.6108C178.344 72.9349 176.669 76.2445 176.669 79.9172C176.669 83.59 178.344 86.8995 181.024 89.2236Z" fill="#FB9F99"/>
<path d="M174.13 50.4026C174.738 49.8762 175.733 50.1583 175.92 50.9104L177.709 58.1028C177.896 58.855 177.136 59.513 176.34 59.2873L168.734 57.1292C167.939 56.9035 167.705 55.9633 168.313 55.4368L174.13 50.4026Z" fill="#011149"/>
<path d="M198.768 72.2846C199.566 72.5038 199.808 73.4421 199.205 73.9735L193.436 79.0546C192.832 79.5859 191.835 79.3119 191.641 78.5613L189.784 71.3837C189.59 70.6331 190.344 69.9689 191.142 70.1881L198.768 72.2846Z" fill="#011149"/>
<path d="M198.857 55.8614C199.435 56.4167 199.148 57.3442 198.341 57.531L190.624 59.3167C189.817 59.5035 189.095 58.8094 189.324 58.0673L191.516 50.9717C191.745 50.2297 192.754 49.9963 193.332 50.5515L198.857 55.8614Z" fill="#011149"/>
<path d="M175.611 78.8106C175.424 79.5628 174.43 79.8449 173.822 79.3184L168.005 74.2842C167.396 73.7578 167.63 72.8176 168.426 72.5919L176.032 70.4338C176.827 70.2081 177.588 70.8661 177.4 71.6183L175.611 78.8106Z" fill="#011149"/>
</g>
<g opacity="0.71">
<path fill-rule="evenodd" clip-rule="evenodd" d="M255.562 46.4823C255.562 47.8121 254.993 49.0874 253.98 50.0276L242.014 61.1331C239.904 63.0912 239.904 66.2657 242.014 68.2238L253.98 79.3292C254.993 80.2695 255.562 81.5448 255.562 82.8746V98.6287C255.562 101.398 257.981 103.642 260.965 103.642H277.94C279.373 103.642 280.747 104.171 281.76 105.111L293.801 116.285C295.911 118.243 299.331 118.243 301.441 116.285L313.481 105.111C314.495 104.171 315.869 103.642 317.301 103.642H334.203C337.187 103.642 339.605 101.398 339.605 98.6287V82.9432C339.605 81.6135 340.175 80.3382 341.188 79.3979L353.228 68.2238C355.338 66.2657 355.338 63.0912 353.228 61.1331L341.188 49.959C340.175 49.0187 339.605 47.7434 339.605 46.4137V30.6596C339.605 27.8905 337.187 25.6458 334.203 25.6458H317.227C315.795 25.6458 314.421 25.1175 313.407 24.1773L301.441 13.0718C299.331 11.1137 295.911 11.1137 293.801 13.0718L281.834 24.1773C280.821 25.1175 279.447 25.6458 278.014 25.6458H260.965C257.981 25.6458 255.562 27.8905 255.562 30.6596V46.4823Z" fill="#011149"/>
<path fill-rule="evenodd" clip-rule="evenodd" d="M270.07 37.2595L249.758 44.3078L257.352 63.1593L248.34 81.5121L268.115 89.876L275.743 108.808L296.142 101.729L315.858 110.068L324.843 91.7705L345.243 84.6922L337.616 65.7605L346.628 47.4076L326.852 39.0437L319.258 20.1922L298.945 27.2405L279.11 18.8515L270.07 37.2595ZM270.07 37.2595L257.352 63.1593L268.115 89.876L296.142 101.729L324.843 91.7705L337.616 65.7605L326.852 39.0437L298.945 27.2405L270.07 37.2595Z" fill="#011149"/>
<path fill-rule="evenodd" clip-rule="evenodd" d="M263.428 49.1182C263.428 50.448 262.859 51.7233 261.846 52.6635L252.813 61.0464C250.703 63.0045 250.703 66.179 252.813 68.1371L261.846 76.52C262.859 77.4602 263.428 78.7355 263.428 80.0653V92.9354C263.428 95.7044 265.847 97.9492 268.831 97.9492H282.698C284.131 97.9492 285.505 98.4774 286.519 99.4177L293.779 106.156C295.889 108.114 299.309 108.114 301.419 106.156L308.679 99.4177C309.692 98.4774 311.067 97.9492 312.499 97.9492H326.765C329.749 97.9492 332.167 95.7044 332.167 92.9354V79.6961C332.167 78.3664 332.737 77.0911 333.75 76.1508L342.385 68.1371C344.495 66.179 344.495 63.0045 342.385 61.0465L333.75 53.0327C332.737 52.0924 332.167 50.8171 332.167 49.4874V39.169C332.167 36.4 329.749 34.1552 326.765 34.1552H315.647C314.214 34.1552 312.84 33.627 311.827 32.6867L301.419 23.0279C299.309 21.0699 295.889 21.0699 293.779 23.0279L283.371 32.6867C282.358 33.627 280.984 34.1552 279.551 34.1552H268.831C265.847 34.1552 263.428 36.4 263.428 39.169V49.1182Z" fill="#FDE54A"/>
<path d="M303.095 64.6782C303.095 67.4473 300.676 69.6921 297.692 69.6921C294.708 69.6921 292.29 67.4473 292.29 64.6782C292.29 61.9092 294.708 59.6644 297.692 59.6644C300.676 59.6644 303.095 61.9092 303.095 64.6782Z" fill="white"/>
<path d="M300.393 64.6783C300.393 66.0628 299.184 67.1852 297.692 67.1852C296.2 67.1852 294.991 66.0628 294.991 64.6783C294.991 63.2938 296.2 62.1714 297.692 62.1714C299.184 62.1714 300.393 63.2938 300.393 64.6783Z" fill="#011149"/>
<path fill-rule="evenodd" clip-rule="evenodd" d="M295.024 58.6393C296.437 59.8643 298.622 59.8643 300.034 58.6393C302.715 56.3152 304.39 53.0057 304.39 49.3329C304.39 45.6602 302.715 42.3506 300.034 40.0265C298.622 38.8015 296.437 38.8015 295.024 40.0265C292.344 42.3506 290.669 45.6602 290.669 49.3329C290.669 53.0057 292.344 56.3152 295.024 58.6393Z" fill="#FB9F99"/>
<path fill-rule="evenodd" clip-rule="evenodd" d="M324.14 66.852C325.46 65.541 325.46 63.5136 324.14 62.2025C321.636 59.7151 318.07 58.1603 314.112 58.1603C310.155 58.1603 306.589 59.7151 304.085 62.2025C302.765 63.5136 302.765 65.541 304.085 66.852C306.589 69.3394 310.155 70.8943 314.112 70.8943C318.07 70.8943 321.636 69.3394 324.14 66.852Z" fill="#FB9F99"/>
<path fill-rule="evenodd" clip-rule="evenodd" d="M291.185 66.852C292.505 65.541 292.505 63.5136 291.185 62.2025C288.681 59.7151 285.115 58.1603 281.157 58.1603C277.2 58.1603 273.634 59.7151 271.129 62.2025C269.809 63.5136 269.809 65.541 271.129 66.852C273.634 69.3394 277.2 70.8943 281.157 70.8943C285.115 70.8943 288.681 69.3394 291.185 66.852Z" fill="#FB9F99"/>
<path fill-rule="evenodd" clip-rule="evenodd" d="M295.024 89.2236C296.437 90.4486 298.622 90.4486 300.034 89.2236C302.715 86.8995 304.39 83.59 304.39 79.9172C304.39 76.2445 302.715 72.9349 300.034 70.6108C298.622 69.3858 296.437 69.3858 295.024 70.6108C292.344 72.9349 290.669 76.2445 290.669 79.9172C290.669 83.59 292.344 86.8995 295.024 89.2236Z" fill="#FB9F99"/>
<path d="M288.13 50.4026C288.738 49.8762 289.733 50.1583 289.92 50.9104L291.709 58.1028C291.896 58.855 291.136 59.513 290.34 59.2873L282.734 57.1292C281.939 56.9035 281.705 55.9633 282.313 55.4368L288.13 50.4026Z" fill="#011149"/>
<path d="M312.768 72.2846C313.566 72.5038 313.808 73.4421 313.205 73.9735L307.436 79.0546C306.832 79.5859 305.835 79.3119 305.641 78.5613L303.784 71.3837C303.59 70.6331 304.344 69.9689 305.142 70.1881L312.768 72.2846Z" fill="#011149"/>
<path d="M312.857 55.8614C313.435 56.4167 313.148 57.3442 312.341 57.531L304.624 59.3167C303.817 59.5035 303.095 58.8094 303.324 58.0673L305.516 50.9717C305.745 50.2297 306.754 49.9963 307.332 50.5515L312.857 55.8614Z" fill="#011149"/>
<path d="M289.611 78.8106C289.424 79.5628 288.43 79.8449 287.822 79.3184L282.005 74.2842C281.396 73.7578 281.63 72.8176 282.426 72.5919L290.032 70.4338C290.827 70.2081 291.588 70.8661 291.4 71.6183L289.611 78.8106Z" fill="#011149"/>
</g>
<g opacity="0.71">
<path fill-rule="evenodd" clip-rule="evenodd" d="M141.959 258.122C141.959 259.441 141.382 260.707 140.354 261.64L128.215 272.659C126.075 274.602 126.075 277.752 128.215 279.695L140.354 290.714C141.382 291.647 141.959 292.913 141.959 294.232V309.864C141.959 312.612 144.413 314.839 147.439 314.839H164.659C166.112 314.839 167.506 315.363 168.534 316.296L180.747 327.384C182.888 329.327 186.358 329.327 188.498 327.384L200.711 316.296C201.739 315.363 203.133 314.839 204.586 314.839H221.731C224.758 314.839 227.211 312.612 227.211 309.864V294.3C227.211 292.981 227.789 291.715 228.816 290.782L241.03 279.695C243.17 277.752 243.17 274.602 241.03 272.659L228.816 261.572C227.789 260.639 227.211 259.373 227.211 258.054V242.422C227.211 239.674 224.758 237.447 221.731 237.447H204.511C203.058 237.447 201.664 236.923 200.636 235.99L188.498 224.97C186.358 223.028 182.888 223.028 180.747 224.97L168.609 235.99C167.581 236.923 166.187 237.447 164.734 237.447H147.439C144.413 237.447 141.959 239.674 141.959 242.422V258.122Z" fill="#011149"/>
<path fill-rule="evenodd" clip-rule="evenodd" d="M156.676 248.971L136.071 255.964L143.774 274.67L134.633 292.88L154.693 301.179L162.429 319.964L183.122 312.941L203.122 321.215L212.237 303.059L232.929 296.036L225.193 277.251L234.335 259.04L214.274 250.741L206.571 232.036L185.965 239.029L165.845 230.705L156.676 248.971ZM156.676 248.971L143.774 274.67L154.693 301.179L183.122 312.941L212.237 303.059L225.193 277.251L214.274 250.741L185.965 239.029L156.676 248.971Z" fill="#011149"/>
<path fill-rule="evenodd" clip-rule="evenodd" d="M149.938 260.737C149.938 262.057 149.361 263.322 148.333 264.255L139.17 272.573C137.03 274.516 137.03 277.666 139.17 279.609L148.333 287.927C149.361 288.86 149.938 290.125 149.938 291.445V304.215C149.938 306.963 152.391 309.19 155.418 309.19H169.485C170.939 309.19 172.333 309.714 173.361 310.647L180.725 317.333C182.865 319.276 186.335 319.276 188.475 317.333L195.84 310.647C196.868 309.714 198.262 309.19 199.715 309.19H214.186C217.213 309.19 219.666 306.963 219.666 304.215V291.078C219.666 289.759 220.244 288.493 221.271 287.561L230.031 279.609C232.171 277.666 232.171 274.516 230.031 272.573L221.271 264.622C220.244 263.689 219.666 262.423 219.666 261.104V250.865C219.666 248.118 217.213 245.89 214.186 245.89H202.908C201.454 245.89 200.06 245.366 199.033 244.433L188.475 234.849C186.335 232.907 182.865 232.907 180.725 234.849L170.168 244.433C169.14 245.366 167.746 245.89 166.293 245.89H155.418C152.391 245.89 149.938 248.118 149.938 250.865V260.737Z" fill="#FDE54A"/>
<path d="M190.175 276.177C190.175 278.924 187.721 281.152 184.695 281.152C181.668 281.152 179.215 278.924 179.215 276.177C179.215 273.429 181.668 271.202 184.695 271.202C187.721 271.202 190.175 273.429 190.175 276.177Z" fill="white"/>
<path d="M187.435 276.177C187.435 277.551 186.208 278.664 184.695 278.664C183.182 278.664 181.955 277.551 181.955 276.177C181.955 274.803 183.182 273.689 184.695 273.689C186.208 273.689 187.435 274.803 187.435 276.177Z" fill="#011149"/>
<path fill-rule="evenodd" clip-rule="evenodd" d="M181.989 270.185C183.422 271.4 185.638 271.4 187.071 270.185C189.79 267.879 191.489 264.595 191.489 260.95C191.489 257.306 189.79 254.022 187.071 251.716C185.638 250.501 183.422 250.501 181.989 251.716C179.27 254.022 177.571 257.306 177.571 260.95C177.571 264.595 179.27 267.879 181.989 270.185Z" fill="#FB9F99"/>
<path fill-rule="evenodd" clip-rule="evenodd" d="M211.523 278.334C212.862 277.033 212.862 275.021 211.523 273.72C208.983 271.252 205.366 269.709 201.351 269.709C197.337 269.709 193.72 271.252 191.179 273.72C189.84 275.021 189.84 277.033 191.179 278.334C193.72 280.802 197.337 282.345 201.351 282.345C205.366 282.345 208.983 280.802 211.523 278.334Z" fill="#FB9F99"/>
<path fill-rule="evenodd" clip-rule="evenodd" d="M178.094 278.334C179.433 277.033 179.433 275.021 178.094 273.72C175.554 271.252 171.936 269.709 167.922 269.709C163.908 269.709 160.29 271.252 157.75 273.72C156.411 275.021 156.411 277.033 157.75 278.334C160.29 280.802 163.908 282.345 167.922 282.345C171.936 282.345 175.554 280.802 178.094 278.334Z" fill="#FB9F99"/>
<path fill-rule="evenodd" clip-rule="evenodd" d="M181.989 300.532C183.422 301.747 185.638 301.747 187.071 300.532C189.79 298.226 191.489 294.942 191.489 291.298C191.489 287.653 189.79 284.369 187.071 282.063C185.638 280.848 183.422 280.848 181.989 282.063C179.27 284.369 177.571 287.653 177.571 291.298C177.571 294.942 179.27 298.226 181.989 300.532Z" fill="#FB9F99"/>
<path d="M174.995 262.012C175.612 261.49 176.621 261.769 176.811 262.516L178.626 269.652C178.816 270.399 178.044 271.052 177.237 270.828L169.522 268.686C168.715 268.462 168.478 267.529 169.095 267.007L174.995 262.012Z" fill="#011149"/>
<path d="M199.988 283.724C200.797 283.942 201.043 284.873 200.431 285.4L194.579 290.442C193.967 290.969 192.955 290.697 192.758 289.952L190.875 282.83C190.678 282.086 191.443 281.426 192.252 281.644L199.988 283.724Z" fill="#011149"/>
<path d="M200.078 267.428C200.664 267.979 200.374 268.9 199.555 269.085L191.726 270.857C190.908 271.042 190.175 270.353 190.408 269.617L192.631 262.577C192.864 261.84 193.887 261.609 194.473 262.16L200.078 267.428Z" fill="#011149"/>
<path d="M176.498 290.2C176.308 290.946 175.299 291.226 174.682 290.704L168.782 285.708C168.165 285.186 168.402 284.253 169.209 284.029L176.924 281.888C177.731 281.664 178.503 282.317 178.313 283.063L176.498 290.2Z" fill="#011149"/>
</g>
<g opacity="0.71">
<path fill-rule="evenodd" clip-rule="evenodd" d="M255.959 258.122C255.959 259.441 255.382 260.707 254.354 261.64L242.215 272.659C240.075 274.602 240.075 277.752 242.215 279.695L254.354 290.714C255.382 291.647 255.959 292.913 255.959 294.232V309.864C255.959 312.612 258.412 314.839 261.439 314.839H278.659C280.112 314.839 281.506 315.363 282.534 316.296L294.747 327.384C296.888 329.327 300.357 329.327 302.498 327.384L314.711 316.296C315.739 315.363 317.133 314.839 318.586 314.839H335.731C338.758 314.839 341.211 312.612 341.211 309.864V294.3C341.211 292.981 341.788 291.715 342.816 290.782L355.03 279.695C357.17 277.752 357.17 274.602 355.03 272.659L342.816 261.572C341.788 260.639 341.211 259.373 341.211 258.054V242.422C341.211 239.674 338.758 237.447 335.731 237.447H318.511C317.058 237.447 315.664 236.923 314.636 235.99L302.498 224.97C300.357 223.028 296.888 223.028 294.747 224.97L282.609 235.99C281.581 236.923 280.187 237.447 278.734 237.447H261.439C258.412 237.447 255.959 239.674 255.959 242.422V258.122Z" fill="#011149"/>
<path fill-rule="evenodd" clip-rule="evenodd" d="M270.676 248.971L250.071 255.964L257.774 274.67L248.633 292.88L268.693 301.179L276.429 319.964L297.122 312.941L317.122 321.215L326.237 303.059L346.929 296.036L339.193 277.251L348.335 259.04L328.274 250.741L320.571 232.036L299.965 239.029L279.845 230.705L270.676 248.971ZM270.676 248.971L257.774 274.67L268.693 301.179L297.122 312.941L326.237 303.059L339.193 277.251L328.274 250.741L299.965 239.029L270.676 248.971Z" fill="#011149"/>
<path fill-rule="evenodd" clip-rule="evenodd" d="M263.938 260.737C263.938 262.057 263.361 263.322 262.333 264.255L253.17 272.573C251.03 274.516 251.03 277.666 253.17 279.609L262.333 287.927C263.361 288.86 263.938 290.125 263.938 291.445V304.215C263.938 306.963 266.391 309.19 269.418 309.19H283.485C284.939 309.19 286.333 309.714 287.361 310.647L294.725 317.333C296.865 319.276 300.335 319.276 302.475 317.333L309.84 310.647C310.868 309.714 312.262 309.19 313.715 309.19H328.186C331.213 309.19 333.666 306.963 333.666 304.215V291.078C333.666 289.759 334.244 288.493 335.271 287.561L344.031 279.609C346.171 277.666 346.171 274.516 344.031 272.573L335.271 264.622C334.244 263.689 333.666 262.423 333.666 261.104V250.865C333.666 248.118 331.213 245.89 328.186 245.89H316.908C315.454 245.89 314.06 245.366 313.033 244.433L302.475 234.849C300.335 232.907 296.865 232.907 294.725 234.849L284.168 244.433C283.14 245.366 281.746 245.89 280.293 245.89H269.418C266.391 245.89 263.938 248.118 263.938 250.865V260.737Z" fill="#FDE54A"/>
<path d="M304.175 276.177C304.175 278.924 301.721 281.152 298.695 281.152C295.668 281.152 293.215 278.924 293.215 276.177C293.215 273.429 295.668 271.202 298.695 271.202C301.721 271.202 304.175 273.429 304.175 276.177Z" fill="white"/>
<path d="M301.435 276.177C301.435 277.551 300.208 278.664 298.695 278.664C297.182 278.664 295.955 277.551 295.955 276.177C295.955 274.803 297.182 273.689 298.695 273.689C300.208 273.689 301.435 274.803 301.435 276.177Z" fill="#011149"/>
<path fill-rule="evenodd" clip-rule="evenodd" d="M295.989 270.185C297.422 271.4 299.638 271.4 301.071 270.185C303.79 267.879 305.489 264.595 305.489 260.95C305.489 257.306 303.79 254.022 301.071 251.716C299.638 250.501 297.422 250.501 295.989 251.716C293.27 254.022 291.571 257.306 291.571 260.95C291.571 264.595 293.27 267.879 295.989 270.185Z" fill="#FB9F99"/>
<path fill-rule="evenodd" clip-rule="evenodd" d="M325.523 278.334C326.862 277.033 326.862 275.021 325.523 273.72C322.983 271.252 319.366 269.709 315.351 269.709C311.337 269.709 307.72 271.252 305.179 273.72C303.84 275.021 303.84 277.033 305.179 278.334C307.72 280.802 311.337 282.345 315.351 282.345C319.366 282.345 322.983 280.802 325.523 278.334Z" fill="#FB9F99"/>
<path fill-rule="evenodd" clip-rule="evenodd" d="M292.094 278.334C293.433 277.033 293.433 275.021 292.094 273.72C289.554 271.252 285.936 269.709 281.922 269.709C277.908 269.709 274.29 271.252 271.75 273.72C270.411 275.021 270.411 277.033 271.75 278.334C274.29 280.802 277.908 282.345 281.922 282.345C285.936 282.345 289.554 280.802 292.094 278.334Z" fill="#FB9F99"/>
<path fill-rule="evenodd" clip-rule="evenodd" d="M295.989 300.532C297.422 301.747 299.638 301.747 301.071 300.532C303.79 298.226 305.489 294.942 305.489 291.298C305.489 287.653 303.79 284.369 301.071 282.063C299.638 280.848 297.422 280.848 295.989 282.063C293.27 284.369 291.571 287.653 291.571 291.298C291.571 294.942 293.27 298.226 295.989 300.532Z" fill="#FB9F99"/>
<path d="M288.995 262.012C289.612 261.49 290.621 261.769 290.811 262.516L292.626 269.652C292.816 270.399 292.044 271.052 291.237 270.828L283.522 268.686C282.715 268.462 282.478 267.529 283.095 267.007L288.995 262.012Z" fill="#011149"/>
<path d="M313.988 283.724C314.797 283.942 315.043 284.873 314.431 285.4L308.579 290.442C307.967 290.969 306.955 290.697 306.758 289.952L304.875 282.83C304.678 282.086 305.443 281.426 306.252 281.644L313.988 283.724Z" fill="#011149"/>
<path d="M314.078 267.428C314.664 267.979 314.374 268.9 313.555 269.085L305.726 270.857C304.908 271.042 304.175 270.353 304.408 269.617L306.631 262.577C306.864 261.84 307.887 261.609 308.473 262.16L314.078 267.428Z" fill="#011149"/>
<path d="M290.498 290.2C290.308 290.946 289.299 291.226 288.682 290.704L282.782 285.708C282.165 285.186 282.402 284.253 283.209 284.029L290.924 281.888C291.731 281.664 292.503 282.317 292.313 283.063L290.498 290.2Z" fill="#011149"/>
</g>
</svg>
