<svg width="512" height="320" viewBox="0 0 512 320" fill="none" xmlns="http://www.w3.org/2000/svg">
<path d="M17.136 126.288C14.112 126.288 11.232 125.832 8.496 124.92C5.76 124.008 3.624 122.856 2.088 121.464L3.744 118.584C5.28 119.88 7.248 120.96 9.648 121.824C12.096 122.688 14.64 123.12 17.28 123.12C21.072 123.12 23.856 122.496 25.632 121.248C27.456 120 28.368 118.272 28.368 116.064C28.368 114.48 27.864 113.232 26.856 112.32C25.896 111.408 24.696 110.736 23.256 110.304C21.816 109.872 19.824 109.416 17.28 108.936C14.304 108.408 11.904 107.832 10.08 107.208C8.256 106.584 6.696 105.576 5.4 104.184C4.104 102.792 3.456 100.872 3.456 98.424C3.456 95.448 4.68 93 7.128 91.08C9.624 89.112 13.152 88.128 17.712 88.128C20.112 88.128 22.488 88.464 24.84 89.136C27.192 89.808 29.112 90.696 30.6 91.8L28.944 94.68C27.408 93.576 25.656 92.736 23.688 92.16C21.72 91.584 19.704 91.296 17.64 91.296C14.136 91.296 11.496 91.944 9.72 93.24C7.944 94.536 7.056 96.24 7.056 98.352C7.056 100.032 7.56 101.352 8.568 102.312C9.576 103.224 10.8 103.92 12.24 104.4C13.728 104.832 15.792 105.312 18.432 105.84C21.36 106.368 23.712 106.944 25.488 107.568C27.312 108.144 28.848 109.104 30.096 110.448C31.344 111.792 31.968 113.64 31.968 115.992C31.968 119.112 30.672 121.608 28.08 123.48C25.488 125.352 21.84 126.288 17.136 126.288Z" fill="black"/>
<path d="M61.1171 126.288C57.4691 126.288 54.2051 125.472 51.3251 123.84C48.4451 122.208 46.1891 119.952 44.5571 117.072C42.9251 114.144 42.1091 110.856 42.1091 107.208C42.1091 103.512 42.9251 100.224 44.5571 97.344C46.1891 94.416 48.4451 92.16 51.3251 90.576C54.2051 88.944 57.4691 88.128 61.1171 88.128C64.1411 88.128 66.8771 88.728 69.3251 89.928C71.8211 91.08 73.8371 92.784 75.3731 95.04L72.7091 96.984C71.3651 95.112 69.6851 93.72 67.6691 92.808C65.7011 91.848 63.5171 91.368 61.1171 91.368C58.1891 91.368 55.5491 92.04 53.1971 93.384C50.8931 94.68 49.0691 96.528 47.7251 98.928C46.4291 101.328 45.7811 104.088 45.7811 107.208C45.7811 110.328 46.4291 113.088 47.7251 115.488C49.0691 117.888 50.8931 119.76 53.1971 121.104C55.5491 122.4 58.1891 123.048 61.1171 123.048C63.5171 123.048 65.7011 122.592 67.6691 121.68C69.6851 120.72 71.3651 119.304 72.7091 117.432L75.3731 119.376C73.8371 121.632 71.8211 123.36 69.3251 124.56C66.8771 125.712 64.1411 126.288 61.1171 126.288Z" fill="black"/>
<path d="M92.9542 96.624C94.1062 93.888 95.9062 91.8 98.3542 90.36C100.802 88.872 103.778 88.128 107.282 88.128V91.656L106.418 91.584C102.242 91.584 98.9782 92.904 96.6262 95.544C94.2742 98.136 93.0982 101.76 93.0982 106.416V126H89.4982V88.416H92.9542V96.624Z" fill="black"/>
<path d="M122.433 88.416H126.033V126H122.433V88.416ZM124.233 79.272C123.417 79.272 122.721 79.008 122.145 78.48C121.569 77.904 121.281 77.208 121.281 76.392C121.281 75.576 121.569 74.88 122.145 74.304C122.721 73.728 123.417 73.44 124.233 73.44C125.049 73.44 125.745 73.728 126.321 74.304C126.897 74.832 127.185 75.504 127.185 76.32C127.185 77.136 126.897 77.832 126.321 78.408C125.745 78.984 125.049 79.272 124.233 79.272Z" fill="black"/>
<rect x="114.801" y="69" width="17.8789" height="11" fill="white"/>
<path d="M164.822 88.128C168.326 88.128 171.494 88.944 174.326 90.576C177.158 92.16 179.366 94.416 180.95 97.344C182.582 100.224 183.398 103.512 183.398 107.208C183.398 110.904 182.582 114.192 180.95 117.072C179.366 119.952 177.158 122.208 174.326 123.84C171.494 125.472 168.326 126.288 164.822 126.288C161.462 126.288 158.414 125.496 155.678 123.912C152.99 122.28 150.902 120.024 149.414 117.144V126H145.958V72.576H149.558V96.984C151.046 94.2 153.134 92.04 155.822 90.504C158.51 88.92 161.51 88.128 164.822 88.128ZM164.606 123.048C167.486 123.048 170.078 122.376 172.382 121.032C174.686 119.688 176.486 117.816 177.782 115.416C179.126 113.016 179.798 110.28 179.798 107.208C179.798 104.136 179.126 101.4 177.782 99C176.486 96.6 174.686 94.728 172.382 93.384C170.078 92.04 167.486 91.368 164.606 91.368C161.726 91.368 159.134 92.04 156.83 93.384C154.574 94.728 152.774 96.6 151.43 99C150.134 101.4 149.486 104.136 149.486 107.208C149.486 110.28 150.134 113.016 151.43 115.416C152.774 117.816 154.574 119.688 156.83 121.032C159.134 122.376 161.726 123.048 164.606 123.048Z" fill="black"/>
<path d="M216.577 88.128C220.081 88.128 223.249 88.944 226.081 90.576C228.913 92.16 231.121 94.416 232.705 97.344C234.337 100.224 235.153 103.512 235.153 107.208C235.153 110.904 234.337 114.192 232.705 117.072C231.121 119.952 228.913 122.208 226.081 123.84C223.249 125.472 220.081 126.288 216.577 126.288C213.217 126.288 210.169 125.496 207.433 123.912C204.745 122.28 202.657 120.024 201.169 117.144V126H197.713V72.576H201.313V96.984C202.801 94.2 204.889 92.04 207.577 90.504C210.265 88.92 213.265 88.128 216.577 88.128ZM216.361 123.048C219.241 123.048 221.833 122.376 224.137 121.032C226.441 119.688 228.241 117.816 229.537 115.416C230.881 113.016 231.553 110.28 231.553 107.208C231.553 104.136 230.881 101.4 229.537 99C228.241 96.6 226.441 94.728 224.137 93.384C221.833 92.04 219.241 91.368 216.361 91.368C213.481 91.368 210.889 92.04 208.585 93.384C206.329 94.728 204.529 96.6 203.185 99C201.889 101.4 201.241 104.136 201.241 107.208C201.241 110.28 201.889 113.016 203.185 115.416C204.529 117.816 206.329 119.688 208.585 121.032C210.889 122.376 213.481 123.048 216.361 123.048Z" fill="black"/>
<path d="M301.921 108.072H269.593C269.689 111 270.433 113.616 271.825 115.92C273.217 118.176 275.089 119.928 277.441 121.176C279.841 122.424 282.529 123.048 285.505 123.048C287.953 123.048 290.209 122.616 292.273 121.752C294.385 120.84 296.137 119.52 297.529 117.792L299.617 120.168C297.985 122.136 295.921 123.648 293.425 124.704C290.977 125.76 288.313 126.288 285.433 126.288C281.689 126.288 278.353 125.472 275.425 123.84C272.497 122.208 270.193 119.952 268.513 117.072C266.881 114.192 266.065 110.904 266.065 107.208C266.065 103.56 266.833 100.296 268.369 97.416C269.953 94.488 272.113 92.208 274.849 90.576C277.585 88.944 280.657 88.128 284.065 88.128C287.473 88.128 290.521 88.944 293.209 90.576C295.945 92.16 298.081 94.392 299.617 97.272C301.201 100.152 301.993 103.416 301.993 107.064L301.921 108.072ZM284.065 91.296C281.425 91.296 279.049 91.896 276.937 93.096C274.825 94.248 273.121 95.904 271.825 98.064C270.577 100.176 269.857 102.576 269.665 105.264H298.465C298.321 102.576 297.601 100.176 296.305 98.064C295.009 95.952 293.305 94.296 291.193 93.096C289.081 91.896 286.705 91.296 284.065 91.296Z" fill="black"/>
<path d="M242.085 128V69.993L249.584 58L256.891 69.993V128H242.085Z" stroke="black" stroke-width="2"/>
<path d="M242.085 70.3525L245.657 73.6467L249.006 70.3525L252.801 73.6467L256.15 70.3525" stroke="black" stroke-width="2"/>
<path d="M247.269 62.1172H251.71" stroke="black" stroke-width="2"/>
<path d="M241.836 120.669L256.545 120.431" stroke="black" stroke-width="2"/>
<path d="M242.085 116.471H256.15" stroke="black" stroke-width="2"/>
<path d="M247.269 62.1176L249.489 58L251.71 62.1176H247.269Z" fill="black" stroke="black" stroke-width="2"/>
<path d="M128.556 47.0043C127.635 46.475 126.668 45.9748 125.688 45.623C125.114 45.4168 124.527 45.3788 123.932 45.3329C122.997 45.2606 121.979 45.1176 121.064 45.4431C118.766 46.2611 118.81 49.0335 119.464 51.3804C120.997 56.8791 126.2 60.0788 130.786 60.5851C132.727 60.7994 134.837 60.2045 135.663 57.8863C136.521 55.4808 135.434 52.6428 133.834 51.0786C132.857 50.1227 130.464 48.8877 129.234 49.8308C127.885 50.8651 127.059 52.9884 127.288 54.8626C127.461 56.2732 128.026 58.2019 129.522 57.8689C131.961 57.3264 131.577 54.1414 130.654 52.1755C129.186 49.0508 126.322 46.6497 123.22 47.341C122.381 47.5281 121.632 47.9684 121.108 48.7861C120.251 50.1251 119.577 52.1872 119.649 53.8876C119.704 55.1685 120.462 56.0902 121.318 56.7662C122.753 57.9001 125.051 58.9903 126.82 58.5654C128.141 58.2479 128.732 56.3264 129.176 55.0773C129.965 52.8552 130.612 50.4377 130.112 48.02C129.788 46.4522 129.096 44.8824 128.156 43.7078C126.908 42.1479 125.114 41.6593 123.357 41.8274C122.221 41.9361 121.241 42.4344 120.362 43.2783C119.071 44.5171 117.814 46.1775 117.04 47.9329C115.951 50.4006 117.202 53.6729 118.718 55.501C119.47 56.4083 120.503 56.8481 121.532 57.1028C122.96 57.4563 124.989 57.782 126.293 56.7314C127.214 55.9899 127.745 54.5768 128.069 53.3768C128.586 51.4598 128.624 49.6194 127.634 47.9213C125.816 44.7999 122.184 42.7177 119.015 42.6167C117.632 42.5726 116.418 43.0168 115.542 44.3462C113.708 47.1307 113.987 51.0834 114.801 54.2474C115.7 57.7408 117.41 61.3383 120.918 61.2235C122.062 61.186 122.865 60.5072 123.498 59.4127C124.937 56.9263 125.858 53.6703 126.181 50.6897C126.48 47.9316 125.423 44.934 123.459 43.348C121.537 41.7957 118.557 43.7017 117.269 45.4722C115.314 48.1597 113.786 51.6357 113.011 55.0657C112.757 56.1902 112.384 57.6747 112.586 58.8672C112.803 60.1487 114.233 60.5477 115.142 60.6431C116.237 60.7579 117.186 60.363 118.098 59.6681C119.766 58.3973 121.435 56.5581 122.44 54.5086C122.975 53.4156 123.249 52.1254 123.327 50.8696C123.401 49.6898 123.094 48.9566 122.293 48.2695C120.701 46.9026 118.59 46.3336 116.859 47.753C116.09 48.3843 115.611 49.4273 115.22 50.4053C114.476 52.2704 113.752 54.4496 113.572 56.5225C113.333 59.2663 114.584 62.8918 116.996 63.6611C119.817 64.5607 123.023 63.2582 123.898 59.7958C124.41 57.7703 124.436 55.5992 123.386 53.8063C122.691 52.6188 121.505 52.0738 120.615 53.2608C119.292 55.0253 119.197 58.0564 119.313 60.2891C119.384 61.646 119.753 62.7401 120.479 63.8003C121.503 65.2974 123.031 66.8892 124.654 67.3522C126.873 67.9853 128.694 65.4761 128.834 63.0401C128.933 61.3323 128.3 59.2503 127.152 58.1475C126.353 57.3804 125.867 58.3222 125.688 59.2386C125.291 61.2763 126.264 64.0464 127.605 65.3209C128.266 65.9489 129.255 66.2944 130.088 66.3772C131.3 66.4977 132.17 65.5026 132.829 64.4039C134.055 62.3607 133.494 59.392 132.337 57.4569C131.686 56.3685 129.871 54.6513 129.532 56.8823C129.409 57.6959 129.569 58.546 129.786 59.3141C130.172 60.685 130.792 61.3107 131.956 61.6878C132.739 61.9413 133.542 62.0923 134.312 61.6762C135.115 61.2421 136.132 60.2044 136.38 59.1457C136.616 58.1422 136.143 56.9652 135.766 56.122C135.193 54.8426 134.503 53.7973 133.268 53.5161C132.163 53.2645 130.894 53.6408 130.42 54.9961C129.76 56.8798 130.526 59.8515 132.244 60.527C132.89 60.7809 133.412 60.4194 133.839 59.8654C134.878 58.5172 134.7 56.5479 134.551 54.8684C134.417 53.3517 134.221 51.6837 133.522 50.3589C132.865 49.1133 131.639 48.1885 130.498 47.7008C129.47 47.2614 127.704 47.4152 127.21 48.8267C126.669 50.3744 127.101 52.6732 128.395 53.4291C130.068 54.406 130.623 51.943 130.644 50.3705C130.672 48.2697 129.35 46.2392 127.63 45.7565C126.338 45.394 125.462 46.0972 124.718 47.3293C123.656 49.086 122.722 52.8494 124.449 54.5028C124.959 54.9908 125.765 55.2077 126.405 55.1238C127.431 54.9893 127.983 53.7698 128.376 52.7732C128.771 51.7725 129.018 50.7765 128.761 49.6741C128.476 48.4466 127.753 47.0746 126.722 46.5749C123.762 45.1396 120.32 47.3355 118.942 50.4982C117.989 52.685 117.774 55.7492 119.903 57.0564C121.756 58.1939 124.069 57.2039 124.854 54.8916C125.577 52.7613 125.572 49.7178 124.069 48.0838C123.485 47.4494 122.695 46.7275 121.874 46.6445C120.875 46.5436 119.682 47.2019 118.898 47.8749C117.625 48.9675 116.883 50.6605 116.181 52.2741C115.418 54.0295 114.693 55.8402 114.494 57.8225C114.387 58.8827 114.28 60.1738 114.518 61.2235C114.8 62.4698 116.106 62.6849 117.025 62.6976C118.675 62.7205 120.886 60.877 121.406 58.989C121.686 57.9686 121.799 56.6381 120.771 56.2729C118.742 55.5517 118.086 59.9148 117.845 61.4556C117.616 62.9137 117.605 64.4044 117.767 65.8723C117.908 67.1571 118.128 69.0426 119.498 69.163C120.673 69.2662 122.075 68.7358 123.103 68.1067C124.534 67.2315 125.223 65.5514 125.737 63.8236C126.144 62.4547 126.308 60.7824 125.454 59.5868C125.045 59.0145 123.949 58.7235 123.703 59.6158C123.252 61.2483 123.782 62.9406 125.171 63.603C127.029 64.4887 128.91 62.077 129.205 60.1208C129.307 59.4465 129.424 58.4518 129.054 57.8341C128.517 56.9377 127.076 56.6473 126.244 56.5457C124.237 56.3004 122.052 58.0958 121.625 60.4574C121.442 61.4682 121.383 62.673 121.61 63.6843C121.89 64.9257 122.93 65.5992 123.913 65.8897C125.518 66.3642 127.626 64.8102 128.088 62.953C128.44 61.5402 128.597 59.6842 128.025 58.3216C127.472 57.0057 126.93 57.7336 126.703 58.902C126.556 59.6557 126.357 60.7388 126.61 61.4963C126.975 62.5849 128.35 62.9387 129.205 63.011C130.188 63.094 131.116 62.7488 131.99 62.2333C133.255 61.4878 134.915 60.3607 135.551 58.7627C136.766 55.7087 133.894 54.4276 131.883 54.0965C129.887 53.7679 127.256 53.9463 126.405 56.5515C126.098 57.4923 126.009 58.5577 125.913 59.552C125.872 59.9732 125.692 60.8884 126.039 61.2467C127.089 62.3305 127.234 57.7502 127.176 57.2944C126.916 55.2559 125.521 52.7105 123.796 52.0826C122.803 51.7215 121.568 51.6477 120.557 51.9375C119.011 52.3804 118.053 54.1027 117.279 55.6171C116.933 56.2929 115.493 59.9632 117.001 60.2194C118.509 60.4757 119.953 58.3139 120.196 56.743C120.383 55.5294 120.182 53.9042 119.142 53.3594C117.856 52.6852 116.789 53.7911 116.333 55.1876C115.908 56.486 115.198 58.7854 116.42 59.7609C117.312 60.4729 118.696 60.2958 119.054 58.9484C119.42 57.5758 119.41 56.0084 118.723 54.7813C117.916 53.3416 116.317 53.8253 115.401 54.8394C114.279 56.0812 114.026 58.3852 114.303 60.1208C114.433 60.9332 115.548 62.8374 116.425 62.3784C117.171 61.9881 117.307 60.2089 117.293 59.4069C117.281 58.6526 116.682 56.9377 115.786 57.6832C114.58 58.6871 114.688 61.6065 115.24 62.9704C115.629 63.933 116.432 64.5488 117.22 64.9843C118.473 65.6766 120.118 66.3238 121.503 65.82C123.117 65.2329 124.373 63.4297 123.981 61.3512C123.713 59.9281 122.109 60.1165 121.449 60.9101C120.428 62.1396 119.939 64.0361 119.689 65.704C119.589 66.3663 119.711 67.1132 120.303 66.3134C120.873 65.5439 121.265 63.7833 120.157 63.4289C118.934 63.0378 117.696 63.0655 116.772 64.1776C115.993 65.1141 115.409 66.7192 115.581 68.0719C115.743 69.3361 117.621 68.1332 117.967 67.6482C118.334 67.1327 118.575 66.0368 118.376 65.3848C118.137 64.5988 117.353 64.7086 117.201 65.4718C116.816 67.3952 117.503 69.3772 119.152 69.8768C121.294 70.5259 123.452 68.8931 124.615 66.7951C125.019 66.067 125.781 64.1306 125.283 63.2432C125.021 62.7754 124.043 62.9732 123.786 63.336C122.731 64.8224 124.886 66.4759 125.752 66.9344C126.312 67.231 127.198 67.6841 127.844 67.4219C128.43 67.1838 128.621 66.1779 128.654 65.5531C128.712 64.4424 128.293 63.1748 127.327 62.8253C126.351 62.4722 126.038 63.7353 126.152 64.6593C126.422 66.8653 128.738 66.4838 129.932 65.6807C131.595 64.5621 133.225 61.5548 132.737 59.1922C132.539 58.2354 131.068 56.7426 130.322 57.9037C129.695 58.881 130.169 60.4807 131.073 60.8985C132.571 61.5905 133.048 59.6437 132.732 58.2288C132.434 56.8949 131.702 55.8333 130.834 54.9555C129.084 53.1839 126.75 51.719 124.479 51.2411C120.96 50.5006 116.648 51.6295 115.069 55.8028C114.591 57.0665 113.679 60.0676 115.181 60.9449C117.627 62.3731 119.281 56.2363 116.576 55.9537C115.987 55.892 115.446 56.623 115.123 57.0738C114.224 58.3283 113.642 59.7981 113.201 61.3512C112.766 62.8837 112.474 64.4936 112.313 66.0986C112.191 67.3123 112.008 68.9054 112.582 70.0161C113.46 71.7176 115.249 70.9698 116.03 69.6041C117.066 67.7916 117.468 65.0799 117.113 62.9298C116.932 61.8332 116.375 61.0172 115.479 60.6663C114.927 60.4505 114.166 60.4022 114.02 61.2583C113.865 62.1749 114.14 63.3753 114.689 64.0441C115.661 65.228 116.098 62.4841 116.186 61.8387C116.358 60.5848 116.124 57.8079 114.572 57.9618C112.531 58.1642 111.641 62.0104 111.425 63.9164C111.334 64.7282 111.235 65.8427 111.708 66.5397C112.416 67.5807 113.833 67.1306 114.645 66.5803C117.764 64.4651 118.658 59.2402 118.889 55.3501C119.045 52.7067 118.925 48.6333 116.694 47.1088C114.878 45.8678 113.111 48.2972 112.591 50.1093C112.226 51.3821 111.76 54.191 112.899 55.1644C113.648 55.8053 114.501 55.428 114.747 54.4041C114.98 53.4342 114.754 52.4217 114.035 51.8446C112.718 50.7866 111.144 51.218 110.118 52.5875C108.637 54.5635 107.794 57.7831 108.426 60.3935C109.022 62.861 111.666 62.4902 112.899 60.9333C113.969 59.5807 114.489 57.5841 114.928 55.8608C115.376 54.0998 115.773 52.2282 115.747 50.3705C115.738 49.6821 115.292 46.7171 114.128 47.3293C113.134 47.8519 113.752 50.9118 114.079 51.6938C114.789 53.3919 116.074 52.3121 116.294 50.887C116.539 49.2887 116.378 45.2652 114.303 45.5418C113.58 45.6383 112.995 46.1453 112.596 46.8476C111.791 48.2656 111.304 50.1271 110.967 51.775C110.717 52.9946 110.223 55.6773 112.021 55.2224C113.893 54.7487 115.194 51.8398 115.011 49.6973C114.916 48.5856 114.044 47.5686 113.069 47.6892C112.487 47.7612 112.207 48.3505 111.991 48.9428C111.324 50.7715 111.055 52.8516 110.967 54.8278C110.906 56.1998 110.847 57.7731 111.221 59.0993C111.706 60.8222 113.146 61.3908 114.567 61.1829C116.669 60.8753 118.696 59.5699 120.44 58.2171C122.451 56.6568 124.364 54.6537 125.444 52.0536C125.734 51.3574 126.173 50.1445 125.927 49.3258C125.744 48.7154 125.18 48.8826 124.849 49.1981C123.309 50.666 123.272 53.8311 124.844 55.2398C125.956 56.2356 127.41 56.5415 128.771 56.5341C129.587 56.5296 132.485 56.4547 132.703 54.9438C132.946 53.2534 129.875 53.0569 129.103 53.4C127.963 53.9069 127.966 56.0096 128.283 57.1435C128.726 58.7234 130.007 59.4394 131.268 58.6002C132.138 58.0218 133.087 56.1454 132.346 55.0019C131.906 54.3224 131.205 54.4469 131.503 55.4197C131.789 56.3554 132.836 58.036 133.863 57.7354C134.918 57.4269 134.814 55.5284 134.029 54.9671C132.766 54.0636 131.357 54.208 130.878 56.0117C130.54 57.2861 131.003 59.2454 132.449 58.7743C133.256 58.5113 134.266 57.5292 134.254 56.4296C134.234 54.6906 130.913 55.1501 130.078 55.3501C128.763 55.6653 127.328 56.3367 126.108 57.01C125.983 57.079 125.935 57.2959 126.152 57.0738C127.049 56.1522 127.6 54.5903 127.849 53.2492C128.294 50.8539 127.704 48.2279 126.576 46.215C126.123 45.406 125.295 44.6984 125.171 46.1338C125.129 46.6209 125.196 48.8405 126.088 48.287C126.396 48.096 126.519 47.5964 126.508 47.2133C126.477 46.1756 125.667 45.6555 124.937 45.3561C122.729 44.45 120.219 44.4065 118.567 46.6329C117.838 47.6146 115.993 52.2714 118.625 51.6705C121.147 51.0948 122.387 47.5105 122.713 44.8337C122.864 43.5913 122.895 40.8931 121.274 41.0033C120.739 41.0397 120.47 41.5874 120.284 42.1292C119.758 43.6597 119.491 45.5929 119.796 47.2249C120.251 49.6609 122.387 50.8362 124.283 49.8191C125.241 49.3058 126.061 47.7148 125.532 46.4704C125.472 46.3287 125.185 45.9976 125.244 46.1396C125.488 46.7189 126.315 46.9965 126.786 47.0914C129.271 47.5922 130.015 43.1145 127.347 42.7328C126.112 42.5561 125.76 44.1467 125.908 45.3096C125.993 45.981 126.72 47.4366 127.376 46.5052C127.917 45.7366 128.089 44.1917 127.317 43.5569C126.079 42.5374 123.515 42.5823 123.201 44.7119C123.037 45.8191 123.483 47.4933 124.654 47.4802C124.958 47.4769 125.113 47.1957 125.118 46.8592C125.129 45.957 124.376 45.5648 123.752 45.3793C120.986 44.5567 119.025 46.7409 117.591 49.3374C116.656 51.0314 115.91 52.8952 115.591 54.8974C115.403 56.0799 115.14 58.1055 115.747 59.2038C116.109 59.8584 116.871 60.1334 117.474 59.8364C118.834 59.167 119.634 56.945 119.864 55.3501C120.218 52.8981 119.214 50.1318 116.85 50.3357C114.69 50.5218 113.628 53.5541 113.167 55.7041C113.083 56.0943 112.925 56.8281 113.133 57.2305C113.439 57.8252 114.193 57.0531 114.411 56.7778C115.051 55.9688 115.597 54.0947 114.972 53.0925C113.689 51.038 111.372 53.4887 110.733 54.9671C110.281 56.0123 110.071 57.2095 109.933 58.3622C109.868 58.8995 109.707 59.7986 109.933 60.3413C110.363 61.3755 111.415 59.9349 111.625 59.4882C111.826 59.0644 112.233 57.886 111.747 57.4975C110.858 56.7852 110.885 59.8148 110.874 60.0918C110.79 62.2292 110.685 65.3294 112.401 66.6906C113.597 67.6395 114.381 66.2631 114.313 64.9379C114.261 63.9277 113.531 64.0198 113.303 64.9147C112.984 66.1676 112.946 68.9098 114.079 69.6853C115.119 70.3969 116.18 68.9913 116.645 68.0487C116.876 67.5783 117.259 65.9998 117.054 66.4875C116.515 67.771 118.168 68.3403 118.889 68.4898C119.738 68.666 120.791 68.7132 121.601 68.2808C122.607 67.7435 123.399 66.3332 123.903 65.2281C124.091 64.8159 125.039 62.0357 123.659 62.6628C122.824 63.0421 122.596 65.0849 123.264 65.7388C124.105 66.5617 126.409 67.3465 127.171 65.9825C128.022 64.4593 126.408 63.1173 125.42 62.6164C125.135 62.4721 123.784 61.9316 123.957 62.9182C124.283 64.7815 126.753 64.443 127.756 63.928C129.23 63.1715 131.799 60.4761 130.712 58.2288C130.551 57.8945 130.183 57.641 129.912 58.0082C129.458 58.6259 129.514 59.8199 129.717 60.5386C129.953 61.3698 131.062 62.1547 131.62 61.2815C132.74 59.5291 132.791 56.6147 131.854 54.7697C131.556 54.1834 131.122 53.5978 130.586 53.3072C130.131 53.0609 129.939 53.3747 130.049 53.9108C130.205 54.6705 131.097 56.5641 132 55.8086C133.077 54.9078 133.125 52.5063 132.917 51.1366C132.848 50.6809 132.275 48.7547 131.883 50.0571C131.7 50.6644 131.765 51.5542 132.317 51.8388C132.769 52.0718 132.504 51.5233 132.342 51.3107C131.954 50.8028 131.19 50.1786 130.766 50.9393C130.254 51.8592 129.964 53.0318 129.669 54.0617C129.219 55.6254 128.833 57.22 128.527 58.8323C128.454 59.2173 128.287 59.8188 128.317 60.2368C128.318 60.2488 128.572 59.7385 128.508 59.465C128.322 58.6743 127.458 58.4103 126.869 58.3448C124.517 58.0839 121.987 59.2379 120.049 60.736C118.775 61.7211 117.762 63.0256 117.118 64.6593C116.802 65.4611 116.388 66.7031 116.82 67.5844C117.191 68.3391 118.074 68.4611 118.708 68.275C119.733 67.9741 120.417 66.9389 120.727 65.791C120.917 65.0901 121.093 63.4561 120.342 63.0342C120.204 62.9567 120.228 63.2835 120.23 63.3244C120.248 63.7397 120.422 64.0467 120.664 64.3343C120.697 64.3739 121.417 65.1532 121.406 64.7173C121.392 64.1882 120.829 64.3509 120.723 64.7463C120.529 65.4668 120.81 66.3371 121.493 66.4701C121.861 66.5415 122.048 66.1868 122.166 65.8316C122.479 64.8959 122.37 63.853 121.815 63.0749C120.418 61.1168 117.362 61.1257 115.503 61.9141C114.762 62.2285 114.004 62.7992 113.63 63.6611C113.306 64.4088 113.451 65.3518 114.177 65.6459C116.939 66.7663 117.602 56.9438 113.738 56.8591C112.959 56.842 111.836 57.7534 112.342 58.8207C112.471 59.0912 112.721 59.1088 112.908 58.8904C113.368 58.3548 113.491 57.306 113.308 56.6037C113.005 55.4348 111.537 54.5635 110.986 55.9653C110.767 56.5249 110.694 57.1887 110.665 57.7993C110.639 58.3153 110.686 58.2527 110.996 58.3913" stroke="black" stroke-linecap="round" stroke-linejoin="round"/>
<path d="M125.251 47.5C125.251 43.4863 123.021 32.0963 125.251 28.7756C127.807 24.9711 131.49 23.474 135.526 23.2394C144.839 22.6981 155.031 27.1146 162.407 33.8435C168.014 38.958 170.616 46.878 166.007 54.0295C164.05 57.0667 160.789 60.1302 157.65 61.2266C155.442 61.9977 152.446 62.7876 150.812 60.4175C146.053 53.5176 146.516 44.0241 146.742 35.6534C147.096 22.51 157.442 9.89984 167.726 6.20475C176.279 3.13129 183.456 6.88693 190.862 11.8688C196.359 15.5658 201.802 18.9993 206.311 24.3466C211.157 30.0953 219.74 41.6483 216.115 51.0058C214.495 55.1884 209.745 59.3229 206.039 60.4814C202.513 61.5838 200.359 60.6816 198.695 56.6912C197.08 52.8192 196.192 47.7834 195.963 43.5319C195.475 34.4415 195.652 25.1887 199.003 16.894C200.659 12.7923 203.541 9.43016 206.528 6.63061C211.4 2.06336 216.22 0.496796 222.447 1.13694C232.019 2.121 240.67 11.1893 243.612 21.9618C246.231 31.5545 245.176 41.4135 246.361 51.1762C246.95 56.027 248.549 57.9674 251.245 61.1415" stroke="black" stroke-width="2" stroke-linecap="round" stroke-linejoin="round"/>
<path d="M17.136 301.288C14.112 301.288 11.232 300.832 8.496 299.92C5.76 299.008 3.624 297.856 2.088 296.464L3.744 293.584C5.28 294.88 7.248 295.96 9.648 296.824C12.096 297.688 14.64 298.12 17.28 298.12C21.072 298.12 23.856 297.496 25.632 296.248C27.456 295 28.368 293.272 28.368 291.064C28.368 289.48 27.864 288.232 26.856 287.32C25.896 286.408 24.696 285.736 23.256 285.304C21.816 284.872 19.824 284.416 17.28 283.936C14.304 283.408 11.904 282.832 10.08 282.208C8.256 281.584 6.696 280.576 5.4 279.184C4.104 277.792 3.456 275.872 3.456 273.424C3.456 270.448 4.68 268 7.128 266.08C9.624 264.112 13.152 263.128 17.712 263.128C20.112 263.128 22.488 263.464 24.84 264.136C27.192 264.808 29.112 265.696 30.6 266.8L28.944 269.68C27.408 268.576 25.656 267.736 23.688 267.16C21.72 266.584 19.704 266.296 17.64 266.296C14.136 266.296 11.496 266.944 9.72 268.24C7.944 269.536 7.056 271.24 7.056 273.352C7.056 275.032 7.56 276.352 8.568 277.312C9.576 278.224 10.8 278.92 12.24 279.4C13.728 279.832 15.792 280.312 18.432 280.84C21.36 281.368 23.712 281.944 25.488 282.568C27.312 283.144 28.848 284.104 30.096 285.448C31.344 286.792 31.968 288.64 31.968 290.992C31.968 294.112 30.672 296.608 28.08 298.48C25.488 300.352 21.84 301.288 17.136 301.288Z" fill="black"/>
<path d="M61.1171 301.288C57.4691 301.288 54.2051 300.472 51.3251 298.84C48.4451 297.208 46.1891 294.952 44.5571 292.072C42.9251 289.144 42.1091 285.856 42.1091 282.208C42.1091 278.512 42.9251 275.224 44.5571 272.344C46.1891 269.416 48.4451 267.16 51.3251 265.576C54.2051 263.944 57.4691 263.128 61.1171 263.128C64.1411 263.128 66.8771 263.728 69.3251 264.928C71.8211 266.08 73.8371 267.784 75.3731 270.04L72.7091 271.984C71.3651 270.112 69.6851 268.72 67.6691 267.808C65.7011 266.848 63.5171 266.368 61.1171 266.368C58.1891 266.368 55.5491 267.04 53.1971 268.384C50.8931 269.68 49.0691 271.528 47.7251 273.928C46.4291 276.328 45.7811 279.088 45.7811 282.208C45.7811 285.328 46.4291 288.088 47.7251 290.488C49.0691 292.888 50.8931 294.76 53.1971 296.104C55.5491 297.4 58.1891 298.048 61.1171 298.048C63.5171 298.048 65.7011 297.592 67.6691 296.68C69.6851 295.72 71.3651 294.304 72.7091 292.432L75.3731 294.376C73.8371 296.632 71.8211 298.36 69.3251 299.56C66.8771 300.712 64.1411 301.288 61.1171 301.288Z" fill="black"/>
<path d="M92.9542 271.624C94.1062 268.888 95.9062 266.8 98.3542 265.36C100.802 263.872 103.778 263.128 107.282 263.128V266.656L106.418 266.584C102.242 266.584 98.9782 267.904 96.6262 270.544C94.2742 273.136 93.0982 276.76 93.0982 281.416V301H89.4982V263.416H92.9542V271.624Z" fill="black"/>
<path d="M122.433 263.416H126.033V301H122.433V263.416ZM124.233 254.272C123.417 254.272 122.721 254.008 122.145 253.48C121.569 252.904 121.281 252.208 121.281 251.392C121.281 250.576 121.569 249.88 122.145 249.304C122.721 248.728 123.417 248.44 124.233 248.44C125.049 248.44 125.745 248.728 126.321 249.304C126.897 249.832 127.185 250.504 127.185 251.32C127.185 252.136 126.897 252.832 126.321 253.408C125.745 253.984 125.049 254.272 124.233 254.272Z" fill="black"/>
<rect x="114.801" y="244" width="17.8789" height="11" fill="white"/>
<path d="M164.822 263.128C168.326 263.128 171.494 263.944 174.326 265.576C177.158 267.16 179.366 269.416 180.95 272.344C182.582 275.224 183.398 278.512 183.398 282.208C183.398 285.904 182.582 289.192 180.95 292.072C179.366 294.952 177.158 297.208 174.326 298.84C171.494 300.472 168.326 301.288 164.822 301.288C161.462 301.288 158.414 300.496 155.678 298.912C152.99 297.28 150.902 295.024 149.414 292.144V301H145.958V247.576H149.558V271.984C151.046 269.2 153.134 267.04 155.822 265.504C158.51 263.92 161.51 263.128 164.822 263.128ZM164.606 298.048C167.486 298.048 170.078 297.376 172.382 296.032C174.686 294.688 176.486 292.816 177.782 290.416C179.126 288.016 179.798 285.28 179.798 282.208C179.798 279.136 179.126 276.4 177.782 274C176.486 271.6 174.686 269.728 172.382 268.384C170.078 267.04 167.486 266.368 164.606 266.368C161.726 266.368 159.134 267.04 156.83 268.384C154.574 269.728 152.774 271.6 151.43 274C150.134 276.4 149.486 279.136 149.486 282.208C149.486 285.28 150.134 288.016 151.43 290.416C152.774 292.816 154.574 294.688 156.83 296.032C159.134 297.376 161.726 298.048 164.606 298.048Z" fill="black"/>
<path d="M216.577 263.128C220.081 263.128 223.249 263.944 226.081 265.576C228.913 267.16 231.121 269.416 232.705 272.344C234.337 275.224 235.153 278.512 235.153 282.208C235.153 285.904 234.337 289.192 232.705 292.072C231.121 294.952 228.913 297.208 226.081 298.84C223.249 300.472 220.081 301.288 216.577 301.288C213.217 301.288 210.169 300.496 207.433 298.912C204.745 297.28 202.657 295.024 201.169 292.144V301H197.713V247.576H201.313V271.984C202.801 269.2 204.889 267.04 207.577 265.504C210.265 263.92 213.265 263.128 216.577 263.128ZM216.361 298.048C219.241 298.048 221.833 297.376 224.137 296.032C226.441 294.688 228.241 292.816 229.537 290.416C230.881 288.016 231.553 285.28 231.553 282.208C231.553 279.136 230.881 276.4 229.537 274C228.241 271.6 226.441 269.728 224.137 268.384C221.833 267.04 219.241 266.368 216.361 266.368C213.481 266.368 210.889 267.04 208.585 268.384C206.329 269.728 204.529 271.6 203.185 274C201.889 276.4 201.241 279.136 201.241 282.208C201.241 285.28 201.889 288.016 203.185 290.416C204.529 292.816 206.329 294.688 208.585 296.032C210.889 297.376 213.481 298.048 216.361 298.048Z" fill="black"/>
<path d="M301.921 283.072H269.593C269.689 286 270.433 288.616 271.825 290.92C273.217 293.176 275.089 294.928 277.441 296.176C279.841 297.424 282.529 298.048 285.505 298.048C287.953 298.048 290.209 297.616 292.273 296.752C294.385 295.84 296.137 294.52 297.529 292.792L299.617 295.168C297.985 297.136 295.921 298.648 293.425 299.704C290.977 300.76 288.313 301.288 285.433 301.288C281.689 301.288 278.353 300.472 275.425 298.84C272.497 297.208 270.193 294.952 268.513 292.072C266.881 289.192 266.065 285.904 266.065 282.208C266.065 278.56 266.833 275.296 268.369 272.416C269.953 269.488 272.113 267.208 274.849 265.576C277.585 263.944 280.657 263.128 284.065 263.128C287.473 263.128 290.521 263.944 293.209 265.576C295.945 267.16 298.081 269.392 299.617 272.272C301.201 275.152 301.993 278.416 301.993 282.064L301.921 283.072ZM284.065 266.296C281.425 266.296 279.049 266.896 276.937 268.096C274.825 269.248 273.121 270.904 271.825 273.064C270.577 275.176 269.857 277.576 269.665 280.264H298.465C298.321 277.576 297.601 275.176 296.305 273.064C295.009 270.952 293.305 269.296 291.193 268.096C289.081 266.896 286.705 266.296 284.065 266.296Z" fill="black"/>
<path d="M242.085 303V244.993L249.584 233L256.891 244.993V303H242.085Z" stroke="black" stroke-width="2"/>
<path d="M242.085 245.353L245.657 248.647L249.006 245.353L252.801 248.647L256.15 245.353" stroke="black" stroke-width="2"/>
<path d="M247.268 237.117H251.709" stroke="black" stroke-width="2"/>
<path d="M241.835 295.669L256.544 295.445" stroke="black" stroke-width="2"/>
<path d="M242.085 291.471H256.15" stroke="black" stroke-width="2"/>
<path d="M247.268 237.118L249.488 233L251.709 237.118H247.268Z" fill="black" stroke="black" stroke-width="2"/>
<path d="M128.556 222.004C127.635 221.475 126.668 220.975 125.688 220.623C125.114 220.417 124.527 220.379 123.932 220.333C122.997 220.261 121.979 220.118 121.064 220.443C118.766 221.261 118.81 224.034 119.464 226.38C120.997 231.879 126.2 235.079 130.786 235.585C132.727 235.799 134.837 235.205 135.663 232.886C136.521 230.481 135.434 227.643 133.834 226.079C132.857 225.123 130.464 223.888 129.234 224.831C127.885 225.865 127.059 227.988 127.288 229.863C127.461 231.273 128.026 233.202 129.522 232.869C131.961 232.326 131.577 229.141 130.654 227.175C129.186 224.051 126.322 221.65 123.22 222.341C122.381 222.528 121.632 222.968 121.108 223.786C120.251 225.125 119.577 227.187 119.649 228.888C119.704 230.168 120.462 231.09 121.318 231.766C122.753 232.9 125.051 233.99 126.82 233.565C128.141 233.248 128.732 231.326 129.176 230.077C129.965 227.855 130.612 225.438 130.112 223.02C129.788 221.452 129.096 219.882 128.156 218.708C126.908 217.148 125.114 216.659 123.357 216.827C122.221 216.936 121.241 217.434 120.362 218.278C119.071 219.517 117.814 221.178 117.04 222.933C115.951 225.401 117.202 228.673 118.718 230.501C119.47 231.408 120.503 231.848 121.532 232.103C122.96 232.456 124.989 232.782 126.293 231.731C127.214 230.99 127.745 229.577 128.069 228.377C128.586 226.46 128.624 224.619 127.634 222.921C125.816 219.8 122.184 217.718 119.015 217.617C117.632 217.573 116.418 218.017 115.542 219.346C113.708 222.131 113.987 226.083 114.801 229.247C115.7 232.741 117.41 236.338 120.918 236.223C122.062 236.186 122.865 235.507 123.498 234.413C124.937 231.926 125.858 228.67 126.181 225.69C126.48 222.932 125.423 219.934 123.459 218.348C121.537 216.796 118.557 218.702 117.269 220.472C115.314 223.16 113.786 226.636 113.011 230.066C112.757 231.19 112.384 232.675 112.586 233.867C112.803 235.149 114.233 235.548 115.142 235.643C116.237 235.758 117.186 235.363 118.098 234.668C119.766 233.397 121.435 231.558 122.44 229.509C122.975 228.416 123.249 227.125 123.327 225.87C123.401 224.69 123.094 223.957 122.293 223.27C120.701 221.903 118.59 221.334 116.859 222.753C116.09 223.384 115.611 224.427 115.22 225.405C114.476 227.27 113.752 229.45 113.572 231.522C113.333 234.266 114.584 237.892 116.996 238.661C119.817 239.561 123.023 238.258 123.898 234.796C124.41 232.77 124.436 230.599 123.386 228.806C122.691 227.619 121.505 227.074 120.615 228.261C119.292 230.025 119.197 233.056 119.313 235.289C119.384 236.646 119.753 237.74 120.479 238.8C121.503 240.297 123.031 241.889 124.654 242.352C126.873 242.985 128.694 240.476 128.834 238.04C128.933 236.332 128.3 234.25 127.152 233.148C126.353 232.38 125.867 233.322 125.688 234.239C125.291 236.276 126.264 239.046 127.605 240.321C128.266 240.949 129.255 241.294 130.088 241.377C131.3 241.498 132.17 240.503 132.829 239.404C134.055 237.361 133.494 234.392 132.337 232.457C131.686 231.369 129.871 229.651 129.532 231.882C129.409 232.696 129.569 233.546 129.786 234.314C130.172 235.685 130.792 236.311 131.956 236.688C132.739 236.941 133.542 237.092 134.312 236.676C135.115 236.242 136.132 235.204 136.38 234.146C136.616 233.142 136.143 231.965 135.766 231.122C135.193 229.843 134.503 228.797 133.268 228.516C132.163 228.265 130.894 228.641 130.42 229.996C129.76 231.88 130.526 234.851 132.244 235.527C132.89 235.781 133.412 235.419 133.839 234.865C134.878 233.517 134.7 231.548 134.551 229.868C134.417 228.352 134.221 226.684 133.522 225.359C132.865 224.113 131.639 223.188 130.498 222.701C129.47 222.261 127.704 222.415 127.21 223.827C126.669 225.374 127.101 227.673 128.395 228.429C130.068 229.406 130.623 226.943 130.644 225.371C130.672 223.27 129.35 221.239 127.63 220.757C126.338 220.394 125.462 221.097 124.718 222.329C123.656 224.086 122.722 227.849 124.449 229.503C124.959 229.991 125.765 230.208 126.405 230.124C127.431 229.989 127.983 228.77 128.376 227.773C128.771 226.773 129.018 225.776 128.761 224.674C128.476 223.447 127.753 222.075 126.722 221.575C123.762 220.14 120.32 222.336 118.942 225.498C117.989 227.685 117.774 230.749 119.903 232.056C121.756 233.194 124.069 232.204 124.854 229.892C125.577 227.761 125.572 224.718 124.069 223.084C123.485 222.449 122.695 221.727 121.874 221.645C120.875 221.544 119.682 222.202 118.898 222.875C117.625 223.967 116.883 225.66 116.181 227.274C115.418 229.03 114.693 230.84 114.494 232.822C114.387 233.883 114.28 235.174 114.518 236.223C114.8 237.47 116.106 237.685 117.025 237.698C118.675 237.721 120.886 235.877 121.406 233.989C121.686 232.969 121.799 231.638 120.771 231.273C118.742 230.552 118.086 234.915 117.845 236.456C117.616 237.914 117.605 239.404 117.767 240.872C117.908 242.157 118.128 244.043 119.498 244.163C120.673 244.266 122.075 243.736 123.103 243.107C124.534 242.232 125.223 240.551 125.737 238.824C126.144 237.455 126.308 235.782 125.454 234.587C125.045 234.015 123.949 233.723 123.703 234.616C123.252 236.248 123.782 237.941 125.171 238.603C127.029 239.489 128.91 237.077 129.205 235.121C129.307 234.447 129.424 233.452 129.054 232.834C128.517 231.938 127.076 231.647 126.244 231.546C124.237 231.3 122.052 233.096 121.625 235.457C121.442 236.468 121.383 237.673 121.61 238.684C121.89 239.926 122.93 240.599 123.913 240.89C125.518 241.364 127.626 239.81 128.088 237.953C128.44 236.54 128.597 234.684 128.025 233.322C127.472 232.006 126.93 232.734 126.703 233.902C126.556 234.656 126.357 235.739 126.61 236.496C126.975 237.585 128.35 237.939 129.205 238.011C130.188 238.094 131.116 237.749 131.99 237.233C133.255 236.488 134.915 235.361 135.551 233.763C136.766 230.709 133.894 229.428 131.883 229.096C129.887 228.768 127.256 228.946 126.405 231.551C126.098 232.492 126.009 233.558 125.913 234.552C125.872 234.973 125.692 235.888 126.039 236.247C127.089 237.331 127.234 232.75 127.176 232.294C126.916 230.256 125.521 227.71 123.796 227.083C122.803 226.721 121.568 226.648 120.557 226.938C119.011 227.38 118.053 229.103 117.279 230.617C116.933 231.293 115.493 234.963 117.001 235.219C118.509 235.476 119.953 233.314 120.196 231.743C120.383 230.529 120.182 228.904 119.142 228.359C117.856 227.685 116.789 228.791 116.333 230.188C115.908 231.486 115.198 233.785 116.42 234.761C117.312 235.473 118.696 235.296 119.054 233.948C119.42 232.576 119.41 231.008 118.723 229.781C117.916 228.342 116.317 228.825 115.401 229.839C114.279 231.081 114.026 233.385 114.303 235.121C114.433 235.933 115.548 237.837 116.425 237.378C117.171 236.988 117.307 235.209 117.293 234.407C117.281 233.653 116.682 231.938 115.786 232.683C114.58 233.687 114.688 236.607 115.24 237.97C115.629 238.933 116.432 239.549 117.22 239.984C118.473 240.677 120.118 241.324 121.503 240.82C123.117 240.233 124.373 238.43 123.981 236.351C123.713 234.928 122.109 235.117 121.449 235.91C120.428 237.14 119.939 239.036 119.689 240.704C119.589 241.366 119.711 242.113 120.303 241.313C120.873 240.544 121.265 238.783 120.157 238.429C118.934 238.038 117.696 238.065 116.772 239.178C115.993 240.114 115.409 241.719 115.581 243.072C115.743 244.336 117.621 243.133 117.967 242.648C118.334 242.133 118.575 241.037 118.376 240.385C118.137 239.599 117.353 239.709 117.201 240.472C116.816 242.395 117.503 244.377 119.152 244.877C121.294 245.526 123.452 243.893 124.615 241.795C125.019 241.067 125.781 239.131 125.283 238.243C125.021 237.775 124.043 237.973 123.786 238.336C122.731 239.822 124.886 241.476 125.752 241.934C126.312 242.231 127.198 242.684 127.844 242.422C128.43 242.184 128.621 241.178 128.654 240.553C128.712 239.442 128.293 238.175 127.327 237.825C126.351 237.472 126.038 238.735 126.152 239.659C126.422 241.865 128.738 241.484 129.932 240.681C131.595 239.562 133.225 236.555 132.737 234.192C132.539 233.235 131.068 231.743 130.322 232.904C129.695 233.881 130.169 235.481 131.073 235.898C132.571 236.591 133.048 234.644 132.732 233.229C132.434 231.895 131.702 230.833 130.834 229.955C129.084 228.184 126.75 226.719 124.479 226.241C120.96 225.501 116.648 226.63 115.069 230.803C114.591 232.066 113.679 235.068 115.181 235.945C117.627 237.373 119.281 231.236 116.576 230.954C115.987 230.892 115.446 231.623 115.123 232.074C114.224 233.328 113.642 234.798 113.201 236.351C112.766 237.884 112.474 239.494 112.313 241.099C112.191 242.312 112.008 243.905 112.582 245.016C113.46 246.718 115.249 245.97 116.03 244.604C117.066 242.792 117.468 240.08 117.113 237.93C116.932 236.833 116.375 236.017 115.479 235.666C114.927 235.45 114.166 235.402 114.02 236.258C113.865 237.175 114.14 238.375 114.689 239.044C115.661 240.228 116.098 237.484 116.186 236.839C116.358 235.585 116.124 232.808 114.572 232.962C112.531 233.164 111.641 237.01 111.425 238.916C111.334 239.728 111.235 240.843 111.708 241.54C112.416 242.581 113.833 242.131 114.645 241.58C117.764 239.465 118.658 234.24 118.889 230.35C119.045 227.707 118.925 223.633 116.694 222.109C114.878 220.868 113.111 223.297 112.591 225.109C112.226 226.382 111.76 229.191 112.899 230.164C113.648 230.805 114.501 230.428 114.747 229.404C114.98 228.434 114.754 227.422 114.035 226.845C112.718 225.787 111.144 226.218 110.118 227.588C108.637 229.563 107.794 232.783 108.426 235.394C109.022 237.861 111.666 237.49 112.899 235.933C113.969 234.581 114.489 232.584 114.928 230.861C115.376 229.1 115.773 227.228 115.747 225.371C115.738 224.682 115.292 221.717 114.128 222.329C113.134 222.852 113.752 225.912 114.079 226.694C114.789 228.392 116.074 227.312 116.294 225.887C116.539 224.289 116.378 220.265 114.303 220.542C113.58 220.638 112.995 221.145 112.596 221.848C111.791 223.266 111.304 225.127 110.967 226.775C110.717 227.995 110.223 230.677 112.021 230.222C113.893 229.749 115.194 226.84 115.011 224.697C114.916 223.586 114.044 222.569 113.069 222.689C112.487 222.761 112.207 223.351 111.991 223.943C111.324 225.771 111.055 227.852 110.967 229.828C110.906 231.2 110.847 232.773 111.221 234.099C111.706 235.822 113.146 236.391 114.567 236.183C116.669 235.875 118.696 234.57 120.44 233.217C122.451 231.657 124.364 229.654 125.444 227.054C125.734 226.357 126.173 225.145 125.927 224.326C125.744 223.715 125.18 223.883 124.849 224.198C123.309 225.666 123.272 228.831 124.844 230.24C125.956 231.236 127.41 231.541 128.771 231.534C129.587 231.53 132.485 231.455 132.703 229.944C132.946 228.253 129.875 228.057 129.103 228.4C127.963 228.907 127.966 231.01 128.283 232.143C128.726 233.723 130.007 234.439 131.268 233.6C132.138 233.022 133.087 231.145 132.346 230.002C131.906 229.322 131.205 229.447 131.503 230.42C131.789 231.355 132.836 233.036 133.863 232.735C134.918 232.427 134.814 230.528 134.029 229.967C132.766 229.064 131.357 229.208 130.878 231.012C130.54 232.286 131.003 234.245 132.449 233.774C133.256 233.511 134.266 232.529 134.254 231.43C134.234 229.691 130.913 230.15 130.078 230.35C128.763 230.665 127.328 231.337 126.108 232.01C125.983 232.079 125.935 232.296 126.152 232.074C127.049 231.152 127.6 229.59 127.849 228.249C128.294 225.854 127.704 223.228 126.576 221.215C126.123 220.406 125.295 219.698 125.171 221.134C125.129 221.621 125.196 223.841 126.088 223.287C126.396 223.096 126.519 222.596 126.508 222.213C126.477 221.176 125.667 220.656 124.937 220.356C122.729 219.45 120.219 219.407 118.567 221.633C117.838 222.615 115.993 227.271 118.625 226.671C121.147 226.095 122.387 222.51 122.713 219.834C122.864 218.591 122.895 215.893 121.274 216.003C120.739 216.04 120.47 216.587 120.284 217.129C119.758 218.66 119.491 220.593 119.796 222.225C120.251 224.661 122.387 225.836 124.283 224.819C125.241 224.306 126.061 222.715 125.532 221.47C125.472 221.329 125.185 220.998 125.244 221.14C125.488 221.719 126.315 221.997 126.786 222.091C129.271 222.592 130.015 218.114 127.347 217.733C126.112 217.556 125.76 219.147 125.908 220.31C125.993 220.981 126.72 222.437 127.376 221.505C127.917 220.737 128.089 219.192 127.317 218.557C126.079 217.537 123.515 217.582 123.201 219.712C123.037 220.819 123.483 222.493 124.654 222.48C124.958 222.477 125.113 222.196 125.118 221.859C125.129 220.957 124.376 220.565 123.752 220.379C120.986 219.557 119.025 221.741 117.591 224.337C116.656 226.031 115.91 227.895 115.591 229.897C115.403 231.08 115.14 233.106 115.747 234.204C116.109 234.858 116.871 235.133 117.474 234.836C118.834 234.167 119.634 231.945 119.864 230.35C120.218 227.898 119.214 225.132 116.85 225.336C114.69 225.522 113.628 228.554 113.167 230.704C113.083 231.094 112.925 231.828 113.133 232.231C113.439 232.825 114.193 232.053 114.411 231.778C115.051 230.969 115.597 229.095 114.972 228.092C113.689 226.038 111.372 228.489 110.733 229.967C110.281 231.012 110.071 232.209 109.933 233.362C109.868 233.899 109.707 234.799 109.933 235.341C110.363 236.375 111.415 234.935 111.625 234.488C111.826 234.064 112.233 232.886 111.747 232.497C110.858 231.785 110.885 234.815 110.874 235.092C110.79 237.229 110.685 240.329 112.401 241.691C113.597 242.64 114.381 241.263 114.313 239.938C114.261 238.928 113.531 239.02 113.303 239.915C112.984 241.168 112.946 243.91 114.079 244.685C115.119 245.397 116.18 243.991 116.645 243.049C116.876 242.578 117.259 241 117.054 241.487C116.515 242.771 118.168 243.34 118.889 243.49C119.738 243.666 120.791 243.713 121.601 243.281C122.607 242.743 123.399 241.333 123.903 240.228C124.091 239.816 125.039 237.036 123.659 237.663C122.824 238.042 122.596 240.085 123.264 240.739C124.105 241.562 126.409 242.346 127.171 240.983C128.022 239.459 126.408 238.117 125.42 237.616C125.135 237.472 123.784 236.932 123.957 237.918C124.283 239.781 126.753 239.443 127.756 238.928C129.23 238.172 131.799 235.476 130.712 233.229C130.551 232.894 130.183 232.641 129.912 233.008C129.458 233.626 129.514 234.82 129.717 235.539C129.953 236.37 131.062 237.155 131.62 236.282C132.74 234.529 132.791 231.615 131.854 229.77C131.556 229.183 131.122 228.598 130.586 228.307C130.131 228.061 129.939 228.375 130.049 228.911C130.205 229.671 131.097 231.564 132 230.809C133.077 229.908 133.125 227.506 132.917 226.137C132.848 225.681 132.275 223.755 131.883 225.057C131.7 225.664 131.765 226.554 132.317 226.839C132.769 227.072 132.504 226.523 132.342 226.311C131.954 225.803 131.19 225.179 130.766 225.939C130.254 226.859 129.964 228.032 129.669 229.062C129.219 230.625 128.833 232.22 128.527 233.832C128.454 234.217 128.287 234.819 128.317 235.237C128.318 235.249 128.572 234.738 128.508 234.465C128.322 233.674 127.458 233.41 126.869 233.345C124.517 233.084 121.987 234.238 120.049 235.736C118.775 236.721 117.762 238.026 117.118 239.659C116.802 240.461 116.388 241.703 116.82 242.584C117.191 243.339 118.074 243.461 118.708 243.275C119.733 242.974 120.417 241.939 120.727 240.791C120.917 240.09 121.093 238.456 120.342 238.034C120.204 237.957 120.228 238.284 120.23 238.324C120.248 238.74 120.422 239.047 120.664 239.334C120.697 239.374 121.417 240.153 121.406 239.717C121.392 239.188 120.829 239.351 120.723 239.746C120.529 240.467 120.81 241.337 121.493 241.47C121.861 241.542 122.048 241.187 122.166 240.832C122.479 239.896 122.37 238.853 121.815 238.075C120.418 236.117 117.362 236.126 115.503 236.914C114.762 237.228 114.004 237.799 113.63 238.661C113.306 239.409 113.451 240.352 114.177 240.646C116.939 241.766 117.602 231.944 113.738 231.859C112.959 231.842 111.836 232.753 112.342 233.821C112.471 234.091 112.721 234.109 112.908 233.89C113.368 233.355 113.491 232.306 113.308 231.604C113.005 230.435 111.537 229.563 110.986 230.965C110.767 231.525 110.694 232.189 110.665 232.799C110.639 233.315 110.686 233.253 110.996 233.391" stroke="black" stroke-linecap="round" stroke-linejoin="round"/>
<path d="M125.251 222.5C125.251 218.486 123.021 207.096 125.251 203.776C127.807 199.971 131.49 198.474 135.526 198.239C144.839 197.698 155.031 202.115 162.407 208.843C168.014 213.958 170.616 221.878 166.007 229.029C164.05 232.067 160.789 235.13 157.65 236.227C155.442 236.998 152.446 237.788 150.812 235.417C146.053 228.518 146.516 219.024 146.742 210.653C147.096 197.51 157.442 184.9 167.726 181.205C176.279 178.131 183.456 181.887 190.862 186.869C196.359 190.566 201.802 193.999 206.311 199.347C211.157 205.095 219.74 216.648 216.115 226.006C214.495 230.188 209.745 234.323 206.039 235.481C202.513 236.584 200.359 235.682 198.695 231.691C197.08 227.819 196.192 222.783 195.963 218.532C195.475 209.442 195.652 200.189 199.003 191.894C200.659 187.792 203.541 184.43 206.528 181.631C211.4 177.063 216.22 175.497 222.447 176.137C232.019 177.121 240.67 186.189 243.612 196.962C246.231 206.554 245.176 216.413 246.361 226.176C246.95 231.027 248.549 232.967 251.245 236.141" stroke="black" stroke-width="2" stroke-linecap="round" stroke-linejoin="round"/>
<path d="M242.306 295.5H256.891V302.5H242.306V295.5Z" fill="#D7AD96" stroke="black"/>
<path d="M242.306 247V291.5H256.891V245.5L253.127 248.5L249.363 245.5L245.599 248.5L242.306 245.5V247Z" fill="#EDD9C0" stroke="black"/>
<rect x="360" y="85" width="19" height="11" fill="white"/>
<path d="M495.266 144V85.993L503.235 74L511 85.993V144H495.266Z" stroke="black" stroke-width="2"/>
<path d="M495.266 86.3525L499.062 89.6455L502.621 86.3525L506.654 89.6455L510.213 86.3525" stroke="black" stroke-width="2"/>
<path d="M500.772 78.1172H505.493" stroke="black" stroke-width="2"/>
<path d="M495 136.669L510.631 136.431" stroke="black" stroke-width="2"/>
<path d="M495.266 132.471H510.213" stroke="black" stroke-width="2"/>
<path d="M500.772 78.1176L503.133 74L505.493 78.1176H500.772Z" fill="black" stroke="black" stroke-width="2"/>
<path d="M374.618 63.0043C373.639 62.475 372.612 61.9748 371.57 61.623C370.96 61.4168 370.336 61.3788 369.704 61.3329C368.71 61.2606 367.628 61.1176 366.656 61.4431C364.214 62.2611 364.26 65.0335 364.956 67.3804C366.585 72.8791 372.114 76.0788 376.987 76.5851C379.05 76.7994 381.293 76.2045 382.171 73.8863C383.082 71.4808 381.927 68.6428 380.227 67.0786C379.188 66.1227 376.646 64.8877 375.339 65.8308C373.905 66.8651 373.027 68.9884 373.27 70.8626C373.454 72.2732 374.054 74.2019 375.645 73.8689C378.236 73.3264 377.828 70.1414 376.847 68.1755C375.288 65.0508 372.243 62.6497 368.947 63.341C368.055 63.5281 367.259 63.9684 366.703 64.7861C365.791 66.1251 365.076 68.1872 365.153 69.8876C365.21 71.1685 366.016 72.0902 366.926 72.7662C368.451 73.9001 370.893 74.9903 372.773 74.5654C374.177 74.2479 374.805 72.3264 375.276 71.0773C376.116 68.8552 376.803 66.4377 376.272 64.02C375.927 62.4522 375.192 60.8824 374.193 59.7078C372.867 58.1479 370.96 57.6593 369.092 57.8274C367.885 57.9361 366.844 58.4344 365.91 59.2783C364.538 60.5171 363.202 62.1775 362.379 63.9329C361.223 66.4006 362.552 69.6729 364.163 71.501C364.962 72.4083 366.06 72.8481 367.154 73.1028C368.671 73.4563 370.827 73.782 372.213 72.7314C373.191 71.9899 373.756 70.5768 374.1 69.3768C374.649 67.4598 374.69 65.6194 373.638 63.9213C371.706 60.7999 367.846 58.7177 364.479 58.6167C363.009 58.5726 361.719 59.0168 360.788 60.3462C358.838 63.1307 359.135 67.0834 360 70.2474C360.955 73.7408 362.773 77.3383 366.5 77.2235C367.717 77.186 368.57 76.5072 369.243 75.4127C370.772 72.9263 371.75 69.6703 372.094 66.6897C372.411 63.9316 371.288 60.934 369.201 59.348C367.159 57.7957 363.992 59.7017 362.623 61.4722C360.546 64.1597 358.922 67.6357 358.098 71.0657C357.828 72.1902 357.432 73.6747 357.647 74.8672C357.877 76.1487 359.396 76.5477 360.363 76.6431C361.526 76.7579 362.535 76.363 363.504 75.6681C365.277 74.3973 367.051 72.5581 368.118 70.5086C368.687 69.4156 368.977 68.1254 369.061 66.8696C369.14 65.6898 368.813 64.9566 367.962 64.2695C366.27 62.9026 364.027 62.3336 362.188 63.753C361.37 64.3843 360.861 65.4273 360.446 66.4053C359.655 68.2704 358.885 70.4496 358.694 72.5225C358.44 75.2663 359.77 78.8918 362.333 79.6611C365.33 80.5607 368.738 79.2582 369.668 75.7958C370.211 73.7703 370.239 71.5992 369.123 69.8063C368.385 68.6188 367.125 68.0738 366.179 69.2608C364.773 71.0253 364.671 74.0564 364.795 76.2891C364.87 77.646 365.263 78.7401 366.034 79.8003C367.122 81.2974 368.747 82.8892 370.471 83.3522C372.829 83.9853 374.764 81.4761 374.914 79.0401C375.018 77.3323 374.346 75.2503 373.125 74.1475C372.276 73.3804 371.76 74.3222 371.57 75.2386C371.148 77.2763 372.182 80.0464 373.607 81.3209C374.31 81.9489 375.361 82.2944 376.246 82.3772C377.533 82.4977 378.459 81.5026 379.159 80.4039C380.462 78.3607 379.865 75.392 378.636 73.4569C377.944 72.3685 376.015 70.6513 375.655 72.8823C375.524 73.6959 375.694 74.546 375.924 75.3141C376.335 76.685 376.994 77.3107 378.231 77.6878C379.063 77.9413 379.917 78.0923 380.735 77.6762C381.589 77.2421 382.668 76.2044 382.933 75.1457C383.183 74.1422 382.681 72.9652 382.28 72.122C381.671 70.8426 380.938 69.7973 379.626 69.5161C378.451 69.2645 377.103 69.6408 376.598 70.9961C375.897 72.8798 376.712 75.8515 378.537 76.527C379.223 76.7809 379.779 76.4194 380.232 75.8654C381.336 74.5172 381.147 72.5479 380.989 70.8684C380.846 69.3517 380.638 67.6837 379.895 66.3589C379.196 65.1133 377.894 64.1885 376.681 63.7008C375.589 63.2614 373.712 63.4152 373.187 64.8267C372.612 66.3744 373.072 68.6732 374.447 69.4291C376.225 70.406 376.815 67.943 376.837 66.3705C376.866 64.2697 375.461 62.2392 373.633 61.7565C372.26 61.394 371.33 62.0972 370.539 63.3293C369.411 65.086 368.417 68.8494 370.253 70.5028C370.796 70.9908 371.652 71.2077 372.332 71.1238C373.422 70.9893 374.008 69.7698 374.426 68.7732C374.846 67.7725 375.108 66.7765 374.836 65.6741C374.533 64.4466 373.764 63.0746 372.669 62.5749C369.524 61.1396 365.866 63.3355 364.401 66.4982C363.388 68.685 363.16 71.7492 365.422 73.0564C367.391 74.1939 369.849 73.2039 370.684 70.8916C371.452 68.7613 371.446 65.7178 369.849 64.0838C369.229 63.4494 368.39 62.7275 367.516 62.6445C366.455 62.5436 365.188 63.2019 364.354 63.8749C363.002 64.9675 362.213 66.6605 361.467 68.2741C360.656 70.0295 359.886 71.8402 359.674 73.8225C359.56 74.8827 359.447 76.1738 359.699 77.2235C359.999 78.4698 361.387 78.6849 362.364 78.6976C364.117 78.7205 366.467 76.877 367.019 74.989C367.317 73.9686 367.437 72.6381 366.345 72.2729C364.188 71.5517 363.491 75.9148 363.235 77.4556C362.992 78.9137 362.98 80.4044 363.152 81.8723C363.302 83.1571 363.536 85.0426 364.992 85.163C366.24 85.2662 367.73 84.7358 368.823 84.1067C370.343 83.2315 371.076 81.5514 371.622 79.8236C372.054 78.4547 372.229 76.7824 371.321 75.5868C370.887 75.0145 369.722 74.7235 369.46 75.6158C368.981 77.2483 369.544 78.9406 371.021 79.603C372.995 80.4887 374.994 78.077 375.308 76.1208C375.416 75.4465 375.54 74.4518 375.147 73.8341C374.576 72.9377 373.044 72.6473 372.161 72.5457C370.028 72.3004 367.706 74.0958 367.252 76.4574C367.058 77.4682 366.995 78.673 367.237 79.6843C367.533 80.9257 368.639 81.5992 369.683 81.8897C371.389 82.3642 373.629 80.8102 374.121 78.953C374.494 77.5402 374.662 75.6842 374.053 74.3216C373.465 73.0057 372.89 73.7336 372.648 74.902C372.492 75.6557 372.28 76.7388 372.55 77.4963C372.937 78.5849 374.398 78.9387 375.308 79.011C376.352 79.094 377.339 78.7488 378.267 78.2333C379.611 77.4878 381.376 76.3607 382.052 74.7627C383.343 71.7087 380.291 70.4276 378.153 70.0965C376.032 69.7679 373.236 69.9463 372.332 72.5515C372.006 73.4923 371.911 74.5577 371.809 75.552C371.765 75.9732 371.575 76.8884 371.943 77.2467C373.059 78.3305 373.213 73.7502 373.151 73.2944C372.875 71.2559 371.392 68.7105 369.559 68.0826C368.504 67.7215 367.192 67.6477 366.117 67.9375C364.474 68.3804 363.456 70.1027 362.633 71.6171C362.266 72.2929 360.736 75.9632 362.338 76.2194C363.94 76.4757 365.475 74.3139 365.733 72.743C365.932 71.5294 365.718 69.9042 364.614 69.3594C363.247 68.6852 362.113 69.7911 361.628 71.1876C361.176 72.486 360.422 74.7854 361.721 75.7609C362.669 76.4729 364.139 76.2958 364.52 74.9484C364.909 73.5758 364.898 72.0084 364.168 70.7813C363.311 69.3416 361.611 69.8253 360.638 70.8394C359.446 72.0812 359.177 74.3852 359.471 76.1208C359.609 76.9332 360.795 78.8374 361.726 78.3784C362.519 77.9881 362.663 76.2089 362.649 75.4069C362.636 74.6526 362 72.9377 361.047 73.6832C359.765 74.6871 359.88 77.6065 360.467 78.9704C360.881 79.933 361.734 80.5488 362.571 80.9843C363.902 81.6766 365.651 82.3238 367.123 81.82C368.837 81.2329 370.172 79.4297 369.756 77.3512C369.471 75.9281 367.766 76.1165 367.065 76.9101C365.98 78.1396 365.461 80.0361 365.194 81.704C365.088 82.3663 365.218 83.1132 365.847 82.3134C366.453 81.5439 366.869 79.7833 365.692 79.4289C364.392 79.0378 363.077 79.0655 362.094 80.1776C361.267 81.1141 360.646 82.7192 360.829 84.0719C361.001 85.3361 362.997 84.1332 363.364 83.6482C363.755 83.1327 364.01 82.0368 363.8 81.3848C363.546 80.5988 362.713 80.7086 362.55 81.4718C362.142 83.3952 362.871 85.3772 364.624 85.8768C366.9 86.5259 369.194 84.8931 370.43 82.7951C370.859 82.067 371.668 80.1306 371.14 79.2432C370.861 78.7754 369.822 78.9732 369.548 79.336C368.427 80.8224 370.717 82.4759 371.638 82.9344C372.233 83.231 373.175 83.6841 373.861 83.4219C374.484 83.1838 374.687 82.1779 374.722 81.5531C374.784 80.4424 374.339 79.1748 373.312 78.8253C372.274 78.4722 371.942 79.7353 372.063 80.6593C372.35 82.8653 374.811 82.4838 376.08 81.6807C377.848 80.5621 379.58 77.5548 379.061 75.1922C378.85 74.2354 377.287 72.7426 376.495 73.9037C375.828 74.881 376.332 76.4807 377.293 76.8985C378.885 77.5905 379.392 75.6437 379.055 74.2288C378.738 72.8949 377.961 71.8333 377.039 70.9555C375.179 69.1839 372.698 67.719 370.285 67.2411C366.546 66.5006 361.963 67.6295 360.285 71.8028C359.777 73.0665 358.808 76.0676 360.404 76.9449C363.004 78.3731 364.761 72.2363 361.887 71.9537C361.26 71.892 360.686 72.623 360.342 73.0738C359.387 74.3283 358.769 75.7981 358.3 77.3512C357.837 78.8837 357.527 80.4936 357.356 82.0986C357.227 83.3123 357.032 84.9054 357.642 86.0161C358.576 87.7176 360.477 86.9698 361.306 85.6041C362.408 83.7916 362.834 81.0799 362.457 78.9298C362.265 77.8332 361.673 77.0172 360.721 76.6663C360.135 76.4505 359.325 76.4022 359.171 77.2583C359.005 78.1749 359.297 79.3753 359.881 80.0441C360.914 81.228 361.378 78.4841 361.472 77.8387C361.655 76.5848 361.406 73.8079 359.756 73.9618C357.587 74.1642 356.642 78.0104 356.413 79.9164C356.315 80.7282 356.21 81.8427 356.714 82.5397C357.465 83.5807 358.972 83.1306 359.834 82.5803C363.149 80.4651 364.099 75.2402 364.344 71.3501C364.511 68.7067 364.382 64.6333 362.011 63.1088C360.081 61.8678 358.204 64.2972 357.652 66.1093C357.264 67.3821 356.769 70.191 357.978 71.1644C358.775 71.8053 359.682 71.428 359.943 70.4041C360.191 69.4342 359.95 68.4217 359.186 67.8446C357.786 66.7866 356.114 67.218 355.024 68.5875C353.45 70.5635 352.554 73.7831 353.225 76.3935C353.859 78.861 356.669 78.4902 357.978 76.9333C359.116 75.5807 359.669 73.5841 360.135 71.8608C360.611 70.0998 361.034 68.2282 361.006 66.3705C360.995 65.6821 360.522 62.7171 359.285 63.3293C358.229 63.8519 358.885 66.9118 359.233 67.6938C359.988 69.3919 361.353 68.3121 361.586 66.887C361.848 65.2887 361.676 61.2652 359.471 61.5418C358.702 61.6383 358.081 62.1453 357.657 62.8476C356.801 64.2656 356.284 66.1271 355.926 67.775C355.66 68.9946 355.135 71.6773 357.045 71.2224C359.035 70.7487 360.417 67.8398 360.223 65.6973C360.122 64.5856 359.196 63.5686 358.16 63.6892C357.541 63.7612 357.244 64.3505 357.014 64.9428C356.305 66.7715 356.019 68.8516 355.926 70.8278C355.861 72.1998 355.798 73.7731 356.195 75.0993C356.711 76.8222 358.241 77.3908 359.751 77.1829C361.985 76.8753 364.139 75.5699 365.992 74.2171C368.13 72.6568 370.163 70.6537 371.311 68.0536C371.618 67.3574 372.085 66.1445 371.824 65.3258C371.629 64.7154 371.03 64.8826 370.679 65.1981C369.042 66.666 369.002 69.8311 370.673 71.2398C371.855 72.2356 373.4 72.5415 374.846 72.5341C375.713 72.5296 378.793 72.4547 379.024 70.9438C379.283 69.2534 376.019 69.0569 375.199 69.4C373.987 69.9069 373.99 72.0096 374.328 73.1435C374.798 74.7234 376.159 75.4394 377.5 74.6002C378.425 74.0218 379.433 72.1454 378.646 71.0019C378.178 70.3224 377.433 70.4469 377.749 71.4197C378.053 72.3554 379.166 74.036 380.258 73.7354C381.379 73.4269 381.268 71.5284 380.434 70.9671C379.092 70.0636 377.594 70.208 377.086 72.0117C376.726 73.2861 377.218 75.2454 378.755 74.7743C379.613 74.5113 380.686 73.5292 380.673 72.4296C380.652 70.6906 377.123 71.1501 376.235 71.3501C374.837 71.6653 373.313 72.3367 372.016 73.01C371.883 73.079 371.833 73.2959 372.063 73.0738C373.017 72.1522 373.602 70.5903 373.867 69.2492C374.34 66.8539 373.712 64.2279 372.514 62.215C372.032 61.406 371.153 60.6984 371.021 62.1338C370.976 62.6209 371.048 64.8405 371.995 64.287C372.322 64.096 372.453 63.5964 372.441 63.2133C372.408 62.1756 371.547 61.6555 370.772 61.3561C368.426 60.45 365.758 60.4065 364.002 62.6329C363.228 63.6146 361.267 68.2714 364.064 67.6705C366.744 67.0948 368.061 63.5105 368.408 60.8337C368.569 59.5913 368.601 56.8931 366.879 57.0033C366.31 57.0397 366.024 57.5874 365.827 58.1292C365.268 59.6597 364.984 61.5929 365.308 63.2249C365.792 65.6609 368.062 66.8362 370.077 65.8191C371.094 65.3058 371.966 63.7148 371.404 62.4704C371.34 62.3287 371.035 61.9976 371.098 62.1396C371.357 62.7189 372.236 62.9965 372.736 63.0914C375.378 63.5922 376.168 59.1145 373.333 58.7328C372.02 58.5561 371.646 60.1467 371.803 61.3096C371.894 61.981 372.666 63.4366 373.364 62.5052C373.939 61.7366 374.121 60.1917 373.301 59.5569C371.985 58.5374 369.261 58.5823 368.926 60.7119C368.752 61.8191 369.226 63.4933 370.471 63.4802C370.794 63.4769 370.959 63.1957 370.964 62.8592C370.975 61.957 370.175 61.5648 369.512 61.3793C366.573 60.5567 364.489 62.7409 362.965 65.3374C361.971 67.0314 361.178 68.8952 360.84 70.8974C360.64 72.0799 360.361 74.1055 361.006 75.2038C361.39 75.8584 362.2 76.1334 362.841 75.8364C364.286 75.167 365.136 72.945 365.381 71.3501C365.756 68.8981 364.69 66.1318 362.177 66.3357C359.883 66.5218 358.754 69.5541 358.264 71.7041C358.175 72.0943 358.007 72.8281 358.227 73.2305C358.553 73.8252 359.354 73.0531 359.585 72.7778C360.266 71.9688 360.846 70.0947 360.182 69.0925C358.818 67.038 356.357 69.4887 355.677 70.9671C355.196 72.0123 354.974 73.2095 354.827 74.3622C354.758 74.8995 354.587 75.7986 354.827 76.3413C355.284 77.3755 356.401 75.9349 356.626 75.4882C356.838 75.0644 357.271 73.886 356.755 73.4975C355.81 72.7852 355.839 75.8148 355.827 76.0918C355.737 78.2292 355.626 81.3294 357.45 82.6906C358.721 83.6395 359.554 82.2631 359.482 80.9379C359.427 79.9277 358.651 80.0198 358.409 80.9147C358.07 82.1676 358.029 84.9098 359.233 85.6853C360.338 86.3969 361.466 84.9913 361.96 84.0487C362.206 83.5783 362.613 81.9998 362.395 82.4875C361.822 83.771 363.578 84.3403 364.344 84.4898C365.247 84.666 366.366 84.7132 367.226 84.2808C368.296 83.7435 369.138 82.3332 369.673 81.2281C369.872 80.8159 370.881 78.0357 369.414 78.6628C368.526 79.0421 368.284 81.0849 368.994 81.7388C369.887 82.5617 372.336 83.3465 373.146 81.9825C374.05 80.4593 372.336 79.1173 371.285 78.6164C370.982 78.4721 369.546 77.9316 369.73 78.9182C370.077 80.7815 372.702 80.443 373.768 79.928C375.334 79.1715 378.064 76.4761 376.909 74.2288C376.738 73.8945 376.347 73.641 376.059 74.0082C375.576 74.6259 375.636 75.8199 375.852 76.5386C376.102 77.3698 377.28 78.1547 377.874 77.2815C379.064 75.5291 379.118 72.6147 378.122 70.7697C377.806 70.1834 377.345 69.5978 376.775 69.3072C376.291 69.0609 376.087 69.3747 376.204 69.9108C376.37 70.6705 377.318 72.5641 378.278 71.8086C379.422 70.9078 379.473 68.5063 379.252 67.1366C379.179 66.6809 378.57 64.7547 378.153 66.0571C377.959 66.6644 378.028 67.5542 378.615 67.8388C379.095 68.0718 378.813 67.5233 378.641 67.3107C378.229 66.8028 377.417 66.1786 376.966 66.9393C376.422 67.8592 376.114 69.0318 375.8 70.0617C375.323 71.6254 374.912 73.22 374.587 74.8323C374.51 75.2173 374.332 75.8188 374.364 76.2368C374.365 76.2488 374.635 75.7385 374.566 75.465C374.369 74.6743 373.451 74.4103 372.825 74.3448C370.326 74.0839 367.637 75.2379 365.578 76.736C364.224 77.7211 363.147 79.0256 362.462 80.6593C362.126 81.4611 361.687 82.7031 362.146 83.5844C362.54 84.3391 363.479 84.4611 364.152 84.275C365.242 83.9741 365.968 82.9389 366.298 81.791C366.5 81.0901 366.687 79.4561 365.889 79.0342C365.742 78.9567 365.768 79.2835 365.77 79.3244C365.789 79.7397 365.974 80.0467 366.231 80.3343C366.266 80.3739 367.031 81.1532 367.019 80.7173C367.005 80.1882 366.406 80.3509 366.293 80.7463C366.088 81.4668 366.386 82.3371 367.112 82.4701C367.503 82.5415 367.701 82.1868 367.827 81.8316C368.16 80.8959 368.044 79.853 367.454 79.0749C365.97 77.1168 362.722 77.1257 360.747 77.9141C359.959 78.2285 359.153 78.7992 358.756 79.6611C358.412 80.4088 358.566 81.3518 359.337 81.6459C362.272 82.7663 362.977 72.9438 358.87 72.8591C358.042 72.842 356.85 73.7534 357.388 74.8207C357.524 75.0912 357.789 75.1088 357.989 74.8904C358.478 74.3548 358.608 73.306 358.414 72.6037C358.091 71.4348 356.532 70.5635 355.946 71.9653C355.713 72.5249 355.636 73.1887 355.604 73.7993C355.578 74.3153 355.627 74.2527 355.957 74.3913" stroke="black" stroke-linecap="round" stroke-linejoin="round"/>
<path d="M371.105 63.5C371.105 59.4863 368.735 48.0963 371.105 44.7756C373.821 40.9711 377.736 39.474 382.025 39.2394C391.921 38.6981 402.753 43.1146 410.591 49.8435C416.549 54.958 419.315 62.878 414.417 70.0295C412.337 73.0667 408.872 76.1302 405.535 77.2266C403.189 77.9977 400.006 78.7876 398.269 76.4175C393.212 69.5176 393.703 60.0241 393.943 51.6534C394.32 38.51 405.315 25.8998 416.243 22.2047C425.333 19.1313 432.96 22.8869 440.831 27.8688C446.672 31.5658 452.457 34.9993 457.248 40.3466C462.398 46.0953 471.52 57.6483 467.667 67.0058C465.945 71.1884 460.897 75.3229 456.959 76.4814C453.212 77.5838 450.923 76.6816 449.155 72.6912C447.439 68.8192 446.495 63.7834 446.252 59.5319C445.732 50.4415 445.921 41.1887 449.481 32.894C451.242 28.7923 454.304 25.4302 457.479 22.6306C462.657 18.0634 467.778 16.4968 474.396 17.1369C484.568 18.121 493.762 27.1893 496.888 37.9618C499.671 47.5545 498.551 57.4135 499.81 67.1762C500.435 72.027 502.135 73.9674 505 77.1415" stroke="black" stroke-width="2" stroke-linecap="round" stroke-linejoin="round"/>
<rect x="360" y="260" width="19" height="11" fill="white"/>
<path d="M495.266 319V260.993L503.235 249L511 260.993V319H495.266Z" stroke="black" stroke-width="2"/>
<path d="M495.266 261.353L499.062 264.646L502.621 261.353L506.654 264.646L510.213 261.353" stroke="black" stroke-width="2"/>
<path d="M500.772 253.117H505.493" stroke="black" stroke-width="2"/>
<path d="M495 311.669L510.631 311.431" stroke="black" stroke-width="2"/>
<path d="M495.266 307.471H510.213" stroke="black" stroke-width="2"/>
<path d="M500.772 253.118L503.133 249L505.493 253.118H500.772Z" fill="black" stroke="black" stroke-width="2"/>
<path d="M374.618 238.004C373.639 237.475 372.612 236.975 371.57 236.623C370.96 236.417 370.336 236.379 369.704 236.333C368.71 236.261 367.628 236.118 366.656 236.443C364.214 237.261 364.26 240.034 364.956 242.38C366.585 247.879 372.114 251.079 376.987 251.585C379.05 251.799 381.293 251.205 382.171 248.886C383.082 246.481 381.927 243.643 380.227 242.079C379.188 241.123 376.646 239.888 375.339 240.831C373.905 241.865 373.027 243.988 373.27 245.863C373.454 247.273 374.054 249.202 375.645 248.869C378.236 248.326 377.828 245.141 376.847 243.175C375.288 240.051 372.243 237.65 368.947 238.341C368.055 238.528 367.259 238.968 366.703 239.786C365.791 241.125 365.076 243.187 365.153 244.888C365.21 246.168 366.016 247.09 366.926 247.766C368.451 248.9 370.893 249.99 372.773 249.565C374.177 249.248 374.805 247.326 375.276 246.077C376.116 243.855 376.803 241.438 376.272 239.02C375.927 237.452 375.192 235.882 374.193 234.708C372.867 233.148 370.96 232.659 369.092 232.827C367.885 232.936 366.844 233.434 365.91 234.278C364.538 235.517 363.202 237.178 362.379 238.933C361.223 241.401 362.552 244.673 364.163 246.501C364.962 247.408 366.06 247.848 367.154 248.103C368.671 248.456 370.827 248.782 372.213 247.731C373.191 246.99 373.756 245.577 374.1 244.377C374.649 242.46 374.69 240.619 373.638 238.921C371.706 235.8 367.846 233.718 364.479 233.617C363.009 233.573 361.719 234.017 360.788 235.346C358.838 238.131 359.135 242.083 360 245.247C360.955 248.741 362.773 252.338 366.5 252.223C367.717 252.186 368.57 251.507 369.243 250.413C370.772 247.926 371.75 244.67 372.094 241.69C372.411 238.932 371.288 235.934 369.201 234.348C367.159 232.796 363.992 234.702 362.623 236.472C360.546 239.16 358.922 242.636 358.098 246.066C357.828 247.19 357.432 248.675 357.647 249.867C357.877 251.149 359.396 251.548 360.363 251.643C361.526 251.758 362.535 251.363 363.504 250.668C365.277 249.397 367.051 247.558 368.118 245.509C368.687 244.416 368.977 243.125 369.061 241.87C369.14 240.69 368.813 239.957 367.962 239.27C366.27 237.903 364.027 237.334 362.188 238.753C361.37 239.384 360.861 240.427 360.446 241.405C359.655 243.27 358.885 245.45 358.694 247.522C358.44 250.266 359.77 253.892 362.333 254.661C365.33 255.561 368.738 254.258 369.668 250.796C370.211 248.77 370.239 246.599 369.123 244.806C368.385 243.619 367.125 243.074 366.179 244.261C364.773 246.025 364.671 249.056 364.795 251.289C364.87 252.646 365.263 253.74 366.034 254.8C367.122 256.297 368.747 257.889 370.471 258.352C372.829 258.985 374.764 256.476 374.914 254.04C375.018 252.332 374.346 250.25 373.125 249.148C372.276 248.38 371.76 249.322 371.57 250.239C371.148 252.276 372.182 255.046 373.607 256.321C374.31 256.949 375.361 257.294 376.246 257.377C377.533 257.498 378.459 256.503 379.159 255.404C380.462 253.361 379.865 250.392 378.636 248.457C377.944 247.369 376.015 245.651 375.655 247.882C375.524 248.696 375.694 249.546 375.924 250.314C376.335 251.685 376.994 252.311 378.231 252.688C379.063 252.941 379.917 253.092 380.735 252.676C381.589 252.242 382.668 251.204 382.933 250.146C383.183 249.142 382.681 247.965 382.28 247.122C381.671 245.843 380.938 244.797 379.626 244.516C378.451 244.265 377.103 244.641 376.598 245.996C375.897 247.88 376.712 250.851 378.537 251.527C379.223 251.781 379.779 251.419 380.232 250.865C381.336 249.517 381.147 247.548 380.989 245.868C380.846 244.352 380.638 242.684 379.895 241.359C379.196 240.113 377.894 239.188 376.681 238.701C375.589 238.261 373.712 238.415 373.187 239.827C372.612 241.374 373.072 243.673 374.447 244.429C376.225 245.406 376.815 242.943 376.837 241.371C376.866 239.27 375.461 237.239 373.633 236.757C372.26 236.394 371.33 237.097 370.539 238.329C369.411 240.086 368.417 243.849 370.253 245.503C370.796 245.991 371.652 246.208 372.332 246.124C373.422 245.989 374.008 244.77 374.426 243.773C374.846 242.773 375.108 241.776 374.836 240.674C374.533 239.447 373.764 238.075 372.669 237.575C369.524 236.14 365.866 238.336 364.401 241.498C363.388 243.685 363.16 246.749 365.422 248.056C367.391 249.194 369.849 248.204 370.684 245.892C371.452 243.761 371.446 240.718 369.849 239.084C369.229 238.449 368.39 237.727 367.516 237.645C366.455 237.544 365.188 238.202 364.354 238.875C363.002 239.967 362.213 241.66 361.467 243.274C360.656 245.03 359.886 246.84 359.674 248.822C359.56 249.883 359.447 251.174 359.699 252.223C359.999 253.47 361.387 253.685 362.364 253.698C364.117 253.721 366.467 251.877 367.019 249.989C367.317 248.969 367.437 247.638 366.345 247.273C364.188 246.552 363.491 250.915 363.235 252.456C362.992 253.914 362.98 255.404 363.152 256.872C363.302 258.157 363.536 260.043 364.992 260.163C366.24 260.266 367.73 259.736 368.823 259.107C370.343 258.232 371.076 256.551 371.622 254.824C372.054 253.455 372.229 251.782 371.321 250.587C370.887 250.015 369.722 249.723 369.46 250.616C368.981 252.248 369.544 253.941 371.021 254.603C372.995 255.489 374.994 253.077 375.308 251.121C375.416 250.447 375.54 249.452 375.147 248.834C374.576 247.938 373.044 247.647 372.161 247.546C370.028 247.3 367.706 249.096 367.252 251.457C367.058 252.468 366.995 253.673 367.237 254.684C367.533 255.926 368.639 256.599 369.683 256.89C371.389 257.364 373.629 255.81 374.121 253.953C374.494 252.54 374.662 250.684 374.053 249.322C373.465 248.006 372.89 248.734 372.648 249.902C372.492 250.656 372.28 251.739 372.55 252.496C372.937 253.585 374.398 253.939 375.308 254.011C376.352 254.094 377.339 253.749 378.267 253.233C379.611 252.488 381.376 251.361 382.052 249.763C383.343 246.709 380.291 245.428 378.153 245.096C376.032 244.768 373.236 244.946 372.332 247.551C372.006 248.492 371.911 249.558 371.809 250.552C371.765 250.973 371.575 251.888 371.943 252.247C373.059 253.331 373.213 248.75 373.151 248.294C372.875 246.256 371.392 243.71 369.559 243.083C368.504 242.721 367.192 242.648 366.117 242.938C364.474 243.38 363.456 245.103 362.633 246.617C362.266 247.293 360.736 250.963 362.338 251.219C363.94 251.476 365.475 249.314 365.733 247.743C365.932 246.529 365.718 244.904 364.614 244.359C363.247 243.685 362.113 244.791 361.628 246.188C361.176 247.486 360.422 249.785 361.721 250.761C362.669 251.473 364.139 251.296 364.52 249.948C364.909 248.576 364.898 247.008 364.168 245.781C363.311 244.342 361.611 244.825 360.638 245.839C359.446 247.081 359.177 249.385 359.471 251.121C359.609 251.933 360.795 253.837 361.726 253.378C362.519 252.988 362.663 251.209 362.649 250.407C362.636 249.653 362 247.938 361.047 248.683C359.765 249.687 359.88 252.607 360.467 253.97C360.881 254.933 361.734 255.549 362.571 255.984C363.902 256.677 365.651 257.324 367.123 256.82C368.837 256.233 370.172 254.43 369.756 252.351C369.471 250.928 367.766 251.117 367.065 251.91C365.98 253.14 365.461 255.036 365.194 256.704C365.088 257.366 365.218 258.113 365.847 257.313C366.453 256.544 366.869 254.783 365.692 254.429C364.392 254.038 363.077 254.065 362.094 255.178C361.267 256.114 360.646 257.719 360.829 259.072C361.001 260.336 362.997 259.133 363.364 258.648C363.755 258.133 364.01 257.037 363.8 256.385C363.546 255.599 362.713 255.709 362.55 256.472C362.142 258.395 362.871 260.377 364.624 260.877C366.9 261.526 369.194 259.893 370.43 257.795C370.859 257.067 371.668 255.131 371.14 254.243C370.861 253.775 369.822 253.973 369.548 254.336C368.427 255.822 370.717 257.476 371.638 257.934C372.233 258.231 373.175 258.684 373.861 258.422C374.484 258.184 374.687 257.178 374.722 256.553C374.784 255.442 374.339 254.175 373.312 253.825C372.274 253.472 371.942 254.735 372.063 255.659C372.35 257.865 374.811 257.484 376.08 256.681C377.848 255.562 379.58 252.555 379.061 250.192C378.85 249.235 377.287 247.743 376.495 248.904C375.828 249.881 376.332 251.481 377.293 251.898C378.885 252.591 379.392 250.644 379.055 249.229C378.738 247.895 377.961 246.833 377.039 245.955C375.179 244.184 372.698 242.719 370.285 242.241C366.546 241.501 361.963 242.63 360.285 246.803C359.777 248.066 358.808 251.068 360.404 251.945C363.004 253.373 364.761 247.236 361.887 246.954C361.26 246.892 360.686 247.623 360.342 248.074C359.387 249.328 358.769 250.798 358.3 252.351C357.837 253.884 357.527 255.494 357.356 257.099C357.227 258.312 357.032 259.905 357.642 261.016C358.576 262.718 360.477 261.97 361.306 260.604C362.408 258.792 362.834 256.08 362.457 253.93C362.265 252.833 361.673 252.017 360.721 251.666C360.135 251.45 359.325 251.402 359.171 252.258C359.005 253.175 359.297 254.375 359.881 255.044C360.914 256.228 361.378 253.484 361.472 252.839C361.655 251.585 361.406 248.808 359.756 248.962C357.587 249.164 356.642 253.01 356.413 254.916C356.315 255.728 356.21 256.843 356.714 257.54C357.465 258.581 358.972 258.131 359.834 257.58C363.149 255.465 364.099 250.24 364.344 246.35C364.511 243.707 364.382 239.633 362.011 238.109C360.081 236.868 358.204 239.297 357.652 241.109C357.264 242.382 356.769 245.191 357.978 246.164C358.775 246.805 359.682 246.428 359.943 245.404C360.191 244.434 359.95 243.422 359.186 242.845C357.786 241.787 356.114 242.218 355.024 243.588C353.45 245.563 352.554 248.783 353.225 251.394C353.859 253.861 356.669 253.49 357.978 251.933C359.116 250.581 359.669 248.584 360.135 246.861C360.611 245.1 361.034 243.228 361.006 241.371C360.995 240.682 360.522 237.717 359.285 238.329C358.229 238.852 358.885 241.912 359.233 242.694C359.988 244.392 361.353 243.312 361.586 241.887C361.848 240.289 361.676 236.265 359.471 236.542C358.702 236.638 358.081 237.145 357.657 237.848C356.801 239.266 356.284 241.127 355.926 242.775C355.66 243.995 355.135 246.677 357.045 246.222C359.035 245.749 360.417 242.84 360.223 240.697C360.122 239.586 359.196 238.569 358.16 238.689C357.541 238.761 357.244 239.351 357.014 239.943C356.305 241.771 356.019 243.852 355.926 245.828C355.861 247.2 355.798 248.773 356.195 250.099C356.711 251.822 358.241 252.391 359.751 252.183C361.985 251.875 364.139 250.57 365.992 249.217C368.13 247.657 370.163 245.654 371.311 243.054C371.618 242.357 372.085 241.145 371.824 240.326C371.629 239.715 371.03 239.883 370.679 240.198C369.042 241.666 369.002 244.831 370.673 246.24C371.855 247.236 373.4 247.541 374.846 247.534C375.713 247.53 378.793 247.455 379.024 245.944C379.283 244.253 376.019 244.057 375.199 244.4C373.987 244.907 373.99 247.01 374.328 248.143C374.798 249.723 376.159 250.439 377.5 249.6C378.425 249.022 379.433 247.145 378.646 246.002C378.178 245.322 377.433 245.447 377.749 246.42C378.053 247.355 379.166 249.036 380.258 248.735C381.379 248.427 381.268 246.528 380.434 245.967C379.092 245.064 377.594 245.208 377.086 247.012C376.726 248.286 377.218 250.245 378.755 249.774C379.613 249.511 380.686 248.529 380.673 247.43C380.652 245.691 377.123 246.15 376.235 246.35C374.837 246.665 373.313 247.337 372.016 248.01C371.883 248.079 371.833 248.296 372.063 248.074C373.017 247.152 373.602 245.59 373.867 244.249C374.34 241.854 373.712 239.228 372.514 237.215C372.032 236.406 371.153 235.698 371.021 237.134C370.976 237.621 371.048 239.841 371.995 239.287C372.322 239.096 372.453 238.596 372.441 238.213C372.408 237.176 371.547 236.656 370.772 236.356C368.426 235.45 365.758 235.407 364.002 237.633C363.228 238.615 361.267 243.271 364.064 242.671C366.744 242.095 368.061 238.51 368.408 235.834C368.569 234.591 368.601 231.893 366.879 232.003C366.31 232.04 366.024 232.587 365.827 233.129C365.268 234.66 364.984 236.593 365.308 238.225C365.792 240.661 368.062 241.836 370.077 240.819C371.094 240.306 371.966 238.715 371.404 237.47C371.34 237.329 371.035 236.998 371.098 237.14C371.357 237.719 372.236 237.997 372.736 238.091C375.378 238.592 376.168 234.114 373.333 233.733C372.02 233.556 371.646 235.147 371.803 236.31C371.894 236.981 372.666 238.437 373.364 237.505C373.939 236.737 374.121 235.192 373.301 234.557C371.985 233.537 369.261 233.582 368.926 235.712C368.752 236.819 369.226 238.493 370.471 238.48C370.794 238.477 370.959 238.196 370.964 237.859C370.975 236.957 370.175 236.565 369.512 236.379C366.573 235.557 364.489 237.741 362.965 240.337C361.971 242.031 361.178 243.895 360.84 245.897C360.64 247.08 360.361 249.106 361.006 250.204C361.39 250.858 362.2 251.133 362.841 250.836C364.286 250.167 365.136 247.945 365.381 246.35C365.756 243.898 364.69 241.132 362.177 241.336C359.883 241.522 358.754 244.554 358.264 246.704C358.175 247.094 358.007 247.828 358.227 248.231C358.553 248.825 359.354 248.053 359.585 247.778C360.266 246.969 360.846 245.095 360.182 244.092C358.818 242.038 356.357 244.489 355.677 245.967C355.196 247.012 354.974 248.209 354.827 249.362C354.758 249.899 354.587 250.799 354.827 251.341C355.284 252.375 356.401 250.935 356.626 250.488C356.838 250.064 357.271 248.886 356.755 248.497C355.81 247.785 355.839 250.815 355.827 251.092C355.737 253.229 355.626 256.329 357.45 257.691C358.721 258.64 359.554 257.263 359.482 255.938C359.427 254.928 358.651 255.02 358.409 255.915C358.07 257.168 358.029 259.91 359.233 260.685C360.338 261.397 361.466 259.991 361.96 259.049C362.206 258.578 362.613 257 362.395 257.487C361.822 258.771 363.578 259.34 364.344 259.49C365.247 259.666 366.366 259.713 367.226 259.281C368.296 258.743 369.138 257.333 369.673 256.228C369.872 255.816 370.881 253.036 369.414 253.663C368.526 254.042 368.284 256.085 368.994 256.739C369.887 257.562 372.336 258.346 373.146 256.983C374.05 255.459 372.336 254.117 371.285 253.616C370.982 253.472 369.546 252.932 369.73 253.918C370.077 255.781 372.702 255.443 373.768 254.928C375.334 254.172 378.064 251.476 376.909 249.229C376.738 248.894 376.347 248.641 376.059 249.008C375.576 249.626 375.636 250.82 375.852 251.539C376.102 252.37 377.28 253.155 377.874 252.282C379.064 250.529 379.118 247.615 378.122 245.77C377.806 245.183 377.345 244.598 376.775 244.307C376.291 244.061 376.087 244.375 376.204 244.911C376.37 245.671 377.318 247.564 378.278 246.809C379.422 245.908 379.473 243.506 379.252 242.137C379.179 241.681 378.57 239.755 378.153 241.057C377.959 241.664 378.028 242.554 378.615 242.839C379.095 243.072 378.813 242.523 378.641 242.311C378.229 241.803 377.417 241.179 376.966 241.939C376.422 242.859 376.114 244.032 375.8 245.062C375.323 246.625 374.912 248.22 374.587 249.832C374.51 250.217 374.332 250.819 374.364 251.237C374.365 251.249 374.635 250.738 374.566 250.465C374.369 249.674 373.451 249.41 372.825 249.345C370.326 249.084 367.637 250.238 365.578 251.736C364.224 252.721 363.147 254.026 362.462 255.659C362.126 256.461 361.687 257.703 362.146 258.584C362.54 259.339 363.479 259.461 364.152 259.275C365.242 258.974 365.968 257.939 366.298 256.791C366.5 256.09 366.687 254.456 365.889 254.034C365.742 253.957 365.768 254.284 365.77 254.324C365.789 254.74 365.974 255.047 366.231 255.334C366.266 255.374 367.031 256.153 367.019 255.717C367.005 255.188 366.406 255.351 366.293 255.746C366.088 256.467 366.386 257.337 367.112 257.47C367.503 257.542 367.701 257.187 367.827 256.832C368.16 255.896 368.044 254.853 367.454 254.075C365.97 252.117 362.722 252.126 360.747 252.914C359.959 253.228 359.153 253.799 358.756 254.661C358.412 255.409 358.566 256.352 359.337 256.646C362.272 257.766 362.977 247.944 358.87 247.859C358.042 247.842 356.85 248.753 357.388 249.821C357.524 250.091 357.789 250.109 357.989 249.89C358.478 249.355 358.608 248.306 358.414 247.604C358.091 246.435 356.532 245.563 355.946 246.965C355.713 247.525 355.636 248.189 355.604 248.799C355.578 249.315 355.627 249.253 355.957 249.391" stroke="black" stroke-linecap="round" stroke-linejoin="round"/>
<path d="M371.105 238.5C371.105 234.486 368.735 223.096 371.105 219.776C373.821 215.971 377.736 214.474 382.025 214.239C391.921 213.698 402.753 218.115 410.591 224.843C416.549 229.958 419.315 237.878 414.417 245.029C412.337 248.067 408.872 251.13 405.535 252.227C403.189 252.998 400.006 253.788 398.269 251.417C393.212 244.518 393.703 235.024 393.943 226.653C394.32 213.51 405.315 200.9 416.243 197.205C425.333 194.131 432.96 197.887 440.831 202.869C446.672 206.566 452.457 209.999 457.248 215.347C462.398 221.095 471.52 232.648 467.667 242.006C465.945 246.188 460.897 250.323 456.959 251.481C453.212 252.584 450.923 251.682 449.155 247.691C447.439 243.819 446.495 238.783 446.252 234.532C445.732 225.442 445.921 216.189 449.481 207.894C451.242 203.792 454.304 200.43 457.479 197.631C462.657 193.063 467.778 191.497 474.396 192.137C484.568 193.121 493.762 202.189 496.888 212.962C499.671 222.554 498.551 232.413 499.81 242.176C500.435 247.027 502.135 248.967 505 252.141" stroke="black" stroke-width="2" stroke-linecap="round" stroke-linejoin="round"/>
<path d="M495.5 311.5H511V318.5H495.5V311.5Z" fill="#D7AD96" stroke="black"/>
<path d="M495.5 263V307.5H511V261.5L507 264.5L503 261.5L499 264.5L495.5 261.5V263Z" fill="#EDD9C0" stroke="black"/>
</svg>
