<svg width="303" height="144" viewBox="0 0 303 144" fill="none" xmlns="http://www.w3.org/2000/svg">
<path d="M17.136 126.288C14.112 126.288 11.232 125.832 8.496 124.92C5.76 124.008 3.624 122.856 2.088 121.464L3.744 118.584C5.28 119.88 7.248 120.96 9.648 121.824C12.096 122.688 14.64 123.12 17.28 123.12C21.072 123.12 23.856 122.496 25.632 121.248C27.456 120 28.368 118.272 28.368 116.064C28.368 114.48 27.864 113.232 26.856 112.32C25.896 111.408 24.696 110.736 23.256 110.304C21.816 109.872 19.824 109.416 17.28 108.936C14.304 108.408 11.904 107.832 10.08 107.208C8.256 106.584 6.696 105.576 5.4 104.184C4.104 102.792 3.456 100.872 3.456 98.424C3.456 95.448 4.68 93 7.128 91.08C9.624 89.112 13.152 88.128 17.712 88.128C20.112 88.128 22.488 88.464 24.84 89.136C27.192 89.808 29.112 90.696 30.6 91.8L28.944 94.68C27.408 93.576 25.656 92.736 23.688 92.16C21.72 91.584 19.704 91.296 17.64 91.296C14.136 91.296 11.496 91.944 9.72 93.24C7.944 94.536 7.056 96.24 7.056 98.352C7.056 100.032 7.56 101.352 8.568 102.312C9.576 103.224 10.8 103.92 12.24 104.4C13.728 104.832 15.792 105.312 18.432 105.84C21.36 106.368 23.712 106.944 25.488 107.568C27.312 108.144 28.848 109.104 30.096 110.448C31.344 111.792 31.968 113.64 31.968 115.992C31.968 119.112 30.672 121.608 28.08 123.48C25.488 125.352 21.84 126.288 17.136 126.288Z" fill="black"/>
<path d="M61.1171 126.288C57.4691 126.288 54.2051 125.472 51.3251 123.84C48.4451 122.208 46.1891 119.952 44.5571 117.072C42.9251 114.144 42.1091 110.856 42.1091 107.208C42.1091 103.512 42.9251 100.224 44.5571 97.344C46.1891 94.416 48.4451 92.16 51.3251 90.576C54.2051 88.944 57.4691 88.128 61.1171 88.128C64.1411 88.128 66.8771 88.728 69.3251 89.928C71.8211 91.08 73.8371 92.784 75.3731 95.04L72.7091 96.984C71.3651 95.112 69.6851 93.72 67.6691 92.808C65.7011 91.848 63.5171 91.368 61.1171 91.368C58.1891 91.368 55.5491 92.04 53.1971 93.384C50.8931 94.68 49.0691 96.528 47.7251 98.928C46.4291 101.328 45.7811 104.088 45.7811 107.208C45.7811 110.328 46.4291 113.088 47.7251 115.488C49.0691 117.888 50.8931 119.76 53.1971 121.104C55.5491 122.4 58.1891 123.048 61.1171 123.048C63.5171 123.048 65.7011 122.592 67.6691 121.68C69.6851 120.72 71.3651 119.304 72.7091 117.432L75.3731 119.376C73.8371 121.632 71.8211 123.36 69.3251 124.56C66.8771 125.712 64.1411 126.288 61.1171 126.288Z" fill="black"/>
<path d="M92.9542 96.624C94.1062 93.888 95.9062 91.8 98.3542 90.36C100.802 88.872 103.778 88.128 107.282 88.128V91.656L106.418 91.584C102.242 91.584 98.9782 92.904 96.6262 95.544C94.2742 98.136 93.0982 101.76 93.0982 106.416V126H89.4982V88.416H92.9542V96.624Z" fill="black"/>
<path d="M122.434 88.416H126.034V126H122.434V88.416ZM124.234 79.272C123.418 79.272 122.722 79.008 122.146 78.48C121.57 77.904 121.282 77.208 121.282 76.392C121.282 75.576 121.57 74.88 122.146 74.304C122.722 73.728 123.418 73.44 124.234 73.44C125.05 73.44 125.746 73.728 126.322 74.304C126.898 74.832 127.186 75.504 127.186 76.32C127.186 77.136 126.898 77.832 126.322 78.408C125.746 78.984 125.05 79.272 124.234 79.272Z" fill="black"/>
<rect x="114.802" y="69" width="17.8789" height="11" fill="white"/>
<path d="M164.822 88.128C168.326 88.128 171.494 88.944 174.326 90.576C177.158 92.16 179.366 94.416 180.95 97.344C182.582 100.224 183.398 103.512 183.398 107.208C183.398 110.904 182.582 114.192 180.95 117.072C179.366 119.952 177.158 122.208 174.326 123.84C171.494 125.472 168.326 126.288 164.822 126.288C161.462 126.288 158.414 125.496 155.678 123.912C152.99 122.28 150.902 120.024 149.414 117.144V126H145.958V72.576H149.558V96.984C151.046 94.2 153.134 92.04 155.822 90.504C158.51 88.92 161.51 88.128 164.822 88.128ZM164.606 123.048C167.486 123.048 170.078 122.376 172.382 121.032C174.686 119.688 176.486 117.816 177.782 115.416C179.126 113.016 179.798 110.28 179.798 107.208C179.798 104.136 179.126 101.4 177.782 99C176.486 96.6 174.686 94.728 172.382 93.384C170.078 92.04 167.486 91.368 164.606 91.368C161.726 91.368 159.134 92.04 156.83 93.384C154.574 94.728 152.774 96.6 151.43 99C150.134 101.4 149.486 104.136 149.486 107.208C149.486 110.28 150.134 113.016 151.43 115.416C152.774 117.816 154.574 119.688 156.83 121.032C159.134 122.376 161.726 123.048 164.606 123.048Z" fill="black"/>
<path d="M216.577 88.128C220.081 88.128 223.249 88.944 226.081 90.576C228.913 92.16 231.121 94.416 232.705 97.344C234.337 100.224 235.153 103.512 235.153 107.208C235.153 110.904 234.337 114.192 232.705 117.072C231.121 119.952 228.913 122.208 226.081 123.84C223.249 125.472 220.081 126.288 216.577 126.288C213.217 126.288 210.169 125.496 207.433 123.912C204.745 122.28 202.657 120.024 201.169 117.144V126H197.713V72.576H201.313V96.984C202.801 94.2 204.889 92.04 207.577 90.504C210.265 88.92 213.265 88.128 216.577 88.128ZM216.361 123.048C219.241 123.048 221.833 122.376 224.137 121.032C226.441 119.688 228.241 117.816 229.537 115.416C230.881 113.016 231.553 110.28 231.553 107.208C231.553 104.136 230.881 101.4 229.537 99C228.241 96.6 226.441 94.728 224.137 93.384C221.833 92.04 219.241 91.368 216.361 91.368C213.481 91.368 210.889 92.04 208.585 93.384C206.329 94.728 204.529 96.6 203.185 99C201.889 101.4 201.241 104.136 201.241 107.208C201.241 110.28 201.889 113.016 203.185 115.416C204.529 117.816 206.329 119.688 208.585 121.032C210.889 122.376 213.481 123.048 216.361 123.048Z" fill="black"/>
<path d="M301.921 108.072H269.593C269.689 111 270.433 113.616 271.825 115.92C273.217 118.176 275.089 119.928 277.441 121.176C279.841 122.424 282.529 123.048 285.505 123.048C287.953 123.048 290.209 122.616 292.273 121.752C294.385 120.84 296.137 119.52 297.529 117.792L299.617 120.168C297.985 122.136 295.921 123.648 293.425 124.704C290.977 125.76 288.313 126.288 285.433 126.288C281.689 126.288 278.353 125.472 275.425 123.84C272.497 122.208 270.193 119.952 268.513 117.072C266.881 114.192 266.065 110.904 266.065 107.208C266.065 103.56 266.833 100.296 268.369 97.416C269.953 94.488 272.113 92.208 274.849 90.576C277.585 88.944 280.657 88.128 284.065 88.128C287.473 88.128 290.521 88.944 293.209 90.576C295.945 92.16 298.081 94.392 299.617 97.272C301.201 100.152 301.993 103.416 301.993 107.064L301.921 108.072ZM284.065 91.296C281.425 91.296 279.049 91.896 276.937 93.096C274.825 94.248 273.121 95.904 271.825 98.064C270.577 100.176 269.857 102.576 269.665 105.264H298.465C298.321 102.576 297.601 100.176 296.305 98.064C295.009 95.952 293.305 94.296 291.193 93.096C289.081 91.896 286.705 91.296 284.065 91.296Z" fill="black"/>
<path d="M242.086 128V69.993L249.585 58L256.892 69.993V128H242.086Z" stroke="black" stroke-width="2"/>
<path d="M242.086 70.3529L245.658 73.647L249.007 70.3529L252.802 73.647L256.151 70.3529" stroke="black" stroke-width="2"/>
<path d="M247.268 62.1177H251.709" stroke="black" stroke-width="2"/>
<path d="M241.835 120.669L256.544 120.445" stroke="black" stroke-width="2"/>
<path d="M242.086 116.471H256.151" stroke="black" stroke-width="2"/>
<path d="M247.268 62.1176L249.488 58L251.709 62.1176H247.268Z" fill="black" stroke="black" stroke-width="2"/>
<path d="M128.557 47.0043C127.636 46.475 126.669 45.9748 125.689 45.623C125.115 45.4168 124.528 45.3788 123.933 45.3329C122.998 45.2606 121.98 45.1176 121.065 45.4431C118.767 46.2611 118.811 49.0335 119.465 51.3804C120.998 56.8791 126.201 60.0788 130.787 60.5851C132.728 60.7994 134.838 60.2045 135.664 57.8863C136.522 55.4808 135.435 52.6428 133.835 51.0786C132.858 50.1227 130.465 48.8877 129.235 49.8308C127.886 50.8651 127.06 52.9884 127.289 54.8626C127.462 56.2732 128.027 58.2019 129.523 57.8689C131.962 57.3264 131.578 54.1414 130.655 52.1755C129.187 49.0508 126.323 46.6497 123.221 47.341C122.381 47.5281 121.633 47.9684 121.109 48.7861C120.251 50.1251 119.578 52.1872 119.65 53.8876C119.705 55.1685 120.463 56.0902 121.319 56.7662C122.754 57.9001 125.052 58.9903 126.821 58.5654C128.142 58.2479 128.733 56.3264 129.177 55.0773C129.966 52.8552 130.613 50.4377 130.113 48.02C129.789 46.4522 129.097 44.8824 128.157 43.7078C126.909 42.1479 125.115 41.6593 123.358 41.8274C122.222 41.9361 121.242 42.4344 120.363 43.2783C119.072 44.5171 117.815 46.1775 117.041 47.9329C115.952 50.4006 117.203 53.6729 118.719 55.501C119.471 56.4083 120.504 56.8481 121.533 57.1028C122.961 57.4563 124.99 57.782 126.294 56.7314C127.215 55.9899 127.746 54.5768 128.07 53.3768C128.587 51.4598 128.625 49.6194 127.635 47.9213C125.817 44.7999 122.185 42.7177 119.016 42.6167C117.633 42.5726 116.419 43.0168 115.543 44.3462C113.709 47.1307 113.988 51.0834 114.802 54.2474C115.701 57.7408 117.411 61.3383 120.919 61.2235C122.063 61.186 122.866 60.5072 123.499 59.4127C124.938 56.9263 125.859 53.6703 126.182 50.6897C126.481 47.9316 125.424 44.934 123.46 43.348C121.538 41.7957 118.558 43.7017 117.27 45.4722C115.315 48.1597 113.787 51.6357 113.012 55.0657C112.758 56.1902 112.385 57.6747 112.587 58.8672C112.804 60.1487 114.234 60.5477 115.143 60.6431C116.238 60.7579 117.187 60.363 118.099 59.6681C119.767 58.3973 121.436 56.5581 122.441 54.5086C122.976 53.4156 123.249 52.1254 123.328 50.8696C123.402 49.6898 123.095 48.9566 122.294 48.2695C120.702 46.9026 118.591 46.3336 116.86 47.753C116.091 48.3843 115.612 49.4273 115.221 50.4053C114.477 52.2704 113.753 54.4496 113.573 56.5225C113.334 59.2663 114.585 62.8918 116.997 63.6611C119.818 64.5607 123.024 63.2582 123.899 59.7958C124.411 57.7703 124.437 55.5992 123.387 53.8063C122.692 52.6188 121.506 52.0738 120.616 53.2608C119.293 55.0253 119.198 58.0564 119.314 60.2891C119.385 61.646 119.754 62.7401 120.48 63.8003C121.504 65.2974 123.032 66.8892 124.655 67.3522C126.874 67.9853 128.695 65.4761 128.835 63.0401C128.934 61.3323 128.301 59.2503 127.153 58.1475C126.354 57.3804 125.868 58.3222 125.689 59.2386C125.292 61.2763 126.265 64.0464 127.606 65.3209C128.267 65.9489 129.256 66.2944 130.089 66.3772C131.301 66.4977 132.171 65.5026 132.83 64.4039C134.056 62.3607 133.494 59.392 132.338 57.4569C131.687 56.3685 129.872 54.6513 129.533 56.8823C129.409 57.6959 129.57 58.546 129.787 59.3141C130.173 60.685 130.793 61.3107 131.957 61.6878C132.74 61.9413 133.543 62.0923 134.313 61.6762C135.116 61.2421 136.133 60.2044 136.381 59.1457C136.617 58.1422 136.144 56.9652 135.767 56.122C135.194 54.8426 134.504 53.7973 133.269 53.5161C132.164 53.2645 130.895 53.6408 130.421 54.9961C129.761 56.8798 130.527 59.8515 132.245 60.527C132.891 60.7809 133.413 60.4194 133.84 59.8654C134.879 58.5172 134.701 56.5479 134.552 54.8684C134.418 53.3517 134.222 51.6837 133.523 50.3589C132.866 49.1133 131.64 48.1885 130.499 47.7008C129.471 47.2614 127.705 47.4152 127.211 48.8267C126.67 50.3744 127.102 52.6732 128.396 53.4291C130.069 54.406 130.624 51.943 130.645 50.3705C130.673 48.2697 129.351 46.2392 127.631 45.7565C126.339 45.394 125.463 46.0972 124.719 47.3293C123.657 49.086 122.722 52.8494 124.45 54.5028C124.96 54.9908 125.766 55.2077 126.406 55.1238C127.432 54.9893 127.984 53.7698 128.377 52.7732C128.772 51.7725 129.019 50.7765 128.762 49.6741C128.477 48.4466 127.754 47.0746 126.723 46.5749C123.763 45.1396 120.321 47.3355 118.943 50.4982C117.99 52.685 117.775 55.7492 119.904 57.0564C121.757 58.1939 124.07 57.2039 124.855 54.8916C125.578 52.7613 125.573 49.7178 124.07 48.0838C123.486 47.4494 122.696 46.7275 121.875 46.6445C120.876 46.5436 119.683 47.2019 118.899 47.8749C117.626 48.9675 116.884 50.6605 116.182 52.2741C115.419 54.0295 114.694 55.8402 114.495 57.8225C114.388 58.8827 114.281 60.1738 114.519 61.2235C114.801 62.4698 116.107 62.6849 117.026 62.6976C118.676 62.7205 120.887 60.877 121.406 58.989C121.687 57.9686 121.8 56.6381 120.772 56.2729C118.743 55.5517 118.087 59.9148 117.846 61.4556C117.617 62.9137 117.606 64.4044 117.768 65.8723C117.909 67.1571 118.129 69.0426 119.499 69.163C120.674 69.2662 122.076 68.7358 123.104 68.1067C124.535 67.2315 125.224 65.5514 125.738 63.8236C126.145 62.4547 126.309 60.7824 125.455 59.5868C125.046 59.0145 123.95 58.7235 123.704 59.6158C123.253 61.2483 123.783 62.9406 125.172 63.603C127.03 64.4887 128.911 62.077 129.206 60.1208C129.308 59.4465 129.425 58.4518 129.055 57.8341C128.518 56.9377 127.077 56.6473 126.245 56.5457C124.238 56.3004 122.053 58.0958 121.626 60.4574C121.443 61.4682 121.384 62.673 121.611 63.6843C121.891 64.9257 122.931 65.5992 123.914 65.8897C125.519 66.3642 127.627 64.8102 128.089 62.953C128.441 61.5402 128.598 59.6842 128.026 58.3216C127.473 57.0057 126.931 57.7336 126.704 58.902C126.557 59.6557 126.358 60.7388 126.611 61.4963C126.975 62.5849 128.351 62.9387 129.206 63.011C130.189 63.094 131.117 62.7488 131.991 62.2333C133.256 61.4878 134.916 60.3607 135.552 58.7627C136.767 55.7087 133.895 54.4276 131.884 54.0965C129.888 53.7679 127.257 53.9463 126.406 56.5515C126.099 57.4923 126.01 58.5577 125.914 59.552C125.873 59.9732 125.693 60.8884 126.04 61.2467C127.09 62.3305 127.235 57.7502 127.177 57.2944C126.917 55.2559 125.522 52.7105 123.797 52.0826C122.804 51.7215 121.569 51.6477 120.558 51.9375C119.012 52.3804 118.054 54.1027 117.28 55.6171C116.934 56.2929 115.494 59.9632 117.002 60.2194C118.51 60.4757 119.954 58.3139 120.197 56.743C120.384 55.5294 120.183 53.9042 119.143 53.3594C117.857 52.6852 116.79 53.7911 116.334 55.1876C115.909 56.486 115.199 58.7854 116.421 59.7609C117.313 60.4729 118.697 60.2958 119.055 58.9484C119.421 57.5758 119.411 56.0084 118.724 54.7813C117.917 53.3416 116.318 53.8253 115.402 54.8394C114.28 56.0812 114.027 58.3852 114.304 60.1208C114.434 60.9332 115.549 62.8374 116.426 62.3784C117.172 61.9881 117.308 60.2089 117.294 59.4069C117.282 58.6526 116.683 56.9377 115.787 57.6832C114.581 58.6871 114.689 61.6065 115.241 62.9704C115.63 63.933 116.433 64.5488 117.221 64.9843C118.474 65.6766 120.119 66.3238 121.504 65.82C123.118 65.2329 124.374 63.4297 123.982 61.3512C123.714 59.9281 122.11 60.1165 121.45 60.9101C120.429 62.1396 119.94 64.0361 119.689 65.704C119.59 66.3663 119.712 67.1132 120.304 66.3134C120.874 65.5439 121.266 63.7833 120.158 63.4289C118.935 63.0378 117.697 63.0655 116.773 64.1776C115.994 65.1141 115.41 66.7192 115.582 68.0719C115.744 69.3361 117.622 68.1332 117.968 67.6482C118.335 67.1327 118.576 66.0368 118.377 65.3848C118.138 64.5988 117.354 64.7086 117.202 65.4718C116.817 67.3952 117.504 69.3772 119.153 69.8768C121.295 70.5259 123.453 68.8931 124.616 66.7951C125.02 66.067 125.782 64.1306 125.284 63.2432C125.022 62.7754 124.044 62.9732 123.787 63.336C122.732 64.8224 124.887 66.4759 125.753 66.9344C126.313 67.231 127.199 67.6841 127.845 67.4219C128.431 67.1838 128.622 66.1779 128.655 65.5531C128.713 64.4424 128.294 63.1748 127.328 62.8253C126.352 62.4722 126.039 63.7353 126.153 64.6593C126.423 66.8653 128.739 66.4838 129.933 65.6807C131.596 64.5621 133.226 61.5548 132.738 59.1922C132.54 58.2354 131.069 56.7426 130.323 57.9037C129.695 58.881 130.17 60.4807 131.074 60.8985C132.572 61.5905 133.049 59.6437 132.733 58.2288C132.435 56.8949 131.703 55.8333 130.835 54.9555C129.085 53.1839 126.751 51.719 124.48 51.2411C120.961 50.5006 116.649 51.6295 115.07 55.8028C114.592 57.0665 113.68 60.0676 115.182 60.9449C117.628 62.3731 119.282 56.2363 116.577 55.9537C115.988 55.892 115.447 56.623 115.124 57.0738C114.225 58.3283 113.643 59.7981 113.202 61.3512C112.767 62.8837 112.475 64.4936 112.314 66.0986C112.192 67.3123 112.009 68.9054 112.582 70.0161C113.461 71.7176 115.25 70.9698 116.031 69.6041C117.067 67.7916 117.469 65.0799 117.114 62.9298C116.933 61.8332 116.376 61.0172 115.48 60.6663C114.928 60.4505 114.167 60.4022 114.021 61.2583C113.866 62.1749 114.141 63.3753 114.69 64.0441C115.662 65.228 116.099 62.4841 116.187 61.8387C116.359 60.5848 116.125 57.8079 114.573 57.9618C112.531 58.1642 111.642 62.0104 111.426 63.9164C111.335 64.7282 111.236 65.8427 111.709 66.5397C112.417 67.5807 113.834 67.1306 114.646 66.5803C117.765 64.4651 118.659 59.2402 118.89 55.3501C119.046 52.7067 118.925 48.6333 116.694 47.1088C114.878 45.8678 113.112 48.2972 112.592 50.1093C112.227 51.3821 111.761 54.191 112.9 55.1644C113.649 55.8053 114.502 55.428 114.748 54.4041C114.981 53.4342 114.755 52.4217 114.036 51.8446C112.719 50.7866 111.145 51.218 110.119 52.5875C108.638 54.5635 107.795 57.7831 108.427 60.3935C109.023 62.861 111.667 62.4902 112.9 60.9333C113.97 59.5807 114.49 57.5841 114.929 55.8608C115.377 54.0998 115.774 52.2282 115.748 50.3705C115.738 49.6821 115.293 46.7171 114.129 47.3293C113.135 47.8519 113.753 50.9118 114.08 51.6938C114.79 53.3919 116.075 52.3121 116.295 50.887C116.54 49.2887 116.379 45.2652 114.304 45.5418C113.58 45.6383 112.996 46.1453 112.597 46.8476C111.792 48.2656 111.305 50.1271 110.968 51.775C110.718 52.9946 110.224 55.6773 112.022 55.2224C113.894 54.7487 115.195 51.8398 115.012 49.6973C114.917 48.5856 114.045 47.5686 113.07 47.6892C112.488 47.7612 112.208 48.3505 111.992 48.9428C111.325 50.7715 111.056 52.8516 110.968 54.8278C110.907 56.1998 110.848 57.7731 111.222 59.0993C111.707 60.8222 113.147 61.3908 114.568 61.1829C116.67 60.8753 118.697 59.5699 120.441 58.2171C122.452 56.6568 124.365 54.6537 125.445 52.0536C125.735 51.3574 126.174 50.1445 125.928 49.3258C125.745 48.7154 125.181 48.8826 124.85 49.1981C123.31 50.666 123.273 53.8311 124.845 55.2398C125.957 56.2356 127.411 56.5415 128.772 56.5341C129.588 56.5296 132.486 56.4547 132.704 54.9438C132.947 53.2534 129.875 53.0569 129.104 53.4C127.964 53.9069 127.967 56.0096 128.284 57.1435C128.727 58.7234 130.008 59.4394 131.269 58.6002C132.139 58.0218 133.088 56.1454 132.347 55.0019C131.907 54.3224 131.206 54.4469 131.504 55.4197C131.79 56.3554 132.837 58.036 133.864 57.7354C134.919 57.4269 134.815 55.5284 134.03 54.9671C132.767 54.0636 131.358 54.208 130.879 56.0117C130.541 57.2861 131.004 59.2454 132.45 58.7743C133.257 58.5113 134.267 57.5292 134.255 56.4296C134.235 54.6906 130.914 55.1501 130.079 55.3501C128.764 55.6653 127.329 56.3367 126.109 57.01C125.984 57.079 125.936 57.2959 126.153 57.0738C127.05 56.1522 127.601 54.5903 127.85 53.2492C128.295 50.8539 127.705 48.2279 126.577 46.215C126.124 45.406 125.296 44.6984 125.172 46.1338C125.13 46.6209 125.197 48.8405 126.089 48.287C126.397 48.096 126.52 47.5964 126.509 47.2133C126.478 46.1756 125.668 45.6555 124.938 45.3561C122.73 44.45 120.22 44.4065 118.568 46.6329C117.839 47.6146 115.994 52.2714 118.626 51.6705C121.148 51.0948 122.388 47.5105 122.714 44.8337C122.865 43.5913 122.896 40.8931 121.275 41.0033C120.74 41.0397 120.471 41.5874 120.285 42.1292C119.759 43.6597 119.492 45.5929 119.797 47.2249C120.252 49.6609 122.388 50.8362 124.284 49.8191C125.242 49.3058 126.062 47.7148 125.533 46.4704C125.473 46.3287 125.186 45.9976 125.245 46.1396C125.489 46.7189 126.316 46.9965 126.787 47.0914C129.272 47.5922 130.016 43.1145 127.348 42.7328C126.113 42.5561 125.761 44.1467 125.909 45.3096C125.994 45.981 126.721 47.4366 127.377 46.5052C127.918 45.7366 128.089 44.1917 127.318 43.5569C126.08 42.5374 123.516 42.5823 123.202 44.7119C123.038 45.8191 123.484 47.4933 124.655 47.4802C124.959 47.4769 125.114 47.1957 125.119 46.8592C125.13 45.957 124.377 45.5648 123.753 45.3793C120.987 44.5567 119.026 46.7409 117.592 49.3374C116.657 51.0314 115.911 52.8952 115.592 54.8974C115.404 56.0799 115.141 58.1055 115.748 59.2038C116.11 59.8584 116.872 60.1334 117.475 59.8364C118.835 59.167 119.635 56.945 119.865 55.3501C120.219 52.8981 119.215 50.1318 116.851 50.3357C114.691 50.5218 113.629 53.5541 113.168 55.7041C113.084 56.0943 112.926 56.8281 113.134 57.2305C113.44 57.8252 114.194 57.0531 114.412 56.7778C115.052 55.9688 115.598 54.0947 114.973 53.0925C113.69 51.038 111.373 53.4887 110.734 54.9671C110.282 56.0123 110.072 57.2095 109.934 58.3622C109.869 58.8995 109.708 59.7986 109.934 60.3413C110.364 61.3755 111.416 59.9349 111.626 59.4882C111.826 59.0644 112.234 57.886 111.748 57.4975C110.859 56.7852 110.886 59.8148 110.875 60.0918C110.791 62.2292 110.686 65.3294 112.402 66.6906C113.598 67.6395 114.382 66.2631 114.314 64.9379C114.262 63.9277 113.532 64.0198 113.304 64.9147C112.985 66.1676 112.947 68.9098 114.08 69.6853C115.12 70.3969 116.181 68.9913 116.646 68.0487C116.877 67.5783 117.26 65.9998 117.055 66.4875C116.516 67.771 118.169 68.3403 118.89 68.4898C119.739 68.666 120.792 68.7132 121.602 68.2808C122.608 67.7435 123.4 66.3332 123.904 65.2281C124.092 64.8159 125.04 62.0357 123.66 62.6628C122.825 63.0421 122.597 65.0849 123.265 65.7388C124.106 66.5617 126.41 67.3465 127.172 65.9825C128.023 64.4593 126.409 63.1173 125.421 62.6164C125.136 62.4721 123.785 61.9316 123.958 62.9182C124.284 64.7815 126.754 64.443 127.757 63.928C129.231 63.1715 131.8 60.4761 130.713 58.2288C130.552 57.8945 130.184 57.641 129.913 58.0082C129.459 58.6259 129.515 59.8199 129.718 60.5386C129.954 61.3698 131.063 62.1547 131.621 61.2815C132.741 59.5291 132.792 56.6147 131.855 54.7697C131.557 54.1834 131.123 53.5978 130.587 53.3072C130.132 53.0609 129.94 53.3747 130.05 53.9108C130.206 54.6705 131.098 56.5641 132.001 55.8086C133.078 54.9078 133.126 52.5063 132.918 51.1366C132.849 50.6809 132.276 48.7547 131.884 50.0571C131.701 50.6644 131.766 51.5542 132.318 51.8388C132.77 52.0718 132.505 51.5233 132.343 51.3107C131.955 50.8028 131.191 50.1786 130.767 50.9393C130.255 51.8592 129.965 53.0318 129.67 54.0617C129.22 55.6254 128.833 57.22 128.528 58.8323C128.455 59.2173 128.288 59.8188 128.318 60.2368C128.319 60.2488 128.573 59.7385 128.509 59.465C128.323 58.6743 127.459 58.4103 126.87 58.3448C124.518 58.0839 121.988 59.2379 120.05 60.736C118.776 61.7211 117.763 63.0256 117.119 64.6593C116.803 65.4611 116.389 66.7031 116.821 67.5844C117.192 68.3391 118.075 68.4611 118.709 68.275C119.734 67.9741 120.417 66.9389 120.728 65.791C120.918 65.0901 121.094 63.4561 120.343 63.0342C120.205 62.9567 120.229 63.2835 120.231 63.3244C120.249 63.7397 120.423 64.0467 120.665 64.3343C120.698 64.3739 121.418 65.1532 121.406 64.7173C121.393 64.1882 120.83 64.3509 120.724 64.7463C120.53 65.4668 120.811 66.3371 121.494 66.4701C121.862 66.5415 122.049 66.1868 122.167 65.8316C122.48 64.8959 122.371 63.853 121.816 63.0749C120.419 61.1168 117.363 61.1257 115.504 61.9141C114.763 62.2285 114.005 62.7992 113.631 63.6611C113.307 64.4088 113.452 65.3518 114.178 65.6459C116.94 66.7663 117.603 56.9438 113.739 56.8591C112.96 56.842 111.837 57.7534 112.343 58.8207C112.472 59.0912 112.722 59.1088 112.909 58.8904C113.369 58.3548 113.492 57.306 113.309 56.6037C113.006 55.4348 111.538 54.5635 110.987 55.9653C110.768 56.5249 110.695 57.1887 110.665 57.7993C110.64 58.3153 110.687 58.2527 110.997 58.3913" stroke="black" stroke-linecap="round" stroke-linejoin="round"/>
<path d="M125.251 47.5C125.251 43.4863 123.021 32.0963 125.251 28.7756C127.807 24.9711 131.49 23.474 135.526 23.2394C144.839 22.6981 155.031 27.1146 162.407 33.8435C168.014 38.958 170.616 46.878 166.007 54.0295C164.05 57.0667 160.789 60.1302 157.65 61.2266C155.442 61.9977 152.446 62.7876 150.812 60.4175C146.053 53.5176 146.516 44.0241 146.742 35.6534C147.096 22.51 157.442 9.89984 167.726 6.20475C176.279 3.13129 183.456 6.88693 190.862 11.8688C196.359 15.5658 201.802 18.9993 206.311 24.3466C211.157 30.0953 219.74 41.6483 216.115 51.0058C214.495 55.1884 209.745 59.3229 206.039 60.4814C202.513 61.5838 200.359 60.6816 198.695 56.6912C197.08 52.8192 196.192 47.7834 195.963 43.5319C195.475 34.4415 195.652 25.1887 199.003 16.894C200.659 12.7923 203.541 9.43016 206.528 6.63061C211.4 2.06336 216.22 0.496796 222.447 1.13694C232.019 2.121 240.67 11.1893 243.611 21.9618C246.231 31.5545 245.176 41.4135 246.361 51.1762C246.95 56.027 248.549 57.9674 251.245 61.1415" stroke="black" stroke-width="2" stroke-linecap="round" stroke-linejoin="round"/>
<path d="M242.306 120.5H256.891V127.5H242.306V120.5Z" fill="#D7AD96" stroke="black"/>
<path d="M242.306 72V116.5H256.891V70.5L253.127 73.5L249.363 70.5L245.599 73.5L242.306 70.5V72Z" fill="#EDD9C0" stroke="black"/>
</svg>
