<svg width="612" height="262" viewBox="0 0 612 262" fill="none" xmlns="http://www.w3.org/2000/svg">
<path d="M17.2102 48.1403C18.6962 48.5482 19.1485 50.2938 18.0243 51.2824L7.27397 60.7357C6.14976 61.7242 4.29224 61.2144 3.93044 59.8179L0.470696 46.4642C0.108893 45.0678 1.51416 43.832 3.00018 44.2399L17.2102 48.1403Z" fill="#FB9F99"/>
<path d="M521.21 248.14C522.696 248.548 523.148 250.294 522.024 251.282L511.274 260.736C510.15 261.724 508.292 261.214 507.93 259.818L504.471 246.464C504.109 245.068 505.514 243.832 507 244.24L521.21 248.14Z" fill="#FB9F99"/>
<path d="M532.319 177.893C533.396 178.926 532.862 180.652 531.358 180.999L516.978 184.322C515.474 184.669 514.129 183.378 514.556 181.997L518.641 168.796C519.068 167.415 520.948 166.981 522.024 168.014L532.319 177.893Z" fill="#FDE54A"/>
<path d="M96.3194 88.893C97.396 89.9261 96.8621 91.6517 95.3582 91.9992L80.9781 95.3215C79.4743 95.669 78.1286 94.3776 78.5558 92.9971L82.6408 79.796C83.068 78.4155 84.9477 77.9812 86.0244 79.0142L96.3194 88.893Z" fill="#FDE54A"/>
<path d="M604.317 242.131C603.969 243.531 602.116 244.055 600.983 243.076L590.144 233.71C589.01 232.731 589.446 230.981 590.928 230.561L605.101 226.546C606.583 226.126 608 227.351 607.651 228.75L604.317 242.131Z" fill="#011149"/>
<path d="M75.3175 16.1312C74.9688 17.5305 73.1162 18.0554 71.9827 17.076L61.1438 7.70998C60.0103 6.73053 60.4461 4.98136 61.9282 4.56147L76.101 0.546296C77.5831 0.126408 79 1.35072 78.6513 2.75005L75.3175 16.1312Z" fill="#011149"/>
</svg>
