<svg width="1092" height="690" viewBox="0 0 1092 690" fill="none" xmlns="http://www.w3.org/2000/svg">
<path d="M109.317 76.1312C108.969 77.5305 107.116 78.0554 105.983 77.0759L95.1438 67.71C94.0103 66.7305 94.4461 64.9813 95.9282 64.5614L110.101 60.5463C111.583 60.1264 113 61.3507 112.651 62.75L109.317 76.1312Z" fill="#FB9F99"/>
<path d="M965.317 549.131C964.969 550.53 963.116 551.055 961.983 550.076L951.144 540.71C950.01 539.73 950.446 537.981 951.928 537.561L966.101 533.546C967.583 533.126 969 534.351 968.651 535.75L965.317 549.131Z" fill="#FB9F99"/>
<path d="M535.317 685.131C534.969 686.53 533.116 687.055 531.983 686.076L521.144 676.71C520.01 675.73 520.446 673.981 521.928 673.561L536.101 669.546C537.583 669.126 539 670.351 538.651 671.75L535.317 685.131Z" fill="#FB9F99"/>
<path d="M443.317 16.1312C442.969 17.5305 441.116 18.0554 439.983 17.0759L429.144 7.70995C428.01 6.7305 428.446 4.98133 429.928 4.56144L444.101 0.546266C445.583 0.126378 447 1.35069 446.651 2.75002L443.317 16.1312Z" fill="#011149"/>
<path d="M18.3199 324.893C19.3965 325.926 18.8625 327.652 17.3587 327.999L2.97862 331.322C1.47482 331.669 0.129057 330.378 0.556251 328.997L4.64129 315.796C5.06848 314.415 6.94824 313.981 8.02485 315.014L18.3199 324.893Z" fill="#FDE54A"/>
<path d="M586.319 537.893C587.396 538.926 586.862 540.652 585.358 540.999L570.978 544.321C569.474 544.669 568.128 543.378 568.555 541.997L572.64 528.796C573.068 527.415 574.947 526.981 576.024 528.014L586.319 537.893Z" fill="#FDE54A"/>
<path d="M1084.32 156.131C1083.97 157.531 1082.12 158.055 1080.98 157.076L1070.14 147.71C1069.01 146.731 1069.45 144.981 1070.93 144.561L1085.1 140.546C1086.58 140.126 1088 141.351 1087.65 142.75L1084.32 156.131Z" fill="#011149"/>
<path d="M120.317 544.131C119.969 545.53 118.116 546.055 116.983 545.076L106.144 535.71C105.01 534.73 105.446 532.981 106.928 532.561L121.101 528.546C122.583 528.126 124 529.351 123.651 530.75L120.317 544.131Z" fill="#011149"/>
</svg>
