<svg width="214" height="146" viewBox="0 0 214 146" fill="none" xmlns="http://www.w3.org/2000/svg">
<circle cx="32" cy="32" r="32" fill="#313131"/>
<path d="M64.5 114C64.5 131.39 50.1805 145.5 32.5 145.5C14.8196 145.5 0.5 131.39 0.5 114C0.5 96.6103 14.8196 82.5 32.5 82.5C50.1805 82.5 64.5 96.6103 64.5 114Z" fill="#F5F5F5" stroke="black"/>
<path d="M88.176 28.128C87.1093 28.128 86.1867 27.8987 85.408 27.44C84.6293 26.9707 84.0267 26.304 83.6 25.44C83.184 24.5653 82.976 23.536 82.976 22.352C82.976 21.1787 83.184 20.16 83.6 19.296C84.0267 18.4213 84.6293 17.7547 85.408 17.296C86.1867 16.8267 87.1093 16.592 88.176 16.592C88.8907 16.592 89.5627 16.7093 90.192 16.944C90.832 17.168 91.3867 17.4933 91.856 17.92C92.0267 18.08 92.112 18.2667 92.112 18.48C92.112 18.6293 92.0693 18.7627 91.984 18.88C91.8987 18.9867 91.7973 19.04 91.68 19.04C91.552 19.04 91.3973 18.9813 91.216 18.864C90.672 18.4373 90.176 18.1387 89.728 17.968C89.2907 17.7973 88.784 17.712 88.208 17.712C86.9707 17.712 86.016 18.1173 85.344 18.928C84.6827 19.728 84.352 20.8693 84.352 22.352C84.352 23.8453 84.6827 24.9973 85.344 25.808C86.016 26.608 86.9707 27.008 88.208 27.008C88.7733 27.008 89.28 26.9227 89.728 26.752C90.176 26.5813 90.672 26.2827 91.216 25.856C91.3973 25.7387 91.552 25.68 91.68 25.68C91.7973 25.68 91.8987 25.7333 91.984 25.84C92.0693 25.9467 92.112 26.08 92.112 26.24C92.112 26.4533 92.0267 26.64 91.856 26.8C91.3867 27.2267 90.832 27.5573 90.192 27.792C89.5627 28.016 88.8907 28.128 88.176 28.128ZM97.9641 20.016C98.8815 20.016 99.5748 20.2773 100.044 20.8C100.513 21.312 100.748 22.08 100.748 23.104V27.44C100.748 27.6427 100.689 27.8027 100.572 27.92C100.455 28.0267 100.3 28.08 100.108 28.08C99.9055 28.08 99.7455 28.0267 99.6281 27.92C99.5108 27.8027 99.4521 27.6427 99.4521 27.44V23.136C99.4521 22.4427 99.3081 21.9307 99.0201 21.6C98.7428 21.2693 98.2948 21.104 97.6761 21.104C96.9615 21.104 96.3908 21.3227 95.9641 21.76C95.5375 22.1973 95.3241 22.7893 95.3241 23.536V27.44C95.3241 27.6427 95.2655 27.8027 95.1481 27.92C95.0415 28.0267 94.8868 28.08 94.6841 28.08C94.4815 28.08 94.3215 28.0267 94.2041 27.92C94.0868 27.8027 94.0281 27.6427 94.0281 27.44V17.264C94.0281 17.0827 94.0868 16.9333 94.2041 16.816C94.3321 16.6987 94.4921 16.64 94.6841 16.64C94.8868 16.64 95.0415 16.6987 95.1481 16.816C95.2655 16.9227 95.3241 17.072 95.3241 17.264V21.456C95.5801 20.9867 95.9375 20.6293 96.3961 20.384C96.8548 20.1387 97.3775 20.016 97.9641 20.016ZM103.778 28.08C103.586 28.08 103.426 28.0267 103.298 27.92C103.181 27.8027 103.122 27.6427 103.122 27.44V20.688C103.122 20.4853 103.181 20.3307 103.298 20.224C103.426 20.1067 103.586 20.048 103.778 20.048C103.97 20.048 104.125 20.1067 104.242 20.224C104.359 20.3307 104.418 20.4853 104.418 20.688V27.44C104.418 27.6533 104.359 27.8133 104.242 27.92C104.125 28.0267 103.97 28.08 103.778 28.08ZM103.778 18.368C103.522 18.368 103.314 18.2933 103.154 18.144C102.994 17.9947 102.914 17.7973 102.914 17.552C102.914 17.3173 102.994 17.1253 103.154 16.976C103.314 16.8267 103.522 16.752 103.778 16.752C104.034 16.752 104.242 16.8267 104.402 16.976C104.562 17.1253 104.642 17.3173 104.642 17.552C104.642 17.7973 104.562 17.9947 104.402 18.144C104.242 18.2933 104.034 18.368 103.778 18.368ZM110.025 20.016C111.977 20.016 112.953 21.04 112.953 23.088V27.44C112.953 27.632 112.894 27.7867 112.777 27.904C112.67 28.0213 112.521 28.08 112.329 28.08C112.137 28.08 111.982 28.0213 111.865 27.904C111.747 27.7867 111.689 27.632 111.689 27.44V26.672C111.486 27.1307 111.177 27.488 110.761 27.744C110.345 27.9893 109.865 28.112 109.321 28.112C108.819 28.112 108.355 28.0107 107.929 27.808C107.513 27.6053 107.182 27.3227 106.937 26.96C106.691 26.5973 106.569 26.1973 106.569 25.76C106.569 25.1733 106.718 24.72 107.017 24.4C107.315 24.0693 107.806 23.8347 108.489 23.696C109.171 23.5467 110.121 23.472 111.337 23.472H111.689V22.944C111.689 22.304 111.555 21.8347 111.289 21.536C111.033 21.2373 110.611 21.088 110.025 21.088C109.299 21.088 108.563 21.2853 107.817 21.68C107.529 21.8613 107.326 21.952 107.209 21.952C107.081 21.952 106.974 21.904 106.889 21.808C106.803 21.712 106.761 21.5893 106.761 21.44C106.761 21.2907 106.803 21.1627 106.889 21.056C106.985 20.9387 107.134 20.8213 107.337 20.704C107.71 20.4907 108.131 20.3253 108.601 20.208C109.081 20.08 109.555 20.016 110.025 20.016ZM109.497 27.088C110.137 27.088 110.659 26.8747 111.065 26.448C111.481 26.0107 111.689 25.4507 111.689 24.768V24.304H111.401C110.462 24.304 109.747 24.3467 109.257 24.432C108.766 24.5067 108.414 24.64 108.201 24.832C107.998 25.0133 107.897 25.2853 107.897 25.648C107.897 26.064 108.046 26.4107 108.345 26.688C108.654 26.9547 109.038 27.088 109.497 27.088ZM119.181 20.048C119.629 20.016 119.853 20.1973 119.853 20.592C119.853 20.7627 119.805 20.9013 119.709 21.008C119.613 21.104 119.448 21.1627 119.213 21.184L118.733 21.232C118.018 21.296 117.485 21.552 117.133 22C116.792 22.4373 116.621 22.9547 116.621 23.552V27.44C116.621 27.6533 116.562 27.8133 116.445 27.92C116.328 28.0267 116.173 28.08 115.981 28.08C115.789 28.08 115.629 28.0267 115.501 27.92C115.384 27.8027 115.325 27.6427 115.325 27.44V20.688C115.325 20.4853 115.389 20.3307 115.517 20.224C115.645 20.1067 115.8 20.048 115.981 20.048C116.152 20.048 116.296 20.1067 116.413 20.224C116.53 20.3307 116.589 20.48 116.589 20.672V21.568C116.813 21.0987 117.128 20.7413 117.533 20.496C117.949 20.2507 118.424 20.1067 118.957 20.064L119.181 20.048ZM124.041 28.112C123.305 28.112 122.655 27.9467 122.089 27.616C121.535 27.2853 121.103 26.816 120.793 26.208C120.495 25.5893 120.345 24.8747 120.345 24.064C120.345 23.2533 120.495 22.544 120.793 21.936C121.103 21.3173 121.535 20.8427 122.089 20.512C122.655 20.1813 123.305 20.016 124.041 20.016C124.777 20.016 125.428 20.1813 125.993 20.512C126.559 20.8427 126.991 21.3173 127.289 21.936C127.599 22.544 127.753 23.2533 127.753 24.064C127.753 24.8747 127.599 25.5893 127.289 26.208C126.991 26.816 126.559 27.2853 125.993 27.616C125.428 27.9467 124.777 28.112 124.041 28.112ZM124.041 27.04C124.809 27.04 125.396 26.7893 125.801 26.288C126.217 25.776 126.425 25.0347 126.425 24.064C126.425 23.1147 126.217 22.384 125.801 21.872C125.385 21.3493 124.799 21.088 124.041 21.088C123.284 21.088 122.697 21.3493 122.281 21.872C121.865 22.384 121.657 23.1147 121.657 24.064C121.657 25.024 121.86 25.76 122.265 26.272C122.681 26.784 123.273 27.04 124.041 27.04ZM132.308 28.112C131.818 28.112 131.348 28.0533 130.9 27.936C130.463 27.8187 130.074 27.6533 129.732 27.44C129.54 27.312 129.402 27.1947 129.316 27.088C129.242 26.9707 129.204 26.832 129.204 26.672C129.204 26.5333 129.242 26.4213 129.316 26.336C129.402 26.24 129.508 26.192 129.636 26.192C129.764 26.192 129.951 26.272 130.196 26.432C130.516 26.624 130.831 26.7787 131.14 26.896C131.46 27.0027 131.855 27.056 132.324 27.056C132.9 27.056 133.348 26.9547 133.668 26.752C133.988 26.5493 134.148 26.256 134.148 25.872C134.148 25.6373 134.09 25.4507 133.972 25.312C133.855 25.1627 133.652 25.0347 133.364 24.928C133.076 24.8107 132.655 24.6933 132.1 24.576C131.162 24.3733 130.49 24.1013 130.084 23.76C129.679 23.4187 129.476 22.9547 129.476 22.368C129.476 21.9093 129.604 21.504 129.86 21.152C130.116 20.8 130.468 20.5227 130.916 20.32C131.375 20.1173 131.892 20.016 132.468 20.016C132.884 20.016 133.284 20.0747 133.668 20.192C134.063 20.2987 134.41 20.4533 134.708 20.656C135.071 20.912 135.252 21.1787 135.252 21.456C135.252 21.5947 135.21 21.712 135.124 21.808C135.039 21.904 134.938 21.952 134.82 21.952C134.692 21.952 134.5 21.8613 134.244 21.68C133.946 21.488 133.663 21.3387 133.396 21.232C133.13 21.1253 132.799 21.072 132.404 21.072C131.903 21.072 131.498 21.184 131.188 21.408C130.89 21.632 130.74 21.9307 130.74 22.304C130.74 22.5387 130.794 22.7307 130.9 22.88C131.018 23.0187 131.204 23.1467 131.46 23.264C131.727 23.3707 132.106 23.4773 132.596 23.584C133.322 23.744 133.882 23.92 134.276 24.112C134.682 24.304 134.97 24.5387 135.14 24.816C135.311 25.0933 135.396 25.4453 135.396 25.872C135.396 26.544 135.114 27.088 134.548 27.504C133.983 27.9093 133.236 28.112 132.308 28.112ZM140.588 28.112C139.863 28.112 139.217 27.9467 138.652 27.616C138.097 27.2853 137.665 26.816 137.356 26.208C137.057 25.6 136.908 24.896 136.908 24.096C136.908 23.296 137.063 22.5867 137.372 21.968C137.692 21.3493 138.135 20.8693 138.7 20.528C139.265 20.1867 139.916 20.016 140.652 20.016C141.057 20.016 141.457 20.0747 141.852 20.192C142.257 20.2987 142.609 20.4587 142.908 20.672C143.1 20.8 143.233 20.928 143.308 21.056C143.393 21.1733 143.436 21.3067 143.436 21.456C143.436 21.6053 143.393 21.728 143.308 21.824C143.233 21.92 143.132 21.968 143.004 21.968C142.929 21.968 142.849 21.9467 142.764 21.904C142.679 21.8613 142.604 21.8187 142.54 21.776C142.487 21.7333 142.449 21.7067 142.428 21.696C142.151 21.5147 141.884 21.3707 141.628 21.264C141.383 21.1573 141.079 21.104 140.716 21.104C139.937 21.104 139.329 21.3707 138.892 21.904C138.465 22.4267 138.252 23.1573 138.252 24.096C138.252 25.0347 138.465 25.76 138.892 26.272C139.329 26.784 139.937 27.04 140.716 27.04C141.079 27.04 141.388 26.9867 141.644 26.88C141.911 26.7733 142.177 26.6293 142.444 26.448C142.561 26.3733 142.673 26.3093 142.78 26.256C142.887 26.2027 142.977 26.176 143.052 26.176C143.169 26.176 143.265 26.224 143.34 26.32C143.425 26.416 143.468 26.5387 143.468 26.688C143.468 26.8267 143.431 26.9547 143.356 27.072C143.281 27.1787 143.143 27.3013 142.94 27.44C142.641 27.6427 142.279 27.808 141.852 27.936C141.436 28.0533 141.015 28.112 140.588 28.112ZM150.948 20.048C151.151 20.048 151.305 20.1067 151.412 20.224C151.529 20.3413 151.588 20.496 151.588 20.688V27.456C151.588 27.6373 151.529 27.7867 151.412 27.904C151.305 28.0213 151.151 28.08 150.948 28.08C150.756 28.08 150.601 28.0267 150.484 27.92C150.377 27.8027 150.324 27.6533 150.324 27.472V26.672C150.079 27.1413 149.732 27.4987 149.284 27.744C148.847 27.9893 148.351 28.112 147.796 28.112C146.868 28.112 146.169 27.856 145.7 27.344C145.231 26.8213 144.996 26.0533 144.996 25.04V20.688C144.996 20.496 145.055 20.3413 145.172 20.224C145.289 20.1067 145.449 20.048 145.652 20.048C145.855 20.048 146.009 20.1067 146.116 20.224C146.233 20.3413 146.292 20.496 146.292 20.688V25.008C146.292 25.7013 146.431 26.2133 146.708 26.544C146.985 26.864 147.423 27.024 148.02 27.024C148.703 27.024 149.252 26.8053 149.668 26.368C150.084 25.92 150.292 25.3333 150.292 24.608V20.688C150.292 20.496 150.351 20.3413 150.468 20.224C150.585 20.1067 150.745 20.048 150.948 20.048ZM157.853 20.048C158.301 20.016 158.525 20.1973 158.525 20.592C158.525 20.7627 158.477 20.9013 158.381 21.008C158.285 21.104 158.12 21.1627 157.885 21.184L157.405 21.232C156.69 21.296 156.157 21.552 155.805 22C155.464 22.4373 155.293 22.9547 155.293 23.552V27.44C155.293 27.6533 155.234 27.8133 155.117 27.92C155 28.0267 154.845 28.08 154.653 28.08C154.461 28.08 154.301 28.0267 154.173 27.92C154.056 27.8027 153.997 27.6427 153.997 27.44V20.688C153.997 20.4853 154.061 20.3307 154.189 20.224C154.317 20.1067 154.472 20.048 154.653 20.048C154.824 20.048 154.968 20.1067 155.085 20.224C155.202 20.3307 155.261 20.48 155.261 20.672V21.568C155.485 21.0987 155.8 20.7413 156.205 20.496C156.621 20.2507 157.096 20.1067 157.629 20.064L157.853 20.048ZM162.713 28.112C161.977 28.112 161.327 27.9467 160.761 27.616C160.207 27.2853 159.775 26.816 159.465 26.208C159.167 25.5893 159.017 24.8747 159.017 24.064C159.017 23.2533 159.167 22.544 159.465 21.936C159.775 21.3173 160.207 20.8427 160.761 20.512C161.327 20.1813 161.977 20.016 162.713 20.016C163.449 20.016 164.1 20.1813 164.665 20.512C165.231 20.8427 165.663 21.3173 165.961 21.936C166.271 22.544 166.425 23.2533 166.425 24.064C166.425 24.8747 166.271 25.5893 165.961 26.208C165.663 26.816 165.231 27.2853 164.665 27.616C164.1 27.9467 163.449 28.112 162.713 28.112ZM162.713 27.04C163.481 27.04 164.068 26.7893 164.473 26.288C164.889 25.776 165.097 25.0347 165.097 24.064C165.097 23.1147 164.889 22.384 164.473 21.872C164.057 21.3493 163.471 21.088 162.713 21.088C161.956 21.088 161.369 21.3493 160.953 21.872C160.537 22.384 160.329 23.1147 160.329 24.064C160.329 25.024 160.532 25.76 160.937 26.272C161.353 26.784 161.945 27.04 162.713 27.04ZM92.096 38.64C92.2987 38.64 92.4533 38.704 92.56 38.832C92.6773 38.9493 92.736 39.1093 92.736 39.312V49.408C92.736 49.6107 92.6773 49.776 92.56 49.904C92.4533 50.0213 92.2987 50.08 92.096 50.08C91.8933 50.08 91.7333 50.0213 91.616 49.904C91.4987 49.776 91.44 49.6107 91.44 49.408V44.832H84.688V49.408C84.688 49.6107 84.6293 49.776 84.512 49.904C84.3947 50.0213 84.2347 50.08 84.032 50.08C83.8293 50.08 83.6693 50.0213 83.552 49.904C83.4453 49.776 83.392 49.6107 83.392 49.408V39.312C83.392 39.1093 83.4453 38.9493 83.552 38.832C83.6693 38.704 83.8293 38.64 84.032 38.64C84.2347 38.64 84.3947 38.704 84.512 38.832C84.6293 38.9493 84.688 39.1093 84.688 39.312V43.712H91.44V39.312C91.44 39.1093 91.4987 38.9493 91.616 38.832C91.7333 38.704 91.8933 38.64 92.096 38.64ZM101.357 48.192C101.474 48.192 101.576 48.24 101.661 48.336C101.746 48.432 101.789 48.5547 101.789 48.704C101.789 48.9707 101.602 49.216 101.229 49.44C100.845 49.664 100.44 49.8347 100.013 49.952C99.5863 50.0587 99.1703 50.112 98.765 50.112C97.5597 50.112 96.605 49.7547 95.901 49.04C95.2077 48.3253 94.861 47.3387 94.861 46.08C94.861 45.28 95.0157 44.576 95.325 43.968C95.6343 43.3493 96.0663 42.8693 96.621 42.528C97.1863 42.1867 97.8263 42.016 98.541 42.016C99.5543 42.016 100.36 42.3467 100.957 43.008C101.554 43.6693 101.853 44.5653 101.853 45.696C101.853 45.9093 101.81 46.064 101.725 46.16C101.64 46.256 101.501 46.304 101.309 46.304H96.157C96.253 48.1387 97.1223 49.056 98.765 49.056C99.181 49.056 99.5383 49.0027 99.837 48.896C100.136 48.7787 100.456 48.624 100.797 48.432C101.074 48.272 101.261 48.192 101.357 48.192ZM98.557 43.024C97.8743 43.024 97.325 43.2373 96.909 43.664C96.5037 44.0907 96.2637 44.6933 96.189 45.472H100.717C100.696 44.6827 100.498 44.08 100.125 43.664C99.7517 43.2373 99.229 43.024 98.557 43.024ZM110.053 49.008C110.181 49.136 110.245 49.2907 110.245 49.472C110.245 49.632 110.186 49.7707 110.069 49.888C109.952 50.0053 109.813 50.064 109.653 50.064C109.482 50.064 109.328 49.9893 109.189 49.84L106.597 46.88L104.021 49.84C103.882 49.9893 103.728 50.064 103.557 50.064C103.397 50.064 103.253 50.0053 103.125 49.888C103.008 49.7707 102.949 49.6267 102.949 49.456C102.949 49.296 103.013 49.1467 103.141 49.008L105.797 46.016L103.253 43.12C103.125 42.9707 103.061 42.8213 103.061 42.672C103.061 42.5013 103.12 42.3573 103.237 42.24C103.365 42.1227 103.504 42.064 103.653 42.064C103.824 42.064 103.978 42.1387 104.117 42.288L106.597 45.136L109.077 42.288C109.216 42.1387 109.37 42.064 109.541 42.064C109.701 42.064 109.84 42.1227 109.957 42.24C110.074 42.3573 110.133 42.496 110.133 42.656C110.133 42.8373 110.069 42.992 109.941 43.12L107.397 46.016L110.053 49.008ZM122.347 42.448L121.627 46.144H123.195C123.334 46.144 123.451 46.192 123.547 46.288C123.654 46.384 123.707 46.5013 123.707 46.64C123.707 46.768 123.659 46.8747 123.563 46.96C123.467 47.0453 123.345 47.088 123.195 47.088H121.451L120.939 49.696C120.918 49.8133 120.859 49.9093 120.763 49.984C120.678 50.048 120.577 50.08 120.459 50.08C120.31 50.08 120.187 50.032 120.091 49.936C119.995 49.84 119.947 49.7227 119.947 49.584C119.947 49.52 119.953 49.472 119.963 49.44L120.427 47.088H117.867L117.355 49.696C117.345 49.8027 117.291 49.8933 117.195 49.968C117.11 50.0427 117.009 50.08 116.891 50.08C116.753 50.08 116.635 50.032 116.539 49.936C116.443 49.84 116.395 49.7227 116.395 49.584C116.395 49.52 116.401 49.472 116.411 49.44L116.875 47.088H115.803C115.654 47.088 115.531 47.04 115.435 46.944C115.339 46.848 115.291 46.7307 115.291 46.592C115.291 46.464 115.339 46.3573 115.435 46.272C115.531 46.1867 115.654 46.144 115.803 46.144H117.051L117.771 42.448H116.123C115.985 42.448 115.862 42.4 115.755 42.304C115.659 42.208 115.611 42.0907 115.611 41.952C115.611 41.824 115.659 41.7173 115.755 41.632C115.851 41.5467 115.974 41.504 116.123 41.504H117.947L118.443 38.976C118.465 38.8587 118.518 38.768 118.603 38.704C118.699 38.6293 118.806 38.592 118.923 38.592C119.073 38.592 119.19 38.64 119.275 38.736C119.371 38.8213 119.419 38.9387 119.419 39.088C119.419 39.152 119.414 39.2 119.403 39.232L118.955 41.504H121.515L122.011 38.976C122.022 38.8693 122.075 38.7787 122.171 38.704C122.267 38.6293 122.374 38.592 122.491 38.592C122.641 38.592 122.758 38.64 122.843 38.736C122.939 38.8213 122.987 38.9387 122.987 39.088C122.987 39.152 122.982 39.2 122.971 39.232L122.523 41.504H123.515C123.665 41.504 123.787 41.552 123.883 41.648C123.979 41.744 124.027 41.8613 124.027 42C124.027 42.128 123.979 42.2347 123.883 42.32C123.787 42.4053 123.665 42.448 123.515 42.448H122.347ZM120.603 46.144L121.339 42.448H118.779L118.043 46.144H120.603ZM130.757 44.208C131.44 44.4 131.957 44.7307 132.309 45.2C132.672 45.6693 132.853 46.2507 132.853 46.944C132.853 47.9253 132.522 48.6987 131.861 49.264C131.2 49.8293 130.298 50.112 129.157 50.112C128.464 50.112 127.797 49.9947 127.157 49.76C126.528 49.5253 125.994 49.2053 125.557 48.8C125.386 48.64 125.301 48.4587 125.301 48.256C125.301 48.096 125.344 47.9627 125.429 47.856C125.514 47.7493 125.616 47.696 125.733 47.696C125.882 47.696 126.032 47.7547 126.181 47.872C126.672 48.2667 127.152 48.5547 127.621 48.736C128.09 48.9173 128.597 49.008 129.141 49.008C129.93 49.008 130.528 48.8267 130.933 48.464C131.349 48.1013 131.557 47.5787 131.557 46.896C131.557 45.52 130.693 44.832 128.965 44.832H128.117C127.946 44.832 127.808 44.7787 127.701 44.672C127.605 44.5547 127.557 44.4213 127.557 44.272C127.557 44.1227 127.605 43.9947 127.701 43.888C127.808 43.7813 127.946 43.728 128.117 43.728H128.709C129.541 43.728 130.181 43.5467 130.629 43.184C131.077 42.8107 131.301 42.2773 131.301 41.584C131.301 40.976 131.12 40.512 130.757 40.192C130.394 39.8613 129.882 39.696 129.221 39.696C128.72 39.696 128.234 39.792 127.765 39.984C127.296 40.1653 126.826 40.448 126.357 40.832C126.208 40.9493 126.058 41.008 125.909 41.008C125.792 41.008 125.69 40.9547 125.605 40.848C125.52 40.7413 125.477 40.608 125.477 40.448C125.477 40.2453 125.562 40.064 125.733 39.904C126.17 39.4987 126.698 39.1787 127.317 38.944C127.946 38.7093 128.592 38.592 129.253 38.592C130.277 38.592 131.088 38.8533 131.685 39.376C132.293 39.888 132.597 40.5813 132.597 41.456C132.597 42.1067 132.432 42.6773 132.101 43.168C131.781 43.648 131.333 43.9947 130.757 44.208ZM141.919 48.896C142.111 48.896 142.26 48.944 142.367 49.04C142.474 49.136 142.527 49.2693 142.527 49.44C142.527 49.6213 142.474 49.76 142.367 49.856C142.271 49.952 142.122 50 141.919 50H136.623C136.42 50 136.266 49.952 136.159 49.856C136.063 49.76 136.015 49.6213 136.015 49.44C136.015 49.2693 136.068 49.136 136.175 49.04C136.282 48.944 136.431 48.896 136.623 48.896H138.607V40.32L136.863 41.456C136.778 41.5093 136.692 41.536 136.607 41.536C136.458 41.536 136.324 41.4667 136.207 41.328C136.1 41.1893 136.047 41.04 136.047 40.88C136.047 40.656 136.132 40.496 136.303 40.4L138.735 38.816C138.916 38.6987 139.103 38.64 139.295 38.64C139.476 38.64 139.626 38.6987 139.743 38.816C139.86 38.9333 139.919 39.0987 139.919 39.312V48.896H141.919ZM149.945 44.208C150.627 44.4 151.145 44.7307 151.497 45.2C151.859 45.6693 152.041 46.2507 152.041 46.944C152.041 47.9253 151.71 48.6987 151.049 49.264C150.387 49.8293 149.486 50.112 148.345 50.112C147.651 50.112 146.985 49.9947 146.345 49.76C145.715 49.5253 145.182 49.2053 144.745 48.8C144.574 48.64 144.489 48.4587 144.489 48.256C144.489 48.096 144.531 47.9627 144.617 47.856C144.702 47.7493 144.803 47.696 144.921 47.696C145.07 47.696 145.219 47.7547 145.369 47.872C145.859 48.2667 146.339 48.5547 146.809 48.736C147.278 48.9173 147.785 49.008 148.329 49.008C149.118 49.008 149.715 48.8267 150.121 48.464C150.537 48.1013 150.745 47.5787 150.745 46.896C150.745 45.52 149.881 44.832 148.153 44.832H147.305C147.134 44.832 146.995 44.7787 146.889 44.672C146.793 44.5547 146.745 44.4213 146.745 44.272C146.745 44.1227 146.793 43.9947 146.889 43.888C146.995 43.7813 147.134 43.728 147.305 43.728H147.897C148.729 43.728 149.369 43.5467 149.817 43.184C150.265 42.8107 150.489 42.2773 150.489 41.584C150.489 40.976 150.307 40.512 149.945 40.192C149.582 39.8613 149.07 39.696 148.409 39.696C147.907 39.696 147.422 39.792 146.953 39.984C146.483 40.1653 146.014 40.448 145.545 40.832C145.395 40.9493 145.246 41.008 145.097 41.008C144.979 41.008 144.878 40.9547 144.793 40.848C144.707 40.7413 144.665 40.608 144.665 40.448C144.665 40.2453 144.75 40.064 144.921 39.904C145.358 39.4987 145.886 39.1787 146.505 38.944C147.134 38.7093 147.779 38.592 148.441 38.592C149.465 38.592 150.275 38.8533 150.873 39.376C151.481 39.888 151.785 40.5813 151.785 41.456C151.785 42.1067 151.619 42.6773 151.289 43.168C150.969 43.648 150.521 43.9947 149.945 44.208ZM161.106 48.896C161.298 48.896 161.448 48.944 161.554 49.04C161.661 49.136 161.714 49.2693 161.714 49.44C161.714 49.6213 161.661 49.76 161.554 49.856C161.458 49.952 161.309 50 161.106 50H155.81C155.608 50 155.453 49.952 155.346 49.856C155.25 49.76 155.202 49.6213 155.202 49.44C155.202 49.2693 155.256 49.136 155.362 49.04C155.469 48.944 155.618 48.896 155.81 48.896H157.794V40.32L156.05 41.456C155.965 41.5093 155.88 41.536 155.794 41.536C155.645 41.536 155.512 41.4667 155.394 41.328C155.288 41.1893 155.234 41.04 155.234 40.88C155.234 40.656 155.32 40.496 155.49 40.4L157.922 38.816C158.104 38.6987 158.29 38.64 158.482 38.64C158.664 38.64 158.813 38.6987 158.93 38.816C159.048 38.9333 159.106 39.0987 159.106 39.312V48.896H161.106ZM169.132 44.208C169.815 44.4 170.332 44.7307 170.684 45.2C171.047 45.6693 171.228 46.2507 171.228 46.944C171.228 47.9253 170.897 48.6987 170.236 49.264C169.575 49.8293 168.673 50.112 167.532 50.112C166.839 50.112 166.172 49.9947 165.532 49.76C164.903 49.5253 164.369 49.2053 163.932 48.8C163.761 48.64 163.676 48.4587 163.676 48.256C163.676 48.096 163.719 47.9627 163.804 47.856C163.889 47.7493 163.991 47.696 164.108 47.696C164.257 47.696 164.407 47.7547 164.556 47.872C165.047 48.2667 165.527 48.5547 165.996 48.736C166.465 48.9173 166.972 49.008 167.516 49.008C168.305 49.008 168.903 48.8267 169.308 48.464C169.724 48.1013 169.932 47.5787 169.932 46.896C169.932 45.52 169.068 44.832 167.34 44.832H166.492C166.321 44.832 166.183 44.7787 166.076 44.672C165.98 44.5547 165.932 44.4213 165.932 44.272C165.932 44.1227 165.98 43.9947 166.076 43.888C166.183 43.7813 166.321 43.728 166.492 43.728H167.084C167.916 43.728 168.556 43.5467 169.004 43.184C169.452 42.8107 169.676 42.2773 169.676 41.584C169.676 40.976 169.495 40.512 169.132 40.192C168.769 39.8613 168.257 39.696 167.596 39.696C167.095 39.696 166.609 39.792 166.14 39.984C165.671 40.1653 165.201 40.448 164.732 40.832C164.583 40.9493 164.433 41.008 164.284 41.008C164.167 41.008 164.065 40.9547 163.98 40.848C163.895 40.7413 163.852 40.608 163.852 40.448C163.852 40.2453 163.937 40.064 164.108 39.904C164.545 39.4987 165.073 39.1787 165.692 38.944C166.321 38.7093 166.967 38.592 167.628 38.592C168.652 38.592 169.463 38.8533 170.06 39.376C170.668 39.888 170.972 40.5813 170.972 41.456C170.972 42.1067 170.807 42.6773 170.476 43.168C170.156 43.648 169.708 43.9947 169.132 44.208ZM180.294 48.896C180.486 48.896 180.635 48.944 180.742 49.04C180.849 49.136 180.902 49.2693 180.902 49.44C180.902 49.6213 180.849 49.76 180.742 49.856C180.646 49.952 180.497 50 180.294 50H174.998C174.795 50 174.641 49.952 174.534 49.856C174.438 49.76 174.39 49.6213 174.39 49.44C174.39 49.2693 174.443 49.136 174.55 49.04C174.657 48.944 174.806 48.896 174.998 48.896H176.982V40.32L175.238 41.456C175.153 41.5093 175.067 41.536 174.982 41.536C174.833 41.536 174.699 41.4667 174.582 41.328C174.475 41.1893 174.422 41.04 174.422 40.88C174.422 40.656 174.507 40.496 174.678 40.4L177.11 38.816C177.291 38.6987 177.478 38.64 177.67 38.64C177.851 38.64 178.001 38.6987 178.118 38.816C178.235 38.9333 178.294 39.0987 178.294 39.312V48.896H180.294Z" fill="black"/>
<path d="M85.064 110C84.8613 110 84.696 109.941 84.568 109.824C84.4507 109.707 84.392 109.552 84.392 109.36V99.36C84.392 99.168 84.4507 99.0133 84.568 98.896C84.696 98.7787 84.8613 98.72 85.064 98.72H91.048C91.24 98.72 91.3893 98.768 91.496 98.864C91.6027 98.96 91.656 99.0933 91.656 99.264C91.656 99.4347 91.6027 99.568 91.496 99.664C91.3893 99.76 91.24 99.808 91.048 99.808H85.688V103.728H90.728C90.92 103.728 91.0693 103.776 91.176 103.872C91.2827 103.968 91.336 104.101 91.336 104.272C91.336 104.443 91.2827 104.576 91.176 104.672C91.0693 104.768 90.92 104.816 90.728 104.816H85.688V108.912H91.048C91.24 108.912 91.3893 108.96 91.496 109.056C91.6027 109.141 91.656 109.275 91.656 109.456C91.656 109.627 91.6027 109.76 91.496 109.856C91.3893 109.952 91.24 110 91.048 110H85.064ZM97.1125 109.056C97.4858 109.088 97.6725 109.259 97.6725 109.568C97.6725 109.749 97.6032 109.888 97.4645 109.984C97.3365 110.069 97.1392 110.101 96.8725 110.08L96.4405 110.048C95.5872 109.984 94.9578 109.728 94.5525 109.28C94.1472 108.832 93.9445 108.155 93.9445 107.248V103.232H92.8725C92.6912 103.232 92.5472 103.189 92.4405 103.104C92.3445 103.008 92.2965 102.885 92.2965 102.736C92.2965 102.576 92.3445 102.448 92.4405 102.352C92.5472 102.256 92.6912 102.208 92.8725 102.208H93.9445V100.4C93.9445 100.197 94.0032 100.043 94.1205 99.936C94.2378 99.8187 94.3978 99.76 94.6005 99.76C94.7925 99.76 94.9472 99.8187 95.0645 99.936C95.1818 100.043 95.2405 100.197 95.2405 100.4V102.208H97.0165C97.1872 102.208 97.3205 102.256 97.4165 102.352C97.5232 102.448 97.5765 102.576 97.5765 102.736C97.5765 102.885 97.5232 103.008 97.4165 103.104C97.3205 103.189 97.1872 103.232 97.0165 103.232H95.2405V107.312C95.2405 107.899 95.3578 108.325 95.5925 108.592C95.8378 108.848 96.2005 108.992 96.6805 109.024L97.1125 109.056ZM102.166 110.112C101.441 110.112 100.795 109.947 100.23 109.616C99.6753 109.285 99.2433 108.816 98.934 108.208C98.6353 107.6 98.486 106.896 98.486 106.096C98.486 105.296 98.6407 104.587 98.95 103.968C99.27 103.349 99.7127 102.869 100.278 102.528C100.843 102.187 101.494 102.016 102.23 102.016C102.635 102.016 103.035 102.075 103.43 102.192C103.835 102.299 104.187 102.459 104.486 102.672C104.678 102.8 104.811 102.928 104.886 103.056C104.971 103.173 105.014 103.307 105.014 103.456C105.014 103.605 104.971 103.728 104.886 103.824C104.811 103.92 104.71 103.968 104.582 103.968C104.507 103.968 104.427 103.947 104.342 103.904C104.257 103.861 104.182 103.819 104.118 103.776C104.065 103.733 104.027 103.707 104.006 103.696C103.729 103.515 103.462 103.371 103.206 103.264C102.961 103.157 102.657 103.104 102.294 103.104C101.515 103.104 100.907 103.371 100.47 103.904C100.043 104.427 99.83 105.157 99.83 106.096C99.83 107.035 100.043 107.76 100.47 108.272C100.907 108.784 101.515 109.04 102.294 109.04C102.657 109.04 102.966 108.987 103.222 108.88C103.489 108.773 103.755 108.629 104.022 108.448C104.139 108.373 104.251 108.309 104.358 108.256C104.465 108.203 104.555 108.176 104.63 108.176C104.747 108.176 104.843 108.224 104.918 108.32C105.003 108.416 105.046 108.539 105.046 108.688C105.046 108.827 105.009 108.955 104.934 109.072C104.859 109.179 104.721 109.301 104.518 109.44C104.219 109.643 103.857 109.808 103.43 109.936C103.014 110.053 102.593 110.112 102.166 110.112ZM110.542 102.016C111.46 102.016 112.153 102.277 112.622 102.8C113.092 103.312 113.326 104.08 113.326 105.104V109.44C113.326 109.643 113.268 109.803 113.15 109.92C113.033 110.027 112.878 110.08 112.686 110.08C112.484 110.08 112.324 110.027 112.206 109.92C112.089 109.803 112.03 109.643 112.03 109.44V105.136C112.03 104.443 111.886 103.931 111.598 103.6C111.321 103.269 110.873 103.104 110.254 103.104C109.54 103.104 108.969 103.323 108.542 103.76C108.116 104.197 107.902 104.789 107.902 105.536V109.44C107.902 109.643 107.844 109.803 107.726 109.92C107.62 110.027 107.465 110.08 107.262 110.08C107.06 110.08 106.9 110.027 106.782 109.92C106.665 109.803 106.606 109.643 106.606 109.44V99.264C106.606 99.0827 106.665 98.9333 106.782 98.816C106.91 98.6987 107.07 98.64 107.262 98.64C107.465 98.64 107.62 98.6987 107.726 98.816C107.844 98.9227 107.902 99.072 107.902 99.264V103.456C108.158 102.987 108.516 102.629 108.974 102.384C109.433 102.139 109.956 102.016 110.542 102.016ZM116.356 110.08C116.164 110.08 116.004 110.027 115.876 109.92C115.759 109.803 115.7 109.643 115.7 109.44V102.688C115.7 102.485 115.759 102.331 115.876 102.224C116.004 102.107 116.164 102.048 116.356 102.048C116.548 102.048 116.703 102.107 116.82 102.224C116.937 102.331 116.996 102.485 116.996 102.688V109.44C116.996 109.653 116.937 109.813 116.82 109.92C116.703 110.027 116.548 110.08 116.356 110.08ZM116.356 100.368C116.1 100.368 115.892 100.293 115.732 100.144C115.572 99.9947 115.492 99.7973 115.492 99.552C115.492 99.3173 115.572 99.1253 115.732 98.976C115.892 98.8267 116.1 98.752 116.356 98.752C116.612 98.752 116.82 98.8267 116.98 98.976C117.14 99.1253 117.22 99.3173 117.22 99.552C117.22 99.7973 117.14 99.9947 116.98 100.144C116.82 100.293 116.612 100.368 116.356 100.368ZM123.339 102.016C125.205 102.016 126.139 103.045 126.139 105.104V109.44C126.139 109.643 126.08 109.803 125.963 109.92C125.856 110.027 125.701 110.08 125.499 110.08C125.296 110.08 125.136 110.027 125.019 109.92C124.901 109.803 124.843 109.643 124.843 109.44V105.184C124.843 104.459 124.699 103.931 124.411 103.6C124.133 103.269 123.685 103.104 123.067 103.104C122.352 103.104 121.781 103.323 121.355 103.76C120.928 104.197 120.715 104.789 120.715 105.536V109.44C120.715 109.643 120.656 109.803 120.539 109.92C120.432 110.027 120.277 110.08 120.075 110.08C119.872 110.08 119.712 110.027 119.595 109.92C119.477 109.803 119.419 109.643 119.419 109.44V102.688C119.419 102.496 119.477 102.341 119.595 102.224C119.712 102.107 119.872 102.048 120.075 102.048C120.267 102.048 120.416 102.107 120.523 102.224C120.64 102.341 120.699 102.491 120.699 102.672V103.488C120.955 103.008 121.312 102.645 121.771 102.4C122.229 102.144 122.752 102.016 123.339 102.016ZM134.833 102.048C135.035 102.048 135.195 102.107 135.312 102.224C135.43 102.341 135.489 102.496 135.489 102.688V109.472C135.489 110.635 135.19 111.509 134.593 112.096C133.995 112.693 133.11 112.992 131.937 112.992C130.795 112.992 129.846 112.768 129.089 112.32C128.705 112.107 128.513 111.861 128.513 111.584C128.513 111.435 128.55 111.312 128.625 111.216C128.71 111.12 128.817 111.072 128.945 111.072C129.051 111.072 129.243 111.147 129.521 111.296C129.894 111.488 130.262 111.643 130.625 111.76C130.987 111.877 131.419 111.936 131.921 111.936C132.678 111.936 133.249 111.733 133.633 111.328C134.017 110.933 134.209 110.352 134.209 109.584V108.208C133.985 108.709 133.638 109.093 133.169 109.36C132.71 109.627 132.166 109.76 131.536 109.76C130.854 109.76 130.246 109.6 129.713 109.28C129.19 108.96 128.779 108.507 128.481 107.92C128.193 107.333 128.049 106.656 128.049 105.888C128.049 105.12 128.193 104.443 128.481 103.856C128.779 103.269 129.19 102.816 129.713 102.496C130.246 102.176 130.854 102.016 131.536 102.016C132.155 102.016 132.694 102.149 133.153 102.416C133.611 102.683 133.958 103.061 134.193 103.552V102.688C134.193 102.496 134.246 102.341 134.353 102.224C134.47 102.107 134.63 102.048 134.833 102.048ZM131.793 108.688C132.539 108.688 133.126 108.443 133.553 107.952C133.979 107.451 134.193 106.763 134.193 105.888C134.193 105.024 133.979 104.347 133.553 103.856C133.137 103.355 132.55 103.104 131.793 103.104C131.035 103.104 130.438 103.355 130.001 103.856C129.574 104.347 129.361 105.024 129.361 105.888C129.361 106.763 129.574 107.451 130.001 107.952C130.438 108.443 131.035 108.688 131.793 108.688ZM93.096 120.64C93.2987 120.64 93.4533 120.704 93.56 120.832C93.6773 120.949 93.736 121.109 93.736 121.312V131.408C93.736 131.611 93.6773 131.776 93.56 131.904C93.4533 132.021 93.2987 132.08 93.096 132.08C92.8933 132.08 92.7333 132.021 92.616 131.904C92.4987 131.776 92.44 131.611 92.44 131.408V126.832H85.688V131.408C85.688 131.611 85.6293 131.776 85.512 131.904C85.3947 132.021 85.2347 132.08 85.032 132.08C84.8293 132.08 84.6693 132.021 84.552 131.904C84.4453 131.776 84.392 131.611 84.392 131.408V121.312C84.392 121.109 84.4453 120.949 84.552 120.832C84.6693 120.704 84.8293 120.64 85.032 120.64C85.2347 120.64 85.3947 120.704 85.512 120.832C85.6293 120.949 85.688 121.109 85.688 121.312V125.712H92.44V121.312C92.44 121.109 92.4987 120.949 92.616 120.832C92.7333 120.704 92.8933 120.64 93.096 120.64ZM102.357 130.192C102.474 130.192 102.576 130.24 102.661 130.336C102.746 130.432 102.789 130.555 102.789 130.704C102.789 130.971 102.602 131.216 102.229 131.44C101.845 131.664 101.44 131.835 101.013 131.952C100.586 132.059 100.17 132.112 99.765 132.112C98.5597 132.112 97.605 131.755 96.901 131.04C96.2077 130.325 95.861 129.339 95.861 128.08C95.861 127.28 96.0157 126.576 96.325 125.968C96.6343 125.349 97.0663 124.869 97.621 124.528C98.1863 124.187 98.8263 124.016 99.541 124.016C100.554 124.016 101.36 124.347 101.957 125.008C102.554 125.669 102.853 126.565 102.853 127.696C102.853 127.909 102.81 128.064 102.725 128.16C102.64 128.256 102.501 128.304 102.309 128.304H97.157C97.253 130.139 98.1223 131.056 99.765 131.056C100.181 131.056 100.538 131.003 100.837 130.896C101.136 130.779 101.456 130.624 101.797 130.432C102.074 130.272 102.261 130.192 102.357 130.192ZM99.557 125.024C98.8743 125.024 98.325 125.237 97.909 125.664C97.5037 126.091 97.2637 126.693 97.189 127.472H101.717C101.696 126.683 101.498 126.08 101.125 125.664C100.752 125.237 100.229 125.024 99.557 125.024ZM111.053 131.008C111.181 131.136 111.245 131.291 111.245 131.472C111.245 131.632 111.186 131.771 111.069 131.888C110.952 132.005 110.813 132.064 110.653 132.064C110.482 132.064 110.328 131.989 110.189 131.84L107.597 128.88L105.021 131.84C104.882 131.989 104.728 132.064 104.557 132.064C104.397 132.064 104.253 132.005 104.125 131.888C104.008 131.771 103.949 131.627 103.949 131.456C103.949 131.296 104.013 131.147 104.141 131.008L106.797 128.016L104.253 125.12C104.125 124.971 104.061 124.821 104.061 124.672C104.061 124.501 104.12 124.357 104.237 124.24C104.365 124.123 104.504 124.064 104.653 124.064C104.824 124.064 104.978 124.139 105.117 124.288L107.597 127.136L110.077 124.288C110.216 124.139 110.37 124.064 110.541 124.064C110.701 124.064 110.84 124.123 110.957 124.24C111.074 124.357 111.133 124.496 111.133 124.656C111.133 124.837 111.069 124.992 110.941 125.12L108.397 128.016L111.053 131.008ZM123.347 124.448L122.627 128.144H124.195C124.334 128.144 124.451 128.192 124.547 128.288C124.654 128.384 124.707 128.501 124.707 128.64C124.707 128.768 124.659 128.875 124.563 128.96C124.467 129.045 124.345 129.088 124.195 129.088H122.451L121.939 131.696C121.918 131.813 121.859 131.909 121.763 131.984C121.678 132.048 121.577 132.08 121.459 132.08C121.31 132.08 121.187 132.032 121.091 131.936C120.995 131.84 120.947 131.723 120.947 131.584C120.947 131.52 120.953 131.472 120.963 131.44L121.427 129.088H118.867L118.355 131.696C118.345 131.803 118.291 131.893 118.195 131.968C118.11 132.043 118.009 132.08 117.891 132.08C117.753 132.08 117.635 132.032 117.539 131.936C117.443 131.84 117.395 131.723 117.395 131.584C117.395 131.52 117.401 131.472 117.411 131.44L117.875 129.088H116.803C116.654 129.088 116.531 129.04 116.435 128.944C116.339 128.848 116.291 128.731 116.291 128.592C116.291 128.464 116.339 128.357 116.435 128.272C116.531 128.187 116.654 128.144 116.803 128.144H118.051L118.771 124.448H117.123C116.985 124.448 116.862 124.4 116.755 124.304C116.659 124.208 116.611 124.091 116.611 123.952C116.611 123.824 116.659 123.717 116.755 123.632C116.851 123.547 116.974 123.504 117.123 123.504H118.947L119.443 120.976C119.465 120.859 119.518 120.768 119.603 120.704C119.699 120.629 119.806 120.592 119.923 120.592C120.073 120.592 120.19 120.64 120.275 120.736C120.371 120.821 120.419 120.939 120.419 121.088C120.419 121.152 120.414 121.2 120.403 121.232L119.955 123.504H122.515L123.011 120.976C123.022 120.869 123.075 120.779 123.171 120.704C123.267 120.629 123.374 120.592 123.491 120.592C123.641 120.592 123.758 120.64 123.843 120.736C123.939 120.821 123.987 120.939 123.987 121.088C123.987 121.152 123.982 121.2 123.971 121.232L123.523 123.504H124.515C124.665 123.504 124.787 123.552 124.883 123.648C124.979 123.744 125.027 123.861 125.027 124C125.027 124.128 124.979 124.235 124.883 124.32C124.787 124.405 124.665 124.448 124.515 124.448H123.347ZM121.603 128.144L122.339 124.448H119.779L119.043 128.144H121.603ZM127.501 132.08C127.298 132.08 127.138 132.021 127.021 131.904C126.904 131.776 126.845 131.611 126.845 131.408V121.36C126.845 121.168 126.904 121.013 127.021 120.896C127.149 120.779 127.314 120.72 127.517 120.72H133.341C133.533 120.72 133.682 120.768 133.789 120.864C133.896 120.96 133.949 121.099 133.949 121.28C133.949 121.451 133.896 121.584 133.789 121.68C133.682 121.776 133.533 121.824 133.341 121.824H128.141V125.712H133.021C133.213 125.712 133.362 125.76 133.469 125.856C133.576 125.952 133.629 126.091 133.629 126.272C133.629 126.443 133.576 126.576 133.469 126.672C133.362 126.768 133.213 126.816 133.021 126.816H128.141V131.408C128.141 131.611 128.082 131.776 127.965 131.904C127.858 132.021 127.704 132.08 127.501 132.08ZM139.591 124.928C140.306 124.928 140.93 125.077 141.463 125.376C142.007 125.675 142.423 126.096 142.711 126.64C143.01 127.173 143.159 127.792 143.159 128.496C143.159 129.2 142.999 129.829 142.679 130.384C142.359 130.928 141.911 131.355 141.335 131.664C140.77 131.963 140.114 132.112 139.367 132.112C138.706 132.112 138.061 131.995 137.431 131.76C136.802 131.525 136.269 131.205 135.831 130.8C135.661 130.64 135.575 130.459 135.575 130.256C135.575 130.096 135.618 129.963 135.703 129.856C135.789 129.749 135.89 129.696 136.007 129.696C136.157 129.696 136.306 129.755 136.455 129.872C136.925 130.256 137.394 130.544 137.863 130.736C138.333 130.917 138.823 131.008 139.335 131.008C140.125 131.008 140.743 130.784 141.191 130.336C141.639 129.888 141.863 129.28 141.863 128.512C141.863 127.765 141.639 127.163 141.191 126.704C140.743 126.245 140.141 126.016 139.383 126.016C138.413 126.016 137.623 126.389 137.015 127.136C136.866 127.296 136.685 127.376 136.471 127.376C136.322 127.376 136.194 127.333 136.087 127.248C135.991 127.152 135.943 127.024 135.943 126.864V121.344C135.943 121.163 135.997 121.013 136.103 120.896C136.221 120.779 136.381 120.72 136.583 120.72H142.215C142.407 120.72 142.557 120.768 142.663 120.864C142.781 120.96 142.839 121.093 142.839 121.264C142.839 121.435 142.781 121.568 142.663 121.664C142.557 121.76 142.407 121.808 142.215 121.808H137.239V125.824C137.538 125.536 137.885 125.317 138.279 125.168C138.685 125.008 139.122 124.928 139.591 124.928ZM146.001 132.08C145.798 132.08 145.638 132.021 145.521 131.904C145.404 131.776 145.345 131.611 145.345 131.408V121.36C145.345 121.168 145.404 121.013 145.521 120.896C145.649 120.779 145.814 120.72 146.017 120.72H151.841C152.033 120.72 152.182 120.768 152.289 120.864C152.396 120.96 152.449 121.099 152.449 121.28C152.449 121.451 152.396 121.584 152.289 121.68C152.182 121.776 152.033 121.824 151.841 121.824H146.641V125.712H151.521C151.713 125.712 151.862 125.76 151.969 125.856C152.076 125.952 152.129 126.091 152.129 126.272C152.129 126.443 152.076 126.576 151.969 126.672C151.862 126.768 151.713 126.816 151.521 126.816H146.641V131.408C146.641 131.611 146.582 131.776 146.465 131.904C146.358 132.021 146.204 132.08 146.001 132.08ZM158.091 124.928C158.806 124.928 159.43 125.077 159.963 125.376C160.507 125.675 160.923 126.096 161.211 126.64C161.51 127.173 161.659 127.792 161.659 128.496C161.659 129.2 161.499 129.829 161.179 130.384C160.859 130.928 160.411 131.355 159.835 131.664C159.27 131.963 158.614 132.112 157.867 132.112C157.206 132.112 156.561 131.995 155.931 131.76C155.302 131.525 154.769 131.205 154.331 130.8C154.161 130.64 154.075 130.459 154.075 130.256C154.075 130.096 154.118 129.963 154.203 129.856C154.289 129.749 154.39 129.696 154.507 129.696C154.657 129.696 154.806 129.755 154.955 129.872C155.425 130.256 155.894 130.544 156.363 130.736C156.833 130.917 157.323 131.008 157.835 131.008C158.625 131.008 159.243 130.784 159.691 130.336C160.139 129.888 160.363 129.28 160.363 128.512C160.363 127.765 160.139 127.163 159.691 126.704C159.243 126.245 158.641 126.016 157.883 126.016C156.913 126.016 156.123 126.389 155.515 127.136C155.366 127.296 155.185 127.376 154.971 127.376C154.822 127.376 154.694 127.333 154.587 127.248C154.491 127.152 154.443 127.024 154.443 126.864V121.344C154.443 121.163 154.497 121.013 154.603 120.896C154.721 120.779 154.881 120.72 155.083 120.72H160.715C160.907 120.72 161.057 120.768 161.163 120.864C161.281 120.96 161.339 121.093 161.339 121.264C161.339 121.435 161.281 121.568 161.163 121.664C161.057 121.76 160.907 121.808 160.715 121.808H155.739V125.824C156.038 125.536 156.385 125.317 156.779 125.168C157.185 125.008 157.622 124.928 158.091 124.928ZM164.501 132.08C164.298 132.08 164.138 132.021 164.021 131.904C163.904 131.776 163.845 131.611 163.845 131.408V121.36C163.845 121.168 163.904 121.013 164.021 120.896C164.149 120.779 164.314 120.72 164.517 120.72H170.341C170.533 120.72 170.682 120.768 170.789 120.864C170.896 120.96 170.949 121.099 170.949 121.28C170.949 121.451 170.896 121.584 170.789 121.68C170.682 121.776 170.533 121.824 170.341 121.824H165.141V125.712H170.021C170.213 125.712 170.362 125.76 170.469 125.856C170.576 125.952 170.629 126.091 170.629 126.272C170.629 126.443 170.576 126.576 170.469 126.672C170.362 126.768 170.213 126.816 170.021 126.816H165.141V131.408C165.141 131.611 165.082 131.776 164.965 131.904C164.858 132.021 164.704 132.08 164.501 132.08ZM176.591 124.928C177.306 124.928 177.93 125.077 178.463 125.376C179.007 125.675 179.423 126.096 179.711 126.64C180.01 127.173 180.159 127.792 180.159 128.496C180.159 129.2 179.999 129.829 179.679 130.384C179.359 130.928 178.911 131.355 178.335 131.664C177.77 131.963 177.114 132.112 176.367 132.112C175.706 132.112 175.061 131.995 174.431 131.76C173.802 131.525 173.269 131.205 172.831 130.8C172.661 130.64 172.575 130.459 172.575 130.256C172.575 130.096 172.618 129.963 172.703 129.856C172.789 129.749 172.89 129.696 173.007 129.696C173.157 129.696 173.306 129.755 173.455 129.872C173.925 130.256 174.394 130.544 174.863 130.736C175.333 130.917 175.823 131.008 176.335 131.008C177.125 131.008 177.743 130.784 178.191 130.336C178.639 129.888 178.863 129.28 178.863 128.512C178.863 127.765 178.639 127.163 178.191 126.704C177.743 126.245 177.141 126.016 176.383 126.016C175.413 126.016 174.623 126.389 174.015 127.136C173.866 127.296 173.685 127.376 173.471 127.376C173.322 127.376 173.194 127.333 173.087 127.248C172.991 127.152 172.943 127.024 172.943 126.864V121.344C172.943 121.163 172.997 121.013 173.103 120.896C173.221 120.779 173.381 120.72 173.583 120.72H179.215C179.407 120.72 179.557 120.768 179.663 120.864C179.781 120.96 179.839 121.093 179.839 121.264C179.839 121.435 179.781 121.568 179.663 121.664C179.557 121.76 179.407 121.808 179.215 121.808H174.239V125.824C174.538 125.536 174.885 125.317 175.279 125.168C175.685 125.008 176.122 124.928 176.591 124.928Z" fill="black"/>
</svg>
