<svg width="214" height="310" viewBox="0 0 214 310" fill="none" xmlns="http://www.w3.org/2000/svg">
<ellipse cx="32.5" cy="196" rx="31.5" ry="32" fill="#9C3C1E"/>
<circle cx="32" cy="32" r="31.5" fill="#EEE6E2" stroke="black"/>
<path d="M64.5 114C64.5 131.39 50.1805 145.5 32.5 145.5C14.8196 145.5 0.5 131.39 0.5 114C0.5 96.6103 14.8196 82.5 32.5 82.5C50.1805 82.5 64.5 96.6103 64.5 114Z" fill="#6D9D8F" stroke="black"/>
<ellipse cx="32.5" cy="278" rx="32.5" ry="32" fill="#D8A459"/>
<path d="M91.824 16.64C92.016 16.64 92.1653 16.704 92.272 16.832C92.3787 16.9493 92.432 17.1093 92.432 17.312V27.408C92.432 27.6107 92.3733 27.776 92.256 27.904C92.1493 28.0213 91.9947 28.08 91.792 28.08C91.5893 28.08 91.4133 27.9893 91.264 27.808L84.624 18.928V27.408C84.624 27.6107 84.5653 27.776 84.448 27.904C84.3413 28.0213 84.192 28.08 84 28.08C83.808 28.08 83.6587 28.0213 83.552 27.904C83.4453 27.776 83.392 27.6107 83.392 27.408V17.312C83.392 17.1093 83.4453 16.9493 83.552 16.832C83.6693 16.704 83.8293 16.64 84.032 16.64C84.2453 16.64 84.4267 16.7307 84.576 16.912L91.2 25.792V17.312C91.2 17.1093 91.2533 16.9493 91.36 16.832C91.4773 16.704 91.632 16.64 91.824 16.64ZM98.2121 20.016C100.164 20.016 101.14 21.04 101.14 23.088V27.44C101.14 27.632 101.081 27.7867 100.964 27.904C100.857 28.0213 100.708 28.08 100.516 28.08C100.324 28.08 100.169 28.0213 100.052 27.904C99.9348 27.7867 99.8761 27.632 99.8761 27.44V26.672C99.6735 27.1307 99.3641 27.488 98.9481 27.744C98.5321 27.9893 98.0521 28.112 97.5081 28.112C97.0068 28.112 96.5428 28.0107 96.1161 27.808C95.7001 27.6053 95.3695 27.3227 95.1241 26.96C94.8788 26.5973 94.7561 26.1973 94.7561 25.76C94.7561 25.1733 94.9055 24.72 95.2041 24.4C95.5028 24.0693 95.9935 23.8347 96.6761 23.696C97.3588 23.5467 98.3081 23.472 99.5241 23.472H99.8761V22.944C99.8761 22.304 99.7428 21.8347 99.4761 21.536C99.2201 21.2373 98.7988 21.088 98.2121 21.088C97.4868 21.088 96.7508 21.2853 96.0041 21.68C95.7161 21.8613 95.5135 21.952 95.3961 21.952C95.2681 21.952 95.1615 21.904 95.0761 21.808C94.9908 21.712 94.9481 21.5893 94.9481 21.44C94.9481 21.2907 94.9908 21.1627 95.0761 21.056C95.1721 20.9387 95.3215 20.8213 95.5241 20.704C95.8975 20.4907 96.3188 20.3253 96.7881 20.208C97.2681 20.08 97.7428 20.016 98.2121 20.016ZM97.6841 27.088C98.3241 27.088 98.8468 26.8747 99.2521 26.448C99.6681 26.0107 99.8761 25.4507 99.8761 24.768V24.304H99.5881C98.6495 24.304 97.9348 24.3467 97.4441 24.432C96.9535 24.5067 96.6015 24.64 96.3881 24.832C96.1855 25.0133 96.0841 25.2853 96.0841 25.648C96.0841 26.064 96.2335 26.4107 96.5321 26.688C96.8415 26.9547 97.2255 27.088 97.6841 27.088ZM109.737 26.976C109.907 27.136 109.993 27.3067 109.993 27.488C109.993 27.648 109.934 27.7867 109.817 27.904C109.71 28.0213 109.577 28.08 109.417 28.08C109.278 28.08 109.134 28.016 108.985 27.888L104.809 24.288V27.44C104.809 27.6427 104.745 27.8027 104.617 27.92C104.499 28.0267 104.35 28.08 104.169 28.08C103.977 28.08 103.817 28.0267 103.689 27.92C103.571 27.8027 103.513 27.6427 103.513 27.44V17.28C103.513 17.0773 103.571 16.9227 103.689 16.816C103.817 16.6987 103.977 16.64 104.169 16.64C104.35 16.64 104.499 16.6987 104.617 16.816C104.745 16.9227 104.809 17.0773 104.809 17.28V23.776L108.633 20.272C108.761 20.144 108.905 20.08 109.065 20.08C109.225 20.08 109.363 20.1387 109.481 20.256C109.598 20.3733 109.657 20.512 109.657 20.672C109.657 20.8533 109.582 21.0133 109.433 21.152L106.281 23.968L109.737 26.976ZM117.404 26.192C117.521 26.192 117.623 26.24 117.708 26.336C117.793 26.432 117.836 26.5547 117.836 26.704C117.836 26.9707 117.649 27.216 117.276 27.44C116.892 27.664 116.487 27.8347 116.06 27.952C115.633 28.0587 115.217 28.112 114.812 28.112C113.607 28.112 112.652 27.7547 111.948 27.04C111.255 26.3253 110.908 25.3387 110.908 24.08C110.908 23.28 111.063 22.576 111.372 21.968C111.681 21.3493 112.113 20.8693 112.668 20.528C113.233 20.1867 113.873 20.016 114.588 20.016C115.601 20.016 116.407 20.3467 117.004 21.008C117.601 21.6693 117.9 22.5653 117.9 23.696C117.9 23.9093 117.857 24.064 117.772 24.16C117.687 24.256 117.548 24.304 117.356 24.304H112.204C112.3 26.1387 113.169 27.056 114.812 27.056C115.228 27.056 115.585 27.0027 115.884 26.896C116.183 26.7787 116.503 26.624 116.844 26.432C117.121 26.272 117.308 26.192 117.404 26.192ZM114.604 21.024C113.921 21.024 113.372 21.2373 112.956 21.664C112.551 22.0907 112.311 22.6933 112.236 23.472H116.764C116.743 22.6827 116.545 22.08 116.172 21.664C115.799 21.2373 115.276 21.024 114.604 21.024ZM126.065 16.64C126.268 16.64 126.428 16.6987 126.545 16.816C126.663 16.9333 126.721 17.0827 126.721 17.264V27.44C126.721 27.632 126.663 27.7867 126.545 27.904C126.428 28.0213 126.268 28.08 126.065 28.08C125.863 28.08 125.703 28.0213 125.585 27.904C125.479 27.7867 125.425 27.632 125.425 27.44V26.576C125.191 27.0667 124.844 27.4453 124.385 27.712C123.937 27.9787 123.409 28.112 122.801 28.112C122.119 28.112 121.516 27.9413 120.993 27.6C120.471 27.2587 120.065 26.784 119.777 26.176C119.489 25.5573 119.345 24.8427 119.345 24.032C119.345 23.232 119.489 22.528 119.777 21.92C120.065 21.312 120.471 20.8427 120.993 20.512C121.516 20.1813 122.119 20.016 122.801 20.016C123.409 20.016 123.937 20.1493 124.385 20.416C124.844 20.6827 125.191 21.0613 125.425 21.552V17.264C125.425 17.072 125.479 16.9227 125.585 16.816C125.703 16.6987 125.863 16.64 126.065 16.64ZM123.057 27.04C123.815 27.04 124.396 26.784 124.801 26.272C125.217 25.7493 125.425 25.0133 125.425 24.064C125.425 23.1147 125.217 22.384 124.801 21.872C124.396 21.36 123.815 21.104 123.057 21.104C122.3 21.104 121.708 21.36 121.281 21.872C120.865 22.384 120.657 23.104 120.657 24.032C120.657 24.9813 120.865 25.7227 121.281 26.256C121.708 26.7787 122.3 27.04 123.057 27.04ZM143.455 16.64C143.658 16.64 143.812 16.704 143.919 16.832C144.036 16.9493 144.095 17.1093 144.095 17.312V27.44C144.095 27.632 144.042 27.7867 143.935 27.904C143.828 28.0213 143.679 28.08 143.487 28.08C143.295 28.08 143.151 28.0213 143.055 27.904C142.959 27.7867 142.911 27.632 142.911 27.44V19.264L139.439 25.92C139.29 26.2293 139.071 26.384 138.783 26.384C138.506 26.384 138.287 26.2293 138.127 25.92L134.639 19.344V27.44C134.639 27.632 134.586 27.7867 134.479 27.904C134.383 28.0213 134.239 28.08 134.047 28.08C133.855 28.08 133.706 28.0213 133.599 27.904C133.492 27.7867 133.439 27.632 133.439 27.44V17.312C133.439 17.1093 133.498 16.9493 133.615 16.832C133.732 16.704 133.892 16.64 134.095 16.64C134.362 16.64 134.575 16.7947 134.735 17.104L138.799 24.896L142.815 17.104C142.9 16.9333 142.991 16.816 143.087 16.752C143.194 16.6773 143.316 16.64 143.455 16.64ZM149.884 20.016C151.836 20.016 152.812 21.04 152.812 23.088V27.44C152.812 27.632 152.753 27.7867 152.636 27.904C152.529 28.0213 152.38 28.08 152.188 28.08C151.996 28.08 151.841 28.0213 151.724 27.904C151.607 27.7867 151.548 27.632 151.548 27.44V26.672C151.345 27.1307 151.036 27.488 150.62 27.744C150.204 27.9893 149.724 28.112 149.18 28.112C148.679 28.112 148.215 28.0107 147.788 27.808C147.372 27.6053 147.041 27.3227 146.796 26.96C146.551 26.5973 146.428 26.1973 146.428 25.76C146.428 25.1733 146.577 24.72 146.876 24.4C147.175 24.0693 147.665 23.8347 148.348 23.696C149.031 23.5467 149.98 23.472 151.196 23.472H151.548V22.944C151.548 22.304 151.415 21.8347 151.148 21.536C150.892 21.2373 150.471 21.088 149.884 21.088C149.159 21.088 148.423 21.2853 147.676 21.68C147.388 21.8613 147.185 21.952 147.068 21.952C146.94 21.952 146.833 21.904 146.748 21.808C146.663 21.712 146.62 21.5893 146.62 21.44C146.62 21.2907 146.663 21.1627 146.748 21.056C146.844 20.9387 146.993 20.8213 147.196 20.704C147.569 20.4907 147.991 20.3253 148.46 20.208C148.94 20.08 149.415 20.016 149.884 20.016ZM149.356 27.088C149.996 27.088 150.519 26.8747 150.924 26.448C151.34 26.0107 151.548 25.4507 151.548 24.768V24.304H151.26C150.321 24.304 149.607 24.3467 149.116 24.432C148.625 24.5067 148.273 24.64 148.06 24.832C147.857 25.0133 147.756 25.2853 147.756 25.648C147.756 26.064 147.905 26.4107 148.204 26.688C148.513 26.9547 148.897 27.088 149.356 27.088ZM153.568 30.912C153.302 30.9333 153.104 30.896 152.976 30.8C152.838 30.7147 152.768 30.5813 152.768 30.4C152.768 30.112 152.955 29.9467 153.328 29.904L153.776 29.872C154.256 29.84 154.608 29.696 154.832 29.44C155.067 29.184 155.184 28.7627 155.184 28.176V20.688C155.184 20.4853 155.243 20.3307 155.36 20.224C155.488 20.1067 155.648 20.048 155.84 20.048C156.032 20.048 156.187 20.1067 156.304 20.224C156.422 20.3307 156.48 20.4853 156.48 20.688V28.096C156.48 28.992 156.278 29.664 155.872 30.112C155.478 30.56 154.859 30.816 154.016 30.88L153.568 30.912ZM155.84 18.368C155.584 18.368 155.376 18.2933 155.216 18.144C155.056 17.9947 154.976 17.7973 154.976 17.552C154.976 17.3173 155.056 17.1253 155.216 16.976C155.376 16.8267 155.584 16.752 155.84 16.752C156.096 16.752 156.304 16.8267 156.464 16.976C156.624 17.1253 156.704 17.3173 156.704 17.552C156.704 17.7973 156.624 17.9947 156.464 18.144C156.304 18.2933 156.096 18.368 155.84 18.368ZM162.087 20.016C164.039 20.016 165.015 21.04 165.015 23.088V27.44C165.015 27.632 164.956 27.7867 164.839 27.904C164.732 28.0213 164.583 28.08 164.391 28.08C164.199 28.08 164.044 28.0213 163.927 27.904C163.81 27.7867 163.751 27.632 163.751 27.44V26.672C163.548 27.1307 163.239 27.488 162.823 27.744C162.407 27.9893 161.927 28.112 161.383 28.112C160.882 28.112 160.418 28.0107 159.991 27.808C159.575 27.6053 159.244 27.3227 158.999 26.96C158.754 26.5973 158.631 26.1973 158.631 25.76C158.631 25.1733 158.78 24.72 159.079 24.4C159.378 24.0693 159.868 23.8347 160.551 23.696C161.234 23.5467 162.183 23.472 163.399 23.472H163.751V22.944C163.751 22.304 163.618 21.8347 163.351 21.536C163.095 21.2373 162.674 21.088 162.087 21.088C161.362 21.088 160.626 21.2853 159.879 21.68C159.591 21.8613 159.388 21.952 159.271 21.952C159.143 21.952 159.036 21.904 158.951 21.808C158.866 21.712 158.823 21.5893 158.823 21.44C158.823 21.2907 158.866 21.1627 158.951 21.056C159.047 20.9387 159.196 20.8213 159.399 20.704C159.772 20.4907 160.194 20.3253 160.663 20.208C161.143 20.08 161.618 20.016 162.087 20.016ZM161.559 27.088C162.199 27.088 162.722 26.8747 163.127 26.448C163.543 26.0107 163.751 25.4507 163.751 24.768V24.304H163.463C162.524 24.304 161.81 24.3467 161.319 24.432C160.828 24.5067 160.476 24.64 160.263 24.832C160.06 25.0133 159.959 25.2853 159.959 25.648C159.959 26.064 160.108 26.4107 160.407 26.688C160.716 26.9547 161.1 27.088 161.559 27.088ZM92.096 38.64C92.2987 38.64 92.4533 38.704 92.56 38.832C92.6773 38.9493 92.736 39.1093 92.736 39.312V49.408C92.736 49.6107 92.6773 49.776 92.56 49.904C92.4533 50.0213 92.2987 50.08 92.096 50.08C91.8933 50.08 91.7333 50.0213 91.616 49.904C91.4987 49.776 91.44 49.6107 91.44 49.408V44.832H84.688V49.408C84.688 49.6107 84.6293 49.776 84.512 49.904C84.3947 50.0213 84.2347 50.08 84.032 50.08C83.8293 50.08 83.6693 50.0213 83.552 49.904C83.4453 49.776 83.392 49.6107 83.392 49.408V39.312C83.392 39.1093 83.4453 38.9493 83.552 38.832C83.6693 38.704 83.8293 38.64 84.032 38.64C84.2347 38.64 84.3947 38.704 84.512 38.832C84.6293 38.9493 84.688 39.1093 84.688 39.312V43.712H91.44V39.312C91.44 39.1093 91.4987 38.9493 91.616 38.832C91.7333 38.704 91.8933 38.64 92.096 38.64ZM101.357 48.192C101.474 48.192 101.576 48.24 101.661 48.336C101.746 48.432 101.789 48.5547 101.789 48.704C101.789 48.9707 101.602 49.216 101.229 49.44C100.845 49.664 100.44 49.8347 100.013 49.952C99.5863 50.0587 99.1703 50.112 98.765 50.112C97.5597 50.112 96.605 49.7547 95.901 49.04C95.2077 48.3253 94.861 47.3387 94.861 46.08C94.861 45.28 95.0157 44.576 95.325 43.968C95.6343 43.3493 96.0663 42.8693 96.621 42.528C97.1863 42.1867 97.8263 42.016 98.541 42.016C99.5543 42.016 100.36 42.3467 100.957 43.008C101.554 43.6693 101.853 44.5653 101.853 45.696C101.853 45.9093 101.81 46.064 101.725 46.16C101.64 46.256 101.501 46.304 101.309 46.304H96.157C96.253 48.1387 97.1223 49.056 98.765 49.056C99.181 49.056 99.5383 49.0027 99.837 48.896C100.136 48.7787 100.456 48.624 100.797 48.432C101.074 48.272 101.261 48.192 101.357 48.192ZM98.557 43.024C97.8743 43.024 97.325 43.2373 96.909 43.664C96.5037 44.0907 96.2637 44.6933 96.189 45.472H100.717C100.696 44.6827 100.498 44.08 100.125 43.664C99.7517 43.2373 99.229 43.024 98.557 43.024ZM110.053 49.008C110.181 49.136 110.245 49.2907 110.245 49.472C110.245 49.632 110.186 49.7707 110.069 49.888C109.952 50.0053 109.813 50.064 109.653 50.064C109.482 50.064 109.328 49.9893 109.189 49.84L106.597 46.88L104.021 49.84C103.882 49.9893 103.728 50.064 103.557 50.064C103.397 50.064 103.253 50.0053 103.125 49.888C103.008 49.7707 102.949 49.6267 102.949 49.456C102.949 49.296 103.013 49.1467 103.141 49.008L105.797 46.016L103.253 43.12C103.125 42.9707 103.061 42.8213 103.061 42.672C103.061 42.5013 103.12 42.3573 103.237 42.24C103.365 42.1227 103.504 42.064 103.653 42.064C103.824 42.064 103.978 42.1387 104.117 42.288L106.597 45.136L109.077 42.288C109.216 42.1387 109.37 42.064 109.541 42.064C109.701 42.064 109.84 42.1227 109.957 42.24C110.074 42.3573 110.133 42.496 110.133 42.656C110.133 42.8373 110.069 42.992 109.941 43.12L107.397 46.016L110.053 49.008ZM122.347 42.448L121.627 46.144H123.195C123.334 46.144 123.451 46.192 123.547 46.288C123.654 46.384 123.707 46.5013 123.707 46.64C123.707 46.768 123.659 46.8747 123.563 46.96C123.467 47.0453 123.345 47.088 123.195 47.088H121.451L120.939 49.696C120.918 49.8133 120.859 49.9093 120.763 49.984C120.678 50.048 120.577 50.08 120.459 50.08C120.31 50.08 120.187 50.032 120.091 49.936C119.995 49.84 119.947 49.7227 119.947 49.584C119.947 49.52 119.953 49.472 119.963 49.44L120.427 47.088H117.867L117.355 49.696C117.345 49.8027 117.291 49.8933 117.195 49.968C117.11 50.0427 117.009 50.08 116.891 50.08C116.753 50.08 116.635 50.032 116.539 49.936C116.443 49.84 116.395 49.7227 116.395 49.584C116.395 49.52 116.401 49.472 116.411 49.44L116.875 47.088H115.803C115.654 47.088 115.531 47.04 115.435 46.944C115.339 46.848 115.291 46.7307 115.291 46.592C115.291 46.464 115.339 46.3573 115.435 46.272C115.531 46.1867 115.654 46.144 115.803 46.144H117.051L117.771 42.448H116.123C115.985 42.448 115.862 42.4 115.755 42.304C115.659 42.208 115.611 42.0907 115.611 41.952C115.611 41.824 115.659 41.7173 115.755 41.632C115.851 41.5467 115.974 41.504 116.123 41.504H117.947L118.443 38.976C118.465 38.8587 118.518 38.768 118.603 38.704C118.699 38.6293 118.806 38.592 118.923 38.592C119.073 38.592 119.19 38.64 119.275 38.736C119.371 38.8213 119.419 38.9387 119.419 39.088C119.419 39.152 119.414 39.2 119.403 39.232L118.955 41.504H121.515L122.011 38.976C122.022 38.8693 122.075 38.7787 122.171 38.704C122.267 38.6293 122.374 38.592 122.491 38.592C122.641 38.592 122.758 38.64 122.843 38.736C122.939 38.8213 122.987 38.9387 122.987 39.088C122.987 39.152 122.982 39.2 122.971 39.232L122.523 41.504H123.515C123.665 41.504 123.787 41.552 123.883 41.648C123.979 41.744 124.027 41.8613 124.027 42C124.027 42.128 123.979 42.2347 123.883 42.32C123.787 42.4053 123.665 42.448 123.515 42.448H122.347ZM120.603 46.144L121.339 42.448H118.779L118.043 46.144H120.603ZM126.517 50C126.314 50 126.149 49.9413 126.021 49.824C125.904 49.7067 125.845 49.552 125.845 49.36V39.36C125.845 39.168 125.904 39.0133 126.021 38.896C126.149 38.7787 126.314 38.72 126.517 38.72H132.501C132.693 38.72 132.842 38.768 132.949 38.864C133.056 38.96 133.109 39.0933 133.109 39.264C133.109 39.4347 133.056 39.568 132.949 39.664C132.842 39.76 132.693 39.808 132.501 39.808H127.141V43.728H132.181C132.373 43.728 132.522 43.776 132.629 43.872C132.736 43.968 132.789 44.1013 132.789 44.272C132.789 44.4427 132.736 44.576 132.629 44.672C132.522 44.768 132.373 44.816 132.181 44.816H127.141V48.912H132.501C132.693 48.912 132.842 48.96 132.949 49.056C133.056 49.1413 133.109 49.2747 133.109 49.456C133.109 49.6267 133.056 49.76 132.949 49.856C132.842 49.952 132.693 50 132.501 50H126.517ZM135.83 50C135.627 50 135.462 49.9413 135.334 49.824C135.216 49.7067 135.158 49.552 135.158 49.36V39.36C135.158 39.168 135.216 39.0133 135.334 38.896C135.462 38.7787 135.627 38.72 135.83 38.72H141.814C142.006 38.72 142.155 38.768 142.262 38.864C142.368 38.96 142.422 39.0933 142.422 39.264C142.422 39.4347 142.368 39.568 142.262 39.664C142.155 39.76 142.006 39.808 141.814 39.808H136.454V43.728H141.494C141.686 43.728 141.835 43.776 141.942 43.872C142.048 43.968 142.102 44.1013 142.102 44.272C142.102 44.4427 142.048 44.576 141.942 44.672C141.835 44.768 141.686 44.816 141.494 44.816H136.454V48.912H141.814C142.006 48.912 142.155 48.96 142.262 49.056C142.368 49.1413 142.422 49.2747 142.422 49.456C142.422 49.6267 142.368 49.76 142.262 49.856C142.155 49.952 142.006 50 141.814 50H135.83ZM145.142 50C144.939 50 144.774 49.9413 144.646 49.824C144.529 49.7067 144.47 49.552 144.47 49.36V39.36C144.47 39.168 144.529 39.0133 144.646 38.896C144.774 38.7787 144.939 38.72 145.142 38.72H151.126C151.318 38.72 151.467 38.768 151.574 38.864C151.681 38.96 151.734 39.0933 151.734 39.264C151.734 39.4347 151.681 39.568 151.574 39.664C151.467 39.76 151.318 39.808 151.126 39.808H145.766V43.728H150.806C150.998 43.728 151.147 43.776 151.254 43.872C151.361 43.968 151.414 44.1013 151.414 44.272C151.414 44.4427 151.361 44.576 151.254 44.672C151.147 44.768 150.998 44.816 150.806 44.816H145.766V48.912H151.126C151.318 48.912 151.467 48.96 151.574 49.056C151.681 49.1413 151.734 49.2747 151.734 49.456C151.734 49.6267 151.681 49.76 151.574 49.856C151.467 49.952 151.318 50 151.126 50H145.142ZM157.655 42.912C158.337 42.912 158.945 43.0613 159.479 43.36C160.012 43.6587 160.428 44.08 160.727 44.624C161.025 45.168 161.175 45.792 161.175 46.496C161.175 47.1893 161.02 47.8133 160.711 48.368C160.401 48.9227 159.969 49.3547 159.415 49.664C158.86 49.9733 158.236 50.128 157.543 50.128C156.177 50.128 155.121 49.6533 154.375 48.704C153.639 47.7547 153.271 46.4 153.271 44.64C153.271 43.3813 153.441 42.2987 153.783 41.392C154.124 40.4853 154.62 39.792 155.271 39.312C155.921 38.832 156.695 38.592 157.591 38.592C158.199 38.592 158.801 38.7093 159.399 38.944C160.007 39.1787 160.524 39.4987 160.951 39.904C161.132 40.0747 161.223 40.256 161.223 40.448C161.223 40.608 161.18 40.7413 161.095 40.848C161.009 40.9547 160.908 41.008 160.791 41.008C160.641 41.008 160.487 40.9493 160.327 40.832C159.399 40.0747 158.497 39.696 157.623 39.696C156.673 39.696 155.932 40.128 155.399 40.992C154.865 41.856 154.599 43.0667 154.599 44.624V44.832C154.844 44.2347 155.239 43.7653 155.783 43.424C156.337 43.0827 156.961 42.912 157.655 42.912ZM157.479 49.024C158.204 49.024 158.785 48.7947 159.223 48.336C159.66 47.8773 159.879 47.2693 159.879 46.512C159.879 45.7547 159.655 45.152 159.207 44.704C158.769 44.2453 158.188 44.016 157.463 44.016C156.727 44.016 156.124 44.2507 155.655 44.72C155.196 45.1787 154.967 45.776 154.967 46.512C154.967 47.2587 155.196 47.8667 155.655 48.336C156.124 48.7947 156.732 49.024 157.479 49.024ZM164.033 50C163.83 50 163.665 49.9413 163.537 49.824C163.419 49.7067 163.361 49.552 163.361 49.36V39.36C163.361 39.168 163.419 39.0133 163.537 38.896C163.665 38.7787 163.83 38.72 164.033 38.72H170.017C170.209 38.72 170.358 38.768 170.465 38.864C170.571 38.96 170.625 39.0933 170.625 39.264C170.625 39.4347 170.571 39.568 170.465 39.664C170.358 39.76 170.209 39.808 170.017 39.808H164.657V43.728H169.697C169.889 43.728 170.038 43.776 170.145 43.872C170.251 43.968 170.305 44.1013 170.305 44.272C170.305 44.4427 170.251 44.576 170.145 44.672C170.038 44.768 169.889 44.816 169.697 44.816H164.657V48.912H170.017C170.209 48.912 170.358 48.96 170.465 49.056C170.571 49.1413 170.625 49.2747 170.625 49.456C170.625 49.6267 170.571 49.76 170.465 49.856C170.358 49.952 170.209 50 170.017 50H164.033ZM179.409 48.896C179.601 48.896 179.751 48.944 179.857 49.04C179.964 49.136 180.017 49.2693 180.017 49.44C180.017 49.8133 179.815 50 179.409 50H173.137C172.956 50 172.807 49.9467 172.689 49.84C172.572 49.7227 172.513 49.584 172.513 49.424C172.513 49.2213 172.588 49.0453 172.737 48.896L176.593 44.656C177.127 44.0587 177.511 43.5253 177.745 43.056C177.991 42.576 178.113 42.096 178.113 41.616C178.113 40.9973 177.932 40.5227 177.569 40.192C177.217 39.8613 176.716 39.696 176.065 39.696C175.553 39.696 175.063 39.792 174.593 39.984C174.124 40.1653 173.655 40.448 173.185 40.832C173.025 40.96 172.876 41.024 172.737 41.024C172.62 41.024 172.519 40.9707 172.433 40.864C172.348 40.7467 172.305 40.608 172.305 40.448C172.305 40.224 172.391 40.0427 172.561 39.904C172.999 39.4987 173.532 39.1787 174.161 38.944C174.791 38.7093 175.436 38.592 176.097 38.592C177.111 38.592 177.916 38.8587 178.513 39.392C179.121 39.9253 179.425 40.6453 179.425 41.552C179.425 42.2027 179.276 42.8267 178.977 43.424C178.689 44.0213 178.209 44.688 177.537 45.424L174.337 48.896H179.409Z" fill="black"/>
<path d="M94.408 98.64C94.6107 98.64 94.7653 98.704 94.872 98.832C94.9893 98.9493 95.048 99.1093 95.048 99.312V109.44C95.048 109.632 94.9947 109.787 94.888 109.904C94.7813 110.021 94.632 110.08 94.44 110.08C94.248 110.08 94.104 110.021 94.008 109.904C93.912 109.787 93.864 109.632 93.864 109.44V101.264L90.392 107.92C90.2427 108.229 90.024 108.384 89.736 108.384C89.4587 108.384 89.24 108.229 89.08 107.92L85.592 101.344V109.44C85.592 109.632 85.5387 109.787 85.432 109.904C85.336 110.021 85.192 110.08 85 110.08C84.808 110.08 84.6587 110.021 84.552 109.904C84.4453 109.787 84.392 109.632 84.392 109.44V99.312C84.392 99.1093 84.4507 98.9493 84.568 98.832C84.6853 98.704 84.8453 98.64 85.048 98.64C85.3147 98.64 85.528 98.7947 85.688 99.104L89.752 106.896L93.768 99.104C93.8533 98.9333 93.944 98.816 94.04 98.752C94.1467 98.6773 94.2693 98.64 94.408 98.64ZM100.837 102.016C102.789 102.016 103.765 103.04 103.765 105.088V109.44C103.765 109.632 103.706 109.787 103.589 109.904C103.482 110.021 103.333 110.08 103.141 110.08C102.949 110.08 102.794 110.021 102.677 109.904C102.56 109.787 102.501 109.632 102.501 109.44V108.672C102.298 109.131 101.989 109.488 101.573 109.744C101.157 109.989 100.677 110.112 100.133 110.112C99.6318 110.112 99.1678 110.011 98.7411 109.808C98.3251 109.605 97.9945 109.323 97.7491 108.96C97.5038 108.597 97.3811 108.197 97.3811 107.76C97.3811 107.173 97.5305 106.72 97.8291 106.4C98.1278 106.069 98.6185 105.835 99.3011 105.696C99.9838 105.547 100.933 105.472 102.149 105.472H102.501V104.944C102.501 104.304 102.368 103.835 102.101 103.536C101.845 103.237 101.424 103.088 100.837 103.088C100.112 103.088 99.3758 103.285 98.6291 103.68C98.3411 103.861 98.1385 103.952 98.0211 103.952C97.8931 103.952 97.7865 103.904 97.7011 103.808C97.6158 103.712 97.5731 103.589 97.5731 103.44C97.5731 103.291 97.6158 103.163 97.7011 103.056C97.7971 102.939 97.9465 102.821 98.1491 102.704C98.5225 102.491 98.9438 102.325 99.4131 102.208C99.8931 102.08 100.368 102.016 100.837 102.016ZM100.309 109.088C100.949 109.088 101.472 108.875 101.877 108.448C102.293 108.011 102.501 107.451 102.501 106.768V106.304H102.213C101.274 106.304 100.56 106.347 100.069 106.432C99.5785 106.507 99.2265 106.64 99.0131 106.832C98.8105 107.013 98.7091 107.285 98.7091 107.648C98.7091 108.064 98.8585 108.411 99.1571 108.688C99.4665 108.955 99.8505 109.088 100.309 109.088ZM112.394 98.64C112.596 98.64 112.756 98.6987 112.874 98.816C112.991 98.9333 113.05 99.0827 113.05 99.264V109.44C113.05 109.632 112.991 109.787 112.874 109.904C112.756 110.021 112.596 110.08 112.394 110.08C112.191 110.08 112.031 110.021 111.914 109.904C111.807 109.787 111.754 109.632 111.754 109.44V108.576C111.519 109.067 111.172 109.445 110.714 109.712C110.266 109.979 109.738 110.112 109.13 110.112C108.447 110.112 107.844 109.941 107.322 109.6C106.799 109.259 106.394 108.784 106.106 108.176C105.818 107.557 105.674 106.843 105.674 106.032C105.674 105.232 105.818 104.528 106.106 103.92C106.394 103.312 106.799 102.843 107.322 102.512C107.844 102.181 108.447 102.016 109.13 102.016C109.738 102.016 110.266 102.149 110.714 102.416C111.172 102.683 111.519 103.061 111.754 103.552V99.264C111.754 99.072 111.807 98.9227 111.914 98.816C112.031 98.6987 112.191 98.64 112.394 98.64ZM109.386 109.04C110.143 109.04 110.724 108.784 111.13 108.272C111.546 107.749 111.754 107.013 111.754 106.064C111.754 105.115 111.546 104.384 111.13 103.872C110.724 103.36 110.143 103.104 109.386 103.104C108.628 103.104 108.036 103.36 107.61 103.872C107.194 104.384 106.986 105.104 106.986 106.032C106.986 106.981 107.194 107.723 107.61 108.256C108.036 108.779 108.628 109.04 109.386 109.04ZM119.306 102.048C119.754 102.016 119.978 102.197 119.978 102.592C119.978 102.763 119.93 102.901 119.834 103.008C119.738 103.104 119.573 103.163 119.338 103.184L118.858 103.232C118.143 103.296 117.61 103.552 117.258 104C116.917 104.437 116.746 104.955 116.746 105.552V109.44C116.746 109.653 116.687 109.813 116.57 109.92C116.453 110.027 116.298 110.08 116.106 110.08C115.914 110.08 115.754 110.027 115.626 109.92C115.509 109.803 115.45 109.643 115.45 109.44V102.688C115.45 102.485 115.514 102.331 115.642 102.224C115.77 102.107 115.925 102.048 116.106 102.048C116.277 102.048 116.421 102.107 116.538 102.224C116.655 102.331 116.714 102.48 116.714 102.672V103.568C116.938 103.099 117.253 102.741 117.658 102.496C118.074 102.251 118.549 102.107 119.082 102.064L119.306 102.048ZM121.747 110.08C121.555 110.08 121.395 110.027 121.267 109.92C121.149 109.803 121.091 109.643 121.091 109.44V102.688C121.091 102.485 121.149 102.331 121.267 102.224C121.395 102.107 121.555 102.048 121.747 102.048C121.939 102.048 122.093 102.107 122.211 102.224C122.328 102.331 122.387 102.485 122.387 102.688V109.44C122.387 109.653 122.328 109.813 122.211 109.92C122.093 110.027 121.939 110.08 121.747 110.08ZM121.747 100.368C121.491 100.368 121.283 100.293 121.123 100.144C120.963 99.9947 120.883 99.7973 120.883 99.552C120.883 99.3173 120.963 99.1253 121.123 98.976C121.283 98.8267 121.491 98.752 121.747 98.752C122.003 98.752 122.211 98.8267 122.371 98.976C122.531 99.1253 122.611 99.3173 122.611 99.552C122.611 99.7973 122.531 99.9947 122.371 100.144C122.211 100.293 122.003 100.368 121.747 100.368ZM131.065 98.64C131.268 98.64 131.428 98.6987 131.545 98.816C131.663 98.9333 131.721 99.0827 131.721 99.264V109.44C131.721 109.632 131.663 109.787 131.545 109.904C131.428 110.021 131.268 110.08 131.065 110.08C130.863 110.08 130.703 110.021 130.585 109.904C130.479 109.787 130.425 109.632 130.425 109.44V108.576C130.191 109.067 129.844 109.445 129.385 109.712C128.937 109.979 128.409 110.112 127.801 110.112C127.119 110.112 126.516 109.941 125.993 109.6C125.471 109.259 125.065 108.784 124.777 108.176C124.489 107.557 124.345 106.843 124.345 106.032C124.345 105.232 124.489 104.528 124.777 103.92C125.065 103.312 125.471 102.843 125.993 102.512C126.516 102.181 127.119 102.016 127.801 102.016C128.409 102.016 128.937 102.149 129.385 102.416C129.844 102.683 130.191 103.061 130.425 103.552V99.264C130.425 99.072 130.479 98.9227 130.585 98.816C130.703 98.6987 130.863 98.64 131.065 98.64ZM128.057 109.04C128.815 109.04 129.396 108.784 129.801 108.272C130.217 107.749 130.425 107.013 130.425 106.064C130.425 105.115 130.217 104.384 129.801 103.872C129.396 103.36 128.815 103.104 128.057 103.104C127.3 103.104 126.708 103.36 126.281 103.872C125.865 104.384 125.657 105.104 125.657 106.032C125.657 106.981 125.865 107.723 126.281 108.256C126.708 108.779 127.3 109.04 128.057 109.04ZM142.039 110.128C141.239 110.128 140.471 110.011 139.735 109.776C139.01 109.531 138.428 109.205 137.991 108.8C137.831 108.651 137.751 108.464 137.751 108.24C137.751 108.091 137.794 107.963 137.879 107.856C137.964 107.739 138.066 107.68 138.183 107.68C138.322 107.68 138.471 107.739 138.631 107.856C139.623 108.624 140.754 109.008 142.023 109.008C142.94 109.008 143.644 108.832 144.135 108.48C144.626 108.128 144.871 107.627 144.871 106.976C144.871 106.603 144.754 106.304 144.519 106.08C144.284 105.845 143.975 105.659 143.591 105.52C143.207 105.381 142.69 105.237 142.039 105.088C141.164 104.885 140.444 104.672 139.879 104.448C139.324 104.224 138.871 103.904 138.519 103.488C138.178 103.072 138.007 102.528 138.007 101.856C138.007 101.216 138.178 100.651 138.519 100.16C138.871 99.6587 139.356 99.2747 139.975 99.008C140.604 98.7307 141.319 98.592 142.119 98.592C142.866 98.592 143.559 98.7093 144.199 98.944C144.85 99.168 145.394 99.4933 145.831 99.92C146.002 100.091 146.087 100.277 146.087 100.48C146.087 100.629 146.044 100.763 145.959 100.88C145.874 100.987 145.772 101.04 145.655 101.04C145.538 101.04 145.383 100.981 145.191 100.864C144.668 100.437 144.183 100.139 143.735 99.968C143.287 99.7973 142.748 99.712 142.119 99.712C141.234 99.712 140.546 99.8987 140.055 100.272C139.564 100.635 139.319 101.147 139.319 101.808C139.319 102.373 139.532 102.8 139.959 103.088C140.396 103.365 141.063 103.611 141.959 103.824C142.93 104.059 143.692 104.277 144.247 104.48C144.802 104.672 145.26 104.965 145.623 105.36C145.996 105.755 146.183 106.283 146.183 106.944C146.183 107.573 146.007 108.128 145.655 108.608C145.314 109.088 144.828 109.461 144.199 109.728C143.57 109.995 142.85 110.128 142.039 110.128ZM154.346 108.976C154.517 109.136 154.602 109.307 154.602 109.488C154.602 109.648 154.543 109.787 154.426 109.904C154.319 110.021 154.186 110.08 154.026 110.08C153.887 110.08 153.743 110.016 153.594 109.888L149.418 106.288V109.44C149.418 109.643 149.354 109.803 149.226 109.92C149.109 110.027 148.959 110.08 148.778 110.08C148.586 110.08 148.426 110.027 148.298 109.92C148.181 109.803 148.122 109.643 148.122 109.44V99.28C148.122 99.0773 148.181 98.9227 148.298 98.816C148.426 98.6987 148.586 98.64 148.778 98.64C148.959 98.64 149.109 98.6987 149.226 98.816C149.354 98.9227 149.418 99.0773 149.418 99.28V105.776L153.242 102.272C153.37 102.144 153.514 102.08 153.674 102.08C153.834 102.08 153.973 102.139 154.09 102.256C154.207 102.373 154.266 102.512 154.266 102.672C154.266 102.853 154.191 103.013 154.042 103.152L150.89 105.968L154.346 108.976ZM161.582 102.448C161.699 102.192 161.886 102.064 162.142 102.064C162.302 102.064 162.446 102.117 162.574 102.224C162.702 102.331 162.766 102.464 162.766 102.624C162.766 102.72 162.744 102.805 162.702 102.88L158.206 112.576C158.152 112.693 158.072 112.784 157.966 112.848C157.87 112.912 157.768 112.944 157.662 112.944C157.502 112.944 157.358 112.891 157.23 112.784C157.112 112.688 157.054 112.56 157.054 112.4C157.054 112.315 157.075 112.229 157.118 112.144L158.238 109.728L155.07 102.88C155.027 102.805 155.006 102.725 155.006 102.64C155.006 102.48 155.075 102.341 155.214 102.224C155.363 102.107 155.523 102.048 155.694 102.048C155.8 102.048 155.902 102.08 155.998 102.144C156.104 102.208 156.184 102.299 156.238 102.416L158.91 108.416L161.582 102.448ZM93.096 120.64C93.2987 120.64 93.4533 120.704 93.56 120.832C93.6773 120.949 93.736 121.109 93.736 121.312V131.408C93.736 131.611 93.6773 131.776 93.56 131.904C93.4533 132.021 93.2987 132.08 93.096 132.08C92.8933 132.08 92.7333 132.021 92.616 131.904C92.4987 131.776 92.44 131.611 92.44 131.408V126.832H85.688V131.408C85.688 131.611 85.6293 131.776 85.512 131.904C85.3947 132.021 85.2347 132.08 85.032 132.08C84.8293 132.08 84.6693 132.021 84.552 131.904C84.4453 131.776 84.392 131.611 84.392 131.408V121.312C84.392 121.109 84.4453 120.949 84.552 120.832C84.6693 120.704 84.8293 120.64 85.032 120.64C85.2347 120.64 85.3947 120.704 85.512 120.832C85.6293 120.949 85.688 121.109 85.688 121.312V125.712H92.44V121.312C92.44 121.109 92.4987 120.949 92.616 120.832C92.7333 120.704 92.8933 120.64 93.096 120.64ZM102.357 130.192C102.474 130.192 102.576 130.24 102.661 130.336C102.746 130.432 102.789 130.555 102.789 130.704C102.789 130.971 102.602 131.216 102.229 131.44C101.845 131.664 101.44 131.835 101.013 131.952C100.586 132.059 100.17 132.112 99.765 132.112C98.5597 132.112 97.605 131.755 96.901 131.04C96.2077 130.325 95.861 129.339 95.861 128.08C95.861 127.28 96.0157 126.576 96.325 125.968C96.6343 125.349 97.0663 124.869 97.621 124.528C98.1863 124.187 98.8263 124.016 99.541 124.016C100.554 124.016 101.36 124.347 101.957 125.008C102.554 125.669 102.853 126.565 102.853 127.696C102.853 127.909 102.81 128.064 102.725 128.16C102.64 128.256 102.501 128.304 102.309 128.304H97.157C97.253 130.139 98.1223 131.056 99.765 131.056C100.181 131.056 100.538 131.003 100.837 130.896C101.136 130.779 101.456 130.624 101.797 130.432C102.074 130.272 102.261 130.192 102.357 130.192ZM99.557 125.024C98.8743 125.024 98.325 125.237 97.909 125.664C97.5037 126.091 97.2637 126.693 97.189 127.472H101.717C101.696 126.683 101.498 126.08 101.125 125.664C100.752 125.237 100.229 125.024 99.557 125.024ZM111.053 131.008C111.181 131.136 111.245 131.291 111.245 131.472C111.245 131.632 111.186 131.771 111.069 131.888C110.952 132.005 110.813 132.064 110.653 132.064C110.482 132.064 110.328 131.989 110.189 131.84L107.597 128.88L105.021 131.84C104.882 131.989 104.728 132.064 104.557 132.064C104.397 132.064 104.253 132.005 104.125 131.888C104.008 131.771 103.949 131.627 103.949 131.456C103.949 131.296 104.013 131.147 104.141 131.008L106.797 128.016L104.253 125.12C104.125 124.971 104.061 124.821 104.061 124.672C104.061 124.501 104.12 124.357 104.237 124.24C104.365 124.123 104.504 124.064 104.653 124.064C104.824 124.064 104.978 124.139 105.117 124.288L107.597 127.136L110.077 124.288C110.216 124.139 110.37 124.064 110.541 124.064C110.701 124.064 110.84 124.123 110.957 124.24C111.074 124.357 111.133 124.496 111.133 124.656C111.133 124.837 111.069 124.992 110.941 125.12L108.397 128.016L111.053 131.008ZM123.347 124.448L122.627 128.144H124.195C124.334 128.144 124.451 128.192 124.547 128.288C124.654 128.384 124.707 128.501 124.707 128.64C124.707 128.768 124.659 128.875 124.563 128.96C124.467 129.045 124.345 129.088 124.195 129.088H122.451L121.939 131.696C121.918 131.813 121.859 131.909 121.763 131.984C121.678 132.048 121.577 132.08 121.459 132.08C121.31 132.08 121.187 132.032 121.091 131.936C120.995 131.84 120.947 131.723 120.947 131.584C120.947 131.52 120.953 131.472 120.963 131.44L121.427 129.088H118.867L118.355 131.696C118.345 131.803 118.291 131.893 118.195 131.968C118.11 132.043 118.009 132.08 117.891 132.08C117.753 132.08 117.635 132.032 117.539 131.936C117.443 131.84 117.395 131.723 117.395 131.584C117.395 131.52 117.401 131.472 117.411 131.44L117.875 129.088H116.803C116.654 129.088 116.531 129.04 116.435 128.944C116.339 128.848 116.291 128.731 116.291 128.592C116.291 128.464 116.339 128.357 116.435 128.272C116.531 128.187 116.654 128.144 116.803 128.144H118.051L118.771 124.448H117.123C116.985 124.448 116.862 124.4 116.755 124.304C116.659 124.208 116.611 124.091 116.611 123.952C116.611 123.824 116.659 123.717 116.755 123.632C116.851 123.547 116.974 123.504 117.123 123.504H118.947L119.443 120.976C119.465 120.859 119.518 120.768 119.603 120.704C119.699 120.629 119.806 120.592 119.923 120.592C120.073 120.592 120.19 120.64 120.275 120.736C120.371 120.821 120.419 120.939 120.419 121.088C120.419 121.152 120.414 121.2 120.403 121.232L119.955 123.504H122.515L123.011 120.976C123.022 120.869 123.075 120.779 123.171 120.704C123.267 120.629 123.374 120.592 123.491 120.592C123.641 120.592 123.758 120.64 123.843 120.736C123.939 120.821 123.987 120.939 123.987 121.088C123.987 121.152 123.982 121.2 123.971 121.232L123.523 123.504H124.515C124.665 123.504 124.787 123.552 124.883 123.648C124.979 123.744 125.027 123.861 125.027 124C125.027 124.128 124.979 124.235 124.883 124.32C124.787 124.405 124.665 124.448 124.515 124.448H123.347ZM121.603 128.144L122.339 124.448H119.779L119.043 128.144H121.603ZM130.717 124.912C131.4 124.912 132.008 125.061 132.541 125.36C133.074 125.659 133.49 126.08 133.789 126.624C134.088 127.168 134.237 127.792 134.237 128.496C134.237 129.189 134.082 129.813 133.773 130.368C133.464 130.923 133.032 131.355 132.477 131.664C131.922 131.973 131.298 132.128 130.605 132.128C129.24 132.128 128.184 131.653 127.437 130.704C126.701 129.755 126.333 128.4 126.333 126.64C126.333 125.381 126.504 124.299 126.845 123.392C127.186 122.485 127.682 121.792 128.333 121.312C128.984 120.832 129.757 120.592 130.653 120.592C131.261 120.592 131.864 120.709 132.461 120.944C133.069 121.179 133.586 121.499 134.013 121.904C134.194 122.075 134.285 122.256 134.285 122.448C134.285 122.608 134.242 122.741 134.157 122.848C134.072 122.955 133.97 123.008 133.853 123.008C133.704 123.008 133.549 122.949 133.389 122.832C132.461 122.075 131.56 121.696 130.685 121.696C129.736 121.696 128.994 122.128 128.461 122.992C127.928 123.856 127.661 125.067 127.661 126.624V126.832C127.906 126.235 128.301 125.765 128.845 125.424C129.4 125.083 130.024 124.912 130.717 124.912ZM130.541 131.024C131.266 131.024 131.848 130.795 132.285 130.336C132.722 129.877 132.941 129.269 132.941 128.512C132.941 127.755 132.717 127.152 132.269 126.704C131.832 126.245 131.25 126.016 130.525 126.016C129.789 126.016 129.186 126.251 128.717 126.72C128.258 127.179 128.029 127.776 128.029 128.512C128.029 129.259 128.258 129.867 128.717 130.336C129.186 130.795 129.794 131.024 130.541 131.024ZM137.095 132C136.893 132 136.727 131.941 136.599 131.824C136.482 131.707 136.423 131.552 136.423 131.36V121.36C136.423 121.168 136.482 121.013 136.599 120.896C136.727 120.779 136.893 120.72 137.095 120.72H140.215C142.018 120.72 143.41 121.211 144.391 122.192C145.383 123.163 145.879 124.549 145.879 126.352C145.879 128.155 145.383 129.547 144.391 130.528C143.399 131.509 142.007 132 140.215 132H137.095ZM140.135 130.88C143.058 130.88 144.519 129.371 144.519 126.352C144.519 123.344 143.058 121.84 140.135 121.84H137.735V130.88H140.135ZM151.307 120.592C152.673 120.592 153.723 121.067 154.459 122.016C155.206 122.965 155.579 124.32 155.579 126.08C155.579 127.339 155.409 128.421 155.067 129.328C154.726 130.235 154.23 130.928 153.579 131.408C152.929 131.888 152.155 132.128 151.259 132.128C150.651 132.128 150.043 132.011 149.435 131.776C148.838 131.541 148.326 131.221 147.899 130.816C147.718 130.645 147.627 130.464 147.627 130.272C147.627 130.112 147.67 129.979 147.755 129.872C147.841 129.765 147.942 129.712 148.059 129.712C148.209 129.712 148.363 129.771 148.523 129.888C149.451 130.645 150.353 131.024 151.227 131.024C152.177 131.024 152.918 130.592 153.451 129.728C153.985 128.864 154.251 127.653 154.251 126.096V125.888C154.006 126.485 153.606 126.955 153.051 127.296C152.507 127.637 151.889 127.808 151.195 127.808C150.513 127.808 149.905 127.659 149.371 127.36C148.838 127.061 148.422 126.64 148.123 126.096C147.825 125.552 147.675 124.928 147.675 124.224C147.675 123.531 147.83 122.907 148.139 122.352C148.449 121.797 148.881 121.365 149.435 121.056C149.99 120.747 150.614 120.592 151.307 120.592ZM151.387 126.704C152.123 126.704 152.721 126.475 153.179 126.016C153.649 125.547 153.883 124.944 153.883 124.208C153.883 123.461 153.649 122.859 153.179 122.4C152.721 121.931 152.118 121.696 151.371 121.696C150.646 121.696 150.065 121.925 149.627 122.384C149.19 122.843 148.971 123.451 148.971 124.208C148.971 124.965 149.19 125.573 149.627 126.032C150.075 126.48 150.662 126.704 151.387 126.704ZM158.517 132C158.314 132 158.149 131.941 158.021 131.824C157.904 131.707 157.845 131.552 157.845 131.36V121.36C157.845 121.168 157.904 121.013 158.021 120.896C158.149 120.779 158.314 120.72 158.517 120.72H161.637C163.44 120.72 164.832 121.211 165.813 122.192C166.805 123.163 167.301 124.549 167.301 126.352C167.301 128.155 166.805 129.547 165.813 130.528C164.821 131.509 163.429 132 161.637 132H158.517ZM161.557 130.88C164.48 130.88 165.941 129.371 165.941 126.352C165.941 123.344 164.48 121.84 161.557 121.84H159.157V130.88H161.557ZM175.033 126.208C175.695 126.411 176.207 126.757 176.569 127.248C176.943 127.739 177.129 128.325 177.129 129.008C177.129 129.979 176.777 130.741 176.073 131.296C175.369 131.84 174.372 132.112 173.081 132.112C171.791 132.112 170.793 131.84 170.089 131.296C169.385 130.741 169.033 129.979 169.033 129.008C169.033 128.315 169.22 127.723 169.593 127.232C169.967 126.741 170.484 126.4 171.145 126.208C170.58 125.995 170.132 125.659 169.801 125.2C169.471 124.741 169.305 124.203 169.305 123.584C169.305 122.667 169.636 121.941 170.297 121.408C170.969 120.864 171.897 120.592 173.081 120.592C174.265 120.592 175.188 120.864 175.849 121.408C176.521 121.941 176.857 122.667 176.857 123.584C176.857 124.203 176.692 124.747 176.361 125.216C176.031 125.675 175.588 126.005 175.033 126.208ZM170.601 123.68C170.601 124.341 170.809 124.848 171.225 125.2C171.652 125.552 172.271 125.728 173.081 125.728C173.892 125.728 174.505 125.552 174.921 125.2C175.348 124.848 175.561 124.341 175.561 123.68C175.561 123.051 175.348 122.56 174.921 122.208C174.505 121.856 173.892 121.68 173.081 121.68C172.271 121.68 171.652 121.856 171.225 122.208C170.809 122.56 170.601 123.051 170.601 123.68ZM173.081 131.024C174.916 131.024 175.833 130.325 175.833 128.928C175.833 127.531 174.916 126.832 173.081 126.832C171.247 126.832 170.329 127.531 170.329 128.928C170.329 130.325 171.247 131.024 173.081 131.024ZM179.923 132.08C179.72 132.08 179.56 132.021 179.443 131.904C179.326 131.776 179.267 131.611 179.267 131.408V121.36C179.267 121.168 179.326 121.013 179.443 120.896C179.571 120.779 179.736 120.72 179.939 120.72H185.763C185.955 120.72 186.104 120.768 186.211 120.864C186.318 120.96 186.371 121.099 186.371 121.28C186.371 121.451 186.318 121.584 186.211 121.68C186.104 121.776 185.955 121.824 185.763 121.824H180.563V125.712H185.443C185.635 125.712 185.784 125.76 185.891 125.856C185.998 125.952 186.051 126.091 186.051 126.272C186.051 126.443 185.998 126.576 185.891 126.672C185.784 126.768 185.635 126.816 185.443 126.816H180.563V131.408C180.563 131.611 180.504 131.776 180.387 131.904C180.28 132.021 180.126 132.08 179.923 132.08Z" fill="black"/>
<path d="M92 191.184C92.0747 191.301 92.112 191.424 92.112 191.552C92.112 191.712 92.048 191.845 91.92 191.952C91.8027 192.048 91.664 192.096 91.504 192.096C91.2587 192.096 91.0667 191.989 90.928 191.776L88.784 188.384C88.5067 187.947 88.2187 187.648 87.92 187.488C87.6213 187.317 87.216 187.232 86.704 187.232H84.688V191.408C84.688 191.611 84.6293 191.776 84.512 191.904C84.3947 192.021 84.24 192.08 84.048 192.08C83.8453 192.08 83.6853 192.021 83.568 191.904C83.4507 191.776 83.392 191.611 83.392 191.408V181.36C83.392 181.168 83.4507 181.013 83.568 180.896C83.696 180.779 83.8613 180.72 84.064 180.72H88.032C89.2587 180.72 90.192 180.992 90.832 181.536C91.4827 182.08 91.808 182.88 91.808 183.936C91.808 184.832 91.5467 185.552 91.024 186.096C90.512 186.64 89.776 186.971 88.816 187.088C89.0827 187.173 89.3227 187.312 89.536 187.504C89.7493 187.696 89.9627 187.963 90.176 188.304L92 191.184ZM87.92 186.144C88.7947 186.144 89.4453 185.963 89.872 185.6C90.3093 185.237 90.528 184.688 90.528 183.952C90.528 183.227 90.3147 182.688 89.888 182.336C89.4613 181.984 88.8053 181.808 87.92 181.808H84.688V186.144H87.92ZM97.4008 192.112C96.6648 192.112 96.0141 191.947 95.4488 191.616C94.8941 191.285 94.4621 190.816 94.1528 190.208C93.8541 189.589 93.7048 188.875 93.7048 188.064C93.7048 187.253 93.8541 186.544 94.1528 185.936C94.4621 185.317 94.8941 184.843 95.4488 184.512C96.0141 184.181 96.6648 184.016 97.4008 184.016C98.1368 184.016 98.7874 184.181 99.3528 184.512C99.9181 184.843 100.35 185.317 100.649 185.936C100.958 186.544 101.113 187.253 101.113 188.064C101.113 188.875 100.958 189.589 100.649 190.208C100.35 190.816 99.9181 191.285 99.3528 191.616C98.7874 191.947 98.1368 192.112 97.4008 192.112ZM97.4008 191.04C98.1688 191.04 98.7554 190.789 99.1608 190.288C99.5768 189.776 99.7848 189.035 99.7848 188.064C99.7848 187.115 99.5768 186.384 99.1608 185.872C98.7448 185.349 98.1581 185.088 97.4008 185.088C96.6434 185.088 96.0568 185.349 95.6408 185.872C95.2248 186.384 95.0168 187.115 95.0168 188.064C95.0168 189.024 95.2194 189.76 95.6248 190.272C96.0408 190.784 96.6328 191.04 97.4008 191.04ZM108.566 184.448C108.683 184.192 108.87 184.064 109.126 184.064C109.286 184.064 109.43 184.117 109.558 184.224C109.686 184.331 109.75 184.464 109.75 184.624C109.75 184.72 109.729 184.805 109.686 184.88L105.19 194.576C105.137 194.693 105.057 194.784 104.95 194.848C104.854 194.912 104.753 194.944 104.646 194.944C104.486 194.944 104.342 194.891 104.214 194.784C104.097 194.688 104.038 194.56 104.038 194.4C104.038 194.315 104.059 194.229 104.102 194.144L105.222 191.728L102.054 184.88C102.011 184.805 101.99 184.725 101.99 184.64C101.99 184.48 102.059 184.341 102.198 184.224C102.347 184.107 102.507 184.048 102.678 184.048C102.785 184.048 102.886 184.08 102.982 184.144C103.089 184.208 103.169 184.299 103.222 184.416L105.894 190.416L108.566 184.448ZM114.212 184.016C116.164 184.016 117.14 185.04 117.14 187.088V191.44C117.14 191.632 117.081 191.787 116.964 191.904C116.857 192.021 116.708 192.08 116.516 192.08C116.324 192.08 116.169 192.021 116.052 191.904C115.935 191.787 115.876 191.632 115.876 191.44V190.672C115.673 191.131 115.364 191.488 114.948 191.744C114.532 191.989 114.052 192.112 113.508 192.112C113.007 192.112 112.543 192.011 112.116 191.808C111.7 191.605 111.369 191.323 111.124 190.96C110.879 190.597 110.756 190.197 110.756 189.76C110.756 189.173 110.905 188.72 111.204 188.4C111.503 188.069 111.993 187.835 112.676 187.696C113.359 187.547 114.308 187.472 115.524 187.472H115.876V186.944C115.876 186.304 115.743 185.835 115.476 185.536C115.22 185.237 114.799 185.088 114.212 185.088C113.487 185.088 112.751 185.285 112.004 185.68C111.716 185.861 111.513 185.952 111.396 185.952C111.268 185.952 111.161 185.904 111.076 185.808C110.991 185.712 110.948 185.589 110.948 185.44C110.948 185.291 110.991 185.163 111.076 185.056C111.172 184.939 111.321 184.821 111.524 184.704C111.897 184.491 112.319 184.325 112.788 184.208C113.268 184.08 113.743 184.016 114.212 184.016ZM113.684 191.088C114.324 191.088 114.847 190.875 115.252 190.448C115.668 190.011 115.876 189.451 115.876 188.768V188.304H115.588C114.649 188.304 113.935 188.347 113.444 188.432C112.953 188.507 112.601 188.64 112.388 188.832C112.185 189.013 112.084 189.285 112.084 189.648C112.084 190.064 112.233 190.411 112.532 190.688C112.841 190.955 113.225 191.088 113.684 191.088ZM120.169 192.08C119.977 192.08 119.817 192.027 119.689 191.92C119.571 191.803 119.513 191.643 119.513 191.44V181.28C119.513 181.077 119.571 180.923 119.689 180.816C119.817 180.699 119.977 180.64 120.169 180.64C120.35 180.64 120.499 180.699 120.617 180.816C120.745 180.923 120.809 181.077 120.809 181.28V191.44C120.809 191.643 120.745 191.803 120.617 191.92C120.499 192.027 120.35 192.08 120.169 192.08ZM136.156 191.184C136.231 191.301 136.268 191.424 136.268 191.552C136.268 191.712 136.204 191.845 136.076 191.952C135.959 192.048 135.82 192.096 135.66 192.096C135.415 192.096 135.223 191.989 135.084 191.776L132.94 188.384C132.663 187.947 132.375 187.648 132.076 187.488C131.778 187.317 131.372 187.232 130.86 187.232H128.844V191.408C128.844 191.611 128.786 191.776 128.668 191.904C128.551 192.021 128.396 192.08 128.204 192.08C128.002 192.08 127.842 192.021 127.724 191.904C127.607 191.776 127.548 191.611 127.548 191.408V181.36C127.548 181.168 127.607 181.013 127.724 180.896C127.852 180.779 128.018 180.72 128.22 180.72H132.188C133.415 180.72 134.348 180.992 134.988 181.536C135.639 182.08 135.964 182.88 135.964 183.936C135.964 184.832 135.703 185.552 135.18 186.096C134.668 186.64 133.932 186.971 132.972 187.088C133.239 187.173 133.479 187.312 133.692 187.504C133.906 187.696 134.119 187.963 134.332 188.304L136.156 191.184ZM132.076 186.144C132.951 186.144 133.602 185.963 134.028 185.6C134.466 185.237 134.684 184.688 134.684 183.952C134.684 183.227 134.471 182.688 134.044 182.336C133.618 181.984 132.962 181.808 132.076 181.808H128.844V186.144H132.076ZM144.357 190.192C144.474 190.192 144.576 190.24 144.661 190.336C144.746 190.432 144.789 190.555 144.789 190.704C144.789 190.971 144.602 191.216 144.229 191.44C143.845 191.664 143.44 191.835 143.013 191.952C142.586 192.059 142.17 192.112 141.765 192.112C140.56 192.112 139.605 191.755 138.901 191.04C138.208 190.325 137.861 189.339 137.861 188.08C137.861 187.28 138.016 186.576 138.325 185.968C138.634 185.349 139.066 184.869 139.621 184.528C140.186 184.187 140.826 184.016 141.541 184.016C142.554 184.016 143.36 184.347 143.957 185.008C144.554 185.669 144.853 186.565 144.853 187.696C144.853 187.909 144.81 188.064 144.725 188.16C144.64 188.256 144.501 188.304 144.309 188.304H139.157C139.253 190.139 140.122 191.056 141.765 191.056C142.181 191.056 142.538 191.003 142.837 190.896C143.136 190.779 143.456 190.624 143.797 190.432C144.074 190.272 144.261 190.192 144.357 190.192ZM141.557 185.024C140.874 185.024 140.325 185.237 139.909 185.664C139.504 186.091 139.264 186.693 139.189 187.472H143.717C143.696 186.683 143.498 186.08 143.125 185.664C142.752 185.237 142.229 185.024 141.557 185.024ZM153.019 180.64C153.221 180.64 153.381 180.699 153.499 180.816C153.616 180.933 153.675 181.083 153.675 181.264V191.44C153.675 191.632 153.616 191.787 153.499 191.904C153.381 192.021 153.221 192.08 153.019 192.08C152.816 192.08 152.656 192.021 152.539 191.904C152.432 191.787 152.379 191.632 152.379 191.44V190.576C152.144 191.067 151.797 191.445 151.339 191.712C150.891 191.979 150.363 192.112 149.755 192.112C149.072 192.112 148.469 191.941 147.947 191.6C147.424 191.259 147.019 190.784 146.731 190.176C146.443 189.557 146.299 188.843 146.299 188.032C146.299 187.232 146.443 186.528 146.731 185.92C147.019 185.312 147.424 184.843 147.947 184.512C148.469 184.181 149.072 184.016 149.755 184.016C150.363 184.016 150.891 184.149 151.339 184.416C151.797 184.683 152.144 185.061 152.379 185.552V181.264C152.379 181.072 152.432 180.923 152.539 180.816C152.656 180.699 152.816 180.64 153.019 180.64ZM150.011 191.04C150.768 191.04 151.349 190.784 151.755 190.272C152.171 189.749 152.379 189.013 152.379 188.064C152.379 187.115 152.171 186.384 151.755 185.872C151.349 185.36 150.768 185.104 150.011 185.104C149.253 185.104 148.661 185.36 148.235 185.872C147.819 186.384 147.611 187.104 147.611 188.032C147.611 188.981 147.819 189.723 148.235 190.256C148.661 190.779 149.253 191.04 150.011 191.04ZM92.096 202.64C92.2987 202.64 92.4533 202.704 92.56 202.832C92.6773 202.949 92.736 203.109 92.736 203.312V213.408C92.736 213.611 92.6773 213.776 92.56 213.904C92.4533 214.021 92.2987 214.08 92.096 214.08C91.8933 214.08 91.7333 214.021 91.616 213.904C91.4987 213.776 91.44 213.611 91.44 213.408V208.832H84.688V213.408C84.688 213.611 84.6293 213.776 84.512 213.904C84.3947 214.021 84.2347 214.08 84.032 214.08C83.8293 214.08 83.6693 214.021 83.552 213.904C83.4453 213.776 83.392 213.611 83.392 213.408V203.312C83.392 203.109 83.4453 202.949 83.552 202.832C83.6693 202.704 83.8293 202.64 84.032 202.64C84.2347 202.64 84.3947 202.704 84.512 202.832C84.6293 202.949 84.688 203.109 84.688 203.312V207.712H91.44V203.312C91.44 203.109 91.4987 202.949 91.616 202.832C91.7333 202.704 91.8933 202.64 92.096 202.64ZM101.357 212.192C101.474 212.192 101.576 212.24 101.661 212.336C101.746 212.432 101.789 212.555 101.789 212.704C101.789 212.971 101.602 213.216 101.229 213.44C100.845 213.664 100.44 213.835 100.013 213.952C99.5863 214.059 99.1703 214.112 98.765 214.112C97.5597 214.112 96.605 213.755 95.901 213.04C95.2077 212.325 94.861 211.339 94.861 210.08C94.861 209.28 95.0157 208.576 95.325 207.968C95.6343 207.349 96.0663 206.869 96.621 206.528C97.1863 206.187 97.8263 206.016 98.541 206.016C99.5543 206.016 100.36 206.347 100.957 207.008C101.554 207.669 101.853 208.565 101.853 209.696C101.853 209.909 101.81 210.064 101.725 210.16C101.64 210.256 101.501 210.304 101.309 210.304H96.157C96.253 212.139 97.1223 213.056 98.765 213.056C99.181 213.056 99.5383 213.003 99.837 212.896C100.136 212.779 100.456 212.624 100.797 212.432C101.074 212.272 101.261 212.192 101.357 212.192ZM98.557 207.024C97.8743 207.024 97.325 207.237 96.909 207.664C96.5037 208.091 96.2637 208.693 96.189 209.472H100.717C100.696 208.683 100.498 208.08 100.125 207.664C99.7517 207.237 99.229 207.024 98.557 207.024ZM110.053 213.008C110.181 213.136 110.245 213.291 110.245 213.472C110.245 213.632 110.186 213.771 110.069 213.888C109.952 214.005 109.813 214.064 109.653 214.064C109.482 214.064 109.328 213.989 109.189 213.84L106.597 210.88L104.021 213.84C103.882 213.989 103.728 214.064 103.557 214.064C103.397 214.064 103.253 214.005 103.125 213.888C103.008 213.771 102.949 213.627 102.949 213.456C102.949 213.296 103.013 213.147 103.141 213.008L105.797 210.016L103.253 207.12C103.125 206.971 103.061 206.821 103.061 206.672C103.061 206.501 103.12 206.357 103.237 206.24C103.365 206.123 103.504 206.064 103.653 206.064C103.824 206.064 103.978 206.139 104.117 206.288L106.597 209.136L109.077 206.288C109.216 206.139 109.37 206.064 109.541 206.064C109.701 206.064 109.84 206.123 109.957 206.24C110.074 206.357 110.133 206.496 110.133 206.656C110.133 206.837 110.069 206.992 109.941 207.12L107.397 210.016L110.053 213.008ZM122.347 206.448L121.627 210.144H123.195C123.334 210.144 123.451 210.192 123.547 210.288C123.654 210.384 123.707 210.501 123.707 210.64C123.707 210.768 123.659 210.875 123.563 210.96C123.467 211.045 123.345 211.088 123.195 211.088H121.451L120.939 213.696C120.918 213.813 120.859 213.909 120.763 213.984C120.678 214.048 120.577 214.08 120.459 214.08C120.31 214.08 120.187 214.032 120.091 213.936C119.995 213.84 119.947 213.723 119.947 213.584C119.947 213.52 119.953 213.472 119.963 213.44L120.427 211.088H117.867L117.355 213.696C117.345 213.803 117.291 213.893 117.195 213.968C117.11 214.043 117.009 214.08 116.891 214.08C116.753 214.08 116.635 214.032 116.539 213.936C116.443 213.84 116.395 213.723 116.395 213.584C116.395 213.52 116.401 213.472 116.411 213.44L116.875 211.088H115.803C115.654 211.088 115.531 211.04 115.435 210.944C115.339 210.848 115.291 210.731 115.291 210.592C115.291 210.464 115.339 210.357 115.435 210.272C115.531 210.187 115.654 210.144 115.803 210.144H117.051L117.771 206.448H116.123C115.985 206.448 115.862 206.4 115.755 206.304C115.659 206.208 115.611 206.091 115.611 205.952C115.611 205.824 115.659 205.717 115.755 205.632C115.851 205.547 115.974 205.504 116.123 205.504H117.947L118.443 202.976C118.465 202.859 118.518 202.768 118.603 202.704C118.699 202.629 118.806 202.592 118.923 202.592C119.073 202.592 119.19 202.64 119.275 202.736C119.371 202.821 119.419 202.939 119.419 203.088C119.419 203.152 119.414 203.2 119.403 203.232L118.955 205.504H121.515L122.011 202.976C122.022 202.869 122.075 202.779 122.171 202.704C122.267 202.629 122.374 202.592 122.491 202.592C122.641 202.592 122.758 202.64 122.843 202.736C122.939 202.821 122.987 202.939 122.987 203.088C122.987 203.152 122.982 203.2 122.971 203.232L122.523 205.504H123.515C123.665 205.504 123.787 205.552 123.883 205.648C123.979 205.744 124.027 205.861 124.027 206C124.027 206.128 123.979 206.235 123.883 206.32C123.787 206.405 123.665 206.448 123.515 206.448H122.347ZM120.603 210.144L121.339 206.448H118.779L118.043 210.144H120.603ZM128.901 202.592C130.266 202.592 131.317 203.067 132.053 204.016C132.8 204.965 133.173 206.32 133.173 208.08C133.173 209.339 133.002 210.421 132.661 211.328C132.32 212.235 131.824 212.928 131.173 213.408C130.522 213.888 129.749 214.128 128.853 214.128C128.245 214.128 127.637 214.011 127.029 213.776C126.432 213.541 125.92 213.221 125.493 212.816C125.312 212.645 125.221 212.464 125.221 212.272C125.221 212.112 125.264 211.979 125.349 211.872C125.434 211.765 125.536 211.712 125.653 211.712C125.802 211.712 125.957 211.771 126.117 211.888C127.045 212.645 127.946 213.024 128.821 213.024C129.77 213.024 130.512 212.592 131.045 211.728C131.578 210.864 131.845 209.653 131.845 208.096V207.888C131.6 208.485 131.2 208.955 130.645 209.296C130.101 209.637 129.482 209.808 128.789 209.808C128.106 209.808 127.498 209.659 126.965 209.36C126.432 209.061 126.016 208.64 125.717 208.096C125.418 207.552 125.269 206.928 125.269 206.224C125.269 205.531 125.424 204.907 125.733 204.352C126.042 203.797 126.474 203.365 127.029 203.056C127.584 202.747 128.208 202.592 128.901 202.592ZM128.981 208.704C129.717 208.704 130.314 208.475 130.773 208.016C131.242 207.547 131.477 206.944 131.477 206.208C131.477 205.461 131.242 204.859 130.773 204.4C130.314 203.931 129.712 203.696 128.965 203.696C128.24 203.696 127.658 203.925 127.221 204.384C126.784 204.843 126.565 205.451 126.565 206.208C126.565 206.965 126.784 207.573 127.221 208.032C127.669 208.48 128.256 208.704 128.981 208.704ZM140.223 214.128C139.156 214.128 138.234 213.899 137.455 213.44C136.676 212.971 136.074 212.304 135.647 211.44C135.231 210.565 135.023 209.536 135.023 208.352C135.023 207.179 135.231 206.16 135.647 205.296C136.074 204.421 136.676 203.755 137.455 203.296C138.234 202.827 139.156 202.592 140.223 202.592C140.938 202.592 141.61 202.709 142.239 202.944C142.879 203.168 143.434 203.493 143.903 203.92C144.074 204.08 144.159 204.267 144.159 204.48C144.159 204.629 144.116 204.763 144.031 204.88C143.946 204.987 143.844 205.04 143.727 205.04C143.599 205.04 143.444 204.981 143.263 204.864C142.719 204.437 142.223 204.139 141.775 203.968C141.338 203.797 140.831 203.712 140.255 203.712C139.018 203.712 138.063 204.117 137.391 204.928C136.73 205.728 136.399 206.869 136.399 208.352C136.399 209.845 136.73 210.997 137.391 211.808C138.063 212.608 139.018 213.008 140.255 213.008C140.82 213.008 141.327 212.923 141.775 212.752C142.223 212.581 142.719 212.283 143.263 211.856C143.444 211.739 143.599 211.68 143.727 211.68C143.844 211.68 143.946 211.733 144.031 211.84C144.116 211.947 144.159 212.08 144.159 212.24C144.159 212.453 144.074 212.64 143.903 212.8C143.434 213.227 142.879 213.557 142.239 213.792C141.61 214.016 140.938 214.128 140.223 214.128ZM151.179 208.208C151.862 208.4 152.379 208.731 152.731 209.2C153.094 209.669 153.275 210.251 153.275 210.944C153.275 211.925 152.944 212.699 152.283 213.264C151.622 213.829 150.72 214.112 149.579 214.112C148.886 214.112 148.219 213.995 147.579 213.76C146.95 213.525 146.416 213.205 145.979 212.8C145.808 212.64 145.723 212.459 145.723 212.256C145.723 212.096 145.766 211.963 145.851 211.856C145.936 211.749 146.038 211.696 146.155 211.696C146.304 211.696 146.454 211.755 146.603 211.872C147.094 212.267 147.574 212.555 148.043 212.736C148.512 212.917 149.019 213.008 149.563 213.008C150.352 213.008 150.95 212.827 151.355 212.464C151.771 212.101 151.979 211.579 151.979 210.896C151.979 209.52 151.115 208.832 149.387 208.832H148.539C148.368 208.832 148.23 208.779 148.123 208.672C148.027 208.555 147.979 208.421 147.979 208.272C147.979 208.123 148.027 207.995 148.123 207.888C148.23 207.781 148.368 207.728 148.539 207.728H149.131C149.963 207.728 150.603 207.547 151.051 207.184C151.499 206.811 151.723 206.277 151.723 205.584C151.723 204.976 151.542 204.512 151.179 204.192C150.816 203.861 150.304 203.696 149.643 203.696C149.142 203.696 148.656 203.792 148.187 203.984C147.718 204.165 147.248 204.448 146.779 204.832C146.63 204.949 146.48 205.008 146.331 205.008C146.214 205.008 146.112 204.955 146.027 204.848C145.942 204.741 145.899 204.608 145.899 204.448C145.899 204.245 145.984 204.064 146.155 203.904C146.592 203.499 147.12 203.179 147.739 202.944C148.368 202.709 149.014 202.592 149.675 202.592C150.699 202.592 151.51 202.853 152.107 203.376C152.715 203.888 153.019 204.581 153.019 205.456C153.019 206.107 152.854 206.677 152.523 207.168C152.203 207.648 151.755 207.995 151.179 208.208ZM160.645 214.128C159.578 214.128 158.655 213.899 157.877 213.44C157.098 212.971 156.495 212.304 156.069 211.44C155.653 210.565 155.445 209.536 155.445 208.352C155.445 207.179 155.653 206.16 156.069 205.296C156.495 204.421 157.098 203.755 157.877 203.296C158.655 202.827 159.578 202.592 160.645 202.592C161.359 202.592 162.031 202.709 162.661 202.944C163.301 203.168 163.855 203.493 164.325 203.92C164.495 204.08 164.581 204.267 164.581 204.48C164.581 204.629 164.538 204.763 164.453 204.88C164.367 204.987 164.266 205.04 164.149 205.04C164.021 205.04 163.866 204.981 163.685 204.864C163.141 204.437 162.645 204.139 162.197 203.968C161.759 203.797 161.253 203.712 160.677 203.712C159.439 203.712 158.485 204.117 157.813 204.928C157.151 205.728 156.821 206.869 156.821 208.352C156.821 209.845 157.151 210.997 157.813 211.808C158.485 212.608 159.439 213.008 160.677 213.008C161.242 213.008 161.749 212.923 162.197 212.752C162.645 212.581 163.141 212.283 163.685 211.856C163.866 211.739 164.021 211.68 164.149 211.68C164.266 211.68 164.367 211.733 164.453 211.84C164.538 211.947 164.581 212.08 164.581 212.24C164.581 212.453 164.495 212.64 164.325 212.8C163.855 213.227 163.301 213.557 162.661 213.792C162.031 214.016 161.359 214.128 160.645 214.128ZM173.169 212.896C173.361 212.896 173.51 212.944 173.617 213.04C173.724 213.136 173.777 213.269 173.777 213.44C173.777 213.621 173.724 213.76 173.617 213.856C173.521 213.952 173.372 214 173.169 214H167.873C167.67 214 167.516 213.952 167.409 213.856C167.313 213.76 167.265 213.621 167.265 213.44C167.265 213.269 167.318 213.136 167.425 213.04C167.532 212.944 167.681 212.896 167.873 212.896H169.857V204.32L168.113 205.456C168.028 205.509 167.942 205.536 167.857 205.536C167.708 205.536 167.574 205.467 167.457 205.328C167.35 205.189 167.297 205.04 167.297 204.88C167.297 204.656 167.382 204.496 167.553 204.4L169.985 202.816C170.166 202.699 170.353 202.64 170.545 202.64C170.726 202.64 170.876 202.699 170.993 202.816C171.11 202.933 171.169 203.099 171.169 203.312V212.896H173.169ZM176.955 214C176.752 214 176.587 213.941 176.459 213.824C176.341 213.707 176.283 213.552 176.283 213.36V203.36C176.283 203.168 176.341 203.013 176.459 202.896C176.587 202.779 176.752 202.72 176.955 202.72H182.939C183.131 202.72 183.28 202.768 183.387 202.864C183.493 202.96 183.547 203.093 183.547 203.264C183.547 203.435 183.493 203.568 183.387 203.664C183.28 203.76 183.131 203.808 182.939 203.808H177.579V207.728H182.619C182.811 207.728 182.96 207.776 183.067 207.872C183.173 207.968 183.227 208.101 183.227 208.272C183.227 208.443 183.173 208.576 183.067 208.672C182.96 208.768 182.811 208.816 182.619 208.816H177.579V212.912H182.939C183.131 212.912 183.28 212.96 183.387 213.056C183.493 213.141 183.547 213.275 183.547 213.456C183.547 213.627 183.493 213.76 183.387 213.856C183.28 213.952 183.131 214 182.939 214H176.955Z" fill="black"/>
<path d="M90.792 266.208C91.4427 266.379 91.944 266.699 92.296 267.168C92.6587 267.637 92.84 268.224 92.84 268.928C92.84 269.92 92.5147 270.683 91.864 271.216C91.2133 271.739 90.2907 272 89.096 272H85.064C84.8613 272 84.696 271.941 84.568 271.824C84.4507 271.707 84.392 271.552 84.392 271.36V261.36C84.392 261.168 84.4507 261.013 84.568 260.896C84.696 260.779 84.8613 260.72 85.064 260.72H88.92C90.0827 260.72 90.984 260.976 91.624 261.488C92.264 262 92.584 262.725 92.584 263.664C92.584 264.272 92.424 264.795 92.104 265.232C91.7947 265.669 91.3573 265.995 90.792 266.208ZM85.688 265.728H88.728C89.5707 265.728 90.2053 265.557 90.632 265.216C91.0693 264.875 91.288 264.379 91.288 263.728C91.288 262.448 90.4347 261.808 88.728 261.808H85.688V265.728ZM88.968 270.912C89.8533 270.912 90.504 270.752 90.92 270.432C91.3467 270.101 91.56 269.589 91.56 268.896C91.56 267.509 90.696 266.816 88.968 266.816H85.688V270.912H88.968ZM101.013 270.192C101.131 270.192 101.232 270.24 101.317 270.336C101.403 270.432 101.445 270.555 101.445 270.704C101.445 270.971 101.259 271.216 100.885 271.44C100.501 271.664 100.096 271.835 99.6693 271.952C99.2426 272.059 98.8266 272.112 98.4213 272.112C97.2159 272.112 96.2613 271.755 95.5573 271.04C94.8639 270.325 94.5173 269.339 94.5173 268.08C94.5173 267.28 94.6719 266.576 94.9813 265.968C95.2906 265.349 95.7226 264.869 96.2773 264.528C96.8426 264.187 97.4826 264.016 98.1973 264.016C99.2106 264.016 100.016 264.347 100.613 265.008C101.211 265.669 101.509 266.565 101.509 267.696C101.509 267.909 101.467 268.064 101.381 268.16C101.296 268.256 101.157 268.304 100.965 268.304H95.8133C95.9093 270.139 96.7786 271.056 98.4213 271.056C98.8373 271.056 99.1946 271.003 99.4933 270.896C99.7919 270.779 100.112 270.624 100.453 270.432C100.731 270.272 100.917 270.192 101.013 270.192ZM98.2133 265.024C97.5306 265.024 96.9813 265.237 96.5653 265.664C96.1599 266.091 95.9199 266.693 95.8453 267.472H100.373C100.352 266.683 100.155 266.08 99.7813 265.664C99.4079 265.237 98.8853 265.024 98.2133 265.024ZM106.972 271.056C107.345 271.088 107.532 271.259 107.532 271.568C107.532 271.749 107.463 271.888 107.324 271.984C107.196 272.069 106.999 272.101 106.732 272.08L106.3 272.048C105.447 271.984 104.817 271.728 104.412 271.28C104.007 270.832 103.804 270.155 103.804 269.248V265.232H102.732C102.551 265.232 102.407 265.189 102.3 265.104C102.204 265.008 102.156 264.885 102.156 264.736C102.156 264.576 102.204 264.448 102.3 264.352C102.407 264.256 102.551 264.208 102.732 264.208H103.804V262.4C103.804 262.197 103.863 262.043 103.98 261.936C104.097 261.819 104.257 261.76 104.46 261.76C104.652 261.76 104.807 261.819 104.924 261.936C105.041 262.043 105.1 262.197 105.1 262.4V264.208H106.876C107.047 264.208 107.18 264.256 107.276 264.352C107.383 264.448 107.436 264.576 107.436 264.736C107.436 264.885 107.383 265.008 107.276 265.104C107.18 265.189 107.047 265.232 106.876 265.232H105.1V269.312C105.1 269.899 105.217 270.325 105.452 270.592C105.697 270.848 106.06 270.992 106.54 271.024L106.972 271.056ZM112.456 271.056C112.83 271.088 113.016 271.259 113.016 271.568C113.016 271.749 112.947 271.888 112.808 271.984C112.68 272.069 112.483 272.101 112.216 272.08L111.784 272.048C110.931 271.984 110.302 271.728 109.896 271.28C109.491 270.832 109.288 270.155 109.288 269.248V265.232H108.216C108.035 265.232 107.891 265.189 107.784 265.104C107.688 265.008 107.64 264.885 107.64 264.736C107.64 264.576 107.688 264.448 107.784 264.352C107.891 264.256 108.035 264.208 108.216 264.208H109.288V262.4C109.288 262.197 109.347 262.043 109.464 261.936C109.582 261.819 109.742 261.76 109.944 261.76C110.136 261.76 110.291 261.819 110.408 261.936C110.526 262.043 110.584 262.197 110.584 262.4V264.208H112.36C112.531 264.208 112.664 264.256 112.76 264.352C112.867 264.448 112.92 264.576 112.92 264.736C112.92 264.885 112.867 265.008 112.76 265.104C112.664 265.189 112.531 265.232 112.36 265.232H110.584V269.312C110.584 269.899 110.702 270.325 110.936 270.592C111.182 270.848 111.544 270.992 112.024 271.024L112.456 271.056ZM120.326 270.192C120.443 270.192 120.544 270.24 120.63 270.336C120.715 270.432 120.758 270.555 120.758 270.704C120.758 270.971 120.571 271.216 120.198 271.44C119.814 271.664 119.408 271.835 118.982 271.952C118.555 272.059 118.139 272.112 117.734 272.112C116.528 272.112 115.574 271.755 114.87 271.04C114.176 270.325 113.83 269.339 113.83 268.08C113.83 267.28 113.984 266.576 114.294 265.968C114.603 265.349 115.035 264.869 115.59 264.528C116.155 264.187 116.795 264.016 117.51 264.016C118.523 264.016 119.328 264.347 119.926 265.008C120.523 265.669 120.822 266.565 120.822 267.696C120.822 267.909 120.779 268.064 120.694 268.16C120.608 268.256 120.47 268.304 120.278 268.304H115.126C115.222 270.139 116.091 271.056 117.734 271.056C118.15 271.056 118.507 271.003 118.806 270.896C119.104 270.779 119.424 270.624 119.766 270.432C120.043 270.272 120.23 270.192 120.326 270.192ZM117.526 265.024C116.843 265.024 116.294 265.237 115.878 265.664C115.472 266.091 115.232 266.693 115.158 267.472H119.686C119.664 266.683 119.467 266.08 119.094 265.664C118.72 265.237 118.198 265.024 117.526 265.024ZM126.587 264.048C127.035 264.016 127.259 264.197 127.259 264.592C127.259 264.763 127.211 264.901 127.115 265.008C127.019 265.104 126.854 265.163 126.619 265.184L126.139 265.232C125.425 265.296 124.891 265.552 124.539 266C124.198 266.437 124.027 266.955 124.027 267.552V271.44C124.027 271.653 123.969 271.813 123.851 271.92C123.734 272.027 123.579 272.08 123.387 272.08C123.195 272.08 123.035 272.027 122.907 271.92C122.79 271.803 122.731 271.643 122.731 271.44V264.688C122.731 264.485 122.795 264.331 122.923 264.224C123.051 264.107 123.206 264.048 123.387 264.048C123.558 264.048 123.702 264.107 123.819 264.224C123.937 264.331 123.995 264.48 123.995 264.672V265.568C124.219 265.099 124.534 264.741 124.939 264.496C125.355 264.251 125.83 264.107 126.363 264.064L126.587 264.048ZM136.097 271.056C136.47 271.088 136.657 271.259 136.657 271.568C136.657 271.749 136.588 271.888 136.449 271.984C136.321 272.069 136.124 272.101 135.857 272.08L135.425 272.048C134.572 271.984 133.942 271.728 133.537 271.28C133.132 270.832 132.929 270.155 132.929 269.248V265.232H131.857C131.676 265.232 131.532 265.189 131.425 265.104C131.329 265.008 131.281 264.885 131.281 264.736C131.281 264.576 131.329 264.448 131.425 264.352C131.532 264.256 131.676 264.208 131.857 264.208H132.929V262.4C132.929 262.197 132.988 262.043 133.105 261.936C133.222 261.819 133.382 261.76 133.585 261.76C133.777 261.76 133.932 261.819 134.049 261.936C134.166 262.043 134.225 262.197 134.225 262.4V264.208H136.001C136.172 264.208 136.305 264.256 136.401 264.352C136.508 264.448 136.561 264.576 136.561 264.736C136.561 264.885 136.508 265.008 136.401 265.104C136.305 265.189 136.172 265.232 136.001 265.232H134.225V269.312C134.225 269.899 134.342 270.325 134.577 270.592C134.822 270.848 135.185 270.992 135.665 271.024L136.097 271.056ZM141.87 264.016C142.788 264.016 143.481 264.277 143.95 264.8C144.42 265.312 144.654 266.08 144.654 267.104V271.44C144.654 271.643 144.596 271.803 144.478 271.92C144.361 272.027 144.206 272.08 144.014 272.08C143.812 272.08 143.652 272.027 143.534 271.92C143.417 271.803 143.358 271.643 143.358 271.44V267.136C143.358 266.443 143.214 265.931 142.926 265.6C142.649 265.269 142.201 265.104 141.582 265.104C140.868 265.104 140.297 265.323 139.87 265.76C139.444 266.197 139.23 266.789 139.23 267.536V271.44C139.23 271.643 139.172 271.803 139.054 271.92C138.948 272.027 138.793 272.08 138.59 272.08C138.388 272.08 138.228 272.027 138.11 271.92C137.993 271.803 137.934 271.643 137.934 271.44V261.264C137.934 261.083 137.993 260.933 138.11 260.816C138.238 260.699 138.398 260.64 138.59 260.64C138.793 260.64 138.948 260.699 139.054 260.816C139.172 260.923 139.23 261.072 139.23 261.264V265.456C139.486 264.987 139.844 264.629 140.302 264.384C140.761 264.139 141.284 264.016 141.87 264.016ZM150.212 264.016C152.164 264.016 153.14 265.04 153.14 267.088V271.44C153.14 271.632 153.081 271.787 152.964 271.904C152.857 272.021 152.708 272.08 152.516 272.08C152.324 272.08 152.169 272.021 152.052 271.904C151.935 271.787 151.876 271.632 151.876 271.44V270.672C151.673 271.131 151.364 271.488 150.948 271.744C150.532 271.989 150.052 272.112 149.508 272.112C149.007 272.112 148.543 272.011 148.116 271.808C147.7 271.605 147.369 271.323 147.124 270.96C146.879 270.597 146.756 270.197 146.756 269.76C146.756 269.173 146.905 268.72 147.204 268.4C147.503 268.069 147.993 267.835 148.676 267.696C149.359 267.547 150.308 267.472 151.524 267.472H151.876V266.944C151.876 266.304 151.743 265.835 151.476 265.536C151.22 265.237 150.799 265.088 150.212 265.088C149.487 265.088 148.751 265.285 148.004 265.68C147.716 265.861 147.513 265.952 147.396 265.952C147.268 265.952 147.161 265.904 147.076 265.808C146.991 265.712 146.948 265.589 146.948 265.44C146.948 265.291 146.991 265.163 147.076 265.056C147.172 264.939 147.321 264.821 147.524 264.704C147.897 264.491 148.319 264.325 148.788 264.208C149.268 264.08 149.743 264.016 150.212 264.016ZM149.684 271.088C150.324 271.088 150.847 270.875 151.252 270.448C151.668 270.011 151.876 269.451 151.876 268.768V268.304H151.588C150.649 268.304 149.935 268.347 149.444 268.432C148.953 268.507 148.601 268.64 148.388 268.832C148.185 269.013 148.084 269.285 148.084 269.648C148.084 270.064 148.233 270.411 148.532 270.688C148.841 270.955 149.225 271.088 149.684 271.088ZM159.433 264.016C161.299 264.016 162.233 265.045 162.233 267.104V271.44C162.233 271.643 162.174 271.803 162.057 271.92C161.95 272.027 161.795 272.08 161.593 272.08C161.39 272.08 161.23 272.027 161.113 271.92C160.995 271.803 160.937 271.643 160.937 271.44V267.184C160.937 266.459 160.793 265.931 160.505 265.6C160.227 265.269 159.779 265.104 159.161 265.104C158.446 265.104 157.875 265.323 157.449 265.76C157.022 266.197 156.809 266.789 156.809 267.536V271.44C156.809 271.643 156.75 271.803 156.633 271.92C156.526 272.027 156.371 272.08 156.169 272.08C155.966 272.08 155.806 272.027 155.689 271.92C155.571 271.803 155.513 271.643 155.513 271.44V264.688C155.513 264.496 155.571 264.341 155.689 264.224C155.806 264.107 155.966 264.048 156.169 264.048C156.361 264.048 156.51 264.107 156.617 264.224C156.734 264.341 156.793 264.491 156.793 264.672V265.488C157.049 265.008 157.406 264.645 157.865 264.4C158.323 264.144 158.846 264.016 159.433 264.016ZM172.651 264.016C173.334 264.016 173.937 264.181 174.459 264.512C174.982 264.843 175.387 265.312 175.675 265.92C175.963 266.528 176.107 267.232 176.107 268.032C176.107 268.843 175.963 269.557 175.675 270.176C175.387 270.784 174.982 271.259 174.459 271.6C173.937 271.941 173.334 272.112 172.651 272.112C172.043 272.112 171.51 271.979 171.051 271.712C170.603 271.445 170.262 271.067 170.027 270.576V271.44C170.027 271.632 169.969 271.787 169.851 271.904C169.745 272.021 169.59 272.08 169.387 272.08C169.185 272.08 169.025 272.021 168.907 271.904C168.79 271.787 168.731 271.632 168.731 271.44V261.264C168.731 261.083 168.79 260.933 168.907 260.816C169.025 260.699 169.185 260.64 169.387 260.64C169.59 260.64 169.745 260.699 169.851 260.816C169.969 260.923 170.027 261.072 170.027 261.264V265.552C170.262 265.061 170.603 264.683 171.051 264.416C171.51 264.149 172.043 264.016 172.651 264.016ZM172.395 271.04C173.153 271.04 173.739 270.779 174.155 270.256C174.571 269.723 174.779 268.981 174.779 268.032C174.779 267.104 174.571 266.384 174.155 265.872C173.739 265.36 173.153 265.104 172.395 265.104C171.638 265.104 171.051 265.36 170.635 265.872C170.23 266.384 170.027 267.115 170.027 268.064C170.027 269.013 170.23 269.749 170.635 270.272C171.051 270.784 171.638 271.04 172.395 271.04ZM184.076 270.192C184.193 270.192 184.294 270.24 184.38 270.336C184.465 270.432 184.508 270.555 184.508 270.704C184.508 270.971 184.321 271.216 183.948 271.44C183.564 271.664 183.158 271.835 182.732 271.952C182.305 272.059 181.889 272.112 181.484 272.112C180.278 272.112 179.324 271.755 178.62 271.04C177.926 270.325 177.58 269.339 177.58 268.08C177.58 267.28 177.734 266.576 178.044 265.968C178.353 265.349 178.785 264.869 179.34 264.528C179.905 264.187 180.545 264.016 181.26 264.016C182.273 264.016 183.078 264.347 183.676 265.008C184.273 265.669 184.572 266.565 184.572 267.696C184.572 267.909 184.529 268.064 184.444 268.16C184.358 268.256 184.22 268.304 184.028 268.304H178.876C178.972 270.139 179.841 271.056 181.484 271.056C181.9 271.056 182.257 271.003 182.556 270.896C182.854 270.779 183.174 270.624 183.516 270.432C183.793 270.272 183.98 270.192 184.076 270.192ZM181.276 265.024C180.593 265.024 180.044 265.237 179.628 265.664C179.222 266.091 178.982 266.693 178.908 267.472H183.436C183.414 266.683 183.217 266.08 182.844 265.664C182.47 265.237 181.948 265.024 181.276 265.024ZM187.137 272.08C186.945 272.08 186.785 272.027 186.657 271.92C186.54 271.803 186.481 271.643 186.481 271.44V264.688C186.481 264.485 186.54 264.331 186.657 264.224C186.785 264.107 186.945 264.048 187.137 264.048C187.329 264.048 187.484 264.107 187.601 264.224C187.719 264.331 187.777 264.485 187.777 264.688V271.44C187.777 271.653 187.719 271.813 187.601 271.92C187.484 272.027 187.329 272.08 187.137 272.08ZM187.137 262.368C186.881 262.368 186.673 262.293 186.513 262.144C186.353 261.995 186.273 261.797 186.273 261.552C186.273 261.317 186.353 261.125 186.513 260.976C186.673 260.827 186.881 260.752 187.137 260.752C187.393 260.752 187.601 260.827 187.761 260.976C187.921 261.125 188.001 261.317 188.001 261.552C188.001 261.797 187.921 261.995 187.761 262.144C187.601 262.293 187.393 262.368 187.137 262.368ZM196.52 264.048C196.723 264.048 196.883 264.107 197 264.224C197.117 264.341 197.176 264.496 197.176 264.688V271.472C197.176 272.635 196.877 273.509 196.28 274.096C195.683 274.693 194.797 274.992 193.624 274.992C192.483 274.992 191.533 274.768 190.776 274.32C190.392 274.107 190.2 273.861 190.2 273.584C190.2 273.435 190.237 273.312 190.312 273.216C190.397 273.12 190.504 273.072 190.632 273.072C190.739 273.072 190.931 273.147 191.208 273.296C191.581 273.488 191.949 273.643 192.312 273.76C192.675 273.877 193.107 273.936 193.608 273.936C194.365 273.936 194.936 273.733 195.32 273.328C195.704 272.933 195.896 272.352 195.896 271.584V270.208C195.672 270.709 195.325 271.093 194.856 271.36C194.397 271.627 193.853 271.76 193.224 271.76C192.541 271.76 191.933 271.6 191.4 271.28C190.877 270.96 190.467 270.507 190.168 269.92C189.88 269.333 189.736 268.656 189.736 267.888C189.736 267.12 189.88 266.443 190.168 265.856C190.467 265.269 190.877 264.816 191.4 264.496C191.933 264.176 192.541 264.016 193.224 264.016C193.843 264.016 194.381 264.149 194.84 264.416C195.299 264.683 195.645 265.061 195.88 265.552V264.688C195.88 264.496 195.933 264.341 196.04 264.224C196.157 264.107 196.317 264.048 196.52 264.048ZM193.48 270.688C194.227 270.688 194.813 270.443 195.24 269.952C195.667 269.451 195.88 268.763 195.88 267.888C195.88 267.024 195.667 266.347 195.24 265.856C194.824 265.355 194.237 265.104 193.48 265.104C192.723 265.104 192.125 265.355 191.688 265.856C191.261 266.347 191.048 267.024 191.048 267.888C191.048 268.763 191.261 269.451 191.688 269.952C192.125 270.443 192.723 270.688 193.48 270.688ZM205.607 270.192C205.724 270.192 205.826 270.24 205.911 270.336C205.996 270.432 206.039 270.555 206.039 270.704C206.039 270.971 205.852 271.216 205.479 271.44C205.095 271.664 204.69 271.835 204.263 271.952C203.836 272.059 203.42 272.112 203.015 272.112C201.81 272.112 200.855 271.755 200.151 271.04C199.458 270.325 199.111 269.339 199.111 268.08C199.111 267.28 199.266 266.576 199.575 265.968C199.884 265.349 200.316 264.869 200.871 264.528C201.436 264.187 202.076 264.016 202.791 264.016C203.804 264.016 204.61 264.347 205.207 265.008C205.804 265.669 206.103 266.565 206.103 267.696C206.103 267.909 206.06 268.064 205.975 268.16C205.89 268.256 205.751 268.304 205.559 268.304H200.407C200.503 270.139 201.372 271.056 203.015 271.056C203.431 271.056 203.788 271.003 204.087 270.896C204.386 270.779 204.706 270.624 205.047 270.432C205.324 270.272 205.511 270.192 205.607 270.192ZM202.807 265.024C202.124 265.024 201.575 265.237 201.159 265.664C200.754 266.091 200.514 266.693 200.439 267.472H204.967C204.946 266.683 204.748 266.08 204.375 265.664C204.002 265.237 203.479 265.024 202.807 265.024ZM93.096 282.64C93.2987 282.64 93.4533 282.704 93.56 282.832C93.6773 282.949 93.736 283.109 93.736 283.312V293.408C93.736 293.611 93.6773 293.776 93.56 293.904C93.4533 294.021 93.2987 294.08 93.096 294.08C92.8933 294.08 92.7333 294.021 92.616 293.904C92.4987 293.776 92.44 293.611 92.44 293.408V288.832H85.688V293.408C85.688 293.611 85.6293 293.776 85.512 293.904C85.3947 294.021 85.2347 294.08 85.032 294.08C84.8293 294.08 84.6693 294.021 84.552 293.904C84.4453 293.776 84.392 293.611 84.392 293.408V283.312C84.392 283.109 84.4453 282.949 84.552 282.832C84.6693 282.704 84.8293 282.64 85.032 282.64C85.2347 282.64 85.3947 282.704 85.512 282.832C85.6293 282.949 85.688 283.109 85.688 283.312V287.712H92.44V283.312C92.44 283.109 92.4987 282.949 92.616 282.832C92.7333 282.704 92.8933 282.64 93.096 282.64ZM102.357 292.192C102.474 292.192 102.576 292.24 102.661 292.336C102.746 292.432 102.789 292.555 102.789 292.704C102.789 292.971 102.602 293.216 102.229 293.44C101.845 293.664 101.44 293.835 101.013 293.952C100.586 294.059 100.17 294.112 99.765 294.112C98.5597 294.112 97.605 293.755 96.901 293.04C96.2077 292.325 95.861 291.339 95.861 290.08C95.861 289.28 96.0157 288.576 96.325 287.968C96.6343 287.349 97.0663 286.869 97.621 286.528C98.1863 286.187 98.8263 286.016 99.541 286.016C100.554 286.016 101.36 286.347 101.957 287.008C102.554 287.669 102.853 288.565 102.853 289.696C102.853 289.909 102.81 290.064 102.725 290.16C102.64 290.256 102.501 290.304 102.309 290.304H97.157C97.253 292.139 98.1223 293.056 99.765 293.056C100.181 293.056 100.538 293.003 100.837 292.896C101.136 292.779 101.456 292.624 101.797 292.432C102.074 292.272 102.261 292.192 102.357 292.192ZM99.557 287.024C98.8743 287.024 98.325 287.237 97.909 287.664C97.5037 288.091 97.2637 288.693 97.189 289.472H101.717C101.696 288.683 101.498 288.08 101.125 287.664C100.752 287.237 100.229 287.024 99.557 287.024ZM111.053 293.008C111.181 293.136 111.245 293.291 111.245 293.472C111.245 293.632 111.186 293.771 111.069 293.888C110.952 294.005 110.813 294.064 110.653 294.064C110.482 294.064 110.328 293.989 110.189 293.84L107.597 290.88L105.021 293.84C104.882 293.989 104.728 294.064 104.557 294.064C104.397 294.064 104.253 294.005 104.125 293.888C104.008 293.771 103.949 293.627 103.949 293.456C103.949 293.296 104.013 293.147 104.141 293.008L106.797 290.016L104.253 287.12C104.125 286.971 104.061 286.821 104.061 286.672C104.061 286.501 104.12 286.357 104.237 286.24C104.365 286.123 104.504 286.064 104.653 286.064C104.824 286.064 104.978 286.139 105.117 286.288L107.597 289.136L110.077 286.288C110.216 286.139 110.37 286.064 110.541 286.064C110.701 286.064 110.84 286.123 110.957 286.24C111.074 286.357 111.133 286.496 111.133 286.656C111.133 286.837 111.069 286.992 110.941 287.12L108.397 290.016L111.053 293.008ZM123.347 286.448L122.627 290.144H124.195C124.334 290.144 124.451 290.192 124.547 290.288C124.654 290.384 124.707 290.501 124.707 290.64C124.707 290.768 124.659 290.875 124.563 290.96C124.467 291.045 124.345 291.088 124.195 291.088H122.451L121.939 293.696C121.918 293.813 121.859 293.909 121.763 293.984C121.678 294.048 121.577 294.08 121.459 294.08C121.31 294.08 121.187 294.032 121.091 293.936C120.995 293.84 120.947 293.723 120.947 293.584C120.947 293.52 120.953 293.472 120.963 293.44L121.427 291.088H118.867L118.355 293.696C118.345 293.803 118.291 293.893 118.195 293.968C118.11 294.043 118.009 294.08 117.891 294.08C117.753 294.08 117.635 294.032 117.539 293.936C117.443 293.84 117.395 293.723 117.395 293.584C117.395 293.52 117.401 293.472 117.411 293.44L117.875 291.088H116.803C116.654 291.088 116.531 291.04 116.435 290.944C116.339 290.848 116.291 290.731 116.291 290.592C116.291 290.464 116.339 290.357 116.435 290.272C116.531 290.187 116.654 290.144 116.803 290.144H118.051L118.771 286.448H117.123C116.985 286.448 116.862 286.4 116.755 286.304C116.659 286.208 116.611 286.091 116.611 285.952C116.611 285.824 116.659 285.717 116.755 285.632C116.851 285.547 116.974 285.504 117.123 285.504H118.947L119.443 282.976C119.465 282.859 119.518 282.768 119.603 282.704C119.699 282.629 119.806 282.592 119.923 282.592C120.073 282.592 120.19 282.64 120.275 282.736C120.371 282.821 120.419 282.939 120.419 283.088C120.419 283.152 120.414 283.2 120.403 283.232L119.955 285.504H122.515L123.011 282.976C123.022 282.869 123.075 282.779 123.171 282.704C123.267 282.629 123.374 282.592 123.491 282.592C123.641 282.592 123.758 282.64 123.843 282.736C123.939 282.821 123.987 282.939 123.987 283.088C123.987 283.152 123.982 283.2 123.971 283.232L123.523 285.504H124.515C124.665 285.504 124.787 285.552 124.883 285.648C124.979 285.744 125.027 285.861 125.027 286C125.027 286.128 124.979 286.235 124.883 286.32C124.787 286.405 124.665 286.448 124.515 286.448H123.347ZM121.603 290.144L122.339 286.448H119.779L119.043 290.144H121.603ZM127.517 294C127.314 294 127.149 293.941 127.021 293.824C126.904 293.707 126.845 293.552 126.845 293.36V283.36C126.845 283.168 126.904 283.013 127.021 282.896C127.149 282.779 127.314 282.72 127.517 282.72H130.637C132.44 282.72 133.832 283.211 134.813 284.192C135.805 285.163 136.301 286.549 136.301 288.352C136.301 290.155 135.805 291.547 134.813 292.528C133.821 293.509 132.429 294 130.637 294H127.517ZM130.557 292.88C133.48 292.88 134.941 291.371 134.941 288.352C134.941 285.344 133.48 283.84 130.557 283.84H128.157V292.88H130.557ZM144.033 288.208C144.695 288.411 145.207 288.757 145.569 289.248C145.943 289.739 146.129 290.325 146.129 291.008C146.129 291.979 145.777 292.741 145.073 293.296C144.369 293.84 143.372 294.112 142.081 294.112C140.791 294.112 139.793 293.84 139.089 293.296C138.385 292.741 138.033 291.979 138.033 291.008C138.033 290.315 138.22 289.723 138.593 289.232C138.967 288.741 139.484 288.4 140.145 288.208C139.58 287.995 139.132 287.659 138.801 287.2C138.471 286.741 138.305 286.203 138.305 285.584C138.305 284.667 138.636 283.941 139.297 283.408C139.969 282.864 140.897 282.592 142.081 282.592C143.265 282.592 144.188 282.864 144.849 283.408C145.521 283.941 145.857 284.667 145.857 285.584C145.857 286.203 145.692 286.747 145.361 287.216C145.031 287.675 144.588 288.005 144.033 288.208ZM139.601 285.68C139.601 286.341 139.809 286.848 140.225 287.2C140.652 287.552 141.271 287.728 142.081 287.728C142.892 287.728 143.505 287.552 143.921 287.2C144.348 286.848 144.561 286.341 144.561 285.68C144.561 285.051 144.348 284.56 143.921 284.208C143.505 283.856 142.892 283.68 142.081 283.68C141.271 283.68 140.652 283.856 140.225 284.208C139.809 284.56 139.601 285.051 139.601 285.68ZM142.081 293.024C143.916 293.024 144.833 292.325 144.833 290.928C144.833 289.531 143.916 288.832 142.081 288.832C140.247 288.832 139.329 289.531 139.329 290.928C139.329 292.325 140.247 293.024 142.081 293.024ZM157.979 293.248C158.022 293.333 158.043 293.424 158.043 293.52C158.043 293.68 157.979 293.813 157.851 293.92C157.734 294.027 157.59 294.08 157.419 294.08C157.152 294.08 156.966 293.952 156.859 293.696L155.723 291.104H149.691L148.539 293.696C148.432 293.952 148.246 294.08 147.979 294.08C147.808 294.08 147.659 294.027 147.531 293.92C147.403 293.803 147.339 293.664 147.339 293.504C147.339 293.419 147.36 293.333 147.403 293.248L151.979 283.072C152.043 282.923 152.139 282.811 152.267 282.736C152.395 282.661 152.534 282.624 152.683 282.624C152.843 282.624 152.987 282.667 153.115 282.752C153.243 282.827 153.339 282.933 153.403 283.072L157.979 293.248ZM150.171 290.016H155.243L152.699 284.272L150.171 290.016ZM167.028 290.464C167.22 290.464 167.369 290.517 167.476 290.624C167.583 290.72 167.636 290.848 167.636 291.008C167.636 291.371 167.433 291.552 167.028 291.552H165.828V293.408C165.828 293.621 165.764 293.787 165.636 293.904C165.519 294.021 165.364 294.08 165.172 294.08C164.98 294.08 164.825 294.021 164.708 293.904C164.591 293.787 164.532 293.621 164.532 293.408V291.552H159.796C159.604 291.552 159.455 291.499 159.348 291.392C159.241 291.285 159.188 291.152 159.188 290.992C159.188 290.843 159.247 290.677 159.364 290.496L164.596 282.928C164.745 282.736 164.937 282.64 165.172 282.64C165.353 282.64 165.508 282.699 165.636 282.816C165.764 282.933 165.828 283.099 165.828 283.312V290.464H167.028ZM160.676 290.464H164.532V284.912L160.676 290.464ZM173.326 286.928C174.04 286.928 174.664 287.077 175.198 287.376C175.742 287.675 176.158 288.096 176.446 288.64C176.744 289.173 176.894 289.792 176.894 290.496C176.894 291.2 176.734 291.829 176.414 292.384C176.094 292.928 175.646 293.355 175.07 293.664C174.504 293.963 173.848 294.112 173.102 294.112C172.44 294.112 171.795 293.995 171.166 293.76C170.536 293.525 170.003 293.205 169.566 292.8C169.395 292.64 169.31 292.459 169.31 292.256C169.31 292.096 169.352 291.963 169.438 291.856C169.523 291.749 169.624 291.696 169.742 291.696C169.891 291.696 170.04 291.755 170.19 291.872C170.659 292.256 171.128 292.544 171.598 292.736C172.067 292.917 172.558 293.008 173.07 293.008C173.859 293.008 174.478 292.784 174.926 292.336C175.374 291.888 175.598 291.28 175.598 290.512C175.598 289.765 175.374 289.163 174.926 288.704C174.478 288.245 173.875 288.016 173.118 288.016C172.147 288.016 171.358 288.389 170.75 289.136C170.6 289.296 170.419 289.376 170.206 289.376C170.056 289.376 169.928 289.333 169.822 289.248C169.726 289.152 169.678 289.024 169.678 288.864V283.344C169.678 283.163 169.731 283.013 169.838 282.896C169.955 282.779 170.115 282.72 170.318 282.72H175.95C176.142 282.72 176.291 282.768 176.398 282.864C176.515 282.96 176.574 283.093 176.574 283.264C176.574 283.435 176.515 283.568 176.398 283.664C176.291 283.76 176.142 283.808 175.95 283.808H170.974V287.824C171.272 287.536 171.619 287.317 172.014 287.168C172.419 287.008 172.856 286.928 173.326 286.928ZM182.136 282.592C183.501 282.592 184.552 283.067 185.288 284.016C186.034 284.965 186.408 286.32 186.408 288.08C186.408 289.339 186.237 290.421 185.896 291.328C185.554 292.235 185.058 292.928 184.408 293.408C183.757 293.888 182.984 294.128 182.088 294.128C181.48 294.128 180.872 294.011 180.264 293.776C179.666 293.541 179.154 293.221 178.728 292.816C178.546 292.645 178.456 292.464 178.456 292.272C178.456 292.112 178.498 291.979 178.584 291.872C178.669 291.765 178.77 291.712 178.888 291.712C179.037 291.712 179.192 291.771 179.352 291.888C180.28 292.645 181.181 293.024 182.056 293.024C183.005 293.024 183.746 292.592 184.28 291.728C184.813 290.864 185.08 289.653 185.08 288.096V287.888C184.834 288.485 184.434 288.955 183.88 289.296C183.336 289.637 182.717 289.808 182.024 289.808C181.341 289.808 180.733 289.659 180.2 289.36C179.666 289.061 179.25 288.64 178.952 288.096C178.653 287.552 178.504 286.928 178.504 286.224C178.504 285.531 178.658 284.907 178.968 284.352C179.277 283.797 179.709 283.365 180.264 283.056C180.818 282.747 181.442 282.592 182.136 282.592ZM182.216 288.704C182.952 288.704 183.549 288.475 184.008 288.016C184.477 287.547 184.712 286.944 184.712 286.208C184.712 285.461 184.477 284.859 184.008 284.4C183.549 283.931 182.946 283.696 182.2 283.696C181.474 283.696 180.893 283.925 180.456 284.384C180.018 284.843 179.799 285.451 179.799 286.208C179.799 286.965 180.018 287.573 180.456 288.032C180.904 288.48 181.49 288.704 182.216 288.704Z" fill="black"/>
</svg>
