<svg width="255" height="150" viewBox="0 0 255 150" fill="none" xmlns="http://www.w3.org/2000/svg">
<path d="M50.94 129.693C50.94 131.333 51.18 132.473 51.66 133.113C52.18 133.713 53.06 134.013 54.3 134.013V135.273C49.98 135.113 47.18 135.033 45.9 135.033C44.62 135.033 41.98 135.113 37.98 135.273V134.013C38.78 134.013 39.34 133.713 39.66 133.113C39.98 132.513 40.14 131.373 40.14 129.693V110.193C40.14 108.913 39.9 107.973 39.42 107.373C38.98 106.733 38.24 106.413 37.2 106.413C36.16 106.413 35.2 106.853 34.32 107.733C33.48 108.613 32.96 109.653 32.76 110.853C32.84 111.813 32.88 112.673 32.88 113.433V129.693C32.88 131.373 33.08 132.513 33.48 133.113C33.88 133.713 34.6 134.013 35.64 134.013V135.273C31.64 135.113 29.04 135.033 27.84 135.033C26.56 135.033 23.92 135.113 19.92 135.273V134.013C20.72 134.013 21.28 133.713 21.6 133.113C21.92 132.473 22.08 131.333 22.08 129.693V110.193C22.08 108.913 21.9 107.973 21.54 107.373C21.18 106.733 20.58 106.413 19.74 106.413C18.58 106.413 17.56 106.833 16.68 107.673C15.84 108.473 15.42 109.493 15.42 110.733V129.693C15.42 131.373 15.58 132.513 15.9 133.113C16.22 133.713 16.78 134.013 17.58 134.013V135.273C13.9 135.113 11.46 135.033 10.26 135.033C8.9 135.033 5.9 135.113 1.26 135.273V134.013C2.5 134.013 3.36 133.713 3.84 133.113C4.36 132.473 4.62 131.333 4.62 129.693V110.673C4.62 108.833 4.36 107.493 3.84 106.653C3.36 105.813 2.5 105.393 1.26 105.393V104.133C2.54 104.253 3.78 104.313 4.98 104.313C9.14 104.313 12.62 104.033 15.42 103.473V107.793C17.1 104.793 20.08 103.293 24.36 103.293C27.56 103.293 29.82 104.093 31.14 105.693C31.74 106.413 32.18 107.353 32.46 108.513C33.46 106.593 34.78 105.253 36.42 104.493C38.1 103.693 40.1 103.293 42.42 103.293C45.62 103.293 47.88 104.093 49.2 105.693C49.8 106.413 50.24 107.393 50.52 108.633C50.8 109.833 50.94 111.433 50.94 113.433V129.693ZM87.8409 128.733C87.8409 130.573 88.0809 131.913 88.5609 132.753C89.0809 133.593 89.9609 134.013 91.2009 134.013V135.273C89.9609 135.153 88.7209 135.093 87.4809 135.093C83.3209 135.093 79.8409 135.373 77.0409 135.933V131.613C75.2409 134.613 72.0609 136.113 67.5009 136.113C64.3009 136.113 62.0409 135.313 60.7209 133.713C60.1209 132.993 59.6809 132.033 59.4009 130.833C59.1209 129.593 58.9809 127.973 58.9809 125.973V110.673C58.9809 108.833 58.7209 107.493 58.2009 106.653C57.7209 105.813 56.8609 105.393 55.6209 105.393V104.133C56.8609 104.253 58.1009 104.313 59.3409 104.313C63.5009 104.313 66.9809 104.033 69.7809 103.473V129.213C69.7809 130.493 70.0009 131.453 70.4409 132.093C70.9209 132.693 71.6809 132.993 72.7209 132.993C73.8809 132.993 74.8809 132.593 75.7209 131.793C76.6009 130.953 77.0409 129.913 77.0409 128.673V110.673C77.0409 108.833 76.7809 107.493 76.2609 106.653C75.7809 105.813 74.9209 105.393 73.6809 105.393V104.133C74.9209 104.253 76.1609 104.313 77.4009 104.313C81.5609 104.313 85.0409 104.033 87.8409 103.473V128.733ZM106.145 103.293C107.705 103.293 109.165 103.473 110.525 103.833C111.925 104.153 112.985 104.513 113.705 104.913C114.145 105.153 114.505 105.273 114.785 105.273C115.625 105.273 116.125 104.633 116.285 103.353H117.485C117.325 105.433 117.245 109.033 117.245 114.153H116.045C115.725 111.513 114.965 109.293 113.765 107.493C112.605 105.653 110.905 104.733 108.665 104.733C107.665 104.733 106.825 105.033 106.145 105.633C105.465 106.233 105.125 107.053 105.125 108.093C105.125 109.413 105.565 110.593 106.445 111.633C107.325 112.633 108.705 113.873 110.585 115.353C110.665 115.393 111.245 115.853 112.325 116.733C114.565 118.573 116.205 120.213 117.245 121.653C118.285 123.053 118.805 124.793 118.805 126.873C118.805 128.633 118.265 130.233 117.185 131.673C116.105 133.073 114.625 134.173 112.745 134.973C110.905 135.733 108.885 136.113 106.685 136.113C104.165 136.113 102.105 135.613 100.505 134.613C99.8252 134.253 99.2652 133.993 98.8252 133.833C98.3852 133.673 97.9452 133.593 97.5052 133.593C96.7452 133.593 96.1852 134.293 95.8252 135.693H94.6252C94.7852 133.413 94.8652 129.413 94.8652 123.693H96.0652C96.4252 126.973 97.3052 129.613 98.7052 131.613C100.105 133.613 101.865 134.613 103.985 134.613C104.985 134.613 105.805 134.333 106.445 133.773C107.125 133.213 107.465 132.393 107.465 131.313C107.465 130.193 107.225 129.193 106.745 128.313C106.305 127.433 105.745 126.653 105.065 125.973C104.425 125.253 103.365 124.233 101.885 122.913C100.205 121.353 98.9252 120.113 98.0452 119.193C97.1652 118.273 96.4052 117.213 95.7652 116.013C95.1652 114.773 94.8652 113.413 94.8652 111.933C94.8652 110.213 95.3852 108.693 96.4252 107.373C97.4652 106.053 98.8452 105.053 100.565 104.373C102.285 103.653 104.145 103.293 106.145 103.293ZM140.566 129.573C143.486 129.573 145.906 128.233 147.826 125.553L148.846 125.913C147.966 128.713 146.466 131.113 144.346 133.113C142.266 135.113 139.586 136.113 136.306 136.113C132.106 136.113 128.746 134.813 126.226 132.213C123.706 129.613 122.446 125.453 122.446 119.733C122.446 114.253 123.846 110.153 126.646 107.433C129.486 104.673 133.226 103.293 137.866 103.293C145.426 103.293 149.206 107.773 149.206 116.733H133.726C133.686 117.213 133.666 117.933 133.666 118.893C133.666 122.733 134.326 125.473 135.646 127.113C137.006 128.753 138.646 129.573 140.566 129.573ZM137.446 104.673C135.206 104.673 133.886 108.313 133.486 115.593H140.446C140.486 112.393 140.246 109.773 139.726 107.733C139.246 105.693 138.486 104.673 137.446 104.673ZM183.642 128.733C183.642 130.573 183.882 131.913 184.362 132.753C184.882 133.593 185.762 134.013 187.002 134.013V135.273C185.762 135.153 184.522 135.093 183.282 135.093C179.122 135.093 175.642 135.373 172.842 135.933V131.613C171.042 134.613 167.862 136.113 163.302 136.113C160.102 136.113 157.842 135.313 156.522 133.713C155.922 132.993 155.482 132.033 155.202 130.833C154.922 129.593 154.782 127.973 154.782 125.973V110.673C154.782 108.833 154.522 107.493 154.002 106.653C153.522 105.813 152.662 105.393 151.422 105.393V104.133C152.662 104.253 153.902 104.313 155.142 104.313C159.302 104.313 162.782 104.033 165.582 103.473V129.213C165.582 130.493 165.802 131.453 166.242 132.093C166.722 132.693 167.482 132.993 168.522 132.993C169.682 132.993 170.682 132.593 171.522 131.793C172.402 130.953 172.842 129.913 172.842 128.673V110.673C172.842 108.833 172.582 107.493 172.062 106.653C171.582 105.813 170.722 105.393 169.482 105.393V104.133C170.722 104.253 171.962 104.313 173.202 104.313C177.362 104.313 180.842 104.033 183.642 103.473V128.733ZM239.026 129.693C239.026 131.333 239.266 132.473 239.746 133.113C240.266 133.713 241.146 134.013 242.386 134.013V135.273C238.066 135.113 235.266 135.033 233.986 135.033C232.706 135.033 230.066 135.113 226.066 135.273V134.013C226.866 134.013 227.426 133.713 227.746 133.113C228.066 132.513 228.226 131.373 228.226 129.693V110.193C228.226 108.913 227.986 107.973 227.506 107.373C227.066 106.733 226.326 106.413 225.286 106.413C224.246 106.413 223.286 106.853 222.406 107.733C221.566 108.613 221.046 109.653 220.846 110.853C220.926 111.813 220.966 112.673 220.966 113.433V129.693C220.966 131.373 221.166 132.513 221.566 133.113C221.966 133.713 222.686 134.013 223.726 134.013V135.273C219.726 135.113 217.126 135.033 215.926 135.033C214.646 135.033 212.006 135.113 208.006 135.273V134.013C208.806 134.013 209.366 133.713 209.686 133.113C210.006 132.473 210.166 131.333 210.166 129.693V110.193C210.166 108.913 209.986 107.973 209.626 107.373C209.266 106.733 208.666 106.413 207.826 106.413C206.666 106.413 205.646 106.833 204.766 107.673C203.926 108.473 203.506 109.493 203.506 110.733V129.693C203.506 131.373 203.666 132.513 203.986 133.113C204.306 133.713 204.866 134.013 205.666 134.013V135.273C201.986 135.113 199.546 135.033 198.346 135.033C196.986 135.033 193.986 135.113 189.346 135.273V134.013C190.586 134.013 191.446 133.713 191.926 133.113C192.446 132.473 192.706 131.333 192.706 129.693V110.673C192.706 108.833 192.446 107.493 191.926 106.653C191.446 105.813 190.586 105.393 189.346 105.393V104.133C190.626 104.253 191.866 104.313 193.066 104.313C197.226 104.313 200.706 104.033 203.506 103.473V107.793C205.186 104.793 208.166 103.293 212.446 103.293C215.646 103.293 217.906 104.093 219.226 105.693C219.826 106.413 220.266 107.353 220.546 108.513C221.546 106.593 222.866 105.253 224.506 104.493C226.186 103.693 228.186 103.293 230.506 103.293C233.706 103.293 235.966 104.093 237.286 105.693C237.886 106.413 238.326 107.393 238.606 108.633C238.886 109.833 239.026 111.433 239.026 113.433V129.693Z" fill="black"/>
<path d="M70.6268 89.8645H70.9568L75.6668 77.7745H78.2768L71.9468 92.7745H69.3068L62.8568 77.7745H65.6168L70.6268 89.8645ZM82.7051 92.7745V90.7645H87.9251V79.7845H82.7051V77.7745H90.3251V90.7645H95.4251V92.7745H82.7051ZM87.1151 73.5145C87.1151 72.9745 87.2951 72.5145 87.6551 72.1345C88.0151 71.7345 88.4751 71.5345 89.0351 71.5345C89.6151 71.5345 90.0951 71.7345 90.4751 72.1345C90.8751 72.5145 91.0751 72.9745 91.0751 73.5145C91.0751 74.0345 90.8751 74.4745 90.4751 74.8345C90.0951 75.1945 89.6151 75.3745 89.0351 75.3745C88.4751 75.3745 88.0151 75.1945 87.6551 74.8345C87.2951 74.4745 87.1151 74.0345 87.1151 73.5145ZM99.5233 92.7745V90.7645H103.573V79.7845H99.5233V77.7745H105.133L105.613 79.7245H105.763C106.443 79.1045 107.203 78.5745 108.043 78.1345C108.883 77.6945 109.883 77.4745 111.043 77.4745C111.723 77.4745 112.263 77.6045 112.663 77.8645C113.083 78.1245 113.403 78.5045 113.623 79.0045C113.863 79.5045 114.023 80.1145 114.103 80.8345C114.183 81.5345 114.223 82.3345 114.223 83.2345L112.123 83.2645C112.123 81.9845 111.993 81.0445 111.733 80.4445C111.493 79.8445 111.043 79.5445 110.383 79.5445C109.763 79.5445 109.203 79.6345 108.703 79.8145C108.203 79.9945 107.763 80.2145 107.383 80.4745C107.023 80.7345 106.713 80.9945 106.453 81.2545C106.193 81.5145 106.003 81.7345 105.883 81.9145V90.7645H111.643V92.7745H99.5233ZM116.462 77.7745H120.032V74.8045L122.372 74.1445V77.7745H130.382V79.7845H122.372V86.8645C122.372 88.3245 122.722 89.4045 123.422 90.1045C124.142 90.8045 125.162 91.1545 126.482 91.1545C127.382 91.1545 128.162 90.9845 128.822 90.6445C129.502 90.3045 130.112 89.9345 130.652 89.5345L131.432 91.3045C130.732 91.8645 129.892 92.3145 128.912 92.6545C127.952 92.9945 126.962 93.1645 125.942 93.1645C125.142 93.1645 124.382 93.0445 123.662 92.8045C122.962 92.5845 122.342 92.2345 121.802 91.7545C121.262 91.2745 120.832 90.6645 120.512 89.9245C120.192 89.1645 120.032 88.2645 120.032 87.2245V79.7845H116.462V77.7745ZM144.41 77.7745H148.67V88.0045C148.67 88.9845 148.73 89.9245 148.85 90.8245H150.86V92.7745H146.87L146.78 90.2245H146.66C146.14 91.0845 145.45 91.7845 144.59 92.3245C143.73 92.8645 142.69 93.1345 141.47 93.1345C140.55 93.1345 139.76 93.0245 139.1 92.8045C138.46 92.6045 137.93 92.2445 137.51 91.7245C137.09 91.2045 136.78 90.5145 136.58 89.6545C136.38 88.7745 136.28 87.6845 136.28 86.3845V79.7845H134.27V77.7745H138.62V85.9045C138.62 86.7245 138.65 87.4645 138.71 88.1245C138.79 88.7645 138.94 89.3145 139.16 89.7745C139.38 90.2145 139.7 90.5545 140.12 90.7945C140.56 91.0145 141.14 91.1245 141.86 91.1245C142.9 91.1245 143.8 90.7845 144.56 90.1045C145.34 89.4245 145.93 88.5745 146.33 87.5545V79.7845H144.41V77.7745ZM154.748 78.9445C155.608 78.4445 156.578 78.0845 157.658 77.8645C158.738 77.6445 159.798 77.5345 160.838 77.5345C161.858 77.5345 162.688 77.6945 163.328 78.0145C163.988 78.3345 164.498 78.7545 164.858 79.2745C165.238 79.7745 165.488 80.3545 165.608 81.0145C165.748 81.6545 165.818 82.3045 165.818 82.9645C165.818 83.7245 165.798 84.5345 165.758 85.3945C165.718 86.2545 165.688 87.1145 165.668 87.9745C165.668 88.9745 165.728 89.9245 165.848 90.8245H167.858V92.7745H163.868L163.598 90.5245H163.448C163.328 90.7045 163.148 90.9345 162.908 91.2145C162.668 91.4945 162.348 91.7745 161.948 92.0545C161.568 92.3145 161.098 92.5445 160.538 92.7445C159.978 92.9445 159.318 93.0445 158.558 93.0445C157.078 93.0445 155.908 92.6645 155.048 91.9045C154.188 91.1445 153.758 90.1045 153.758 88.7845C153.758 87.7645 153.978 86.9145 154.418 86.2345C154.878 85.5545 155.528 85.0345 156.368 84.6745C157.208 84.3145 158.218 84.1045 159.398 84.0445C160.598 83.9845 161.938 84.0645 163.418 84.2845C163.518 83.3645 163.528 82.6045 163.448 82.0045C163.388 81.3845 163.228 80.8945 162.968 80.5345C162.728 80.1745 162.378 79.9245 161.918 79.7845C161.478 79.6245 160.928 79.5445 160.268 79.5445C159.368 79.5445 158.508 79.6745 157.688 79.9345C156.868 80.1745 156.138 80.4245 155.498 80.6845L154.748 78.9445ZM159.158 91.0345C159.718 91.0345 160.238 90.9445 160.718 90.7645C161.198 90.5845 161.618 90.3545 161.978 90.0745C162.338 89.7945 162.638 89.4945 162.878 89.1745C163.118 88.8345 163.298 88.5145 163.418 88.2145V86.1145C162.378 85.9345 161.418 85.8445 160.538 85.8445C159.658 85.8445 158.898 85.9445 158.258 86.1445C157.618 86.3245 157.118 86.6145 156.758 87.0145C156.398 87.4145 156.218 87.9345 156.218 88.5745C156.218 89.2345 156.438 89.8145 156.878 90.3145C157.338 90.7945 158.098 91.0345 159.158 91.0345ZM173.066 71.7745H178.046V87.7345C178.046 88.9545 178.246 89.8145 178.646 90.3145C179.066 90.8145 179.676 91.0645 180.476 91.0645C181.036 91.0645 181.566 90.9645 182.066 90.7645C182.586 90.5645 183.156 90.2245 183.776 89.7445L184.856 91.3945C184.536 91.6745 184.186 91.9245 183.806 92.1445C183.426 92.3645 183.036 92.5545 182.636 92.7145C182.236 92.8545 181.836 92.9645 181.436 93.0445C181.036 93.1245 180.666 93.1645 180.326 93.1645C179.586 93.1645 178.926 93.0645 178.346 92.8645C177.766 92.6845 177.276 92.3845 176.876 91.9645C176.496 91.5445 176.206 90.9945 176.006 90.3145C175.806 89.6145 175.706 88.7545 175.706 87.7345V73.7845H173.066V71.7745Z" fill="black"/>
<path d="M128.873 65.7745L90.2633 13.8276M128.873 65.7745L134.091 2.24231M128.873 65.7745L117.916 7.10066M128.873 65.7745L103.307 2.24231M128.873 65.7745L146.091 7.10066" stroke="black"/>
<ellipse cx="90.2633" cy="13.8276" rx="2.60876" ry="1.86859" fill="black"/>
<ellipse cx="103.829" cy="3.36353" rx="2.60876" ry="1.86859" fill="black"/>
<ellipse cx="118.438" cy="7.10065" rx="2.60876" ry="1.86859" fill="black"/>
<ellipse cx="134.091" cy="1.86859" rx="2.60876" ry="1.86859" fill="black"/>
<ellipse cx="145.569" cy="7.10065" rx="2.60876" ry="1.86859" fill="black"/>
</svg>
