<svg width="303" height="313" viewBox="0 0 303 313" fill="none" xmlns="http://www.w3.org/2000/svg">
<ellipse cx="151.045" cy="151.452" rx="134.667" ry="135.848" fill="#FDE54A"/>
<ellipse cx="134.667" cy="177.152" rx="134.667" ry="135.848" fill="#011149"/>
<path d="M102.412 137.36C100.588 137.36 98.956 137.06 97.516 136.46C96.1 135.836 94.996 134.948 94.204 133.796C93.412 132.644 93.016 131.3 93.016 129.764C93.016 128.348 93.364 127.112 94.06 126.056C94.78 124.976 95.74 124.148 96.94 123.572C95.98 123.02 95.236 122.3 94.708 121.412C94.18 120.5 93.916 119.432 93.916 118.208C93.916 116.12 94.696 114.476 96.256 113.276C97.816 112.052 99.868 111.44 102.412 111.44C104.956 111.44 106.996 112.04 108.532 113.24C110.092 114.44 110.872 116.096 110.872 118.208C110.872 119.408 110.608 120.464 110.08 121.376C109.552 122.264 108.82 122.996 107.884 123.572C109.084 124.148 110.032 124.976 110.728 126.056C111.448 127.112 111.808 128.36 111.808 129.8C111.808 131.336 111.412 132.68 110.62 133.832C109.828 134.96 108.712 135.836 107.272 136.46C105.856 137.06 104.236 137.36 102.412 137.36ZM102.412 122.312C103.876 122.264 105.112 121.88 106.12 121.16C107.128 120.44 107.632 119.48 107.632 118.28C107.632 117.056 107.128 116.084 106.12 115.364C105.136 114.62 103.9 114.248 102.412 114.248C100.9 114.248 99.652 114.62 98.668 115.364C97.684 116.084 97.192 117.056 97.192 118.28C97.192 119.504 97.684 120.488 98.668 121.232C99.652 121.952 100.9 122.312 102.412 122.312ZM102.412 134.552C104.116 134.552 105.532 134.12 106.66 133.256C107.812 132.392 108.388 131.24 108.388 129.8C108.388 128.36 107.812 127.208 106.66 126.344C105.532 125.48 104.116 125.048 102.412 125.048C100.684 125.048 99.244 125.48 98.092 126.344C96.964 127.208 96.4 128.36 96.4 129.8C96.4 131.24 96.964 132.392 98.092 133.256C99.244 134.12 100.684 134.552 102.412 134.552ZM125.192 137.36C122.096 137.36 119.828 136.46 118.388 134.66C116.972 132.836 116.216 130.46 116.12 127.532L116.084 124.436L116.12 121.232C116.192 118.328 116.948 115.976 118.388 114.176C119.852 112.352 122.12 111.44 125.192 111.44C128.288 111.44 130.556 112.352 131.996 114.176C133.46 115.976 134.228 118.328 134.3 121.232C134.324 121.904 134.336 122.972 134.336 124.436C134.336 125.852 134.324 126.884 134.3 127.532C134.204 130.46 133.436 132.836 131.996 134.66C130.58 136.46 128.312 137.36 125.192 137.36ZM125.192 134.372C127.04 134.372 128.432 133.76 129.368 132.536C130.304 131.312 130.796 129.584 130.844 127.352C130.868 126.656 130.88 125.66 130.88 124.364C130.88 123.044 130.868 122.06 130.844 121.412C130.796 119.204 130.292 117.488 129.332 116.264C128.396 115.016 127.016 114.392 125.192 114.392C123.368 114.392 121.988 115.016 121.052 116.264C120.116 117.488 119.624 119.204 119.576 121.412L119.54 124.364L119.576 127.352C119.624 129.584 120.116 131.312 121.052 132.536C121.988 133.76 123.368 134.372 125.192 134.372ZM143.546 124.436C141.986 124.436 140.75 124.028 139.838 123.212C138.95 122.372 138.47 121.22 138.398 119.756C138.374 119.348 138.362 118.82 138.362 118.172C138.362 117.476 138.374 116.912 138.398 116.48C138.47 114.992 138.938 113.816 139.802 112.952C140.666 112.064 141.914 111.62 143.546 111.62C145.178 111.62 146.426 112.064 147.29 112.952C148.178 113.816 148.658 114.992 148.73 116.48C148.778 117.344 148.802 117.908 148.802 118.172C148.802 118.412 148.778 118.94 148.73 119.756C148.658 121.22 148.166 122.372 147.254 123.212C146.342 124.028 145.106 124.436 143.546 124.436ZM140.522 137C140.306 137 140.126 136.94 139.982 136.82C139.838 136.676 139.766 136.496 139.766 136.28C139.766 136.136 139.814 136.004 139.91 135.884L157.694 112.484C157.886 112.22 158.054 112.04 158.198 111.944C158.366 111.848 158.594 111.8 158.882 111.8H160.034C160.25 111.8 160.418 111.872 160.538 112.016C160.682 112.136 160.754 112.304 160.754 112.52C160.754 112.664 160.706 112.796 160.61 112.916L142.862 136.316C142.67 136.556 142.49 136.736 142.322 136.856C142.178 136.952 141.962 137 141.674 137H140.522ZM143.546 122.24C144.41 122.24 145.046 121.988 145.454 121.484C145.862 120.98 146.102 120.356 146.174 119.612C146.222 118.748 146.246 118.244 146.246 118.1C146.246 117.884 146.222 117.392 146.174 116.624C146.126 115.88 145.886 115.256 145.454 114.752C145.046 114.224 144.41 113.96 143.546 113.96C142.682 113.96 142.046 114.224 141.638 114.752C141.23 115.256 141.002 115.88 140.954 116.624C140.93 117.008 140.918 117.5 140.918 118.1C140.918 118.676 140.93 119.18 140.954 119.612C141.026 120.332 141.254 120.956 141.638 121.484C142.046 121.988 142.682 122.24 143.546 122.24ZM156.938 137.216C155.378 137.216 154.142 136.772 153.23 135.884C152.342 134.996 151.862 133.82 151.79 132.356C151.742 131.636 151.718 131.156 151.718 130.916C151.718 130.676 151.742 130.076 151.79 129.116C151.862 127.628 152.33 126.452 153.194 125.588C154.058 124.7 155.306 124.256 156.938 124.256C158.57 124.256 159.818 124.7 160.682 125.588C161.57 126.452 162.05 127.628 162.122 129.116C162.17 129.98 162.194 130.532 162.194 130.772C162.194 131.012 162.17 131.54 162.122 132.356C162.05 133.82 161.558 134.996 160.646 135.884C159.734 136.772 158.498 137.216 156.938 137.216ZM156.938 134.876C157.802 134.876 158.438 134.624 158.846 134.12C159.254 133.616 159.494 132.992 159.566 132.248C159.614 131.384 159.638 130.868 159.638 130.7C159.638 130.508 159.614 130.028 159.566 129.26C159.518 128.516 159.278 127.892 158.846 127.388C158.438 126.86 157.802 126.596 156.938 126.596C156.074 126.596 155.438 126.86 155.03 127.388C154.622 127.892 154.394 128.516 154.346 129.26C154.322 129.644 154.31 130.124 154.31 130.7C154.31 131.3 154.322 131.816 154.346 132.248C154.394 132.968 154.622 133.592 155.03 134.12C155.438 134.624 156.074 134.876 156.938 134.876Z" fill="white"/>
<path d="M45.9969 153.964C46.6503 153.964 47.2636 154.071 47.8369 154.284C48.4103 154.484 48.9036 154.798 49.3169 155.224C50.2369 156.158 50.6969 157.451 50.6969 159.104C50.6969 160.731 50.2369 162.011 49.3169 162.944C48.4903 163.798 47.3836 164.224 45.9969 164.224C44.6103 164.224 43.4903 163.798 42.6369 162.944C41.7169 162.024 41.2569 160.744 41.2569 159.104C41.2569 157.438 41.7169 156.144 42.6369 155.224C43.4769 154.384 44.5969 153.964 45.9969 153.964ZM48.3369 159.084C48.3369 158.058 48.1369 157.291 47.7369 156.784C47.3369 156.264 46.7769 156.004 46.0569 156.004C45.3503 156.004 44.7703 156.264 44.3169 156.784C43.8636 157.291 43.6369 158.058 43.6369 159.084C43.6369 160.111 43.8369 160.884 44.2369 161.404C44.6503 161.911 45.2103 162.164 45.9169 162.164C46.6236 162.164 47.2036 161.911 47.6569 161.404C48.1103 160.884 48.3369 160.111 48.3369 159.084ZM52.4451 154.224H53.8851V153.084C53.8851 152.084 54.1784 151.318 54.7651 150.784C55.2984 150.304 55.9917 150.064 56.8451 150.064C57.3917 150.064 58.0651 150.144 58.8651 150.304L58.4051 152.124C58.0317 151.991 57.6917 151.924 57.3851 151.924C57.0917 151.924 56.8317 152.011 56.6051 152.184C56.3784 152.344 56.2651 152.651 56.2651 153.104V154.224H58.0451V155.804H56.2651V163.944H53.8851V155.804H52.4451V154.224ZM72.3479 162.184C71.7345 163.478 70.7479 164.124 69.3879 164.124C67.6679 164.124 66.5345 163.451 65.9879 162.104C65.7879 161.638 65.6879 161.071 65.6879 160.404V154.204H68.0479V160.164C68.0479 160.804 68.2012 161.284 68.5079 161.604C68.8145 161.911 69.1879 162.064 69.6279 162.064C70.0812 162.064 70.4612 162.004 70.7679 161.884C71.0745 161.751 71.3412 161.558 71.5679 161.304C72.0612 160.731 72.3212 159.964 72.3479 159.004V154.204H74.7079V163.944H72.3479V162.184ZM79.7469 160.984C79.7736 161.904 80.4469 162.364 81.7669 162.364C82.2736 162.364 82.6869 162.258 83.0069 162.044C83.3403 161.818 83.5069 161.558 83.5069 161.264C83.5069 160.971 83.4069 160.744 83.2069 160.584C83.0069 160.424 82.6936 160.278 82.2669 160.144L80.1469 159.384C78.5736 158.838 77.7869 157.944 77.7869 156.704C77.7869 155.878 78.1536 155.218 78.8869 154.724C79.6336 154.218 80.6269 153.964 81.8669 153.964C83.1203 153.964 84.0803 154.238 84.7469 154.784C85.4269 155.331 85.7803 156.018 85.8069 156.844H83.5869C83.5603 156.524 83.4069 156.271 83.1269 156.084C82.8469 155.898 82.4469 155.804 81.9269 155.804C81.4069 155.804 81.0003 155.911 80.7069 156.124C80.4269 156.324 80.2869 156.558 80.2869 156.824C80.2869 157.291 80.6803 157.638 81.4669 157.864L83.7669 158.724C84.5269 158.978 85.1069 159.304 85.5069 159.704C85.9203 160.091 86.1269 160.598 86.1269 161.224C86.1269 162.024 85.7469 162.718 84.9869 163.304C84.2003 163.918 83.1603 164.224 81.8669 164.224C80.5736 164.224 79.5336 163.944 78.7469 163.384C77.9603 162.811 77.5603 162.011 77.5469 160.984H79.7469ZM95.7538 155.384C96.0871 155.811 96.3338 156.304 96.4938 156.864C96.6671 157.424 96.7538 157.938 96.7538 158.404C96.7538 158.871 96.7271 159.291 96.6738 159.664H90.3938C90.4205 160.451 90.6138 161.091 90.9738 161.584C91.3338 162.078 91.8805 162.324 92.6138 162.324C93.5871 162.324 94.1671 161.898 94.3538 161.044H96.7338C96.5738 162.018 96.1271 162.784 95.3938 163.344C94.6338 163.931 93.7071 164.224 92.6138 164.224C91.3338 164.224 90.2605 163.758 89.3938 162.824C88.5005 161.851 88.0538 160.604 88.0538 159.084C88.0538 157.524 88.5005 156.271 89.3938 155.324C90.2471 154.418 91.3205 153.964 92.6138 153.964C93.9605 153.964 95.0071 154.438 95.7538 155.384ZM92.6338 155.844C91.9671 155.844 91.4471 156.064 91.0738 156.504C90.7005 156.931 90.4805 157.484 90.4138 158.164H94.5538C94.5538 157.111 94.2205 156.404 93.5538 156.044C93.3005 155.911 92.9938 155.844 92.6338 155.844ZM101.939 156.144C102.526 154.744 103.406 154.044 104.579 154.044C104.806 154.044 105.093 154.091 105.439 154.184L105.399 156.544C105.026 156.464 104.659 156.424 104.299 156.424C102.726 156.424 101.939 157.511 101.939 159.684V163.944H99.5793V154.204H101.939V156.144ZM109.22 160.984C109.246 161.904 109.92 162.364 111.24 162.364C111.746 162.364 112.16 162.258 112.48 162.044C112.813 161.818 112.98 161.558 112.98 161.264C112.98 160.971 112.88 160.744 112.68 160.584C112.48 160.424 112.166 160.278 111.74 160.144L109.62 159.384C108.046 158.838 107.26 157.944 107.26 156.704C107.26 155.878 107.626 155.218 108.36 154.724C109.106 154.218 110.1 153.964 111.34 153.964C112.593 153.964 113.553 154.238 114.22 154.784C114.9 155.331 115.253 156.018 115.28 156.844H113.06C113.033 156.524 112.88 156.271 112.6 156.084C112.32 155.898 111.92 155.804 111.4 155.804C110.88 155.804 110.473 155.911 110.18 156.124C109.9 156.324 109.76 156.558 109.76 156.824C109.76 157.291 110.153 157.638 110.94 157.864L113.24 158.724C114 158.978 114.58 159.304 114.98 159.704C115.393 160.091 115.6 160.598 115.6 161.224C115.6 162.024 115.22 162.718 114.46 163.304C113.673 163.918 112.633 164.224 111.34 164.224C110.046 164.224 109.006 163.944 108.22 163.384C107.433 162.811 107.033 162.011 107.02 160.984H109.22ZM124.365 154.224L126.325 161.164L128.185 154.764H130.325L132.185 161.184L134.165 154.224H136.525L133.325 163.944H131.005L129.205 158.124L127.445 163.944H125.105L121.885 154.224H124.365ZM141.861 158.264C142.635 158.264 143.528 158.391 144.541 158.644V157.684C144.541 157.004 144.401 156.504 144.121 156.184C143.855 155.851 143.408 155.684 142.781 155.684C142.168 155.684 141.695 155.811 141.361 156.064C141.028 156.304 140.861 156.651 140.861 157.104H138.281C138.281 155.998 138.668 155.198 139.441 154.704C140.228 154.211 141.321 153.964 142.721 153.964C144.721 153.964 146.015 154.664 146.601 156.064C146.801 156.544 146.901 157.111 146.901 157.764V163.944H144.841L144.661 162.644C144.035 163.698 143.075 164.224 141.781 164.224C140.528 164.224 139.555 163.918 138.861 163.304C138.221 162.718 137.901 161.978 137.901 161.084C137.901 160.178 138.255 159.484 138.961 159.004C139.668 158.511 140.635 158.264 141.861 158.264ZM144.541 160.144C143.755 159.931 143.021 159.824 142.341 159.824C141.061 159.824 140.421 160.251 140.421 161.104C140.421 161.464 140.568 161.778 140.861 162.044C141.155 162.298 141.621 162.424 142.261 162.424C142.915 162.424 143.448 162.211 143.861 161.784C144.288 161.344 144.515 160.798 144.541 160.144ZM152.661 155.904C153.301 154.611 154.328 153.964 155.741 153.964C156.941 153.964 157.841 154.358 158.441 155.144C159.054 155.931 159.361 156.971 159.361 158.264V163.944H157.001V158.264C157.001 157.544 156.828 157.004 156.481 156.644C156.134 156.271 155.648 156.084 155.021 156.084C154.394 156.084 153.854 156.364 153.401 156.924C152.961 157.484 152.728 158.324 152.701 159.444V163.944H150.341V154.224H152.401L152.661 155.904ZM168.282 163.704C167.402 164.051 166.709 164.224 166.202 164.224C165.695 164.224 165.249 164.164 164.862 164.044C164.489 163.924 164.155 163.744 163.862 163.504C163.249 162.958 162.942 162.204 162.942 161.244V155.804H161.582V154.224H162.942V151.664H165.302V154.224H167.942V155.804H165.302V161.164C165.302 161.964 165.682 162.364 166.442 162.364C166.829 162.364 167.329 162.258 167.942 162.044L168.282 163.704ZM181.231 163.704C180.351 164.051 179.658 164.224 179.151 164.224C178.644 164.224 178.198 164.164 177.811 164.044C177.438 163.924 177.104 163.744 176.811 163.504C176.198 162.958 175.891 162.204 175.891 161.244V155.804H174.531V154.224H175.891V151.664H178.251V154.224H180.891V155.804H178.251V161.164C178.251 161.964 178.631 162.364 179.391 162.364C179.778 162.364 180.278 162.258 180.891 162.044L181.231 163.704ZM187.462 153.964C188.115 153.964 188.728 154.071 189.302 154.284C189.875 154.484 190.368 154.798 190.782 155.224C191.702 156.158 192.162 157.451 192.162 159.104C192.162 160.731 191.702 162.011 190.782 162.944C189.955 163.798 188.848 164.224 187.462 164.224C186.075 164.224 184.955 163.798 184.102 162.944C183.182 162.024 182.722 160.744 182.722 159.104C182.722 157.438 183.182 156.144 184.102 155.224C184.942 154.384 186.062 153.964 187.462 153.964ZM189.802 159.084C189.802 158.058 189.602 157.291 189.202 156.784C188.802 156.264 188.242 156.004 187.522 156.004C186.815 156.004 186.235 156.264 185.782 156.784C185.328 157.291 185.102 158.058 185.102 159.084C185.102 160.111 185.302 160.884 185.702 161.404C186.115 161.911 186.675 162.164 187.382 162.164C188.088 162.164 188.668 161.911 189.122 161.404C189.575 160.884 189.802 160.111 189.802 159.084ZM201.348 160.984C201.375 161.904 202.048 162.364 203.368 162.364C203.875 162.364 204.288 162.258 204.608 162.044C204.942 161.818 205.108 161.558 205.108 161.264C205.108 160.971 205.008 160.744 204.808 160.584C204.608 160.424 204.295 160.278 203.868 160.144L201.748 159.384C200.175 158.838 199.388 157.944 199.388 156.704C199.388 155.878 199.755 155.218 200.488 154.724C201.235 154.218 202.228 153.964 203.468 153.964C204.722 153.964 205.682 154.238 206.348 154.784C207.028 155.331 207.382 156.018 207.408 156.844H205.188C205.162 156.524 205.008 156.271 204.728 156.084C204.448 155.898 204.048 155.804 203.528 155.804C203.008 155.804 202.602 155.911 202.308 156.124C202.028 156.324 201.888 156.558 201.888 156.824C201.888 157.291 202.282 157.638 203.068 157.864L205.368 158.724C206.128 158.978 206.708 159.304 207.108 159.704C207.522 160.091 207.728 160.598 207.728 161.224C207.728 162.024 207.348 162.718 206.588 163.304C205.802 163.918 204.762 164.224 203.468 164.224C202.175 164.224 201.135 163.944 200.348 163.384C199.562 162.811 199.162 162.011 199.148 160.984H201.348ZM217.355 155.384C217.689 155.811 217.935 156.304 218.095 156.864C218.269 157.424 218.355 157.938 218.355 158.404C218.355 158.871 218.329 159.291 218.275 159.664H211.995C212.022 160.451 212.215 161.091 212.575 161.584C212.935 162.078 213.482 162.324 214.215 162.324C215.189 162.324 215.769 161.898 215.955 161.044H218.335C218.175 162.018 217.729 162.784 216.995 163.344C216.235 163.931 215.309 164.224 214.215 164.224C212.935 164.224 211.862 163.758 210.995 162.824C210.102 161.851 209.655 160.604 209.655 159.084C209.655 157.524 210.102 156.271 210.995 155.324C211.849 154.418 212.922 153.964 214.215 153.964C215.562 153.964 216.609 154.438 217.355 155.384ZM214.235 155.844C213.569 155.844 213.049 156.064 212.675 156.504C212.302 156.931 212.082 157.484 212.015 158.164H216.155C216.155 157.111 215.822 156.404 215.155 156.044C214.902 155.911 214.595 155.844 214.235 155.844ZM227.961 155.384C228.294 155.811 228.541 156.304 228.701 156.864C228.874 157.424 228.961 157.938 228.961 158.404C228.961 158.871 228.934 159.291 228.881 159.664H222.601C222.627 160.451 222.821 161.091 223.181 161.584C223.541 162.078 224.087 162.324 224.821 162.324C225.794 162.324 226.374 161.898 226.561 161.044H228.941C228.781 162.018 228.334 162.784 227.601 163.344C226.841 163.931 225.914 164.224 224.821 164.224C223.541 164.224 222.467 163.758 221.601 162.824C220.707 161.851 220.261 160.604 220.261 159.084C220.261 157.524 220.707 156.271 221.601 155.324C222.454 154.418 223.527 153.964 224.821 153.964C226.167 153.964 227.214 154.438 227.961 155.384ZM224.841 155.844C224.174 155.844 223.654 156.064 223.281 156.504C222.907 156.931 222.687 157.484 222.621 158.164H226.761C226.761 157.111 226.427 156.404 225.761 156.044C225.507 155.911 225.201 155.844 224.841 155.844ZM46.2264 178.804C46.8931 177.578 47.8664 176.964 49.1464 176.964C50.4264 176.964 51.3664 177.358 51.9664 178.144C52.5797 178.931 52.8864 179.971 52.8864 181.264V186.944H50.5264V181.264C50.5264 180.544 50.3531 180.004 50.0064 179.644C49.6597 179.271 49.1731 179.084 48.5464 179.084C47.9197 179.084 47.3797 179.364 46.9264 179.924C46.4864 180.484 46.2531 181.324 46.2264 182.444V186.944H43.8664V173.224H46.2264V178.804ZM60.1473 176.964C60.8007 176.964 61.414 177.071 61.9873 177.284C62.5607 177.484 63.054 177.798 63.4673 178.224C64.3873 179.158 64.8473 180.451 64.8473 182.104C64.8473 183.731 64.3873 185.011 63.4673 185.944C62.6407 186.798 61.534 187.224 60.1473 187.224C58.7607 187.224 57.6407 186.798 56.7873 185.944C55.8673 185.024 55.4073 183.744 55.4073 182.104C55.4073 180.438 55.8673 179.144 56.7873 178.224C57.6273 177.384 58.7473 176.964 60.1473 176.964ZM62.4873 182.084C62.4873 181.058 62.2873 180.291 61.8873 179.784C61.4873 179.264 60.9273 179.004 60.2073 179.004C59.5007 179.004 58.9207 179.264 58.4673 179.784C58.014 180.291 57.7873 181.058 57.7873 182.084C57.7873 183.111 57.9873 183.884 58.3873 184.404C58.8007 184.911 59.3607 185.164 60.0673 185.164C60.774 185.164 61.354 184.911 61.8073 184.404C62.2607 183.884 62.4873 183.111 62.4873 182.084ZM68.5154 177.224L70.4754 184.164L72.3354 177.764H74.4754L76.3354 184.184L78.3154 177.224H80.6754L77.4754 186.944H75.1554L73.3554 181.124L71.5954 186.944H69.2554L66.0354 177.224H68.5154ZM91.6903 176.964C92.3436 176.964 92.957 177.071 93.5303 177.284C94.1036 177.484 94.597 177.798 95.0103 178.224C95.9303 179.158 96.3903 180.451 96.3903 182.104C96.3903 183.731 95.9303 185.011 95.0103 185.944C94.1836 186.798 93.077 187.224 91.6903 187.224C90.3036 187.224 89.1836 186.798 88.3303 185.944C87.4103 185.024 86.9503 183.744 86.9503 182.104C86.9503 180.438 87.4103 179.144 88.3303 178.224C89.1703 177.384 90.2903 176.964 91.6903 176.964ZM94.0303 182.084C94.0303 181.058 93.8303 180.291 93.4303 179.784C93.0303 179.264 92.4703 179.004 91.7503 179.004C91.0436 179.004 90.4636 179.264 90.0103 179.784C89.557 180.291 89.3303 181.058 89.3303 182.084C89.3303 183.111 89.5303 183.884 89.9303 184.404C90.3436 184.911 90.9036 185.164 91.6103 185.164C92.317 185.164 92.897 184.911 93.3503 184.404C93.8036 183.884 94.0303 183.111 94.0303 182.084ZM104.678 186.704C103.798 187.051 103.105 187.224 102.598 187.224C102.092 187.224 101.645 187.164 101.258 187.044C100.885 186.924 100.552 186.744 100.258 186.504C99.6451 185.958 99.3384 185.204 99.3384 184.244V178.804H97.9784V177.224H99.3384V174.664H101.698V177.224H104.338V178.804H101.698V184.164C101.698 184.964 102.078 185.364 102.838 185.364C103.225 185.364 103.725 185.258 104.338 185.044L104.678 186.704ZM109.449 178.804C110.116 177.578 111.089 176.964 112.369 176.964C113.649 176.964 114.589 177.358 115.189 178.144C115.802 178.931 116.109 179.971 116.109 181.264V186.944H113.749V181.264C113.749 180.544 113.576 180.004 113.229 179.644C112.882 179.271 112.396 179.084 111.769 179.084C111.142 179.084 110.602 179.364 110.149 179.924C109.709 180.484 109.476 181.324 109.449 182.444V186.944H107.089V173.224H109.449V178.804ZM126.33 178.384C126.663 178.811 126.91 179.304 127.07 179.864C127.243 180.424 127.33 180.938 127.33 181.404C127.33 181.871 127.303 182.291 127.25 182.664H120.97C120.997 183.451 121.19 184.091 121.55 184.584C121.91 185.078 122.457 185.324 123.19 185.324C124.163 185.324 124.743 184.898 124.93 184.044H127.31C127.15 185.018 126.703 185.784 125.97 186.344C125.21 186.931 124.283 187.224 123.19 187.224C121.91 187.224 120.837 186.758 119.97 185.824C119.077 184.851 118.63 183.604 118.63 182.084C118.63 180.524 119.077 179.271 119.97 178.324C120.823 177.418 121.897 176.964 123.19 176.964C124.537 176.964 125.583 177.438 126.33 178.384ZM123.21 178.844C122.543 178.844 122.023 179.064 121.65 179.504C121.277 179.931 121.057 180.484 120.99 181.164H125.13C125.13 180.111 124.797 179.404 124.13 179.044C123.877 178.911 123.57 178.844 123.21 178.844ZM132.515 179.144C133.102 177.744 133.982 177.044 135.155 177.044C135.382 177.044 135.669 177.091 136.015 177.184L135.975 179.544C135.602 179.464 135.235 179.424 134.875 179.424C133.302 179.424 132.515 180.511 132.515 182.684V186.944H130.155V177.204H132.515V179.144ZM139.796 183.984C139.822 184.904 140.496 185.364 141.816 185.364C142.322 185.364 142.736 185.258 143.056 185.044C143.389 184.818 143.556 184.558 143.556 184.264C143.556 183.971 143.456 183.744 143.256 183.584C143.056 183.424 142.742 183.278 142.316 183.144L140.196 182.384C138.622 181.838 137.836 180.944 137.836 179.704C137.836 178.878 138.202 178.218 138.936 177.724C139.682 177.218 140.676 176.964 141.916 176.964C143.169 176.964 144.129 177.238 144.796 177.784C145.476 178.331 145.829 179.018 145.856 179.844H143.636C143.609 179.524 143.456 179.271 143.176 179.084C142.896 178.898 142.496 178.804 141.976 178.804C141.456 178.804 141.049 178.911 140.756 179.124C140.476 179.324 140.336 179.558 140.336 179.824C140.336 180.291 140.729 180.638 141.516 180.864L143.816 181.724C144.576 181.978 145.156 182.304 145.556 182.704C145.969 183.091 146.176 183.598 146.176 184.224C146.176 185.024 145.796 185.718 145.036 186.304C144.249 186.918 143.209 187.224 141.916 187.224C140.622 187.224 139.582 186.944 138.796 186.384C138.009 185.811 137.609 185.011 137.596 183.984H139.796ZM154.281 177.204H156.641V186.944H154.281V177.204ZM154.001 174.084C154.001 173.658 154.128 173.324 154.381 173.084C154.635 172.831 154.995 172.704 155.461 172.704C155.915 172.704 156.268 172.831 156.521 173.084C156.788 173.324 156.921 173.658 156.921 174.084C156.921 174.511 156.788 174.851 156.521 175.104C156.268 175.344 155.915 175.464 155.461 175.464C154.995 175.464 154.635 175.344 154.381 175.104C154.128 174.851 154.001 174.511 154.001 174.084ZM162.964 178.904C163.604 177.611 164.63 176.964 166.044 176.964C167.244 176.964 168.144 177.358 168.744 178.144C169.357 178.931 169.664 179.971 169.664 181.264V186.944H167.304V181.264C167.304 180.544 167.13 180.004 166.784 179.644C166.437 179.271 165.95 179.084 165.324 179.084C164.697 179.084 164.157 179.364 163.704 179.924C163.264 180.484 163.03 181.324 163.004 182.444V186.944H160.644V177.224H162.704L162.964 178.904ZM178.585 186.704C177.705 187.051 177.011 187.224 176.505 187.224C175.998 187.224 175.551 187.164 175.165 187.044C174.791 186.924 174.458 186.744 174.165 186.504C173.551 185.958 173.245 185.204 173.245 184.244V178.804H171.885V177.224H173.245V174.664H175.605V177.224H178.245V178.804H175.605V184.164C175.605 184.964 175.985 185.364 176.745 185.364C177.131 185.364 177.631 185.258 178.245 185.044L178.585 186.704ZM187.775 178.384C188.109 178.811 188.355 179.304 188.515 179.864C188.689 180.424 188.775 180.938 188.775 181.404C188.775 181.871 188.749 182.291 188.695 182.664H182.415C182.442 183.451 182.635 184.091 182.995 184.584C183.355 185.078 183.902 185.324 184.635 185.324C185.609 185.324 186.189 184.898 186.375 184.044H188.755C188.595 185.018 188.149 185.784 187.415 186.344C186.655 186.931 185.729 187.224 184.635 187.224C183.355 187.224 182.282 186.758 181.415 185.824C180.522 184.851 180.075 183.604 180.075 182.084C180.075 180.524 180.522 179.271 181.415 178.324C182.269 177.418 183.342 176.964 184.635 176.964C185.982 176.964 187.029 177.438 187.775 178.384ZM184.655 178.844C183.989 178.844 183.469 179.064 183.095 179.504C182.722 179.931 182.502 180.484 182.435 181.164H186.575C186.575 180.111 186.242 179.404 185.575 179.044C185.322 178.911 185.015 178.844 184.655 178.844ZM193.961 179.144C194.547 177.744 195.427 177.044 196.601 177.044C196.827 177.044 197.114 177.091 197.461 177.184L197.421 179.544C197.047 179.464 196.681 179.424 196.321 179.424C194.747 179.424 193.961 180.511 193.961 182.684V186.944H191.601V177.204H193.961V179.144ZM203.121 181.264C203.894 181.264 204.788 181.391 205.801 181.644V180.684C205.801 180.004 205.661 179.504 205.381 179.184C205.114 178.851 204.668 178.684 204.041 178.684C203.428 178.684 202.954 178.811 202.621 179.064C202.288 179.304 202.121 179.651 202.121 180.104H199.541C199.541 178.998 199.928 178.198 200.701 177.704C201.488 177.211 202.581 176.964 203.981 176.964C205.981 176.964 207.274 177.664 207.861 179.064C208.061 179.544 208.161 180.111 208.161 180.764V186.944H206.101L205.921 185.644C205.294 186.698 204.334 187.224 203.041 187.224C201.788 187.224 200.814 186.918 200.121 186.304C199.481 185.718 199.161 184.978 199.161 184.084C199.161 183.178 199.514 182.484 200.221 182.004C200.928 181.511 201.894 181.264 203.121 181.264ZM205.801 183.144C205.014 182.931 204.281 182.824 203.601 182.824C202.321 182.824 201.681 183.251 201.681 184.104C201.681 184.464 201.828 184.778 202.121 185.044C202.414 185.298 202.881 185.424 203.521 185.424C204.174 185.424 204.708 185.211 205.121 184.784C205.548 184.344 205.774 183.798 205.801 183.144ZM215.301 176.964C215.914 176.964 216.461 177.071 216.941 177.284C217.434 177.484 217.847 177.751 218.181 178.084C218.847 178.724 219.241 179.531 219.361 180.504L216.981 180.564C216.874 180.138 216.674 179.784 216.381 179.504C216.101 179.224 215.774 179.084 215.401 179.084C215.027 179.084 214.707 179.144 214.441 179.264C214.174 179.371 213.941 179.544 213.741 179.784C213.287 180.344 213.061 181.118 213.061 182.104C213.061 183.091 213.274 183.838 213.701 184.344C214.127 184.838 214.641 185.084 215.241 185.084C215.854 185.084 216.294 184.944 216.561 184.664C216.841 184.371 216.981 183.978 216.981 183.484H219.361C219.361 184.551 219.007 185.438 218.301 186.144C217.581 186.864 216.574 187.224 215.281 187.224C214.001 187.224 212.927 186.758 212.061 185.824C211.141 184.824 210.681 183.578 210.681 182.084C210.681 180.511 211.141 179.251 212.061 178.304C212.927 177.411 214.007 176.964 215.301 176.964ZM227.686 186.704C226.806 187.051 226.113 187.224 225.606 187.224C225.1 187.224 224.653 187.164 224.266 187.044C223.893 186.924 223.56 186.744 223.266 186.504C222.653 185.958 222.346 185.204 222.346 184.244V178.804H220.986V177.224H222.346V174.664H224.706V177.224H227.346V178.804H224.706V184.164C224.706 184.964 225.086 185.364 225.846 185.364C226.233 185.364 226.733 185.258 227.346 185.044L227.686 186.704ZM66.5233 200.224L68.4833 207.164L70.3433 200.764H72.4833L74.3433 207.184L76.3233 200.224H78.6833L75.4833 209.944H73.1633L71.3633 204.124L69.6033 209.944H67.2633L64.0433 200.224H66.5233ZM81.0195 200.204H83.3795V209.944H81.0195V200.204ZM80.7395 197.084C80.7395 196.658 80.8662 196.324 81.1195 196.084C81.3728 195.831 81.7328 195.704 82.1995 195.704C82.6528 195.704 83.0062 195.831 83.2595 196.084C83.5262 196.324 83.6595 196.658 83.6595 197.084C83.6595 197.511 83.5262 197.851 83.2595 198.104C83.0062 198.344 82.6528 198.464 82.1995 198.464C81.7328 198.464 81.3728 198.344 81.1195 198.104C80.8662 197.851 80.7395 197.511 80.7395 197.084ZM92.862 209.704C91.982 210.051 91.2887 210.224 90.782 210.224C90.2753 210.224 89.8287 210.164 89.442 210.044C89.0687 209.924 88.7353 209.744 88.442 209.504C87.8287 208.958 87.522 208.204 87.522 207.244V201.804H86.162V200.224H87.522V197.664H89.882V200.224H92.522V201.804H89.882V207.164C89.882 207.964 90.262 208.364 91.022 208.364C91.4087 208.364 91.9087 208.258 92.522 208.044L92.862 209.704ZM97.6326 201.804C98.2993 200.578 99.2726 199.964 100.553 199.964C101.833 199.964 102.773 200.358 103.373 201.144C103.986 201.931 104.293 202.971 104.293 204.264V209.944H101.933V204.264C101.933 203.544 101.759 203.004 101.413 202.644C101.066 202.271 100.579 202.084 99.9526 202.084C99.326 202.084 98.786 202.364 98.3326 202.924C97.8926 203.484 97.6593 204.324 97.6326 205.444V209.944H95.2726V196.224H97.6326V201.804ZM118.272 209.704C117.392 210.051 116.699 210.224 116.192 210.224C115.686 210.224 115.239 210.164 114.852 210.044C114.479 209.924 114.146 209.744 113.852 209.504C113.239 208.958 112.932 208.204 112.932 207.244V201.804H111.572V200.224H112.932V197.664H115.292V200.224H117.932V201.804H115.292V207.164C115.292 207.964 115.672 208.364 116.432 208.364C116.819 208.364 117.319 208.258 117.932 208.044L118.272 209.704ZM123.043 201.804C123.709 200.578 124.683 199.964 125.963 199.964C127.243 199.964 128.183 200.358 128.783 201.144C129.396 201.931 129.703 202.971 129.703 204.264V209.944H127.343V204.264C127.343 203.544 127.169 203.004 126.823 202.644C126.476 202.271 125.989 202.084 125.363 202.084C124.736 202.084 124.196 202.364 123.743 202.924C123.303 203.484 123.069 204.324 123.043 205.444V209.944H120.683V196.224H123.043V201.804ZM139.924 201.384C140.257 201.811 140.504 202.304 140.664 202.864C140.837 203.424 140.924 203.938 140.924 204.404C140.924 204.871 140.897 205.291 140.844 205.664H134.564C134.59 206.451 134.784 207.091 135.144 207.584C135.504 208.078 136.05 208.324 136.784 208.324C137.757 208.324 138.337 207.898 138.524 207.044H140.904C140.744 208.018 140.297 208.784 139.564 209.344C138.804 209.931 137.877 210.224 136.784 210.224C135.504 210.224 134.43 209.758 133.564 208.824C132.67 207.851 132.224 206.604 132.224 205.084C132.224 203.524 132.67 202.271 133.564 201.324C134.417 200.418 135.49 199.964 136.784 199.964C138.13 199.964 139.177 200.438 139.924 201.384ZM136.804 201.844C136.137 201.844 135.617 202.064 135.244 202.504C134.87 202.931 134.65 203.484 134.584 204.164H138.724C138.724 203.111 138.39 202.404 137.724 202.044C137.47 201.911 137.164 201.844 136.804 201.844ZM152.628 199.964C153.281 199.964 153.894 200.071 154.468 200.284C155.041 200.484 155.534 200.798 155.948 201.224C156.868 202.158 157.328 203.451 157.328 205.104C157.328 206.731 156.868 208.011 155.948 208.944C155.121 209.798 154.014 210.224 152.628 210.224C151.241 210.224 150.121 209.798 149.268 208.944C148.348 208.024 147.888 206.744 147.888 205.104C147.888 203.438 148.348 202.144 149.268 201.224C150.108 200.384 151.228 199.964 152.628 199.964ZM154.968 205.084C154.968 204.058 154.768 203.291 154.368 202.784C153.968 202.264 153.408 202.004 152.688 202.004C151.981 202.004 151.401 202.264 150.948 202.784C150.494 203.291 150.268 204.058 150.268 205.084C150.268 206.111 150.468 206.884 150.868 207.404C151.281 207.911 151.841 208.164 152.548 208.164C153.254 208.164 153.834 207.911 154.288 207.404C154.741 206.884 154.968 206.111 154.968 205.084ZM162.456 201.904C163.096 200.611 164.123 199.964 165.536 199.964C166.736 199.964 167.636 200.358 168.236 201.144C168.849 201.931 169.156 202.971 169.156 204.264V209.944H166.796V204.264C166.796 203.544 166.623 203.004 166.276 202.644C165.929 202.271 165.443 202.084 164.816 202.084C164.189 202.084 163.649 202.364 163.196 202.924C162.756 203.484 162.523 204.324 162.496 205.444V209.944H160.136V200.224H162.196L162.456 201.904ZM172.597 196.224H174.957V209.944H172.597V196.224ZM178.871 200.204H181.231V209.944H178.871V200.204ZM178.591 197.084C178.591 196.658 178.718 196.324 178.971 196.084C179.224 195.831 179.584 195.704 180.051 195.704C180.504 195.704 180.858 195.831 181.111 196.084C181.378 196.324 181.511 196.658 181.511 197.084C181.511 197.511 181.378 197.851 181.111 198.104C180.858 198.344 180.504 198.464 180.051 198.464C179.584 198.464 179.224 198.344 178.971 198.104C178.718 197.851 178.591 197.511 178.591 197.084ZM187.554 201.904C188.194 200.611 189.22 199.964 190.634 199.964C191.834 199.964 192.734 200.358 193.334 201.144C193.947 201.931 194.254 202.971 194.254 204.264V209.944H191.894V204.264C191.894 203.544 191.72 203.004 191.374 202.644C191.027 202.271 190.54 202.084 189.914 202.084C189.287 202.084 188.747 202.364 188.294 202.924C187.854 203.484 187.62 204.324 187.594 205.444V209.944H185.234V200.224H187.294L187.554 201.904ZM204.475 201.384C204.808 201.811 205.055 202.304 205.215 202.864C205.388 203.424 205.475 203.938 205.475 204.404C205.475 204.871 205.448 205.291 205.395 205.664H199.115C199.141 206.451 199.335 207.091 199.695 207.584C200.055 208.078 200.601 208.324 201.335 208.324C202.308 208.324 202.888 207.898 203.075 207.044H205.455C205.295 208.018 204.848 208.784 204.115 209.344C203.355 209.931 202.428 210.224 201.335 210.224C200.055 210.224 198.981 209.758 198.115 208.824C197.221 207.851 196.775 206.604 196.775 205.084C196.775 203.524 197.221 202.271 198.115 201.324C198.968 200.418 200.041 199.964 201.335 199.964C202.681 199.964 203.728 200.438 204.475 201.384ZM201.355 201.844C200.688 201.844 200.168 202.064 199.795 202.504C199.421 202.931 199.201 203.484 199.135 204.164H203.275C203.275 203.111 202.941 202.404 202.275 202.044C202.021 201.911 201.715 201.844 201.355 201.844ZM110.041 224.384C110.374 224.811 110.621 225.304 110.781 225.864C110.954 226.424 111.041 226.938 111.041 227.404C111.041 227.871 111.014 228.291 110.961 228.664H104.681C104.708 229.451 104.901 230.091 105.261 230.584C105.621 231.078 106.168 231.324 106.901 231.324C107.874 231.324 108.454 230.898 108.641 230.044H111.021C110.861 231.018 110.414 231.784 109.681 232.344C108.921 232.931 107.994 233.224 106.901 233.224C105.621 233.224 104.548 232.758 103.681 231.824C102.788 230.851 102.341 229.604 102.341 228.084C102.341 226.524 102.788 225.271 103.681 224.324C104.534 223.418 105.608 222.964 106.901 222.964C108.248 222.964 109.294 223.438 110.041 224.384ZM106.921 224.844C106.254 224.844 105.734 225.064 105.361 225.504C104.988 225.931 104.768 226.484 104.701 227.164H108.841C108.841 226.111 108.508 225.404 107.841 225.044C107.588 224.911 107.281 224.844 106.921 224.844ZM122.746 232.944H119.866L117.466 229.824L115.226 232.944H112.326L116.106 228.104L112.326 223.204H115.226L117.606 226.324L119.866 223.204H122.746L118.986 228.104L122.746 232.944ZM127.301 224.804C127.967 223.578 128.941 222.964 130.221 222.964C131.501 222.964 132.441 223.358 133.041 224.144C133.654 224.931 133.961 225.971 133.961 227.264V232.944H131.601V227.264C131.601 226.544 131.427 226.004 131.081 225.644C130.734 225.271 130.247 225.084 129.621 225.084C128.994 225.084 128.454 225.364 128.001 225.924C127.561 226.484 127.327 227.324 127.301 228.444V232.944H124.941V219.224H127.301V224.804ZM137.602 223.204H139.962V232.944H137.602V223.204ZM137.322 220.084C137.322 219.658 137.448 219.324 137.702 219.084C137.955 218.831 138.315 218.704 138.782 218.704C139.235 218.704 139.588 218.831 139.842 219.084C140.108 219.324 140.242 219.658 140.242 220.084C140.242 220.511 140.108 220.851 139.842 221.104C139.588 221.344 139.235 221.464 138.782 221.464C138.315 221.464 137.955 221.344 137.702 221.104C137.448 220.851 137.322 220.511 137.322 220.084ZM152.124 224.364C152.951 225.298 153.364 226.524 153.364 228.044C153.364 229.564 152.931 230.818 152.064 231.804C151.224 232.751 150.177 233.224 148.924 233.224C148.324 233.224 147.771 233.064 147.264 232.744C146.771 232.424 146.377 231.931 146.084 231.264L145.504 232.944H143.964V219.224H146.324V224.444C146.937 223.458 147.851 222.964 149.064 222.964C150.291 222.964 151.311 223.431 152.124 224.364ZM146.324 227.484V228.764C146.351 229.444 146.597 230.004 147.064 230.444C147.504 230.871 148.037 231.084 148.664 231.084C149.304 231.084 149.851 230.811 150.304 230.264C150.757 229.704 150.984 228.971 150.984 228.064C150.984 227.158 150.757 226.438 150.304 225.904C149.864 225.358 149.311 225.084 148.644 225.084C147.977 225.084 147.424 225.304 146.984 225.744C146.544 226.184 146.324 226.764 146.324 227.484ZM156.449 223.204H158.809V232.944H156.449V223.204ZM156.169 220.084C156.169 219.658 156.296 219.324 156.549 219.084C156.803 218.831 157.163 218.704 157.629 218.704C158.083 218.704 158.436 218.831 158.689 219.084C158.956 219.324 159.089 219.658 159.089 220.084C159.089 220.511 158.956 220.851 158.689 221.104C158.436 221.344 158.083 221.464 157.629 221.464C157.163 221.464 156.803 221.344 156.549 221.104C156.296 220.851 156.169 220.511 156.169 220.084ZM168.292 232.704C167.412 233.051 166.718 233.224 166.212 233.224C165.705 233.224 165.258 233.164 164.872 233.044C164.498 232.924 164.165 232.744 163.872 232.504C163.258 231.958 162.952 231.204 162.952 230.244V224.804H161.592V223.224H162.952V220.664H165.312V223.224H167.952V224.804H165.312V230.164C165.312 230.964 165.692 231.364 166.452 231.364C166.838 231.364 167.338 231.258 167.952 231.044L168.292 232.704Z" fill="white"/>
</svg>
