<svg width="303" height="313" viewBox="0 0 303 313" fill="none" xmlns="http://www.w3.org/2000/svg">
<ellipse cx="151.045" cy="151.452" rx="134.667" ry="135.848" fill="#FDE54A"/>
<ellipse cx="134.667" cy="177.152" rx="134.667" ry="135.848" fill="#011149"/>
<path d="M102.052 137.36C100.132 137.36 98.464 136.976 97.048 136.208C95.656 135.416 94.588 134.36 93.844 133.04C93.124 131.72 92.764 130.28 92.764 128.72C92.764 126.656 93.592 124.448 95.248 122.096L102.124 112.52C102.148 112.496 102.208 112.412 102.304 112.268C102.424 112.124 102.568 112.016 102.736 111.944C102.904 111.848 103.096 111.8 103.312 111.8H105.076C105.292 111.8 105.46 111.884 105.58 112.052C105.724 112.196 105.796 112.376 105.796 112.592C105.796 112.712 105.736 112.868 105.616 113.06L100.36 120.404C100.984 120.26 101.68 120.188 102.448 120.188C104.2 120.188 105.736 120.584 107.056 121.376C108.4 122.144 109.432 123.176 110.152 124.472C110.896 125.744 111.268 127.148 111.268 128.684C111.268 130.22 110.896 131.66 110.152 133.004C109.432 134.324 108.376 135.38 106.984 136.172C105.592 136.964 103.948 137.36 102.052 137.36ZM102.016 134.372C103.072 134.372 104.044 134.156 104.932 133.724C105.82 133.292 106.528 132.656 107.056 131.816C107.584 130.952 107.848 129.92 107.848 128.72C107.848 127.544 107.572 126.536 107.02 125.696C106.492 124.832 105.784 124.184 104.896 123.752C104.008 123.296 103.048 123.068 102.016 123.068C100.984 123.068 100.024 123.296 99.136 123.752C98.248 124.184 97.54 124.832 97.012 125.696C96.484 126.536 96.22 127.544 96.22 128.72C96.22 129.92 96.484 130.952 97.012 131.816C97.54 132.656 98.248 133.292 99.136 133.724C100.024 134.156 100.984 134.372 102.016 134.372ZM123.962 137.36C120.866 137.36 118.598 136.46 117.158 134.66C115.742 132.836 114.986 130.46 114.89 127.532L114.854 124.436L114.89 121.232C114.962 118.328 115.718 115.976 117.158 114.176C118.622 112.352 120.89 111.44 123.962 111.44C127.058 111.44 129.326 112.352 130.766 114.176C132.23 115.976 132.998 118.328 133.07 121.232C133.094 121.904 133.106 122.972 133.106 124.436C133.106 125.852 133.094 126.884 133.07 127.532C132.974 130.46 132.206 132.836 130.766 134.66C129.35 136.46 127.082 137.36 123.962 137.36ZM123.962 134.372C125.81 134.372 127.202 133.76 128.138 132.536C129.074 131.312 129.566 129.584 129.614 127.352C129.638 126.656 129.65 125.66 129.65 124.364C129.65 123.044 129.638 122.06 129.614 121.412C129.566 119.204 129.062 117.488 128.102 116.264C127.166 115.016 125.786 114.392 123.962 114.392C122.138 114.392 120.758 115.016 119.822 116.264C118.886 117.488 118.394 119.204 118.346 121.412L118.31 124.364L118.346 127.352C118.394 129.584 118.886 131.312 119.822 132.536C120.758 133.76 122.138 134.372 123.962 134.372ZM142.315 124.436C140.755 124.436 139.519 124.028 138.607 123.212C137.719 122.372 137.239 121.22 137.167 119.756C137.143 119.348 137.131 118.82 137.131 118.172C137.131 117.476 137.143 116.912 137.167 116.48C137.239 114.992 137.707 113.816 138.571 112.952C139.435 112.064 140.683 111.62 142.315 111.62C143.947 111.62 145.195 112.064 146.059 112.952C146.947 113.816 147.427 114.992 147.499 116.48C147.547 117.344 147.571 117.908 147.571 118.172C147.571 118.412 147.547 118.94 147.499 119.756C147.427 121.22 146.935 122.372 146.023 123.212C145.111 124.028 143.875 124.436 142.315 124.436ZM139.291 137C139.075 137 138.895 136.94 138.751 136.82C138.607 136.676 138.535 136.496 138.535 136.28C138.535 136.136 138.583 136.004 138.679 135.884L156.463 112.484C156.655 112.22 156.823 112.04 156.967 111.944C157.135 111.848 157.363 111.8 157.651 111.8H158.803C159.019 111.8 159.187 111.872 159.307 112.016C159.451 112.136 159.523 112.304 159.523 112.52C159.523 112.664 159.475 112.796 159.379 112.916L141.631 136.316C141.439 136.556 141.259 136.736 141.091 136.856C140.947 136.952 140.731 137 140.443 137H139.291ZM142.315 122.24C143.179 122.24 143.815 121.988 144.223 121.484C144.631 120.98 144.871 120.356 144.943 119.612C144.991 118.748 145.015 118.244 145.015 118.1C145.015 117.884 144.991 117.392 144.943 116.624C144.895 115.88 144.655 115.256 144.223 114.752C143.815 114.224 143.179 113.96 142.315 113.96C141.451 113.96 140.815 114.224 140.407 114.752C139.999 115.256 139.771 115.88 139.723 116.624C139.699 117.008 139.687 117.5 139.687 118.1C139.687 118.676 139.699 119.18 139.723 119.612C139.795 120.332 140.023 120.956 140.407 121.484C140.815 121.988 141.451 122.24 142.315 122.24ZM155.707 137.216C154.147 137.216 152.911 136.772 151.999 135.884C151.111 134.996 150.631 133.82 150.559 132.356C150.511 131.636 150.487 131.156 150.487 130.916C150.487 130.676 150.511 130.076 150.559 129.116C150.631 127.628 151.099 126.452 151.963 125.588C152.827 124.7 154.075 124.256 155.707 124.256C157.339 124.256 158.587 124.7 159.451 125.588C160.339 126.452 160.819 127.628 160.891 129.116C160.939 129.98 160.963 130.532 160.963 130.772C160.963 131.012 160.939 131.54 160.891 132.356C160.819 133.82 160.327 134.996 159.415 135.884C158.503 136.772 157.267 137.216 155.707 137.216ZM155.707 134.876C156.571 134.876 157.207 134.624 157.615 134.12C158.023 133.616 158.263 132.992 158.335 132.248C158.383 131.384 158.407 130.868 158.407 130.7C158.407 130.508 158.383 130.028 158.335 129.26C158.287 128.516 158.047 127.892 157.615 127.388C157.207 126.86 156.571 126.596 155.707 126.596C154.843 126.596 154.207 126.86 153.799 127.388C153.391 127.892 153.163 128.516 153.115 129.26C153.091 129.644 153.079 130.124 153.079 130.7C153.079 131.3 153.091 131.816 153.115 132.248C153.163 132.968 153.391 133.592 153.799 134.12C154.207 134.624 154.843 134.876 155.707 134.876Z" fill="white"/>
<path d="M76.5438 153.964C77.1972 153.964 77.8105 154.071 78.3838 154.284C78.9572 154.484 79.4505 154.798 79.8638 155.224C80.7838 156.158 81.2438 157.451 81.2438 159.104C81.2438 160.731 80.7838 162.011 79.8638 162.944C79.0372 163.798 77.9305 164.224 76.5438 164.224C75.1572 164.224 74.0372 163.798 73.1838 162.944C72.2638 162.024 71.8038 160.744 71.8038 159.104C71.8038 157.438 72.2638 156.144 73.1838 155.224C74.0238 154.384 75.1438 153.964 76.5438 153.964ZM78.8838 159.084C78.8838 158.058 78.6838 157.291 78.2838 156.784C77.8838 156.264 77.3238 156.004 76.6038 156.004C75.8972 156.004 75.3172 156.264 74.8638 156.784C74.4105 157.291 74.1838 158.058 74.1838 159.084C74.1838 160.111 74.3838 160.884 74.7838 161.404C75.1972 161.911 75.7572 162.164 76.4638 162.164C77.1705 162.164 77.7505 161.911 78.2038 161.404C78.6572 160.884 78.8838 160.111 78.8838 159.084ZM82.992 154.224H84.432V153.084C84.432 152.084 84.7253 151.318 85.312 150.784C85.8453 150.304 86.5386 150.064 87.392 150.064C87.9386 150.064 88.612 150.144 89.412 150.304L88.952 152.124C88.5786 151.991 88.2386 151.924 87.932 151.924C87.6386 151.924 87.3786 152.011 87.152 152.184C86.9253 152.344 86.812 152.651 86.812 153.104V154.224H88.592V155.804H86.812V163.944H84.432V155.804H82.992V154.224ZM102.895 162.184C102.281 163.478 101.295 164.124 99.9348 164.124C98.2148 164.124 97.0814 163.451 96.5348 162.104C96.3348 161.638 96.2348 161.071 96.2348 160.404V154.204H98.5948V160.164C98.5948 160.804 98.7481 161.284 99.0548 161.604C99.3614 161.911 99.7348 162.064 100.175 162.064C100.628 162.064 101.008 162.004 101.315 161.884C101.621 161.751 101.888 161.558 102.115 161.304C102.608 160.731 102.868 159.964 102.895 159.004V154.204H105.255V163.944H102.895V162.184ZM110.294 160.984C110.321 161.904 110.994 162.364 112.314 162.364C112.821 162.364 113.234 162.258 113.554 162.044C113.887 161.818 114.054 161.558 114.054 161.264C114.054 160.971 113.954 160.744 113.754 160.584C113.554 160.424 113.241 160.278 112.814 160.144L110.694 159.384C109.121 158.838 108.334 157.944 108.334 156.704C108.334 155.878 108.701 155.218 109.434 154.724C110.181 154.218 111.174 153.964 112.414 153.964C113.667 153.964 114.627 154.238 115.294 154.784C115.974 155.331 116.327 156.018 116.354 156.844H114.134C114.107 156.524 113.954 156.271 113.674 156.084C113.394 155.898 112.994 155.804 112.474 155.804C111.954 155.804 111.547 155.911 111.254 156.124C110.974 156.324 110.834 156.558 110.834 156.824C110.834 157.291 111.227 157.638 112.014 157.864L114.314 158.724C115.074 158.978 115.654 159.304 116.054 159.704C116.467 160.091 116.674 160.598 116.674 161.224C116.674 162.024 116.294 162.718 115.534 163.304C114.747 163.918 113.707 164.224 112.414 164.224C111.121 164.224 110.081 163.944 109.294 163.384C108.507 162.811 108.107 162.011 108.094 160.984H110.294ZM126.301 155.384C126.634 155.811 126.881 156.304 127.041 156.864C127.214 157.424 127.301 157.938 127.301 158.404C127.301 158.871 127.274 159.291 127.221 159.664H120.941C120.967 160.451 121.161 161.091 121.521 161.584C121.881 162.078 122.427 162.324 123.161 162.324C124.134 162.324 124.714 161.898 124.901 161.044H127.281C127.121 162.018 126.674 162.784 125.941 163.344C125.181 163.931 124.254 164.224 123.161 164.224C121.881 164.224 120.807 163.758 119.941 162.824C119.047 161.851 118.601 160.604 118.601 159.084C118.601 157.524 119.047 156.271 119.941 155.324C120.794 154.418 121.867 153.964 123.161 153.964C124.507 153.964 125.554 154.438 126.301 155.384ZM123.181 155.844C122.514 155.844 121.994 156.064 121.621 156.504C121.247 156.931 121.027 157.484 120.961 158.164H125.101C125.101 157.111 124.767 156.404 124.101 156.044C123.847 155.911 123.541 155.844 123.181 155.844ZM132.486 156.144C133.073 154.744 133.953 154.044 135.126 154.044C135.353 154.044 135.64 154.091 135.986 154.184L135.946 156.544C135.573 156.464 135.206 156.424 134.846 156.424C133.273 156.424 132.486 157.511 132.486 159.684V163.944H130.126V154.204H132.486V156.144ZM139.766 160.984C139.793 161.904 140.466 162.364 141.786 162.364C142.293 162.364 142.706 162.258 143.026 162.044C143.36 161.818 143.526 161.558 143.526 161.264C143.526 160.971 143.426 160.744 143.226 160.584C143.026 160.424 142.713 160.278 142.286 160.144L140.166 159.384C138.593 158.838 137.806 157.944 137.806 156.704C137.806 155.878 138.173 155.218 138.906 154.724C139.653 154.218 140.646 153.964 141.886 153.964C143.14 153.964 144.1 154.238 144.766 154.784C145.446 155.331 145.8 156.018 145.826 156.844H143.606C143.58 156.524 143.426 156.271 143.146 156.084C142.866 155.898 142.466 155.804 141.946 155.804C141.426 155.804 141.02 155.911 140.726 156.124C140.446 156.324 140.306 156.558 140.306 156.824C140.306 157.291 140.7 157.638 141.486 157.864L143.786 158.724C144.546 158.978 145.126 159.304 145.526 159.704C145.94 160.091 146.146 160.598 146.146 161.224C146.146 162.024 145.766 162.718 145.006 163.304C144.22 163.918 143.18 164.224 141.886 164.224C140.593 164.224 139.553 163.944 138.766 163.384C137.98 162.811 137.58 162.011 137.566 160.984H139.766ZM154.912 154.224L156.872 161.164L158.732 154.764H160.872L162.732 161.184L164.712 154.224H167.072L163.872 163.944H161.552L159.752 158.124L157.992 163.944H155.652L152.432 154.224H154.912ZM172.408 158.264C173.182 158.264 174.075 158.391 175.088 158.644V157.684C175.088 157.004 174.948 156.504 174.668 156.184C174.402 155.851 173.955 155.684 173.328 155.684C172.715 155.684 172.242 155.811 171.908 156.064C171.575 156.304 171.408 156.651 171.408 157.104H168.828C168.828 155.998 169.215 155.198 169.988 154.704C170.775 154.211 171.868 153.964 173.268 153.964C175.268 153.964 176.562 154.664 177.148 156.064C177.348 156.544 177.448 157.111 177.448 157.764V163.944H175.388L175.208 162.644C174.582 163.698 173.622 164.224 172.328 164.224C171.075 164.224 170.102 163.918 169.408 163.304C168.768 162.718 168.448 161.978 168.448 161.084C168.448 160.178 168.802 159.484 169.508 159.004C170.215 158.511 171.182 158.264 172.408 158.264ZM175.088 160.144C174.302 159.931 173.568 159.824 172.888 159.824C171.608 159.824 170.968 160.251 170.968 161.104C170.968 161.464 171.115 161.778 171.408 162.044C171.702 162.298 172.168 162.424 172.808 162.424C173.462 162.424 173.995 162.211 174.408 161.784C174.835 161.344 175.062 160.798 175.088 160.144ZM183.208 155.904C183.848 154.611 184.875 153.964 186.288 153.964C187.488 153.964 188.388 154.358 188.988 155.144C189.601 155.931 189.908 156.971 189.908 158.264V163.944H187.548V158.264C187.548 157.544 187.375 157.004 187.028 156.644C186.681 156.271 186.195 156.084 185.568 156.084C184.941 156.084 184.401 156.364 183.948 156.924C183.508 157.484 183.275 158.324 183.248 159.444V163.944H180.888V154.224H182.948L183.208 155.904ZM198.829 163.704C197.949 164.051 197.255 164.224 196.749 164.224C196.242 164.224 195.795 164.164 195.409 164.044C195.035 163.924 194.702 163.744 194.409 163.504C193.795 162.958 193.489 162.204 193.489 161.244V155.804H192.129V154.224H193.489V151.664H195.849V154.224H198.489V155.804H195.849V161.164C195.849 161.964 196.229 162.364 196.989 162.364C197.375 162.364 197.875 162.258 198.489 162.044L198.829 163.704ZM84.6493 176.964C85.3026 176.964 85.916 177.071 86.4893 177.284C87.0626 177.484 87.556 177.798 87.9693 178.224C88.8893 179.158 89.3493 180.451 89.3493 182.104C89.3493 183.731 88.8893 185.011 87.9693 185.944C87.1426 186.798 86.036 187.224 84.6493 187.224C83.2626 187.224 82.1426 186.798 81.2893 185.944C80.3693 185.024 79.9093 183.744 79.9093 182.104C79.9093 180.438 80.3693 179.144 81.2893 178.224C82.1293 177.384 83.2493 176.964 84.6493 176.964ZM86.9893 182.084C86.9893 181.058 86.7893 180.291 86.3893 179.784C85.9893 179.264 85.4293 179.004 84.7093 179.004C84.0026 179.004 83.4226 179.264 82.9693 179.784C82.516 180.291 82.2893 181.058 82.2893 182.084C82.2893 183.111 82.4893 183.884 82.8893 184.404C83.3026 184.911 83.8626 185.164 84.5693 185.164C85.276 185.164 85.856 184.911 86.3093 184.404C86.7626 183.884 86.9893 183.111 86.9893 182.084ZM94.3174 178.544C94.9308 177.491 95.8641 176.964 97.1174 176.964C98.3174 176.964 99.3441 177.418 100.197 178.324C101.104 179.284 101.557 180.538 101.557 182.084C101.557 183.644 101.097 184.904 100.177 185.864C99.3241 186.771 98.3041 187.224 97.1174 187.224C95.9308 187.224 95.0641 186.871 94.5174 186.164V191.684H92.1574V177.224H94.0974L94.3174 178.544ZM96.6974 185.084C96.9774 185.084 97.2641 185.024 97.5574 184.904C97.8641 184.784 98.1374 184.598 98.3774 184.344C98.9108 183.784 99.1774 183.038 99.1774 182.104C99.1774 181.158 98.9441 180.418 98.4774 179.884C98.0241 179.351 97.4641 179.084 96.7974 179.084C96.1441 179.084 95.6041 179.278 95.1774 179.664C94.7641 180.038 94.5441 180.578 94.5174 181.284V183.024C94.5174 183.651 94.7374 184.158 95.1774 184.544C95.5908 184.904 96.0974 185.084 96.6974 185.084ZM111.144 178.384C111.478 178.811 111.724 179.304 111.884 179.864C112.058 180.424 112.144 180.938 112.144 181.404C112.144 181.871 112.118 182.291 112.064 182.664H105.784C105.811 183.451 106.004 184.091 106.364 184.584C106.724 185.078 107.271 185.324 108.004 185.324C108.978 185.324 109.558 184.898 109.744 184.044H112.124C111.964 185.018 111.518 185.784 110.784 186.344C110.024 186.931 109.098 187.224 108.004 187.224C106.724 187.224 105.651 186.758 104.784 185.824C103.891 184.851 103.444 183.604 103.444 182.084C103.444 180.524 103.891 179.271 104.784 178.324C105.638 177.418 106.711 176.964 108.004 176.964C109.351 176.964 110.398 177.438 111.144 178.384ZM108.024 178.844C107.358 178.844 106.838 179.064 106.464 179.504C106.091 179.931 105.871 180.484 105.804 181.164H109.944C109.944 180.111 109.611 179.404 108.944 179.044C108.691 178.911 108.384 178.844 108.024 178.844ZM117.29 178.904C117.93 177.611 118.957 176.964 120.37 176.964C121.57 176.964 122.47 177.358 123.07 178.144C123.683 178.931 123.99 179.971 123.99 181.264V186.944H121.63V181.264C121.63 180.544 121.457 180.004 121.11 179.644C120.763 179.271 120.277 179.084 119.65 179.084C119.023 179.084 118.483 179.364 118.03 179.924C117.59 180.484 117.357 181.324 117.33 182.444V186.944H114.97V177.224H117.03L117.29 178.904ZM126.491 179.884H132.111V181.944H126.491V179.884ZM141.672 178.384C142.005 178.811 142.252 179.304 142.412 179.864C142.585 180.424 142.672 180.938 142.672 181.404C142.672 181.871 142.645 182.291 142.592 182.664H136.312C136.338 183.451 136.532 184.091 136.892 184.584C137.252 185.078 137.798 185.324 138.532 185.324C139.505 185.324 140.085 184.898 140.272 184.044H142.652C142.492 185.018 142.045 185.784 141.312 186.344C140.552 186.931 139.625 187.224 138.532 187.224C137.252 187.224 136.178 186.758 135.312 185.824C134.418 184.851 133.972 183.604 133.972 182.084C133.972 180.524 134.418 179.271 135.312 178.324C136.165 177.418 137.238 176.964 138.532 176.964C139.878 176.964 140.925 177.438 141.672 178.384ZM138.552 178.844C137.885 178.844 137.365 179.064 136.992 179.504C136.618 179.931 136.398 180.484 136.332 181.164H140.472C140.472 180.111 140.138 179.404 139.472 179.044C139.218 178.911 138.912 178.844 138.552 178.844ZM147.817 178.904C148.457 177.611 149.484 176.964 150.897 176.964C152.097 176.964 152.997 177.358 153.597 178.144C154.211 178.931 154.517 179.971 154.517 181.264V186.944H152.157V181.264C152.157 180.544 151.984 180.004 151.637 179.644C151.291 179.271 150.804 179.084 150.177 179.084C149.551 179.084 149.011 179.364 148.557 179.924C148.117 180.484 147.884 181.324 147.857 182.444V186.944H145.497V177.224H147.557L147.817 178.904ZM164.298 185.444C163.698 186.631 162.778 187.224 161.538 187.224C160.298 187.224 159.258 186.751 158.418 185.804C157.552 184.818 157.118 183.564 157.118 182.044C157.118 180.524 157.532 179.291 158.358 178.344C159.172 177.424 160.185 176.964 161.398 176.964C162.612 176.964 163.525 177.451 164.138 178.424V173.224H166.518V186.944H164.578L164.298 185.444ZM161.838 179.084C161.172 179.084 160.612 179.358 160.158 179.904C159.718 180.438 159.498 181.158 159.498 182.064C159.498 182.971 159.725 183.704 160.178 184.264C160.632 184.811 161.205 185.084 161.898 185.084C162.472 185.084 162.985 184.858 163.438 184.404C163.905 183.938 164.138 183.351 164.138 182.644V181.384C164.112 180.691 163.878 180.124 163.438 179.684C163.038 179.284 162.505 179.084 161.838 179.084ZM177.023 178.384C177.357 178.811 177.603 179.304 177.763 179.864C177.937 180.424 178.023 180.938 178.023 181.404C178.023 181.871 177.997 182.291 177.943 182.664H171.663C171.69 183.451 171.883 184.091 172.243 184.584C172.603 185.078 173.15 185.324 173.883 185.324C174.857 185.324 175.437 184.898 175.623 184.044H178.003C177.843 185.018 177.397 185.784 176.663 186.344C175.903 186.931 174.977 187.224 173.883 187.224C172.603 187.224 171.53 186.758 170.663 185.824C169.77 184.851 169.323 183.604 169.323 182.084C169.323 180.524 169.77 179.271 170.663 178.324C171.517 177.418 172.59 176.964 173.883 176.964C175.23 176.964 176.277 177.438 177.023 178.384ZM173.903 178.844C173.237 178.844 172.717 179.064 172.343 179.504C171.97 179.931 171.75 180.484 171.683 181.164H175.823C175.823 180.111 175.49 179.404 174.823 179.044C174.57 178.911 174.263 178.844 173.903 178.844ZM187.189 185.444C186.589 186.631 185.669 187.224 184.429 187.224C183.189 187.224 182.149 186.751 181.309 185.804C180.442 184.818 180.009 183.564 180.009 182.044C180.009 180.524 180.422 179.291 181.249 178.344C182.062 177.424 183.075 176.964 184.289 176.964C185.502 176.964 186.415 177.451 187.029 178.424V173.224H189.409V186.944H187.469L187.189 185.444ZM184.729 179.084C184.062 179.084 183.502 179.358 183.049 179.904C182.609 180.438 182.389 181.158 182.389 182.064C182.389 182.971 182.615 183.704 183.069 184.264C183.522 184.811 184.095 185.084 184.789 185.084C185.362 185.084 185.875 184.858 186.329 184.404C186.795 183.938 187.029 183.351 187.029 182.644V181.384C187.002 180.691 186.769 180.124 186.329 179.684C185.929 179.284 185.395 179.084 184.729 179.084ZM48.8727 208.684C48.3927 209.711 47.566 210.224 46.3927 210.224C45.1393 210.224 44.086 209.771 43.2327 208.864C42.3127 207.904 41.8527 206.644 41.8527 205.084C41.8527 203.551 42.2993 202.298 43.1927 201.324C44.0327 200.418 45.0593 199.964 46.2727 199.964C46.8727 199.964 47.426 200.111 47.9327 200.404C48.4527 200.684 48.8727 201.124 49.1927 201.724L49.7127 200.224H51.2527V211.444C51.2527 212.018 51.3193 212.398 51.4527 212.584C51.5993 212.771 51.7593 212.904 51.9327 212.984C52.106 213.078 52.3193 213.164 52.5727 213.244L51.8927 214.964C50.7993 214.698 50.0193 214.271 49.5527 213.684C49.0993 213.098 48.8727 212.291 48.8727 211.264V208.684ZM48.8727 204.384C48.8727 203.651 48.6593 203.084 48.2327 202.684C47.806 202.284 47.2593 202.084 46.5927 202.084C45.9393 202.084 45.3793 202.351 44.9127 202.884C44.4593 203.418 44.2327 204.151 44.2327 205.084C44.2327 206.031 44.4993 206.784 45.0327 207.344C45.4993 207.838 46.066 208.084 46.7327 208.084C47.2793 208.084 47.7593 207.918 48.1727 207.584C48.6127 207.211 48.846 206.724 48.8727 206.124V204.384ZM61.4397 208.184C60.8264 209.478 59.8397 210.124 58.4797 210.124C56.7597 210.124 55.6264 209.451 55.0797 208.104C54.8797 207.638 54.7797 207.071 54.7797 206.404V200.204H57.1397V206.164C57.1397 206.804 57.293 207.284 57.5997 207.604C57.9064 207.911 58.2797 208.064 58.7197 208.064C59.173 208.064 59.553 208.004 59.8597 207.884C60.1664 207.751 60.433 207.558 60.6597 207.304C61.153 206.731 61.413 205.964 61.4397 205.004V200.204H63.7997V209.944H61.4397V208.184ZM74.2988 201.384C74.6321 201.811 74.8788 202.304 75.0388 202.864C75.2121 203.424 75.2988 203.938 75.2988 204.404C75.2988 204.871 75.2721 205.291 75.2188 205.664H68.9388C68.9654 206.451 69.1588 207.091 69.5188 207.584C69.8788 208.078 70.4254 208.324 71.1588 208.324C72.1321 208.324 72.7121 207.898 72.8988 207.044H75.2788C75.1188 208.018 74.6721 208.784 73.9388 209.344C73.1788 209.931 72.2521 210.224 71.1588 210.224C69.8788 210.224 68.8054 209.758 67.9388 208.824C67.0454 207.851 66.5988 206.604 66.5988 205.084C66.5988 203.524 67.0454 202.271 67.9388 201.324C68.7921 200.418 69.8654 199.964 71.1588 199.964C72.5054 199.964 73.5521 200.438 74.2988 201.384ZM71.1788 201.844C70.5121 201.844 69.9921 202.064 69.6188 202.504C69.2454 202.931 69.0254 203.484 68.9588 204.164H73.0988C73.0988 203.111 72.7654 202.404 72.0988 202.044C71.8454 201.911 71.5388 201.844 71.1788 201.844ZM79.4442 206.984C79.4709 207.904 80.1442 208.364 81.4642 208.364C81.9709 208.364 82.3842 208.258 82.7042 208.044C83.0376 207.818 83.2042 207.558 83.2042 207.264C83.2042 206.971 83.1042 206.744 82.9042 206.584C82.7042 206.424 82.3909 206.278 81.9642 206.144L79.8442 205.384C78.2709 204.838 77.4842 203.944 77.4842 202.704C77.4842 201.878 77.8509 201.218 78.5842 200.724C79.3309 200.218 80.3242 199.964 81.5642 199.964C82.8176 199.964 83.7776 200.238 84.4442 200.784C85.1242 201.331 85.4776 202.018 85.5042 202.844H83.2842C83.2576 202.524 83.1042 202.271 82.8242 202.084C82.5442 201.898 82.1442 201.804 81.6242 201.804C81.1042 201.804 80.6976 201.911 80.4042 202.124C80.1242 202.324 79.9842 202.558 79.9842 202.824C79.9842 203.291 80.3776 203.638 81.1642 203.864L83.4642 204.724C84.2242 204.978 84.8042 205.304 85.2042 205.704C85.6176 206.091 85.8242 206.598 85.8242 207.224C85.8242 208.024 85.4442 208.718 84.6842 209.304C83.8976 209.918 82.8576 210.224 81.5642 210.224C80.2709 210.224 79.2309 209.944 78.4442 209.384C77.6576 208.811 77.2576 208.011 77.2442 206.984H79.4442ZM94.1511 209.704C93.2711 210.051 92.5778 210.224 92.0711 210.224C91.5644 210.224 91.1178 210.164 90.7311 210.044C90.3578 209.924 90.0244 209.744 89.7311 209.504C89.1178 208.958 88.8111 208.204 88.8111 207.244V201.804H87.4511V200.224H88.8111V197.664H91.1711V200.224H93.8111V201.804H91.1711V207.164C91.1711 207.964 91.5511 208.364 92.3111 208.364C92.6978 208.364 93.1978 208.258 93.8111 208.044L94.1511 209.704ZM96.7617 200.204H99.1217V209.944H96.7617V200.204ZM96.4817 197.084C96.4817 196.658 96.6084 196.324 96.8617 196.084C97.1151 195.831 97.4751 195.704 97.9417 195.704C98.3951 195.704 98.7484 195.831 99.0017 196.084C99.2684 196.324 99.4017 196.658 99.4017 197.084C99.4017 197.511 99.2684 197.851 99.0017 198.104C98.7484 198.344 98.3951 198.464 97.9417 198.464C97.4751 198.464 97.1151 198.344 96.8617 198.104C96.6084 197.851 96.4817 197.511 96.4817 197.084ZM106.944 199.964C107.598 199.964 108.211 200.071 108.784 200.284C109.358 200.484 109.851 200.798 110.264 201.224C111.184 202.158 111.644 203.451 111.644 205.104C111.644 206.731 111.184 208.011 110.264 208.944C109.438 209.798 108.331 210.224 106.944 210.224C105.558 210.224 104.438 209.798 103.584 208.944C102.664 208.024 102.204 206.744 102.204 205.104C102.204 203.438 102.664 202.144 103.584 201.224C104.424 200.384 105.544 199.964 106.944 199.964ZM109.284 205.084C109.284 204.058 109.084 203.291 108.684 202.784C108.284 202.264 107.724 202.004 107.004 202.004C106.298 202.004 105.718 202.264 105.264 202.784C104.811 203.291 104.584 204.058 104.584 205.084C104.584 206.111 104.784 206.884 105.184 207.404C105.598 207.911 106.158 208.164 106.864 208.164C107.571 208.164 108.151 207.911 108.604 207.404C109.058 206.884 109.284 206.111 109.284 205.084ZM116.772 201.904C117.412 200.611 118.439 199.964 119.852 199.964C121.052 199.964 121.952 200.358 122.552 201.144C123.166 201.931 123.472 202.971 123.472 204.264V209.944H121.112V204.264C121.112 203.544 120.939 203.004 120.592 202.644C120.246 202.271 119.759 202.084 119.132 202.084C118.506 202.084 117.966 202.364 117.512 202.924C117.072 203.484 116.839 204.324 116.812 205.444V209.944H114.452V200.224H116.512L116.772 201.904ZM128.233 206.984C128.26 207.904 128.933 208.364 130.253 208.364C130.76 208.364 131.173 208.258 131.493 208.044C131.827 207.818 131.993 207.558 131.993 207.264C131.993 206.971 131.893 206.744 131.693 206.584C131.493 206.424 131.18 206.278 130.753 206.144L128.633 205.384C127.06 204.838 126.273 203.944 126.273 202.704C126.273 201.878 126.64 201.218 127.373 200.724C128.12 200.218 129.113 199.964 130.353 199.964C131.607 199.964 132.567 200.238 133.233 200.784C133.913 201.331 134.267 202.018 134.293 202.844H132.073C132.047 202.524 131.893 202.271 131.613 202.084C131.333 201.898 130.933 201.804 130.413 201.804C129.893 201.804 129.487 201.911 129.193 202.124C128.913 202.324 128.773 202.558 128.773 202.824C128.773 203.291 129.167 203.638 129.953 203.864L132.253 204.724C133.013 204.978 133.593 205.304 133.993 205.704C134.407 206.091 134.613 206.598 134.613 207.224C134.613 208.024 134.233 208.718 133.473 209.304C132.687 209.918 131.647 210.224 130.353 210.224C129.06 210.224 128.02 209.944 127.233 209.384C126.447 208.811 126.047 208.011 126.033 206.984H128.233ZM145.719 204.264C146.492 204.264 147.385 204.391 148.399 204.644V203.684C148.399 203.004 148.259 202.504 147.979 202.184C147.712 201.851 147.265 201.684 146.639 201.684C146.025 201.684 145.552 201.811 145.219 202.064C144.885 202.304 144.719 202.651 144.719 203.104H142.139C142.139 201.998 142.525 201.198 143.299 200.704C144.085 200.211 145.179 199.964 146.579 199.964C148.579 199.964 149.872 200.664 150.459 202.064C150.659 202.544 150.759 203.111 150.759 203.764V209.944H148.699L148.519 208.644C147.892 209.698 146.932 210.224 145.639 210.224C144.385 210.224 143.412 209.918 142.719 209.304C142.079 208.718 141.759 207.978 141.759 207.084C141.759 206.178 142.112 205.484 142.819 205.004C143.525 204.511 144.492 204.264 145.719 204.264ZM148.399 206.144C147.612 205.931 146.879 205.824 146.199 205.824C144.919 205.824 144.279 206.251 144.279 207.104C144.279 207.464 144.425 207.778 144.719 208.044C145.012 208.298 145.479 208.424 146.119 208.424C146.772 208.424 147.305 208.211 147.719 207.784C148.145 207.344 148.372 206.798 148.399 206.144ZM162.358 201.364C163.185 202.298 163.598 203.524 163.598 205.044C163.598 206.564 163.165 207.818 162.298 208.804C161.458 209.751 160.412 210.224 159.158 210.224C158.558 210.224 158.005 210.064 157.498 209.744C157.005 209.424 156.612 208.931 156.318 208.264L155.738 209.944H154.198V196.224H156.558V201.444C157.172 200.458 158.085 199.964 159.298 199.964C160.525 199.964 161.545 200.431 162.358 201.364ZM156.558 204.484V205.764C156.585 206.444 156.832 207.004 157.298 207.444C157.738 207.871 158.272 208.084 158.898 208.084C159.538 208.084 160.085 207.811 160.538 207.264C160.992 206.704 161.218 205.971 161.218 205.064C161.218 204.158 160.992 203.438 160.538 202.904C160.098 202.358 159.545 202.084 158.878 202.084C158.212 202.084 157.658 202.304 157.218 202.744C156.778 203.184 156.558 203.764 156.558 204.484ZM170.304 199.964C170.957 199.964 171.57 200.071 172.144 200.284C172.717 200.484 173.21 200.798 173.624 201.224C174.544 202.158 175.004 203.451 175.004 205.104C175.004 206.731 174.544 208.011 173.624 208.944C172.797 209.798 171.69 210.224 170.304 210.224C168.917 210.224 167.797 209.798 166.944 208.944C166.024 208.024 165.564 206.744 165.564 205.104C165.564 203.438 166.024 202.144 166.944 201.224C167.784 200.384 168.904 199.964 170.304 199.964ZM172.644 205.084C172.644 204.058 172.444 203.291 172.044 202.784C171.644 202.264 171.084 202.004 170.364 202.004C169.657 202.004 169.077 202.264 168.624 202.784C168.17 203.291 167.944 204.058 167.944 205.084C167.944 206.111 168.144 206.884 168.544 207.404C168.957 207.911 169.517 208.164 170.224 208.164C170.93 208.164 171.51 207.911 171.964 207.404C172.417 206.884 172.644 206.111 172.644 205.084ZM184.272 208.184C183.658 209.478 182.672 210.124 181.312 210.124C179.592 210.124 178.458 209.451 177.912 208.104C177.712 207.638 177.612 207.071 177.612 206.404V200.204H179.972V206.164C179.972 206.804 180.125 207.284 180.432 207.604C180.738 207.911 181.112 208.064 181.552 208.064C182.005 208.064 182.385 208.004 182.692 207.884C182.998 207.751 183.265 207.558 183.492 207.304C183.985 206.731 184.245 205.964 184.272 205.004V200.204H186.632V209.944H184.272V208.184ZM195.831 209.704C194.951 210.051 194.257 210.224 193.751 210.224C193.244 210.224 192.797 210.164 192.411 210.044C192.037 209.924 191.704 209.744 191.411 209.504C190.797 208.958 190.491 208.204 190.491 207.244V201.804H189.131V200.224H190.491V197.664H192.851V200.224H195.491V201.804H192.851V207.164C192.851 207.964 193.231 208.364 193.991 208.364C194.377 208.364 194.877 208.258 195.491 208.044L195.831 209.704ZM206.5 204.264C207.273 204.264 208.167 204.391 209.18 204.644V203.684C209.18 203.004 209.04 202.504 208.76 202.184C208.493 201.851 208.047 201.684 207.42 201.684C206.807 201.684 206.333 201.811 206 202.064C205.667 202.304 205.5 202.651 205.5 203.104H202.92C202.92 201.998 203.307 201.198 204.08 200.704C204.867 200.211 205.96 199.964 207.36 199.964C209.36 199.964 210.653 200.664 211.24 202.064C211.44 202.544 211.54 203.111 211.54 203.764V209.944H209.48L209.3 208.644C208.673 209.698 207.713 210.224 206.42 210.224C205.167 210.224 204.193 209.918 203.5 209.304C202.86 208.718 202.54 207.978 202.54 207.084C202.54 206.178 202.893 205.484 203.6 205.004C204.307 204.511 205.273 204.264 206.5 204.264ZM209.18 206.144C208.393 205.931 207.66 205.824 206.98 205.824C205.7 205.824 205.06 206.251 205.06 207.104C205.06 207.464 205.207 207.778 205.5 208.044C205.793 208.298 206.26 208.424 206.9 208.424C207.553 208.424 208.087 208.211 208.5 207.784C208.927 207.344 209.153 206.798 209.18 206.144ZM217.34 202.144C217.926 200.744 218.806 200.044 219.98 200.044C220.206 200.044 220.493 200.091 220.84 200.184L220.8 202.544C220.426 202.464 220.06 202.424 219.7 202.424C218.126 202.424 217.34 203.511 217.34 205.684V209.944H214.98V200.204H217.34V202.144ZM228.78 209.704C227.9 210.051 227.207 210.224 226.7 210.224C226.193 210.224 225.747 210.164 225.36 210.044C224.987 209.924 224.653 209.744 224.36 209.504C223.747 208.958 223.44 208.204 223.44 207.244V201.804H222.08V200.224H223.44V197.664H225.8V200.224H228.44V201.804H225.8V207.164C225.8 207.964 226.18 208.364 226.94 208.364C227.327 208.364 227.827 208.258 228.44 208.044L228.78 209.704ZM94.8544 222.964C95.5077 222.964 96.1211 223.071 96.6944 223.284C97.2677 223.484 97.7611 223.798 98.1744 224.224C99.0944 225.158 99.5544 226.451 99.5544 228.104C99.5544 229.731 99.0944 231.011 98.1744 231.944C97.3477 232.798 96.2411 233.224 94.8544 233.224C93.4677 233.224 92.3477 232.798 91.4944 231.944C90.5744 231.024 90.1144 229.744 90.1144 228.104C90.1144 226.438 90.5744 225.144 91.4944 224.224C92.3344 223.384 93.4544 222.964 94.8544 222.964ZM97.1944 228.084C97.1944 227.058 96.9944 226.291 96.5944 225.784C96.1944 225.264 95.6344 225.004 94.9144 225.004C94.2077 225.004 93.6277 225.264 93.1744 225.784C92.7211 226.291 92.4944 227.058 92.4944 228.084C92.4944 229.111 92.6944 229.884 93.0944 230.404C93.5077 230.911 94.0677 231.164 94.7744 231.164C95.4811 231.164 96.0611 230.911 96.5144 230.404C96.9677 229.884 97.1944 229.111 97.1944 228.084ZM104.723 225.144C105.309 223.744 106.189 223.044 107.363 223.044C107.589 223.044 107.876 223.091 108.223 223.184L108.183 225.544C107.809 225.464 107.443 225.424 107.083 225.424C105.509 225.424 104.723 226.511 104.723 228.684V232.944H102.363V223.204H104.723V225.144ZM118.101 224.804C118.768 223.578 119.741 222.964 121.021 222.964C122.301 222.964 123.241 223.358 123.841 224.144C124.455 224.931 124.761 225.971 124.761 227.264V232.944H122.401V227.264C122.401 226.544 122.228 226.004 121.881 225.644C121.535 225.271 121.048 225.084 120.421 225.084C119.795 225.084 119.255 225.364 118.801 225.924C118.361 226.484 118.128 227.324 118.101 228.444V232.944H115.741V219.224H118.101V224.804ZM128.402 223.204H130.762V232.944H128.402V223.204ZM128.122 220.084C128.122 219.658 128.249 219.324 128.502 219.084C128.756 218.831 129.116 218.704 129.582 218.704C130.036 218.704 130.389 218.831 130.642 219.084C130.909 219.324 131.042 219.658 131.042 220.084C131.042 220.511 130.909 220.851 130.642 221.104C130.389 221.344 130.036 221.464 129.582 221.464C129.116 221.464 128.756 221.344 128.502 221.104C128.249 220.851 128.122 220.511 128.122 220.084ZM136.085 229.984C136.112 230.904 136.785 231.364 138.105 231.364C138.612 231.364 139.025 231.258 139.345 231.044C139.678 230.818 139.845 230.558 139.845 230.264C139.845 229.971 139.745 229.744 139.545 229.584C139.345 229.424 139.032 229.278 138.605 229.144L136.485 228.384C134.912 227.838 134.125 226.944 134.125 225.704C134.125 224.878 134.492 224.218 135.225 223.724C135.972 223.218 136.965 222.964 138.205 222.964C139.458 222.964 140.418 223.238 141.085 223.784C141.765 224.331 142.118 225.018 142.145 225.844H139.925C139.898 225.524 139.745 225.271 139.465 225.084C139.185 224.898 138.785 224.804 138.265 224.804C137.745 224.804 137.338 224.911 137.045 225.124C136.765 225.324 136.625 225.558 136.625 225.824C136.625 226.291 137.018 226.638 137.805 226.864L140.105 227.724C140.865 227.978 141.445 228.304 141.845 228.704C142.258 229.091 142.465 229.598 142.465 230.224C142.465 231.024 142.085 231.718 141.325 232.304C140.538 232.918 139.498 233.224 138.205 233.224C136.912 233.224 135.872 232.944 135.085 232.384C134.298 231.811 133.898 231.011 133.885 229.984H136.085ZM150.792 232.704C149.912 233.051 149.218 233.224 148.712 233.224C148.205 233.224 147.758 233.164 147.372 233.044C146.998 232.924 146.665 232.744 146.372 232.504C145.758 231.958 145.452 231.204 145.452 230.244V224.804H144.092V223.224H145.452V220.664H147.812V223.224H150.452V224.804H147.812V230.164C147.812 230.964 148.192 231.364 148.952 231.364C149.338 231.364 149.838 231.258 150.452 231.044L150.792 232.704ZM157.022 222.964C157.676 222.964 158.289 223.071 158.862 223.284C159.436 223.484 159.929 223.798 160.342 224.224C161.262 225.158 161.722 226.451 161.722 228.104C161.722 229.731 161.262 231.011 160.342 231.944C159.516 232.798 158.409 233.224 157.022 233.224C155.636 233.224 154.516 232.798 153.662 231.944C152.742 231.024 152.282 229.744 152.282 228.104C152.282 226.438 152.742 225.144 153.662 224.224C154.502 223.384 155.622 222.964 157.022 222.964ZM159.362 228.084C159.362 227.058 159.162 226.291 158.762 225.784C158.362 225.264 157.802 225.004 157.082 225.004C156.376 225.004 155.796 225.264 155.342 225.784C154.889 226.291 154.662 227.058 154.662 228.084C154.662 229.111 154.862 229.884 155.262 230.404C155.676 230.911 156.236 231.164 156.942 231.164C157.649 231.164 158.229 230.911 158.682 230.404C159.136 229.884 159.362 229.111 159.362 228.084ZM166.89 225.144C167.477 223.744 168.357 223.044 169.53 223.044C169.757 223.044 170.044 223.091 170.39 223.184L170.35 225.544C169.977 225.464 169.61 225.424 169.25 225.424C167.677 225.424 166.89 226.511 166.89 228.684V232.944H164.53V223.204H166.89V225.144ZM174.051 223.224L176.391 230.224L178.431 223.224H180.831L177.111 234.704C176.724 235.864 176.251 236.698 175.691 237.204C175.144 237.711 174.444 237.964 173.591 237.964C172.724 237.964 171.857 237.751 170.991 237.324V235.244C171.684 235.684 172.384 235.904 173.091 235.904C173.557 235.904 173.937 235.718 174.231 235.344C174.537 234.971 174.784 234.484 174.971 233.884L175.271 232.944L171.371 223.224H174.051Z" fill="white"/>
</svg>
