<svg width="303" height="313" viewBox="0 0 303 313" fill="none" xmlns="http://www.w3.org/2000/svg">
<ellipse cx="151.045" cy="151.452" rx="134.667" ry="135.848" fill="#FDE54A"/>
<ellipse cx="134.667" cy="177.152" rx="134.667" ry="135.848" fill="#011149"/>
<path d="M100.936 137C100.696 137 100.504 136.928 100.36 136.784C100.216 136.616 100.144 136.412 100.144 136.172V115.868L94.096 120.512C93.928 120.656 93.748 120.728 93.556 120.728C93.34 120.728 93.136 120.608 92.944 120.368L92.08 119.252C91.96 119.084 91.9 118.916 91.9 118.748C91.9 118.484 92.02 118.268 92.26 118.1L100.072 112.052C100.336 111.884 100.648 111.8 101.008 111.8H102.7C102.94 111.8 103.132 111.884 103.276 112.052C103.444 112.196 103.528 112.388 103.528 112.628V136.172C103.528 136.412 103.444 136.616 103.276 136.784C103.132 136.928 102.94 137 102.7 137H100.936ZM117.669 137.36C114.573 137.36 112.305 136.46 110.865 134.66C109.449 132.836 108.693 130.46 108.597 127.532L108.561 124.436L108.597 121.232C108.669 118.328 109.425 115.976 110.865 114.176C112.329 112.352 114.597 111.44 117.669 111.44C120.765 111.44 123.033 112.352 124.473 114.176C125.937 115.976 126.705 118.328 126.777 121.232C126.801 121.904 126.813 122.972 126.813 124.436C126.813 125.852 126.801 126.884 126.777 127.532C126.681 130.46 125.913 132.836 124.473 134.66C123.057 136.46 120.789 137.36 117.669 137.36ZM117.669 134.372C119.517 134.372 120.909 133.76 121.845 132.536C122.781 131.312 123.273 129.584 123.321 127.352C123.345 126.656 123.357 125.66 123.357 124.364C123.357 123.044 123.345 122.06 123.321 121.412C123.273 119.204 122.769 117.488 121.809 116.264C120.873 115.016 119.493 114.392 117.669 114.392C115.845 114.392 114.465 115.016 113.529 116.264C112.593 117.488 112.101 119.204 112.053 121.412L112.017 124.364L112.053 127.352C112.101 129.584 112.593 131.312 113.529 132.536C114.465 133.76 115.845 134.372 117.669 134.372ZM140.45 137.36C137.354 137.36 135.086 136.46 133.646 134.66C132.23 132.836 131.474 130.46 131.378 127.532L131.342 124.436L131.378 121.232C131.45 118.328 132.206 115.976 133.646 114.176C135.11 112.352 137.378 111.44 140.45 111.44C143.546 111.44 145.814 112.352 147.254 114.176C148.718 115.976 149.486 118.328 149.558 121.232C149.582 121.904 149.594 122.972 149.594 124.436C149.594 125.852 149.582 126.884 149.558 127.532C149.462 130.46 148.694 132.836 147.254 134.66C145.838 136.46 143.57 137.36 140.45 137.36ZM140.45 134.372C142.298 134.372 143.69 133.76 144.626 132.536C145.562 131.312 146.054 129.584 146.102 127.352C146.126 126.656 146.138 125.66 146.138 124.364C146.138 123.044 146.126 122.06 146.102 121.412C146.054 119.204 145.55 117.488 144.59 116.264C143.654 115.016 142.274 114.392 140.45 114.392C138.626 114.392 137.246 115.016 136.31 116.264C135.374 117.488 134.882 119.204 134.834 121.412L134.798 124.364L134.834 127.352C134.882 129.584 135.374 131.312 136.31 132.536C137.246 133.76 138.626 134.372 140.45 134.372ZM158.803 124.436C157.243 124.436 156.007 124.028 155.095 123.212C154.207 122.372 153.727 121.22 153.655 119.756C153.631 119.348 153.619 118.82 153.619 118.172C153.619 117.476 153.631 116.912 153.655 116.48C153.727 114.992 154.195 113.816 155.059 112.952C155.923 112.064 157.171 111.62 158.803 111.62C160.435 111.62 161.683 112.064 162.547 112.952C163.435 113.816 163.915 114.992 163.987 116.48C164.035 117.344 164.059 117.908 164.059 118.172C164.059 118.412 164.035 118.94 163.987 119.756C163.915 121.22 163.423 122.372 162.511 123.212C161.599 124.028 160.363 124.436 158.803 124.436ZM155.779 137C155.563 137 155.383 136.94 155.239 136.82C155.095 136.676 155.023 136.496 155.023 136.28C155.023 136.136 155.071 136.004 155.167 135.884L172.951 112.484C173.143 112.22 173.311 112.04 173.455 111.944C173.623 111.848 173.851 111.8 174.139 111.8H175.291C175.507 111.8 175.675 111.872 175.795 112.016C175.939 112.136 176.011 112.304 176.011 112.52C176.011 112.664 175.963 112.796 175.867 112.916L158.119 136.316C157.927 136.556 157.747 136.736 157.579 136.856C157.435 136.952 157.219 137 156.931 137H155.779ZM158.803 122.24C159.667 122.24 160.303 121.988 160.711 121.484C161.119 120.98 161.359 120.356 161.431 119.612C161.479 118.748 161.503 118.244 161.503 118.1C161.503 117.884 161.479 117.392 161.431 116.624C161.383 115.88 161.143 115.256 160.711 114.752C160.303 114.224 159.667 113.96 158.803 113.96C157.939 113.96 157.303 114.224 156.895 114.752C156.487 115.256 156.259 115.88 156.211 116.624C156.187 117.008 156.175 117.5 156.175 118.1C156.175 118.676 156.187 119.18 156.211 119.612C156.283 120.332 156.511 120.956 156.895 121.484C157.303 121.988 157.939 122.24 158.803 122.24ZM172.195 137.216C170.635 137.216 169.399 136.772 168.487 135.884C167.599 134.996 167.119 133.82 167.047 132.356C166.999 131.636 166.975 131.156 166.975 130.916C166.975 130.676 166.999 130.076 167.047 129.116C167.119 127.628 167.587 126.452 168.451 125.588C169.315 124.7 170.563 124.256 172.195 124.256C173.827 124.256 175.075 124.7 175.939 125.588C176.827 126.452 177.307 127.628 177.379 129.116C177.427 129.98 177.451 130.532 177.451 130.772C177.451 131.012 177.427 131.54 177.379 132.356C177.307 133.82 176.815 134.996 175.903 135.884C174.991 136.772 173.755 137.216 172.195 137.216ZM172.195 134.876C173.059 134.876 173.695 134.624 174.103 134.12C174.511 133.616 174.751 132.992 174.823 132.248C174.871 131.384 174.895 130.868 174.895 130.7C174.895 130.508 174.871 130.028 174.823 129.26C174.775 128.516 174.535 127.892 174.103 127.388C173.695 126.86 173.059 126.596 172.195 126.596C171.331 126.596 170.695 126.86 170.287 127.388C169.879 127.892 169.651 128.516 169.603 129.26C169.579 129.644 169.567 130.124 169.567 130.7C169.567 131.3 169.579 131.816 169.603 132.248C169.651 132.968 169.879 133.592 170.287 134.12C170.695 134.624 171.331 134.876 172.195 134.876Z" fill="white"/>
<path d="M48.3211 153.964C48.9745 153.964 49.5878 154.071 50.1611 154.284C50.7345 154.484 51.2278 154.798 51.6411 155.224C52.5611 156.158 53.0211 157.451 53.0211 159.104C53.0211 160.731 52.5611 162.011 51.6411 162.944C50.8145 163.798 49.7078 164.224 48.3211 164.224C46.9345 164.224 45.8145 163.798 44.9611 162.944C44.0411 162.024 43.5811 160.744 43.5811 159.104C43.5811 157.438 44.0411 156.144 44.9611 155.224C45.8011 154.384 46.9211 153.964 48.3211 153.964ZM50.6611 159.084C50.6611 158.058 50.4611 157.291 50.0611 156.784C49.6611 156.264 49.1011 156.004 48.3811 156.004C47.6745 156.004 47.0945 156.264 46.6411 156.784C46.1878 157.291 45.9611 158.058 45.9611 159.084C45.9611 160.111 46.1611 160.884 46.5611 161.404C46.9745 161.911 47.5345 162.164 48.2411 162.164C48.9478 162.164 49.5278 161.911 49.9811 161.404C50.4345 160.884 50.6611 160.111 50.6611 159.084ZM54.7692 154.224H56.2092V153.084C56.2092 152.084 56.5026 151.318 57.0892 150.784C57.6226 150.304 58.3159 150.064 59.1692 150.064C59.7159 150.064 60.3892 150.144 61.1892 150.304L60.7292 152.124C60.3559 151.991 60.0159 151.924 59.7092 151.924C59.4159 151.924 59.1559 152.011 58.9292 152.184C58.7026 152.344 58.5892 152.651 58.5892 153.104V154.224H60.3692V155.804H58.5892V163.944H56.2092V155.804H54.7692V154.224ZM74.6721 162.184C74.0587 163.478 73.0721 164.124 71.7121 164.124C69.9921 164.124 68.8587 163.451 68.3121 162.104C68.1121 161.638 68.0121 161.071 68.0121 160.404V154.204H70.3721V160.164C70.3721 160.804 70.5254 161.284 70.8321 161.604C71.1387 161.911 71.5121 162.064 71.9521 162.064C72.4054 162.064 72.7854 162.004 73.0921 161.884C73.3987 161.751 73.6654 161.558 73.8921 161.304C74.3854 160.731 74.6454 159.964 74.6721 159.004V154.204H77.0321V163.944H74.6721V162.184ZM82.0711 160.984C82.0978 161.904 82.7711 162.364 84.0911 162.364C84.5978 162.364 85.0111 162.258 85.3311 162.044C85.6645 161.818 85.8311 161.558 85.8311 161.264C85.8311 160.971 85.7311 160.744 85.5311 160.584C85.3311 160.424 85.0178 160.278 84.5911 160.144L82.4711 159.384C80.8978 158.838 80.1111 157.944 80.1111 156.704C80.1111 155.878 80.4778 155.218 81.2111 154.724C81.9578 154.218 82.9511 153.964 84.1911 153.964C85.4445 153.964 86.4045 154.238 87.0711 154.784C87.7511 155.331 88.1045 156.018 88.1311 156.844H85.9111C85.8845 156.524 85.7311 156.271 85.4511 156.084C85.1711 155.898 84.7711 155.804 84.2511 155.804C83.7311 155.804 83.3245 155.911 83.0311 156.124C82.7511 156.324 82.6111 156.558 82.6111 156.824C82.6111 157.291 83.0045 157.638 83.7911 157.864L86.0911 158.724C86.8511 158.978 87.4311 159.304 87.8311 159.704C88.2445 160.091 88.4511 160.598 88.4511 161.224C88.4511 162.024 88.0711 162.718 87.3111 163.304C86.5245 163.918 85.4845 164.224 84.1911 164.224C82.8978 164.224 81.8578 163.944 81.0711 163.384C80.2845 162.811 79.8845 162.011 79.8711 160.984H82.0711ZM98.078 155.384C98.4113 155.811 98.658 156.304 98.818 156.864C98.9913 157.424 99.078 157.938 99.078 158.404C99.078 158.871 99.0513 159.291 98.998 159.664H92.718C92.7447 160.451 92.938 161.091 93.298 161.584C93.658 162.078 94.2047 162.324 94.938 162.324C95.9113 162.324 96.4913 161.898 96.678 161.044H99.058C98.898 162.018 98.4513 162.784 97.718 163.344C96.958 163.931 96.0313 164.224 94.938 164.224C93.658 164.224 92.5847 163.758 91.718 162.824C90.8247 161.851 90.378 160.604 90.378 159.084C90.378 157.524 90.8247 156.271 91.718 155.324C92.5713 154.418 93.6447 153.964 94.938 153.964C96.2847 153.964 97.3313 154.438 98.078 155.384ZM94.958 155.844C94.2913 155.844 93.7713 156.064 93.398 156.504C93.0247 156.931 92.8047 157.484 92.738 158.164H96.878C96.878 157.111 96.5447 156.404 95.878 156.044C95.6247 155.911 95.318 155.844 94.958 155.844ZM104.263 156.144C104.85 154.744 105.73 154.044 106.903 154.044C107.13 154.044 107.417 154.091 107.763 154.184L107.723 156.544C107.35 156.464 106.983 156.424 106.623 156.424C105.05 156.424 104.263 157.511 104.263 159.684V163.944H101.903V154.204H104.263V156.144ZM111.544 160.984C111.57 161.904 112.244 162.364 113.564 162.364C114.07 162.364 114.484 162.258 114.804 162.044C115.137 161.818 115.304 161.558 115.304 161.264C115.304 160.971 115.204 160.744 115.004 160.584C114.804 160.424 114.49 160.278 114.064 160.144L111.944 159.384C110.37 158.838 109.584 157.944 109.584 156.704C109.584 155.878 109.95 155.218 110.684 154.724C111.43 154.218 112.424 153.964 113.664 153.964C114.917 153.964 115.877 154.238 116.544 154.784C117.224 155.331 117.577 156.018 117.604 156.844H115.384C115.357 156.524 115.204 156.271 114.924 156.084C114.644 155.898 114.244 155.804 113.724 155.804C113.204 155.804 112.797 155.911 112.504 156.124C112.224 156.324 112.084 156.558 112.084 156.824C112.084 157.291 112.477 157.638 113.264 157.864L115.564 158.724C116.324 158.978 116.904 159.304 117.304 159.704C117.717 160.091 117.924 160.598 117.924 161.224C117.924 162.024 117.544 162.718 116.784 163.304C115.997 163.918 114.957 164.224 113.664 164.224C112.37 164.224 111.33 163.944 110.544 163.384C109.757 162.811 109.357 162.011 109.344 160.984H111.544ZM126.689 154.224L128.649 161.164L130.509 154.764H132.649L134.509 161.184L136.489 154.224H138.849L135.649 163.944H133.329L131.529 158.124L129.769 163.944H127.429L124.209 154.224H126.689ZM144.185 158.264C144.959 158.264 145.852 158.391 146.865 158.644V157.684C146.865 157.004 146.725 156.504 146.445 156.184C146.179 155.851 145.732 155.684 145.105 155.684C144.492 155.684 144.019 155.811 143.685 156.064C143.352 156.304 143.185 156.651 143.185 157.104H140.605C140.605 155.998 140.992 155.198 141.765 154.704C142.552 154.211 143.645 153.964 145.045 153.964C147.045 153.964 148.339 154.664 148.925 156.064C149.125 156.544 149.225 157.111 149.225 157.764V163.944H147.165L146.985 162.644C146.359 163.698 145.399 164.224 144.105 164.224C142.852 164.224 141.879 163.918 141.185 163.304C140.545 162.718 140.225 161.978 140.225 161.084C140.225 160.178 140.579 159.484 141.285 159.004C141.992 158.511 142.959 158.264 144.185 158.264ZM146.865 160.144C146.079 159.931 145.345 159.824 144.665 159.824C143.385 159.824 142.745 160.251 142.745 161.104C142.745 161.464 142.892 161.778 143.185 162.044C143.479 162.298 143.945 162.424 144.585 162.424C145.239 162.424 145.772 162.211 146.185 161.784C146.612 161.344 146.839 160.798 146.865 160.144ZM154.985 155.904C155.625 154.611 156.652 153.964 158.065 153.964C159.265 153.964 160.165 154.358 160.765 155.144C161.379 155.931 161.685 156.971 161.685 158.264V163.944H159.325V158.264C159.325 157.544 159.152 157.004 158.805 156.644C158.459 156.271 157.972 156.084 157.345 156.084C156.719 156.084 156.179 156.364 155.725 156.924C155.285 157.484 155.052 158.324 155.025 159.444V163.944H152.665V154.224H154.725L154.985 155.904ZM170.606 163.704C169.726 164.051 169.033 164.224 168.526 164.224C168.019 164.224 167.573 164.164 167.186 164.044C166.813 163.924 166.479 163.744 166.186 163.504C165.573 162.958 165.266 162.204 165.266 161.244V155.804H163.906V154.224H165.266V151.664H167.626V154.224H170.266V155.804H167.626V161.164C167.626 161.964 168.006 162.364 168.766 162.364C169.153 162.364 169.653 162.258 170.266 162.044L170.606 163.704ZM183.555 163.704C182.675 164.051 181.982 164.224 181.475 164.224C180.969 164.224 180.522 164.164 180.135 164.044C179.762 163.924 179.429 163.744 179.135 163.504C178.522 162.958 178.215 162.204 178.215 161.244V155.804H176.855V154.224H178.215V151.664H180.575V154.224H183.215V155.804H180.575V161.164C180.575 161.964 180.955 162.364 181.715 162.364C182.102 162.364 182.602 162.258 183.215 162.044L183.555 163.704ZM188.326 156.144C188.913 154.744 189.793 154.044 190.966 154.044C191.193 154.044 191.479 154.091 191.826 154.184L191.786 156.544C191.413 156.464 191.046 156.424 190.686 156.424C189.113 156.424 188.326 157.511 188.326 159.684V163.944H185.966V154.204H188.326V156.144ZM194.486 154.204H196.846V163.944H194.486V154.204ZM194.206 151.084C194.206 150.658 194.333 150.324 194.586 150.084C194.84 149.831 195.2 149.704 195.666 149.704C196.12 149.704 196.473 149.831 196.726 150.084C196.993 150.324 197.126 150.658 197.126 151.084C197.126 151.511 196.993 151.851 196.726 152.104C196.473 152.344 196.12 152.464 195.666 152.464C195.2 152.464 194.84 152.344 194.586 152.104C194.333 151.851 194.206 151.511 194.206 151.084ZM201.949 154.224L204.169 161.604L206.409 154.224H209.129L205.509 163.944H202.849L199.229 154.224H201.949ZM211.42 154.204H213.78V163.944H211.42V154.204ZM211.14 151.084C211.14 150.658 211.267 150.324 211.52 150.084C211.773 149.831 212.133 149.704 212.6 149.704C213.053 149.704 213.407 149.831 213.66 150.084C213.927 150.324 214.06 150.658 214.06 151.084C214.06 151.511 213.927 151.851 213.66 152.104C213.407 152.344 213.053 152.464 212.6 152.464C212.133 152.464 211.773 152.344 211.52 152.104C211.267 151.851 211.14 151.511 211.14 151.084ZM220.982 158.264C221.756 158.264 222.649 158.391 223.662 158.644V157.684C223.662 157.004 223.522 156.504 223.242 156.184C222.976 155.851 222.529 155.684 221.902 155.684C221.289 155.684 220.816 155.811 220.482 156.064C220.149 156.304 219.982 156.651 219.982 157.104H217.402C217.402 155.998 217.789 155.198 218.562 154.704C219.349 154.211 220.442 153.964 221.842 153.964C223.842 153.964 225.136 154.664 225.722 156.064C225.922 156.544 226.022 157.111 226.022 157.764V163.944H223.962L223.782 162.644C223.156 163.698 222.196 164.224 220.902 164.224C219.649 164.224 218.676 163.918 217.982 163.304C217.342 162.718 217.022 161.978 217.022 161.084C217.022 160.178 217.376 159.484 218.082 159.004C218.789 158.511 219.756 158.264 220.982 158.264ZM223.662 160.144C222.876 159.931 222.142 159.824 221.462 159.824C220.182 159.824 219.542 160.251 219.542 161.104C219.542 161.464 219.689 161.778 219.982 162.044C220.276 162.298 220.742 162.424 221.382 162.424C222.036 162.424 222.569 162.211 222.982 161.784C223.409 161.344 223.636 160.798 223.662 160.144ZM65.689 185.684C65.209 186.711 64.3823 187.224 63.209 187.224C61.9557 187.224 60.9023 186.771 60.049 185.864C59.129 184.904 58.669 183.644 58.669 182.084C58.669 180.551 59.1157 179.298 60.009 178.324C60.849 177.418 61.8757 176.964 63.089 176.964C63.689 176.964 64.2423 177.111 64.749 177.404C65.269 177.684 65.689 178.124 66.009 178.724L66.529 177.224H68.069V188.444C68.069 189.018 68.1357 189.398 68.269 189.584C68.4157 189.771 68.5757 189.904 68.749 189.984C68.9223 190.078 69.1357 190.164 69.389 190.244L68.709 191.964C67.6157 191.698 66.8357 191.271 66.369 190.684C65.9157 190.098 65.689 189.291 65.689 188.264V185.684ZM65.689 181.384C65.689 180.651 65.4757 180.084 65.049 179.684C64.6223 179.284 64.0757 179.084 63.409 179.084C62.7557 179.084 62.1957 179.351 61.729 179.884C61.2757 180.418 61.049 181.151 61.049 182.084C61.049 183.031 61.3157 183.784 61.849 184.344C62.3157 184.838 62.8823 185.084 63.549 185.084C64.0957 185.084 64.5757 184.918 64.989 184.584C65.429 184.211 65.6623 183.724 65.689 183.124V181.384ZM78.256 185.184C77.6427 186.478 76.656 187.124 75.296 187.124C73.576 187.124 72.4427 186.451 71.896 185.104C71.696 184.638 71.596 184.071 71.596 183.404V177.204H73.956V183.164C73.956 183.804 74.1094 184.284 74.416 184.604C74.7227 184.911 75.096 185.064 75.536 185.064C75.9894 185.064 76.3694 185.004 76.676 184.884C76.9827 184.751 77.2494 184.558 77.476 184.304C77.9694 183.731 78.2294 182.964 78.256 182.004V177.204H80.616V186.944H78.256V185.184ZM91.1151 178.384C91.4484 178.811 91.6951 179.304 91.8551 179.864C92.0284 180.424 92.1151 180.938 92.1151 181.404C92.1151 181.871 92.0884 182.291 92.0351 182.664H85.7551C85.7818 183.451 85.9751 184.091 86.3351 184.584C86.6951 185.078 87.2418 185.324 87.9751 185.324C88.9484 185.324 89.5284 184.898 89.7151 184.044H92.0951C91.9351 185.018 91.4884 185.784 90.7551 186.344C89.9951 186.931 89.0684 187.224 87.9751 187.224C86.6951 187.224 85.6218 186.758 84.7551 185.824C83.8618 184.851 83.4151 183.604 83.4151 182.084C83.4151 180.524 83.8618 179.271 84.7551 178.324C85.6084 177.418 86.6818 176.964 87.9751 176.964C89.3218 176.964 90.3684 177.438 91.1151 178.384ZM87.9951 178.844C87.3284 178.844 86.8084 179.064 86.4351 179.504C86.0618 179.931 85.8418 180.484 85.7751 181.164H89.9151C89.9151 180.111 89.5818 179.404 88.9151 179.044C88.6618 178.911 88.3551 178.844 87.9951 178.844ZM96.2606 183.984C96.2872 184.904 96.9606 185.364 98.2806 185.364C98.7872 185.364 99.2006 185.258 99.5206 185.044C99.8539 184.818 100.021 184.558 100.021 184.264C100.021 183.971 99.9206 183.744 99.7206 183.584C99.5206 183.424 99.2072 183.278 98.7806 183.144L96.6606 182.384C95.0872 181.838 94.3006 180.944 94.3006 179.704C94.3006 178.878 94.6672 178.218 95.4006 177.724C96.1472 177.218 97.1406 176.964 98.3806 176.964C99.6339 176.964 100.594 177.238 101.261 177.784C101.941 178.331 102.294 179.018 102.321 179.844H100.101C100.074 179.524 99.9206 179.271 99.6406 179.084C99.3606 178.898 98.9606 178.804 98.4406 178.804C97.9206 178.804 97.5139 178.911 97.2206 179.124C96.9406 179.324 96.8006 179.558 96.8006 179.824C96.8006 180.291 97.1939 180.638 97.9806 180.864L100.281 181.724C101.041 181.978 101.621 182.304 102.021 182.704C102.434 183.091 102.641 183.598 102.641 184.224C102.641 185.024 102.261 185.718 101.501 186.304C100.714 186.918 99.6739 187.224 98.3806 187.224C97.0872 187.224 96.0472 186.944 95.2606 186.384C94.4739 185.811 94.0739 185.011 94.0606 183.984H96.2606ZM110.967 186.704C110.087 187.051 109.394 187.224 108.887 187.224C108.381 187.224 107.934 187.164 107.547 187.044C107.174 186.924 106.841 186.744 106.547 186.504C105.934 185.958 105.627 185.204 105.627 184.244V178.804H104.267V177.224H105.627V174.664H107.987V177.224H110.627V178.804H107.987V184.164C107.987 184.964 108.367 185.364 109.127 185.364C109.514 185.364 110.014 185.258 110.627 185.044L110.967 186.704ZM113.578 177.204H115.938V186.944H113.578V177.204ZM113.298 174.084C113.298 173.658 113.425 173.324 113.678 173.084C113.931 172.831 114.291 172.704 114.758 172.704C115.211 172.704 115.565 172.831 115.818 173.084C116.085 173.324 116.218 173.658 116.218 174.084C116.218 174.511 116.085 174.851 115.818 175.104C115.565 175.344 115.211 175.464 114.758 175.464C114.291 175.464 113.931 175.344 113.678 175.104C113.425 174.851 113.298 174.511 113.298 174.084ZM123.761 176.964C124.414 176.964 125.027 177.071 125.601 177.284C126.174 177.484 126.667 177.798 127.081 178.224C128.001 179.158 128.461 180.451 128.461 182.104C128.461 183.731 128.001 185.011 127.081 185.944C126.254 186.798 125.147 187.224 123.761 187.224C122.374 187.224 121.254 186.798 120.401 185.944C119.481 185.024 119.021 183.744 119.021 182.104C119.021 180.438 119.481 179.144 120.401 178.224C121.241 177.384 122.361 176.964 123.761 176.964ZM126.101 182.084C126.101 181.058 125.901 180.291 125.501 179.784C125.101 179.264 124.541 179.004 123.821 179.004C123.114 179.004 122.534 179.264 122.081 179.784C121.627 180.291 121.401 181.058 121.401 182.084C121.401 183.111 121.601 183.884 122.001 184.404C122.414 184.911 122.974 185.164 123.681 185.164C124.387 185.164 124.967 184.911 125.421 184.404C125.874 183.884 126.101 183.111 126.101 182.084ZM133.589 178.904C134.229 177.611 135.255 176.964 136.669 176.964C137.869 176.964 138.769 177.358 139.369 178.144C139.982 178.931 140.289 179.971 140.289 181.264V186.944H137.929V181.264C137.929 180.544 137.755 180.004 137.409 179.644C137.062 179.271 136.575 179.084 135.949 179.084C135.322 179.084 134.782 179.364 134.329 179.924C133.889 180.484 133.655 181.324 133.629 182.444V186.944H131.269V177.224H133.329L133.589 178.904ZM145.05 183.984C145.076 184.904 145.75 185.364 147.07 185.364C147.576 185.364 147.99 185.258 148.31 185.044C148.643 184.818 148.81 184.558 148.81 184.264C148.81 183.971 148.71 183.744 148.51 183.584C148.31 183.424 147.996 183.278 147.57 183.144L145.45 182.384C143.876 181.838 143.09 180.944 143.09 179.704C143.09 178.878 143.456 178.218 144.19 177.724C144.936 177.218 145.93 176.964 147.17 176.964C148.423 176.964 149.383 177.238 150.05 177.784C150.73 178.331 151.083 179.018 151.11 179.844H148.89C148.863 179.524 148.71 179.271 148.43 179.084C148.15 178.898 147.75 178.804 147.23 178.804C146.71 178.804 146.303 178.911 146.01 179.124C145.73 179.324 145.59 179.558 145.59 179.824C145.59 180.291 145.983 180.638 146.77 180.864L149.07 181.724C149.83 181.978 150.41 182.304 150.81 182.704C151.223 183.091 151.43 183.598 151.43 184.224C151.43 185.024 151.05 185.718 150.29 186.304C149.503 186.918 148.463 187.224 147.17 187.224C145.876 187.224 144.836 186.944 144.05 186.384C143.263 185.811 142.863 185.011 142.85 183.984H145.05ZM159.535 177.204H161.895V186.944H159.535V177.204ZM159.255 174.084C159.255 173.658 159.382 173.324 159.635 173.084C159.888 172.831 160.248 172.704 160.715 172.704C161.168 172.704 161.522 172.831 161.775 173.084C162.042 173.324 162.175 173.658 162.175 174.084C162.175 174.511 162.042 174.851 161.775 175.104C161.522 175.344 161.168 175.464 160.715 175.464C160.248 175.464 159.888 175.344 159.635 175.104C159.382 174.851 159.255 174.511 159.255 174.084ZM168.218 178.904C168.858 177.611 169.884 176.964 171.298 176.964C172.498 176.964 173.398 177.358 173.998 178.144C174.611 178.931 174.918 179.971 174.918 181.264V186.944H172.558V181.264C172.558 180.544 172.384 180.004 172.038 179.644C171.691 179.271 171.204 179.084 170.578 179.084C169.951 179.084 169.411 179.364 168.958 179.924C168.518 180.484 168.284 181.324 168.258 182.444V186.944H165.898V177.224H167.958L168.218 178.904ZM188.897 186.704C188.017 187.051 187.324 187.224 186.817 187.224C186.31 187.224 185.864 187.164 185.477 187.044C185.104 186.924 184.77 186.744 184.477 186.504C183.864 185.958 183.557 185.204 183.557 184.244V178.804H182.197V177.224H183.557V174.664H185.917V177.224H188.557V178.804H185.917V184.164C185.917 184.964 186.297 185.364 187.057 185.364C187.444 185.364 187.944 185.258 188.557 185.044L188.897 186.704ZM193.668 178.804C194.334 177.578 195.308 176.964 196.588 176.964C197.868 176.964 198.808 177.358 199.408 178.144C200.021 178.931 200.328 179.971 200.328 181.264V186.944H197.968V181.264C197.968 180.544 197.794 180.004 197.448 179.644C197.101 179.271 196.614 179.084 195.988 179.084C195.361 179.084 194.821 179.364 194.368 179.924C193.928 180.484 193.694 181.324 193.668 182.444V186.944H191.308V173.224H193.668V178.804ZM210.549 178.384C210.882 178.811 211.129 179.304 211.289 179.864C211.462 180.424 211.549 180.938 211.549 181.404C211.549 181.871 211.522 182.291 211.469 182.664H205.189C205.215 183.451 205.409 184.091 205.769 184.584C206.129 185.078 206.675 185.324 207.409 185.324C208.382 185.324 208.962 184.898 209.149 184.044H211.529C211.369 185.018 210.922 185.784 210.189 186.344C209.429 186.931 208.502 187.224 207.409 187.224C206.129 187.224 205.055 186.758 204.189 185.824C203.295 184.851 202.849 183.604 202.849 182.084C202.849 180.524 203.295 179.271 204.189 178.324C205.042 177.418 206.115 176.964 207.409 176.964C208.755 176.964 209.802 177.438 210.549 178.384ZM207.429 178.844C206.762 178.844 206.242 179.064 205.869 179.504C205.495 179.931 205.275 180.484 205.209 181.164H209.349C209.349 180.111 209.015 179.404 208.349 179.044C208.095 178.911 207.789 178.844 207.429 178.844ZM74.8055 199.964C75.4588 199.964 76.0722 200.071 76.6455 200.284C77.2188 200.484 77.7122 200.798 78.1255 201.224C79.0455 202.158 79.5055 203.451 79.5055 205.104C79.5055 206.731 79.0455 208.011 78.1255 208.944C77.2988 209.798 76.1922 210.224 74.8055 210.224C73.4188 210.224 72.2988 209.798 71.4455 208.944C70.5255 208.024 70.0655 206.744 70.0655 205.104C70.0655 203.438 70.5255 202.144 71.4455 201.224C72.2855 200.384 73.4055 199.964 74.8055 199.964ZM77.1455 205.084C77.1455 204.058 76.9455 203.291 76.5455 202.784C76.1455 202.264 75.5855 202.004 74.8655 202.004C74.1588 202.004 73.5788 202.264 73.1255 202.784C72.6722 203.291 72.4455 204.058 72.4455 205.084C72.4455 206.111 72.6455 206.884 73.0455 207.404C73.4588 207.911 74.0188 208.164 74.7255 208.164C75.4322 208.164 76.0122 207.911 76.4655 207.404C76.9188 206.884 77.1455 206.111 77.1455 205.084ZM84.6336 201.904C85.2736 200.611 86.3003 199.964 87.7136 199.964C88.9136 199.964 89.8136 200.358 90.4136 201.144C91.027 201.931 91.3336 202.971 91.3336 204.264V209.944H88.9736V204.264C88.9736 203.544 88.8003 203.004 88.4536 202.644C88.107 202.271 87.6203 202.084 86.9936 202.084C86.367 202.084 85.827 202.364 85.3736 202.924C84.9336 203.484 84.7003 204.324 84.6736 205.444V209.944H82.3136V200.224H84.3736L84.6336 201.904ZM94.7746 196.224H97.1346V209.944H94.7746V196.224ZM101.049 200.204H103.409V209.944H101.049V200.204ZM100.769 197.084C100.769 196.658 100.895 196.324 101.149 196.084C101.402 195.831 101.762 195.704 102.229 195.704C102.682 195.704 103.035 195.831 103.289 196.084C103.555 196.324 103.689 196.658 103.689 197.084C103.689 197.511 103.555 197.851 103.289 198.104C103.035 198.344 102.682 198.464 102.229 198.464C101.762 198.464 101.402 198.344 101.149 198.104C100.895 197.851 100.769 197.511 100.769 197.084ZM109.731 201.904C110.371 200.611 111.398 199.964 112.811 199.964C114.011 199.964 114.911 200.358 115.511 201.144C116.125 201.931 116.431 202.971 116.431 204.264V209.944H114.071V204.264C114.071 203.544 113.898 203.004 113.551 202.644C113.205 202.271 112.718 202.084 112.091 202.084C111.465 202.084 110.925 202.364 110.471 202.924C110.031 203.484 109.798 204.324 109.771 205.444V209.944H107.411V200.224H109.471L109.731 201.904ZM126.652 201.384C126.986 201.811 127.232 202.304 127.392 202.864C127.566 203.424 127.652 203.938 127.652 204.404C127.652 204.871 127.626 205.291 127.572 205.664H121.292C121.319 206.451 121.512 207.091 121.872 207.584C122.232 208.078 122.779 208.324 123.512 208.324C124.486 208.324 125.066 207.898 125.252 207.044H127.632C127.472 208.018 127.026 208.784 126.292 209.344C125.532 209.931 124.606 210.224 123.512 210.224C122.232 210.224 121.159 209.758 120.292 208.824C119.399 207.851 118.952 206.604 118.952 205.084C118.952 203.524 119.399 202.271 120.292 201.324C121.146 200.418 122.219 199.964 123.512 199.964C124.859 199.964 125.906 200.438 126.652 201.384ZM123.532 201.844C122.866 201.844 122.346 202.064 121.972 202.504C121.599 202.931 121.379 203.484 121.312 204.164H125.452C125.452 203.111 125.119 202.404 124.452 202.044C124.199 201.911 123.892 201.844 123.532 201.844ZM142.316 201.384C142.65 201.811 142.896 202.304 143.056 202.864C143.23 203.424 143.316 203.938 143.316 204.404C143.316 204.871 143.29 205.291 143.236 205.664H136.956C136.983 206.451 137.176 207.091 137.536 207.584C137.896 208.078 138.443 208.324 139.176 208.324C140.15 208.324 140.73 207.898 140.916 207.044H143.296C143.136 208.018 142.69 208.784 141.956 209.344C141.196 209.931 140.27 210.224 139.176 210.224C137.896 210.224 136.823 209.758 135.956 208.824C135.063 207.851 134.616 206.604 134.616 205.084C134.616 203.524 135.063 202.271 135.956 201.324C136.81 200.418 137.883 199.964 139.176 199.964C140.523 199.964 141.57 200.438 142.316 201.384ZM139.196 201.844C138.53 201.844 138.01 202.064 137.636 202.504C137.263 202.931 137.043 203.484 136.976 204.164H141.116C141.116 203.111 140.783 202.404 140.116 202.044C139.863 201.911 139.556 201.844 139.196 201.844ZM155.022 209.944H152.142L149.742 206.824L147.502 209.944H144.602L148.382 205.104L144.602 200.204H147.502L149.882 203.324L152.142 200.204H155.022L151.262 205.104L155.022 209.944ZM159.576 201.804C160.243 200.578 161.216 199.964 162.496 199.964C163.776 199.964 164.716 200.358 165.316 201.144C165.929 201.931 166.236 202.971 166.236 204.264V209.944H163.876V204.264C163.876 203.544 163.703 203.004 163.356 202.644C163.009 202.271 162.523 202.084 161.896 202.084C161.269 202.084 160.729 202.364 160.276 202.924C159.836 203.484 159.603 204.324 159.576 205.444V209.944H157.216V196.224H159.576V201.804ZM169.877 200.204H172.237V209.944H169.877V200.204ZM169.597 197.084C169.597 196.658 169.724 196.324 169.977 196.084C170.23 195.831 170.59 195.704 171.057 195.704C171.51 195.704 171.864 195.831 172.117 196.084C172.384 196.324 172.517 196.658 172.517 197.084C172.517 197.511 172.384 197.851 172.117 198.104C171.864 198.344 171.51 198.464 171.057 198.464C170.59 198.464 170.23 198.344 169.977 198.104C169.724 197.851 169.597 197.511 169.597 197.084ZM184.399 201.364C185.226 202.298 185.639 203.524 185.639 205.044C185.639 206.564 185.206 207.818 184.339 208.804C183.499 209.751 182.453 210.224 181.199 210.224C180.599 210.224 180.046 210.064 179.539 209.744C179.046 209.424 178.653 208.931 178.359 208.264L177.779 209.944H176.239V196.224H178.599V201.444C179.213 200.458 180.126 199.964 181.339 199.964C182.566 199.964 183.586 200.431 184.399 201.364ZM178.599 204.484V205.764C178.626 206.444 178.873 207.004 179.339 207.444C179.779 207.871 180.313 208.084 180.939 208.084C181.579 208.084 182.126 207.811 182.579 207.264C183.033 206.704 183.259 205.971 183.259 205.064C183.259 204.158 183.033 203.438 182.579 202.904C182.139 202.358 181.586 202.084 180.919 202.084C180.253 202.084 179.699 202.304 179.259 202.744C178.819 203.184 178.599 203.764 178.599 204.484ZM188.725 200.204H191.085V209.944H188.725V200.204ZM188.445 197.084C188.445 196.658 188.571 196.324 188.825 196.084C189.078 195.831 189.438 195.704 189.905 195.704C190.358 195.704 190.711 195.831 190.965 196.084C191.231 196.324 191.365 196.658 191.365 197.084C191.365 197.511 191.231 197.851 190.965 198.104C190.711 198.344 190.358 198.464 189.905 198.464C189.438 198.464 189.078 198.344 188.825 198.104C188.571 197.851 188.445 197.511 188.445 197.084ZM200.567 209.704C199.687 210.051 198.994 210.224 198.487 210.224C197.98 210.224 197.534 210.164 197.147 210.044C196.774 209.924 196.44 209.744 196.147 209.504C195.534 208.958 195.227 208.204 195.227 207.244V201.804H193.867V200.224H195.227V197.664H197.587V200.224H200.227V201.804H197.587V207.164C197.587 207.964 197.967 208.364 198.727 208.364C199.114 208.364 199.614 208.258 200.227 208.044L200.567 209.704Z" fill="white"/>
</svg>
