<svg width="352" height="203" viewBox="0 0 352 203" fill="none" xmlns="http://www.w3.org/2000/svg">
<rect x="0.5" y="0.5" width="351" height="202" fill="white" stroke="black"/>
<path d="M99.94 150.693C99.94 152.333 100.18 153.473 100.66 154.113C101.18 154.713 102.06 155.013 103.3 155.013V156.273C98.98 156.113 96.18 156.033 94.9 156.033C93.62 156.033 90.98 156.113 86.98 156.273V155.013C87.78 155.013 88.34 154.713 88.66 154.113C88.98 153.513 89.14 152.373 89.14 150.693V131.193C89.14 129.913 88.9 128.973 88.42 128.373C87.98 127.733 87.24 127.413 86.2 127.413C85.16 127.413 84.2 127.853 83.32 128.733C82.48 129.613 81.96 130.653 81.76 131.853C81.84 132.813 81.88 133.673 81.88 134.433V150.693C81.88 152.373 82.08 153.513 82.48 154.113C82.88 154.713 83.6 155.013 84.64 155.013V156.273C80.64 156.113 78.04 156.033 76.84 156.033C75.56 156.033 72.92 156.113 68.92 156.273V155.013C69.72 155.013 70.28 154.713 70.6 154.113C70.92 153.473 71.08 152.333 71.08 150.693V131.193C71.08 129.913 70.9 128.973 70.54 128.373C70.18 127.733 69.58 127.413 68.74 127.413C67.58 127.413 66.56 127.833 65.68 128.673C64.84 129.473 64.42 130.493 64.42 131.733V150.693C64.42 152.373 64.58 153.513 64.9 154.113C65.22 154.713 65.78 155.013 66.58 155.013V156.273C62.9 156.113 60.46 156.033 59.26 156.033C57.9 156.033 54.9 156.113 50.26 156.273V155.013C51.5 155.013 52.36 154.713 52.84 154.113C53.36 153.473 53.62 152.333 53.62 150.693V131.673C53.62 129.833 53.36 128.493 52.84 127.653C52.36 126.813 51.5 126.393 50.26 126.393V125.133C51.54 125.253 52.78 125.313 53.98 125.313C58.14 125.313 61.62 125.033 64.42 124.473V128.793C66.1 125.793 69.08 124.293 73.36 124.293C76.56 124.293 78.82 125.093 80.14 126.693C80.74 127.413 81.18 128.353 81.46 129.513C82.46 127.593 83.78 126.253 85.42 125.493C87.1 124.693 89.1 124.293 91.42 124.293C94.62 124.293 96.88 125.093 98.2 126.693C98.8 127.413 99.24 128.393 99.52 129.633C99.8 130.833 99.94 132.433 99.94 134.433V150.693ZM136.841 149.733C136.841 151.573 137.081 152.913 137.561 153.753C138.081 154.593 138.961 155.013 140.201 155.013V156.273C138.961 156.153 137.721 156.093 136.481 156.093C132.321 156.093 128.841 156.373 126.041 156.933V152.613C124.241 155.613 121.061 157.113 116.501 157.113C113.301 157.113 111.041 156.313 109.721 154.713C109.121 153.993 108.681 153.033 108.401 151.833C108.121 150.593 107.981 148.973 107.981 146.973V131.673C107.981 129.833 107.721 128.493 107.201 127.653C106.721 126.813 105.861 126.393 104.621 126.393V125.133C105.861 125.253 107.101 125.313 108.341 125.313C112.501 125.313 115.981 125.033 118.781 124.473V150.213C118.781 151.493 119.001 152.453 119.441 153.093C119.921 153.693 120.681 153.993 121.721 153.993C122.881 153.993 123.881 153.593 124.721 152.793C125.601 151.953 126.041 150.913 126.041 149.673V131.673C126.041 129.833 125.781 128.493 125.261 127.653C124.781 126.813 123.921 126.393 122.681 126.393V125.133C123.921 125.253 125.161 125.313 126.401 125.313C130.561 125.313 134.041 125.033 136.841 124.473V149.733ZM155.145 124.293C156.705 124.293 158.165 124.473 159.525 124.833C160.925 125.153 161.985 125.513 162.705 125.913C163.145 126.153 163.505 126.273 163.785 126.273C164.625 126.273 165.125 125.633 165.285 124.353H166.485C166.325 126.433 166.245 130.033 166.245 135.153H165.045C164.725 132.513 163.965 130.293 162.765 128.493C161.605 126.653 159.905 125.733 157.665 125.733C156.665 125.733 155.825 126.033 155.145 126.633C154.465 127.233 154.125 128.053 154.125 129.093C154.125 130.413 154.565 131.593 155.445 132.633C156.325 133.633 157.705 134.873 159.585 136.353C159.665 136.393 160.245 136.853 161.325 137.733C163.565 139.573 165.205 141.213 166.245 142.653C167.285 144.053 167.805 145.793 167.805 147.873C167.805 149.633 167.265 151.233 166.185 152.673C165.105 154.073 163.625 155.173 161.745 155.973C159.905 156.733 157.885 157.113 155.685 157.113C153.165 157.113 151.105 156.613 149.505 155.613C148.825 155.253 148.265 154.993 147.825 154.833C147.385 154.673 146.945 154.593 146.505 154.593C145.745 154.593 145.185 155.293 144.825 156.693H143.625C143.785 154.413 143.865 150.413 143.865 144.693H145.065C145.425 147.973 146.305 150.613 147.705 152.613C149.105 154.613 150.865 155.613 152.985 155.613C153.985 155.613 154.805 155.333 155.445 154.773C156.125 154.213 156.465 153.393 156.465 152.313C156.465 151.193 156.225 150.193 155.745 149.313C155.305 148.433 154.745 147.653 154.065 146.973C153.425 146.253 152.365 145.233 150.885 143.913C149.205 142.353 147.925 141.113 147.045 140.193C146.165 139.273 145.405 138.213 144.765 137.013C144.165 135.773 143.865 134.413 143.865 132.933C143.865 131.213 144.385 129.693 145.425 128.373C146.465 127.053 147.845 126.053 149.565 125.373C151.285 124.653 153.145 124.293 155.145 124.293ZM189.566 150.573C192.486 150.573 194.906 149.233 196.826 146.553L197.846 146.913C196.966 149.713 195.466 152.113 193.346 154.113C191.266 156.113 188.586 157.113 185.306 157.113C181.106 157.113 177.746 155.813 175.226 153.213C172.706 150.613 171.446 146.453 171.446 140.733C171.446 135.253 172.846 131.153 175.646 128.433C178.486 125.673 182.226 124.293 186.866 124.293C194.426 124.293 198.206 128.773 198.206 137.733H182.726C182.686 138.213 182.666 138.933 182.666 139.893C182.666 143.733 183.326 146.473 184.646 148.113C186.006 149.753 187.646 150.573 189.566 150.573ZM186.446 125.673C184.206 125.673 182.886 129.313 182.486 136.593H189.446C189.486 133.393 189.246 130.773 188.726 128.733C188.246 126.693 187.486 125.673 186.446 125.673ZM232.642 149.733C232.642 151.573 232.882 152.913 233.362 153.753C233.882 154.593 234.762 155.013 236.002 155.013V156.273C234.762 156.153 233.522 156.093 232.282 156.093C228.122 156.093 224.642 156.373 221.842 156.933V152.613C220.042 155.613 216.862 157.113 212.302 157.113C209.102 157.113 206.842 156.313 205.522 154.713C204.922 153.993 204.482 153.033 204.202 151.833C203.922 150.593 203.782 148.973 203.782 146.973V131.673C203.782 129.833 203.522 128.493 203.002 127.653C202.522 126.813 201.662 126.393 200.422 126.393V125.133C201.662 125.253 202.902 125.313 204.142 125.313C208.302 125.313 211.782 125.033 214.582 124.473V150.213C214.582 151.493 214.802 152.453 215.242 153.093C215.722 153.693 216.482 153.993 217.522 153.993C218.682 153.993 219.682 153.593 220.522 152.793C221.402 151.953 221.842 150.913 221.842 149.673V131.673C221.842 129.833 221.582 128.493 221.062 127.653C220.582 126.813 219.722 126.393 218.482 126.393V125.133C219.722 125.253 220.962 125.313 222.202 125.313C226.362 125.313 229.842 125.033 232.642 124.473V149.733ZM288.026 150.693C288.026 152.333 288.266 153.473 288.746 154.113C289.266 154.713 290.146 155.013 291.386 155.013V156.273C287.066 156.113 284.266 156.033 282.986 156.033C281.706 156.033 279.066 156.113 275.066 156.273V155.013C275.866 155.013 276.426 154.713 276.746 154.113C277.066 153.513 277.226 152.373 277.226 150.693V131.193C277.226 129.913 276.986 128.973 276.506 128.373C276.066 127.733 275.326 127.413 274.286 127.413C273.246 127.413 272.286 127.853 271.406 128.733C270.566 129.613 270.046 130.653 269.846 131.853C269.926 132.813 269.966 133.673 269.966 134.433V150.693C269.966 152.373 270.166 153.513 270.566 154.113C270.966 154.713 271.686 155.013 272.726 155.013V156.273C268.726 156.113 266.126 156.033 264.926 156.033C263.646 156.033 261.006 156.113 257.006 156.273V155.013C257.806 155.013 258.366 154.713 258.686 154.113C259.006 153.473 259.166 152.333 259.166 150.693V131.193C259.166 129.913 258.986 128.973 258.626 128.373C258.266 127.733 257.666 127.413 256.826 127.413C255.666 127.413 254.646 127.833 253.766 128.673C252.926 129.473 252.506 130.493 252.506 131.733V150.693C252.506 152.373 252.666 153.513 252.986 154.113C253.306 154.713 253.866 155.013 254.666 155.013V156.273C250.986 156.113 248.546 156.033 247.346 156.033C245.986 156.033 242.986 156.113 238.346 156.273V155.013C239.586 155.013 240.446 154.713 240.926 154.113C241.446 153.473 241.706 152.333 241.706 150.693V131.673C241.706 129.833 241.446 128.493 240.926 127.653C240.446 126.813 239.586 126.393 238.346 126.393V125.133C239.626 125.253 240.866 125.313 242.066 125.313C246.226 125.313 249.706 125.033 252.506 124.473V128.793C254.186 125.793 257.166 124.293 261.446 124.293C264.646 124.293 266.906 125.093 268.226 126.693C268.826 127.413 269.266 128.353 269.546 129.513C270.546 127.593 271.866 126.253 273.506 125.493C275.186 124.693 277.186 124.293 279.506 124.293C282.706 124.293 284.966 125.093 286.286 126.693C286.886 127.413 287.326 128.393 287.606 129.633C287.886 130.833 288.026 132.433 288.026 134.433V150.693Z" fill="black"/>
<path d="M119.627 110.865H119.957L124.667 98.7745H127.277L120.947 113.775H118.307L111.857 98.7745H114.617L119.627 110.865ZM131.705 113.775V111.765H136.925V100.785H131.705V98.7745H139.325V111.765H144.425V113.775H131.705ZM136.115 94.5145C136.115 93.9745 136.295 93.5145 136.655 93.1345C137.015 92.7345 137.475 92.5345 138.035 92.5345C138.615 92.5345 139.095 92.7345 139.475 93.1345C139.875 93.5145 140.075 93.9745 140.075 94.5145C140.075 95.0345 139.875 95.4745 139.475 95.8345C139.095 96.1945 138.615 96.3745 138.035 96.3745C137.475 96.3745 137.015 96.1945 136.655 95.8345C136.295 95.4745 136.115 95.0345 136.115 94.5145ZM148.523 113.775V111.765H152.573V100.785H148.523V98.7745H154.133L154.613 100.725H154.763C155.443 100.105 156.203 99.5745 157.043 99.1345C157.883 98.6945 158.883 98.4745 160.043 98.4745C160.723 98.4745 161.263 98.6045 161.663 98.8645C162.083 99.1245 162.403 99.5045 162.623 100.005C162.863 100.505 163.023 101.115 163.103 101.835C163.183 102.535 163.223 103.335 163.223 104.235L161.123 104.265C161.123 102.985 160.993 102.045 160.733 101.445C160.493 100.845 160.043 100.545 159.383 100.545C158.763 100.545 158.203 100.635 157.703 100.815C157.203 100.995 156.763 101.215 156.383 101.475C156.023 101.735 155.713 101.995 155.453 102.255C155.193 102.515 155.003 102.735 154.883 102.915V111.765H160.643V113.775H148.523ZM165.462 98.7745H169.032V95.8045L171.372 95.1445V98.7745H179.382V100.785H171.372V107.865C171.372 109.325 171.722 110.405 172.422 111.105C173.142 111.805 174.162 112.155 175.482 112.155C176.382 112.155 177.162 111.985 177.822 111.645C178.502 111.305 179.112 110.935 179.652 110.535L180.432 112.305C179.732 112.865 178.892 113.315 177.912 113.655C176.952 113.995 175.962 114.165 174.942 114.165C174.142 114.165 173.382 114.045 172.662 113.805C171.962 113.585 171.342 113.235 170.802 112.755C170.262 112.275 169.832 111.665 169.512 110.925C169.192 110.165 169.032 109.265 169.032 108.225V100.785H165.462V98.7745ZM193.41 98.7745H197.67V109.005C197.67 109.985 197.73 110.925 197.85 111.825H199.86V113.775H195.87L195.78 111.225H195.66C195.14 112.085 194.45 112.785 193.59 113.325C192.73 113.865 191.69 114.135 190.47 114.135C189.55 114.135 188.76 114.025 188.1 113.805C187.46 113.605 186.93 113.245 186.51 112.725C186.09 112.205 185.78 111.515 185.58 110.655C185.38 109.775 185.28 108.685 185.28 107.385V100.785H183.27V98.7745H187.62V106.905C187.62 107.725 187.65 108.465 187.71 109.125C187.79 109.765 187.94 110.315 188.16 110.775C188.38 111.215 188.7 111.555 189.12 111.795C189.56 112.015 190.14 112.125 190.86 112.125C191.9 112.125 192.8 111.785 193.56 111.105C194.34 110.425 194.93 109.575 195.33 108.555V100.785H193.41V98.7745ZM203.748 99.9445C204.608 99.4445 205.578 99.0845 206.658 98.8645C207.738 98.6445 208.798 98.5345 209.838 98.5345C210.858 98.5345 211.688 98.6945 212.328 99.0145C212.988 99.3345 213.498 99.7545 213.858 100.275C214.238 100.775 214.488 101.355 214.608 102.015C214.748 102.655 214.818 103.305 214.818 103.965C214.818 104.725 214.798 105.535 214.758 106.395C214.718 107.255 214.688 108.115 214.668 108.975C214.668 109.975 214.728 110.925 214.848 111.825H216.858V113.775H212.868L212.598 111.525H212.448C212.328 111.705 212.148 111.935 211.908 112.215C211.668 112.495 211.348 112.775 210.948 113.055C210.568 113.315 210.098 113.545 209.538 113.745C208.978 113.945 208.318 114.045 207.558 114.045C206.078 114.045 204.908 113.665 204.048 112.905C203.188 112.145 202.758 111.105 202.758 109.785C202.758 108.765 202.978 107.915 203.418 107.235C203.878 106.555 204.528 106.035 205.368 105.675C206.208 105.315 207.218 105.105 208.398 105.045C209.598 104.985 210.938 105.065 212.418 105.285C212.518 104.365 212.528 103.605 212.448 103.005C212.388 102.385 212.228 101.895 211.968 101.535C211.728 101.175 211.378 100.925 210.918 100.785C210.478 100.625 209.928 100.545 209.268 100.545C208.368 100.545 207.508 100.675 206.688 100.935C205.868 101.175 205.138 101.425 204.498 101.685L203.748 99.9445ZM208.158 112.035C208.718 112.035 209.238 111.945 209.718 111.765C210.198 111.585 210.618 111.355 210.978 111.075C211.338 110.795 211.638 110.495 211.878 110.175C212.118 109.835 212.298 109.515 212.418 109.215V107.115C211.378 106.935 210.418 106.845 209.538 106.845C208.658 106.845 207.898 106.945 207.258 107.145C206.618 107.325 206.118 107.615 205.758 108.015C205.398 108.415 205.218 108.935 205.218 109.575C205.218 110.235 205.438 110.815 205.878 111.315C206.338 111.795 207.098 112.035 208.158 112.035ZM222.067 92.7745H227.047V108.735C227.047 109.955 227.247 110.815 227.647 111.315C228.067 111.815 228.677 112.065 229.477 112.065C230.037 112.065 230.567 111.965 231.067 111.765C231.587 111.565 232.157 111.225 232.777 110.745L233.857 112.395C233.537 112.675 233.187 112.925 232.807 113.145C232.427 113.365 232.037 113.555 231.637 113.715C231.237 113.855 230.837 113.965 230.437 114.045C230.037 114.125 229.667 114.165 229.327 114.165C228.587 114.165 227.927 114.065 227.347 113.865C226.767 113.685 226.277 113.385 225.877 112.965C225.497 112.545 225.207 111.995 225.007 111.315C224.807 110.615 224.707 109.755 224.707 108.735V94.7845H222.067V92.7745Z" fill="black"/>
<path d="M177.873 86.7745L139.263 34.8276M177.873 86.7745L183.09 23.2423M177.873 86.7745L166.916 28.1007M177.873 86.7745L152.307 23.2423M177.873 86.7745L195.091 28.1007" stroke="black"/>
<ellipse cx="139.263" cy="34.8276" rx="2.60876" ry="1.86859" fill="black"/>
<ellipse cx="152.828" cy="24.3635" rx="2.60876" ry="1.86859" fill="black"/>
<ellipse cx="167.438" cy="28.1007" rx="2.60876" ry="1.86859" fill="black"/>
<ellipse cx="183.09" cy="22.8686" rx="2.60876" ry="1.86859" fill="black"/>
<ellipse cx="194.569" cy="28.1007" rx="2.60876" ry="1.86859" fill="black"/>
</svg>
